<svg width="250" height="250" viewBox="0 0 250 250" fill="none" xmlns="http://www.w3.org/2000/svg">
<mask id="path-1-inside-1_12215_8293" fill="white">
<path d="M0 6C0 2.68629 2.68629 0 6 0H244C247.314 0 250 2.68629 250 6V244C250 247.314 247.314 250 244 250H6C2.68629 250 0 247.314 0 244V6Z"/>
</mask>
<path d="M0 6C0 2.68629 2.68629 0 6 0H244C247.314 0 250 2.68629 250 6V244C250 247.314 247.314 250 244 250H6C2.68629 250 0 247.314 0 244V6Z" fill="#0D0D0D"/>
<path d="M6 0V1H244V0V-1H6V0ZM250 6H249V244H250H251V6H250ZM244 250V249H6V250V251H244V250ZM0 244H1V6H0H-1V244H0ZM6 250V249C3.23857 249 1 246.761 1 244H0H-1C-1 247.866 2.134 251 6 251V250ZM250 244H249C249 246.761 246.761 249 244 249V250V251C247.866 251 251 247.866 251 244H250ZM244 0V1C246.761 1 249 3.23858 249 6H250H251C251 2.13401 247.866 -1 244 -1V0ZM6 0V-1C2.13401 -1 -1 2.134 -1 6H0H1C1 3.23857 3.23858 1 6 1V0Z" fill="#1A1A1A" mask="url(#path-1-inside-1_12215_8293)"/>
<g clip-path="url(#clip0_12215_8293)">
<path fill-rule="evenodd" clip-rule="evenodd" d="M18.5408 219.812C15.3494 219.812 12.7695 222.455 12.7695 225.725C12.7695 228.339 14.4226 230.551 16.7158 231.334C17.0025 231.393 17.1075 231.207 17.1075 231.051C17.1075 230.913 17.0981 230.444 17.0981 229.954C15.4926 230.307 15.1583 229.249 15.1583 229.249C14.9003 228.564 14.518 228.388 14.518 228.388C13.9926 228.026 14.5563 228.026 14.5563 228.026C15.1392 228.065 15.445 228.633 15.445 228.633C15.9609 229.533 16.7922 229.279 17.1266 229.122C17.1744 228.74 17.3274 228.476 17.4898 228.329C16.2093 228.192 14.8621 227.683 14.8621 225.412C14.8621 224.766 15.0913 224.237 15.4545 223.826C15.3972 223.679 15.1965 223.072 15.5119 222.26C15.5119 222.26 15.9992 222.103 17.0979 222.867C17.5683 222.737 18.0535 222.671 18.5408 222.671C19.0281 222.671 19.5248 222.739 19.9836 222.867C21.0824 222.103 21.5697 222.26 21.5697 222.26C21.8852 223.072 21.6843 223.679 21.627 223.826C21.9997 224.237 22.2195 224.766 22.2195 225.412C22.2195 227.683 20.8723 228.182 19.5823 228.329C19.7925 228.515 19.974 228.867 19.974 229.425C19.974 230.218 19.9645 230.855 19.9645 231.05C19.9645 231.207 20.0697 231.393 20.3563 231.334C22.6495 230.551 24.3025 228.339 24.3025 225.725C24.312 222.455 21.7226 219.812 18.5408 219.812Z" fill="#939393"/>
</g>
<defs>
<clipPath id="clip0_12215_8293">
<rect width="12" height="12" fill="white" transform="translate(12.5 219.5)"/>
</clipPath>
</defs>
</svg>
