<svg width="2330" height="250" viewBox="0 0 2330 250" fill="none" xmlns="http://www.w3.org/2000/svg">
<mask id="path-1-inside-1_12215_8041" fill="white">
<path d="M0 6C0 2.68629 2.68629 0 6 0H244C247.314 0 250 2.68629 250 6V244C250 247.314 247.314 250 244 250H6C2.68629 250 0 247.314 0 244V6Z"/>
</mask>
<path d="M0 6C0 2.68629 2.68629 0 6 0H244C247.314 0 250 2.68629 250 6V244C250 247.314 247.314 250 244 250H6C2.68629 250 0 247.314 0 244V6Z" fill="#0D0D0D"/>
<path d="M6 0V1H244V0V-1H6V0ZM250 6H249V244H250H251V6H250ZM244 250V249H6V250V251H244V250ZM0 244H1V6H0H-1V244H0ZM6 250V249C3.23857 249 1 246.761 1 244H0H-1C-1 247.866 2.134 251 6 251V250ZM250 244H249C249 246.761 246.761 249 244 249V250V251C247.866 251 251 247.866 251 244H250ZM244 0V1C246.761 1 249 3.23858 249 6H250H251C251 2.13401 247.866 -1 244 -1V0ZM6 0V-1C2.13401 -1 -1 2.134 -1 6H0H1C1 3.23857 3.23858 1 6 1V0Z" fill="#1A1A1A" mask="url(#path-1-inside-1_12215_8041)"/>
<g clip-path="url(#clip0_12215_8041)">
<path fill-rule="evenodd" clip-rule="evenodd" d="M18.5408 219.812C15.3494 219.812 12.7695 222.455 12.7695 225.725C12.7695 228.339 14.4226 230.551 16.7158 231.334C17.0025 231.393 17.1075 231.207 17.1075 231.051C17.1075 230.913 17.0981 230.444 17.0981 229.954C15.4926 230.307 15.1583 229.249 15.1583 229.249C14.9003 228.564 14.518 228.388 14.518 228.388C13.9926 228.026 14.5563 228.026 14.5563 228.026C15.1392 228.065 15.445 228.633 15.445 228.633C15.9609 229.533 16.7922 229.279 17.1266 229.122C17.1744 228.74 17.3274 228.476 17.4898 228.329C16.2093 228.192 14.8621 227.683 14.8621 225.412C14.8621 224.766 15.0913 224.237 15.4545 223.826C15.3972 223.679 15.1965 223.072 15.5119 222.26C15.5119 222.26 15.9992 222.103 17.0979 222.867C17.5683 222.737 18.0535 222.671 18.5408 222.671C19.0281 222.671 19.5248 222.739 19.9836 222.867C21.0824 222.103 21.5697 222.26 21.5697 222.26C21.8852 223.072 21.6843 223.679 21.627 223.826C21.9997 224.237 22.2195 224.766 22.2195 225.412C22.2195 227.683 20.8723 228.182 19.5823 228.329C19.7925 228.515 19.974 228.867 19.974 229.425C19.974 230.218 19.9645 230.855 19.9645 231.05C19.9645 231.207 20.0697 231.393 20.3563 231.334C22.6495 230.551 24.3025 228.339 24.3025 225.725C24.312 222.455 21.7226 219.812 18.5408 219.812Z" fill="#939393"/>
</g>
<mask id="path-4-inside-2_12215_8041" fill="white">
<path d="M260 6C260 2.68629 262.686 0 266 0H504C507.314 0 510 2.68629 510 6V244C510 247.314 507.314 250 504 250H266C262.686 250 260 247.314 260 244V6Z"/>
</mask>
<path d="M260 6C260 2.68629 262.686 0 266 0H504C507.314 0 510 2.68629 510 6V244C510 247.314 507.314 250 504 250H266C262.686 250 260 247.314 260 244V6Z" fill="#0D0D0D"/>
<path d="M266 0V1H504V0V-1H266V0ZM510 6H509V244H510H511V6H510ZM504 250V249H266V250V251H504V250ZM260 244H261V6H260H259V244H260ZM266 250V249C263.239 249 261 246.761 261 244H260H259C259 247.866 262.134 251 266 251V250ZM510 244H509C509 246.761 506.761 249 504 249V250V251C507.866 251 511 247.866 511 244H510ZM504 0V1C506.761 1 509 3.23858 509 6H510H511C511 2.13401 507.866 -1 504 -1V0ZM266 0V-1C262.134 -1 259 2.134 259 6H260H261C261 3.23857 263.239 1 266 1V0Z" fill="#1A1A1A" mask="url(#path-4-inside-2_12215_8041)"/>
<path fill-rule="evenodd" clip-rule="evenodd" d="M278.102 219.5H282.302L285.289 223.668L288.902 219.5H290.502L286.013 224.679L290.902 231.5H286.702L283.714 227.332L280.102 231.5H278.502L282.99 226.321L278.102 219.5ZM287.318 230.3L280.438 220.7H281.685L288.565 230.3H287.318Z" fill="#939393"/>
<mask id="path-7-inside-3_12215_8041" fill="white">
<path d="M520 6C520 2.68629 522.686 0 526 0H764C767.314 0 770 2.68629 770 6V244C770 247.314 767.314 250 764 250H526C522.686 250 520 247.314 520 244V6Z"/>
</mask>
<path d="M520 6C520 2.68629 522.686 0 526 0H764C767.314 0 770 2.68629 770 6V244C770 247.314 767.314 250 764 250H526C522.686 250 520 247.314 520 244V6Z" fill="#0D0D0D"/>
<path d="M526 0V1H764V0V-1H526V0ZM770 6H769V244H770H771V6H770ZM764 250V249H526V250V251H764V250ZM520 244H521V6H520H519V244H520ZM526 250V249C523.239 249 521 246.761 521 244H520H519C519 247.866 522.134 251 526 251V250ZM770 244H769C769 246.761 766.761 249 764 249V250V251C767.866 251 771 247.866 771 244H770ZM764 0V1C766.761 1 769 3.23858 769 6H770H771C771 2.13401 767.866 -1 764 -1V0ZM526 0V-1C522.134 -1 519 2.134 519 6H520H521C521 3.23857 523.239 1 526 1V0Z" fill="#1A1A1A" mask="url(#path-7-inside-3_12215_8041)"/>
<path fill-rule="evenodd" clip-rule="evenodd" d="M538.102 219.5H542.302L545.289 223.668L548.902 219.5H550.502L546.013 224.679L550.902 231.5H546.702L543.714 227.332L540.102 231.5H538.502L542.99 226.321L538.102 219.5ZM547.318 230.3L540.438 220.7H541.685L548.565 230.3H547.318Z" fill="#939393"/>
<mask id="path-10-inside-4_12215_8041" fill="white">
<path d="M780 6C780 2.68629 782.686 0 786 0H1024C1027.31 0 1030 2.68629 1030 6V244C1030 247.314 1027.31 250 1024 250H786C782.686 250 780 247.314 780 244V6Z"/>
</mask>
<path d="M780 6C780 2.68629 782.686 0 786 0H1024C1027.31 0 1030 2.68629 1030 6V244C1030 247.314 1027.31 250 1024 250H786C782.686 250 780 247.314 780 244V6Z" fill="#0D0D0D"/>
<path d="M786 0V1H1024V0V-1H786V0ZM1030 6H1029V244H1030H1031V6H1030ZM1024 250V249H786V250V251H1024V250ZM780 244H781V6H780H779V244H780ZM786 250V249C783.239 249 781 246.761 781 244H780H779C779 247.866 782.134 251 786 251V250ZM1030 244H1029C1029 246.761 1026.76 249 1024 249V250V251C1027.87 251 1031 247.866 1031 244H1030ZM1024 0V1C1026.76 1 1029 3.23858 1029 6H1030H1031C1031 2.13401 1027.87 -1 1024 -1V0ZM786 0V-1C782.134 -1 779 2.134 779 6H780H781C781 3.23857 783.239 1 786 1V0Z" fill="#1A1A1A" mask="url(#path-10-inside-4_12215_8041)"/>
<g clip-path="url(#clip1_12215_8041)">
<path fill-rule="evenodd" clip-rule="evenodd" d="M798.541 219.812C795.349 219.812 792.77 222.455 792.77 225.725C792.77 228.339 794.423 230.551 796.716 231.334C797.002 231.393 797.107 231.207 797.107 231.051C797.107 230.913 797.098 230.444 797.098 229.954C795.493 230.307 795.158 229.249 795.158 229.249C794.9 228.564 794.518 228.388 794.518 228.388C793.993 228.026 794.556 228.026 794.556 228.026C795.139 228.065 795.445 228.633 795.445 228.633C795.961 229.533 796.792 229.279 797.127 229.122C797.174 228.74 797.327 228.476 797.49 228.329C796.209 228.192 794.862 227.683 794.862 225.412C794.862 224.766 795.091 224.237 795.454 223.826C795.397 223.679 795.196 223.072 795.512 222.26C795.512 222.26 795.999 222.103 797.098 222.867C797.568 222.737 798.053 222.671 798.541 222.671C799.028 222.671 799.525 222.739 799.984 222.867C801.082 222.103 801.57 222.26 801.57 222.26C801.885 223.072 801.684 223.679 801.627 223.826C802 224.237 802.219 224.766 802.219 225.412C802.219 227.683 800.872 228.182 799.582 228.329C799.793 228.515 799.974 228.867 799.974 229.425C799.974 230.218 799.965 230.855 799.965 231.05C799.965 231.207 800.07 231.393 800.356 231.334C802.649 230.551 804.303 228.339 804.303 225.725C804.312 222.455 801.723 219.812 798.541 219.812Z" fill="#939393"/>
</g>
<mask id="path-13-inside-5_12215_8041" fill="white">
<path d="M1040 6C1040 2.68629 1042.69 0 1046 0H1284C1287.31 0 1290 2.68629 1290 6V114C1290 117.314 1287.31 120 1284 120H1046C1042.69 120 1040 117.314 1040 114V6Z"/>
</mask>
<path d="M1040 6C1040 2.68629 1042.69 0 1046 0H1284C1287.31 0 1290 2.68629 1290 6V114C1290 117.314 1287.31 120 1284 120H1046C1042.69 120 1040 117.314 1040 114V6Z" fill="#0D0D0D"/>
<path d="M1046 0V1H1284V0V-1H1046V0ZM1290 6H1289V114H1290H1291V6H1290ZM1284 120V119H1046V120V121H1284V120ZM1040 114H1041V6H1040H1039V114H1040ZM1046 120V119C1043.24 119 1041 116.761 1041 114H1040H1039C1039 117.866 1042.13 121 1046 121V120ZM1290 114H1289C1289 116.761 1286.76 119 1284 119V120V121C1287.87 121 1291 117.866 1291 114H1290ZM1284 0V1C1286.76 1 1289 3.23858 1289 6H1290H1291C1291 2.13401 1287.87 -1 1284 -1V0ZM1046 0V-1C1042.13 -1 1039 2.13401 1039 6H1040H1041C1041 3.23858 1043.24 1 1046 1V0Z" fill="#1A1A1A" mask="url(#path-13-inside-5_12215_8041)"/>
<path fill-rule="evenodd" clip-rule="evenodd" d="M1058.1 89.5H1062.3L1065.29 93.6684L1068.9 89.5H1070.5L1066.01 94.6789L1070.9 101.5H1066.7L1063.71 97.3316L1060.1 101.5H1058.5L1062.99 96.321L1058.1 89.5ZM1067.32 100.3L1060.44 90.7H1061.69L1068.57 100.3H1067.32Z" fill="#939393"/>
<mask id="path-16-inside-6_12215_8041" fill="white">
<path d="M1040 136C1040 132.686 1042.69 130 1046 130H1284C1287.31 130 1290 132.686 1290 136V244C1290 247.314 1287.31 250 1284 250H1046C1042.69 250 1040 247.314 1040 244V136Z"/>
</mask>
<path d="M1040 136C1040 132.686 1042.69 130 1046 130H1284C1287.31 130 1290 132.686 1290 136V244C1290 247.314 1287.31 250 1284 250H1046C1042.69 250 1040 247.314 1040 244V136Z" fill="#0D0D0D"/>
<path d="M1046 130V131H1284V130V129H1046V130ZM1290 136H1289V244H1290H1291V136H1290ZM1284 250V249H1046V250V251H1284V250ZM1040 244H1041V136H1040H1039V244H1040ZM1046 250V249C1043.24 249 1041 246.761 1041 244H1040H1039C1039 247.866 1042.13 251 1046 251V250ZM1290 244H1289C1289 246.761 1286.76 249 1284 249V250V251C1287.87 251 1291 247.866 1291 244H1290ZM1284 130V131C1286.76 131 1289 133.239 1289 136H1290H1291C1291 132.134 1287.87 129 1284 129V130ZM1046 130V129C1042.13 129 1039 132.134 1039 136H1040H1041C1041 133.239 1043.24 131 1046 131V130Z" fill="#1A1A1A" mask="url(#path-16-inside-6_12215_8041)"/>
<path fill-rule="evenodd" clip-rule="evenodd" d="M1058.1 219.5H1062.3L1065.29 223.668L1068.9 219.5H1070.5L1066.01 224.679L1070.9 231.5H1066.7L1063.71 227.332L1060.1 231.5H1058.5L1062.99 226.321L1058.1 219.5ZM1067.32 230.3L1060.44 220.7H1061.69L1068.57 230.3H1067.32Z" fill="#939393"/>
<mask id="path-19-inside-7_12215_8041" fill="white">
<path d="M1300 6C1300 2.68629 1302.69 0 1306 0H1544C1547.31 0 1550 2.68629 1550 6V244C1550 247.314 1547.31 250 1544 250H1306C1302.69 250 1300 247.314 1300 244V6Z"/>
</mask>
<path d="M1300 6C1300 2.68629 1302.69 0 1306 0H1544C1547.31 0 1550 2.68629 1550 6V244C1550 247.314 1547.31 250 1544 250H1306C1302.69 250 1300 247.314 1300 244V6Z" fill="#0D0D0D"/>
<path d="M1306 0V1H1544V0V-1H1306V0ZM1550 6H1549V244H1550H1551V6H1550ZM1544 250V249H1306V250V251H1544V250ZM1300 244H1301V6H1300H1299V244H1300ZM1306 250V249C1303.24 249 1301 246.761 1301 244H1300H1299C1299 247.866 1302.13 251 1306 251V250ZM1550 244H1549C1549 246.761 1546.76 249 1544 249V250V251C1547.87 251 1551 247.866 1551 244H1550ZM1544 0V1C1546.76 1 1549 3.23858 1549 6H1550H1551C1551 2.13401 1547.87 -1 1544 -1V0ZM1306 0V-1C1302.13 -1 1299 2.134 1299 6H1300H1301C1301 3.23857 1303.24 1 1306 1V0Z" fill="#1A1A1A" mask="url(#path-19-inside-7_12215_8041)"/>
<g clip-path="url(#clip2_12215_8041)">
<path fill-rule="evenodd" clip-rule="evenodd" d="M1318.54 219.812C1315.35 219.812 1312.77 222.455 1312.77 225.725C1312.77 228.339 1314.42 230.551 1316.72 231.334C1317 231.393 1317.11 231.207 1317.11 231.051C1317.11 230.913 1317.1 230.444 1317.1 229.954C1315.49 230.307 1315.16 229.249 1315.16 229.249C1314.9 228.564 1314.52 228.388 1314.52 228.388C1313.99 228.026 1314.56 228.026 1314.56 228.026C1315.14 228.065 1315.45 228.633 1315.45 228.633C1315.96 229.533 1316.79 229.279 1317.13 229.122C1317.17 228.74 1317.33 228.476 1317.49 228.329C1316.21 228.192 1314.86 227.683 1314.86 225.412C1314.86 224.766 1315.09 224.237 1315.45 223.826C1315.4 223.679 1315.2 223.072 1315.51 222.26C1315.51 222.26 1316 222.103 1317.1 222.867C1317.57 222.737 1318.05 222.671 1318.54 222.671C1319.03 222.671 1319.52 222.739 1319.98 222.867C1321.08 222.103 1321.57 222.26 1321.57 222.26C1321.89 223.072 1321.68 223.679 1321.63 223.826C1322 224.237 1322.22 224.766 1322.22 225.412C1322.22 227.683 1320.87 228.182 1319.58 228.329C1319.79 228.515 1319.97 228.867 1319.97 229.425C1319.97 230.218 1319.96 230.855 1319.96 231.05C1319.96 231.207 1320.07 231.393 1320.36 231.334C1322.65 230.551 1324.3 228.339 1324.3 225.725C1324.31 222.455 1321.72 219.812 1318.54 219.812Z" fill="#939393"/>
</g>
<mask id="path-22-inside-8_12215_8041" fill="white">
<path d="M1560 6C1560 2.68629 1562.69 0 1566 0H1804C1807.31 0 1810 2.68629 1810 6V114C1810 117.314 1807.31 120 1804 120H1566C1562.69 120 1560 117.314 1560 114V6Z"/>
</mask>
<path d="M1560 6C1560 2.68629 1562.69 0 1566 0H1804C1807.31 0 1810 2.68629 1810 6V114C1810 117.314 1807.31 120 1804 120H1566C1562.69 120 1560 117.314 1560 114V6Z" fill="#0D0D0D"/>
<path d="M1566 0V1H1804V0V-1H1566V0ZM1810 6H1809V114H1810H1811V6H1810ZM1804 120V119H1566V120V121H1804V120ZM1560 114H1561V6H1560H1559V114H1560ZM1566 120V119C1563.24 119 1561 116.761 1561 114H1560H1559C1559 117.866 1562.13 121 1566 121V120ZM1810 114H1809C1809 116.761 1806.76 119 1804 119V120V121C1807.87 121 1811 117.866 1811 114H1810ZM1804 0V1C1806.76 1 1809 3.23858 1809 6H1810H1811C1811 2.13401 1807.87 -1 1804 -1V0ZM1566 0V-1C1562.13 -1 1559 2.13401 1559 6H1560H1561C1561 3.23858 1563.24 1 1566 1V0Z" fill="#1A1A1A" mask="url(#path-22-inside-8_12215_8041)"/>
<path fill-rule="evenodd" clip-rule="evenodd" d="M1578.1 89.5H1582.3L1585.29 93.6684L1588.9 89.5H1590.5L1586.01 94.6789L1590.9 101.5H1586.7L1583.71 97.3316L1580.1 101.5H1578.5L1582.99 96.321L1578.1 89.5ZM1587.32 100.3L1580.44 90.7H1581.68L1588.56 100.3H1587.32Z" fill="#939393"/>
<mask id="path-25-inside-9_12215_8041" fill="white">
<path d="M1560 136C1560 132.686 1562.69 130 1566 130H1804C1807.31 130 1810 132.686 1810 136V244C1810 247.314 1807.31 250 1804 250H1566C1562.69 250 1560 247.314 1560 244V136Z"/>
</mask>
<path d="M1560 136C1560 132.686 1562.69 130 1566 130H1804C1807.31 130 1810 132.686 1810 136V244C1810 247.314 1807.31 250 1804 250H1566C1562.69 250 1560 247.314 1560 244V136Z" fill="#0D0D0D"/>
<path d="M1566 130V131H1804V130V129H1566V130ZM1810 136H1809V244H1810H1811V136H1810ZM1804 250V249H1566V250V251H1804V250ZM1560 244H1561V136H1560H1559V244H1560ZM1566 250V249C1563.24 249 1561 246.761 1561 244H1560H1559C1559 247.866 1562.13 251 1566 251V250ZM1810 244H1809C1809 246.761 1806.76 249 1804 249V250V251C1807.87 251 1811 247.866 1811 244H1810ZM1804 130V131C1806.76 131 1809 133.239 1809 136H1810H1811C1811 132.134 1807.87 129 1804 129V130ZM1566 130V129C1562.13 129 1559 132.134 1559 136H1560H1561C1561 133.239 1563.24 131 1566 131V130Z" fill="#1A1A1A" mask="url(#path-25-inside-9_12215_8041)"/>
<path fill-rule="evenodd" clip-rule="evenodd" d="M1578.1 228.5H1582.3L1585.29 232.668L1588.9 228.5H1590.5L1586.01 233.679L1590.9 240.5H1586.7L1583.71 236.332L1580.1 240.5H1578.5L1582.99 235.321L1578.1 228.5ZM1587.32 239.3L1580.44 229.7H1581.68L1588.56 239.3H1587.32Z" fill="#939393"/>
<mask id="path-28-inside-10_12215_8041" fill="white">
<path d="M1820 6C1820 2.68629 1822.69 0 1826 0H2064C2067.31 0 2070 2.68629 2070 6V114C2070 117.314 2067.31 120 2064 120H1826C1822.69 120 1820 117.314 1820 114V6Z"/>
</mask>
<path d="M1820 6C1820 2.68629 1822.69 0 1826 0H2064C2067.31 0 2070 2.68629 2070 6V114C2070 117.314 2067.31 120 2064 120H1826C1822.69 120 1820 117.314 1820 114V6Z" fill="#0D0D0D"/>
<path d="M1826 0V1H2064V0V-1H1826V0ZM2070 6H2069V114H2070H2071V6H2070ZM2064 120V119H1826V120V121H2064V120ZM1820 114H1821V6H1820H1819V114H1820ZM1826 120V119C1823.24 119 1821 116.761 1821 114H1820H1819C1819 117.866 1822.13 121 1826 121V120ZM2070 114H2069C2069 116.761 2066.76 119 2064 119V120V121C2067.87 121 2071 117.866 2071 114H2070ZM2064 0V1C2066.76 1 2069 3.23858 2069 6H2070H2071C2071 2.13401 2067.87 -1 2064 -1V0ZM1826 0V-1C1822.13 -1 1819 2.13401 1819 6H1820H1821C1821 3.23858 1823.24 1 1826 1V0Z" fill="#1A1A1A" mask="url(#path-28-inside-10_12215_8041)"/>
<path fill-rule="evenodd" clip-rule="evenodd" d="M1838.1 89.5H1842.3L1845.29 93.6684L1848.9 89.5H1850.5L1846.01 94.6789L1850.9 101.5H1846.7L1843.71 97.3316L1840.1 101.5H1838.5L1842.99 96.321L1838.1 89.5ZM1847.32 100.3L1840.44 90.7H1841.68L1848.56 100.3H1847.32Z" fill="#939393"/>
<mask id="path-31-inside-11_12215_8041" fill="white">
<path d="M1820 136C1820 132.686 1822.69 130 1826 130H2064C2067.31 130 2070 132.686 2070 136V244C2070 247.314 2067.31 250 2064 250H1826C1822.69 250 1820 247.314 1820 244V136Z"/>
</mask>
<path d="M1820 136C1820 132.686 1822.69 130 1826 130H2064C2067.31 130 2070 132.686 2070 136V244C2070 247.314 2067.31 250 2064 250H1826C1822.69 250 1820 247.314 1820 244V136Z" fill="#0D0D0D"/>
<path d="M1826 130V131H2064V130V129H1826V130ZM2070 136H2069V244H2070H2071V136H2070ZM2064 250V249H1826V250V251H2064V250ZM1820 244H1821V136H1820H1819V244H1820ZM1826 250V249C1823.24 249 1821 246.761 1821 244H1820H1819C1819 247.866 1822.13 251 1826 251V250ZM2070 244H2069C2069 246.761 2066.76 249 2064 249V250V251C2067.87 251 2071 247.866 2071 244H2070ZM2064 130V131C2066.76 131 2069 133.239 2069 136H2070H2071C2071 132.134 2067.87 129 2064 129V130ZM1826 130V129C1822.13 129 1819 132.134 1819 136H1820H1821C1821 133.239 1823.24 131 1826 131V130Z" fill="#1A1A1A" mask="url(#path-31-inside-11_12215_8041)"/>
<path fill-rule="evenodd" clip-rule="evenodd" d="M1838.1 219.5H1842.3L1845.29 223.668L1848.9 219.5H1850.5L1846.01 224.679L1850.9 231.5H1846.7L1843.71 227.332L1840.1 231.5H1838.5L1842.99 226.321L1838.1 219.5ZM1847.32 230.3L1840.44 220.7H1841.68L1848.56 230.3H1847.32Z" fill="#939393"/>
<mask id="path-34-inside-12_12215_8041" fill="white">
<path d="M2080 6C2080 2.68629 2082.69 0 2086 0H2324C2327.31 0 2330 2.68629 2330 6V114C2330 117.314 2327.31 120 2324 120H2086C2082.69 120 2080 117.314 2080 114V6Z"/>
</mask>
<path d="M2080 6C2080 2.68629 2082.69 0 2086 0H2324C2327.31 0 2330 2.68629 2330 6V114C2330 117.314 2327.31 120 2324 120H2086C2082.69 120 2080 117.314 2080 114V6Z" fill="#0D0D0D"/>
<path d="M2086 0V1H2324V0V-1H2086V0ZM2330 6H2329V114H2330H2331V6H2330ZM2324 120V119H2086V120V121H2324V120ZM2080 114H2081V6H2080H2079V114H2080ZM2086 120V119C2083.24 119 2081 116.761 2081 114H2080H2079C2079 117.866 2082.13 121 2086 121V120ZM2330 114H2329C2329 116.761 2326.76 119 2324 119V120V121C2327.87 121 2331 117.866 2331 114H2330ZM2324 0V1C2326.76 1 2329 3.23858 2329 6H2330H2331C2331 2.13401 2327.87 -1 2324 -1V0ZM2086 0V-1C2082.13 -1 2079 2.13401 2079 6H2080H2081C2081 3.23858 2083.24 1 2086 1V0Z" fill="#1A1A1A" mask="url(#path-34-inside-12_12215_8041)"/>
<path fill-rule="evenodd" clip-rule="evenodd" d="M2098.1 89.5H2102.3L2105.29 93.6684L2108.9 89.5H2110.5L2106.01 94.6789L2110.9 101.5H2106.7L2103.71 97.3316L2100.1 101.5H2098.5L2102.99 96.321L2098.1 89.5ZM2107.32 100.3L2100.44 90.7H2101.68L2108.56 100.3H2107.32Z" fill="#939393"/>
<mask id="path-37-inside-13_12215_8041" fill="white">
<path d="M2080 136C2080 132.686 2082.69 130 2086 130H2324C2327.31 130 2330 132.686 2330 136V244C2330 247.314 2327.31 250 2324 250H2086C2082.69 250 2080 247.314 2080 244V136Z"/>
</mask>
<path d="M2080 136C2080 132.686 2082.69 130 2086 130H2324C2327.31 130 2330 132.686 2330 136V244C2330 247.314 2327.31 250 2324 250H2086C2082.69 250 2080 247.314 2080 244V136Z" fill="#0D0D0D"/>
<path d="M2086 130V131H2324V130V129H2086V130ZM2330 136H2329V244H2330H2331V136H2330ZM2324 250V249H2086V250V251H2324V250ZM2080 244H2081V136H2080H2079V244H2080ZM2086 250V249C2083.24 249 2081 246.761 2081 244H2080H2079C2079 247.866 2082.13 251 2086 251V250ZM2330 244H2329C2329 246.761 2326.76 249 2324 249V250V251C2327.87 251 2331 247.866 2331 244H2330ZM2324 130V131C2326.76 131 2329 133.239 2329 136H2330H2331C2331 132.134 2327.87 129 2324 129V130ZM2086 130V129C2082.13 129 2079 132.134 2079 136H2080H2081C2081 133.239 2083.24 131 2086 131V130Z" fill="#1A1A1A" mask="url(#path-37-inside-13_12215_8041)"/>
<path fill-rule="evenodd" clip-rule="evenodd" d="M2098.1 219.5H2102.3L2105.29 223.668L2108.9 219.5H2110.5L2106.01 224.679L2110.9 231.5H2106.7L2103.71 227.332L2100.1 231.5H2098.5L2102.99 226.321L2098.1 219.5ZM2107.32 230.3L2100.44 220.7H2101.68L2108.56 230.3H2107.32Z" fill="#939393"/>
<defs>
<clipPath id="clip0_12215_8041">
<rect width="12" height="12" fill="white" transform="translate(12.5 219.5)"/>
</clipPath>
<clipPath id="clip1_12215_8041">
<rect width="12" height="12" fill="white" transform="translate(792.5 219.5)"/>
</clipPath>
<clipPath id="clip2_12215_8041">
<rect width="12" height="12" fill="white" transform="translate(1312.5 219.5)"/>
</clipPath>
</defs>
</svg>
