<svg width="138" height="139" viewBox="0 0 138 139" fill="none" xmlns="http://www.w3.org/2000/svg">
<mask id="mask0_12215_9692" style="mask-type:luminance" maskUnits="userSpaceOnUse" x="0" y="0" width="138" height="139">
<path d="M138 0.753906H0V138.754H138V0.753906Z" fill="white"/>
</mask>
<g mask="url(#mask0_12215_9692)">
<path d="M127.949 162.994L124.051 122.714M65.685 64.2542C64.6005 64.6028 63.3065 64.9949 60.0812 65.7252M60.0812 65.7252C56.6466 66.5029 53.7407 67.0604 51.1215 67.5784C50.79 67.644 50.4687 67.4268 50.4061 67.0947L48.1382 55.0637C48.0724 54.7145 47.7221 54.4961 47.3783 54.5863C46.1779 54.9009 44.7901 55.2247 43.6995 55.467C43.2932 55.5572 42.9214 55.2188 42.97 54.8055L44.338 43.1636L44.9095 38.3005C45.2424 35.1212 46.7776 30.5451 50.318 26.7427C53.9527 22.8391 58.1188 20.3359 66.4074 20.4241C71.9132 20.4827 77.545 24.3388 79.938 28.1277C82.2321 31.76 81.5369 34.9532 82.1116 39.9037L83.2113 60.133C83.8498 71.8785 91.8008 81.9555 103.075 85.309L104.157 85.6307C113.033 88.2706 120.068 95.0644 123.017 103.843M60.0812 65.7252C60.8315 68.4485 61.27 73.5144 60.135 76.0087C58.9545 78.6028 48.8746 84.9933 39.255 89.8935C32.608 93.2794 27.5595 99.4857 26.5674 106.88L19.6914 158.121" stroke="#343434" stroke-width="0.7"/>
<path d="M59.7735 39.9171H57.4345C53.4435 39.9171 50.3562 36.4181 50.8534 32.4582C51.0261 31.0823 51.5167 29.7517 52.4186 28.6985C55.4567 25.1507 60.0862 22.0031 67.4917 23.3225C78.1828 25.2272 79.6575 33.7064 79.7189 38.499C79.7804 43.2916 71.1783 42.8001 71.1783 46.9168C71.1783 50.2101 73.8088 59.9101 74.5091 62.8103L72.4532 63.3912L69.0892 46.9168L66.2628 44.0289H62.7498C61.0929 44.0289 59.7498 42.6858 59.7498 41.0289V38.3795" stroke="#343434" stroke-width="0.7" stroke-dasharray="1 2"/>
<path d="M128.074 104.808L128.069 120.992C128.069 121.623 127.557 122.135 126.925 122.135H50.8395C50.2076 122.135 49.6953 121.623 49.6953 120.991V104.808C49.6953 104.176 50.2076 103.664 50.8395 103.664H126.93C127.562 103.664 128.074 104.176 128.074 104.808Z" stroke="#343434" stroke-width="0.724428"/>
<path d="M33.0213 93.6295H1.41728C0.923622 93.6295 0.523438 93.2293 0.523438 92.7356V80.093C0.523438 79.5994 0.923622 79.1992 1.41728 79.1992H56.9139" stroke="#343434" stroke-width="0.565939"/>
<path d="M83.3555 61.0156H126.302C126.741 61.0156 127.097 61.3717 127.097 61.811L127.094 73.0586C127.094 73.4977 126.738 73.8536 126.299 73.8536H87.7539" stroke="#343434" stroke-width="0.5"/>
<path d="M120.312 42.7219L120.311 50.832C120.311 51.1487 120.054 51.4053 119.737 51.4053H90.4562C90.1395 51.4053 89.8828 51.1486 89.8828 50.8319V42.7218C89.8828 42.4051 90.1395 42.1484 90.4562 42.1484H119.739C120.056 42.1484 120.312 42.4052 120.312 42.7219Z" stroke="#343434" stroke-width="0.363046"/>
<path d="M96.9022 33.4838L96.9019 34.4581C96.9018 34.7747 96.6451 35.0313 96.3285 35.0313H87.339C87.0223 35.0313 86.7656 34.7746 86.7656 34.4579V33.4836C86.7656 33.1669 87.0223 32.9102 87.339 32.9102H96.3288C96.6455 32.9102 96.9023 33.167 96.9022 33.4838Z" stroke="#343434" stroke-width="0.363046"/>
<path d="M37.8632 62.7497L37.8615 69.2079C37.8614 69.46 37.657 69.6644 37.4049 69.6644H9.32379C9.07161 69.6644 8.86719 69.46 8.86719 69.2078V62.7496C8.86719 62.4974 9.07161 62.293 9.32379 62.293H37.4066C37.6588 62.293 37.8632 62.4975 37.8632 62.7497Z" stroke="#343434" stroke-width="0.289099"/>
<path d="M44.6304 41.3633H32.105C31.8529 41.3633 31.6484 41.5677 31.6484 41.8199V44.8252C31.6484 45.0774 31.8529 45.2818 32.105 45.2818H44.085" stroke="#343434" stroke-width="0.289099"/>
<path d="M56.7812 115.953V110.128H58.8574C59.3105 110.128 59.6861 110.211 59.9837 110.376C60.2814 110.541 60.5042 110.766 60.6521 111.053C60.8 111.337 60.8739 111.658 60.8739 112.014C60.8739 112.372 60.7991 112.695 60.6493 112.981C60.5014 113.265 60.2776 113.491 59.9781 113.658C59.6804 113.823 59.3058 113.905 58.8545 113.905H57.4268V113.16H58.7749C59.0612 113.16 59.2935 113.111 59.4717 113.012C59.6499 112.912 59.7809 112.775 59.8643 112.603C59.9477 112.43 59.9893 112.234 59.9893 112.014C59.9893 111.794 59.9477 111.599 59.8643 111.428C59.7809 111.257 59.649 111.124 59.4689 111.027C59.2906 110.93 59.0555 110.882 58.7635 110.882H57.66V115.953H56.7812ZM61.8359 115.953V111.585H62.6578V112.278H62.7034C62.783 112.043 62.9233 111.858 63.1243 111.724C63.3272 111.587 63.5566 111.519 63.8126 111.519C63.8657 111.519 63.9282 111.521 64.0003 111.525C64.0742 111.529 64.1322 111.533 64.1739 111.539V112.352C64.1397 112.343 64.079 112.333 63.9917 112.321C63.9045 112.308 63.8173 112.301 63.7301 112.301C63.5291 112.301 63.3499 112.344 63.1925 112.429C63.0371 112.513 62.9138 112.629 62.8228 112.779C62.7318 112.927 62.6863 113.096 62.6863 113.285V115.953H61.8359ZM66.6361 116.041C66.2057 116.041 65.835 115.949 65.524 115.765C65.215 115.58 64.9762 115.319 64.8074 114.983C64.6405 114.646 64.557 114.25 64.557 113.797C64.557 113.35 64.6405 112.955 64.8074 112.614C64.9762 112.273 65.2112 112.006 65.5126 111.815C65.816 111.623 66.1706 111.528 66.5763 111.528C66.8228 111.528 67.0618 111.568 67.2932 111.65C67.5245 111.731 67.732 111.859 67.9159 112.034C68.0999 112.208 68.245 112.435 68.3512 112.714C68.4574 112.99 68.5105 113.327 68.5105 113.723V114.025H65.0378V113.388H67.677C67.677 113.164 67.6316 112.966 67.5406 112.793C67.4496 112.619 67.3215 112.481 67.1566 112.381C66.9935 112.28 66.802 112.23 66.582 112.23C66.3431 112.23 66.1347 112.289 65.9564 112.406C65.7801 112.522 65.6436 112.674 65.5469 112.862C65.4521 113.047 65.4046 113.249 65.4046 113.467V113.965C65.4046 114.257 65.4559 114.505 65.5582 114.71C65.6625 114.915 65.8075 115.071 65.9933 115.179C66.1791 115.286 66.3962 115.339 66.6446 115.339C66.8058 115.339 66.9527 115.316 67.0854 115.271C67.2182 115.223 67.3329 115.153 67.4296 115.06C67.5263 114.967 67.6003 114.852 67.6515 114.716L68.4564 114.861C68.392 115.098 68.2763 115.306 68.1094 115.484C67.9445 115.66 67.7368 115.798 67.4865 115.896C67.2381 115.993 66.9546 116.041 66.6361 116.041ZM71.5331 111.585V112.267H69.0643V111.585H71.5331ZM69.7412 115.953V111.078C69.7412 110.805 69.8009 110.579 69.9203 110.399C70.0398 110.216 70.1981 110.081 70.3953 109.992C70.5925 109.901 70.8068 109.855 71.0381 109.855C71.2087 109.855 71.3548 109.87 71.4762 109.898C71.5975 109.924 71.6875 109.949 71.7463 109.972L71.5472 110.66C71.5074 110.649 71.4562 110.636 71.3936 110.62C71.331 110.603 71.2552 110.595 71.1661 110.595C70.9594 110.595 70.8116 110.646 70.7225 110.748C70.6353 110.851 70.5917 110.999 70.5917 111.192V115.953H69.7412ZM74.1211 116.041C73.6907 116.041 73.32 115.949 73.0091 115.765C72.7 115.58 72.4612 115.319 72.2924 114.983C72.1256 114.646 72.0421 114.25 72.0421 113.797C72.0421 113.35 72.1256 112.955 72.2924 112.614C72.4612 112.273 72.6962 112.006 72.9977 111.815C73.3011 111.623 73.6556 111.528 74.0614 111.528C74.3079 111.528 74.5468 111.568 74.7781 111.65C75.0094 111.731 75.2171 111.859 75.401 112.034C75.5849 112.208 75.7301 112.435 75.8362 112.714C75.9424 112.99 75.9954 113.327 75.9954 113.723V114.025H72.5228V113.388H75.1621C75.1621 113.164 75.1167 112.966 75.0257 112.793C74.9346 112.619 74.8066 112.481 74.6416 112.381C74.4785 112.28 74.287 112.23 74.0671 112.23C73.8282 112.23 73.6197 112.289 73.4415 112.406C73.2651 112.522 73.1285 112.674 73.0318 112.862C72.937 113.047 72.8896 113.249 72.8896 113.467V113.965C72.8896 114.257 72.9409 114.505 73.0433 114.71C73.1476 114.915 73.2925 115.071 73.4783 115.179C73.6642 115.286 73.8813 115.339 74.1297 115.339C74.2908 115.339 74.4378 115.316 74.5705 115.271C74.7032 115.223 74.8179 115.153 74.9146 115.06C75.0113 114.967 75.0854 114.852 75.1366 114.716L75.9415 114.861C75.877 115.098 75.7613 115.306 75.5945 115.484C75.4295 115.66 75.2218 115.798 74.9715 115.896C74.7231 115.993 74.4397 116.041 74.1211 116.041ZM76.9389 115.953V111.585H77.7609V112.278H77.8064C77.886 112.043 78.0264 111.858 78.2273 111.724C78.4302 111.587 78.6596 111.519 78.9156 111.519C78.9687 111.519 79.0313 111.521 79.1033 111.525C79.1773 111.529 79.2351 111.533 79.2768 111.539V112.352C79.2427 112.343 79.182 112.333 79.0948 112.321C79.0076 112.308 78.9204 112.301 78.8331 112.301C78.6322 112.301 78.453 112.344 78.2956 112.429C78.1401 112.513 78.0169 112.629 77.9259 112.779C77.8349 112.927 77.7893 113.096 77.7893 113.285V115.953H76.9389ZM84.4645 110.128H85.3405V114.258C85.3405 114.632 85.2667 114.951 85.1188 115.216C84.9728 115.482 84.767 115.685 84.5015 115.825C84.236 115.964 83.9251 116.033 83.5686 116.033C83.2406 116.033 82.9459 115.973 82.6842 115.854C82.4244 115.734 82.2186 115.561 82.0669 115.333C81.9171 115.104 81.8422 114.825 81.8422 114.497H82.7154C82.7154 114.658 82.7524 114.797 82.8263 114.915C82.9021 115.033 83.0055 115.125 83.1363 115.191C83.269 115.255 83.4207 115.288 83.5914 115.288C83.7772 115.288 83.9346 115.249 84.0635 115.171C84.1943 115.091 84.294 114.975 84.3622 114.821C84.4305 114.668 84.4645 114.48 84.4645 114.258V110.128ZM87.8227 116.05C87.5459 116.05 87.2956 115.999 87.0719 115.896C86.8481 115.792 86.6709 115.641 86.54 115.444C86.4111 115.247 86.3466 115.005 86.3466 114.719C86.3466 114.472 86.394 114.269 86.4888 114.11C86.5836 113.951 86.7116 113.825 86.8728 113.732C87.034 113.639 87.2141 113.569 87.4132 113.521C87.6123 113.474 87.8153 113.438 88.0219 113.413C88.2836 113.383 88.4959 113.358 88.659 113.339C88.8221 113.318 88.9406 113.285 89.0145 113.24C89.0885 113.194 89.1254 113.12 89.1254 113.018V112.998C89.1254 112.75 89.0552 112.557 88.9149 112.421C88.7765 112.284 88.5698 112.216 88.2949 112.216C88.0086 112.216 87.7829 112.279 87.618 112.406C87.4549 112.532 87.3421 112.671 87.2795 112.825L86.4803 112.643C86.5751 112.377 86.7135 112.163 86.8955 112C87.0795 111.835 87.2909 111.715 87.5298 111.641C87.7687 111.566 88.0199 111.528 88.2835 111.528C88.4579 111.528 88.6429 111.548 88.8382 111.59C89.0354 111.63 89.2192 111.704 89.3899 111.812C89.5624 111.92 89.7038 112.075 89.8137 112.276C89.9237 112.475 89.9786 112.734 89.9786 113.052V115.953H89.1481V115.356H89.1141C89.0591 115.466 88.9765 115.574 88.8665 115.68C88.7566 115.786 88.6153 115.874 88.4428 115.945C88.2702 116.015 88.0635 116.05 87.8227 116.05ZM88.0077 115.367C88.2428 115.367 88.4437 115.321 88.6106 115.228C88.7793 115.135 88.9073 115.014 88.9945 114.864C89.0836 114.712 89.1283 114.55 89.1283 114.377V113.814C89.098 113.845 89.0392 113.873 88.952 113.9C88.8666 113.924 88.769 113.946 88.659 113.965C88.549 113.982 88.4418 113.998 88.3375 114.013C88.2332 114.027 88.1461 114.038 88.076 114.048C87.911 114.068 87.7602 114.103 87.6236 114.153C87.489 114.202 87.3809 114.273 87.2994 114.366C87.2198 114.457 87.18 114.578 87.18 114.73C87.18 114.941 87.2577 115.1 87.4132 115.208C87.5687 115.314 87.7669 115.367 88.0077 115.367ZM94.692 111.585L93.1078 115.953H92.1977L90.6107 111.585H91.5238L92.6301 114.946H92.6755L93.7792 111.585H94.692ZM96.6375 116.05C96.3607 116.05 96.1104 115.999 95.8867 115.896C95.6629 115.792 95.4856 115.641 95.3548 115.444C95.2259 115.247 95.1613 115.005 95.1613 114.719C95.1613 114.472 95.2088 114.269 95.3036 114.11C95.3984 113.951 95.5263 113.825 95.6875 113.732C95.8486 113.639 96.0289 113.569 96.228 113.521C96.427 113.474 96.6298 113.438 96.8365 113.413C97.0982 113.383 97.3105 113.358 97.4736 113.339C97.6367 113.318 97.7552 113.285 97.8291 113.24C97.9031 113.194 97.94 113.12 97.94 113.018V112.998C97.94 112.75 97.8699 112.557 97.7296 112.421C97.5911 112.284 97.3846 112.216 97.1096 112.216C96.8233 112.216 96.5976 112.279 96.4326 112.406C96.2696 112.532 96.1568 112.671 96.0942 112.825L95.2951 112.643C95.3899 112.377 95.5283 112.163 95.7103 112C95.8942 111.835 96.1057 111.715 96.3446 111.641C96.5835 111.566 96.8347 111.528 97.0983 111.528C97.2727 111.528 97.4575 111.548 97.6528 111.59C97.85 111.63 98.034 111.704 98.2046 111.812C98.3772 111.92 98.5183 112.075 98.6283 112.276C98.7383 112.475 98.7934 112.734 98.7934 113.052V115.953H97.9628V115.356H97.9287C97.8737 115.466 97.7913 115.574 97.6813 115.68C97.5713 115.786 97.43 115.874 97.2574 115.945C97.0849 116.015 96.8783 116.05 96.6375 116.05ZM96.8223 115.367C97.0574 115.367 97.2584 115.321 97.4252 115.228C97.594 115.135 97.722 115.014 97.8092 114.864C97.8983 114.712 97.9429 114.55 97.9429 114.377V113.814C97.9125 113.845 97.8538 113.873 97.7665 113.9C97.6812 113.924 97.5836 113.946 97.4736 113.965C97.3636 113.982 97.2566 113.998 97.1523 114.013C97.048 114.027 96.9607 114.038 96.8905 114.048C96.7256 114.068 96.5748 114.103 96.4383 114.153C96.3037 114.202 96.1957 114.273 96.1142 114.366C96.0346 114.457 95.9947 114.578 95.9947 114.73C95.9947 114.941 96.0725 115.1 96.228 115.208C96.3834 115.314 96.5815 115.367 96.8223 115.367ZM103.171 111.658C103.141 111.389 103.016 111.181 102.796 111.033C102.576 110.883 102.299 110.808 101.966 110.808C101.727 110.808 101.52 110.846 101.346 110.922C101.171 110.996 101.036 111.098 100.939 111.229C100.844 111.358 100.797 111.505 100.797 111.67C100.797 111.808 100.829 111.928 100.893 112.028C100.96 112.129 101.046 112.213 101.152 112.281C101.26 112.348 101.376 112.404 101.499 112.449C101.622 112.493 101.741 112.529 101.855 112.557L102.423 112.705C102.609 112.751 102.8 112.812 102.995 112.89C103.19 112.968 103.372 113.07 103.538 113.197C103.705 113.324 103.84 113.482 103.942 113.669C104.047 113.857 104.099 114.082 104.099 114.343C104.099 114.673 104.013 114.966 103.843 115.222C103.674 115.478 103.428 115.68 103.106 115.828C102.786 115.976 102.398 116.05 101.943 116.05C101.507 116.05 101.129 115.981 100.811 115.842C100.492 115.704 100.243 115.508 100.063 115.253C99.8823 114.997 99.7828 114.694 99.7638 114.343H100.646C100.663 114.554 100.731 114.729 100.851 114.869C100.972 115.008 101.127 115.111 101.314 115.179C101.504 115.246 101.712 115.279 101.937 115.279C102.186 115.279 102.406 115.24 102.6 115.162C102.795 115.083 102.949 114.973 103.061 114.833C103.172 114.69 103.228 114.524 103.228 114.335C103.228 114.162 103.179 114.021 103.08 113.911C102.984 113.801 102.852 113.71 102.685 113.638C102.52 113.566 102.333 113.502 102.125 113.447L101.437 113.26C100.97 113.133 100.6 112.946 100.327 112.699C100.056 112.453 99.9203 112.127 99.9203 111.721C99.9203 111.385 100.012 111.092 100.194 110.842C100.376 110.592 100.622 110.398 100.933 110.259C101.244 110.119 101.595 110.049 101.985 110.049C102.38 110.049 102.728 110.118 103.029 110.256C103.333 110.395 103.572 110.585 103.746 110.828C103.92 111.069 104.011 111.346 104.019 111.658H103.171ZM106.921 116.041C106.498 116.041 106.134 115.946 105.829 115.754C105.525 115.561 105.292 115.294 105.129 114.955C104.966 114.615 104.884 114.227 104.884 113.789C104.884 113.345 104.968 112.953 105.135 112.614C105.302 112.273 105.537 112.006 105.84 111.815C106.143 111.623 106.501 111.528 106.912 111.528C107.244 111.528 107.54 111.589 107.8 111.712C108.059 111.834 108.269 112.004 108.428 112.224C108.589 112.444 108.685 112.701 108.715 112.995H107.888C107.842 112.79 107.738 112.614 107.575 112.466C107.414 112.318 107.198 112.244 106.926 112.244C106.689 112.244 106.482 112.307 106.304 112.432C106.127 112.555 105.99 112.732 105.891 112.961C105.793 113.189 105.743 113.458 105.743 113.769C105.743 114.087 105.792 114.362 105.888 114.594C105.985 114.825 106.122 115.004 106.298 115.131C106.476 115.258 106.686 115.322 106.926 115.322C107.088 115.322 107.234 115.292 107.364 115.234C107.497 115.173 107.608 115.087 107.697 114.975C107.788 114.863 107.852 114.728 107.888 114.571H108.715C108.685 114.853 108.593 115.106 108.44 115.327C108.286 115.549 108.08 115.724 107.822 115.851C107.566 115.978 107.266 116.041 106.921 116.041ZM109.625 115.953V111.585H110.447V112.278H110.492C110.572 112.043 110.712 111.858 110.913 111.724C111.116 111.587 111.346 111.519 111.602 111.519C111.655 111.519 111.717 111.521 111.789 111.525C111.863 111.529 111.921 111.533 111.963 111.539V112.352C111.929 112.343 111.868 112.333 111.781 112.321C111.693 112.308 111.606 112.301 111.519 112.301C111.318 112.301 111.139 112.344 110.981 112.429C110.826 112.513 110.703 112.629 110.612 112.779C110.521 112.927 110.475 113.096 110.475 113.285V115.953H109.625ZM112.699 115.953V111.585H113.549V115.953H112.699ZM113.128 110.91C112.98 110.91 112.853 110.861 112.747 110.763C112.643 110.662 112.591 110.543 112.591 110.404C112.591 110.264 112.643 110.144 112.747 110.046C112.853 109.945 112.98 109.895 113.128 109.895C113.276 109.895 113.402 109.945 113.506 110.046C113.613 110.144 113.666 110.264 113.666 110.404C113.666 110.543 113.613 110.662 113.506 110.763C113.402 110.861 113.276 110.91 113.128 110.91ZM114.693 117.591V111.585H115.524V112.293H115.595C115.644 112.202 115.715 112.096 115.808 111.977C115.901 111.858 116.03 111.753 116.195 111.664C116.36 111.573 116.578 111.528 116.849 111.528C117.202 111.528 117.516 111.617 117.793 111.795C118.07 111.973 118.287 112.23 118.444 112.566C118.604 112.901 118.683 113.305 118.683 113.777C118.683 114.249 118.605 114.654 118.447 114.992C118.29 115.327 118.074 115.586 117.799 115.768C117.524 115.948 117.21 116.038 116.857 116.038C116.592 116.038 116.375 115.994 116.206 115.905C116.039 115.816 115.908 115.711 115.814 115.592C115.719 115.472 115.646 115.366 115.595 115.273H115.543V117.591H114.693ZM115.526 113.769C115.526 114.076 115.571 114.345 115.66 114.577C115.749 114.808 115.878 114.989 116.047 115.12C116.216 115.249 116.422 115.313 116.667 115.313C116.921 115.313 117.133 115.246 117.304 115.111C117.475 114.975 117.604 114.79 117.691 114.557C117.78 114.323 117.824 114.061 117.824 113.769C117.824 113.481 117.781 113.222 117.694 112.992C117.608 112.763 117.479 112.582 117.307 112.449C117.136 112.316 116.923 112.25 116.667 112.25C116.42 112.25 116.212 112.314 116.041 112.441C115.872 112.568 115.744 112.745 115.657 112.972C115.57 113.2 115.526 113.465 115.526 113.769ZM121.675 111.585V112.267H119.289V111.585H121.675ZM119.929 110.538H120.78V114.67C120.78 114.835 120.804 114.96 120.853 115.043C120.903 115.125 120.966 115.18 121.044 115.211C121.124 115.239 121.21 115.253 121.303 115.253C121.371 115.253 121.431 115.249 121.482 115.239C121.533 115.23 121.573 115.222 121.601 115.216L121.755 115.919C121.706 115.938 121.636 115.957 121.545 115.976C121.454 115.997 121.34 116.008 121.203 116.01C120.98 116.014 120.771 115.974 120.578 115.891C120.384 115.807 120.228 115.678 120.108 115.504C119.989 115.329 119.929 115.11 119.929 114.847V110.538Z" fill="#343434"/>
<path fill-rule="evenodd" clip-rule="evenodd" d="M43.2734 85.1538V87.7978L43.9378 87.4098V86.4625C43.9378 86.3085 43.9696 86.1729 44.0333 86.0559C44.0985 85.9389 44.1837 85.8478 44.2888 85.7826C44.3955 85.716 44.5118 85.6826 44.6377 85.6826C44.8228 85.6826 44.9732 85.7389 45.0887 85.8515C45.2043 85.9641 45.262 86.1129 45.262 86.2981V86.8129L45.9242 86.3914C45.9242 86.184 45.9842 86.0144 46.1041 85.8826C46.2241 85.7493 46.3922 85.6826 46.6085 85.6826C46.7833 85.6826 46.9336 85.7345 47.0596 85.8382L47.6173 85.4004C47.4217 85.2064 47.1692 85.1094 46.8596 85.1094C46.6137 85.1094 46.4019 85.1642 46.2241 85.2738C46.0464 85.3819 45.9168 85.5271 45.8353 85.7093H45.7997C45.7257 85.5227 45.6109 85.376 45.4553 85.2694C45.3013 85.1627 45.1102 85.1094 44.8821 85.1094C44.6569 85.1094 44.4636 85.1627 44.3022 85.2694C44.1407 85.3745 44.0244 85.5212 43.9533 85.7093H43.9111V85.1538H43.2734Z" fill="#343434"/>
<path d="M40.7039 88.6422C40.4877 88.6422 40.2922 88.6022 40.1174 88.5222C39.9426 88.4407 39.8041 88.323 39.7019 88.1689C39.6011 88.0149 39.5508 87.826 39.5508 87.6024C39.5508 87.4098 39.5878 87.2513 39.6619 87.1269C39.7359 87.0024 39.8359 86.9039 39.9618 86.8314C40.0877 86.7588 40.2285 86.704 40.384 86.6669C40.5395 86.6299 40.698 86.6018 40.8595 86.5825C41.0639 86.5588 41.2298 86.5395 41.3572 86.5247C41.4846 86.5084 41.5772 86.4825 41.6349 86.447C41.6927 86.4114 41.7216 86.3536 41.7216 86.2737V86.2581C41.7216 86.0641 41.6668 85.9137 41.5572 85.8071C41.449 85.7004 41.2876 85.6471 41.0728 85.6471C40.8491 85.6471 40.6728 85.6967 40.544 85.7959C40.4166 85.8937 40.3284 86.0026 40.2796 86.1226L39.6552 85.9804C39.7293 85.773 39.8374 85.6056 39.9796 85.4782C40.1233 85.3493 40.2885 85.256 40.4751 85.1983C40.6617 85.139 40.858 85.1094 41.0639 85.1094C41.2002 85.1094 41.3446 85.1257 41.4972 85.1583C41.6512 85.1894 41.7949 85.2471 41.9282 85.3316C42.063 85.416 42.1734 85.5367 42.2593 85.6937C42.3452 85.8493 42.3881 86.0515 42.3881 86.3003V88.5667H41.7394V88.1001H41.7127C41.6697 88.186 41.6053 88.2704 41.5194 88.3534C41.4335 88.4363 41.3231 88.5052 41.1883 88.56C41.0535 88.6148 40.8921 88.6422 40.7039 88.6422ZM40.8484 88.1089C41.032 88.1089 41.1891 88.0727 41.3194 88.0001C41.4512 87.9275 41.5512 87.8327 41.6194 87.7157C41.689 87.5972 41.7238 87.4705 41.7238 87.3357V86.8958C41.7001 86.9195 41.6542 86.9417 41.586 86.9624C41.5194 86.9817 41.4431 86.9987 41.3572 87.0135C41.2713 87.0269 41.1876 87.0395 41.1061 87.0513C41.0246 87.0617 40.9565 87.0706 40.9017 87.078C40.7728 87.0943 40.6551 87.1217 40.5484 87.1602C40.4432 87.1987 40.3588 87.2543 40.2951 87.3268C40.2329 87.3979 40.2018 87.4927 40.2018 87.6112C40.2018 87.7757 40.2625 87.9001 40.384 87.9845C40.5055 88.0675 40.6602 88.1089 40.8484 88.1089Z" fill="#343434"/>
<path d="M36.633 86.5403V88.5667H35.9688V85.1538H36.6063V85.7093H36.6487C36.7272 85.5286 36.8501 85.3834 37.0175 85.2738C37.1864 85.1642 37.3989 85.1094 37.6552 85.1094C37.8877 85.1094 38.0914 85.1583 38.2662 85.256C38.441 85.3523 38.5764 85.496 38.6727 85.6871C38.769 85.8782 38.8172 86.1144 38.8172 86.3959V88.5667H38.1529V86.4758C38.1529 86.2285 38.0883 86.0352 37.9595 85.8959C37.8306 85.7552 37.6537 85.6849 37.4285 85.6849C37.2745 85.6849 37.1375 85.7182 37.0175 85.7848C36.899 85.8515 36.8048 85.9493 36.7352 86.0781C36.6671 86.2055 36.633 86.3596 36.633 86.5403Z" fill="#343434"/>
<path d="M31.9141 88.5695V85.1566H32.5562V85.6988H32.5917C32.654 85.5151 32.7636 85.3707 32.9206 85.2655C33.0791 85.1589 33.2583 85.1055 33.4583 85.1055C33.4998 85.1055 33.5486 85.107 33.6049 85.11C33.6627 85.1129 33.7079 85.1166 33.7405 85.1211V85.7565C33.7138 85.7491 33.6664 85.741 33.5983 85.7321C33.5301 85.7217 33.462 85.7166 33.3938 85.7166C33.2368 85.7166 33.0969 85.7499 32.9739 85.8165C32.8524 85.8817 32.7562 85.9728 32.6851 86.0898C32.614 86.2054 32.5784 86.3372 32.5784 86.4853V88.5695H31.9141Z" fill="#343434"/>
<path d="M29.7101 88.6355C29.3739 88.6355 29.0843 88.5637 28.8414 88.42C28.5999 88.2748 28.4133 88.0712 28.2815 87.809C28.1511 87.5453 28.0859 87.2365 28.0859 86.8825C28.0859 86.5329 28.1511 86.2248 28.2815 85.9581C28.4133 85.6915 28.597 85.4834 28.8325 85.3338C29.0695 85.1842 29.3465 85.1094 29.6635 85.1094C29.8561 85.1094 30.0427 85.1412 30.2234 85.2049C30.4041 85.2686 30.5663 85.3686 30.71 85.5049C30.8537 85.6412 30.967 85.8182 31.05 86.0359C31.1329 86.2522 31.1744 86.5151 31.1744 86.8247V87.0602H28.4614V86.5625H30.5234C30.5234 86.3877 30.4878 86.2329 30.4167 86.0981C30.3456 85.9618 30.2456 85.8545 30.1168 85.776C29.9894 85.6974 29.8398 85.6582 29.6679 85.6582C29.4813 85.6582 29.3184 85.7041 29.1791 85.7959C29.0414 85.8863 28.9347 86.0048 28.8592 86.1515C28.7851 86.2966 28.7481 86.4544 28.7481 86.6247V87.0135C28.7481 87.2417 28.7881 87.4357 28.868 87.5957C28.9495 87.7557 29.0628 87.8779 29.208 87.9623C29.3532 88.0453 29.5228 88.0867 29.7168 88.0867C29.8427 88.0867 29.9575 88.069 30.0612 88.0334C30.1649 87.9964 30.2545 87.9416 30.3301 87.869C30.4056 87.7964 30.4634 87.7068 30.5034 87.6001L31.1322 87.7134C31.0818 87.8986 30.9914 88.0608 30.8611 88.2C30.7322 88.3378 30.57 88.4452 30.3745 88.5222C30.1804 88.5978 29.959 88.6355 29.7101 88.6355Z" fill="#343434"/>
<path d="M27.5439 85.1535V85.6868H25.6797V85.1535H27.5439ZM26.1796 84.3359H26.844V87.5643C26.844 87.6931 26.8632 87.7902 26.9017 87.8553C26.9402 87.919 26.9899 87.9627 27.0506 87.9864C27.1128 88.0087 27.1802 88.0198 27.2528 88.0198C27.3061 88.0198 27.3528 88.0161 27.3928 88.0087C27.4328 88.0013 27.4639 87.9953 27.4861 87.9909L27.6061 88.5397C27.5676 88.5545 27.5128 88.5693 27.4417 88.5841C27.3706 88.6004 27.2817 88.6093 27.175 88.6108C27.0002 88.6138 26.8373 88.5826 26.6862 88.5175C26.5351 88.4523 26.4129 88.3516 26.3196 88.2153C26.2263 88.079 26.1796 87.9079 26.1796 87.702V84.3359Z" fill="#343434"/>
<path d="M22.8479 86.5436V88.57H22.1836V84.0195H22.8391V85.7126H22.8813C22.9613 85.5289 23.0835 85.383 23.2479 85.2749C23.4123 85.1668 23.6271 85.1127 23.8922 85.1127C24.1263 85.1127 24.3307 85.1608 24.5055 85.2571C24.6818 85.3534 24.818 85.4971 24.9143 85.6882C25.0121 85.8778 25.061 86.1148 25.061 86.3992V88.57H24.3966V86.4792C24.3966 86.2288 24.3322 86.0348 24.2033 85.897C24.0744 85.7578 23.8952 85.6882 23.6656 85.6882C23.5086 85.6882 23.3679 85.7215 23.2434 85.7881C23.1205 85.8548 23.0235 85.9526 22.9524 86.0814C22.8828 86.2088 22.8479 86.3629 22.8479 86.5436Z" fill="#343434"/>
<path d="M19.7556 89.9176C19.4845 89.9176 19.2512 89.882 19.0557 89.8109C18.8616 89.7398 18.7031 89.6458 18.5802 89.5287C18.4572 89.4117 18.3654 89.2836 18.3047 89.1444L18.8757 88.9088C18.9157 88.974 18.969 89.0429 19.0357 89.1155C19.1038 89.1895 19.1956 89.2525 19.3112 89.3043C19.4282 89.3562 19.5785 89.3821 19.7622 89.3821C20.014 89.3821 20.2222 89.3206 20.3866 89.1977C20.551 89.0762 20.6332 88.8822 20.6332 88.6155V87.9445H20.591C20.551 88.0171 20.4932 88.0978 20.4177 88.1867C20.3436 88.2756 20.2414 88.3526 20.1111 88.4178C19.9807 88.483 19.8111 88.5156 19.6022 88.5156C19.3327 88.5156 19.0897 88.4526 18.8735 88.3267C18.6587 88.1993 18.4883 88.0119 18.3624 87.7646C18.238 87.5157 18.1758 87.2098 18.1758 86.8469C18.1758 86.484 18.2373 86.1729 18.3602 85.9137C18.4846 85.6545 18.655 85.456 18.8712 85.3182C19.0875 85.179 19.3327 85.1094 19.6067 85.1094C19.8185 85.1094 19.9896 85.1449 20.1199 85.216C20.2503 85.2857 20.3518 85.3671 20.4243 85.4604C20.4984 85.5538 20.5554 85.636 20.5954 85.7071H20.6443V85.1538H21.2953V88.6422C21.2953 88.9355 21.2272 89.1762 21.0909 89.3643C20.9546 89.5524 20.7702 89.6917 20.5377 89.782C20.3066 89.8724 20.0459 89.9176 19.7556 89.9176ZM19.7489 87.9645C19.94 87.9645 20.1014 87.9201 20.2333 87.8312C20.3666 87.7409 20.4673 87.612 20.5354 87.4446C20.6051 87.2757 20.6399 87.0735 20.6399 86.838C20.6399 86.6084 20.6058 86.4062 20.5377 86.2314C20.4695 86.0567 20.3695 85.9204 20.2377 85.8226C20.1059 85.7234 19.9429 85.6737 19.7489 85.6737C19.5489 85.6737 19.3823 85.7256 19.249 85.8293C19.1156 85.9315 19.0149 86.0707 18.9468 86.247C18.8801 86.4233 18.8468 86.6203 18.8468 86.838C18.8468 87.0617 18.8809 87.258 18.949 87.4268C19.0171 87.5957 19.1179 87.7275 19.2512 87.8223C19.386 87.9171 19.5519 87.9645 19.7489 87.9645Z" fill="#343434"/>
<path d="M16.7635 87.1537V85.1562H17.43V88.5692H16.7768V87.9781H16.7413C16.6627 88.1603 16.5368 88.3121 16.3635 88.4335C16.1917 88.5535 15.9777 88.6135 15.7214 88.6135C15.5022 88.6135 15.3081 88.5654 15.1393 88.4692C14.9719 88.3714 14.84 88.227 14.7438 88.0359C14.649 87.8448 14.6016 87.6085 14.6016 87.327V85.1562H15.2659V87.247C15.2659 87.4796 15.3303 87.6648 15.4592 87.8026C15.5881 87.9404 15.7555 88.0091 15.9614 88.0091C16.0858 88.0091 16.2095 87.978 16.3324 87.9158C16.4568 87.8536 16.5598 87.7596 16.6413 87.6337C16.7242 87.5078 16.765 87.3477 16.7635 87.1537Z" fill="#343434"/>
<path d="M12.0321 88.6422C11.8158 88.6422 11.6203 88.6022 11.4455 88.5222C11.2707 88.4407 11.1322 88.323 11.03 88.1689C10.9293 88.0149 10.8789 87.826 10.8789 87.6024C10.8789 87.4098 10.9159 87.2513 10.99 87.1269C11.0641 87.0024 11.1641 86.9039 11.29 86.8314C11.4159 86.7588 11.5566 86.704 11.7121 86.6669C11.8677 86.6299 12.0261 86.6018 12.1876 86.5825C12.392 86.5588 12.5579 86.5395 12.6853 86.5247C12.8127 86.5084 12.9053 86.4825 12.963 86.447C13.0208 86.4114 13.0497 86.3536 13.0497 86.2737V86.2581C13.0497 86.0641 12.9949 85.9137 12.8853 85.8071C12.7771 85.7004 12.6157 85.6471 12.4009 85.6471C12.1772 85.6471 12.001 85.6967 11.8721 85.7959C11.7447 85.8937 11.6566 86.0026 11.6077 86.1226L10.9833 85.9804C11.0574 85.773 11.1655 85.6056 11.3077 85.4782C11.4514 85.3493 11.6166 85.256 11.8032 85.1983C11.9899 85.139 12.1861 85.1094 12.392 85.1094C12.5283 85.1094 12.6727 85.1257 12.8253 85.1583C12.9793 85.1894 13.123 85.2471 13.2563 85.3316C13.3911 85.416 13.5015 85.5367 13.5874 85.6937C13.6733 85.8493 13.7163 86.0515 13.7163 86.3003V88.5667H13.0675V88.1001H13.0408C12.9979 88.186 12.9334 88.2704 12.8475 88.3534C12.7616 88.4363 12.6512 88.5052 12.5164 88.56C12.3817 88.6148 12.2202 88.6422 12.0321 88.6422ZM12.1765 88.1089C12.3602 88.1089 12.5172 88.0727 12.6475 88.0001C12.7794 87.9275 12.8794 87.8327 12.9475 87.7157C13.0171 87.5972 13.0519 87.4705 13.0519 87.3357V86.8958C13.0282 86.9195 12.9823 86.9417 12.9142 86.9624C12.8475 86.9817 12.7712 86.9987 12.6853 87.0135C12.5994 87.0269 12.5157 87.0395 12.4342 87.0513C12.3528 87.0617 12.2846 87.0706 12.2298 87.078C12.101 87.0943 11.9832 87.1217 11.8765 87.1602C11.7714 87.1987 11.6869 87.2543 11.6232 87.3268C11.561 87.3979 11.5299 87.4927 11.5299 87.6112C11.5299 87.7757 11.5907 87.9001 11.7121 87.9845C11.8336 88.0675 11.9884 88.1089 12.1765 88.1089Z" fill="#343434"/>
<path d="M8.05124 88.57H6.57812V84.0195H8.09791C8.54378 84.0195 8.92667 84.1106 9.24663 84.2928C9.56658 84.4735 9.81174 84.7335 9.98209 85.0727C10.1539 85.4104 10.2398 85.8155 10.2398 86.2881C10.2398 86.7621 10.1532 87.1694 9.97985 87.5101C9.80803 87.8508 9.55917 88.113 9.23329 88.2967C8.90742 88.4789 8.5134 88.57 8.05124 88.57ZM7.26469 87.97H8.01347C8.36009 87.97 8.6482 87.9049 8.8778 87.7745C9.1074 87.6427 9.27921 87.4523 9.39327 87.2035C9.50733 86.9532 9.56436 86.648 9.56436 86.2881C9.56436 85.9311 9.50733 85.6282 9.39327 85.3793C9.2807 85.1305 9.11257 84.9416 8.8889 84.8127C8.66523 84.6839 8.38749 84.6194 8.05569 84.6194H7.26469V87.97Z" fill="#343434"/>
<path d="M86.3984 69.2303V65.182H87.8414C88.1564 65.182 88.4173 65.2393 88.6242 65.354C88.8311 65.4686 88.9859 65.6254 89.0887 65.8244C89.1915 66.0221 89.2429 66.2448 89.2429 66.4926C89.2429 66.7416 89.1909 66.9656 89.0867 67.1646C88.984 67.3623 88.8284 67.5191 88.6202 67.6351C88.4133 67.7498 88.1531 67.8071 87.8394 67.8071H86.8471V67.2892H87.7841C87.9831 67.2892 88.1445 67.2549 88.2684 67.1864C88.3923 67.1165 88.4832 67.0217 88.5412 66.9017C88.5991 66.7818 88.6281 66.6454 88.6281 66.4926C88.6281 66.3397 88.5991 66.2039 88.5412 66.0853C88.4832 65.9667 88.3916 65.8738 88.2664 65.8066C88.1425 65.7394 87.9791 65.7058 87.7762 65.7058H87.0092V69.2303H86.3984ZM90.5026 65.182V69.2303H89.9115V65.182H90.5026ZM92.1813 69.2975C91.9889 69.2975 91.815 69.262 91.6595 69.1908C91.504 69.1183 91.3807 69.0135 91.2898 68.8765C91.2002 68.7394 91.1554 68.5714 91.1554 68.3724C91.1554 68.2011 91.1883 68.0601 91.2542 67.9494C91.3201 67.8387 91.4091 67.7511 91.5211 67.6865C91.6331 67.6219 91.7583 67.5732 91.8967 67.5402C92.035 67.5073 92.176 67.4822 92.3197 67.4651C92.5015 67.444 92.6491 67.4269 92.7625 67.4137C92.8758 67.3992 92.9582 67.3762 93.0096 67.3445C93.061 67.3129 93.0867 67.2615 93.0867 67.1903V67.1765C93.0867 67.0039 93.0379 66.8701 92.9404 66.7752C92.8442 66.6803 92.7005 66.6329 92.5095 66.6329C92.3105 66.6329 92.1536 66.677 92.039 66.7653C91.9257 66.8523 91.8472 66.9492 91.8038 67.0559L91.2483 66.9294C91.3142 66.7449 91.4104 66.596 91.5369 66.4827C91.6647 66.368 91.8117 66.285 91.9777 66.2336C92.1438 66.1809 92.3184 66.1545 92.5015 66.1545C92.6228 66.1545 92.7513 66.169 92.887 66.198C93.0241 66.2257 93.1519 66.2771 93.2705 66.3522C93.3904 66.4273 93.4886 66.5347 93.565 66.6744C93.6415 66.8128 93.6797 66.9927 93.6797 67.2141V69.2303H93.1025V68.8152H93.0787C93.0405 68.8916 92.9832 68.9668 92.9068 69.0406C92.8303 69.1144 92.7322 69.1756 92.6122 69.2244C92.4923 69.2732 92.3487 69.2975 92.1813 69.2975ZM92.3098 68.8231C92.4732 68.8231 92.6129 68.7908 92.7289 68.7263C92.8462 68.6617 92.9351 68.5773 92.9957 68.4732C93.0577 68.3678 93.0886 68.2551 93.0886 68.1352V67.7438C93.0675 67.7649 93.0267 67.7847 92.9661 67.8031C92.9068 67.8203 92.8389 67.8354 92.7625 67.8486C92.686 67.8604 92.6116 67.8717 92.5391 67.8822C92.4666 67.8914 92.406 67.8993 92.3572 67.9059C92.2426 67.9204 92.1378 67.9448 92.0429 67.9791C91.9494 68.0133 91.8743 68.0627 91.8176 68.1273C91.7622 68.1906 91.7346 68.2749 91.7346 68.3803C91.7346 68.5266 91.7886 68.6373 91.8967 68.7124C92.0047 68.7862 92.1424 68.8231 92.3098 68.8231ZM94.7318 70.3689C94.6435 70.3689 94.5631 70.3617 94.4906 70.3472C94.4181 70.334 94.3641 70.3195 94.3285 70.3037L94.4709 69.8194C94.5789 69.8484 94.6751 69.8609 94.7595 69.8569C94.8438 69.853 94.9183 69.8214 94.9828 69.7621C95.0487 69.7028 95.1067 69.6059 95.1568 69.4715L95.2299 69.2699L94.119 66.1941H94.7516L95.5205 68.5503H95.5521L96.3211 66.1941H96.9556L95.7043 69.6356C95.6464 69.7937 95.5726 69.9275 95.4829 70.0368C95.3933 70.1475 95.2866 70.2305 95.1627 70.2859C95.0388 70.3412 94.8952 70.3689 94.7318 70.3689ZM99.7863 66.9353L99.2506 67.0302C99.2282 66.9617 99.1926 66.8965 99.1439 66.8345C99.0964 66.7726 99.0318 66.7219 98.9501 66.6823C98.8684 66.6428 98.7663 66.623 98.6437 66.623C98.4764 66.623 98.3367 66.6606 98.2247 66.7357C98.1127 66.8095 98.0567 66.905 98.0567 67.0223C98.0567 67.1238 98.0942 67.2055 98.1693 67.2674C98.2444 67.3294 98.3657 67.3801 98.533 67.4196L99.0154 67.5303C99.2947 67.5949 99.503 67.6944 99.64 67.8288C99.7771 67.9632 99.8456 68.1379 99.8456 68.3527C99.8456 68.5345 99.7929 68.6966 99.6875 68.8389C99.5833 68.9799 99.4377 69.0906 99.2506 69.171C99.0648 69.2514 98.8493 69.2916 98.6042 69.2916C98.2642 69.2916 97.9868 69.2191 97.772 69.0742C97.5572 68.9279 97.4254 68.7203 97.3767 68.4515L97.9479 68.3645C97.9835 68.5134 98.0567 68.6261 98.1673 68.7025C98.278 68.7777 98.4223 68.8152 98.6003 68.8152C98.794 68.8152 98.9488 68.775 99.0648 68.6946C99.1808 68.6129 99.2387 68.5134 99.2387 68.3961C99.2387 68.3013 99.2032 68.2215 99.132 68.157C99.0621 68.0924 98.9547 68.0436 98.8098 68.0107L98.2958 67.898C98.0125 67.8334 97.803 67.7306 97.6672 67.5896C97.5328 67.4486 97.4656 67.2701 97.4656 67.0539C97.4656 66.8747 97.5157 66.7179 97.6158 66.5835C97.716 66.4491 97.8544 66.3443 98.031 66.2692C98.2075 66.1927 98.4098 66.1545 98.6378 66.1545C98.9659 66.1545 99.2242 66.2257 99.4127 66.368C99.6011 66.509 99.7257 66.6981 99.7863 66.9353ZM103.414 66.1941V66.6685H101.698V66.1941H103.414ZM102.169 69.2303V65.8422C102.169 65.6524 102.21 65.495 102.293 65.3698C102.376 65.2433 102.486 65.149 102.623 65.0871C102.76 65.0238 102.909 64.9922 103.07 64.9922C103.189 64.9922 103.29 65.0021 103.375 65.0219C103.459 65.0403 103.521 65.0574 103.562 65.0733L103.424 65.5516C103.396 65.5437 103.361 65.5345 103.317 65.524C103.274 65.5121 103.221 65.5062 103.159 65.5062C103.015 65.5062 102.913 65.5417 102.851 65.6129C102.79 65.6841 102.76 65.7869 102.76 65.9213V69.2303H102.169ZM105.183 69.2916C104.899 69.2916 104.65 69.2264 104.438 69.0959C104.226 68.9654 104.061 68.7829 103.944 68.5484C103.827 68.3138 103.768 68.0397 103.768 67.726C103.768 67.4111 103.827 67.1356 103.944 66.8998C104.061 66.6639 104.226 66.4807 104.438 66.3502C104.65 66.2198 104.899 66.1545 105.183 66.1545C105.468 66.1545 105.716 66.2198 105.928 66.3502C106.141 66.4807 106.305 66.6639 106.423 66.8998C106.54 67.1356 106.599 67.4111 106.599 67.726C106.599 68.0397 106.54 68.3138 106.423 68.5484C106.305 68.7829 106.141 68.9654 105.928 69.0959C105.716 69.2264 105.468 69.2916 105.183 69.2916ZM105.185 68.7954C105.37 68.7954 105.523 68.7467 105.644 68.6492C105.765 68.5516 105.855 68.4218 105.913 68.2597C105.972 68.0977 106.002 67.9191 106.002 67.7241C106.002 67.5303 105.972 67.3524 105.913 67.1903C105.855 67.0269 105.765 66.8958 105.644 66.797C105.523 66.6981 105.37 66.6487 105.185 66.6487C104.999 66.6487 104.845 66.6981 104.723 66.797C104.601 66.8958 104.511 67.0269 104.452 67.1903C104.394 67.3524 104.365 67.5303 104.365 67.7241C104.365 67.9191 104.394 68.0977 104.452 68.2597C104.511 68.4218 104.601 68.5516 104.723 68.6492C104.845 68.7467 104.999 68.7954 105.185 68.7954ZM108.537 69.2916C108.253 69.2916 108.004 69.2264 107.792 69.0959C107.58 68.9654 107.415 68.7829 107.298 68.5484C107.181 68.3138 107.122 68.0397 107.122 67.726C107.122 67.4111 107.181 67.1356 107.298 66.8998C107.415 66.6639 107.58 66.4807 107.792 66.3502C108.004 66.2198 108.253 66.1545 108.537 66.1545C108.822 66.1545 109.07 66.2198 109.283 66.3502C109.495 66.4807 109.659 66.6639 109.777 66.8998C109.894 67.1356 109.953 67.4111 109.953 67.726C109.953 68.0397 109.894 68.3138 109.777 68.5484C109.659 68.7829 109.495 68.9654 109.283 69.0959C109.07 69.2264 108.822 69.2916 108.537 69.2916ZM108.539 68.7954C108.724 68.7954 108.877 68.7467 108.998 68.6492C109.119 68.5516 109.209 68.4218 109.267 68.2597C109.326 68.0977 109.356 67.9191 109.356 67.7241C109.356 67.5303 109.326 67.3524 109.267 67.1903C109.209 67.0269 109.119 66.8958 108.998 66.797C108.877 66.6981 108.724 66.6487 108.539 66.6487C108.353 66.6487 108.199 66.6981 108.077 66.797C107.955 66.8958 107.865 67.0269 107.806 67.1903C107.748 67.3524 107.719 67.5303 107.719 67.7241C107.719 67.9191 107.748 68.0977 107.806 68.2597C107.865 68.4218 107.955 68.5516 108.077 68.6492C108.199 68.7467 108.353 68.7954 108.539 68.7954ZM112.03 66.1941V66.6685H110.371V66.1941H112.03ZM110.816 65.4666H111.407V68.3388C111.407 68.4535 111.424 68.5398 111.458 68.5978C111.493 68.6544 111.537 68.6933 111.591 68.7144C111.646 68.7342 111.706 68.744 111.771 68.744C111.818 68.744 111.86 68.7408 111.895 68.7342C111.931 68.7276 111.959 68.7223 111.978 68.7184L112.085 69.2066C112.051 69.2198 112.002 69.233 111.939 69.2461C111.875 69.2606 111.796 69.2685 111.702 69.2699C111.546 69.2725 111.401 69.2448 111.267 69.1868C111.132 69.1289 111.024 69.0392 110.94 68.918C110.857 68.7968 110.816 68.6446 110.816 68.4614V65.4666ZM112.796 69.2303V65.182H113.387V66.6863H113.423C113.457 66.623 113.506 66.5499 113.571 66.4669C113.636 66.3838 113.725 66.3114 113.84 66.2494C113.955 66.1862 114.106 66.1545 114.295 66.1545C114.54 66.1545 114.758 66.2165 114.951 66.3403C115.143 66.4642 115.294 66.6428 115.403 66.876C115.514 67.1093 115.569 67.39 115.569 67.7181C115.569 68.0463 115.515 68.3276 115.405 68.5622C115.296 68.7954 115.146 68.9753 114.955 69.1018C114.764 69.227 114.546 69.2896 114.3 69.2896C114.116 69.2896 113.965 69.2587 113.848 69.1967C113.732 69.1348 113.641 69.0623 113.575 68.9793C113.509 68.8963 113.458 68.8225 113.423 68.7579H113.373V69.2303H112.796ZM113.375 67.7122C113.375 67.9257 113.406 68.1128 113.468 68.2736C113.53 68.4344 113.62 68.5602 113.737 68.6511C113.854 68.7408 113.998 68.7856 114.168 68.7856C114.345 68.7856 114.492 68.7388 114.611 68.6452C114.729 68.5503 114.819 68.4218 114.88 68.2597C114.942 68.0977 114.973 67.9151 114.973 67.7122C114.973 67.5119 114.942 67.332 114.882 67.1725C114.822 67.0131 114.733 66.8872 114.613 66.795C114.494 66.7027 114.346 66.6566 114.168 66.6566C113.997 66.6566 113.852 66.7008 113.733 66.7891C113.616 66.8774 113.527 67.0006 113.466 67.1587C113.406 67.3168 113.375 67.5013 113.375 67.7122ZM117.117 69.2975C116.924 69.2975 116.75 69.262 116.595 69.1908C116.439 69.1183 116.316 69.0135 116.225 68.8765C116.136 68.7394 116.091 68.5714 116.091 68.3724C116.091 68.2011 116.124 68.0601 116.19 67.9494C116.256 67.8387 116.345 67.7511 116.457 67.6865C116.569 67.6219 116.694 67.5732 116.832 67.5402C116.971 67.5073 117.112 67.4822 117.255 67.4651C117.437 67.444 117.585 67.4269 117.698 67.4137C117.811 67.3992 117.894 67.3762 117.945 67.3445C117.996 67.3129 118.022 67.2615 118.022 67.1903V67.1765C118.022 67.0039 117.973 66.8701 117.876 66.7752C117.78 66.6803 117.636 66.6329 117.445 66.6329C117.246 66.6329 117.089 66.677 116.974 66.7653C116.861 66.8523 116.783 66.9492 116.739 67.0559L116.184 66.9294C116.25 66.7449 116.346 66.596 116.472 66.4827C116.6 66.368 116.747 66.285 116.913 66.2336C117.079 66.1809 117.254 66.1545 117.437 66.1545C117.558 66.1545 117.687 66.169 117.822 66.198C117.96 66.2257 118.087 66.2771 118.206 66.3522C118.326 66.4273 118.424 66.5347 118.5 66.6744C118.577 66.8128 118.615 66.9927 118.615 67.2141V69.2303H118.038V68.8152H118.014C117.976 68.8916 117.919 68.9668 117.842 69.0406C117.766 69.1144 117.668 69.1756 117.548 69.2244C117.428 69.2732 117.284 69.2975 117.117 69.2975ZM117.245 68.8231C117.409 68.8231 117.548 68.7908 117.664 68.7263C117.782 68.6617 117.871 68.5773 117.931 68.4732C117.993 68.3678 118.024 68.2551 118.024 68.1352V67.7438C118.003 67.7649 117.962 67.7847 117.902 67.8031C117.842 67.8203 117.774 67.8354 117.698 67.8486C117.622 67.8604 117.547 67.8717 117.475 67.8822C117.402 67.8914 117.341 67.8993 117.293 67.9059C117.178 67.9204 117.073 67.9448 116.978 67.9791C116.885 68.0133 116.81 68.0627 116.753 68.1273C116.698 68.1906 116.67 68.2749 116.67 68.3803C116.67 68.5266 116.724 68.6373 116.832 68.7124C116.94 68.7862 117.078 68.8231 117.245 68.8231ZM119.993 65.182V69.2303H119.402V65.182H119.993ZM121.38 65.182V69.2303H120.789V65.182H121.38Z" fill="#343434"/>
<path d="M95.6428 45.1055H96.0846V47.0255C96.0846 47.2298 96.0366 47.4108 95.9407 47.5685C95.8447 47.7253 95.7098 47.8488 95.5359 47.9391C95.362 48.0284 95.1582 48.0731 94.9244 48.0731C94.6916 48.0731 94.4883 48.0284 94.3144 47.9391C94.1405 47.8488 94.0055 47.7253 93.9096 47.5685C93.8136 47.4108 93.7656 47.2298 93.7656 47.0255V45.1055H94.206V46.9898C94.206 47.1219 94.235 47.2393 94.293 47.3419C94.3519 47.4445 94.435 47.5253 94.5424 47.5842C94.6498 47.6422 94.7771 47.6711 94.9244 47.6711C95.0726 47.6711 95.2004 47.6422 95.3078 47.5842C95.4161 47.5253 95.4988 47.4445 95.5558 47.3419C95.6138 47.2393 95.6428 47.1219 95.6428 46.9898V45.1055ZM98.3313 46.3698L97.945 46.4382C97.9289 46.3888 97.9032 46.3418 97.8681 46.2971C97.8339 46.2525 97.7873 46.2159 97.7284 46.1874C97.6695 46.1589 97.5958 46.1446 97.5075 46.1446C97.3868 46.1446 97.2861 46.1717 97.2053 46.2259C97.1245 46.2791 97.0841 46.348 97.0841 46.4325C97.0841 46.5057 97.1112 46.5646 97.1654 46.6093C97.2195 46.6539 97.307 46.6905 97.4276 46.719L97.7754 46.7988C97.9769 46.8454 98.127 46.9171 98.2258 47.0141C98.3247 47.111 98.3741 47.2369 98.3741 47.3918C98.3741 47.5229 98.3361 47.6398 98.26 47.7424C98.185 47.8441 98.08 47.9239 97.945 47.9819C97.8111 48.0398 97.6557 48.0688 97.479 48.0688C97.2338 48.0688 97.0338 48.0165 96.8789 47.912C96.724 47.8065 96.629 47.6569 96.5938 47.463L97.0057 47.4003C97.0314 47.5077 97.0841 47.5889 97.164 47.6441C97.2438 47.6982 97.3478 47.7253 97.4761 47.7253C97.6158 47.7253 97.7274 47.6963 97.8111 47.6384C97.8947 47.5794 97.9365 47.5077 97.9365 47.4231C97.9365 47.3547 97.9108 47.2972 97.8595 47.2507C97.8092 47.2041 97.7317 47.169 97.6272 47.1452L97.2566 47.064C97.0523 47.0174 96.9012 46.9433 96.8033 46.8416C96.7064 46.7399 96.658 46.6112 96.658 46.4553C96.658 46.3261 96.6941 46.213 96.7663 46.1161C96.8385 46.0192 96.9383 45.9436 97.0656 45.8895C97.1929 45.8344 97.3388 45.8068 97.5032 45.8068C97.7398 45.8068 97.926 45.8581 98.0619 45.9607C98.1978 46.0624 98.2876 46.1988 98.3313 46.3698ZM99.7862 48.0688C99.5705 48.0688 99.3847 48.0227 99.2289 47.9306C99.074 47.8374 98.9543 47.7068 98.8697 47.5386C98.7861 47.3694 98.7443 47.1713 98.7443 46.9442C98.7443 46.72 98.7861 46.5223 98.8697 46.3513C98.9543 46.1802 99.0721 46.0467 99.2232 45.9508C99.3752 45.8548 99.5529 45.8068 99.7563 45.8068C99.8798 45.8068 99.9995 45.8272 100.116 45.8681C100.232 45.909 100.336 45.9731 100.428 46.0605C100.52 46.1479 100.593 46.2615 100.646 46.4012C100.699 46.5399 100.726 46.7086 100.726 46.9072V47.0583H98.9852V46.739H100.308C100.308 46.6269 100.285 46.5276 100.24 46.4411C100.194 46.3537 100.13 46.2848 100.047 46.2344C99.9653 46.184 99.8694 46.1589 99.7591 46.1589C99.6394 46.1589 99.5349 46.1883 99.4456 46.2472C99.3572 46.3052 99.2888 46.3812 99.2403 46.4753C99.1928 46.5684 99.169 46.6696 99.169 46.7789V47.0283C99.169 47.1747 99.1947 47.2991 99.246 47.4018C99.2983 47.5044 99.371 47.5828 99.4641 47.6369C99.5572 47.6901 99.666 47.7168 99.7905 47.7168C99.8713 47.7168 99.9449 47.7054 100.012 47.6825C100.078 47.6588 100.136 47.6236 100.184 47.5771C100.233 47.5305 100.27 47.473 100.295 47.4046L100.699 47.4773C100.667 47.5961 100.609 47.7001 100.525 47.7894C100.442 47.8778 100.338 47.9467 100.213 47.9961C100.088 48.0446 99.9458 48.0688 99.7862 48.0688ZM102.839 46.3698L102.453 46.4382C102.437 46.3888 102.411 46.3418 102.376 46.2971C102.342 46.2525 102.295 46.2159 102.236 46.1874C102.177 46.1589 102.104 46.1446 102.015 46.1446C101.895 46.1446 101.794 46.1717 101.713 46.2259C101.633 46.2791 101.592 46.348 101.592 46.4325C101.592 46.5057 101.619 46.5646 101.673 46.6093C101.728 46.6539 101.815 46.6905 101.936 46.719L102.283 46.7988C102.485 46.8454 102.635 46.9171 102.734 47.0141C102.833 47.111 102.882 47.2369 102.882 47.3918C102.882 47.5229 102.844 47.6398 102.768 47.7424C102.693 47.8441 102.588 47.9239 102.453 47.9819C102.319 48.0398 102.164 48.0688 101.987 48.0688C101.742 48.0688 101.542 48.0165 101.387 47.912C101.232 47.8065 101.137 47.6569 101.102 47.463L101.514 47.4003C101.539 47.5077 101.592 47.5889 101.672 47.6441C101.752 47.6982 101.856 47.7253 101.984 47.7253C102.124 47.7253 102.235 47.6963 102.319 47.6384C102.403 47.5794 102.444 47.5077 102.444 47.4231C102.444 47.3547 102.419 47.2972 102.368 47.2507C102.317 47.2041 102.24 47.169 102.135 47.1452L101.765 47.064C101.56 47.0174 101.409 46.9433 101.311 46.8416C101.214 46.7399 101.166 46.6112 101.166 46.4553C101.166 46.3261 101.202 46.213 101.274 46.1161C101.347 46.0192 101.446 45.9436 101.574 45.8895C101.701 45.8344 101.847 45.8068 102.011 45.8068C102.248 45.8068 102.434 45.8581 102.57 45.9607C102.706 46.0624 102.796 46.1988 102.839 46.3698ZM105.335 48.0688C105.123 48.0688 104.941 48.0208 104.788 47.9249C104.636 47.8279 104.519 47.6944 104.437 47.5243C104.355 47.3542 104.315 47.1594 104.315 46.9399C104.315 46.7176 104.356 46.5214 104.44 46.3513C104.524 46.1802 104.641 46.0467 104.793 45.9508C104.945 45.8548 105.125 45.8068 105.331 45.8068C105.497 45.8068 105.645 45.8377 105.775 45.8995C105.906 45.9603 106.011 46.0458 106.09 46.156C106.171 46.2662 106.219 46.395 106.234 46.5423H105.82C105.797 46.4397 105.745 46.3513 105.663 46.2772C105.582 46.2031 105.474 46.166 105.338 46.166C105.219 46.166 105.115 46.1974 105.026 46.2601C104.937 46.3218 104.869 46.4102 104.819 46.5252C104.77 46.6392 104.745 46.7741 104.745 46.93C104.745 47.0896 104.769 47.2274 104.818 47.3433C104.866 47.4592 104.935 47.549 105.023 47.6127C105.112 47.6764 105.217 47.7082 105.338 47.7082C105.419 47.7082 105.492 47.6935 105.557 47.664C105.624 47.6336 105.68 47.5904 105.724 47.5343C105.77 47.4782 105.802 47.4108 105.82 47.3319H106.234C106.219 47.4735 106.173 47.5999 106.096 47.7111C106.019 47.8222 105.916 47.9096 105.787 47.9733C105.659 48.037 105.508 48.0688 105.335 48.0688ZM108.077 47.1167V45.8353H108.505V48.0246H108.086V47.6455H108.063C108.012 47.7624 107.932 47.8598 107.82 47.9377C107.71 48.0146 107.573 48.0531 107.409 48.0531C107.268 48.0531 107.143 48.0222 107.035 47.9605C106.928 47.8978 106.843 47.8051 106.781 47.6825C106.721 47.56 106.69 47.4084 106.69 47.2279V45.8353H107.116V47.1766C107.116 47.3257 107.158 47.4445 107.24 47.5329C107.323 47.6213 107.43 47.6654 107.563 47.6654C107.642 47.6654 107.722 47.6455 107.801 47.6056C107.88 47.5657 107.946 47.5053 107.999 47.4246C108.052 47.3438 108.078 47.2412 108.077 47.1167ZM109.077 48.0246V45.8353H109.489V46.1831H109.512C109.552 46.0653 109.622 45.9726 109.723 45.9052C109.825 45.8367 109.94 45.8025 110.068 45.8025C110.094 45.8025 110.126 45.8035 110.162 45.8054C110.199 45.8073 110.228 45.8097 110.249 45.8125V46.2202C110.232 46.2154 110.201 46.2102 110.158 46.2045C110.114 46.1978 110.07 46.1945 110.027 46.1945C109.926 46.1945 109.836 46.2159 109.757 46.2586C109.679 46.3004 109.617 46.3589 109.572 46.434C109.526 46.5081 109.503 46.5926 109.503 46.6877V48.0246H109.077ZM112.258 46.3698L111.872 46.4382C111.856 46.3888 111.83 46.3418 111.795 46.2971C111.761 46.2525 111.714 46.2159 111.655 46.1874C111.596 46.1589 111.523 46.1446 111.434 46.1446C111.314 46.1446 111.213 46.1717 111.132 46.2259C111.051 46.2791 111.011 46.348 111.011 46.4325C111.011 46.5057 111.038 46.5646 111.092 46.6093C111.146 46.6539 111.234 46.6905 111.355 46.719L111.702 46.7988C111.904 46.8454 112.054 46.9171 112.153 47.0141C112.252 47.111 112.301 47.2369 112.301 47.3918C112.301 47.5229 112.263 47.6398 112.187 47.7424C112.112 47.8441 112.007 47.9239 111.872 47.9819C111.738 48.0398 111.583 48.0688 111.406 48.0688C111.161 48.0688 110.961 48.0165 110.806 47.912C110.651 47.8065 110.556 47.6569 110.521 47.463L110.933 47.4003C110.958 47.5077 111.011 47.5889 111.091 47.6441C111.171 47.6982 111.275 47.7253 111.403 47.7253C111.543 47.7253 111.654 47.6963 111.738 47.6384C111.822 47.5794 111.863 47.5077 111.863 47.4231C111.863 47.3547 111.838 47.2972 111.786 47.2507C111.736 47.2041 111.659 47.169 111.554 47.1452L111.184 47.064C110.979 47.0174 110.828 46.9433 110.73 46.8416C110.633 46.7399 110.585 46.6112 110.585 46.4553C110.585 46.3261 110.621 46.213 110.693 46.1161C110.765 46.0192 110.865 45.9436 110.993 45.8895C111.12 45.8344 111.266 45.8068 111.43 45.8068C111.667 45.8068 111.853 45.8581 111.989 45.9607C112.125 46.0624 112.215 46.1988 112.258 46.3698ZM113.692 48.0688C113.487 48.0688 113.307 48.0218 113.154 47.9277C113.001 47.8336 112.883 47.702 112.798 47.5329C112.714 47.3637 112.671 47.1661 112.671 46.9399C112.671 46.7128 112.714 46.5142 112.798 46.3442C112.883 46.1741 113.001 46.042 113.154 45.9479C113.307 45.8538 113.487 45.8068 113.692 45.8068C113.897 45.8068 114.076 45.8538 114.229 45.9479C114.382 46.042 114.501 46.1741 114.585 46.3442C114.67 46.5142 114.712 46.7128 114.712 46.9399C114.712 47.1661 114.67 47.3637 114.585 47.5329C114.501 47.702 114.382 47.8336 114.229 47.9277C114.076 48.0218 113.897 48.0688 113.692 48.0688ZM113.693 47.7111C113.826 47.7111 113.936 47.6759 114.024 47.6056C114.111 47.5353 114.176 47.4417 114.218 47.3248C114.26 47.2079 114.282 47.0792 114.282 46.9385C114.282 46.7988 114.26 46.6706 114.218 46.5537C114.176 46.4359 114.111 46.3413 114.024 46.27C113.936 46.1988 113.826 46.1631 113.693 46.1631C113.559 46.1631 113.448 46.1988 113.36 46.27C113.272 46.3413 113.207 46.4359 113.164 46.5537C113.123 46.6706 113.102 46.7988 113.102 46.9385C113.102 47.0792 113.123 47.2079 113.164 47.3248C113.207 47.4417 113.272 47.5353 113.36 47.6056C113.448 47.6759 113.559 47.7111 113.693 47.7111ZM115.188 48.0246V45.8353H115.6V46.1831H115.623C115.663 46.0653 115.733 45.9726 115.834 45.9052C115.935 45.8367 116.05 45.8025 116.179 45.8025C116.205 45.8025 116.237 45.8035 116.273 45.8054C116.31 45.8073 116.339 45.8097 116.36 45.8125V46.2202C116.343 46.2154 116.312 46.2102 116.268 46.2045C116.225 46.1978 116.181 46.1945 116.137 46.1945C116.037 46.1945 115.947 46.2159 115.868 46.2586C115.79 46.3004 115.728 46.3589 115.683 46.434C115.637 46.5081 115.614 46.5926 115.614 46.6877V48.0246H115.188Z" fill="#343434"/>
<path d="M11.959 66.9925V64.668H12.7876C12.9684 64.668 13.1182 64.7009 13.237 64.7668C13.3558 64.8326 13.4447 64.9226 13.5038 65.0369C13.5628 65.1504 13.5923 65.2783 13.5923 65.4205C13.5923 65.5635 13.5624 65.6922 13.5026 65.8064C13.4436 65.9199 13.3543 66.01 13.2348 66.0766C13.116 66.1424 12.9665 66.1753 12.7864 66.1753H12.2167V65.8779H12.7546C12.8689 65.8779 12.9616 65.8583 13.0327 65.8189C13.1039 65.7788 13.1561 65.7243 13.1894 65.6555C13.2226 65.5866 13.2393 65.5083 13.2393 65.4205C13.2393 65.3327 13.2226 65.2548 13.1894 65.1867C13.1561 65.1186 13.1035 65.0653 13.0316 65.0267C12.9605 64.9881 12.8666 64.9688 12.7501 64.9688H12.3097V66.9925H11.959ZM14.7057 67.0277C14.534 67.0277 14.386 66.991 14.2619 66.9176C14.1386 66.8434 14.0433 66.7394 13.9759 66.6055C13.9093 66.4708 13.876 66.313 13.876 66.1322C13.876 65.9536 13.9093 65.7962 13.9759 65.66C14.0433 65.5238 14.1371 65.4175 14.2574 65.3411C14.3785 65.2646 14.52 65.2264 14.6819 65.2264C14.7803 65.2264 14.8756 65.2427 14.9679 65.2752C15.0602 65.3078 15.1431 65.3588 15.2165 65.4285C15.2899 65.4981 15.3478 65.5885 15.3901 65.6997C15.4325 65.8102 15.4537 65.9445 15.4537 66.1027V66.223H14.0679V65.9687H15.1211C15.1211 65.8794 15.103 65.8004 15.0667 65.7315C15.0303 65.6619 14.9793 65.607 14.9134 65.5669C14.8484 65.5268 14.7719 65.5068 14.6842 65.5068C14.5888 65.5068 14.5056 65.5302 14.4345 65.5772C14.3641 65.6233 14.3096 65.6838 14.271 65.7588C14.2332 65.8329 14.2143 65.9135 14.2143 66.0005V66.1991C14.2143 66.3157 14.2347 66.4148 14.2756 66.4965C14.3172 66.5782 14.3751 66.6407 14.4492 66.6838C14.5234 66.7262 14.61 66.7473 14.7091 66.7473C14.7735 66.7473 14.8321 66.7383 14.8851 66.7201C14.938 66.7012 14.9838 66.6732 15.0224 66.6361C15.061 66.599 15.0905 66.5533 15.1109 66.4988L15.4321 66.5567C15.4064 66.6512 15.3603 66.7341 15.2937 66.8052C15.2278 66.8756 15.145 66.9305 15.0451 66.9698C14.946 67.0084 14.8329 67.0277 14.7057 67.0277ZM16.3376 67.0311C16.2271 67.0311 16.1272 67.0107 16.038 66.9698C15.9487 66.9282 15.8779 66.868 15.8257 66.7893C15.7742 66.7106 15.7485 66.6142 15.7485 66.4999C15.7485 66.4015 15.7674 66.3206 15.8053 66.257C15.8431 66.1935 15.8942 66.1431 15.9585 66.1061C16.0228 66.069 16.0947 66.041 16.1742 66.0221C16.2536 66.0032 16.3346 65.9888 16.417 65.9789C16.5215 65.9668 16.6062 65.957 16.6713 65.9494C16.7364 65.9411 16.7837 65.9279 16.8132 65.9097C16.8427 65.8915 16.8574 65.862 16.8574 65.8212V65.8132C16.8574 65.7141 16.8294 65.6373 16.7734 65.5828C16.7182 65.5283 16.6357 65.5011 16.526 65.5011C16.4117 65.5011 16.3217 65.5265 16.2559 65.5772C16.1908 65.6271 16.1458 65.6827 16.1208 65.744L15.8019 65.6714C15.8397 65.5654 15.8949 65.4799 15.9676 65.4148C16.041 65.349 16.1253 65.3013 16.2207 65.2718C16.316 65.2416 16.4163 65.2264 16.5215 65.2264C16.5911 65.2264 16.6649 65.2348 16.7428 65.2514C16.8215 65.2673 16.8949 65.2968 16.963 65.3399C17.0318 65.3831 17.0882 65.4447 17.1321 65.5249C17.176 65.6044 17.1979 65.7077 17.1979 65.8348V66.9925H16.8665V66.7542H16.8529C16.8309 66.798 16.798 66.8412 16.7541 66.8835C16.7103 66.9259 16.6539 66.9611 16.585 66.9891C16.5162 67.0171 16.4337 67.0311 16.3376 67.0311ZM16.4114 66.7587C16.5052 66.7587 16.5854 66.7402 16.652 66.7031C16.7193 66.666 16.7704 66.6176 16.8052 66.5578C16.8408 66.4973 16.8586 66.4326 16.8586 66.3637V66.139C16.8465 66.1511 16.823 66.1624 16.7882 66.173C16.7541 66.1829 16.7152 66.1916 16.6713 66.1991C16.6274 66.2059 16.5846 66.2124 16.543 66.2184C16.5014 66.2237 16.4666 66.2283 16.4386 66.2321C16.3728 66.2404 16.3126 66.2544 16.2581 66.274C16.2044 66.2937 16.1613 66.3221 16.1288 66.3592C16.097 66.3955 16.0811 66.4439 16.0811 66.5045C16.0811 66.5884 16.1121 66.652 16.1742 66.6951C16.2362 66.7375 16.3153 66.7587 16.4114 66.7587ZM17.9893 65.9574V66.9925H17.65V65.2491H17.9757V65.5329H17.9973C18.0374 65.4406 18.1002 65.3664 18.1857 65.3104C18.2719 65.2544 18.3805 65.2264 18.5114 65.2264C18.6302 65.2264 18.7343 65.2514 18.8236 65.3013C18.9128 65.3505 18.9821 65.4239 19.0313 65.5215C19.0804 65.6191 19.105 65.7398 19.105 65.8836V66.9925H18.7657V65.9245C18.7657 65.7981 18.7328 65.6994 18.6669 65.6282C18.6011 65.5563 18.5107 65.5204 18.3957 65.5204C18.317 65.5204 18.247 65.5374 18.1857 65.5715C18.1251 65.6055 18.0771 65.6555 18.0415 65.7213C18.0067 65.7864 17.9893 65.8651 17.9893 65.9574ZM20.6645 66.2695V65.2491H21.005V66.9925H20.6714V66.6906H20.6532C20.6131 66.7837 20.5488 66.8612 20.4602 66.9233C20.3725 66.9846 20.2631 67.0152 20.1322 67.0152C20.0202 67.0152 19.9211 66.9906 19.8348 66.9414C19.7493 66.8915 19.682 66.8177 19.6328 66.7201C19.5844 66.6225 19.5602 66.5018 19.5602 66.358V65.2491H19.8995V66.3172C19.8995 66.436 19.9325 66.5306 19.9983 66.6009C20.0641 66.6713 20.1496 66.7065 20.2548 66.7065C20.3184 66.7065 20.3815 66.6906 20.4443 66.6588C20.5079 66.627 20.5605 66.579 20.6021 66.5147C20.6445 66.4504 20.6653 66.3686 20.6645 66.2695ZM22.2748 65.2491V65.5215H21.3226V65.2491H22.2748ZM21.5779 64.8314H21.9173V66.4806C21.9173 66.5464 21.9271 66.596 21.9468 66.6293C21.9665 66.6618 21.9918 66.6842 22.0229 66.6963C22.0546 66.7076 22.0891 66.7133 22.1262 66.7133C22.1534 66.7133 22.1772 66.7114 22.1977 66.7076C22.2181 66.7038 22.234 66.7008 22.2453 66.6985L22.3066 66.9789C22.2869 66.9865 22.2589 66.994 22.2226 67.0016C22.1863 67.0099 22.1409 67.0145 22.0864 67.0152C21.9971 67.0167 21.9139 67.0008 21.8367 66.9675C21.7595 66.9342 21.6971 66.8828 21.6494 66.8132C21.6018 66.7436 21.5779 66.6562 21.5779 66.551V64.8314ZM23.9286 65.6748L23.621 65.7292C23.6081 65.6899 23.5877 65.6524 23.5597 65.6169C23.5324 65.5813 23.4954 65.5522 23.4484 65.5295C23.4015 65.5068 23.3429 65.4954 23.2725 65.4954C23.1764 65.4954 23.0962 65.517 23.0319 65.5601C22.9676 65.6025 22.9354 65.6574 22.9354 65.7247C22.9354 65.783 22.957 65.8299 23.0001 65.8654C23.0432 65.901 23.1129 65.9301 23.209 65.9528L23.4859 66.0164C23.6463 66.0535 23.7659 66.1106 23.8446 66.1878C23.9233 66.265 23.9626 66.3652 23.9626 66.4886C23.9626 66.593 23.9323 66.6861 23.8718 66.7678C23.812 66.8487 23.7284 66.9123 23.621 66.9585C23.5143 67.0046 23.3906 67.0277 23.2498 67.0277C23.0546 67.0277 22.8953 66.9861 22.772 66.9028C22.6486 66.8189 22.573 66.6997 22.545 66.5453L22.873 66.4954C22.8934 66.5809 22.9354 66.6456 22.999 66.6895C23.0625 66.7326 23.1454 66.7542 23.2475 66.7542C23.3588 66.7542 23.4477 66.7311 23.5143 66.6849C23.5809 66.638 23.6142 66.5809 23.6142 66.5135C23.6142 66.4591 23.5937 66.4133 23.5529 66.3762C23.5128 66.3391 23.4511 66.3111 23.3679 66.2922L23.0728 66.2275C22.9101 66.1904 22.7898 66.1314 22.7118 66.0504C22.6346 65.9695 22.596 65.867 22.596 65.7429C22.596 65.64 22.6248 65.5499 22.6823 65.4727C22.7398 65.3955 22.8193 65.3354 22.9207 65.2923C23.0221 65.2484 23.1382 65.2264 23.2691 65.2264C23.4575 65.2264 23.6058 65.2673 23.714 65.349C23.8222 65.43 23.8937 65.5386 23.9286 65.6748ZM25.4052 66.9925H25.0329L25.8694 64.668H26.2746L27.1111 66.9925H26.7388L26.0817 65.0902H26.0635L25.4052 66.9925ZM25.4676 66.0822H26.6753V66.3773H25.4676V66.0822ZM27.7589 64.668V66.9925H27.4196V64.668H27.7589ZM28.9669 67.0277C28.7951 67.0277 28.6472 66.991 28.5231 66.9176C28.3997 66.8434 28.3044 66.7394 28.2371 66.6055C28.1705 66.4708 28.1372 66.313 28.1372 66.1322C28.1372 65.9536 28.1705 65.7962 28.2371 65.66C28.3044 65.5238 28.3982 65.4175 28.5185 65.3411C28.6396 65.2646 28.7811 65.2264 28.943 65.2264C29.0414 65.2264 29.1367 65.2427 29.2291 65.2752C29.3214 65.3078 29.4042 65.3588 29.4776 65.4285C29.551 65.4981 29.6089 65.5885 29.6513 65.6997C29.6937 65.8102 29.7148 65.9445 29.7148 66.1027V66.223H28.329V65.9687H29.3823C29.3823 65.8794 29.3641 65.8004 29.3278 65.7315C29.2915 65.6619 29.2404 65.607 29.1746 65.5669C29.1095 65.5268 29.0331 65.5068 28.9453 65.5068C28.85 65.5068 28.7667 65.5302 28.6956 65.5772C28.6252 65.6233 28.5707 65.6838 28.5322 65.7588C28.4943 65.8329 28.4754 65.9135 28.4754 66.0005V66.1991C28.4754 66.3157 28.4958 66.4148 28.5367 66.4965C28.5783 66.5782 28.6362 66.6407 28.7104 66.6838C28.7845 66.7262 28.8711 66.7473 28.9703 66.7473C29.0346 66.7473 29.0932 66.7383 29.1462 66.7201C29.1992 66.7012 29.2449 66.6732 29.2835 66.6361C29.3221 66.599 29.3516 66.5533 29.3721 66.4988L29.6933 66.5567C29.6675 66.6512 29.6214 66.7341 29.5548 66.8052C29.489 66.8756 29.4061 66.9305 29.3062 66.9698C29.2071 67.0084 29.094 67.0277 28.9669 67.0277ZM30.0914 66.9925V65.2491H30.4194V65.5261H30.4376C30.4693 65.4322 30.5253 65.3585 30.6055 65.3047C30.6865 65.2503 30.7781 65.223 30.8802 65.223C30.9014 65.223 30.9264 65.2238 30.9551 65.2253C30.9846 65.2268 31.0077 65.2287 31.0244 65.231V65.5556C31.0107 65.5518 30.9865 65.5476 30.9517 65.5431C30.9169 65.5378 30.8821 65.5352 30.8473 65.5352C30.7671 65.5352 30.6956 65.5522 30.6328 65.5862C30.5707 65.6195 30.5216 65.6661 30.4852 65.7258C30.4489 65.7849 30.4307 65.8522 30.4307 65.9279V66.9925H30.0914ZM31.9866 67.6826C31.8481 67.6826 31.7289 67.6644 31.629 67.6281C31.5299 67.5918 31.4489 67.5437 31.3861 67.484C31.3233 67.4242 31.2764 67.3587 31.2454 67.2876L31.5371 67.1673C31.5575 67.2006 31.5848 67.2358 31.6188 67.2729C31.6536 67.3107 31.7005 67.3428 31.7596 67.3693C31.8193 67.3958 31.8961 67.4091 31.99 67.4091C32.1186 67.4091 32.2249 67.3777 32.3089 67.3149C32.3929 67.2528 32.4349 67.1537 32.4349 67.0175V66.6747H32.4133C32.3929 66.7118 32.3634 66.753 32.3248 66.7984C32.287 66.8438 32.2348 66.8832 32.1682 66.9165C32.1016 66.9498 32.0149 66.9664 31.9083 66.9664C31.7705 66.9664 31.6464 66.9342 31.536 66.8699C31.4262 66.8049 31.3392 66.7091 31.2749 66.5828C31.2114 66.4556 31.1796 66.2994 31.1796 66.114C31.1796 65.9286 31.211 65.7697 31.2738 65.6373C31.3373 65.5049 31.4244 65.4035 31.5348 65.3331C31.6453 65.262 31.7705 65.2264 31.9105 65.2264C32.0187 65.2264 32.1061 65.2446 32.1727 65.2809C32.2393 65.3165 32.2911 65.3581 32.3282 65.4058C32.366 65.4534 32.3952 65.4954 32.4156 65.5317H32.4406V65.2491H32.7731V67.0311C32.7731 67.1809 32.7383 67.3039 32.6687 67.4C32.5991 67.4961 32.5049 67.5672 32.3861 67.6134C32.268 67.6595 32.1349 67.6826 31.9866 67.6826ZM31.9832 66.6849C32.0808 66.6849 32.1632 66.6622 32.2306 66.6168C32.2987 66.5707 32.3501 66.5048 32.385 66.4193C32.4205 66.3331 32.4383 66.2298 32.4383 66.1095C32.4383 65.9922 32.4209 65.8889 32.3861 65.7996C32.3513 65.7103 32.3002 65.6407 32.2329 65.5908C32.1655 65.5401 32.0823 65.5147 31.9832 65.5147C31.881 65.5147 31.7959 65.5412 31.7278 65.5942C31.6597 65.6464 31.6082 65.7175 31.5734 65.8076C31.5394 65.8976 31.5223 65.9982 31.5223 66.1095C31.5223 66.2237 31.5397 66.324 31.5746 66.4102C31.6094 66.4965 31.6608 66.5639 31.7289 66.6123C31.7978 66.6607 31.8825 66.6849 31.9832 66.6849ZM33.4428 67.6463C33.3921 67.6463 33.3459 67.6421 33.3043 67.6338C33.2627 67.6262 33.2317 67.6179 33.2112 67.6088L33.293 67.3307C33.355 67.3474 33.4102 67.3546 33.4587 67.3523C33.5071 67.35 33.5499 67.3319 33.5869 67.2978C33.6248 67.2638 33.6581 67.2082 33.6868 67.131L33.7288 67.0152L33.0909 65.2491H33.4541L33.8957 66.6021H33.9138L34.3553 65.2491H34.7197L34.0012 67.2252C33.9679 67.316 33.9255 67.3928 33.8741 67.4556C33.8226 67.5192 33.7613 67.5668 33.6902 67.5986C33.6191 67.6304 33.5366 67.6463 33.4428 67.6463Z" fill="#343434"/>
</g>
</svg>
