<svg width="184" height="185" viewBox="0 0 184 185" fill="none" xmlns="http://www.w3.org/2000/svg">
<mask id="mask0_12215_10409" style="mask-type:luminance" maskUnits="userSpaceOnUse" x="0" y="0" width="184" height="185">
<path d="M184 0.753906H0V184.754H184V0.753906Z" fill="white"/>
</mask>
<g mask="url(#mask0_12215_10409)">
<path d="M42.2148 48.125V93.478M42.2148 93.478L42.3002 127.451L42.3856 161.459V289.372M42.2148 93.478H60.6115M90.4397 161.459H68.0645M68.0645 161.459V193.172C68.0645 194.277 68.9599 195.172 70.0645 195.172H96.6532M68.0645 161.459V127.389M68.0645 127.389C69.0999 127.38 81.1363 127.385 90.4397 127.389M68.0645 127.389V102.016M311.6 297.026H165.662M311.6 330.749H166.203M311.6 365.113H165.124" stroke="#303030" stroke-width="0.5"/>
<path d="M42.6471 41.2969C42.4546 41.6303 41.9735 41.6303 41.7811 41.2969L39.183 36.7969C38.9905 36.4636 39.2311 36.0469 39.616 36.0469H44.8122C45.1971 36.0469 45.4376 36.4636 45.2452 36.7969L42.6471 41.2969Z" fill="#343434"/>
<path d="M72.2148 29.0469H56.2148C55.2483 29.0469 54.4648 29.8304 54.4648 30.7969V46.7969C54.4648 47.7634 55.2483 48.5469 56.2148 48.5469H72.2148C73.1813 48.5469 73.9648 47.7634 73.9648 46.7969V30.7969C73.9648 29.8304 73.1813 29.0469 72.2148 29.0469Z" stroke="#343434" stroke-width="0.5"/>
<path d="M64.2328 40.7429C65.3084 40.7429 66.1804 39.8709 66.1804 38.7953C66.1804 37.7196 65.3084 36.8477 64.2328 36.8477C63.1571 36.8477 62.2852 37.7196 62.2852 38.7953C62.2852 39.8709 63.1571 40.7429 64.2328 40.7429Z" stroke="#343434"/>
<path d="M64.1343 34.7969C61.0742 34.7969 59.1405 37.2343 58.4655 38.6145C58.408 38.7322 58.4045 38.8669 58.457 38.9868C59.0621 40.3677 60.9548 42.8007 64.3659 42.8007C67.7822 42.8007 69.4942 40.3199 69.9938 38.9173C70.036 38.7989 70.0254 38.6704 69.9659 38.5596C69.2375 37.2037 67.2007 34.7969 64.1343 34.7969Z" stroke="#343434"/>
<path d="M86.2958 36.7066V37.6299H82.6211V36.7066H86.2958ZM83.6921 35.0078H84.7816V41.7663C84.7816 42.0741 84.8262 42.3049 84.9155 42.4588C85.0078 42.6096 85.1248 42.7111 85.2663 42.7635C85.411 42.8127 85.5633 42.8373 85.7234 42.8373C85.8434 42.8373 85.9419 42.8312 86.0188 42.8188C86.0958 42.8035 86.1573 42.7912 86.2035 42.7819L86.4251 43.7606C86.3512 43.7883 86.2481 43.816 86.1158 43.8437C85.9834 43.8745 85.8157 43.8899 85.6126 43.8899C85.3048 43.8899 85.0032 43.8237 84.7077 43.6914C84.4154 43.559 84.1722 43.3574 83.9783 43.0866C83.7875 42.8158 83.6921 42.4742 83.6921 42.0617V35.0078ZM87.9347 43.7975V36.7066H88.9872V37.7777H89.0611C89.1903 37.4268 89.4242 37.1421 89.7628 36.9236C90.1013 36.7051 90.483 36.5958 90.9077 36.5958C90.9877 36.5958 91.0877 36.5974 91.2077 36.6005C91.3278 36.6035 91.4186 36.6081 91.4801 36.6143V37.7223C91.4432 37.713 91.3585 37.6992 91.2262 37.6807C91.0969 37.6592 90.96 37.6484 90.8153 37.6484C90.4706 37.6484 90.1629 37.7207 89.892 37.8654C89.6243 38.0069 89.4119 38.2039 89.255 38.4563C89.1011 38.7056 89.0241 38.9903 89.0241 39.3103V43.7975H87.9347ZM94.8582 43.9637C94.4089 43.9637 94.0011 43.8791 93.6349 43.7098C93.2686 43.5375 92.9778 43.2897 92.7623 42.9666C92.5469 42.6403 92.4392 42.2464 92.4392 41.7848C92.4392 41.3785 92.5192 41.0492 92.6792 40.7968C92.8393 40.5414 93.0532 40.3413 93.3209 40.1967C93.5887 40.052 93.8841 39.9443 94.2073 39.8735C94.5335 39.7997 94.8613 39.7412 95.1906 39.6981C95.6215 39.6427 95.9708 39.6012 96.2385 39.5735C96.5094 39.5427 96.7064 39.4919 96.8295 39.4211C96.9556 39.3503 97.0187 39.2272 97.0187 39.0518V39.0149C97.0187 38.5594 96.8941 38.2054 96.6448 37.9531C96.3986 37.7007 96.0247 37.5745 95.523 37.5745C95.0029 37.5745 94.5951 37.6884 94.2996 37.9162C94.0042 38.1439 93.7964 38.387 93.6764 38.6456L92.6423 38.2762C92.827 37.8454 93.0732 37.5099 93.3809 37.2698C93.6918 37.0267 94.0303 36.8574 94.3966 36.762C94.7659 36.6635 95.1291 36.6143 95.4861 36.6143C95.7138 36.6143 95.9754 36.642 96.2709 36.6974C96.5694 36.7497 96.8572 36.859 97.1341 37.0252C97.4142 37.1914 97.6466 37.4422 97.8312 37.7777C98.0159 38.1131 98.1082 38.5625 98.1082 39.1257V43.7975H97.0187V42.8373H96.9633C96.8895 42.9912 96.7664 43.1559 96.594 43.3313C96.4217 43.5067 96.1924 43.656 95.9062 43.7791C95.6199 43.9022 95.2706 43.9637 94.8582 43.9637ZM95.0244 42.985C95.4553 42.985 95.8184 42.9004 96.1139 42.7311C96.4124 42.5619 96.6371 42.3434 96.7879 42.0756C96.9418 41.8078 97.0187 41.5262 97.0187 41.2308V40.2336C96.9726 40.289 96.871 40.3398 96.714 40.386C96.5602 40.4291 96.3817 40.4675 96.1785 40.5014C95.9785 40.5322 95.7831 40.5599 95.5922 40.5845C95.4045 40.606 95.2522 40.6245 95.1352 40.6399C94.8521 40.6768 94.5874 40.7368 94.3412 40.8199C94.098 40.8999 93.9011 41.0215 93.7503 41.1846C93.6025 41.3447 93.5287 41.5632 93.5287 41.8402C93.5287 42.2187 93.6687 42.5049 93.9488 42.6988C94.2319 42.8896 94.5905 42.985 95.0244 42.985ZM102.977 43.9453C102.313 43.9453 101.74 43.7883 101.26 43.4744C100.78 43.1605 100.411 42.7281 100.152 42.1772C99.8936 41.6263 99.7644 40.9969 99.7644 40.289C99.7644 39.5688 99.8967 38.9333 100.161 38.3824C100.429 37.8284 100.802 37.396 101.279 37.0852C101.759 36.7713 102.319 36.6143 102.959 36.6143C103.458 36.6143 103.907 36.7066 104.307 36.8913C104.707 37.076 105.035 37.3345 105.29 37.6669C105.546 37.9992 105.704 38.387 105.766 38.8302H104.676C104.593 38.5071 104.409 38.2208 104.122 37.9715C103.839 37.7192 103.458 37.593 102.977 37.593C102.553 37.593 102.18 37.7038 101.86 37.9254C101.543 38.1439 101.296 38.4532 101.117 38.8533C100.942 39.2503 100.854 39.7166 100.854 40.2521C100.854 40.7999 100.94 41.2769 101.112 41.6832C101.288 42.0894 101.534 42.4049 101.851 42.6296C102.171 42.8542 102.547 42.9666 102.977 42.9666C103.261 42.9666 103.518 42.9173 103.748 42.8188C103.979 42.7204 104.175 42.5788 104.335 42.3941C104.495 42.2095 104.609 41.9879 104.676 41.7294H105.766C105.704 42.1479 105.552 42.5249 105.309 42.8604C105.069 43.1928 104.75 43.4575 104.353 43.6544C103.959 43.8483 103.501 43.9453 102.977 43.9453ZM110.331 43.9453C109.648 43.9453 109.059 43.7945 108.563 43.4929C108.071 43.1882 107.691 42.7635 107.423 42.2187C107.158 41.6709 107.026 41.0338 107.026 40.3075C107.026 39.5812 107.158 38.941 107.423 38.387C107.691 37.83 108.063 37.396 108.54 37.0852C109.02 36.7713 109.581 36.6143 110.221 36.6143C110.59 36.6143 110.955 36.6759 111.315 36.799C111.675 36.9221 112.003 37.1221 112.298 37.3991C112.594 37.673 112.829 38.0362 113.004 38.4886C113.18 38.941 113.268 39.4981 113.268 40.1598V40.6214H107.802V39.6796H112.16C112.16 39.2795 112.08 38.9225 111.92 38.6086C111.763 38.2947 111.538 38.047 111.246 37.8654C110.956 37.6838 110.615 37.593 110.221 37.593C109.787 37.593 109.411 37.7007 109.094 37.9162C108.78 38.1285 108.539 38.4055 108.369 38.7471C108.2 39.0887 108.116 39.455 108.116 39.8458V40.4737C108.116 41.0092 108.208 41.4631 108.393 41.8355C108.58 42.2049 108.84 42.4865 109.173 42.6804C109.505 42.8712 109.891 42.9666 110.331 42.9666C110.618 42.9666 110.876 42.9266 111.107 42.8465C111.341 42.7635 111.543 42.6403 111.712 42.4772C111.881 42.311 112.012 42.1048 112.104 41.8586L113.157 42.1541C113.046 42.5111 112.86 42.825 112.598 43.0958C112.337 43.3636 112.013 43.5729 111.629 43.7237C111.244 43.8714 110.812 43.9453 110.331 43.9453Z" fill="#343434"/>
<path d="M141.215 53.0469H83.2148C82.2483 53.0469 81.4648 53.8304 81.4648 54.7969V66.7969C81.4648 67.7634 82.2483 68.5469 83.2148 68.5469H141.215C142.181 68.5469 142.965 67.7634 142.965 66.7969V54.7969C142.965 53.8304 142.181 53.0469 141.215 53.0469Z" stroke="#343434" stroke-width="0.5"/>
<path d="M88.5251 57.5252V64.7979H87.6444V58.4485H87.6018L85.8262 59.6275V58.7326L87.6444 57.5252H88.5251ZM90.4463 63.3065V62.582L93.6423 57.5252H94.1679V58.6474H93.8127L91.398 62.4684V62.5252H95.7019V63.3065H90.4463ZM93.8696 64.7979V63.0863V62.7489V57.5252H94.7076V64.7979H93.8696ZM99.4049 64.8974C98.8699 64.8974 98.4141 64.7518 98.0377 64.4606C97.6613 64.167 97.3736 63.7421 97.1748 63.1857C96.9759 62.627 96.8765 61.9523 96.8765 61.1616C96.8765 60.3756 96.9759 59.7044 97.1748 59.1481C97.376 58.5894 97.6648 58.1632 98.0413 57.8697C98.42 57.5737 98.8746 57.4258 99.4049 57.4258C99.9352 57.4258 100.389 57.5737 100.765 57.8697C101.144 58.1632 101.433 58.5894 101.632 59.1481C101.833 59.7044 101.934 60.3756 101.934 61.1616C101.934 61.9523 101.834 62.627 101.635 63.1857C101.437 63.7421 101.149 64.167 100.772 64.4606C100.396 64.7518 99.9399 64.8974 99.4049 64.8974ZM99.4049 64.1161C99.9352 64.1161 100.348 63.8604 100.641 63.3491C100.935 62.8377 101.081 62.1085 101.081 61.1616C101.081 60.5318 101.014 59.9956 100.879 59.5529C100.746 59.1102 100.555 58.7728 100.304 58.5408C100.055 58.3088 99.7553 58.1928 99.4049 58.1928C98.8793 58.1928 98.4686 58.4521 98.1727 58.9705C97.8767 59.4866 97.7288 60.217 97.7288 61.1616C97.7288 61.7913 97.795 62.3264 97.9276 62.7667C98.0602 63.207 98.2508 63.542 98.4994 63.7717C98.7503 64.0013 99.0522 64.1161 99.4049 64.1161ZM105.826 58.3065V57.5252H111.28V58.3065H108.993V64.7979H108.113V58.3065H105.826ZM113.951 64.9116C113.458 64.9116 113.026 64.7944 112.655 64.56C112.285 64.3256 111.996 63.9978 111.788 63.5764C111.582 63.155 111.479 62.6625 111.479 62.0991C111.479 61.5309 111.582 61.0349 111.788 60.6112C111.996 60.1874 112.285 59.8583 112.655 59.6239C113.026 59.3896 113.458 59.2724 113.951 59.2724C114.443 59.2724 114.874 59.3896 115.243 59.6239C115.615 59.8583 115.904 60.1874 116.11 60.6112C116.318 61.0349 116.422 61.5309 116.422 62.0991C116.422 62.6625 116.318 63.155 116.11 63.5764C115.904 63.9978 115.615 64.3256 115.243 64.56C114.874 64.7944 114.443 64.9116 113.951 64.9116ZM113.951 64.1587C114.325 64.1587 114.633 64.0629 114.874 63.8711C115.116 63.6793 115.294 63.4272 115.41 63.1147C115.526 62.8022 115.584 62.4637 115.584 62.0991C115.584 61.7345 115.526 61.3948 115.41 61.0799C115.294 60.765 115.116 60.5105 114.874 60.3164C114.633 60.1223 114.325 60.0252 113.951 60.0252C113.577 60.0252 113.269 60.1223 113.027 60.3164C112.786 60.5105 112.607 60.765 112.491 61.0799C112.375 61.3948 112.317 61.7345 112.317 62.0991C112.317 62.4637 112.375 62.8022 112.491 63.1147C112.607 63.4272 112.786 63.6793 113.027 63.8711C113.269 64.0629 113.577 64.1587 113.951 64.1587ZM118.483 62.8093L118.469 61.7724H118.639L121.026 59.3434H122.062L119.52 61.9144H119.449L118.483 62.8093ZM117.702 64.7979V57.5252H118.54V64.7979H117.702ZM121.168 64.7979L119.037 62.0991L119.633 61.5167L122.233 64.7979H121.168ZM125.203 64.9116C124.678 64.9116 124.224 64.7956 123.843 64.5636C123.465 64.3292 123.172 64.0025 122.966 63.5835C122.763 63.1621 122.661 62.672 122.661 62.1133C122.661 61.5546 122.763 61.0621 122.966 60.636C123.172 60.2075 123.459 59.8737 123.826 59.6346C124.195 59.3931 124.626 59.2724 125.118 59.2724C125.402 59.2724 125.683 59.3197 125.96 59.4144C126.237 59.5091 126.489 59.663 126.716 59.8761C126.943 60.0868 127.125 60.3661 127.26 60.7141C127.394 61.0621 127.462 61.4907 127.462 61.9996V62.3548H123.257V61.6303H126.61C126.61 61.3226 126.548 61.0479 126.425 60.8065C126.304 60.565 126.131 60.3744 125.907 60.2347C125.684 60.0951 125.421 60.0252 125.118 60.0252C124.784 60.0252 124.496 60.1081 124.252 60.2738C124.01 60.4371 123.824 60.6502 123.694 60.913C123.564 61.1758 123.499 61.4575 123.499 61.7582V62.2411C123.499 62.6531 123.57 63.0023 123.712 63.2887C123.856 63.5728 124.056 63.7894 124.312 63.9386C124.568 64.0853 124.865 64.1587 125.203 64.1587C125.424 64.1587 125.622 64.128 125.8 64.0664C125.98 64.0025 126.135 63.9078 126.265 63.7823C126.395 63.6545 126.496 63.4959 126.567 63.3065L127.377 63.5337C127.291 63.8084 127.148 64.0498 126.947 64.2582C126.746 64.4641 126.497 64.6251 126.201 64.7411C125.905 64.8548 125.573 64.9116 125.203 64.9116ZM129.575 61.5167V64.7979H128.737V59.3434H129.546V60.1957H129.617C129.745 59.9187 129.939 59.6961 130.2 59.5281C130.46 59.3576 130.796 59.2724 131.208 59.2724C131.578 59.2724 131.901 59.3481 132.178 59.4996C132.455 59.6488 132.67 59.8761 132.824 60.1815C132.978 60.4845 133.055 60.868 133.055 61.332V64.7979H132.217V61.3889C132.217 60.9603 132.106 60.6265 131.883 60.3874C131.661 60.146 131.355 60.0252 130.967 60.0252C130.699 60.0252 130.46 60.0832 130.25 60.1992C130.041 60.3152 129.877 60.4845 129.756 60.707C129.635 60.9296 129.575 61.1995 129.575 61.5167ZM138.45 60.565L137.697 60.7781C137.65 60.6526 137.58 60.5307 137.488 60.4123C137.398 60.2916 137.275 60.1921 137.118 60.114C136.962 60.0359 136.762 59.9968 136.518 59.9968C136.184 59.9968 135.906 60.0737 135.684 60.2276C135.464 60.3791 135.353 60.5721 135.353 60.8065C135.353 61.0148 135.429 61.1793 135.581 61.3001C135.732 61.4208 135.969 61.5214 136.291 61.6019L137.101 61.8008C137.588 61.9192 137.952 62.1003 138.191 62.3441C138.43 62.5856 138.549 62.8969 138.549 63.2781C138.549 63.5906 138.46 63.8699 138.28 64.1161C138.102 64.3623 137.853 64.5565 137.534 64.6985C137.214 64.8406 136.843 64.9116 136.419 64.9116C135.862 64.9116 135.402 64.7908 135.037 64.5494C134.673 64.3079 134.442 63.9551 134.345 63.4911L135.14 63.2923C135.216 63.5858 135.359 63.806 135.57 63.9528C135.783 64.0996 136.061 64.1729 136.405 64.1729C136.795 64.1729 137.105 64.0901 137.335 63.9244C137.567 63.7563 137.683 63.555 137.683 63.3207C137.683 63.1313 137.617 62.9727 137.484 62.8448C137.352 62.7146 137.148 62.6175 136.873 62.5536L135.964 62.3406C135.465 62.2222 135.098 62.0387 134.863 61.7901C134.631 61.5392 134.515 61.2255 134.515 60.8491C134.515 60.5413 134.602 60.2691 134.775 60.0323C134.95 59.7956 135.188 59.6097 135.488 59.4748C135.791 59.3398 136.135 59.2724 136.518 59.2724C137.058 59.2724 137.482 59.3907 137.79 59.6275C138.1 59.8642 138.32 60.1767 138.45 60.565Z" fill="#343434"/>
<path d="M68.6471 95.2969C68.4546 95.6303 67.9735 95.6303 67.7811 95.2969L65.183 90.7969C64.9905 90.4636 65.2311 90.0469 65.616 90.0469H70.8122C71.1971 90.0469 71.4376 90.4636 71.2452 90.7969L68.6471 95.2969Z" fill="#343434"/>
<path d="M98.2148 83.0469H82.2148C81.2483 83.0469 80.4648 83.8304 80.4648 84.7969V100.797C80.4648 101.763 81.2483 102.547 82.2148 102.547H98.2148C99.1813 102.547 99.9648 101.763 99.9648 100.797V84.7969C99.9648 83.8304 99.1813 83.0469 98.2148 83.0469Z" stroke="#343434" stroke-width="0.5"/>
<path d="M90.5512 92.8015C90.361 93.146 89.8658 93.146 89.6757 92.8015L86.7061 87.422C86.5013 87.051 86.822 86.6094 87.2381 86.6893L90.0178 87.223C90.0801 87.2349 90.144 87.2349 90.2063 87.223L92.9888 86.6891C93.405 86.6093 93.7256 87.0508 93.5208 87.4218L90.5512 92.8015Z" fill="#343434"/>
<path fill-rule="evenodd" clip-rule="evenodd" d="M88.4904 92.7305C88.4188 92.6009 88.2374 92.5926 88.1706 92.7248C88.0165 93.03 87.9297 93.375 87.9297 93.7403C87.9297 94.9862 88.9397 95.9961 90.1855 95.9961C91.4314 95.9961 92.4414 94.9862 92.4414 93.7403C92.4414 93.3162 92.3244 92.9194 92.1209 92.5806C92.0475 92.4583 91.8743 92.4721 91.8054 92.597L91.4242 93.2875C90.8538 94.321 89.3683 94.321 88.7978 93.2875L88.4904 92.7305ZM89.278 91.6744C89.1768 91.7189 89.1419 91.8416 89.1953 91.9383L89.6733 92.8042C89.8635 93.1487 90.3586 93.1487 90.5488 92.8042L91.0539 91.8892C91.1095 91.7884 91.069 91.6608 90.9609 91.6212C90.7192 91.5327 90.458 91.4844 90.1855 91.4844C89.8627 91.4844 89.5557 91.5522 89.278 91.6744Z" fill="#343434"/>
<path fill-rule="evenodd" clip-rule="evenodd" d="M87.7346 89.2921C87.8948 89.5823 88.2589 89.6834 88.568 89.5636C89.0697 89.3692 89.6152 89.2625 90.1855 89.2625C90.7153 89.2625 91.2237 89.3546 91.6954 89.5235C92.0019 89.6333 92.3565 89.5293 92.5139 89.2442C92.6772 88.9485 92.5659 88.573 92.2512 88.45C91.6111 88.1999 90.9143 88.0625 90.1855 88.0625C89.405 88.0625 88.6612 88.2201 87.9842 88.505C87.6788 88.6336 87.5744 89.0019 87.7346 89.2921ZM93.6609 90.2702C93.5305 90.5065 93.5713 90.7975 93.736 91.0114C94.3175 91.7669 94.6633 92.7132 94.6633 93.7403C94.6633 96.2133 92.6585 98.218 90.1855 98.218C87.7126 98.218 85.7078 96.2133 85.7078 93.7403C85.7078 92.7581 86.0241 91.8497 86.5603 91.1115C86.7154 90.8979 86.7509 90.6139 86.6233 90.3828C86.4247 90.023 85.937 89.9514 85.6861 90.2769C84.9472 91.2354 84.5078 92.4365 84.5078 93.7403C84.5078 96.876 87.0498 99.418 90.1855 99.418C93.3213 99.418 95.8633 96.876 95.8633 93.7403C95.8633 92.3799 95.3849 91.1313 94.5871 90.1536C94.3321 89.841 93.8559 89.917 93.6609 90.2702Z" fill="#343434"/>
<path d="M114.235 92.2937L113.256 92.5707C113.194 92.4076 113.104 92.2491 112.984 92.0952C112.867 91.9382 112.707 91.809 112.504 91.7074C112.3 91.6058 112.04 91.5551 111.723 91.5551C111.289 91.5551 110.928 91.6551 110.638 91.8551C110.352 92.0521 110.209 92.3029 110.209 92.6076C110.209 92.8785 110.308 93.0924 110.505 93.2493C110.702 93.4063 111.009 93.5371 111.428 93.6417L112.48 93.9002C113.114 94.0541 113.587 94.2896 113.898 94.6066C114.209 94.9205 114.364 95.3252 114.364 95.8207C114.364 96.2269 114.247 96.5901 114.013 96.9102C113.782 97.2303 113.459 97.4826 113.044 97.6673C112.628 97.8519 112.145 97.9443 111.594 97.9443C110.871 97.9443 110.272 97.7873 109.798 97.4734C109.324 97.1595 109.024 96.7009 108.898 96.0977L109.932 95.8392C110.031 96.2208 110.217 96.507 110.491 96.6978C110.768 96.8886 111.129 96.984 111.576 96.984C112.083 96.984 112.487 96.8763 112.785 96.6609C113.087 96.4424 113.238 96.1808 113.238 95.8761C113.238 95.6299 113.151 95.4237 112.979 95.2575C112.807 95.0882 112.542 94.962 112.185 94.8789L111.003 94.6019C110.354 94.4481 109.877 94.2095 109.572 93.8864C109.27 93.5602 109.12 93.1524 109.12 92.663C109.12 92.2629 109.232 91.909 109.457 91.6012C109.684 91.2935 109.994 91.0519 110.385 90.8764C110.779 90.701 111.225 90.6133 111.723 90.6133C112.425 90.6133 112.976 90.7672 113.376 91.075C113.779 91.3827 114.065 91.789 114.235 92.2937ZM116.004 100.455V90.7056H117.057V91.8321H117.186C117.266 91.7089 117.377 91.552 117.518 91.3612C117.663 91.1673 117.869 90.9949 118.137 90.8441C118.408 90.6902 118.774 90.6133 119.236 90.6133C119.833 90.6133 120.359 90.7626 120.814 91.0611C121.27 91.3596 121.625 91.7828 121.881 92.3306C122.136 92.8785 122.264 93.5248 122.264 94.2696C122.264 95.0205 122.136 95.6714 121.881 96.2223C121.625 96.7701 121.271 97.1949 120.819 97.4965C120.367 97.795 119.845 97.9443 119.254 97.9443C118.799 97.9443 118.434 97.8689 118.16 97.7181C117.886 97.5642 117.675 97.3903 117.527 97.1964C117.38 96.9994 117.266 96.8363 117.186 96.7071H117.093V100.455H116.004ZM117.075 94.2511C117.075 94.7866 117.153 95.259 117.31 95.6683C117.467 96.0746 117.697 96.3931 117.998 96.624C118.3 96.8517 118.669 96.9656 119.106 96.9656C119.562 96.9656 119.942 96.8455 120.247 96.6055C120.554 96.3624 120.785 96.0361 120.939 95.6268C121.096 95.2144 121.174 94.7558 121.174 94.2511C121.174 93.7525 121.098 93.3032 120.944 92.9031C120.793 92.4999 120.564 92.1814 120.256 91.9475C119.951 91.7105 119.568 91.592 119.106 91.592C118.663 91.592 118.291 91.7043 117.989 91.929C117.687 92.1506 117.46 92.4614 117.306 92.8615C117.152 93.2585 117.075 93.7217 117.075 94.2511ZM126.013 97.9627C125.563 97.9627 125.155 97.8781 124.789 97.7088C124.423 97.5365 124.132 97.2887 123.917 96.9656C123.701 96.6393 123.593 96.2454 123.593 95.7838C123.593 95.3775 123.674 95.0482 123.834 94.7958C123.994 94.5404 124.207 94.3403 124.475 94.1957C124.743 94.051 125.038 93.9433 125.362 93.8725C125.688 93.7987 126.016 93.7402 126.345 93.6971C126.776 93.6417 127.125 93.6002 127.393 93.5725C127.664 93.5417 127.861 93.4909 127.984 93.4201C128.11 93.3493 128.173 93.2262 128.173 93.0508V93.0139C128.173 92.5584 128.048 92.2044 127.799 91.9521C127.553 91.6997 127.179 91.5735 126.677 91.5735C126.157 91.5735 125.749 91.6874 125.454 91.9152C125.158 92.1429 124.951 92.386 124.831 92.6446L123.797 92.2752C123.981 91.8444 124.227 91.5089 124.535 91.2688C124.846 91.0257 125.185 90.8564 125.551 90.761C125.92 90.6625 126.283 90.6133 126.64 90.6133C126.868 90.6133 127.13 90.641 127.425 90.6964C127.724 90.7487 128.011 90.858 128.288 91.0242C128.569 91.1904 128.801 91.4412 128.986 91.7767C129.17 92.1121 129.263 92.5615 129.263 93.1247V97.7965H128.173V96.8363H128.118C128.044 96.9902 127.921 97.1549 127.748 97.3303C127.576 97.5057 127.347 97.655 127.06 97.7781C126.774 97.9012 126.425 97.9627 126.013 97.9627ZM126.179 96.984C126.61 96.984 126.973 96.8994 127.268 96.7301C127.567 96.5609 127.791 96.3424 127.942 96.0746C128.096 95.8068 128.173 95.5252 128.173 95.2298V94.2326C128.127 94.288 128.025 94.3388 127.868 94.385C127.714 94.4281 127.536 94.4665 127.333 94.5004C127.133 94.5312 126.937 94.5589 126.747 94.5835C126.559 94.605 126.406 94.6235 126.29 94.6389C126.006 94.6758 125.742 94.7358 125.495 94.8189C125.252 94.8989 125.055 95.0205 124.905 95.1836C124.757 95.3437 124.683 95.5622 124.683 95.8392C124.683 96.2177 124.823 96.5039 125.103 96.6978C125.386 96.8886 125.745 96.984 126.179 96.984ZM132.341 93.5309V97.7965H131.251V90.7056H132.304V91.8136H132.396C132.562 91.4535 132.815 91.1642 133.153 90.9457C133.492 90.7241 133.929 90.6133 134.464 90.6133C134.944 90.6133 135.364 90.7118 135.724 90.9088C136.085 91.1027 136.365 91.3981 136.565 91.7951C136.765 92.1891 136.865 92.6876 136.865 93.2909V97.7965H135.775V93.3647C135.775 92.8077 135.631 92.3737 135.341 92.0629C135.052 91.749 134.655 91.592 134.15 91.592C133.802 91.592 133.492 91.6674 133.218 91.8182C132.947 91.969 132.733 92.1891 132.576 92.4784C132.419 92.7677 132.341 93.1185 132.341 93.5309Z" fill="#343434"/>
<path d="M108.578 118.047H92.5781C91.6116 118.047 90.8281 118.83 90.8281 119.797V135.797C90.8281 136.763 91.6116 137.547 92.5781 137.547H108.578C109.545 137.547 110.328 136.763 110.328 135.797V119.797C110.328 118.83 109.545 118.047 108.578 118.047Z" stroke="#343434" stroke-width="0.5"/>
<path d="M100.914 127.801C100.724 128.146 100.229 128.146 100.039 127.801L97.0694 122.422C96.8646 122.051 97.1853 121.609 97.6014 121.689L100.381 122.223C100.443 122.235 100.507 122.235 100.57 122.223L103.352 121.689C103.768 121.609 104.089 122.051 103.884 122.422L100.914 127.801Z" fill="#343434"/>
<path fill-rule="evenodd" clip-rule="evenodd" d="M98.8537 127.731C98.7821 127.601 98.6007 127.593 98.5339 127.725C98.3798 128.03 98.293 128.375 98.293 128.74C98.293 129.986 99.303 130.996 100.549 130.996C101.795 130.996 102.805 129.986 102.805 128.74C102.805 128.316 102.688 127.919 102.484 127.581C102.411 127.458 102.238 127.472 102.169 127.597L101.788 128.287C101.217 129.321 99.7316 129.321 99.1611 128.287L98.8537 127.731ZM99.6413 126.674C99.5401 126.719 99.5052 126.842 99.5586 126.938L100.037 127.804C100.227 128.149 100.722 128.149 100.912 127.804L101.417 126.889C101.473 126.788 101.432 126.661 101.324 126.621C101.082 126.533 100.821 126.484 100.549 126.484C100.226 126.484 99.919 126.552 99.6413 126.674Z" fill="#343434"/>
<path fill-rule="evenodd" clip-rule="evenodd" d="M98.0979 124.292C98.2581 124.582 98.6222 124.682 98.9312 124.563C99.433 124.368 99.9784 124.263 100.549 124.263C101.079 124.263 101.587 124.355 102.059 124.523C102.365 124.633 102.72 124.528 102.877 124.243C103.04 123.947 102.929 123.573 102.615 123.45C101.974 123.2 101.278 123.062 100.549 123.062C99.7683 123.062 99.0245 123.22 98.3475 123.505C98.0421 123.634 97.9377 124.002 98.0979 124.292ZM104.024 125.27C103.894 125.507 103.935 125.798 104.099 126.011C104.681 126.767 105.027 127.713 105.027 128.74C105.027 131.213 103.022 133.218 100.549 133.218C98.0758 133.218 96.0711 131.213 96.0711 128.74C96.0711 127.758 96.3874 126.85 96.9236 126.111C97.0787 125.898 97.1142 125.613 96.9866 125.382C96.788 125.022 96.3003 124.951 96.0494 125.277C95.3105 126.235 94.8711 127.437 94.8711 128.74C94.8711 131.876 97.4131 134.418 100.549 134.418C103.685 134.418 106.227 131.876 106.227 128.74C106.227 127.38 105.748 126.131 104.95 125.154C104.695 124.841 104.219 124.917 104.024 125.27Z" fill="#343434"/>
<path d="M124.599 127.293L123.62 127.57C123.559 127.407 123.468 127.249 123.348 127.095C123.231 126.938 123.071 126.809 122.868 126.707C122.665 126.605 122.405 126.555 122.088 126.555C121.654 126.555 121.292 126.655 121.003 126.855C120.717 127.052 120.573 127.303 120.573 127.607C120.573 127.878 120.672 128.092 120.869 128.249C121.066 128.406 121.374 128.537 121.792 128.641L122.845 128.9C123.479 129.054 123.951 129.289 124.262 129.606C124.573 129.92 124.728 130.325 124.728 130.82C124.728 131.227 124.611 131.59 124.377 131.91C124.147 132.23 123.823 132.482 123.408 132.667C122.992 132.852 122.509 132.944 121.958 132.944C121.235 132.944 120.637 132.787 120.163 132.473C119.689 132.159 119.389 131.7 119.262 131.097L120.296 130.839C120.395 131.22 120.581 131.507 120.855 131.697C121.132 131.888 121.494 131.984 121.94 131.984C122.448 131.984 122.851 131.876 123.149 131.66C123.451 131.442 123.602 131.18 123.602 130.876C123.602 130.629 123.516 130.423 123.343 130.257C123.171 130.088 122.906 129.962 122.549 129.879L121.367 129.602C120.718 129.448 120.241 129.209 119.936 128.886C119.635 128.56 119.484 128.152 119.484 127.663C119.484 127.263 119.596 126.909 119.821 126.601C120.049 126.293 120.358 126.051 120.749 125.876C121.143 125.701 121.589 125.613 122.088 125.613C122.789 125.613 123.34 125.767 123.74 126.075C124.144 126.382 124.43 126.789 124.599 127.293ZM126.368 135.455V125.705H127.421V126.832H127.55C127.63 126.709 127.741 126.552 127.882 126.361C128.027 126.167 128.233 125.995 128.501 125.844C128.772 125.69 129.138 125.613 129.6 125.613C130.197 125.613 130.723 125.762 131.179 126.061C131.634 126.359 131.99 126.782 132.245 127.33C132.5 127.878 132.628 128.524 132.628 129.269C132.628 130.02 132.5 130.671 132.245 131.222C131.99 131.77 131.636 132.194 131.183 132.496C130.731 132.795 130.209 132.944 129.618 132.944C129.163 132.944 128.798 132.868 128.524 132.718C128.25 132.564 128.039 132.39 127.892 132.196C127.744 131.999 127.63 131.836 127.55 131.707H127.458V135.455H126.368ZM127.439 129.251C127.439 129.786 127.518 130.259 127.675 130.668C127.832 131.074 128.061 131.393 128.363 131.624C128.664 131.851 129.034 131.965 129.471 131.965C129.926 131.965 130.306 131.845 130.611 131.605C130.919 131.362 131.149 131.036 131.303 130.626C131.46 130.214 131.539 129.755 131.539 129.251C131.539 128.752 131.462 128.303 131.308 127.903C131.157 127.5 130.928 127.181 130.62 126.947C130.315 126.71 129.932 126.592 129.471 126.592C129.027 126.592 128.655 126.704 128.353 126.929C128.052 127.15 127.824 127.461 127.67 127.861C127.516 128.258 127.439 128.721 127.439 129.251ZM136.377 132.962C135.927 132.962 135.52 132.878 135.153 132.708C134.787 132.536 134.496 132.288 134.281 131.965C134.065 131.639 133.958 131.245 133.958 130.783C133.958 130.377 134.038 130.048 134.198 129.795C134.358 129.54 134.572 129.34 134.84 129.195C135.107 129.051 135.403 128.943 135.726 128.872C136.052 128.798 136.38 128.74 136.709 128.697C137.14 128.641 137.489 128.6 137.757 128.572C138.028 128.541 138.225 128.491 138.348 128.42C138.474 128.349 138.537 128.226 138.537 128.05V128.013C138.537 127.558 138.413 127.204 138.163 126.952C137.917 126.699 137.543 126.573 137.042 126.573C136.521 126.573 136.114 126.687 135.818 126.915C135.523 127.142 135.315 127.386 135.195 127.644L134.161 127.275C134.346 126.844 134.592 126.509 134.9 126.268C135.21 126.025 135.549 125.856 135.915 125.761C136.284 125.662 136.648 125.613 137.005 125.613C137.232 125.613 137.494 125.641 137.789 125.696C138.088 125.748 138.376 125.858 138.653 126.024C138.933 126.19 139.165 126.441 139.35 126.776C139.534 127.112 139.627 127.561 139.627 128.124V132.796H138.537V131.836H138.482C138.408 131.99 138.285 132.154 138.113 132.33C137.94 132.505 137.711 132.655 137.425 132.778C137.139 132.901 136.789 132.962 136.377 132.962ZM136.543 131.984C136.974 131.984 137.337 131.899 137.632 131.73C137.931 131.56 138.156 131.342 138.306 131.074C138.46 130.806 138.537 130.525 138.537 130.229V129.232C138.491 129.288 138.39 129.338 138.233 129.385C138.079 129.428 137.9 129.466 137.697 129.5C137.497 129.531 137.302 129.558 137.111 129.583C136.923 129.605 136.771 129.623 136.654 129.638C136.371 129.675 136.106 129.735 135.86 129.819C135.617 129.899 135.42 130.02 135.269 130.183C135.121 130.343 135.047 130.562 135.047 130.839C135.047 131.217 135.187 131.504 135.467 131.697C135.75 131.888 136.109 131.984 136.543 131.984ZM142.705 128.531V132.796H141.615V125.705H142.668V126.813H142.76C142.926 126.453 143.179 126.164 143.517 125.945C143.856 125.724 144.293 125.613 144.828 125.613C145.309 125.613 145.729 125.711 146.089 125.908C146.449 126.102 146.729 126.398 146.929 126.795C147.129 127.189 147.229 127.687 147.229 128.29V132.796H146.139V128.364C146.139 127.807 145.995 127.373 145.706 127.062C145.416 126.749 145.019 126.592 144.514 126.592C144.167 126.592 143.856 126.667 143.582 126.818C143.311 126.969 143.097 127.189 142.94 127.478C142.783 127.767 142.705 128.118 142.705 128.531Z" fill="#343434"/>
<path d="M108.578 152.047H92.5781C91.6116 152.047 90.8281 152.83 90.8281 153.797V169.797C90.8281 170.763 91.6116 171.547 92.5781 171.547H108.578C109.545 171.547 110.328 170.763 110.328 169.797V153.797C110.328 152.83 109.545 152.047 108.578 152.047Z" stroke="#343434" stroke-width="0.5"/>
<path d="M100.914 161.801C100.724 162.146 100.229 162.146 100.039 161.801L97.0694 156.422C96.8646 156.051 97.1853 155.609 97.6014 155.689L100.381 156.223C100.443 156.235 100.507 156.235 100.57 156.223L103.352 155.689C103.768 155.609 104.089 156.051 103.884 156.422L100.914 161.801Z" fill="#343434"/>
<path fill-rule="evenodd" clip-rule="evenodd" d="M98.8537 161.731C98.7821 161.601 98.6007 161.593 98.5339 161.725C98.3798 162.03 98.293 162.375 98.293 162.74C98.293 163.986 99.303 164.996 100.549 164.996C101.795 164.996 102.805 163.986 102.805 162.74C102.805 162.316 102.688 161.919 102.484 161.581C102.411 161.458 102.238 161.472 102.169 161.597L101.788 162.287C101.217 163.321 99.7316 163.321 99.1611 162.287L98.8537 161.731ZM99.6413 160.674C99.5401 160.719 99.5052 160.842 99.5586 160.938L100.037 161.804C100.227 162.149 100.722 162.149 100.912 161.804L101.417 160.889C101.473 160.788 101.432 160.661 101.324 160.621C101.082 160.533 100.821 160.484 100.549 160.484C100.226 160.484 99.919 160.552 99.6413 160.674Z" fill="#343434"/>
<path fill-rule="evenodd" clip-rule="evenodd" d="M98.0979 158.291C98.2581 158.581 98.6222 158.682 98.9312 158.563C99.433 158.368 99.9784 158.262 100.549 158.262C101.079 158.262 101.587 158.354 102.059 158.522C102.365 158.632 102.72 158.528 102.877 158.243C103.04 157.947 102.929 157.572 102.615 157.449C101.974 157.199 101.278 157.062 100.549 157.062C99.7683 157.062 99.0245 157.22 98.3475 157.505C98.0421 157.634 97.9377 158.001 98.0979 158.291ZM104.024 159.27C103.894 159.507 103.935 159.797 104.099 160.01C104.681 160.766 105.027 161.713 105.027 162.74C105.027 165.213 103.022 167.217 100.549 167.217C98.0758 167.217 96.0711 165.213 96.0711 162.74C96.0711 161.758 96.3874 160.849 96.9236 160.11C97.0787 159.897 97.1142 159.613 96.9866 159.382C96.788 159.022 96.3003 158.95 96.0494 159.276C95.3105 160.234 94.8711 161.437 94.8711 162.74C94.8711 165.876 97.4131 168.417 100.549 168.417C103.685 168.417 106.227 165.876 106.227 162.74C106.227 161.38 105.748 160.13 104.95 159.153C104.695 158.84 104.219 158.917 104.024 159.27Z" fill="#343434"/>
<path d="M124.599 161.293L123.62 161.57C123.559 161.407 123.468 161.249 123.348 161.095C123.231 160.938 123.071 160.809 122.868 160.707C122.665 160.605 122.405 160.555 122.088 160.555C121.654 160.555 121.292 160.655 121.003 160.855C120.717 161.052 120.573 161.303 120.573 161.607C120.573 161.878 120.672 162.092 120.869 162.249C121.066 162.406 121.374 162.537 121.792 162.641L122.845 162.9C123.479 163.054 123.951 163.289 124.262 163.606C124.573 163.92 124.728 164.325 124.728 164.82C124.728 165.227 124.611 165.59 124.377 165.91C124.147 166.23 123.823 166.482 123.408 166.667C122.992 166.852 122.509 166.944 121.958 166.944C121.235 166.944 120.637 166.787 120.163 166.473C119.689 166.159 119.389 165.7 119.262 165.097L120.296 164.839C120.395 165.22 120.581 165.507 120.855 165.697C121.132 165.888 121.494 165.984 121.94 165.984C122.448 165.984 122.851 165.876 123.149 165.66C123.451 165.442 123.602 165.18 123.602 164.876C123.602 164.629 123.516 164.423 123.343 164.257C123.171 164.088 122.906 163.962 122.549 163.879L121.367 163.602C120.718 163.448 120.241 163.209 119.936 162.886C119.635 162.56 119.484 162.152 119.484 161.663C119.484 161.263 119.596 160.909 119.821 160.601C120.049 160.293 120.358 160.051 120.749 159.876C121.143 159.701 121.589 159.613 122.088 159.613C122.789 159.613 123.34 159.767 123.74 160.075C124.144 160.382 124.43 160.789 124.599 161.293ZM126.368 169.455V159.705H127.421V160.832H127.55C127.63 160.709 127.741 160.552 127.882 160.361C128.027 160.167 128.233 159.995 128.501 159.844C128.772 159.69 129.138 159.613 129.6 159.613C130.197 159.613 130.723 159.762 131.179 160.061C131.634 160.359 131.99 160.782 132.245 161.33C132.5 161.878 132.628 162.524 132.628 163.269C132.628 164.02 132.5 164.671 132.245 165.222C131.99 165.77 131.636 166.194 131.183 166.496C130.731 166.795 130.209 166.944 129.618 166.944C129.163 166.944 128.798 166.868 128.524 166.718C128.25 166.564 128.039 166.39 127.892 166.196C127.744 165.999 127.63 165.836 127.55 165.707H127.458V169.455H126.368ZM127.439 163.251C127.439 163.786 127.518 164.259 127.675 164.668C127.832 165.074 128.061 165.393 128.363 165.624C128.664 165.851 129.034 165.965 129.471 165.965C129.926 165.965 130.306 165.845 130.611 165.605C130.919 165.362 131.149 165.036 131.303 164.626C131.46 164.214 131.539 163.755 131.539 163.251C131.539 162.752 131.462 162.303 131.308 161.903C131.157 161.5 130.928 161.181 130.62 160.947C130.315 160.71 129.932 160.592 129.471 160.592C129.027 160.592 128.655 160.704 128.353 160.929C128.052 161.15 127.824 161.461 127.67 161.861C127.516 162.258 127.439 162.721 127.439 163.251ZM136.377 166.962C135.927 166.962 135.52 166.878 135.153 166.708C134.787 166.536 134.496 166.288 134.281 165.965C134.065 165.639 133.958 165.245 133.958 164.783C133.958 164.377 134.038 164.048 134.198 163.795C134.358 163.54 134.572 163.34 134.84 163.195C135.107 163.051 135.403 162.943 135.726 162.872C136.052 162.798 136.38 162.74 136.709 162.697C137.14 162.641 137.489 162.6 137.757 162.572C138.028 162.541 138.225 162.491 138.348 162.42C138.474 162.349 138.537 162.226 138.537 162.05V162.013C138.537 161.558 138.413 161.204 138.163 160.952C137.917 160.699 137.543 160.573 137.042 160.573C136.521 160.573 136.114 160.687 135.818 160.915C135.523 161.142 135.315 161.386 135.195 161.644L134.161 161.275C134.346 160.844 134.592 160.509 134.9 160.268C135.21 160.025 135.549 159.856 135.915 159.761C136.284 159.662 136.648 159.613 137.005 159.613C137.232 159.613 137.494 159.641 137.789 159.696C138.088 159.748 138.376 159.858 138.653 160.024C138.933 160.19 139.165 160.441 139.35 160.776C139.534 161.112 139.627 161.561 139.627 162.124V166.796H138.537V165.836H138.482C138.408 165.99 138.285 166.154 138.113 166.33C137.94 166.505 137.711 166.655 137.425 166.778C137.139 166.901 136.789 166.962 136.377 166.962ZM136.543 165.984C136.974 165.984 137.337 165.899 137.632 165.73C137.931 165.56 138.156 165.342 138.306 165.074C138.46 164.806 138.537 164.525 138.537 164.229V163.232C138.491 163.288 138.39 163.338 138.233 163.385C138.079 163.428 137.9 163.466 137.697 163.5C137.497 163.531 137.302 163.558 137.111 163.583C136.923 163.605 136.771 163.623 136.654 163.638C136.371 163.675 136.106 163.735 135.86 163.819C135.617 163.899 135.42 164.02 135.269 164.183C135.121 164.343 135.047 164.562 135.047 164.839C135.047 165.217 135.187 165.504 135.467 165.697C135.75 165.888 136.109 165.984 136.543 165.984ZM142.705 162.531V166.796H141.615V159.705H142.668V160.813H142.76C142.926 160.453 143.179 160.164 143.517 159.945C143.856 159.724 144.293 159.613 144.828 159.613C145.309 159.613 145.729 159.711 146.089 159.908C146.449 160.102 146.729 160.398 146.929 160.795C147.129 161.189 147.229 161.687 147.229 162.29V166.796H146.139V162.364C146.139 161.807 145.995 161.373 145.706 161.062C145.416 160.749 145.019 160.592 144.514 160.592C144.167 160.592 143.856 160.667 143.582 160.818C143.311 160.969 143.097 161.189 142.94 161.478C142.783 161.767 142.705 162.118 142.705 162.531Z" fill="#343434"/>
</g>
</svg>
