<svg width="205" height="151" viewBox="0 0 205 151" fill="none" xmlns="http://www.w3.org/2000/svg">
<mask id="mask0_12215_7953" style="mask-type:luminance" maskUnits="userSpaceOnUse" x="0" y="0" width="205" height="151">
<path d="M204.5 0H0.5V151H204.5V0Z" fill="white"/>
</mask>
<g mask="url(#mask0_12215_7953)">
<path d="M177.535 71.0664H211.687" stroke="#1AFB6F" stroke-width="0.4" stroke-dasharray="1.4 1.4"/>
<path d="M170.133 100.977H212.098" stroke="#1AFB6F" stroke-width="0.4" stroke-dasharray="1.4 1.4"/>
<path d="M157.199 86.0664H217.586" stroke="#1AFB6F" stroke-width="0.4" stroke-dasharray="1.4 1.4"/>
<path d="M154.758 50.7618L110.953 50.658C110.628 50.6573 110.317 50.7956 110.099 51.0382L103.016 58.9346C102.552 59.4522 101.737 59.4395 101.289 58.9077L94.7026 51.086C94.4852 50.8278 94.1649 50.6788 93.8274 50.6788H72.4333C71.8014 50.6788 71.2892 50.1666 71.2892 49.5347L71.2891 31.6714C71.2891 31.0395 71.8013 30.5273 72.4332 30.5273H154.758M154.758 50.7618L173.861 50.8024C174.494 50.8038 175.007 50.2911 175.007 49.6583V31.6714C175.007 31.0395 174.495 30.5273 173.863 30.5273H154.758M154.758 50.7618V30.5273" stroke="#1AFB6F" stroke-width="0.7"/>
<path d="M78.5039 37.4219H79.551L81.1468 40.199H81.2125L82.8083 37.4219H83.8554L81.639 41.1327V43.5309H80.7203V41.1327L78.5039 37.4219ZM85.8293 43.6234C85.3998 43.6234 85.0249 43.525 84.7048 43.3281C84.3846 43.1312 84.136 42.8558 83.959 42.5018C83.782 42.1479 83.6935 41.7342 83.6935 41.2609C83.6935 40.7856 83.782 40.37 83.959 40.014C84.136 39.6581 84.3846 39.3817 84.7048 39.1848C85.0249 38.9879 85.3998 38.8895 85.8293 38.8895C86.2589 38.8895 86.6337 38.9879 86.9539 39.1848C87.2741 39.3817 87.5227 39.6581 87.6996 40.014C87.8766 40.37 87.9651 40.7856 87.9651 41.2609C87.9651 41.7342 87.8766 42.1479 87.6996 42.5018C87.5227 42.8558 87.2741 43.1312 86.9539 43.3281C86.6337 43.525 86.2589 43.6234 85.8293 43.6234ZM85.8323 42.8747C86.1107 42.8747 86.3414 42.8011 86.5244 42.654C86.7073 42.5068 86.8425 42.3109 86.93 42.0663C87.0195 41.8217 87.0643 41.5523 87.0643 41.2579C87.0643 40.9656 87.0195 40.6971 86.93 40.4525C86.8425 40.206 86.7073 40.0081 86.5244 39.8589C86.3414 39.7098 86.1107 39.6352 85.8323 39.6352C85.5519 39.6352 85.3193 39.7098 85.1343 39.8589C84.9514 40.0081 84.8151 40.206 84.7256 40.4525C84.6381 40.6971 84.5944 40.9656 84.5944 41.2579C84.5944 41.5523 84.6381 41.8217 84.7256 42.0663C84.8151 42.3109 84.9514 42.5068 85.1343 42.654C85.3193 42.8011 85.5519 42.8747 85.8323 42.8747ZM91.8631 41.6308V38.9491H92.758V43.5309H91.881V42.7375H91.8333C91.7279 42.9821 91.5588 43.1859 91.3262 43.349C91.0955 43.5101 90.8081 43.5906 90.4641 43.5906C90.1698 43.5906 89.9093 43.526 89.6826 43.3967C89.4579 43.2655 89.2809 43.0716 89.1516 42.815C89.0243 42.5585 88.9607 42.2413 88.9607 41.8635V38.9491H89.8526V41.7561C89.8526 42.0683 89.9391 42.3169 90.1121 42.5018C90.2851 42.6868 90.5098 42.7792 90.7863 42.7792C90.9533 42.7792 91.1194 42.7375 91.2844 42.654C91.4515 42.5704 91.5897 42.4442 91.699 42.2751C91.8104 42.1061 91.8651 41.8913 91.8631 41.6308ZM97.5128 43.6324C97.2225 43.6324 96.96 43.5787 96.7253 43.4713C96.4907 43.3619 96.3047 43.2038 96.1675 42.997C96.0323 42.7902 95.9647 42.5366 95.9647 42.2363C95.9647 41.9778 96.0144 41.765 96.1138 41.598C96.2132 41.431 96.3475 41.2987 96.5165 41.2013C96.6855 41.1038 96.8745 41.0302 97.0833 40.9805C97.2921 40.9308 97.5049 40.893 97.7216 40.8672C97.9961 40.8354 98.2188 40.8095 98.3898 40.7896C98.5608 40.7677 98.6851 40.7329 98.7627 40.6852C98.8402 40.6375 98.879 40.5599 98.879 40.4525V40.4317C98.879 40.1711 98.8054 39.9693 98.6583 39.8261C98.5131 39.6829 98.2963 39.6113 98.008 39.6113C97.7077 39.6113 97.4711 39.678 97.298 39.8112C97.127 39.9425 97.0087 40.0886 96.9431 40.2497L96.1049 40.0588C96.2043 39.7804 96.3495 39.5557 96.5404 39.3846C96.7333 39.2116 96.955 39.0863 97.2056 39.0088C97.4561 38.9292 97.7196 38.8895 97.9961 38.8895C98.179 38.8895 98.3729 38.9113 98.5777 38.9551C98.7846 38.9969 98.9775 39.0744 99.1564 39.1878C99.3374 39.3011 99.4855 39.4632 99.6009 39.674C99.7162 39.8828 99.7739 40.1542 99.7739 40.4883V43.5309H98.9029V42.9045H98.8671C98.8094 43.0199 98.7229 43.1332 98.6076 43.2446C98.4922 43.356 98.3441 43.4484 98.1631 43.522C97.9821 43.5956 97.7654 43.6324 97.5128 43.6324ZM97.7067 42.9165C97.9533 42.9165 98.1641 42.8677 98.3391 42.7703C98.5161 42.6729 98.6503 42.5456 98.7418 42.3885C98.8353 42.2294 98.882 42.0594 98.882 41.8784V41.2878C98.8502 41.3196 98.7885 41.3494 98.6971 41.3773C98.6076 41.4031 98.5052 41.426 98.3898 41.4459C98.2745 41.4638 98.1621 41.4807 98.0527 41.4966C97.9434 41.5105 97.8519 41.5224 97.7783 41.5324C97.6053 41.5542 97.4472 41.591 97.304 41.6427C97.1628 41.6944 97.0495 41.769 96.964 41.8665C96.8804 41.9619 96.8387 42.0892 96.8387 42.2483C96.8387 42.469 96.9202 42.6361 97.0833 42.7494C97.2463 42.8608 97.4542 42.9165 97.7067 42.9165ZM100.961 43.5309V38.9491H101.824V39.677H101.871C101.955 39.4304 102.102 39.2365 102.313 39.0953C102.526 38.9521 102.766 38.8805 103.035 38.8805C103.09 38.8805 103.156 38.8825 103.231 38.8865C103.309 38.8905 103.37 38.8954 103.413 38.9014V39.7545C103.378 39.7446 103.314 39.7336 103.223 39.7217C103.131 39.7078 103.04 39.7008 102.948 39.7008C102.737 39.7008 102.549 39.7456 102.384 39.8351C102.221 39.9226 102.092 40.0449 101.997 40.202C101.901 40.3571 101.853 40.5341 101.853 40.7329V43.5309H100.961ZM105.996 43.6234C105.545 43.6234 105.156 43.527 104.83 43.3341C104.505 43.1392 104.255 42.8658 104.078 42.5138C103.903 42.1598 103.815 41.7452 103.815 41.2699C103.815 40.8006 103.903 40.3869 104.078 40.029C104.255 39.671 104.501 39.3916 104.818 39.1908C105.136 38.9899 105.508 38.8895 105.933 38.8895C106.192 38.8895 106.442 38.9322 106.685 39.0177C106.928 39.1033 107.145 39.2375 107.338 39.4204C107.531 39.6034 107.683 39.841 107.795 40.1334C107.906 40.4237 107.962 40.7767 107.962 41.1923V41.5085H104.32V40.8403H107.088C107.088 40.6057 107.04 40.3979 106.945 40.2169C106.849 40.0339 106.715 39.8898 106.542 39.7844C106.371 39.679 106.17 39.6263 105.939 39.6263C105.689 39.6263 105.47 39.6879 105.283 39.8112C105.098 39.9325 104.955 40.0916 104.853 40.2885C104.754 40.4834 104.704 40.6952 104.704 40.9238V41.4459C104.704 41.7521 104.758 42.0126 104.865 42.2274C104.975 42.4422 105.127 42.6062 105.322 42.7196C105.517 42.831 105.744 42.8866 106.005 42.8866C106.174 42.8866 106.328 42.8628 106.467 42.815C106.606 42.7653 106.727 42.6917 106.828 42.5943C106.93 42.4969 107.007 42.3765 107.061 42.2334L107.905 42.3855C107.837 42.6341 107.716 42.8518 107.541 43.0388C107.368 43.2237 107.15 43.3679 106.888 43.4713C106.627 43.5727 106.33 43.6234 105.996 43.6234ZM112.508 43.6324C112.217 43.6324 111.955 43.5787 111.72 43.4713C111.486 43.3619 111.3 43.2038 111.162 42.997C111.027 42.7902 110.96 42.5366 110.96 42.2363C110.96 41.9778 111.009 41.765 111.109 41.598C111.208 41.431 111.342 41.2987 111.511 41.2013C111.68 41.1038 111.869 41.0302 112.078 40.9805C112.287 40.9308 112.5 40.893 112.717 40.8672C112.991 40.8354 113.214 40.8095 113.385 40.7896C113.556 40.7677 113.68 40.7329 113.758 40.6852C113.835 40.6375 113.874 40.5599 113.874 40.4525V40.4317C113.874 40.1711 113.8 39.9693 113.653 39.8261C113.508 39.6829 113.291 39.6113 113.003 39.6113C112.703 39.6113 112.466 39.678 112.293 39.8112C112.122 39.9425 112.004 40.0886 111.938 40.2497L111.1 40.0588C111.199 39.7804 111.344 39.5557 111.535 39.3846C111.728 39.2116 111.95 39.0863 112.2 39.0088C112.451 38.9292 112.715 38.8895 112.991 38.8895C113.174 38.8895 113.368 38.9113 113.573 38.9551C113.779 38.9969 113.972 39.0744 114.151 39.1878C114.332 39.3011 114.48 39.4632 114.596 39.674C114.711 39.8828 114.769 40.1542 114.769 40.4883V43.5309H113.898V42.9045H113.862C113.804 43.0199 113.718 43.1332 113.602 43.2446C113.487 43.356 113.339 43.4484 113.158 43.522C112.977 43.5956 112.76 43.6324 112.508 43.6324ZM112.702 42.9165C112.948 42.9165 113.159 42.8677 113.334 42.7703C113.511 42.6729 113.645 42.5456 113.737 42.3885C113.83 42.2294 113.877 42.0594 113.877 41.8784V41.2878C113.845 41.3196 113.783 41.3494 113.692 41.3773C113.602 41.4031 113.5 41.426 113.385 41.4459C113.269 41.4638 113.157 41.4807 113.048 41.4966C112.938 41.5105 112.847 41.5224 112.773 41.5324C112.6 41.5542 112.442 41.591 112.299 41.6427C112.158 41.6944 112.044 41.769 111.959 41.8665C111.875 41.9619 111.834 42.0892 111.834 42.2483C111.834 42.469 111.915 42.6361 112.078 42.7494C112.241 42.8608 112.449 42.9165 112.702 42.9165ZM118.767 43.5876C118.604 43.5876 118.464 43.53 118.347 43.4146C118.23 43.2973 118.171 43.1561 118.171 42.991C118.171 42.828 118.23 42.6888 118.347 42.5734C118.464 42.4561 118.604 42.3974 118.767 42.3974C118.931 42.3974 119.071 42.4561 119.188 42.5734C119.305 42.6888 119.364 42.828 119.364 42.991C119.364 43.1004 119.336 43.2008 119.281 43.2923C119.227 43.3818 119.155 43.4534 119.066 43.5071C118.976 43.5608 118.877 43.5876 118.767 43.5876ZM121.146 43.5876C120.983 43.5876 120.843 43.53 120.726 43.4146C120.608 43.2973 120.55 43.1561 120.55 42.991C120.55 42.828 120.608 42.6888 120.726 42.5734C120.843 42.4561 120.983 42.3974 121.146 42.3974C121.309 42.3974 121.45 42.4561 121.567 42.5734C121.684 42.6888 121.743 42.828 121.743 42.991C121.743 43.1004 121.715 43.2008 121.659 43.2923C121.606 43.3818 121.534 43.4534 121.445 43.5071C121.355 43.5608 121.256 43.5876 121.146 43.5876ZM123.525 43.5876C123.362 43.5876 123.222 43.53 123.105 43.4146C122.987 43.2973 122.929 43.1561 122.929 42.991C122.929 42.828 122.987 42.6888 123.105 42.5734C123.222 42.4561 123.362 42.3974 123.525 42.3974C123.688 42.3974 123.829 42.4561 123.946 42.5734C124.063 42.6888 124.122 42.828 124.122 42.991C124.122 43.1004 124.094 43.2008 124.038 43.2923C123.985 43.3818 123.913 43.4534 123.824 43.5071C123.734 43.5608 123.635 43.5876 123.525 43.5876Z" fill="#1AFB6F"/>
<path d="M165.195 184.487L163.605 155.48C162.939 143.322 154.429 133.017 142.616 130.064C131.873 127.378 124.136 118.004 123.534 106.947L122.381 85.7319C121.806 80.7814 122.502 77.5882 120.208 73.9559C117.815 70.167 112.183 66.3109 106.677 66.2523C98.3884 66.1642 94.2222 68.6673 90.5875 72.571C87.0471 76.3733 85.5119 80.9493 85.179 84.1286L84.6075 88.9918L83.2395 100.634C83.191 101.047 83.5628 101.386 83.969 101.296C85.0597 101.053 86.4474 100.73 87.6478 100.415C87.9916 100.325 88.3419 100.543 88.4078 100.892L90.415 111.541C90.6211 112.634 91.6797 113.35 92.7713 113.135C95.027 112.69 97.5077 112.198 100.351 111.554M100.351 111.554C103.576 110.824 104.87 110.431 105.955 110.083M100.351 111.554C101.101 114.277 101.54 119.343 100.405 121.837C99.2241 124.431 89.1442 130.822 79.5245 135.722C72.8776 139.108 67.8291 145.314 66.837 152.708L59.9609 203.949" stroke="#1AFB6F" stroke-width="0.7"/>
<path d="M172.803 69.3672H136.204C135.292 69.3672 134.553 70.1063 134.553 71.0181C134.553 71.9299 135.292 72.669 136.204 72.669H172.803C173.715 72.669 174.454 71.9299 174.454 71.0181C174.454 70.1063 173.715 69.3672 172.803 69.3672Z" stroke="#1AFB6F" stroke-width="0.7"/>
<path d="M152.131 84.3164H136.188C135.276 84.3164 134.537 85.0555 134.537 85.9673C134.537 86.8791 135.276 87.6182 136.188 87.6182H152.131C153.043 87.6182 153.782 86.8791 153.782 85.9673C153.782 85.0555 153.043 84.3164 152.131 84.3164Z" stroke="#1AFB6F" stroke-width="0.7"/>
<path d="M165.674 99.543H136.251C135.339 99.543 134.6 100.282 134.6 101.194C134.6 102.106 135.339 102.845 136.251 102.845H165.674C166.586 102.845 167.325 102.106 167.325 101.194C167.325 100.282 166.586 99.543 165.674 99.543Z" stroke="#1AFB6F" stroke-width="0.7"/>
<path d="M172.834 72.9884C173.922 72.9884 174.805 72.1061 174.805 71.0176C174.805 69.9292 173.922 69.0469 172.834 69.0469C171.746 69.0469 170.863 69.9292 170.863 71.0176C170.863 72.1061 171.746 72.9884 172.834 72.9884Z" fill="#1AFB6F"/>
<path d="M152.162 87.9376C153.251 87.9376 154.133 87.0553 154.133 85.9669C154.133 84.8784 153.251 83.9961 152.162 83.9961C151.074 83.9961 150.191 84.8784 150.191 85.9669C150.191 87.0553 151.074 87.9376 152.162 87.9376Z" fill="#1AFB6F"/>
<path d="M165.705 103.164C166.794 103.164 167.676 102.282 167.676 101.193C167.676 100.105 166.794 99.2227 165.705 99.2227C164.617 99.2227 163.734 100.105 163.734 101.193C163.734 102.282 164.617 103.164 165.705 103.164Z" fill="#1AFB6F"/>
<path d="M169.159 39.4694C169.391 38.7618 169.314 37.977 168.941 37.3337C168.375 36.3431 167.23 35.8413 166.11 36.0729C165.621 35.5197 164.901 35.2109 164.155 35.2109C163.01 35.2109 162.006 35.9443 161.646 37.025C160.913 37.1794 160.282 37.6297 159.909 38.2858C159.343 39.2765 159.472 40.5116 160.231 41.3607C159.999 42.0812 160.089 42.8531 160.462 43.4964C161.028 44.4871 162.173 45.0017 163.293 44.7572C163.794 45.3105 164.502 45.6321 165.248 45.6321C166.393 45.6321 167.397 44.8988 167.757 43.818C168.49 43.6637 169.121 43.2134 169.494 42.5572C170.06 41.5665 169.931 40.3186 169.159 39.4694ZM165.248 44.9502C164.785 44.9502 164.348 44.7958 164 44.4999C164.013 44.4871 164.052 44.4742 164.065 44.4613L166.136 43.2648C166.239 43.2005 166.303 43.0976 166.303 42.9689V40.0484L167.178 40.5502C167.191 40.5502 167.191 40.563 167.191 40.5759V42.9946C167.204 44.0754 166.329 44.9502 165.248 44.9502ZM161.054 43.1619C160.822 42.7631 160.745 42.2999 160.822 41.8496C160.835 41.8625 160.861 41.8753 160.887 41.8882L162.958 43.0847C163.061 43.149 163.19 43.149 163.293 43.0847L165.827 41.618V42.6344C165.827 42.6473 165.827 42.6601 165.814 42.6601L163.717 43.8695C162.791 44.4099 161.594 44.0882 161.054 43.1619ZM160.514 38.6332C160.745 38.2343 161.106 37.9384 161.53 37.7712V40.2414C161.53 40.3572 161.594 40.473 161.697 40.5373L164.232 42.004L163.357 42.5057C163.344 42.5057 163.331 42.5186 163.331 42.5057L161.234 41.2964C160.282 40.756 159.973 39.5595 160.514 38.6332ZM167.718 40.3057L165.184 38.839L166.059 38.3373C166.072 38.3373 166.085 38.3244 166.085 38.3373L168.182 39.5466C169.121 40.087 169.43 41.2835 168.889 42.2098C168.658 42.6087 168.297 42.9046 167.873 43.059V40.6016C167.886 40.4858 167.821 40.37 167.718 40.3057ZM168.58 38.9934C168.568 38.9806 168.542 38.9677 168.516 38.9548L166.445 37.7583C166.342 37.694 166.213 37.694 166.11 37.7583L163.576 39.225V38.2086C163.576 38.1957 163.576 38.1829 163.589 38.1829L165.686 36.9735C166.625 36.4332 167.809 36.7548 168.349 37.694C168.58 38.08 168.658 38.5431 168.58 38.9934ZM163.1 40.7946L162.225 40.2928C162.212 40.2928 162.212 40.28 162.212 40.2671V37.8484C162.212 36.7677 163.087 35.8928 164.168 35.8928C164.631 35.8928 165.068 36.0472 165.416 36.3431C165.403 36.356 165.377 36.3688 165.351 36.3817L163.28 37.5782C163.177 37.6425 163.113 37.7454 163.113 37.8741V40.7946H163.1ZM163.576 39.7654L164.708 39.1092L165.84 39.7654V41.0648L164.708 41.7209L163.576 41.0648V39.7654Z" fill="#1AFB6F"/>
</g>
</svg>
