<svg width="138" height="139" viewBox="0 0 138 139" fill="none" xmlns="http://www.w3.org/2000/svg">
<mask id="mask0_12215_9943" style="mask-type:luminance" maskUnits="userSpaceOnUse" x="0" y="0" width="138" height="139">
<path d="M138 0.753906H0V138.754H138V0.753906Z" fill="white"/>
</mask>
<g mask="url(#mask0_12215_9943)">
<path d="M47.1094 98.4219C46.8958 98.4219 46.7122 98.3464 46.5586 98.1953C46.4049 98.0417 46.3281 97.8568 46.3281 97.6406C46.3281 97.4271 46.4049 97.2448 46.5586 97.0938C46.7122 96.9401 46.8958 96.8633 47.1094 96.8633C47.3229 96.8633 47.5065 96.9401 47.6602 97.0938C47.8138 97.2448 47.8906 97.4271 47.8906 97.6406C47.8906 97.7839 47.8542 97.9154 47.7813 98.0352C47.7109 98.1524 47.6172 98.2461 47.5 98.3164C47.3828 98.3867 47.2526 98.4219 47.1094 98.4219ZM52.2559 92.3477V93.2852H48.9785V92.3477H52.2559ZM49.8574 90.9102H51.0254V96.5859C51.0254 96.8125 51.0592 96.9831 51.127 97.0977C51.1947 97.2096 51.2819 97.2865 51.3887 97.3281C51.498 97.3672 51.6165 97.3867 51.7441 97.3867C51.8379 97.3867 51.9199 97.3802 51.9902 97.3672C52.0605 97.3542 52.1152 97.3438 52.1543 97.3359L52.3652 98.3008C52.2975 98.3268 52.2012 98.3529 52.0762 98.3789C51.9512 98.4076 51.7949 98.4232 51.6074 98.4258C51.3001 98.431 51.0137 98.3763 50.748 98.2617C50.4824 98.1471 50.2676 97.9701 50.1035 97.7305C49.9395 97.4909 49.8574 97.1901 49.8574 96.8281V90.9102ZM54.8447 94.7852V98.3477H53.6768V90.3477H54.8291V93.3242H54.9033C55.0439 93.0013 55.2588 92.7448 55.5479 92.5547C55.8369 92.3646 56.2145 92.2695 56.6807 92.2695C57.0921 92.2695 57.4515 92.3542 57.7588 92.5234C58.0687 92.6927 58.3083 92.9453 58.4775 93.2813C58.6494 93.6146 58.7354 94.0313 58.7354 94.5313V98.3477H57.5674V94.6719C57.5674 94.2318 57.4541 93.8906 57.2275 93.6484C57.001 93.4037 56.6859 93.2813 56.2822 93.2813C56.0062 93.2813 55.7588 93.3399 55.54 93.457C55.3239 93.5742 55.1533 93.7461 55.0283 93.9727C54.9059 94.1966 54.8447 94.4675 54.8447 94.7852ZM62.8799 98.4688C62.2887 98.4688 61.7796 98.3425 61.3525 98.0899C60.9281 97.8346 60.5999 97.4766 60.3682 97.0156C60.139 96.5521 60.0244 96.0091 60.0244 95.3867C60.0244 94.7721 60.139 94.2305 60.3682 93.7617C60.5999 93.293 60.9229 92.9271 61.3369 92.6641C61.7536 92.4011 62.2406 92.2695 62.7979 92.2695C63.1364 92.2695 63.4645 92.3255 63.7822 92.4375C64.0999 92.5495 64.3851 92.7253 64.6377 92.9649C64.8903 93.2044 65.0895 93.5156 65.2354 93.8984C65.3812 94.2787 65.4541 94.7409 65.4541 95.2852V95.6992H60.6846V94.8242H64.3096C64.3096 94.5169 64.2471 94.2448 64.1221 94.0078C63.9971 93.7682 63.8213 93.5794 63.5947 93.4414C63.3708 93.3034 63.1077 93.2344 62.8057 93.2344C62.4775 93.2344 62.1911 93.3151 61.9463 93.4766C61.7041 93.6354 61.5166 93.8438 61.3838 94.1016C61.2536 94.3568 61.1885 94.6341 61.1885 94.9336V95.6172C61.1885 96.0182 61.2588 96.3594 61.3994 96.6406C61.5426 96.9219 61.7419 97.1367 61.9971 97.2852C62.2523 97.431 62.5505 97.5039 62.8916 97.5039C63.113 97.5039 63.3148 97.4727 63.4971 97.4102C63.6794 97.3451 63.8369 97.2487 63.9697 97.1211C64.1025 96.9935 64.2041 96.8359 64.2744 96.6484L65.3799 96.8477C65.2913 97.1732 65.1325 97.4583 64.9033 97.7031C64.6768 97.9453 64.3916 98.1341 64.0479 98.2695C63.7067 98.4024 63.3174 98.4688 62.8799 98.4688ZM67.918 94.7852V98.3477H66.75V92.3477H67.8711V93.3242H67.9453C68.0833 93.0065 68.2995 92.7513 68.5938 92.5586C68.8906 92.3659 69.2643 92.2695 69.7148 92.2695C70.1237 92.2695 70.4818 92.3555 70.7891 92.5274C71.0964 92.6966 71.3346 92.9492 71.5039 93.2852C71.6732 93.6211 71.7578 94.0365 71.7578 94.5313V98.3477H70.5898V94.6719C70.5898 94.237 70.4766 93.8971 70.25 93.6524C70.0234 93.405 69.7122 93.2813 69.3164 93.2813C69.0456 93.2813 68.8047 93.3399 68.5938 93.457C68.3854 93.5742 68.2201 93.7461 68.0977 93.9727C67.9779 94.1966 67.918 94.4675 67.918 94.7852ZM73.6641 95.0274C73.6641 94.0482 73.793 93.1471 74.0508 92.3242C74.3086 91.5013 74.6849 90.7422 75.1797 90.0469H76.25C76.0573 90.3047 75.8776 90.6211 75.7109 90.9961C75.5443 91.3711 75.3984 91.7826 75.2734 92.2305C75.1484 92.6758 75.0508 93.138 74.9805 93.6172C74.9102 94.0938 74.875 94.5638 74.875 95.0274C74.875 95.6471 74.9362 96.2747 75.0586 96.9102C75.181 97.5456 75.3464 98.1354 75.5547 98.6797C75.763 99.224 75.9948 99.668 76.25 100.011H75.1797C74.6849 99.3164 74.3086 98.5573 74.0508 97.7344C73.793 96.9115 73.6641 96.0091 73.6641 95.0274ZM79.7275 95.0274C79.7275 96.0091 79.5986 96.9115 79.3408 97.7344C79.083 98.5573 78.7067 99.3164 78.2119 100.011H77.1416C77.3343 99.7539 77.514 99.4375 77.6807 99.0625C77.8473 98.6875 77.9932 98.2774 78.1182 97.832C78.2432 97.3841 78.3408 96.9206 78.4111 96.4414C78.4814 95.9622 78.5166 95.4909 78.5166 95.0274C78.5166 94.4102 78.4554 93.7839 78.333 93.1484C78.2106 92.513 78.0452 91.9232 77.8369 91.3789C77.6286 90.8346 77.3968 90.3906 77.1416 90.0469H78.2119C78.7067 90.7422 79.083 91.5013 79.3408 92.3242C79.5986 93.1471 79.7275 94.0482 79.7275 95.0274Z" fill="#343434"/>
<path d="M126.641 46.3994C126.641 46.613 126.565 46.7966 126.414 46.9502C126.26 47.1039 126.076 47.1807 125.859 47.1807C125.646 47.1807 125.464 47.1039 125.312 46.9502C125.159 46.7966 125.082 46.613 125.082 46.3994C125.082 46.1859 125.159 46.0023 125.312 45.8487C125.464 45.695 125.646 45.6182 125.859 45.6182C126.003 45.6182 126.134 45.6547 126.254 45.7276C126.371 45.7979 126.465 45.8916 126.535 46.0088C126.605 46.126 126.641 46.2562 126.641 46.3994ZM126.699 42.3076C126.699 42.6879 126.629 43.0316 126.488 43.3389C126.345 43.6462 126.138 43.8897 125.867 44.0694C125.596 44.2465 125.264 44.335 124.871 44.335C124.533 44.335 124.254 44.2699 124.035 44.1397C123.816 44.0095 123.643 43.8337 123.516 43.6123C123.388 43.391 123.292 43.1436 123.227 42.8701C123.161 42.5967 123.112 42.3181 123.078 42.0342C123.036 41.6748 123.003 41.3832 122.977 41.1592C122.948 40.9353 122.902 40.7725 122.84 40.6709C122.777 40.5694 122.676 40.5186 122.535 40.5186H122.508C122.167 40.5186 121.902 40.6149 121.715 40.8076C121.527 40.9978 121.434 41.2816 121.434 41.6592C121.434 42.0524 121.521 42.3623 121.695 42.5889C121.867 42.8129 122.059 42.9678 122.27 43.0537L122.02 44.1514C121.655 44.0212 121.361 43.8311 121.137 43.5811C120.91 43.3285 120.746 43.0381 120.645 42.71C120.54 42.3819 120.488 42.0368 120.488 41.6748C120.488 41.4353 120.517 41.1813 120.574 40.9131C120.629 40.6423 120.73 40.3897 120.879 40.1553C121.027 39.9183 121.24 39.7243 121.516 39.5733C121.789 39.4222 122.145 39.3467 122.582 39.3467H126.566V40.4873H125.746V40.5342C125.897 40.6097 126.046 40.723 126.191 40.8741C126.337 41.0251 126.458 41.2191 126.555 41.4561C126.651 41.6931 126.699 41.9769 126.699 42.3076ZM125.762 42.0537C125.762 41.7308 125.698 41.4548 125.57 41.2256C125.443 40.9938 125.276 40.8181 125.07 40.6983C124.862 40.5759 124.639 40.5147 124.402 40.5147H123.629C123.671 40.5563 123.71 40.6371 123.746 40.7569C123.78 40.8741 123.81 41.0082 123.836 41.1592C123.859 41.3103 123.882 41.4574 123.902 41.6006C123.921 41.7438 123.936 41.8636 123.949 41.96C123.978 42.1866 124.026 42.3936 124.094 42.5811C124.161 42.766 124.259 42.9144 124.387 43.0264C124.512 43.1358 124.678 43.1905 124.887 43.1905C125.176 43.1905 125.395 43.0837 125.543 42.8701C125.689 42.6566 125.762 42.3845 125.762 42.0537ZM120.566 34.9356H121.504V38.3262H120.566V34.9356ZM126.566 37.3965H119.871C119.496 37.3965 119.185 37.3145 118.937 37.1504C118.687 36.9864 118.501 36.7689 118.379 36.4981C118.254 36.2272 118.191 35.933 118.191 35.6153C118.191 35.3809 118.211 35.1804 118.25 35.0137C118.286 34.847 118.32 34.7233 118.352 34.6426L119.297 34.916C119.281 34.9707 119.263 35.041 119.242 35.127C119.219 35.2129 119.207 35.3171 119.207 35.4395C119.207 35.7233 119.277 35.9265 119.418 36.0489C119.559 36.1687 119.762 36.2285 120.027 36.2285H126.566V37.3965ZM120.566 30.9297H121.504V34.2071H120.566V30.9297ZM119.129 33.3282V32.1602H124.805C125.031 32.1602 125.202 32.1263 125.316 32.0586C125.428 31.9909 125.505 31.9037 125.547 31.7969C125.586 31.6875 125.605 31.569 125.605 31.4414C125.605 31.3477 125.599 31.2657 125.586 31.1953C125.573 31.125 125.562 31.0703 125.555 31.0313L126.52 30.8203C126.546 30.8881 126.572 30.9844 126.598 31.1094C126.626 31.2344 126.642 31.3907 126.645 31.5782C126.65 31.8854 126.595 32.1719 126.48 32.4375C126.366 32.7032 126.189 32.918 125.949 33.0821C125.71 33.2461 125.409 33.3282 125.047 33.3282H119.129ZM126.687 27.1162C126.687 27.7074 126.561 28.2165 126.309 28.6436C126.053 29.0681 125.695 29.3962 125.234 29.628C124.771 29.8571 124.228 29.9717 123.605 29.9717C122.991 29.9717 122.449 29.8571 121.98 29.628C121.512 29.3962 121.146 29.0733 120.883 28.6592C120.62 28.2425 120.488 27.7556 120.488 27.1983C120.488 26.8597 120.544 26.5316 120.656 26.2139C120.768 25.8962 120.944 25.611 121.184 25.3584C121.423 25.1058 121.734 24.9066 122.117 24.7608C122.497 24.6149 122.96 24.542 123.504 24.542H123.918V29.3116H123.043V25.6866C122.736 25.6866 122.464 25.7491 122.227 25.8741C121.987 25.9991 121.798 26.1748 121.66 26.4014C121.522 26.6254 121.453 26.8884 121.453 27.1905C121.453 27.5186 121.534 27.805 121.695 28.0498C121.854 28.292 122.062 28.4795 122.32 28.6123C122.576 28.7425 122.853 28.8076 123.152 28.8076H123.836C124.237 28.8076 124.578 28.7373 124.859 28.5967C125.141 28.4535 125.355 28.2543 125.504 27.9991C125.65 27.7438 125.723 27.4457 125.723 27.1045C125.723 26.8832 125.691 26.6813 125.629 26.4991C125.564 26.3168 125.467 26.1592 125.34 26.0264C125.212 25.8936 125.055 25.792 124.867 25.7217L125.066 24.6162C125.392 24.7048 125.677 24.8636 125.922 25.0928C126.164 25.3194 126.353 25.6045 126.488 25.9483C126.621 26.2894 126.687 26.6787 126.687 27.1162ZM126.566 23.2461H120.566V22.1172H121.52V22.0547C121.197 21.9453 120.943 21.7526 120.758 21.4766C120.57 21.1979 120.477 20.8828 120.477 20.5313C120.477 20.4584 120.479 20.3724 120.484 20.2735C120.49 20.1719 120.496 20.0925 120.504 20.0352H121.621C121.608 20.0821 121.594 20.1654 121.578 20.2852C121.56 20.405 121.551 20.5248 121.551 20.6446C121.551 20.9206 121.609 21.1667 121.727 21.3828C121.841 21.5964 122.001 21.7657 122.207 21.8907C122.41 22.0157 122.642 22.0782 122.902 22.0782H126.566V23.2461ZM123.246 18.6846C122.267 18.6846 121.366 18.5557 120.543 18.2979C119.72 18.0401 118.961 17.6638 118.266 17.169V16.0987C118.523 16.2914 118.84 16.4711 119.215 16.6377C119.59 16.8044 120.001 16.9502 120.449 17.0752C120.895 17.2002 121.357 17.2979 121.836 17.3682C122.312 17.4385 122.783 17.4737 123.246 17.4737C123.866 17.4737 124.493 17.4125 125.129 17.2901C125.764 17.1677 126.354 17.0023 126.898 16.794C127.443 16.5856 127.887 16.3539 128.23 16.0987V17.169C127.535 17.6638 126.776 18.0401 125.953 18.2979C125.13 18.5557 124.228 18.6846 123.246 18.6846ZM123.246 12.6211C124.228 12.6211 125.13 12.75 125.953 13.0078C126.776 13.2657 127.535 13.642 128.23 14.1368V15.2071C127.973 15.0144 127.656 14.8347 127.281 14.668C126.906 14.5013 126.496 14.3555 126.051 14.2305C125.603 14.1055 125.139 14.0078 124.66 13.9375C124.181 13.8672 123.71 13.8321 123.246 13.8321C122.629 13.8321 122.003 13.8933 121.367 14.0157C120.732 14.1381 120.142 14.3034 119.598 14.5118C119.053 14.7201 118.609 14.9519 118.266 15.2071V14.1368C118.961 13.642 119.72 13.2657 120.543 13.0078C121.366 12.75 122.267 12.6211 123.246 12.6211Z" fill="#343434"/>
<path d="M101.877 106.929V79.046H74.7141C69.1913 79.046 64.7141 74.5688 64.7141 69.046V47.4449L55.6782 56.4279C55.0919 57.0108 54.1446 57.0094 53.56 56.4248L51.4374 54.3022C50.8509 53.7157 50.8517 52.7646 51.4392 52.1791L67.007 36.6643C67.3977 36.2749 68.03 36.2754 68.42 36.6655L83.5346 51.78C84.1204 52.3658 84.1204 53.3156 83.5346 53.9013L81.4132 56.0227C80.8275 56.6085 79.8777 56.6085 79.2919 56.0227L70.7141 47.4449V69.046C70.7141 71.2551 72.505 73.046 74.7141 73.046H101.877V-11.9414M107.877 106.737V79.046H150.927C152.584 79.046 153.927 77.7029 153.927 76.046C153.927 74.3891 152.584 73.046 150.927 73.046H107.877V-10.9783" stroke="#343434" stroke-linecap="round"/>
<mask id="mask1_12215_9943" style="mask-type:luminance" maskUnits="userSpaceOnUse" x="46" y="106" width="128" height="41">
<path d="M169 106.754H51C48.2386 106.754 46 108.992 46 111.754V141.754C46 144.515 48.2386 146.754 51 146.754H169C171.761 146.754 174 144.515 174 141.754V111.754C174 108.992 171.761 106.754 169 106.754Z" fill="white"/>
</mask>
<g mask="url(#mask1_12215_9943)">
<mask id="mask2_12215_9943" style="mask-type:luminance" maskUnits="userSpaceOnUse" x="46" y="106" width="40" height="41">
<path d="M46 106.754H86V146.754H46V106.754Z" fill="white"/>
</mask>
<g mask="url(#mask2_12215_9943)">
<path d="M85.3008 106.754V146.754H86.7008V106.754H85.3008Z" fill="#343434"/>
</g>
<path d="M67.6441 120.503L67.6624 125.753L70.1653 125.754C70.8375 125.754 71.233 126.433 70.8503 126.931L65.8511 133.429C65.386 134.033 64.3328 133.737 64.3328 133.002L64.3317 127.758H61.8346C61.1634 127.758 60.7677 127.08 61.1485 126.583L66.1247 120.08C66.5879 119.474 67.6415 119.768 67.6441 120.503Z" fill="#343434"/>
</g>
<path d="M169 107.105H50.9996C48.4315 107.105 46.3496 109.187 46.3496 111.755V141.755C46.3496 144.324 48.4315 146.405 50.9996 146.405H169C171.568 146.405 173.65 144.324 173.65 141.755V111.755C173.65 109.187 171.568 107.105 169 107.105Z" stroke="#343434" stroke-width="0.7"/>
<path d="M63.9991 19.7891C63.9133 19.9013 63.9153 20.0231 63.9754 20.1261C64.0378 20.2329 64.1694 20.3252 64.3563 20.3253L66.5412 20.3249H66.8475V20.6311L66.8485 25.2197C66.8485 25.3708 66.9525 25.4994 67.1368 25.5513C67.3215 25.6032 67.5149 25.5534 67.6279 25.4065L72.0023 19.7208C72.0886 19.6086 72.0868 19.4866 72.0268 19.3834C71.9645 19.2764 71.8327 19.1839 71.6455 19.1839L69.4555 19.183L69.1504 19.1829L69.1493 18.8779L69.1333 14.2841C69.1328 14.133 69.0283 14.0046 68.8438 13.9532C68.6589 13.9017 68.4658 13.9519 68.3533 14.099L63.9991 19.7891ZM63.9991 19.7891L63.7559 19.603" stroke="#343434" stroke-width="0.6125"/>
</g>
</svg>
