<svg width="204" height="151" viewBox="0 0 204 151" fill="none" xmlns="http://www.w3.org/2000/svg">
<mask id="mask0_12215_8002" style="mask-type:luminance" maskUnits="userSpaceOnUse" x="0" y="0" width="204" height="151">
<path d="M204 0H0V151H204V0Z" fill="white"/>
</mask>
<g mask="url(#mask0_12215_8002)">
<path d="M124.928 147.372C153.147 147.372 176.024 138.491 176.024 127.535V136.988C176.024 147.943 153.147 156.824 124.928 156.824C96.7084 156.824 73.832 147.943 73.832 136.988V127.535C73.832 138.491 96.7084 147.372 124.928 147.372Z" stroke="#FF4931" stroke-width="0.87446" stroke-linejoin="round" stroke-dasharray="1.4 1.4"/>
<path d="M124.928 164.668C153.147 164.668 176.024 155.787 176.024 144.832V154.284C176.024 165.24 153.147 174.121 124.928 174.121C96.7084 174.121 73.832 165.24 73.832 154.284V144.832C73.832 155.787 96.7084 164.668 124.928 164.668Z" stroke="#FF4931" stroke-width="0.87446" stroke-linejoin="round" stroke-dasharray="1.4 1.4"/>
<path d="M139.732 105.259C139.563 105.333 139.359 105.37 139.118 105.37C138.877 105.37 138.672 105.333 138.504 105.259C138.335 105.185 138.251 105.094 138.251 104.988C138.251 104.882 138.335 104.791 138.504 104.717C138.672 104.643 138.877 104.606 139.118 104.606C139.359 104.606 139.563 104.643 139.732 104.717C139.843 104.766 139.917 104.824 139.953 104.89C139.992 104.955 139.993 105.021 139.957 105.087C139.92 105.152 139.845 105.209 139.732 105.259ZM144.042 103.405C143.537 103.628 142.99 103.771 142.401 103.834C141.812 103.895 141.217 103.881 140.617 103.791C140.016 103.698 139.448 103.534 138.911 103.297C138.374 103.06 137.999 102.808 137.785 102.541C137.572 102.272 137.526 102.009 137.649 101.752C137.772 101.493 138.07 101.26 138.543 101.051C138.816 100.93 139.131 100.832 139.488 100.754C139.845 100.677 140.235 100.635 140.658 100.629C141.079 100.622 141.521 100.664 141.985 100.754C142.449 100.845 142.925 100.998 143.414 101.213L143.755 101.364L139.716 103.146L139.02 102.839L142.241 101.418C141.945 101.288 141.622 101.197 141.272 101.147C140.924 101.096 140.575 101.089 140.225 101.125C139.877 101.16 139.557 101.242 139.266 101.37C138.945 101.512 138.747 101.669 138.672 101.843C138.597 102.014 138.623 102.183 138.751 102.35C138.878 102.517 139.086 102.664 139.375 102.791L139.839 102.996C140.235 103.17 140.638 103.288 141.05 103.35C141.462 103.409 141.862 103.416 142.251 103.371C142.637 103.324 142.993 103.23 143.319 103.086C143.53 102.993 143.692 102.895 143.803 102.794C143.914 102.691 143.972 102.585 143.977 102.476C143.979 102.367 143.924 102.257 143.81 102.147L144.806 101.9C144.988 102.052 145.082 102.216 145.089 102.389C145.094 102.562 145.009 102.735 144.837 102.91C144.662 103.084 144.397 103.249 144.042 103.405ZM147.327 101.859L142.087 99.5471L142.865 99.2038L143.684 99.5651L143.752 99.535C143.581 99.3634 143.54 99.1898 143.629 99.0142C143.715 98.8376 143.929 98.674 144.27 98.5234C144.616 98.3709 144.982 98.2786 145.369 98.2465C145.755 98.2123 146.153 98.2284 146.563 98.2946L146.617 98.2705C146.481 98.0919 146.467 97.9083 146.576 97.7196C146.683 97.5299 146.924 97.3523 147.3 97.1867C147.768 96.98 148.298 96.8756 148.889 96.8736C149.478 96.8706 150.081 97.0051 150.697 97.277L154.204 98.8245L153.399 99.1798L149.892 97.6323C149.506 97.4617 149.124 97.3864 148.746 97.4065C148.369 97.4266 148.036 97.4998 147.75 97.6263C147.382 97.7888 147.208 97.964 147.228 98.1516C147.246 98.3383 147.425 98.5064 147.764 98.6559L151.175 100.161L150.356 100.523L146.767 98.9389C146.47 98.8074 146.133 98.7442 145.758 98.7492C145.38 98.7533 145.039 98.8225 144.734 98.957C144.525 99.0493 144.385 99.1602 144.315 99.2897C144.246 99.4181 144.256 99.5506 144.342 99.6871C144.428 99.8215 144.6 99.9455 144.857 100.059L148.132 101.504L147.327 101.859ZM155.785 98.1268L148.799 95.0439L149.604 94.6886L152.183 95.8266L152.251 95.7965C152.219 95.7303 152.185 95.643 152.149 95.5346C152.112 95.4242 152.137 95.3008 152.224 95.1643C152.31 95.0258 152.524 94.8813 152.865 94.7308C153.306 94.5361 153.806 94.4131 154.363 94.3619C154.92 94.3108 155.495 94.3328 156.089 94.4282C156.682 94.5235 157.254 94.6926 157.805 94.9355C158.36 95.1803 158.746 95.4342 158.965 95.6972C159.181 95.9591 159.233 96.213 159.122 96.4589C159.008 96.7037 158.733 96.9225 158.296 97.1152C157.959 97.2637 157.634 97.3581 157.32 97.3982C157.004 97.4373 156.72 97.4494 156.468 97.4343C156.213 97.4183 156.008 97.4022 155.854 97.3862L155.758 97.4283L156.563 97.7836L155.785 98.1268ZM153.957 96.6215C154.353 96.7961 154.76 96.9245 155.178 97.0068C155.594 97.0881 155.999 97.1172 156.393 97.0941C156.784 97.07 157.141 96.9867 157.464 96.8442C157.8 96.6957 157.992 96.5326 158.04 96.355C158.088 96.1754 158.017 95.9937 157.829 95.8101C157.64 95.6244 157.359 95.4493 156.986 95.2847C156.618 95.1221 156.229 95.0007 155.819 94.9204C155.41 94.8381 155.005 94.809 154.605 94.8331C154.205 94.8552 153.834 94.9415 153.493 95.092C153.165 95.2365 152.973 95.3946 152.916 95.5662C152.857 95.7368 152.919 95.9124 153.101 96.0931C153.28 96.2727 153.566 96.4488 153.957 96.6215ZM163.949 94.6209C163.444 94.8437 162.897 94.9867 162.308 95.0499C161.719 95.1111 161.124 95.0965 160.524 95.0062C159.923 94.9139 159.355 94.7493 158.818 94.5125C158.281 94.2756 157.906 94.0237 157.692 93.7568C157.478 93.4879 157.433 93.2249 157.556 92.968C157.679 92.7091 157.977 92.4753 158.45 92.2665C158.722 92.1461 159.037 92.0472 159.394 91.97C159.752 91.8927 160.142 91.8511 160.565 91.845C160.985 91.838 161.428 91.8797 161.892 91.97C162.356 92.0603 162.832 92.2133 163.321 92.4291L163.662 92.5796L159.623 94.3619L158.927 94.0549L162.147 92.6338C161.852 92.5034 161.529 92.413 161.179 92.3629C160.831 92.3117 160.482 92.3042 160.131 92.3403C159.783 92.3754 159.464 92.4572 159.173 92.5857C158.852 92.7272 158.654 92.8847 158.579 93.0583C158.504 93.2299 158.53 93.399 158.658 93.5656C158.785 93.7322 158.993 93.8792 159.282 94.0067L159.746 94.2114C160.142 94.386 160.545 94.5039 160.957 94.5652C161.368 94.6244 161.769 94.6314 162.158 94.5862C162.544 94.5401 162.9 94.4452 163.225 94.3017C163.437 94.2084 163.598 94.1111 163.71 94.0097C163.821 93.9063 163.879 93.8005 163.884 93.6921C163.886 93.5827 163.83 93.4728 163.717 93.3624L164.713 93.1155C164.895 93.2681 164.989 93.4311 164.996 93.6048C165 93.7774 164.916 93.951 164.743 94.1256C164.568 94.2992 164.303 94.4643 163.949 94.6209ZM169.321 92.25C168.885 92.4426 168.389 92.5641 167.834 92.6143C167.277 92.6634 166.702 92.6403 166.108 92.545C165.512 92.4487 164.937 92.2781 164.382 92.0332C163.831 91.7903 163.448 91.5379 163.232 91.276C163.016 91.0141 162.966 90.7602 163.082 90.5143C163.198 90.2684 163.477 90.0482 163.918 89.8535C164.259 89.7029 164.585 89.6091 164.897 89.572C165.209 89.5328 165.488 89.5218 165.736 89.5389C165.984 89.5539 166.183 89.5685 166.333 89.5825L166.401 89.5524L163.822 88.4144L164.627 88.0591L171.614 91.142L170.836 91.4853L170.031 91.13L169.935 91.1721C169.972 91.2404 170.008 91.3307 170.045 91.4431C170.079 91.5545 170.051 91.6799 169.963 91.8194C169.872 91.9579 169.658 92.1014 169.321 92.25ZM168.707 91.8827C169.03 91.7402 169.219 91.5826 169.274 91.41C169.326 91.2364 169.26 91.0577 169.076 90.8741C168.889 90.6894 168.598 90.5098 168.203 90.3352C167.811 90.1626 167.412 90.0366 167.005 89.9573C166.596 89.8771 166.198 89.85 165.811 89.8761C165.422 89.9011 165.064 89.9859 164.737 90.1305C164.395 90.281 164.199 90.4451 164.146 90.6227C164.094 90.7983 164.16 90.977 164.344 91.1586C164.529 91.3382 164.805 91.5093 165.173 91.6719C165.546 91.8365 165.942 91.9609 166.36 92.0452C166.779 92.1275 167.19 92.1586 167.595 92.1386C168 92.1165 168.371 92.0312 168.707 91.8827ZM170.539 89.015C169.68 88.6357 169.001 88.2378 168.503 87.8213C168.005 87.4028 167.66 86.9678 167.469 86.5162L168.179 86.203C168.24 86.3747 168.364 86.5648 168.55 86.7736C168.737 86.9803 168.973 87.1941 169.26 87.4148C169.544 87.6346 169.865 87.8504 170.222 88.0621C170.581 88.2729 170.965 88.4681 171.372 88.6477C171.913 88.8866 172.514 89.1058 173.176 89.3055C173.838 89.5052 174.496 89.6713 175.151 89.8038C175.806 89.9363 176.393 90.0206 176.912 90.0567L176.202 90.3698C175.179 90.2855 174.194 90.134 173.248 89.9152C172.302 89.6944 171.399 89.3943 170.539 89.015ZM175.452 86.847C176.312 87.2263 176.991 87.6252 177.489 88.0437C177.987 88.4602 178.332 88.8942 178.523 89.3458L177.813 89.6589C177.752 89.4873 177.627 89.2976 177.438 89.0899C177.254 88.8822 177.019 88.6684 176.735 88.4486C176.449 88.2278 176.126 88.0121 175.766 87.8013C175.407 87.5886 175.025 87.3929 174.62 87.2143C174.079 86.9754 173.477 86.7561 172.815 86.5564C172.154 86.3567 171.495 86.1906 170.84 86.0582C170.185 85.9257 169.599 85.8414 169.08 85.8053L169.79 85.4922C170.813 85.5765 171.798 85.729 172.744 85.9498C173.69 86.1685 174.593 86.4676 175.452 86.847Z" fill="#FF4931"/>
<path d="M81.9425 45.7587C81.7743 45.8329 81.5696 45.8701 81.3285 45.8701C81.0874 45.8701 80.8828 45.8329 80.7145 45.7587C80.5462 45.6844 80.462 45.5941 80.462 45.4877C80.462 45.3813 80.5462 45.291 80.7145 45.2168C80.8828 45.1425 81.0874 45.1054 81.3285 45.1054C81.5696 45.1054 81.7743 45.1425 81.9425 45.2168C82.054 45.2659 82.1279 45.3236 82.1643 45.3899C82.2029 45.4551 82.2041 45.5208 82.1677 45.5871C82.1313 45.6513 82.0563 45.7085 81.9425 45.7587ZM89.4867 44.1156L86.7167 42.8933L86.6485 42.9234C86.6849 42.9916 86.7212 43.0819 86.7576 43.1943C86.7917 43.3057 86.7645 43.4312 86.6758 43.5707C86.5848 43.7092 86.371 43.8527 86.0344 44.0012C85.5978 44.1939 85.102 44.3153 84.5471 44.3655C83.9899 44.4147 83.4145 44.3916 82.821 44.2962C82.2251 44.1999 81.6497 44.0293 81.0948 43.7844C80.5445 43.5416 80.1613 43.2892 79.9452 43.0273C79.7292 42.7653 79.6791 42.5114 79.7951 42.2656C79.9111 42.0197 80.1897 41.7994 80.6309 41.6047C80.972 41.4542 81.2984 41.3603 81.6099 41.3232C81.9215 41.2841 82.2012 41.273 82.4491 41.2901C82.697 41.3052 82.896 41.3197 83.0461 41.3338L83.1416 41.2916L82.3093 40.9243L83.087 40.5811L90.2918 43.7604L89.4867 44.1156ZM85.4204 43.6339C85.7433 43.4914 85.9321 43.3338 85.9867 43.1612C86.039 42.9876 85.973 42.809 85.7888 42.6253C85.6023 42.4407 85.3112 42.261 84.9155 42.0864C84.5244 41.9138 84.1252 41.7879 83.7181 41.7086C83.3088 41.6283 82.9108 41.6012 82.5242 41.6273C82.1353 41.6524 81.7771 41.7372 81.4496 41.8817C81.1085 42.0322 80.9118 42.1963 80.8595 42.3739C80.8071 42.5496 80.8731 42.7282 81.0573 42.9098C81.2415 43.0895 81.5178 43.2606 81.8863 43.4232C82.2592 43.5877 82.6549 43.7122 83.0734 43.7965C83.4919 43.8788 83.9035 43.9099 84.3083 43.8898C84.7131 43.8677 85.0838 43.7824 85.4204 43.6339ZM90.9604 39.8405L87.8629 38.4736L88.668 38.1184L93.9078 40.4306L93.1027 40.7858L92.2157 40.3944L92.1612 40.4185C92.3044 40.5901 92.3397 40.7743 92.2669 40.971C92.1919 41.1667 91.9565 41.3518 91.5608 41.5264C91.2333 41.6709 90.8705 41.7678 90.4726 41.817C90.0723 41.8651 89.6538 41.8571 89.2172 41.7929C88.7783 41.7277 88.3359 41.5967 87.8902 41.4L84.5607 39.9308L85.3658 39.5755L88.6407 41.0206C89.0227 41.1892 89.4344 41.2766 89.8756 41.2826C90.3191 41.2876 90.7079 41.2163 91.0423 41.0688C91.2424 40.9805 91.3948 40.8681 91.4994 40.7316C91.6063 40.5941 91.6245 40.4476 91.554 40.2921C91.4857 40.1355 91.2879 39.985 90.9604 39.8405ZM97.6884 38.8586C97.1835 39.0814 96.6365 39.2244 96.0475 39.2876C95.4585 39.3488 94.8638 39.3343 94.2634 39.244C93.663 39.1517 93.0944 38.9871 92.5577 38.7502C92.021 38.5134 91.6458 38.2615 91.432 37.9946C91.2182 37.7256 91.1727 37.4627 91.2955 37.2058C91.4184 36.9468 91.7163 36.713 92.1893 36.5043C92.4622 36.3838 92.7772 36.285 93.1342 36.2077C93.4913 36.1304 93.8813 36.0888 94.3043 36.0828C94.7251 36.0758 95.1674 36.1174 95.6313 36.2077C96.0953 36.298 96.5717 36.4511 97.0607 36.6668L97.4018 36.8174L93.3628 38.5997L92.6669 38.2926L95.8872 36.8716C95.5915 36.7411 95.2686 36.6508 94.9184 36.6006C94.5704 36.5494 94.2213 36.5419 93.8711 36.578C93.5231 36.6132 93.2036 36.6949 92.9125 36.8234C92.5918 36.9649 92.394 37.1225 92.3189 37.2961C92.2439 37.4677 92.27 37.6368 92.3974 37.8034C92.5248 37.97 92.7328 38.117 93.0217 38.2444L93.4856 38.4492C93.8813 38.6238 94.285 38.7417 94.6966 38.8029C95.1083 38.8621 95.5085 38.8691 95.8974 38.824C96.284 38.7778 96.64 38.683 96.9652 38.5395C97.1767 38.4462 97.3381 38.3488 97.4496 38.2474C97.561 38.1441 97.619 38.0382 97.6235 37.9298C97.6258 37.8204 97.5701 37.7105 97.4564 37.6002L98.4525 37.3533C98.6344 37.5058 98.7288 37.6689 98.7356 37.8425C98.7402 38.0151 98.656 38.1887 98.4832 38.3634C98.3081 38.537 98.0431 38.7021 97.6884 38.8586ZM100.973 37.3126L95.7337 35.0004L96.5115 34.6572L97.3029 35.0065L97.3575 34.9824C97.1937 34.8258 97.1562 34.6567 97.2449 34.4751C97.3336 34.2934 97.5349 34.1334 97.8487 33.9949C97.9078 33.9688 97.9829 33.9367 98.0738 33.8985C98.1648 33.8604 98.2353 33.8323 98.2853 33.8142L99.1041 34.1755C99.0699 34.1846 98.9972 34.2076 98.8857 34.2448C98.7743 34.2799 98.6651 34.321 98.5583 34.3682C98.3035 34.4806 98.1296 34.6045 98.0363 34.74C97.9431 34.8735 97.9317 35.007 98.0022 35.1404C98.0727 35.2719 98.2262 35.3898 98.4627 35.4942L101.779 36.9574L100.973 37.3126ZM107.191 36.3033C107.054 36.3635 106.921 36.4122 106.791 36.4493C106.664 36.4875 106.57 36.511 106.508 36.5201L106.003 36.1166C106.249 36.0524 106.44 35.9842 106.577 35.9119C106.713 35.8397 106.779 35.7514 106.774 35.647C106.774 35.5426 106.69 35.4101 106.522 35.2496L106.263 35.0027L99.058 33.5335L99.9313 33.1481L105.553 34.3524L105.608 34.3283L102.879 31.8475L103.752 31.4622L107.532 35.093C107.702 35.2566 107.802 35.4101 107.832 35.5537C107.864 35.6982 107.825 35.8326 107.716 35.9571C107.609 36.0805 107.434 36.1959 107.191 36.3033ZM107.394 31.8784C106.534 31.499 105.855 31.1011 105.357 30.6847C104.859 30.2662 104.514 29.8311 104.323 29.3795L105.033 29.0664C105.094 29.238 105.218 29.4282 105.405 29.6369C105.591 29.8437 105.828 30.0574 106.114 30.2782C106.399 30.498 106.719 30.7138 107.076 30.9255C107.436 31.1363 107.819 31.3314 108.226 31.5111C108.767 31.7499 109.369 31.9692 110.031 32.1689C110.692 32.3686 111.351 32.5347 112.006 32.6672C112.661 32.7997 113.247 32.8839 113.766 32.9201L113.056 33.2332C112.033 33.1489 111.048 32.9974 110.102 32.7786C109.156 32.5578 108.253 32.2577 107.394 31.8784ZM112.307 29.7103C113.166 30.0897 113.845 30.4886 114.343 30.9071C114.841 31.3235 115.186 31.7576 115.377 32.2092L114.667 32.5223C114.606 32.3507 114.481 32.161 114.292 31.9533C114.108 31.7455 113.874 31.5318 113.589 31.312C113.303 31.0912 112.98 30.8755 112.621 30.6647C112.261 30.452 111.879 30.2563 111.474 30.0776C110.933 29.8388 110.332 29.6195 109.67 29.4198C109.008 29.2201 108.35 29.054 107.695 28.9215C107.04 28.7891 106.453 28.7048 105.934 28.6686L106.644 28.3555C107.667 28.4398 108.652 28.5924 109.598 28.8132C110.544 29.0319 111.447 29.331 112.307 29.7103Z" fill="#FF4931"/>
<path d="M63.1154 69.7656C62.5293 70.0218 62.5293 70.4372 63.1154 70.6934L79.5747 77.8881C80.1608 78.1443 81.1111 78.1443 81.6972 77.8881L84.9253 76.4771M85.3677 79.4926C84.7816 79.7488 84.7816 80.1641 85.3677 80.4203L101.827 87.6151C102.413 87.8713 103.363 87.8713 103.95 87.6151L107.177 86.2041M142.661 89.2195C143.247 89.4757 143.247 89.8911 142.661 90.1473L126.202 97.3421C125.616 97.5983 124.665 97.5983 124.079 97.3421L107.62 90.1473C107.034 89.8911 107.034 89.4757 107.62 89.2195M164.914 79.4926C165.5 79.7487 165.5 80.1641 164.914 80.4203L148.454 87.6151C147.868 87.8713 146.918 87.8713 146.332 87.6151L143.038 86.1751M187.166 69.7656C187.752 70.0218 187.752 70.4372 187.166 70.6934L170.707 77.8881C170.12 78.1443 169.17 78.1443 168.584 77.8881L165.419 76.5046" stroke="#FF4931" stroke-width="0.7"/>
<path d="M84.9281 74.169C84.93 74.0022 85.0765 73.8357 85.3677 73.7084L98.5954 67.9263M84.9281 74.169C84.9262 74.338 85.0727 74.5073 85.3677 74.6362L101.827 81.8309C102.413 82.0871 103.363 82.0871 103.95 81.8309L120.409 74.6362C120.692 74.5125 120.838 74.3516 120.848 74.1895M84.9281 74.169V79.9764M98.5954 67.9263L101.827 66.5137C102.413 66.2575 103.363 66.2575 103.95 66.5137L107.186 67.9284M98.5954 67.9263V64.4666M120.848 74.1895C120.858 74.0159 120.712 73.8409 120.409 73.7084L107.186 67.9284M120.848 74.1895V77.6532M107.186 67.9284V64.5016M120.848 77.6532L107.62 83.4354C107.31 83.571 107.164 83.7512 107.182 83.9287M120.848 77.6532L124.079 76.2406C124.665 75.9844 125.616 75.9844 126.202 76.2406L129.441 77.6564M107.182 83.9287C107.198 84.0867 107.344 84.2426 107.62 84.3632L124.079 91.5579C124.665 91.8141 125.616 91.8141 126.202 91.5579L142.661 84.3632C142.941 84.2409 143.087 84.0824 143.1 83.9223M107.182 83.9287V89.9048M129.441 77.6564V74.1063M129.441 77.6564L142.661 83.4354C142.968 83.5693 143.114 83.7468 143.1 83.9223M107.186 64.5016C107.15 64.3155 107.294 64.1239 107.62 63.9814L120.841 58.2025M107.186 64.5016C107.215 64.6503 107.36 64.7954 107.62 64.9092L124.079 72.104C124.665 72.3602 125.616 72.3602 126.202 72.104L142.661 64.9092C143.002 64.7602 143.145 64.5572 143.089 64.3631M120.841 58.2025L124.079 56.7867C124.665 56.5305 125.616 56.5305 126.202 56.7867L129.433 58.199M120.841 58.2025V54.6509M143.089 64.3631C143.049 64.2236 142.906 64.0886 142.661 63.9814L129.433 58.199M143.089 64.3631V67.9312M129.433 58.199V54.7258M143.089 67.9312L129.873 73.7084C129.618 73.8197 129.474 73.961 129.441 74.1063M143.089 67.9312L146.332 66.5137C146.918 66.2575 147.868 66.2575 148.454 66.5137L151.685 67.926M129.441 74.1063C129.397 74.2955 129.541 74.4913 129.873 74.6362L146.332 81.8309C146.918 82.0871 147.868 82.0871 148.454 81.8309L164.914 74.6362C165.201 74.5107 165.347 74.347 165.353 74.1825M151.685 67.926V64.4319M151.685 67.926L164.914 73.7084C165.213 73.8391 165.359 74.0112 165.353 74.1825M129.433 54.7258C129.428 54.5554 129.575 54.3845 129.872 54.2545L143.096 48.4742M129.433 54.7258C129.437 54.8912 129.584 55.056 129.872 55.1823L146.332 62.377C146.918 62.6332 147.868 62.6332 148.454 62.377L164.914 55.1823C165.203 55.0555 165.35 54.8899 165.353 54.7238M143.096 48.4742L146.332 47.0597C146.918 46.8035 147.868 46.8035 148.454 47.0597L164.914 54.2545C165.21 54.384 165.356 54.5541 165.353 54.7238M143.096 48.4742V45.0444M165.353 54.7238V58.199M165.353 58.199L152.125 63.9814C151.839 64.1061 151.693 64.2685 151.685 64.4319M165.353 58.199L168.584 56.7867C169.17 56.5305 170.12 56.5305 170.707 56.7867L187.166 63.9814C187.487 64.122 187.633 64.3105 187.601 64.4943M151.685 64.4319C151.677 64.6043 151.824 64.7777 152.125 64.9092L168.584 72.104C169.17 72.3602 170.12 72.3602 170.707 72.104L187.166 64.9092C187.43 64.7936 187.576 64.6455 187.601 64.4943M187.601 64.4943V70.31M165.353 74.1825V79.9519M143.1 83.9223V89.8702M62.6783 64.4073C62.6987 64.2523 62.8444 64.0999 63.1154 63.9814L79.5747 56.7867C80.1608 56.5305 81.1111 56.5305 81.6972 56.7867L84.9563 58.2113M62.6783 64.4073C62.6545 64.5877 62.8002 64.7715 63.1154 64.9092L79.5747 72.104C80.1608 72.3602 81.1111 72.3602 81.6972 72.104L98.1566 64.9092C98.4373 64.7865 98.5835 64.6273 98.5954 64.4666M62.6783 64.4073V70.2755M84.9563 58.2113L98.1566 63.9814C98.462 64.115 98.6083 64.2917 98.5954 64.4666M84.9563 58.2113V54.5915M84.9563 54.5915C85.0117 54.468 85.1488 54.3502 85.3677 54.2545L101.827 47.0597C102.413 46.8035 103.363 46.8035 103.95 47.0597L107.182 48.4726M84.9563 54.5915C84.8633 54.7987 85.0005 55.0217 85.3677 55.1823L101.827 62.377C102.413 62.6332 103.363 62.6332 103.95 62.377L120.409 55.1823C120.741 55.037 120.885 54.8405 120.841 54.6509M107.182 48.4726L120.409 54.2545C120.663 54.3654 120.807 54.5062 120.841 54.6509M107.182 48.4726V45.0189M107.182 45.0189C107.165 44.8419 107.311 44.6626 107.62 44.5275L124.079 37.3328C124.665 37.0766 125.616 37.0766 126.202 37.3328L142.661 44.5275C142.985 44.6691 143.13 44.8593 143.096 45.0444M107.182 45.0189C107.197 45.1775 107.343 45.3342 107.62 45.4553L124.079 52.65C124.665 52.9062 125.616 52.9062 126.202 52.65L142.661 45.4553C142.923 45.3407 143.068 45.1942 143.096 45.0444" stroke="#FF4931" stroke-width="0.7"/>
<path d="M176.04 108.508C176.04 119.421 153.252 128.268 125.141 128.268C97.031 128.268 74.243 119.421 74.243 108.508M176.04 108.508L176.039 118.937C176.039 129.85 153.251 138.697 125.141 138.697C97.0302 138.697 74.2422 129.85 74.2422 118.937L74.243 108.508M176.04 108.508C176.04 105.616 174.439 102.868 171.562 100.392M74.243 108.508C74.243 100.043 87.9537 92.822 107.224 90.0078" stroke="#FF4931" stroke-width="0.7"/>
</g>
</svg>
