<svg width="164" height="171" viewBox="0 0 164 171" fill="none" xmlns="http://www.w3.org/2000/svg">
<mask id="mask0_12215_10380" style="mask-type:luminance" maskUnits="userSpaceOnUse" x="0" y="0" width="164" height="165">
<path d="M164 0.726562H0V164.727H164V0.726562Z" fill="white"/>
</mask>
<g mask="url(#mask0_12215_10380)">
<path d="M44.9193 66.986C43.5131 66.986 42.2612 66.7205 41.1635 66.1896C40.0658 65.6587 39.2049 64.9341 38.5808 64.0158C37.9566 63.0903 37.6445 62.0464 37.6445 60.8842C37.6445 59.973 37.8346 59.1229 38.2149 58.3338C38.5951 57.5374 39.1188 56.8701 39.7861 56.3321C40.4532 55.7869 41.203 55.4317 42.0352 55.2667V55.1483C40.9519 54.8326 40.0802 54.2121 39.4202 53.2866C38.7601 52.3539 38.4337 51.2957 38.4408 50.1119C38.4337 49.0143 38.7135 48.0314 39.2803 47.1633C39.847 46.2952 40.6183 45.61 41.594 45.1079C42.5768 44.5985 43.6853 44.3438 44.9193 44.3438C46.1461 44.3438 47.2474 44.5985 48.2231 45.1079C49.1988 45.61 49.97 46.2952 50.5368 47.1633C51.1107 48.0314 51.4013 49.0143 51.4084 50.1119C51.4013 51.2885 51.0677 52.3468 50.4077 53.2866C49.7476 54.2192 48.8795 54.8398 47.8034 55.1483V55.2667C48.6356 55.4245 49.3817 55.7761 50.0418 56.3214C50.7018 56.8666 51.2255 57.5374 51.6129 58.3338C52.0003 59.1229 52.194 59.973 52.194 60.8842C52.194 62.0464 51.8784 63.0903 51.247 64.0158C50.6228 64.9341 49.7619 65.6587 48.6643 66.1896C47.5738 66.7205 46.3254 66.986 44.9193 66.986ZM44.9193 65.178C45.9667 65.178 46.885 64.9915 47.6742 64.6184C48.4706 64.2382 49.0911 63.718 49.536 63.058C49.9879 62.398 50.2139 61.6411 50.2139 60.7873C50.2139 59.9049 49.9807 59.1194 49.5144 58.4306C49.0481 57.7347 48.4167 57.1858 47.6204 56.784C46.8241 56.3751 45.9237 56.1706 44.9193 56.1706C43.9149 56.1706 43.0109 56.3751 42.2074 56.784C41.411 57.1858 40.7797 57.7347 40.3134 58.4306C39.8542 59.1194 39.6247 59.9049 39.6247 60.7873C39.6247 61.6411 39.8435 62.398 40.2811 63.058C40.7259 63.718 41.3465 64.2382 42.1428 64.6184C42.9464 64.9915 43.8718 65.178 44.9193 65.178ZM44.9193 54.4488C45.7802 54.4488 46.5514 54.2658 47.233 53.9C47.9146 53.5341 48.4526 53.0355 48.8472 52.4042C49.249 51.7656 49.4534 51.041 49.4606 50.2303C49.4534 49.4268 49.2525 48.7166 48.8579 48.0995C48.4634 47.4754 47.9253 46.9911 47.2438 46.6467C46.5693 46.2952 45.7945 46.1194 44.9193 46.1194C44.044 46.1194 43.262 46.2952 42.5733 46.6467C41.8917 46.9911 41.3536 47.4754 40.959 48.0995C40.5717 48.7166 40.3815 49.4268 40.3887 50.2303C40.3815 51.041 40.5752 51.7656 40.9698 52.4042C41.3715 53.0355 41.9133 53.5341 42.5947 53.9C43.2835 54.2658 44.0584 54.4488 44.9193 54.4488ZM63.6039 66.986C62.6928 66.9788 61.8032 66.7958 60.935 66.4371C60.067 66.0713 59.285 65.4866 58.589 64.683C57.8931 63.8723 57.3408 62.8033 56.9317 61.4761C56.5228 60.1488 56.3183 58.5166 56.3183 56.5796C56.3183 54.786 56.4762 53.1431 56.7919 51.6508C57.1076 50.1586 57.581 48.8672 58.2124 47.7767C58.8438 46.6862 59.6329 45.8432 60.5799 45.2477C61.5269 44.6451 62.6354 44.3438 63.9052 44.3438C65.0962 44.3438 66.1472 44.5913 67.0584 45.0863C67.9695 45.5742 68.7085 46.2558 69.2752 47.131C69.842 48.0063 70.1971 49.0143 70.3406 50.155H68.3605C68.1596 48.9927 67.6825 48.035 66.9292 47.2817C66.1759 46.5283 65.1679 46.1518 63.9052 46.1518C62.0973 46.1518 60.6983 46.9911 59.7082 48.6699C58.7182 50.3415 58.2196 52.7162 58.2124 55.794H58.3523C58.7038 55.1412 59.1558 54.578 59.7082 54.1044C60.2678 53.6237 60.9028 53.2507 61.613 52.9853C62.3233 52.7127 63.0694 52.5763 63.8514 52.5763C65.0783 52.5763 66.201 52.8884 67.2198 53.5126C68.2386 54.1296 69.0528 54.9797 69.6626 56.0631C70.2724 57.1392 70.5773 58.3696 70.5773 59.7542C70.5773 61.0671 70.2868 62.276 69.7056 63.3809C69.1317 64.4857 68.321 65.3645 67.2735 66.0174C66.2333 66.6703 65.0101 66.9931 63.6039 66.986ZM63.6039 65.178C64.5652 65.178 65.4226 64.9341 66.1759 64.4462C66.9364 63.9584 67.5354 63.3055 67.973 62.4877C68.4107 61.6626 68.6295 60.7515 68.6295 59.7542C68.6295 58.757 68.4107 57.8531 67.973 57.0423C67.5354 56.2316 66.9364 55.586 66.1759 55.1053C65.4226 54.6246 64.5652 54.3843 63.6039 54.3843C62.8721 54.3843 62.1905 54.5349 61.5592 54.8363C60.9279 55.1304 60.379 55.5358 59.9127 56.0523C59.4536 56.5617 59.102 57.1464 58.8581 57.8064C58.6213 58.4665 58.5316 59.1587 58.589 59.8834C58.668 60.8949 58.9299 61.8025 59.3746 62.606C59.8266 63.4024 60.415 64.0302 61.1395 64.4893C61.8713 64.9485 62.6928 65.178 63.6039 65.178ZM86.2784 62.5953V61.5944C86.2784 60.7694 86.4434 60.0269 86.7734 59.3669C87.1034 58.6996 87.5734 58.1723 88.1831 57.7849C88.7929 57.3974 89.5178 57.2038 90.3565 57.2038C91.2033 57.2038 91.9279 57.3974 92.5304 57.7849C93.1338 58.1723 93.5964 58.6996 93.9191 59.3669C94.2417 60.0269 94.4031 60.7694 94.4031 61.5944V62.5953C94.4031 63.4203 94.2382 64.1629 93.9084 64.8229C93.5857 65.4829 93.1223 66.0103 92.5197 66.4049C91.9172 66.7922 91.1961 66.986 90.3565 66.986C89.5036 66.986 88.7714 66.7922 88.1616 66.4049C87.559 66.0103 87.0927 65.4829 86.7626 64.8229C86.4398 64.1629 86.2784 63.4203 86.2784 62.5953ZM87.9679 61.5944V62.5953C87.9679 63.406 88.1652 64.0983 88.5598 64.6723C88.9616 65.239 89.5606 65.5224 90.3565 65.5224C91.132 65.5224 91.7167 65.239 92.1115 64.6723C92.5055 64.0983 92.7033 63.406 92.7033 62.5953V61.5944C92.7033 60.7838 92.509 60.0951 92.1222 59.5283C91.7345 58.9543 91.1462 58.6674 90.3565 58.6674C89.5749 58.6674 88.9795 58.9543 88.5705 59.5283C88.1687 60.0951 87.9679 60.7838 87.9679 61.5944ZM75.1725 49.7353V48.7345C75.1725 47.9094 75.3375 47.1669 75.6675 46.5069C75.9975 45.8468 76.4674 45.3231 77.0773 44.9357C77.6871 44.5411 78.4117 44.3438 79.2511 44.3438C80.0977 44.3438 80.8223 44.5411 81.425 44.9357C82.0276 45.3231 82.4903 45.8468 82.8132 46.5069C83.136 47.1669 83.2974 47.9094 83.2974 48.7345V49.7353C83.2974 50.5603 83.1324 51.3064 82.8024 51.9737C82.4795 52.6337 82.0168 53.1574 81.4142 53.5449C80.8116 53.9323 80.0905 54.126 79.2511 54.126C78.3974 54.126 77.6656 53.9323 77.0558 53.5449C76.4531 53.1574 75.9868 52.6337 75.6568 51.9737C75.334 51.3064 75.1725 50.5603 75.1725 49.7353ZM76.862 48.7345V49.7353C76.862 50.546 77.0594 51.2383 77.4539 51.8123C77.8557 52.379 78.4548 52.6624 79.2511 52.6624C80.026 52.6624 80.6107 52.379 81.0052 51.8123C81.3998 51.2383 81.5971 50.546 81.5971 49.7353V48.7345C81.5971 47.9238 81.4034 47.2351 81.016 46.6683C80.6286 46.0944 80.0403 45.8074 79.2511 45.8074C78.4691 45.8074 77.8736 46.0944 77.4647 46.6683C77.0629 47.2351 76.862 47.9238 76.862 48.7345ZM76.1625 66.6847L91.304 44.6451H93.2087L78.0673 66.6847H76.1625Z" fill="#343434"/>
<path d="M82.2966 88.3867H37.4355C36.6233 88.3867 35.9648 89.0452 35.9648 89.8574V95.118C35.9648 95.9302 36.6233 96.5887 37.4355 96.5887H82.2966C83.1088 96.5887 83.7673 95.9302 83.7673 95.118V89.8574C83.7673 89.0452 83.1088 88.3867 82.2966 88.3867Z" stroke="#343434" stroke-width="0.623913"/>
<path d="M141.989 88.3867H91.8046C90.9924 88.3867 90.334 89.0452 90.334 89.8574V95.118C90.334 95.9302 90.9924 96.5887 91.8046 96.5887H141.989C142.801 96.5887 143.46 95.9302 143.46 95.118V89.8574C143.46 89.0452 142.801 88.3867 141.989 88.3867Z" stroke="#343434" stroke-width="0.623913"/>
<path d="M211.24 88.3867H150.631C149.819 88.3867 149.16 89.0452 149.16 89.8574V95.118C149.16 95.9302 149.819 96.5887 150.631 96.5887H211.24C212.052 96.5887 212.71 95.9302 212.71 95.118V89.8574C212.71 89.0452 212.052 88.3867 211.24 88.3867Z" stroke="#343434" stroke-width="0.623913"/>
<path d="M39.6614 109.064V117.491H38.3858V110.339H38.3364L36.3203 111.656V110.438L38.4229 109.064H39.6614ZM44.8747 117.631C44.2246 117.628 43.6691 117.456 43.2083 117.116C42.7474 116.776 42.3949 116.281 42.1508 115.631C41.9067 114.981 41.7846 114.197 41.7846 113.281C41.7846 112.368 41.9067 111.588 42.1508 110.94C42.3977 110.293 42.7515 109.799 43.2124 109.459C43.676 109.119 44.2301 108.949 44.8747 108.949C45.5194 108.949 46.0721 109.12 46.533 109.463C46.9938 109.803 47.3463 110.297 47.5904 110.944C47.8373 111.589 47.9607 112.368 47.9607 113.281C47.9607 114.2 47.8386 114.984 47.5945 115.635C47.3504 116.282 46.9979 116.778 46.5371 117.12C46.0762 117.461 45.5221 117.631 44.8747 117.631ZM44.8747 116.532C45.4453 116.532 45.8911 116.254 46.212 115.697C46.5356 115.14 46.6975 114.335 46.6975 113.281C46.6975 112.582 46.6234 111.991 46.4753 111.508C46.3299 111.023 46.1201 110.655 45.8458 110.405C45.5742 110.153 45.2506 110.027 44.8747 110.027C44.3069 110.027 43.8611 110.307 43.5375 110.866C43.2138 111.425 43.0506 112.23 43.0478 113.281C43.0478 113.984 43.1205 114.577 43.2659 115.063C43.414 115.546 43.6238 115.912 43.8954 116.162C44.167 116.409 44.4934 116.532 44.8747 116.532ZM52.3542 117.631C51.704 117.628 51.1486 117.456 50.6878 117.116C50.2269 116.776 49.8744 116.281 49.6303 115.631C49.3861 114.981 49.2641 114.197 49.2641 113.281C49.2641 112.368 49.3861 111.588 49.6303 110.94C49.8771 110.293 50.231 109.799 50.6919 109.459C51.1555 109.119 51.7096 108.949 52.3542 108.949C52.9988 108.949 53.5515 109.12 54.0124 109.463C54.4732 109.803 54.8258 110.297 55.0699 110.944C55.3168 111.589 55.4402 112.368 55.4402 113.281C55.4402 114.2 55.3181 114.984 55.074 115.635C54.8299 116.282 54.4773 116.778 54.0165 117.12C53.5556 117.461 53.0016 117.631 52.3542 117.631ZM52.3542 116.532C52.9248 116.532 53.3705 116.254 53.6915 115.697C54.0151 115.14 54.177 114.335 54.177 113.281C54.177 112.582 54.1029 111.991 53.9548 111.508C53.8094 111.023 53.5996 110.655 53.3252 110.405C53.0537 110.153 52.73 110.027 52.3542 110.027C51.7864 110.027 51.3406 110.307 51.0169 110.866C50.6932 111.425 50.53 112.23 50.5273 113.281C50.5273 113.984 50.6 114.577 50.7454 115.063C50.8935 115.546 51.1033 115.912 51.3749 116.162C51.6465 116.409 51.9729 116.532 52.3542 116.532ZM61.2985 115.911V115.467C61.2985 115.148 61.3644 114.857 61.496 114.594C61.6304 114.328 61.8252 114.115 62.0803 113.956C62.3381 113.795 62.6494 113.713 63.0143 113.713C63.3874 113.713 63.7001 113.793 63.9524 113.952C64.2049 114.111 64.3955 114.324 64.5244 114.59C64.656 114.856 64.7219 115.148 64.7219 115.467V115.911C64.7219 116.229 64.656 116.521 64.5244 116.787C64.3927 117.051 64.1993 117.263 63.9442 117.425C63.6918 117.584 63.3819 117.664 63.0143 117.664C62.644 117.664 62.3312 117.584 62.0762 117.425C61.8211 117.263 61.6277 117.051 61.496 116.787C61.3644 116.521 61.2985 116.229 61.2985 115.911ZM62.2572 115.467V115.911C62.2572 116.147 62.3134 116.361 62.4259 116.552C62.5384 116.745 62.7345 116.84 63.0143 116.84C63.2914 116.84 63.4848 116.745 63.5945 116.552C63.7042 116.361 63.759 116.147 63.759 115.911V115.467C63.759 115.23 63.7056 115.017 63.5986 114.824C63.4944 114.632 63.2996 114.536 63.0143 114.536C62.74 114.536 62.5453 114.632 62.43 114.824C62.3149 115.017 62.2572 115.23 62.2572 115.467ZM57.0603 111.089V110.644C57.0603 110.326 57.1262 110.033 57.2579 109.768C57.3923 109.501 57.587 109.289 57.8422 109.129C58.1001 108.971 58.4114 108.891 58.7762 108.891C59.1493 108.891 59.462 108.971 59.7144 109.129C59.9667 109.289 60.1574 109.501 60.2862 109.768C60.4152 110.033 60.4797 110.326 60.4797 110.644V111.089C60.4797 111.407 60.4139 111.698 60.2821 111.965C60.1533 112.228 59.9612 112.441 59.7061 112.603C59.4538 112.762 59.1438 112.841 58.7762 112.841C58.4031 112.841 58.089 112.762 57.8339 112.603C57.5816 112.441 57.3895 112.228 57.2579 111.965C57.1262 111.698 57.0603 111.407 57.0603 111.089ZM58.0232 110.644V111.089C58.0232 111.324 58.078 111.538 58.1878 111.73C58.3002 111.922 58.4964 112.018 58.7762 112.018C59.0505 112.018 59.2425 111.922 59.3522 111.73C59.4647 111.538 59.521 111.324 59.521 111.089V110.644C59.521 110.408 59.4675 110.194 59.3604 110.002C59.2535 109.81 59.0587 109.714 58.7762 109.714C58.5018 109.714 58.3071 109.81 58.1919 110.002C58.0795 110.194 58.0232 110.408 58.0232 110.644ZM57.4513 117.491L63.2448 109.064H64.2281L58.4346 117.491H57.4513Z" fill="#343434"/>
<path d="M36.4375 132.643V126.16H40.3243V126.856H37.2225V129.047H40.0331V129.743H37.2225V132.643H36.4375ZM42.3144 126.16V132.643H41.5674V126.16H42.3144ZM46.7463 130.655V127.781H47.4933V132.643H46.7463V131.82H46.6957C46.5818 132.067 46.4045 132.276 46.1639 132.449C45.9234 132.62 45.6195 132.706 45.2524 132.706C44.9486 132.706 44.6785 132.639 44.4421 132.506C44.2058 132.372 44.0201 132.168 43.8851 131.898C43.75 131.627 43.6825 131.283 43.6825 130.87V127.781H44.4295V130.819C44.4295 131.174 44.5287 131.456 44.727 131.668C44.9274 131.879 45.1828 131.984 45.493 131.984C45.6786 131.984 45.8675 131.937 46.0595 131.841C46.2536 131.747 46.4161 131.602 46.5469 131.405C46.6799 131.209 46.7463 130.959 46.7463 130.655ZM50.8998 132.744C50.4313 132.744 50.0273 132.641 49.6875 132.434C49.3499 132.225 49.0894 131.933 48.9058 131.56C48.7243 131.184 48.6336 130.748 48.6336 130.249C48.6336 129.752 48.7243 129.313 48.9058 128.933C49.0894 128.551 49.3447 128.254 49.6718 128.041C50.0009 127.825 50.385 127.717 50.8239 127.717C51.0771 127.717 51.3271 127.76 51.574 127.844C51.8209 127.929 52.0456 128.066 52.2482 128.256C52.4508 128.444 52.6122 128.692 52.7324 129.003C52.8527 129.313 52.9128 129.695 52.9128 130.149V130.465H49.1653V129.819H52.1532C52.1532 129.545 52.0983 129.3 51.9886 129.085C51.881 128.87 51.7269 128.699 51.5265 128.576C51.3282 128.451 51.0939 128.388 50.8239 128.388C50.5263 128.388 50.2689 128.462 50.0516 128.61C49.8363 128.756 49.6707 128.945 49.5546 129.18C49.4386 129.414 49.3806 129.665 49.3806 129.933V130.364C49.3806 130.731 49.4439 131.042 49.5704 131.298C49.6991 131.551 49.8775 131.743 50.1054 131.877C50.3333 132.007 50.5981 132.073 50.8998 132.073C51.0961 132.073 51.2733 132.045 51.4316 131.99C51.5919 131.933 51.7301 131.849 51.8462 131.737C51.9622 131.623 52.0519 131.482 52.1152 131.313L52.8369 131.516C52.7609 131.76 52.6333 131.976 52.4539 132.161C52.2746 132.345 52.053 132.488 51.7892 132.592C51.5255 132.693 51.229 132.744 50.8998 132.744ZM54.7961 129.718V132.643H54.0491V127.781H54.7708V128.541H54.8341C54.948 128.294 55.121 128.095 55.3532 127.945C55.5853 127.794 55.885 127.717 56.2521 127.717C56.5812 127.717 56.8693 127.785 57.1161 127.92C57.363 128.053 57.5551 128.256 57.6923 128.527C57.8293 128.798 57.898 129.14 57.898 129.553V132.643H57.151V129.604C57.151 129.222 57.0518 128.924 56.8535 128.711C56.6551 128.496 56.3829 128.388 56.0368 128.388C55.7984 128.388 55.5853 128.44 55.3975 128.544C55.2118 128.647 55.0651 128.798 54.9576 128.996C54.8499 129.195 54.7961 129.435 54.7961 129.718ZM61.238 132.744C60.7821 132.744 60.3897 132.636 60.0605 132.421C59.7314 132.206 59.4782 131.909 59.3009 131.531C59.1237 131.154 59.035 130.723 59.035 130.237C59.035 129.743 59.1257 129.307 59.3072 128.929C59.4908 128.55 59.7461 128.254 60.0732 128.041C60.4024 127.825 60.7864 127.717 61.2253 127.717C61.5671 127.717 61.8752 127.781 62.1495 127.907C62.4238 128.034 62.6485 128.211 62.8237 128.439C62.9988 128.667 63.1075 128.933 63.1497 129.237H62.4027C62.3458 129.015 62.2192 128.819 62.0229 128.648C61.8288 128.475 61.5671 128.388 61.238 128.388C60.9468 128.388 60.6914 128.464 60.472 128.617C60.2547 128.766 60.0848 128.978 59.9624 129.253C59.8422 129.525 59.782 129.845 59.782 130.212C59.782 130.587 59.8411 130.914 59.9593 131.192C60.0795 131.471 60.2483 131.688 60.4656 131.841C60.6851 131.996 60.9426 132.073 61.238 132.073C61.4321 132.073 61.6083 132.039 61.7666 131.971C61.9248 131.904 62.0588 131.807 62.1685 131.68C62.2783 131.553 62.3563 131.402 62.4027 131.225H63.1497C63.1075 131.512 63.0031 131.77 62.8363 132C62.6718 132.228 62.4533 132.409 62.1811 132.545C61.9111 132.677 61.5967 132.744 61.238 132.744ZM64.7228 134.465C64.5962 134.465 64.4833 134.456 64.3841 134.434C64.285 134.415 64.2163 134.396 64.1784 134.377L64.3683 133.718C64.5498 133.765 64.7101 133.782 64.8494 133.769C64.9887 133.757 65.1121 133.694 65.2197 133.583C65.3294 133.472 65.4297 133.294 65.5204 133.047L65.6596 132.668L63.8619 127.781H64.6722L66.0142 131.655H66.0648L67.4069 127.781H68.2171L66.1534 133.351C66.0606 133.603 65.9456 133.81 65.8085 133.975C65.6713 134.142 65.5119 134.265 65.3305 134.345C65.1511 134.425 64.9485 134.465 64.7228 134.465Z" fill="#343434"/>
<path d="M94.5716 117.606C93.9815 117.606 93.461 117.504 93.0082 117.302C92.5581 117.099 92.2061 116.819 91.9503 116.462C91.6953 116.106 91.5697 115.699 91.5723 115.244C91.5697 114.887 91.6419 114.559 91.7898 114.261C91.9413 113.959 92.1454 113.708 92.403 113.508C92.6606 113.304 92.9494 113.176 93.2676 113.121V113.072C92.8478 112.97 92.5118 112.746 92.2595 112.397C92.0064 112.049 91.8816 111.647 91.8843 111.196C91.8816 110.764 91.9957 110.381 92.2266 110.043C92.4592 109.703 92.7792 109.435 93.1847 109.241C93.5911 109.046 94.0528 108.949 94.5716 108.949C95.085 108.949 95.5431 109.047 95.946 109.244C96.3515 109.44 96.6715 109.707 96.905 110.048C97.1376 110.384 97.2562 110.768 97.2589 111.196C97.2562 111.647 97.1269 112.049 96.872 112.397C96.6162 112.746 96.2847 112.97 95.8756 113.072V113.121C96.1911 113.176 96.4754 113.304 96.7276 113.508C96.9826 113.708 97.1858 113.959 97.3364 114.261C97.4906 114.559 97.5681 114.887 97.5708 115.244C97.5681 115.699 97.4398 116.106 97.1849 116.462C96.9291 116.819 96.5752 117.099 96.1224 117.302C95.6732 117.504 95.1563 117.606 94.5716 117.606ZM94.5716 116.565C94.9201 116.565 95.2213 116.508 95.4771 116.392C95.7321 116.274 95.929 116.111 96.069 115.903C96.2089 115.691 96.2802 115.444 96.2838 115.162C96.2802 114.869 96.2036 114.609 96.0529 114.384C95.905 114.159 95.7035 113.983 95.4477 113.853C95.1928 113.724 94.9005 113.66 94.5716 113.66C94.24 113.66 93.945 113.724 93.6874 113.853C93.4289 113.983 93.2257 114.159 93.0778 114.384C92.9298 114.609 92.8576 114.869 92.8603 115.162C92.8576 115.444 92.9245 115.691 93.0617 115.903C93.2016 116.111 93.4004 116.274 93.658 116.392C93.9156 116.508 94.2204 116.565 94.5716 116.565ZM94.5716 112.644C94.8514 112.644 95.0992 112.588 95.3167 112.475C95.5333 112.362 95.7035 112.206 95.8265 112.006C95.9531 111.805 96.0173 111.571 96.0199 111.302C96.0173 111.039 95.954 110.809 95.831 110.611C95.7098 110.414 95.5413 110.261 95.3247 110.154C95.1081 110.045 94.8568 109.99 94.5716 109.99C94.281 109.99 94.0261 110.045 93.8059 110.154C93.5894 110.261 93.4209 110.414 93.3006 110.611C93.1794 110.809 93.1205 111.039 93.1232 111.302C93.1205 111.571 93.1811 111.805 93.3041 112.006C93.428 112.206 93.5974 112.362 93.8149 112.475C94.0341 112.588 94.2864 112.644 94.5716 112.644ZM101.847 108.949C102.223 108.951 102.593 109.02 102.959 109.154C103.323 109.289 103.652 109.508 103.946 109.813C104.242 110.117 104.478 110.529 104.654 111.047C104.832 111.563 104.922 112.204 104.925 112.973C104.925 113.711 104.851 114.368 104.703 114.943C104.555 115.517 104.342 116.001 104.065 116.396C103.791 116.791 103.458 117.092 103.066 117.297C102.674 117.503 102.231 117.606 101.74 117.606C101.239 117.606 100.793 117.507 100.403 117.31C100.014 117.112 99.6966 116.839 99.4524 116.491C99.2081 116.14 99.0566 115.737 98.996 115.281H100.251C100.333 115.643 100.501 115.936 100.753 116.162C101.008 116.384 101.337 116.495 101.74 116.495C102.358 116.495 102.839 116.226 103.184 115.689C103.53 115.148 103.705 114.394 103.707 113.426H103.641C103.499 113.661 103.321 113.864 103.107 114.034C102.895 114.205 102.658 114.336 102.395 114.429C102.132 114.523 101.85 114.569 101.551 114.569C101.066 114.569 100.624 114.45 100.226 114.212C99.8285 113.973 99.5121 113.645 99.2759 113.228C99.0397 112.811 98.922 112.335 98.922 111.8C98.922 111.268 99.0424 110.786 99.2839 110.351C99.5281 109.918 99.8686 109.575 100.304 109.323C100.743 109.068 101.257 108.943 101.847 108.949ZM101.852 110.018C101.531 110.018 101.241 110.098 100.984 110.257C100.728 110.414 100.526 110.626 100.378 110.895C100.23 111.161 100.156 111.458 100.156 111.784C100.156 112.11 100.228 112.406 100.37 112.672C100.516 112.935 100.714 113.146 100.963 113.302C101.215 113.456 101.503 113.533 101.827 113.533C102.068 113.533 102.293 113.486 102.502 113.393C102.71 113.299 102.893 113.171 103.049 113.006C103.206 112.838 103.328 112.649 103.415 112.438C103.502 112.227 103.547 112.005 103.547 111.771C103.547 111.461 103.473 111.173 103.324 110.908C103.179 110.641 102.979 110.427 102.723 110.265C102.469 110.101 102.178 110.018 101.852 110.018ZM110.81 115.911V115.467C110.81 115.148 110.876 114.857 111.008 114.594C111.142 114.328 111.337 114.115 111.592 113.956C111.85 113.795 112.161 113.713 112.526 113.713C112.899 113.713 113.211 113.793 113.465 113.952C113.717 114.111 113.908 114.324 114.036 114.59C114.168 114.856 114.234 115.148 114.234 115.467V115.911C114.234 116.229 114.168 116.521 114.036 116.787C113.905 117.051 113.711 117.263 113.456 117.425C113.203 117.584 112.893 117.664 112.526 117.664C112.156 117.664 111.843 117.584 111.587 117.425C111.333 117.263 111.139 117.051 111.008 116.787C110.876 116.521 110.81 116.229 110.81 115.911ZM111.769 115.467V115.911C111.769 116.147 111.825 116.361 111.938 116.552C112.05 116.745 112.246 116.84 112.526 116.84C112.803 116.84 112.997 116.745 113.106 116.552C113.216 116.361 113.271 116.147 113.271 115.911V115.467C113.271 115.23 113.218 115.017 113.111 114.824C113.006 114.632 112.811 114.536 112.526 114.536C112.251 114.536 112.057 114.632 111.942 114.824C111.826 115.017 111.769 115.23 111.769 115.467ZM106.572 111.089V110.644C106.572 110.326 106.638 110.033 106.77 109.768C106.904 109.501 107.099 109.289 107.354 109.129C107.611 108.971 107.923 108.891 108.288 108.891C108.661 108.891 108.973 108.971 109.226 109.129C109.479 109.289 109.669 109.501 109.798 109.768C109.927 110.033 109.991 110.326 109.991 110.644V111.089C109.991 111.407 109.925 111.698 109.794 111.965C109.665 112.228 109.473 112.441 109.217 112.603C108.965 112.762 108.655 112.841 108.288 112.841C107.915 112.841 107.601 112.762 107.346 112.603C107.094 112.441 106.901 112.228 106.77 111.965C106.638 111.698 106.572 111.407 106.572 111.089ZM107.535 110.644V111.089C107.535 111.324 107.59 111.538 107.7 111.73C107.812 111.922 108.008 112.018 108.288 112.018C108.562 112.018 108.754 111.922 108.864 111.73C108.977 111.538 109.033 111.324 109.033 111.089V110.644C109.033 110.408 108.98 110.194 108.873 110.002C108.766 109.81 108.57 109.714 108.288 109.714C108.013 109.714 107.819 109.81 107.704 110.002C107.591 110.194 107.535 110.408 107.535 110.644ZM106.963 117.491L112.757 109.064H113.74L107.946 117.491H106.963Z" fill="#343434"/>
<path d="M96.9144 128.184H96.1291C96.0828 127.959 96.0017 127.76 95.8858 127.589C95.7717 127.419 95.6327 127.275 95.4678 127.159C95.3056 127.041 95.1246 126.952 94.9267 126.893C94.728 126.834 94.5212 126.805 94.3064 126.805C93.9133 126.805 93.5586 126.904 93.2395 127.102C92.9231 127.3 92.6709 127.593 92.4828 127.979C92.2974 128.365 92.2047 128.839 92.2047 129.4C92.2047 129.961 92.2974 130.435 92.4828 130.821C92.6709 131.207 92.9231 131.499 93.2395 131.698C93.5586 131.896 93.9133 131.995 94.3064 131.995C94.5212 131.995 94.728 131.965 94.9267 131.907C95.1246 131.848 95.3056 131.76 95.4678 131.644C95.6327 131.526 95.7717 131.382 95.8858 131.21C96.0017 131.038 96.0828 130.839 96.1291 130.615H96.9144C96.8555 130.947 96.7477 131.243 96.5917 131.505C96.4357 131.767 96.2414 131.989 96.0088 132.172C95.7771 132.354 95.5168 132.492 95.2271 132.588C94.9401 132.682 94.6335 132.729 94.3064 132.729C93.7538 132.729 93.2618 132.595 92.8313 132.325C92.4008 132.055 92.0621 131.67 91.8152 131.172C91.5683 130.674 91.4453 130.084 91.4453 129.4C91.4453 128.716 91.5683 128.126 91.8152 127.627C92.0621 127.129 92.4008 126.745 92.8313 126.475C93.2618 126.205 93.7538 126.07 94.3064 126.07C94.6335 126.07 94.9401 126.118 95.2271 126.213C95.5168 126.307 95.7771 126.446 96.0088 126.63C96.2414 126.812 96.4357 127.033 96.5917 127.295C96.7477 127.554 96.8555 127.851 96.9144 128.184ZM100.056 132.743C99.6177 132.743 99.2326 132.637 98.9011 132.429C98.5722 132.22 98.3146 131.928 98.1292 131.552C97.9456 131.177 97.8538 130.737 97.8538 130.235C97.8538 129.729 97.9456 129.287 98.1292 128.909C98.3146 128.531 98.5722 128.238 98.9011 128.029C99.2326 127.821 99.6177 127.716 100.056 127.716C100.496 127.716 100.88 127.821 101.209 128.029C101.54 128.238 101.797 128.531 101.981 128.909C102.167 129.287 102.26 129.729 102.26 130.235C102.26 130.737 102.167 131.177 101.981 131.552C101.797 131.928 101.54 132.22 101.209 132.429C100.88 132.637 100.496 132.743 100.056 132.743ZM100.056 132.071C100.39 132.071 100.664 131.986 100.88 131.815C101.095 131.644 101.254 131.419 101.358 131.141C101.461 130.862 101.513 130.561 101.513 130.235C101.513 129.91 101.461 129.608 101.358 129.327C101.254 129.046 101.095 128.819 100.88 128.646C100.664 128.473 100.39 128.387 100.056 128.387C99.7229 128.387 99.4492 128.473 99.2335 128.646C99.0187 128.819 98.8592 129.046 98.7558 129.327C98.6524 129.608 98.6007 129.91 98.6007 130.235C98.6007 130.561 98.6524 130.862 98.7558 131.141C98.8592 131.419 99.0187 131.644 99.2335 131.815C99.4492 131.986 99.7229 132.071 100.056 132.071ZM104.146 129.717V132.641H103.399V126.159H104.146V128.539H104.21C104.324 128.288 104.495 128.088 104.723 127.94C104.953 127.791 105.259 127.716 105.64 127.716C105.972 127.716 106.262 127.783 106.511 127.915C106.76 128.046 106.953 128.248 107.09 128.52C107.229 128.79 107.299 129.134 107.299 129.552V132.641H106.552V129.603C106.552 129.217 106.452 128.918 106.252 128.707C106.053 128.494 105.777 128.387 105.425 128.387C105.18 128.387 104.961 128.439 104.767 128.542C104.575 128.645 104.423 128.796 104.311 128.995C104.202 129.193 104.146 129.433 104.146 129.717ZM110.704 132.743C110.236 132.743 109.831 132.639 109.492 132.432C109.154 132.223 108.893 131.932 108.71 131.558C108.529 131.183 108.438 130.746 108.438 130.248C108.438 129.751 108.529 129.311 108.71 128.931C108.893 128.549 109.149 128.252 109.476 128.039C109.805 127.824 110.189 127.716 110.628 127.716C110.881 127.716 111.132 127.758 111.378 127.842C111.625 127.927 111.85 128.064 112.052 128.254C112.255 128.442 112.417 128.691 112.536 129.001C112.657 129.311 112.717 129.693 112.717 130.147V130.464H108.969V129.817H111.958C111.958 129.544 111.903 129.299 111.793 129.083C111.685 128.868 111.531 128.698 111.33 128.574C111.132 128.449 110.898 128.387 110.628 128.387C110.33 128.387 110.074 128.461 109.856 128.609C109.64 128.754 109.475 128.944 109.359 129.178C109.243 129.413 109.185 129.663 109.185 129.931V130.362C109.185 130.729 109.248 131.04 109.375 131.296C109.503 131.549 109.681 131.742 109.91 131.875C110.138 132.006 110.402 132.071 110.704 132.071C110.901 132.071 111.077 132.044 111.236 131.989C111.396 131.932 111.534 131.848 111.65 131.735C111.766 131.621 111.856 131.481 111.919 131.311L112.641 131.514C112.565 131.759 112.437 131.974 112.258 132.16C112.079 132.343 111.857 132.487 111.593 132.59C111.329 132.692 111.034 132.743 110.704 132.743ZM113.854 132.641V127.779H114.575V128.513H114.625C114.715 128.273 114.875 128.078 115.107 127.928C115.339 127.778 115.601 127.703 115.892 127.703C115.946 127.703 116.015 127.704 116.098 127.707C116.18 127.709 116.242 127.712 116.284 127.716V128.476C116.259 128.469 116.201 128.46 116.11 128.447C116.021 128.432 115.928 128.425 115.829 128.425C115.593 128.425 115.381 128.474 115.195 128.574C115.011 128.671 114.866 128.806 114.758 128.979C114.653 129.15 114.601 129.345 114.601 129.564V132.641H113.854ZM119.06 132.743C118.592 132.743 118.187 132.639 117.848 132.432C117.51 132.223 117.249 131.932 117.066 131.558C116.885 131.183 116.794 130.746 116.794 130.248C116.794 129.751 116.885 129.311 117.066 128.931C117.249 128.549 117.505 128.252 117.832 128.039C118.161 127.824 118.545 127.716 118.984 127.716C119.237 127.716 119.488 127.758 119.734 127.842C119.981 127.927 120.206 128.064 120.408 128.254C120.611 128.442 120.773 128.691 120.892 129.001C121.013 129.311 121.073 129.693 121.073 130.147V130.464H117.325V129.817H120.314C120.314 129.544 120.259 129.299 120.149 129.083C120.041 128.868 119.887 128.698 119.686 128.574C119.488 128.449 119.254 128.387 118.984 128.387C118.686 128.387 118.43 128.461 118.212 128.609C117.996 128.754 117.831 128.944 117.715 129.178C117.599 129.413 117.541 129.663 117.541 129.931V130.362C117.541 130.729 117.604 131.04 117.731 131.296C117.859 131.549 118.037 131.742 118.266 131.875C118.494 132.006 118.758 132.071 119.06 132.071C119.257 132.071 119.433 132.044 119.592 131.989C119.752 131.932 119.89 131.848 120.006 131.735C120.122 131.621 120.212 131.481 120.275 131.311L120.997 131.514C120.921 131.759 120.793 131.974 120.614 132.16C120.435 132.343 120.213 132.487 119.949 132.59C119.685 132.692 119.389 132.743 119.06 132.743ZM122.956 129.717V132.641H122.21V127.779H122.931V128.539H122.994C123.108 128.292 123.281 128.094 123.514 127.944C123.745 127.792 124.045 127.716 124.412 127.716C124.742 127.716 125.03 127.783 125.277 127.919C125.523 128.052 125.715 128.254 125.852 128.526C125.99 128.796 126.058 129.138 126.058 129.552V132.641H125.311V129.603C125.311 129.22 125.212 128.922 125.014 128.709C124.816 128.495 124.543 128.387 124.197 128.387C123.958 128.387 123.745 128.439 123.558 128.542C123.372 128.645 123.226 128.796 123.118 128.995C123.01 129.193 122.956 129.433 122.956 129.717ZM129.398 132.743C128.942 132.743 128.55 132.635 128.221 132.419C127.892 132.204 127.639 131.907 127.461 131.53C127.284 131.153 127.196 130.721 127.196 130.235C127.196 129.742 127.286 129.306 127.467 128.928C127.651 128.548 127.906 128.252 128.233 128.039C128.563 127.824 128.947 127.716 129.385 127.716C129.728 127.716 130.035 127.779 130.31 127.906C130.584 128.032 130.809 128.209 130.984 128.438C131.159 128.666 131.268 128.931 131.31 129.235H130.563C130.506 129.013 130.379 128.817 130.183 128.646C129.989 128.473 129.728 128.387 129.398 128.387C129.107 128.387 128.852 128.463 128.632 128.615C128.415 128.765 128.245 128.977 128.122 129.251C128.002 129.523 127.942 129.843 127.942 130.21C127.942 130.586 128.001 130.913 128.12 131.191C128.24 131.47 128.409 131.686 128.626 131.84C128.845 131.994 129.103 132.071 129.398 132.071C129.592 132.071 129.769 132.038 129.926 131.97C130.085 131.902 130.219 131.805 130.328 131.678C130.438 131.552 130.517 131.4 130.563 131.223H131.31C131.268 131.51 131.164 131.768 130.997 131.998C130.832 132.227 130.614 132.407 130.342 132.543C130.071 132.676 129.757 132.743 129.398 132.743ZM134.44 132.743C133.972 132.743 133.567 132.639 133.228 132.432C132.89 132.223 132.63 131.932 132.446 131.558C132.264 131.183 132.174 130.746 132.174 130.248C132.174 129.751 132.264 129.311 132.446 128.931C132.63 128.549 132.885 128.252 133.212 128.039C133.542 127.824 133.926 127.716 134.364 127.716C134.617 127.716 134.868 127.758 135.115 127.842C135.362 127.927 135.586 128.064 135.789 128.254C135.991 128.442 136.152 128.691 136.273 129.001C136.393 129.311 136.454 129.693 136.454 130.147V130.464H132.706V129.817H135.693C135.693 129.544 135.639 129.299 135.529 129.083C135.421 128.868 135.267 128.698 135.067 128.574C134.869 128.449 134.634 128.387 134.364 128.387C134.067 128.387 133.809 128.461 133.592 128.609C133.377 128.754 133.211 128.944 133.095 129.178C132.979 129.413 132.921 129.663 132.921 129.931V130.362C132.921 130.729 132.985 131.04 133.111 131.296C133.239 131.549 133.418 131.742 133.646 131.875C133.874 132.006 134.139 132.071 134.44 132.071C134.636 132.071 134.814 132.044 134.972 131.989C135.133 131.932 135.271 131.848 135.387 131.735C135.502 131.621 135.593 131.481 135.656 131.311L136.378 131.514C136.301 131.759 136.174 131.974 135.994 132.16C135.815 132.343 135.593 132.487 135.33 132.59C135.066 132.692 134.77 132.743 134.44 132.743Z" fill="#343434"/>
<path d="M153.398 117.606C152.808 117.606 152.287 117.504 151.834 117.302C151.384 117.099 151.032 116.819 150.776 116.462C150.522 116.106 150.396 115.699 150.399 115.244C150.396 114.887 150.468 114.559 150.616 114.261C150.768 113.959 150.972 113.708 151.229 113.508C151.487 113.304 151.776 113.176 152.094 113.121V113.072C151.674 112.97 151.338 112.746 151.086 112.397C150.833 112.049 150.708 111.647 150.71 111.196C150.708 110.764 150.822 110.381 151.053 110.043C151.285 109.703 151.605 109.435 152.011 109.241C152.417 109.046 152.879 108.949 153.398 108.949C153.911 108.949 154.369 109.047 154.772 109.244C155.178 109.44 155.498 109.707 155.731 110.048C155.964 110.384 156.082 110.768 156.085 111.196C156.082 111.647 155.953 112.049 155.698 112.397C155.442 112.746 155.111 112.97 154.702 113.072V113.121C155.017 113.176 155.302 113.304 155.554 113.508C155.809 113.708 156.012 113.959 156.163 114.261C156.317 114.559 156.394 114.887 156.397 115.244C156.394 115.699 156.266 116.106 156.011 116.462C155.755 116.819 155.401 117.099 154.949 117.302C154.499 117.504 153.982 117.606 153.398 117.606ZM153.398 116.565C153.746 116.565 154.048 116.508 154.303 116.392C154.558 116.274 154.755 116.111 154.895 115.903C155.035 115.691 155.106 115.444 155.11 115.162C155.106 114.869 155.03 114.609 154.879 114.384C154.731 114.159 154.53 113.983 154.274 113.853C154.019 113.724 153.727 113.66 153.398 113.66C153.066 113.66 152.771 113.724 152.514 113.853C152.255 113.983 152.052 114.159 151.904 114.384C151.756 114.609 151.684 114.869 151.686 115.162C151.684 115.444 151.751 115.691 151.888 115.903C152.028 116.111 152.227 116.274 152.484 116.392C152.742 116.508 153.047 116.565 153.398 116.565ZM153.398 112.644C153.678 112.644 153.925 112.588 154.143 112.475C154.359 112.362 154.53 112.206 154.653 112.006C154.779 111.805 154.843 111.571 154.846 111.302C154.843 111.039 154.78 110.809 154.657 110.611C154.536 110.414 154.367 110.261 154.151 110.154C153.934 110.045 153.683 109.99 153.398 109.99C153.107 109.99 152.852 110.045 152.632 110.154C152.416 110.261 152.247 110.414 152.127 110.611C152.006 110.809 151.947 111.039 151.949 111.302C151.947 111.571 152.007 111.805 152.13 112.006C152.254 112.206 152.424 112.362 152.641 112.475C152.86 112.588 153.113 112.644 153.398 112.644ZM160.653 117.606C160.137 117.606 159.673 117.507 159.263 117.31C158.853 117.109 158.527 116.835 158.283 116.486C158.039 116.139 157.909 115.74 157.892 115.294H159.126C159.156 115.656 159.317 115.953 159.607 116.186C159.899 116.419 160.247 116.536 160.653 116.536C160.977 116.536 161.264 116.462 161.513 116.314C161.765 116.163 161.963 115.956 162.106 115.692C162.251 115.429 162.323 115.129 162.323 114.791C162.323 114.449 162.249 114.143 162.101 113.874C161.953 113.605 161.749 113.393 161.488 113.24C161.231 113.087 160.935 113.008 160.599 113.006C160.345 113.006 160.088 113.049 159.83 113.138C159.572 113.225 159.364 113.34 159.205 113.483L158.041 113.311L158.513 109.064H163.147V110.154H159.571L159.304 112.512H159.353C159.517 112.352 159.736 112.22 160.007 112.113C160.281 112.006 160.575 111.952 160.887 111.952C161.401 111.952 161.857 112.074 162.257 112.319C162.661 112.563 162.977 112.896 163.208 113.319C163.441 113.738 163.557 114.221 163.554 114.767C163.557 115.312 163.433 115.8 163.183 116.228C162.936 116.656 162.593 116.993 162.155 117.239C161.719 117.484 161.218 117.606 160.653 117.606ZM169.455 115.911V115.467C169.455 115.148 169.521 114.857 169.652 114.594C169.787 114.328 169.982 114.115 170.237 113.956C170.495 113.795 170.807 113.713 171.171 113.713C171.544 113.713 171.857 113.793 172.109 113.952C172.362 114.111 172.553 114.324 172.681 114.59C172.813 114.856 172.879 115.148 172.879 115.467V115.911C172.879 116.229 172.813 116.521 172.681 116.787C172.549 117.051 172.356 117.263 172.101 117.425C171.849 117.584 171.538 117.664 171.171 117.664C170.8 117.664 170.489 117.584 170.233 117.425C169.978 117.263 169.784 117.051 169.652 116.787C169.521 116.521 169.455 116.229 169.455 115.911ZM170.414 115.467V115.911C170.414 116.147 170.471 116.361 170.583 116.552C170.695 116.745 170.891 116.84 171.171 116.84C171.448 116.84 171.642 116.745 171.751 116.552C171.861 116.361 171.916 116.147 171.916 115.911V115.467C171.916 115.23 171.862 115.017 171.755 114.824C171.652 114.632 171.456 114.536 171.171 114.536C170.897 114.536 170.702 114.632 170.587 114.824C170.472 115.017 170.414 115.23 170.414 115.467ZM165.217 111.089V110.644C165.217 110.326 165.283 110.033 165.414 109.768C165.549 109.501 165.744 109.289 165.999 109.129C166.257 108.971 166.569 108.891 166.933 108.891C167.307 108.891 167.619 108.971 167.872 109.129C168.124 109.289 168.315 109.501 168.443 109.768C168.572 110.033 168.636 110.326 168.636 110.644V111.089C168.636 111.407 168.57 111.698 168.439 111.965C168.31 112.228 168.118 112.441 167.863 112.603C167.61 112.762 167.3 112.841 166.933 112.841C166.56 112.841 166.246 112.762 165.991 112.603C165.739 112.441 165.546 112.228 165.414 111.965C165.283 111.698 165.217 111.407 165.217 111.089ZM166.18 110.644V111.089C166.18 111.324 166.235 111.538 166.345 111.73C166.457 111.922 166.653 112.018 166.933 112.018C167.208 112.018 167.399 111.922 167.509 111.73C167.621 111.538 167.678 111.324 167.678 111.089V110.644C167.678 110.408 167.625 110.194 167.517 110.002C167.41 109.81 167.216 109.714 166.933 109.714C166.659 109.714 166.464 109.81 166.348 110.002C166.236 110.194 166.18 110.408 166.18 110.644ZM165.608 117.491L171.401 109.064H172.385L166.592 117.491H165.608Z" fill="#343434"/>
<path d="M150.525 132.643V126.16H152.715C153.222 126.16 153.638 126.247 153.962 126.42C154.288 126.591 154.528 126.826 154.684 127.125C154.84 127.425 154.919 127.766 154.919 128.148C154.919 128.53 154.84 128.869 154.684 129.164C154.528 129.46 154.288 129.692 153.966 129.86C153.643 130.027 153.231 130.11 152.728 130.11H150.956V129.402H152.703C153.049 129.402 153.328 129.351 153.538 129.249C153.751 129.148 153.905 129.004 154.001 128.819C154.098 128.631 154.146 128.407 154.146 128.148C154.146 127.888 154.098 127.662 154.001 127.468C153.903 127.273 153.748 127.124 153.535 127.018C153.322 126.911 153.041 126.856 152.69 126.856H151.31V132.643H150.525ZM153.576 129.731L155.172 132.643H154.26L152.69 129.731H153.576ZM158.111 132.744C157.642 132.744 157.239 132.641 156.899 132.434C156.561 132.225 156.301 131.933 156.117 131.56C155.936 131.184 155.845 130.748 155.845 130.249C155.845 129.752 155.936 129.313 156.117 128.933C156.301 128.551 156.556 128.254 156.883 128.041C157.212 127.825 157.596 127.717 158.036 127.717C158.289 127.717 158.538 127.76 158.785 127.844C159.032 127.929 159.257 128.066 159.46 128.256C159.662 128.444 159.823 128.692 159.944 129.003C160.064 129.313 160.124 129.695 160.124 130.149V130.465H156.377V129.819H159.364C159.364 129.545 159.31 129.3 159.2 129.085C159.093 128.87 158.938 128.699 158.738 128.576C158.539 128.451 158.306 128.388 158.036 128.388C157.738 128.388 157.48 128.462 157.263 128.61C157.048 128.756 156.882 128.945 156.766 129.18C156.65 129.414 156.592 129.665 156.592 129.933V130.364C156.592 130.731 156.655 131.042 156.781 131.298C156.911 131.551 157.089 131.743 157.317 131.877C157.544 132.007 157.809 132.073 158.111 132.073C158.307 132.073 158.485 132.045 158.643 131.99C158.803 131.933 158.941 131.849 159.058 131.737C159.174 131.623 159.263 131.482 159.327 131.313L160.048 131.516C159.972 131.76 159.845 131.976 159.665 132.161C159.486 132.345 159.265 132.488 159.001 132.592C158.737 132.693 158.44 132.744 158.111 132.744ZM162.007 126.16V132.643H161.26V126.16H162.007ZM165.414 132.744C164.946 132.744 164.541 132.641 164.202 132.434C163.864 132.225 163.604 131.933 163.42 131.56C163.238 131.184 163.148 130.748 163.148 130.249C163.148 129.752 163.238 129.313 163.42 128.933C163.604 128.551 163.858 128.254 164.186 128.041C164.515 127.825 164.899 127.717 165.338 127.717C165.591 127.717 165.842 127.76 166.088 127.844C166.335 127.929 166.56 128.066 166.762 128.256C166.965 128.444 167.126 128.692 167.246 129.003C167.367 129.313 167.427 129.695 167.427 130.149V130.465H163.679V129.819H166.667C166.667 129.545 166.613 129.3 166.503 129.085C166.395 128.87 166.241 128.699 166.04 128.576C165.842 128.451 165.608 128.388 165.338 128.388C165.04 128.388 164.783 128.462 164.566 128.61C164.35 128.756 164.185 128.945 164.069 129.18C163.953 129.414 163.895 129.665 163.895 129.933V130.364C163.895 130.731 163.958 131.042 164.085 131.298C164.213 131.551 164.391 131.743 164.62 131.877C164.848 132.007 165.112 132.073 165.414 132.073C165.61 132.073 165.787 132.045 165.946 131.99C166.106 131.933 166.244 131.849 166.36 131.737C166.476 131.623 166.566 131.482 166.629 131.313L167.351 131.516C167.275 131.76 167.147 131.976 166.968 132.161C166.789 132.345 166.567 132.488 166.303 132.592C166.039 132.693 165.744 132.744 165.414 132.744ZM172.391 127.781L170.593 132.643H169.834L168.035 127.781H168.846L170.188 131.655H170.238L171.581 127.781H172.391ZM174.659 132.757C174.351 132.757 174.072 132.699 173.821 132.582C173.569 132.464 173.37 132.294 173.222 132.073C173.074 131.849 173.001 131.579 173.001 131.263C173.001 130.984 173.056 130.758 173.165 130.585C173.275 130.41 173.422 130.273 173.606 130.174C173.789 130.075 173.992 130.001 174.213 129.952C174.436 129.902 174.661 129.862 174.887 129.831C175.182 129.794 175.422 129.765 175.606 129.747C175.791 129.725 175.927 129.691 176.01 129.642C176.097 129.593 176.141 129.509 176.141 129.388V129.364C176.141 129.052 176.055 128.808 175.884 128.635C175.715 128.462 175.459 128.376 175.115 128.376C174.758 128.376 174.479 128.454 174.276 128.61C174.074 128.766 173.931 128.933 173.849 129.11L173.14 128.857C173.267 128.561 173.435 128.331 173.647 128.167C173.86 128.001 174.091 127.884 174.343 127.819C174.596 127.751 174.845 127.717 175.09 127.717C175.246 127.717 175.425 127.737 175.628 127.774C175.832 127.81 176.03 127.886 176.22 127.999C176.412 128.113 176.571 128.285 176.698 128.515C176.824 128.745 176.887 129.053 176.887 129.439V132.643H176.141V131.984H176.102C176.052 132.09 175.968 132.202 175.849 132.323C175.731 132.443 175.574 132.545 175.378 132.63C175.182 132.714 174.942 132.757 174.659 132.757ZM174.773 132.086C175.068 132.086 175.318 132.028 175.52 131.912C175.725 131.795 175.879 131.645 175.982 131.462C176.088 131.278 176.141 131.086 176.141 130.882V130.199C176.109 130.237 176.039 130.272 175.932 130.304C175.826 130.333 175.704 130.359 175.565 130.382C175.428 130.404 175.294 130.422 175.163 130.439C175.034 130.454 174.929 130.467 174.849 130.478C174.655 130.503 174.474 130.544 174.305 130.601C174.138 130.656 174.003 130.739 173.9 130.851C173.798 130.961 173.747 131.11 173.747 131.3C173.747 131.56 173.844 131.757 174.036 131.889C174.23 132.02 174.476 132.086 174.773 132.086ZM178.998 129.718V132.643H178.251V127.781H178.972V128.541H179.036C179.15 128.294 179.323 128.095 179.555 127.945C179.787 127.794 180.086 127.717 180.454 127.717C180.783 127.717 181.071 127.785 181.318 127.92C181.565 128.053 181.757 128.256 181.894 128.527C182.031 128.798 182.1 129.14 182.1 129.553V132.643H181.353V129.604C181.353 129.222 181.254 128.924 181.055 128.711C180.857 128.496 180.585 128.388 180.239 128.388C180 128.388 179.787 128.44 179.6 128.544C179.413 128.647 179.267 128.798 179.159 128.996C179.052 129.195 178.998 129.435 178.998 129.718ZM185.44 132.744C184.984 132.744 184.592 132.636 184.262 132.421C183.933 132.206 183.68 131.909 183.503 131.531C183.325 131.154 183.237 130.723 183.237 130.237C183.237 129.743 183.327 129.307 183.509 128.929C183.693 128.55 183.948 128.254 184.275 128.041C184.604 127.825 184.989 127.717 185.427 127.717C185.769 127.717 186.077 127.781 186.351 127.907C186.626 128.034 186.851 128.211 187.025 128.439C187.201 128.667 187.31 128.933 187.351 129.237H186.605C186.547 129.015 186.421 128.819 186.225 128.648C186.031 128.475 185.769 128.388 185.44 128.388C185.149 128.388 184.893 128.464 184.674 128.617C184.456 128.766 184.286 128.978 184.164 129.253C184.044 129.525 183.984 129.845 183.984 130.212C183.984 130.587 184.043 130.914 184.161 131.192C184.282 131.471 184.45 131.688 184.668 131.841C184.887 131.996 185.145 132.073 185.44 132.073C185.634 132.073 185.81 132.039 185.968 131.971C186.127 131.904 186.26 131.807 186.37 131.68C186.48 131.553 186.558 131.402 186.605 131.225H187.351C187.31 131.512 187.205 131.77 187.039 132C186.874 132.228 186.655 132.409 186.383 132.545C186.113 132.677 185.799 132.744 185.44 132.744ZM190.482 132.744C190.014 132.744 189.609 132.641 189.27 132.434C188.932 132.225 188.671 131.933 188.488 131.56C188.306 131.184 188.216 130.748 188.216 130.249C188.216 129.752 188.306 129.313 188.488 128.933C188.671 128.551 188.926 128.254 189.253 128.041C189.583 127.825 189.967 127.717 190.406 127.717C190.659 127.717 190.909 127.76 191.156 127.844C191.403 127.929 191.628 128.066 191.83 128.256C192.033 128.444 192.194 128.692 192.314 129.003C192.435 129.313 192.495 129.695 192.495 130.149V130.465H188.747V129.819H191.735C191.735 129.545 191.68 129.3 191.571 129.085C191.463 128.87 191.309 128.699 191.108 128.576C190.91 128.451 190.676 128.388 190.406 128.388C190.108 128.388 189.851 128.462 189.634 128.61C189.418 128.756 189.253 128.945 189.137 129.18C189.021 129.414 188.963 129.665 188.963 129.933V130.364C188.963 130.731 189.026 131.042 189.153 131.298C189.281 131.551 189.459 131.743 189.688 131.877C189.916 132.007 190.18 132.073 190.482 132.073C190.678 132.073 190.855 132.045 191.014 131.99C191.174 131.933 191.312 131.849 191.428 131.737C191.544 131.623 191.634 131.482 191.697 131.313L192.419 131.516C192.343 131.76 192.215 131.976 192.036 132.161C191.857 132.345 191.635 132.488 191.371 132.592C191.107 132.693 190.811 132.744 190.482 132.744Z" fill="#343434"/>
</g>
</svg>
