<svg width="205" height="151" viewBox="0 0 205 151" fill="none" xmlns="http://www.w3.org/2000/svg">
<mask id="mask0_12215_7848" style="mask-type:luminance" maskUnits="userSpaceOnUse" x="0" y="0" width="205" height="151">
<path d="M204.5 0H0.5V151H204.5V0Z" fill="white"/>
</mask>
<g mask="url(#mask0_12215_7848)">
<g filter="url(#filter0_d_12215_7848)">
<path d="M136.981 96.9947L114.622 45.4061L108.762 61.1224C108.376 62.1574 107.224 62.6836 106.189 62.2977L104.315 61.599C103.28 61.2131 102.754 60.0613 103.14 59.0263L111.957 35.38C112.35 34.3237 113.539 33.8014 114.583 34.2258L137.148 43.3944C138.171 43.8102 138.663 44.9768 138.248 46.0001L137.495 47.853C137.079 48.8763 135.912 49.3688 134.889 48.953L120.093 42.9408L143.889 96.7388" stroke="#267AD2" stroke-width="0.7"/>
<path d="M156.941 96.7397L164.673 63.4859L152.995 68.3745C151.976 68.801 150.804 68.3208 150.378 67.3019L149.605 65.457C149.179 64.4381 149.659 63.2663 150.678 62.8398L168.41 55.417C169.276 55.0548 170.277 55.3428 170.817 56.1097L182.092 72.1058C182.729 73.0086 182.513 74.2564 181.61 74.8928L179.975 76.045C179.072 76.6814 177.825 76.4654 177.188 75.5626L170.309 65.8035L163.594 96.9103" stroke="#267AD2" stroke-width="0.7"/>
<path d="M131.35 111.237L95.7859 90.2192L108.13 86.2327C109.181 85.8933 109.758 84.766 109.419 83.7149L108.804 81.8117C108.464 80.7606 107.337 80.1836 106.286 80.5231L86.595 86.8822C85.5109 87.2323 84.9378 88.4159 85.3354 89.4835L93.1555 110.478C93.5411 111.513 94.6927 112.04 95.7278 111.654L97.602 110.956C98.6371 110.57 99.1637 109.419 98.7781 108.384L94.2744 96.2925L131.435 118.231" stroke="#267AD2" stroke-width="0.7"/>
<path d="M90.2383 134C90.0247 134 89.8411 133.924 89.6875 133.773C89.5339 133.62 89.457 133.435 89.457 133.218C89.457 133.005 89.5339 132.823 89.6875 132.672C89.8411 132.518 90.0247 132.441 90.2383 132.441C90.4518 132.441 90.6354 132.518 90.7891 132.672C90.9427 132.823 91.0195 133.005 91.0195 133.218C91.0195 133.362 90.9831 133.493 90.9102 133.613C90.8398 133.73 90.7461 133.824 90.6289 133.894C90.5117 133.965 90.3815 134 90.2383 134ZM95.3848 127.926V128.863H92.1074V127.926H95.3848ZM92.9863 126.488H94.1543V132.164C94.1543 132.39 94.1882 132.561 94.2559 132.676C94.3236 132.787 94.4108 132.864 94.5176 132.906C94.627 132.945 94.7454 132.965 94.873 132.965C94.9668 132.965 95.0488 132.958 95.1191 132.945C95.1895 132.932 95.2441 132.922 95.2832 132.914L95.4941 133.879C95.4264 133.905 95.3301 133.931 95.2051 133.957C95.0801 133.985 94.9238 134.001 94.7363 134.004C94.429 134.009 94.1426 133.954 93.877 133.84C93.6113 133.725 93.3965 133.548 93.2324 133.308C93.0684 133.069 92.9863 132.768 92.9863 132.406V126.488ZM97.9736 130.363V133.926H96.8057V125.926H97.958V128.902H98.0322C98.1729 128.579 98.3877 128.323 98.6768 128.133C98.9658 127.942 99.3434 127.847 99.8096 127.847C100.221 127.847 100.58 127.932 100.888 128.101C101.198 128.271 101.437 128.523 101.606 128.859C101.778 129.192 101.864 129.609 101.864 130.109V133.926H100.696V130.25C100.696 129.81 100.583 129.468 100.356 129.226C100.13 128.982 99.8148 128.859 99.4111 128.859C99.1351 128.859 98.8877 128.918 98.6689 129.035C98.4528 129.152 98.2822 129.324 98.1572 129.551C98.0348 129.774 97.9736 130.045 97.9736 130.363ZM106.009 134.047C105.418 134.047 104.909 133.92 104.481 133.668C104.057 133.412 103.729 133.054 103.497 132.593C103.268 132.13 103.153 131.587 103.153 130.965C103.153 130.35 103.268 129.808 103.497 129.34C103.729 128.871 104.052 128.505 104.466 128.242C104.882 127.979 105.369 127.847 105.927 127.847C106.265 127.847 106.593 127.903 106.911 128.015C107.229 128.127 107.514 128.303 107.767 128.543C108.019 128.782 108.218 129.093 108.364 129.476C108.51 129.857 108.583 130.319 108.583 130.863V131.277H103.813V130.402H107.438C107.438 130.095 107.376 129.823 107.251 129.586C107.126 129.346 106.95 129.157 106.724 129.019C106.5 128.881 106.237 128.812 105.935 128.812C105.606 128.812 105.32 128.893 105.075 129.054C104.833 129.213 104.646 129.422 104.513 129.679C104.382 129.935 104.317 130.212 104.317 130.511V131.195C104.317 131.596 104.388 131.937 104.528 132.218C104.672 132.5 104.871 132.715 105.126 132.863C105.381 133.009 105.679 133.082 106.021 133.082C106.242 133.082 106.444 133.051 106.626 132.988C106.808 132.923 106.966 132.827 107.099 132.699C107.231 132.571 107.333 132.414 107.403 132.226L108.509 132.426C108.42 132.751 108.261 133.036 108.032 133.281C107.806 133.523 107.521 133.712 107.177 133.847C106.836 133.98 106.446 134.047 106.009 134.047ZM111.047 130.363V133.926H109.879V127.926H111V128.902H111.074C111.212 128.584 111.428 128.329 111.723 128.136C112.02 127.944 112.393 127.847 112.844 127.847C113.253 127.847 113.611 127.933 113.918 128.105C114.225 128.274 114.464 128.527 114.633 128.863C114.802 129.199 114.887 129.614 114.887 130.109V133.926H113.719V130.25C113.719 129.815 113.605 129.475 113.379 129.23C113.152 128.983 112.841 128.859 112.445 128.859C112.174 128.859 111.934 128.918 111.723 129.035C111.514 129.152 111.349 129.324 111.227 129.551C111.107 129.774 111.047 130.045 111.047 130.363ZM116.793 130.605C116.793 129.626 116.922 128.725 117.18 127.902C117.438 127.079 117.814 126.32 118.309 125.625H119.379C119.186 125.883 119.007 126.199 118.84 126.574C118.673 126.949 118.527 127.36 118.402 127.808C118.277 128.254 118.18 128.716 118.109 129.195C118.039 129.672 118.004 130.142 118.004 130.605C118.004 131.225 118.065 131.853 118.188 132.488C118.31 133.123 118.475 133.713 118.684 134.258C118.892 134.802 119.124 135.246 119.379 135.59H118.309C117.814 134.894 117.438 134.135 117.18 133.312C116.922 132.489 116.793 131.587 116.793 130.605ZM122.856 130.605C122.856 131.587 122.728 132.489 122.47 133.312C122.212 134.135 121.836 134.894 121.341 135.59H120.271C120.463 135.332 120.643 135.015 120.81 134.64C120.976 134.265 121.122 133.855 121.247 133.41C121.372 132.962 121.47 132.498 121.54 132.019C121.61 131.54 121.646 131.069 121.646 130.605C121.646 129.988 121.584 129.362 121.462 128.726C121.34 128.091 121.174 127.501 120.966 126.957C120.757 126.412 120.526 125.968 120.271 125.625H121.341C121.836 126.32 122.212 127.079 122.47 127.902C122.728 128.725 122.856 129.626 122.856 130.605Z" fill="#267AD2"/>
<mask id="mask1_12215_7848" style="mask-type:luminance" maskUnits="userSpaceOnUse" x="130" y="96" width="129" height="41">
<path d="M253.945 96.4023H135.945C133.184 96.4023 130.945 98.6409 130.945 101.402V131.402C130.945 134.164 133.184 136.402 135.945 136.402H253.945C256.707 136.402 258.945 134.164 258.945 131.402V101.402C258.945 98.6409 256.707 96.4023 253.945 96.4023Z" fill="white"/>
</mask>
<g mask="url(#mask1_12215_7848)">
<mask id="mask2_12215_7848" style="mask-type:luminance" maskUnits="userSpaceOnUse" x="130" y="96" width="41" height="41">
<path d="M130.945 96.4023H170.945V136.402H130.945V96.4023Z" fill="white"/>
</mask>
<g mask="url(#mask2_12215_7848)">
<path d="M170.246 96.4023V136.402H171.646V96.4023H170.246Z" fill="#267AD2"/>
</g>
<path d="M152.589 110.151L152.608 115.401L155.111 115.402C155.783 115.402 156.178 116.082 155.796 116.579L150.796 123.077C150.331 123.682 149.278 123.386 149.278 122.65L149.277 117.406L146.78 117.407C146.109 117.407 145.713 116.729 146.094 116.231L151.07 109.728C151.533 109.123 152.587 109.416 152.589 110.151Z" fill="#267AD2"/>
</g>
<path d="M253.947 96.7539H135.947C133.379 96.7539 131.297 98.8358 131.297 101.404V131.404C131.297 133.972 133.379 136.054 135.947 136.054H253.947C256.515 136.054 258.597 133.972 258.597 131.404V101.404C258.597 98.8358 256.515 96.7539 253.947 96.7539Z" stroke="#267AD2" stroke-width="0.7"/>
<path d="M169.499 42.0353C169.413 42.1474 169.415 42.2692 169.475 42.3723C169.538 42.4791 169.669 42.5714 169.856 42.5714L172.041 42.571H172.347L172.348 42.8772V47.4658C172.348 47.6169 172.453 47.7456 172.637 47.7974C172.822 47.8493 173.015 47.7997 173.128 47.6527L177.502 41.9669C177.589 41.8547 177.587 41.7327 177.527 41.6295C177.465 41.5226 177.333 41.43 177.146 41.43L174.955 41.4292L174.65 41.4291L174.649 41.124L174.633 36.5303C174.633 36.3791 174.528 36.2507 174.344 36.1993C174.159 36.1479 173.966 36.198 173.853 36.3451L169.499 42.0353ZM169.499 42.0353L169.256 41.8491" stroke="#267AD2" stroke-width="0.6125"/>
<path d="M103.499 22.0353C103.413 22.1474 103.415 22.2692 103.475 22.3723C103.538 22.4791 103.669 22.5714 103.856 22.5714L106.041 22.571H106.347L106.348 22.8772V27.4658C106.348 27.6169 106.453 27.7456 106.637 27.7974C106.822 27.8493 107.015 27.7997 107.128 27.6527L111.502 21.9669C111.589 21.8547 111.587 21.7327 111.527 21.6295C111.465 21.5226 111.333 21.43 111.146 21.43L108.955 21.4292L108.65 21.4291L108.649 21.124L108.633 16.5303C108.633 16.3791 108.528 16.2507 108.344 16.1993C108.159 16.1479 107.966 16.198 107.853 16.3451L103.499 22.0353ZM103.499 22.0353L103.256 21.8491" stroke="#267AD2" stroke-width="0.6125"/>
<path d="M70.4991 83.0353C70.4133 83.1474 70.4153 83.2692 70.4754 83.3723C70.5378 83.4791 70.6694 83.5714 70.8563 83.5714L73.0412 83.571H73.3475V83.8772L73.3485 88.4658C73.3485 88.6169 73.4525 88.7456 73.6368 88.7974C73.8215 88.8493 74.0149 88.7997 74.1279 88.6527L78.5023 82.9669C78.5886 82.8547 78.5868 82.7327 78.5268 82.6295C78.4645 82.5226 78.3327 82.43 78.1455 82.43L75.9555 82.4292L75.6504 82.4291L75.6493 82.124L75.6333 77.5303C75.6328 77.3791 75.5283 77.2507 75.3438 77.1993C75.1589 77.1479 74.9658 77.198 74.8533 77.3451L70.4991 83.0353ZM70.4991 83.0353L70.2559 82.8491" stroke="#267AD2" stroke-width="0.6125"/>
</g>
</g>
<defs>
<filter id="filter0_d_12215_7848" x="66.0703" y="15.875" width="196.877" height="128.527" filterUnits="userSpaceOnUse" color-interpolation-filters="sRGB">
<feFlood flood-opacity="0" result="BackgroundImageFix"/>
<feColorMatrix in="SourceAlpha" type="matrix" values="0 0 0 0 0 0 0 0 0 0 0 0 0 0 0 0 0 0 127 0" result="hardAlpha"/>
<feOffset dy="4"/>
<feGaussianBlur stdDeviation="2"/>
<feComposite in2="hardAlpha" operator="out"/>
<feColorMatrix type="matrix" values="0 0 0 0 0.14902 0 0 0 0 0.478431 0 0 0 0 0.823529 0 0 0 0.25 0"/>
<feBlend mode="normal" in2="BackgroundImageFix" result="effect1_dropShadow_12215_7848"/>
<feBlend mode="normal" in="SourceGraphic" in2="effect1_dropShadow_12215_7848" result="shape"/>
</filter>
</defs>
</svg>
