<svg width="138" height="139" viewBox="0 0 138 139" fill="none" xmlns="http://www.w3.org/2000/svg">
<mask id="mask0_12215_9975" style="mask-type:luminance" maskUnits="userSpaceOnUse" x="0" y="0" width="138" height="139">
<path d="M138 0.753906H0V138.754H138V0.753906Z" fill="white"/>
</mask>
<g mask="url(#mask0_12215_9975)">
<path fill-rule="evenodd" clip-rule="evenodd" d="M62.8855 67.7689C63.3066 68.19 63.3066 68.8727 62.8855 69.2938L55.2212 76.9583L50.4252 72.1607C50.0041 71.7397 50.0041 71.0569 50.4251 70.6358C50.8462 70.2147 51.5289 70.2146 51.95 70.6357L55.2211 73.9085L61.3607 67.7689C61.7818 67.3478 62.4645 67.3478 62.8855 67.7689Z" fill="#343434"/>
<path d="M79.7823 99.9893C79.6247 99.9893 79.4894 99.9329 79.3764 99.8199C79.2635 99.707 79.207 99.5717 79.207 99.414C79.207 99.2564 79.2635 99.1211 79.3764 99.0081C79.4894 98.8952 79.6247 98.8387 79.7823 98.8387C79.94 98.8387 80.0753 98.8952 80.1882 99.0081C80.3011 99.1211 80.3576 99.2564 80.3576 99.414C80.3576 99.5184 80.331 99.6143 80.2777 99.7017C80.2266 99.789 80.1573 99.8593 80.07 99.9126C79.9847 99.9637 79.8889 99.9893 79.7823 99.9893ZM85.1884 96.1285L84.5108 96.3203C84.4682 96.2074 84.4054 96.0976 84.3223 95.9911C84.2413 95.8824 84.1305 95.7929 83.9899 95.7226C83.8493 95.6523 83.6692 95.6172 83.4498 95.6172C83.1493 95.6172 82.899 95.6864 82.6987 95.8249C82.5005 95.9613 82.4015 96.1349 82.4015 96.3458C82.4015 96.5333 82.4696 96.6814 82.606 96.7901C82.7424 96.8988 82.9554 96.9893 83.2452 97.0618L83.9739 97.2407C84.4128 97.3473 84.7399 97.5103 84.9551 97.7297C85.1703 97.9471 85.2779 98.2272 85.2779 98.5703C85.2779 98.8515 85.1969 99.103 85.035 99.3245C84.8752 99.5461 84.6515 99.7208 84.3638 99.8487C84.0762 99.9765 83.7417 100.041 83.3603 100.041C82.8596 100.041 82.4451 99.9318 82.117 99.7145C81.7889 99.4971 81.5812 99.1797 81.4938 98.762L82.2097 98.5831C82.2779 98.8473 82.4068 99.0454 82.5964 99.1775C82.7882 99.3096 83.0385 99.3757 83.3475 99.3757C83.6991 99.3757 83.9782 99.3011 84.1848 99.152C84.3937 99.0007 84.4981 98.8196 84.4981 98.6086C84.4981 98.4382 84.4384 98.2954 84.3191 98.1804C84.1998 98.0632 84.0165 97.9758 83.7694 97.9183L82.9512 97.7265C82.5016 97.62 82.1714 97.4549 81.9604 97.2311C81.7516 97.0053 81.6472 96.723 81.6472 96.3842C81.6472 96.1072 81.725 95.8622 81.8805 95.6491C82.0382 95.436 82.2523 95.2688 82.5229 95.1473C82.7956 95.0259 83.1046 94.9652 83.4498 94.9652C83.9356 94.9652 84.3169 95.0717 84.5939 95.2848C84.8731 95.4978 85.0712 95.7791 85.1884 96.1285ZM89.507 97.9311V95.0291H90.2613V99.9382H89.507V99.1072H89.4559C89.3408 99.3565 89.1619 99.5685 88.919 99.7432C88.6761 99.9158 88.3692 100.002 87.9985 100.002C87.6917 100.002 87.419 99.935 87.1803 99.8007C86.9417 99.6644 86.7542 99.4598 86.6178 99.1871C86.4815 98.9123 86.4133 98.566 86.4133 98.1484V95.0291H87.1675V98.0973C87.1675 98.4552 87.2677 98.7407 87.468 98.9538C87.6704 99.1669 87.9282 99.2734 88.2414 99.2734C88.4289 99.2734 88.6196 99.2255 88.8135 99.1296C89.0095 99.0337 89.1736 98.8867 89.3057 98.6885C89.4399 98.4904 89.507 98.2379 89.507 97.9311ZM95.12 96.1285L94.4425 96.3203C94.3999 96.2074 94.337 96.0976 94.2539 95.9911C94.173 95.8824 94.0622 95.7929 93.9215 95.7226C93.7809 95.6523 93.6009 95.6172 93.3814 95.6172C93.081 95.6172 92.8306 95.6864 92.6303 95.8249C92.4322 95.9613 92.3331 96.1349 92.3331 96.3458C92.3331 96.5333 92.4013 96.6814 92.5377 96.7901C92.674 96.8988 92.8871 96.9893 93.1769 97.0618L93.9055 97.2407C94.3445 97.3473 94.6715 97.5103 94.8867 97.7297C95.1019 97.9471 95.2095 98.2272 95.2095 98.5703C95.2095 98.8515 95.1286 99.103 94.9666 99.3245C94.8068 99.5461 94.5831 99.7208 94.2955 99.8487C94.0078 99.9765 93.6733 100.041 93.2919 100.041C92.7912 100.041 92.3768 99.9318 92.0487 99.7145C91.7205 99.4971 91.5128 99.1797 91.4254 98.762L92.1413 98.5831C92.2095 98.8473 92.3384 99.0454 92.5281 99.1775C92.7198 99.3096 92.9702 99.3757 93.2791 99.3757C93.6307 99.3757 93.9098 99.3011 94.1165 99.152C94.3253 99.0007 94.4297 98.8196 94.4297 98.6086C94.4297 98.4382 94.37 98.2954 94.2507 98.1804C94.1314 98.0632 93.9482 97.9758 93.701 97.9183L92.8828 97.7265C92.4332 97.62 92.103 97.4549 91.8921 97.2311C91.6832 97.0053 91.5788 96.723 91.5788 96.3842C91.5788 96.1072 91.6566 95.8622 91.8122 95.6491C91.9698 95.436 92.184 95.2688 92.4546 95.1473C92.7273 95.0259 93.0362 94.9652 93.3814 94.9652C93.8672 94.9652 94.2486 95.0717 94.5256 95.2848C94.8047 95.4978 95.0029 95.7791 95.12 96.1285ZM96.3449 101.779V95.0291H97.0736V95.8089H97.1631C97.2185 95.7237 97.2952 95.615 97.3932 95.4829C97.4934 95.3487 97.6361 95.2294 97.8215 95.125C98.009 95.0184 98.2625 94.9652 98.5821 94.9652C98.9955 94.9652 99.3598 95.0685 99.6752 95.2752C99.9905 95.4819 100.236 95.7748 100.413 96.1541C100.59 96.5333 100.678 96.9808 100.678 97.4964C100.678 98.0163 100.59 98.4669 100.413 98.8483C100.236 99.2276 99.9916 99.5216 99.6784 99.7304C99.3652 99.9371 99.004 100.041 98.5949 100.041C98.2796 100.041 98.0271 99.9882 97.8375 99.8838C97.6478 99.7773 97.5019 99.6569 97.3996 99.5227C97.2973 99.3863 97.2185 99.2734 97.1631 99.1839H97.0992V101.779H96.3449ZM97.0864 97.4836C97.0864 97.8544 97.1407 98.1814 97.2494 98.4648C97.3581 98.7461 97.5168 98.9666 97.7256 99.1264C97.9344 99.2841 98.1901 99.3629 98.4926 99.3629C98.808 99.3629 99.0711 99.2798 99.2821 99.1136C99.4951 98.9453 99.6549 98.7194 99.7615 98.436C99.8701 98.1505 99.9245 97.8331 99.9245 97.4836C99.9245 97.1385 99.8712 96.8274 99.7647 96.5504C99.6603 96.2713 99.5015 96.0507 99.2885 95.8888C99.0775 95.7248 98.8122 95.6427 98.4926 95.6427C98.1858 95.6427 97.928 95.7205 97.7192 95.876C97.5104 96.0294 97.3527 96.2446 97.2462 96.5216C97.1397 96.7965 97.0864 97.1172 97.0864 97.4836ZM103.887 100.041C103.414 100.041 103.006 99.936 102.663 99.7272C102.322 99.5163 102.059 99.2223 101.874 98.8451C101.69 98.4659 101.599 98.0248 101.599 97.522C101.599 97.0191 101.69 96.576 101.874 96.1924C102.059 95.8068 102.317 95.5064 102.647 95.2912C102.98 95.0738 103.367 94.9652 103.811 94.9652C104.066 94.9652 104.319 95.0078 104.568 95.093C104.817 95.1782 105.044 95.3167 105.249 95.5085C105.453 95.6981 105.616 95.9495 105.738 96.2628C105.859 96.576 105.92 96.9616 105.92 97.4197V97.7393H102.136V97.0873H105.153C105.153 96.8103 105.097 96.5632 104.987 96.3458C104.878 96.1285 104.722 95.957 104.52 95.8313C104.32 95.7056 104.083 95.6427 103.811 95.6427C103.51 95.6427 103.25 95.7173 103.031 95.8664C102.813 96.0135 102.646 96.2052 102.529 96.4417C102.412 96.6782 102.353 96.9318 102.353 97.2024V97.637C102.353 98.0078 102.417 98.3221 102.545 98.5799C102.675 98.8356 102.855 99.0305 103.085 99.1647C103.315 99.2968 103.583 99.3629 103.887 99.3629C104.085 99.3629 104.264 99.3352 104.424 99.2798C104.586 99.2223 104.726 99.137 104.843 99.0241C104.96 98.9091 105.051 98.7663 105.115 98.5958L105.843 98.8004C105.766 99.0476 105.638 99.2649 105.456 99.4524C105.275 99.6378 105.052 99.7826 104.785 99.887C104.519 99.9893 104.22 100.041 103.887 100.041ZM107.822 96.9851V99.9382H107.067V95.0291H107.796V95.7961H107.86C107.975 95.5468 108.15 95.3466 108.384 95.1953C108.618 95.0419 108.921 94.9652 109.292 94.9652C109.624 94.9652 109.915 95.0333 110.164 95.1697C110.414 95.3039 110.607 95.5085 110.746 95.7833C110.884 96.0561 110.954 96.4012 110.954 96.8189V99.9382H110.199V96.87C110.199 96.4843 110.099 96.1839 109.899 95.9687C109.699 95.7514 109.424 95.6427 109.074 95.6427C108.834 95.6427 108.618 95.6949 108.429 95.7993C108.241 95.9037 108.093 96.0561 107.985 96.2564C107.876 96.4566 107.822 96.6995 107.822 96.9851ZM114.186 100.041C113.777 100.041 113.415 99.9371 113.102 99.7304C112.789 99.5216 112.544 99.2276 112.367 98.8483C112.19 98.4669 112.102 98.0163 112.102 97.4964C112.102 96.9808 112.19 96.5333 112.367 96.1541C112.544 95.7748 112.79 95.4819 113.105 95.2752C113.421 95.0685 113.785 94.9652 114.198 94.9652C114.518 94.9652 114.77 95.0184 114.956 95.125C115.143 95.2294 115.286 95.3487 115.384 95.4829C115.484 95.615 115.562 95.7237 115.617 95.8089H115.681V93.3927H116.436V99.9382H115.707V99.1839H115.617C115.562 99.2734 115.483 99.3863 115.381 99.5227C115.279 99.6569 115.133 99.7773 114.943 99.8838C114.753 99.9882 114.501 100.041 114.186 100.041ZM114.288 99.3629C114.59 99.3629 114.846 99.2841 115.055 99.1264C115.264 98.9666 115.422 98.7461 115.531 98.4648C115.64 98.1814 115.694 97.8544 115.694 97.4836C115.694 97.1172 115.641 96.7965 115.534 96.5216C115.428 96.2446 115.27 96.0294 115.061 95.876C114.853 95.7205 114.595 95.6427 114.288 95.6427C113.968 95.6427 113.702 95.7248 113.489 95.8888C113.278 96.0507 113.119 96.2713 113.013 96.5504C112.908 96.8274 112.856 97.1385 112.856 97.4836C112.856 97.8331 112.909 98.1505 113.016 98.436C113.125 98.7194 113.284 98.9453 113.495 99.1136C113.708 99.2798 113.973 99.3629 114.288 99.3629ZM118.19 97.1768C118.19 96.3714 118.295 95.631 118.503 94.9556C118.714 94.278 119.015 93.6548 119.405 93.0859H120.069C119.916 93.2968 119.772 93.5568 119.638 93.8657C119.506 94.1726 119.39 94.5103 119.29 94.8789C119.19 95.2454 119.111 95.6246 119.053 96.0167C118.998 96.4087 118.97 96.7954 118.97 97.1768C118.97 97.6839 119.019 98.1985 119.117 98.7205C119.215 99.2425 119.347 99.7272 119.513 100.175C119.68 100.622 119.865 100.987 120.069 101.268H119.405C119.015 100.699 118.714 100.077 118.503 99.4012C118.295 98.7237 118.19 97.9822 118.19 97.1768ZM122.793 97.1768C122.793 97.9822 122.688 98.7237 122.477 99.4012C122.268 100.077 121.969 100.699 121.579 101.268H120.914C121.067 101.057 121.21 100.797 121.342 100.488C121.477 100.181 121.594 99.8444 121.694 99.478C121.794 99.1093 121.872 98.729 121.927 98.337C121.985 97.9428 122.013 97.5561 122.013 97.1768C122.013 96.6697 121.964 96.1552 121.866 95.6331C121.768 95.1111 121.636 94.6264 121.47 94.1789C121.304 93.7315 121.119 93.3672 120.914 93.0859H121.579C121.969 93.6548 122.268 94.278 122.477 94.9556C122.688 95.631 122.793 96.3714 122.793 97.1768Z" fill="#343434"/>
<path d="M76.0424 70.952H74.9345C74.8918 70.7153 74.8125 70.507 74.6965 70.327C74.5805 70.1471 74.4385 69.9944 74.2704 69.8689C74.1023 69.7435 73.9141 69.6488 73.7058 69.5848C73.4998 69.5209 73.2808 69.489 73.0488 69.489C72.6298 69.489 72.2545 69.5943 71.9231 69.805C71.594 70.0157 71.3336 70.3247 71.1418 70.7319C70.9525 71.1391 70.8578 71.6362 70.8578 72.2233C70.8578 72.8152 70.9525 73.3147 71.1418 73.7219C71.3336 74.1291 71.5952 74.4369 71.9266 74.6452C72.2581 74.8535 72.631 74.9577 73.0453 74.9577C73.2749 74.9577 73.4927 74.9269 73.6987 74.8654C73.907 74.8015 74.0952 74.7079 74.2633 74.5848C74.4314 74.4617 74.5734 74.3114 74.6894 74.1338C74.8078 73.9539 74.8895 73.748 74.9345 73.5159L76.0424 73.5195C75.9832 73.877 75.8684 74.2061 75.698 74.5067C75.5299 74.805 75.3132 75.0631 75.0481 75.2809C74.7853 75.4963 74.4846 75.6632 74.1461 75.7816C73.8076 75.8999 73.4382 75.9591 73.0382 75.9591C72.4084 75.9591 71.8473 75.81 71.3549 75.5117C70.8625 75.211 70.4742 74.7813 70.1901 74.2226C69.9084 73.6639 69.7676 72.9975 69.7676 72.2233C69.7676 71.4468 69.9096 70.7804 70.1937 70.224C70.4778 69.6653 70.866 69.2368 71.3585 68.9385C71.8509 68.6379 72.4108 68.4875 73.0382 68.4875C73.424 68.4875 73.7839 68.5432 74.1177 68.6544C74.4539 68.7633 74.7557 68.9243 75.0232 69.1374C75.2908 69.3481 75.5121 69.6061 75.6873 69.9115C75.8625 70.2146 75.9809 70.5614 76.0424 70.952ZM79.5678 75.9698C79.0564 75.9698 78.6102 75.8526 78.229 75.6182C77.8479 75.3838 77.5519 75.056 77.3412 74.6346C77.1305 74.2132 77.0252 73.7207 77.0252 73.1573C77.0252 72.5915 77.1305 72.0967 77.3412 71.6729C77.5519 71.2491 77.8479 70.9201 78.229 70.6857C78.6102 70.4513 79.0564 70.3341 79.5678 70.3341C80.0792 70.3341 80.5254 70.4513 80.9066 70.6857C81.2877 70.9201 81.5837 71.2491 81.7944 71.6729C82.0051 72.0967 82.1104 72.5915 82.1104 73.1573C82.1104 73.7207 82.0051 74.2132 81.7944 74.6346C81.5837 75.056 81.2877 75.3838 80.9066 75.6182C80.5254 75.8526 80.0792 75.9698 79.5678 75.9698ZM79.5714 75.0784C79.9028 75.0784 80.1774 74.9909 80.3952 74.8157C80.613 74.6405 80.774 74.4073 80.8782 74.1161C80.9847 73.8249 81.038 73.5041 81.038 73.1537C81.038 72.8057 80.9847 72.4861 80.8782 72.1949C80.774 71.9014 80.613 71.6658 80.3952 71.4882C80.1774 71.3107 79.9028 71.2219 79.5714 71.2219C79.2375 71.2219 78.9606 71.3107 78.7404 71.4882C78.5226 71.6658 78.3604 71.9014 78.2539 72.1949C78.1497 72.4861 78.0976 72.8057 78.0976 73.1537C78.0976 73.5041 78.1497 73.8249 78.2539 74.1161C78.3604 74.4073 78.5226 74.6405 78.7404 74.8157C78.9606 74.9909 79.2375 75.0784 79.5714 75.0784ZM84.3574 72.6211V75.8597H83.2956V70.4052H84.3148V71.2929H84.3823C84.5077 71.0041 84.7042 70.7721 84.9717 70.5969C85.2416 70.4217 85.5814 70.3341 85.9909 70.3341C86.3626 70.3341 86.6881 70.4123 86.9675 70.5685C87.2468 70.7224 87.4635 70.952 87.6173 71.2574C87.7712 71.5628 87.8482 71.9404 87.8482 72.3902V75.8597H86.7864V72.5181C86.7864 72.1227 86.6834 71.8138 86.4774 71.5912C86.2715 71.3663 85.9886 71.2539 85.6287 71.2539C85.3825 71.2539 85.1635 71.3071 84.9717 71.4137C84.7824 71.5202 84.632 71.6765 84.5208 71.8824C84.4119 72.086 84.3574 72.3322 84.3574 72.6211ZM91.8681 70.4052V71.2574H88.7857V70.4052H91.8681ZM89.6308 75.8597V69.7731C89.6308 69.4321 89.7054 69.1492 89.8546 68.9243C90.0037 68.6971 90.2014 68.5278 90.4476 68.4165C90.6938 68.3029 90.9613 68.2461 91.2502 68.2461C91.4632 68.2461 91.6455 68.2638 91.797 68.2993C91.9485 68.3325 92.061 68.3632 92.1344 68.3917L91.8858 69.251C91.8361 69.2368 91.7722 69.2203 91.694 69.2013C91.6159 69.18 91.5212 69.1694 91.41 69.1694C91.1519 69.1694 90.9672 69.2333 90.856 69.3611C90.7471 69.489 90.6926 69.6736 90.6926 69.9151V75.8597H89.6308ZM92.9636 75.8597V70.4052H94.0254V75.8597H92.9636ZM93.4998 69.5635C93.3151 69.5635 93.1565 69.502 93.0239 69.3789C92.8937 69.2534 92.8286 69.1043 92.8286 68.9314C92.8286 68.7562 92.8937 68.6071 93.0239 68.484C93.1565 68.3585 93.3151 68.2958 93.4998 68.2958C93.6845 68.2958 93.8419 68.3585 93.9721 68.484C94.1047 68.6071 94.171 68.7562 94.171 68.9314C94.171 69.1043 94.1047 69.2534 93.9721 69.3789C93.8419 69.502 93.6845 69.5635 93.4998 69.5635ZM95.4538 75.8597V70.4052H96.4801V71.2716H96.5369C96.6363 70.9781 96.8115 70.7472 97.0625 70.5792C97.3158 70.4087 97.6023 70.3235 97.9219 70.3235C97.9881 70.3235 98.0663 70.3258 98.1562 70.3306C98.2486 70.3353 98.3208 70.3412 98.3728 70.3483V71.364C98.3302 71.3521 98.2545 71.3391 98.1456 71.3249C98.0367 71.3083 97.9278 71.3 97.8189 71.3C97.5679 71.3 97.3442 71.3533 97.1477 71.4598C96.9536 71.564 96.7997 71.7096 96.6861 71.8966C96.5724 72.0813 96.5156 72.292 96.5156 72.5287V75.8597H95.4538ZM99.2917 75.8597V70.4052H100.311V71.2929H100.379C100.492 70.9923 100.678 70.7579 100.936 70.5898C101.194 70.4194 101.503 70.3341 101.863 70.3341C102.228 70.3341 102.533 70.4194 102.779 70.5898C103.028 70.7603 103.211 70.9946 103.33 71.2929H103.386C103.517 71.0017 103.724 70.7697 104.008 70.5969C104.292 70.4217 104.63 70.3341 105.023 70.3341C105.518 70.3341 105.922 70.4892 106.234 70.7993C106.549 71.1095 106.707 71.577 106.707 72.202V75.8597H105.645V72.3015C105.645 71.9321 105.544 71.6646 105.343 71.4989C105.142 71.3332 104.902 71.2503 104.622 71.2503C104.277 71.2503 104.008 71.3569 103.816 71.5699C103.624 71.7806 103.528 72.0517 103.528 72.3831V75.8597H102.47V72.234C102.47 71.9381 102.378 71.7001 102.193 71.5202C102.009 71.3403 101.768 71.2503 101.472 71.2503C101.271 71.2503 101.085 71.3036 100.915 71.4101C100.747 71.5143 100.611 71.6599 100.506 71.8469C100.405 72.0339 100.354 72.2506 100.354 72.4968V75.8597H99.2917ZM112.364 75.9804C112.018 75.9804 111.705 75.9165 111.426 75.7887C111.147 75.6585 110.925 75.4703 110.762 75.224C110.601 74.9778 110.521 74.676 110.521 74.3185C110.521 74.0107 110.58 73.7574 110.698 73.5586C110.817 73.3597 110.976 73.2023 111.178 73.0863C111.379 72.9703 111.604 72.8827 111.852 72.8235C112.101 72.7643 112.354 72.7193 112.612 72.6885C112.939 72.6507 113.204 72.6199 113.408 72.5962C113.611 72.5702 113.759 72.5287 113.852 72.4719C113.944 72.4151 113.99 72.3228 113.99 72.1949V72.1701C113.99 71.8599 113.902 71.6196 113.727 71.4492C113.554 71.2787 113.296 71.1935 112.953 71.1935C112.596 71.1935 112.314 71.2728 112.108 71.4314C111.904 71.5877 111.763 71.7617 111.685 71.9534L110.688 71.7262C110.806 71.3947 110.979 71.1272 111.206 70.9236C111.436 70.7177 111.7 70.5685 111.998 70.4762C112.296 70.3815 112.61 70.3341 112.939 70.3341C113.157 70.3341 113.388 70.3602 113.631 70.4123C113.878 70.462 114.107 70.5543 114.32 70.6892C114.536 70.8242 114.712 71.0171 114.849 71.2681C114.987 71.5167 115.055 71.8398 115.055 72.2375V75.8597H114.018V75.114H113.976C113.907 75.2513 113.804 75.3862 113.667 75.5188C113.53 75.6514 113.353 75.7615 113.138 75.849C112.922 75.9366 112.664 75.9804 112.364 75.9804ZM112.594 75.1282C112.888 75.1282 113.139 75.0702 113.347 74.9542C113.558 74.8382 113.718 74.6866 113.827 74.4996C113.938 74.3102 113.994 74.1078 113.994 73.8924V73.1892C113.956 73.2271 113.882 73.2626 113.773 73.2958C113.667 73.3266 113.545 73.3538 113.408 73.3775C113.27 73.3988 113.137 73.4189 113.006 73.4378C112.876 73.4544 112.767 73.4686 112.68 73.4804C112.474 73.5065 112.286 73.5503 112.115 73.6118C111.947 73.6734 111.812 73.7622 111.71 73.8782C111.611 73.9918 111.561 74.1433 111.561 74.3327C111.561 74.5955 111.658 74.7944 111.852 74.9293C112.046 75.0619 112.294 75.1282 112.594 75.1282ZM118.767 75.9698C118.239 75.9698 117.785 75.8502 117.404 75.6111C117.025 75.3696 116.734 75.037 116.53 74.6132C116.326 74.1895 116.225 73.7042 116.225 73.1573C116.225 72.6033 116.329 72.1144 116.537 71.6907C116.745 71.2645 117.039 70.9319 117.418 70.6928C117.797 70.4537 118.243 70.3341 118.757 70.3341C119.171 70.3341 119.54 70.4111 119.865 70.565C120.189 70.7165 120.45 70.9295 120.649 71.2042C120.851 71.4788 120.97 71.7996 121.008 72.1665H119.975C119.918 71.9108 119.788 71.6907 119.584 71.506C119.383 71.3213 119.113 71.229 118.774 71.229C118.478 71.229 118.219 71.3071 117.997 71.4634C117.776 71.6173 117.605 71.8374 117.482 72.1239C117.359 72.408 117.297 72.7442 117.297 73.1324C117.297 73.5302 117.357 73.8734 117.478 74.1623C117.599 74.4511 117.769 74.6748 117.99 74.8334C118.212 74.992 118.474 75.0713 118.774 75.0713C118.976 75.0713 119.158 75.0347 119.321 74.9613C119.487 74.8855 119.625 74.7778 119.737 74.6381C119.85 74.4984 119.93 74.3303 119.975 74.1338H121.008C120.97 74.4866 120.855 74.8015 120.664 75.0784C120.472 75.3554 120.215 75.5732 119.893 75.7319C119.573 75.8905 119.198 75.9698 118.767 75.9698ZM124.69 70.4052V71.2574H121.71V70.4052H124.69ZM122.509 69.0983H123.571V74.2581C123.571 74.4641 123.602 74.6192 123.663 74.7233C123.725 74.8251 123.804 74.895 123.901 74.9329C124.001 74.9684 124.108 74.9861 124.224 74.9861C124.31 74.9861 124.384 74.9802 124.448 74.9684C124.512 74.9565 124.562 74.9471 124.597 74.94L124.789 75.8171C124.728 75.8408 124.64 75.8644 124.526 75.8881C124.413 75.9141 124.271 75.9284 124.1 75.9307C123.821 75.9355 123.56 75.8857 123.319 75.7816C123.077 75.6774 122.882 75.5164 122.733 75.2986C122.584 75.0808 122.509 74.8074 122.509 74.4783V69.0983ZM125.864 75.8597V70.4052H126.926V75.8597H125.864ZM126.4 69.5635C126.216 69.5635 126.057 69.502 125.925 69.3789C125.794 69.2534 125.729 69.1043 125.729 68.9314C125.729 68.7562 125.794 68.6071 125.925 68.484C126.057 68.3585 126.216 68.2958 126.4 68.2958C126.585 68.2958 126.742 68.3585 126.873 68.484C127.005 68.6071 127.072 68.7562 127.072 68.9314C127.072 69.1043 127.005 69.2534 126.873 69.3789C126.742 69.502 126.585 69.5635 126.4 69.5635ZM130.652 75.9698C130.141 75.9698 129.694 75.8526 129.313 75.6182C128.932 75.3838 128.636 75.056 128.425 74.6346C128.215 74.2132 128.109 73.7207 128.109 73.1573C128.109 72.5915 128.215 72.0967 128.425 71.6729C128.636 71.2491 128.932 70.9201 129.313 70.6857C129.694 70.4513 130.141 70.3341 130.652 70.3341C131.163 70.3341 131.61 70.4513 131.991 70.6857C132.372 70.9201 132.668 71.2491 132.879 71.6729C133.089 72.0967 133.195 72.5915 133.195 73.1573C133.195 73.7207 133.089 74.2132 132.879 74.6346C132.668 75.056 132.372 75.3838 131.991 75.6182C131.61 75.8526 131.163 75.9698 130.652 75.9698ZM130.656 75.0784C130.987 75.0784 131.262 74.9909 131.479 74.8157C131.697 74.6405 131.858 74.4073 131.962 74.1161C132.069 73.8249 132.122 73.5041 132.122 73.1537C132.122 72.8057 132.069 72.4861 131.962 72.1949C131.858 71.9014 131.697 71.6658 131.479 71.4882C131.262 71.3107 130.987 71.2219 130.656 71.2219C130.322 71.2219 130.045 71.3107 129.825 71.4882C129.607 71.6658 129.445 71.9014 129.338 72.1949C129.234 72.4861 129.182 72.8057 129.182 73.1537C129.182 73.5041 129.234 73.8249 129.338 74.1161C129.445 74.4073 129.607 74.6405 129.825 74.8157C130.045 74.9909 130.322 75.0784 130.656 75.0784ZM135.442 72.6211V75.8597H134.38V70.4052H135.399V71.2929H135.466C135.592 71.0041 135.788 70.7721 136.056 70.5969C136.326 70.4217 136.666 70.3341 137.075 70.3341C137.447 70.3341 137.772 70.4123 138.052 70.5685C138.331 70.7224 138.548 70.952 138.702 71.2574C138.855 71.5628 138.932 71.9404 138.932 72.3902V75.8597H137.871V72.5181C137.871 72.1227 137.768 71.8138 137.562 71.5912C137.356 71.3663 137.073 71.2539 136.713 71.2539C136.467 71.2539 136.248 71.3071 136.056 71.4137C135.867 71.5202 135.716 71.6765 135.605 71.8824C135.496 72.086 135.442 72.3322 135.442 72.6211Z" fill="#343434"/>
<path d="M45.0206 52.2159C44.8629 52.2159 44.7276 52.1594 44.6147 52.0465C44.5018 51.9336 44.4453 51.7983 44.4453 51.6406C44.4453 51.4829 44.5018 51.3476 44.6147 51.2347C44.7276 51.1218 44.8629 51.0653 45.0206 51.0653C45.1783 51.0653 45.3136 51.1218 45.4265 51.2347C45.5394 51.3476 45.5959 51.4829 45.5959 51.6406C45.5959 51.745 45.5693 51.8409 45.516 51.9283C45.4649 52.0156 45.3956 52.0859 45.3082 52.1392C45.223 52.1903 45.1271 52.2159 45.0206 52.2159ZM46.9494 52.1648V47.2557H47.6781V47.9971H47.7292C47.8187 47.7542 47.9807 47.5572 48.215 47.4059C48.4494 47.2546 48.7136 47.179 49.0076 47.179C49.063 47.179 49.1323 47.18 49.2154 47.1822C49.2985 47.1843 49.3613 47.1875 49.404 47.1917V47.9588C49.3784 47.9524 49.3198 47.9428 49.2282 47.93C49.1387 47.9151 49.0439 47.9077 48.9437 47.9077C48.7051 47.9077 48.492 47.9577 48.3045 48.0579C48.1192 48.1559 47.9721 48.2922 47.8635 48.467C47.7569 48.6395 47.7037 48.8366 47.7037 49.0582V52.1648H46.9494ZM52.2069 52.267C51.7339 52.267 51.3258 52.1626 50.9828 51.9538C50.6419 51.7429 50.3787 51.4489 50.1934 51.0717C50.0101 50.6925 49.9185 50.2514 49.9185 49.7486C49.9185 49.2457 50.0101 48.8025 50.1934 48.419C50.3787 48.0334 50.6366 47.7329 50.9668 47.5177C51.2992 47.3004 51.687 47.1917 52.1302 47.1917C52.3858 47.1917 52.6383 47.2344 52.8876 47.3196C53.1369 47.4048 53.3638 47.5433 53.5684 47.7351C53.7729 47.9247 53.9359 48.1761 54.0574 48.4893C54.1788 48.8025 54.2395 49.1882 54.2395 49.6463V49.9659H50.4554V49.3139H53.4725C53.4725 49.0369 53.4171 48.7898 53.3063 48.5724C53.1976 48.3551 53.0421 48.1836 52.8397 48.0579C52.6394 47.9322 52.4029 47.8693 52.1302 47.8693C51.8297 47.8693 51.5698 47.9439 51.3503 48.093C51.133 48.24 50.9657 48.4318 50.8486 48.6683C50.7314 48.9048 50.6728 49.1584 50.6728 49.429V49.8636C50.6728 50.2344 50.7367 50.5486 50.8645 50.8065C50.9945 51.0621 51.1745 51.2571 51.4047 51.3913C51.6348 51.5234 51.9022 51.5895 52.2069 51.5895C52.405 51.5895 52.584 51.5618 52.7438 51.5064C52.9057 51.4489 53.0453 51.3636 53.1625 51.2507C53.2797 51.1356 53.3702 50.9929 53.4341 50.8224L54.1628 51.027C54.0861 51.2741 53.9572 51.4915 53.7761 51.679C53.595 51.8643 53.3713 52.0092 53.1049 52.1136C52.8386 52.2159 52.5393 52.267 52.2069 52.267ZM58.8642 48.3551L58.1866 48.5469C58.144 48.4339 58.0812 48.3242 57.9981 48.2177C57.9171 48.109 57.8063 48.0195 57.6657 47.9492C57.525 47.8789 57.345 47.8437 57.1255 47.8437C56.8251 47.8437 56.5748 47.913 56.3745 48.0515C56.1763 48.1878 56.0772 48.3615 56.0772 48.5724C56.0772 48.7599 56.1454 48.908 56.2818 49.0167C56.4182 49.1253 56.6312 49.2159 56.921 49.2883L57.6497 49.4673C58.0886 49.5739 58.4157 49.7368 58.6309 49.9563C58.8461 50.1736 58.9537 50.4538 58.9537 50.7969C58.9537 51.0781 58.8727 51.3295 58.7108 51.5511C58.551 51.7727 58.3272 51.9474 58.0396 52.0753C57.752 52.2031 57.4174 52.267 57.0361 52.267C56.5353 52.267 56.1209 52.1584 55.7928 51.941C55.4647 51.7237 55.2569 51.4062 55.1696 50.9886L55.8855 50.8096C55.9537 51.0739 56.0826 51.272 56.2722 51.4041C56.464 51.5362 56.7143 51.6023 57.0233 51.6023C57.3748 51.6023 57.654 51.5277 57.8606 51.3785C58.0694 51.2273 58.1738 51.0462 58.1738 50.8352C58.1738 50.6648 58.1142 50.522 57.9949 50.4069C57.8755 50.2898 57.6923 50.2024 57.4451 50.1449L56.627 49.9531C56.1774 49.8466 55.8471 49.6815 55.6362 49.4577C55.4274 49.2319 55.323 48.9496 55.323 48.6108C55.323 48.3338 55.4008 48.0888 55.5563 47.8757C55.714 47.6626 55.9281 47.4954 56.1987 47.3739C56.4714 47.2525 56.7804 47.1917 57.1255 47.1917C57.6113 47.1917 57.9927 47.2983 58.2697 47.5114C58.5488 47.7244 58.747 48.0057 58.8642 48.3551ZM63.1828 50.1577V47.2557H63.9371V52.1648H63.1828V51.3338H63.1317C63.0166 51.5831 62.8376 51.7951 62.5947 51.9698C62.3518 52.1424 62.045 52.2287 61.6743 52.2287C61.3675 52.2287 61.0947 52.1616 60.8561 52.0273C60.6175 51.891 60.43 51.6864 60.2936 51.4137C60.1572 51.1388 60.0891 50.7926 60.0891 50.375V47.2557H60.8433V50.3239C60.8433 50.6818 60.9435 50.9673 61.1437 51.1804C61.3462 51.3935 61.604 51.5 61.9172 51.5C62.1047 51.5 62.2954 51.452 62.4893 51.3562C62.6853 51.2603 62.8494 51.1133 62.9815 50.9151C63.1157 50.717 63.1828 50.4645 63.1828 50.1577ZM65.3185 52.1648V47.2557H66.0472V48.0227H66.1112C66.2134 47.7606 66.3786 47.5572 66.6065 47.4123C66.8345 47.2653 67.1083 47.1917 67.4279 47.1917C67.7518 47.1917 68.0213 47.2653 68.2365 47.4123C68.4538 47.5572 68.6232 47.7606 68.7447 48.0227H68.7958C68.9215 47.7692 69.1101 47.5678 69.3615 47.4187C69.6129 47.2674 69.9144 47.1917 70.266 47.1917C70.7049 47.1917 71.0639 47.3292 71.3431 47.604C71.6222 47.8768 71.7617 48.3018 71.7617 48.8792V52.1648H71.0075V48.8792C71.0075 48.517 70.9084 48.2582 70.7102 48.1026C70.5121 47.9471 70.2788 47.8693 70.0103 47.8693C69.6651 47.8693 69.3977 47.9737 69.2081 48.1825C69.0185 48.3892 68.9237 48.6513 68.9237 48.9687V52.1648H68.1566V48.8025C68.1566 48.5234 68.0661 48.2986 67.885 48.1282C67.7038 47.9556 67.4705 47.8693 67.185 47.8693C66.989 47.8693 66.8058 47.9215 66.6353 48.0259C66.467 48.1303 66.3306 48.2752 66.2262 48.4606C66.1239 48.6438 66.0728 48.8558 66.0728 49.0966V52.1648H65.3185ZM75.1991 52.267C74.726 52.267 74.318 52.1626 73.975 51.9538C73.6341 51.7429 73.3709 51.4489 73.1856 51.0717C73.0023 50.6925 72.9107 50.2514 72.9107 49.7486C72.9107 49.2457 73.0023 48.8025 73.1856 48.419C73.3709 48.0334 73.6287 47.7329 73.959 47.5177C74.2914 47.3004 74.6792 47.1917 75.1223 47.1917C75.378 47.1917 75.6305 47.2344 75.8798 47.3196C76.1291 47.4048 76.356 47.5433 76.5606 47.7351C76.7651 47.9247 76.9281 48.1761 77.0495 48.4893C77.171 48.8025 77.2317 49.1882 77.2317 49.6463V49.9659H73.4476V49.3139H76.4647C76.4647 49.0369 76.4093 48.7898 76.2985 48.5724C76.1898 48.3551 76.0343 48.1836 75.8319 48.0579C75.6316 47.9322 75.3951 47.8693 75.1223 47.8693C74.8219 47.8693 74.562 47.9439 74.3425 48.093C74.1252 48.24 73.9579 48.4318 73.8407 48.6683C73.7236 48.9048 73.665 49.1584 73.665 49.429V49.8636C73.665 50.2344 73.7289 50.5486 73.8567 50.8065C73.9867 51.0621 74.1667 51.2571 74.3968 51.3913C74.627 51.5234 74.8944 51.5895 75.1991 51.5895C75.3972 51.5895 75.5762 51.5618 75.736 51.5064C75.8979 51.4489 76.0375 51.3636 76.1547 51.2507C76.2718 51.1356 76.3624 50.9929 76.4263 50.8224L77.155 51.027C77.0783 51.2741 76.9494 51.4915 76.7683 51.679C76.5872 51.8643 76.3635 52.0092 76.0971 52.1136C75.8308 52.2159 75.5314 52.267 75.1991 52.267ZM78.6476 49.4034C78.6476 48.598 78.752 47.8576 78.9608 47.1822C79.1717 46.5046 79.4721 45.8814 79.862 45.3125H80.5268C80.3734 45.5234 80.2296 45.7834 80.0954 46.0923C79.9633 46.3991 79.8471 46.7368 79.747 47.1055C79.6468 47.4719 79.568 47.8512 79.5105 48.2432C79.4551 48.6353 79.4274 49.022 79.4274 49.4034C79.4274 49.9105 79.4764 50.4251 79.5744 50.9471C79.6724 51.4691 79.8045 51.9538 79.9707 52.4013C80.1369 52.8487 80.3223 53.2131 80.5268 53.4943H79.862C79.4721 52.9254 79.1717 52.3033 78.9608 51.6278C78.752 50.9503 78.6476 50.2088 78.6476 49.4034ZM83.2506 49.4034C83.2506 50.2088 83.1452 50.9503 82.9342 51.6278C82.7254 52.3033 82.4261 52.9254 82.0361 53.4943H81.3714C81.5248 53.2834 81.6675 53.0234 81.7996 52.7145C81.9339 52.4077 82.0511 52.071 82.1512 51.7045C82.2513 51.3359 82.3291 50.9556 82.3845 50.5636C82.442 50.1694 82.4708 49.7827 82.4708 49.4034C82.4708 48.8963 82.4218 48.3817 82.3238 47.8597C82.2258 47.3377 82.0937 46.853 81.9275 46.4055C81.7613 45.9581 81.5759 45.5937 81.3714 45.3125H82.0361C82.4261 45.8814 82.7254 46.5046 82.9342 47.1822C83.1452 47.8576 83.2506 48.598 83.2506 49.4034Z" fill="#343434"/>
<path fill-rule="evenodd" clip-rule="evenodd" d="M41.9755 96.1523C41.9755 95.6 42.4232 95.1523 42.9755 95.1523H67.7013C68.2536 95.1523 68.7013 95.6 68.7013 96.1523V120.726C68.7013 121.279 68.2536 121.726 67.7013 121.726H64.7013C64.1491 121.726 63.7013 121.279 63.7013 120.726V103.687L-21.2653 188.653L-24.8008 185.117L60.1657 100.152H42.9755C42.4232 100.152 41.9755 99.7045 41.9755 99.1523V96.1523Z" stroke="#343434" stroke-width="0.7"/>
<path d="M157.5 58.5547H45.148C43.6845 58.5547 42.498 59.7411 42.498 61.2047V83.4421C42.498 84.9056 43.6845 86.0921 45.148 86.0921H157.5C158.964 86.0921 160.15 84.9056 160.15 83.4421V61.2047C160.15 59.7411 158.964 58.5547 157.5 58.5547Z" stroke="#343434" stroke-width="0.7"/>
<path fill-rule="evenodd" clip-rule="evenodd" d="M110.935 45.0012H95.9492C95.3969 45.0012 94.9492 45.4489 94.9492 46.0012V49.0012C94.9492 49.5535 95.3969 50.0012 95.9492 50.0012H129.076C129.628 50.0012 130.076 49.5535 130.076 49.0012V46.0012C130.076 45.4489 129.628 45.0012 129.076 45.0012H118.006L151.58 11.4261L148.045 7.89062L110.935 45.0012Z" stroke="#343434" stroke-width="0.7"/>
</g>
</svg>
