<svg width="138" height="139" viewBox="0 0 138 139" fill="none" xmlns="http://www.w3.org/2000/svg">
<mask id="mask0_12215_10032" style="mask-type:luminance" maskUnits="userSpaceOnUse" x="0" y="0" width="138" height="139">
<path d="M138 0.753906H0V138.754H138V0.753906Z" fill="white"/>
</mask>
<g mask="url(#mask0_12215_10032)">
<path d="M126.968 166.858L125.379 137.851C124.712 125.693 116.202 115.388 104.389 112.434C93.6467 109.749 85.909 100.375 85.3079 89.3176L84.1545 68.103C83.5798 63.1525 84.275 59.9592 81.981 56.3269C79.588 52.538 73.9562 48.682 68.4503 48.6234C60.1618 48.5352 55.9957 51.0384 52.3609 54.942C48.8205 58.7444 47.2853 63.3205 46.9524 66.4998L46.381 71.3629L45.013 83.0047C44.9644 83.418 45.3362 83.7564 45.7424 83.6662C46.8331 83.4239 48.2208 83.1001 49.4213 82.7855C49.7651 82.6954 50.1154 82.9138 50.1812 83.2631L52.449 95.2939C52.5116 95.626 52.833 95.8433 53.1645 95.7777C55.7837 95.2597 58.6896 94.7021 62.1242 93.9244M62.1242 93.9244C65.3495 93.1941 66.6434 92.802 67.728 92.4534M62.1242 93.9244C62.8745 96.6477 63.313 101.714 62.178 104.208C60.9975 106.802 50.9176 113.193 41.2979 118.093C34.651 121.479 29.6025 127.685 28.6104 135.078L21.7344 186.32" stroke="#343434" stroke-width="0.7"/>
<path d="M66.6441 65.503L66.6624 70.753L69.1653 70.7539C69.8375 70.7539 70.233 71.4335 69.8503 71.9309L64.8511 78.429C64.386 79.0335 63.3328 78.7372 63.3328 78.002L63.3317 72.7579L60.8346 72.7584C60.1634 72.7584 59.7677 72.0805 60.1485 71.5829L65.1247 65.0799C65.5879 64.4746 66.6415 64.768 66.6441 65.503Z" fill="#343434"/>
<path fill-rule="evenodd" clip-rule="evenodd" d="M64.6183 30.9409V-7.4375H69.6183V30.9407L81.1204 19.4387C81.5109 19.0482 82.144 19.0482 82.5346 19.4387L84.6559 21.5599C85.0464 21.9504 85.0464 22.5837 84.6559 22.9742L67.8255 39.8046C67.435 40.1952 66.8018 40.1951 66.4113 39.8046L50.0664 23.4608C49.6759 23.0703 49.6758 22.4371 50.0664 22.0466L52.1875 19.9251C52.578 19.5346 53.2112 19.5346 53.6017 19.9251L64.6183 30.9409Z" stroke="#343434" stroke-width="0.7"/>
<path fill-rule="evenodd" clip-rule="evenodd" d="M96.9922 58.9961C96.9922 58.4439 97.4399 57.9961 97.9922 57.9961H100.992C101.544 57.9961 101.992 58.4439 101.992 58.9961V70.269C101.992 70.8213 102.44 71.269 102.992 71.269H163.322C163.874 71.269 164.322 71.7168 164.322 72.269V75.269C164.322 75.8213 163.874 76.269 163.322 76.269H102.992C102.44 76.269 101.992 76.7168 101.992 77.269V88.5419C101.992 89.0942 101.544 89.5419 100.992 89.5419H97.9922C97.4399 89.5419 96.9922 89.0942 96.9922 88.5419V58.9961Z" stroke="#343434" stroke-width="0.7"/>
</g>
</svg>
