<svg width="138" height="139" viewBox="0 0 138 139" fill="none" xmlns="http://www.w3.org/2000/svg">
<mask id="mask0_12215_9666" style="mask-type:luminance" maskUnits="userSpaceOnUse" x="0" y="0" width="138" height="139">
<path d="M138 0.753906H0V138.754H138V0.753906Z" fill="white"/>
</mask>
<g mask="url(#mask0_12215_9666)">
<path d="M133.61 163.006L131.912 132.023C131.201 119.037 122.111 108.029 109.493 104.875C98.0185 102.006 89.7536 91.9942 89.1116 80.1839L87.8797 57.524C87.2658 52.2362 88.0084 48.8254 85.5581 44.9457C83.002 40.8987 76.9865 36.7798 71.1056 36.7172C62.2524 36.6231 57.8024 39.2968 53.9201 43.4664C50.1385 47.5278 48.4987 52.4157 48.1431 55.8116L47.5327 61.0059L46.0715 73.441C46.0196 73.8824 46.4168 74.2439 46.8507 74.1476C48.0157 73.8888 49.4979 73.5428 50.7801 73.2067C51.1474 73.1105 51.5215 73.3438 51.5919 73.7169L54.0142 86.5675C54.081 86.9222 54.4244 87.1541 54.7785 87.0841C56.6894 86.7062 58.7432 86.3085 61.0223 85.8297M21.207 183.794L28.5515 129.062C29.6112 121.165 35.0046 114.535 42.1043 110.919C49.3342 107.236 56.8073 102.765 61.0409 99.4733" stroke="#343434" stroke-width="0.75"/>
<path d="M119.324 57.4409L119.352 65.9675C119.355 66.641 120.204 66.7705 120.375 66.1193C120.725 64.7958 121.028 63.3808 121.105 62.2775C121.26 60.0592 120.806 48.4222 120.559 42.881M119.324 57.4409L119.3 50.153C119.299 50.0686 119.317 49.9856 119.35 49.908C120.053 48.272 120.698 45.6931 120.559 42.881M119.324 57.4409C119.319 56.0179 116.741 53.5108 115.263 52.2702C115.124 52.1537 115.044 51.9833 115.044 51.8021L115.104 33.915C115.105 33.4257 115.657 33.1505 116.029 33.4687C119.243 36.2198 120.403 39.6996 120.559 42.881M10.3374 57.7594C9.73481 59.4495 9.16866 61.9907 9.17579 64.6599M9.17579 64.6599C9.18577 68.4003 10.3215 72.3919 14.0602 74.6447C14.2451 74.7561 14.3641 74.9547 14.3658 75.1706C14.4305 83.4159 14.4035 90.4108 14.3748 93.7688C14.3707 94.2409 13.8597 94.5007 13.5077 94.1861C11.8526 92.7069 9.46572 89.541 8.81205 84.7444C8.80738 84.7101 8.80573 84.6752 8.80712 84.6406C9.11206 77.0608 9.17999 68.1664 9.17579 64.6599ZM68.1325 36.6994V26.4632C68.1325 26.0896 67.7982 25.8062 67.4307 25.8733C62.0346 26.8586 52.0475 28.9136 49.1613 30.3769C48.9742 30.4717 48.8672 30.6647 48.8672 30.8745C48.8672 34.8328 48.8672 44.19 48.8672 49.298C48.8672 49.7475 49.3433 50.0373 49.7426 49.8309L49.8051 49.7986M82.7535 41.7385L82.4258 25.0243C82.4192 24.6854 82.6914 24.4081 83.0303 24.4142C88.1344 24.5067 97.9745 25.0044 101.955 26.3677C102.194 26.4496 102.344 26.6801 102.336 26.9325C102.14 33.4186 102.238 41.434 102.329 45.4081C102.338 45.8233 101.934 46.1234 101.535 46.0103C98.642 45.1912 92.5124 43.9812 84.9791 43.9371M19.1378 64.7867C19.0758 59.2276 18.9932 49.7541 19.0532 46.7001C19.0564 46.5378 19.1248 46.3883 19.2452 46.2794C23.7332 42.2202 30.973 38.201 34.7813 36.3218C35.1784 36.1258 35.6353 36.421 35.631 36.8638L35.4526 55.2457C35.4502 55.4904 35.2992 55.7088 35.0722 55.8006C28.6906 58.3801 23.0288 62.6846 20.1835 65.2314C19.7892 65.5843 19.1437 65.3158 19.1378 64.7867ZM110.51 62.4309C110.465 65.9321 110.401 72.7379 110.4 80.2953C110.4 80.4443 110.347 80.5866 110.245 80.6952C106.879 84.2817 99.0346 88.8158 94.761 91.0437C94.3637 91.2508 93.8934 90.9593 93.8949 90.5113L93.9548 72.2634C93.9556 72.0328 94.0891 71.8231 94.2966 71.7226C100.968 68.4928 106.656 64.3164 109.485 61.9559C109.888 61.6197 110.517 61.9062 110.51 62.4309ZM80.6119 77.9249C80.6303 81.5717 80.638 89.1718 80.5479 96.3147C80.5449 96.5567 80.3982 96.7728 80.1718 96.8582C75.9468 98.452 66.7082 100.347 61.898 101.23C61.5304 101.297 61.1964 101.013 61.1964 100.64V82.3597C61.1964 82.0517 61.4298 81.7942 61.7356 81.7575C67.0758 81.1167 75.513 78.7162 79.8289 77.3577C80.2157 77.2359 80.6099 77.5194 80.6119 77.9249ZM46.8169 83.697C46.8228 85.6076 46.8526 91.0385 46.9399 101.927C46.9425 102.252 46.6821 102.526 46.3566 102.535C36.2984 102.806 29.8285 101.442 27.4537 100.596C27.2244 100.514 27.0802 100.295 27.0802 100.052V81.7683C27.0802 81.3353 27.5262 81.0373 27.9383 81.1698C32.1235 82.5154 41.3592 83.0071 46.226 83.0977C46.5543 83.1038 46.8159 83.3686 46.8169 83.697Z" stroke="#343434" stroke-width="0.7" stroke-linecap="round"/>
<path d="M67.9262 91.6855L69.9985 90.4383L70.0331 90.3296L69.9985 90.2696H69.8971L69.5504 90.2467L68.3663 90.2124L67.3395 90.1666L66.3447 90.1094L66.094 90.0522L65.8594 89.7203L65.8834 89.5544L66.094 89.4028L66.3954 89.4314L67.0621 89.4801L68.0623 89.5544L68.7877 89.6002L69.8624 89.7203H70.0331L70.0571 89.646L69.9985 89.6002L69.9531 89.5544L68.9183 88.8021L67.7982 88.0069L67.2115 87.5492L66.8941 87.3175L66.7341 87.1001L66.6648 86.6252L66.9528 86.2848L67.3395 86.3134L67.4382 86.342L67.8302 86.6653L68.6676 87.3604L69.7611 88.2243L69.9211 88.3673L69.9851 88.3187L69.9931 88.2843L69.9211 88.1556L69.3264 87.0028L68.6916 85.83L68.409 85.3437L68.3343 85.0519C68.3076 84.9318 68.2889 84.8317 68.2889 84.7087L68.617 84.2309L68.7983 84.168L69.2357 84.2309L69.4197 84.4026L69.6918 85.0691L70.1318 86.1189L70.8145 87.5463L71.0146 87.9697L71.1212 88.3616L71.1612 88.4817H71.2306V88.4131L71.2866 87.6093L71.3906 86.6224L71.4919 85.3523L71.5266 84.9947L71.692 84.5656L72.02 84.3339L72.276 84.4655L72.4867 84.7888L72.4574 84.9976L72.332 85.87L72.0867 87.2374L71.9267 88.1528H72.02L72.1267 88.0383L72.5587 87.4233L73.2841 86.4507L73.6042 86.0646L73.9775 85.6383L74.2176 85.4352H74.6709L75.0043 85.9673L74.855 86.5165L74.3882 87.1516L74.0015 87.6893L73.4468 88.4903L73.1001 89.1311L73.1321 89.1826L73.2148 89.174L74.4682 88.8879L75.1457 88.7563L75.9537 88.6076L76.3191 88.7907L76.3591 88.9766L76.2151 89.357L75.351 89.5859L74.3376 89.8033L72.8281 90.1866L72.8094 90.2009L72.8307 90.2295L73.5108 90.2982L73.8015 90.3153H74.5136L75.8391 90.4212L76.1858 90.6672L76.3938 90.9675L76.3591 91.1964L75.8257 91.4882L75.1056 91.3051L73.4255 90.876L72.8494 90.7215H72.7694V90.773L73.2495 91.2765L74.1295 92.1289L75.231 93.2274L75.287 93.4991L75.1457 93.7137L74.9963 93.6908L74.0282 92.9099L73.6548 92.558L72.8094 91.7942H72.7534V91.8743L72.9481 92.1804L73.9775 93.8395L74.0309 94.3487L73.9562 94.5146L73.6895 94.6147L73.3961 94.5575L72.7934 93.6507L72.172 92.6295L71.6706 91.7141L71.6093 91.7513L71.3133 95.1697L71.1746 95.3442L70.8545 95.4758L70.5878 95.2584L70.4465 94.9065L70.5878 94.2114L70.7585 93.3046L70.8972 92.5837L71.0226 91.6884L71.0972 91.3909L71.0919 91.3709L71.0306 91.3795L70.4012 92.3063L69.4437 93.6936L68.6863 94.5632L68.505 94.6405L68.1903 94.466L68.2196 94.1542L68.3956 93.8767L69.4437 92.4464L70.0758 91.5597L70.4838 91.0476L70.4812 90.9733H70.4572L67.6729 92.9127L67.1768 92.9814L66.9635 92.7668L66.9901 92.415L67.0915 92.3006L67.9289 91.6827L67.9262 91.6855Z" fill="#343434"/>
<path d="M23.231 54.3539C24.7332 53.0111 27.6958 49.4066 27.8984 45.3633C28.0361 47.8877 29.4561 49.1696 32.0199 47.3158C30.6131 48.5583 27.7166 52.1398 27.3853 56.5259C26.9317 53.7649 27.2078 54.4748 26.3992 53.6662C25.6342 52.9013 23.9285 53.7504 23.231 54.3539Z" fill="#343434"/>
<path d="M100.963 72.9884C98.9615 74.4891 98.4363 76.923 98.4239 77.9524C98.38 78.4514 98.5614 79.4796 99.6375 79.6008C100.983 79.7524 104.071 75.641 105.019 74.4852C105.966 73.3295 106.932 71.6053 106.345 70.3169C105.757 69.0285 103.465 71.1127 100.963 72.9884Z" fill="#343434"/>
<path d="M103.201 77.4017C102.049 78.7052 101.7 79.7104 101.78 80.9258C101.81 81.5544 102.064 81.5776 102.518 81.7595C103.087 81.9868 105.36 79.8648 105.929 79.0311C106.497 78.1975 106.876 76.568 106.289 75.6018C105.702 74.6355 104.641 75.7723 103.201 77.4017Z" fill="#343434"/>
<path d="M99.2217 84.263C100.525 84.2479 101.249 82.5091 101.268 81.1368C101.275 80.6598 101.098 80.2141 100.734 80.0379C99.8857 79.6269 99.054 80.8825 98.7481 81.5536C98.3628 82.4631 97.9182 84.2782 99.2217 84.263Z" fill="#343434"/>
<path fill-rule="evenodd" clip-rule="evenodd" d="M55.9648 41.1487L53.2148 41.9375V40.3599L54.9149 39.8947V33.7667L56.5936 33.2409V34.7779L58.1913 34.2926V35.8296L59.7486 35.3644V33.8881L61.3867 33.342V31.7847L63.0047 31.3398V37.4679L61.3261 38.0139V36.4364L59.7688 36.9218V38.4791L58.1104 38.9443V40.178L55.9648 41.1487ZM58.1508 37.4881V38.7825L57.9688 38.8027L57.989 38.9847L56.5936 39.3488V37.9533L58.1508 37.4881Z" fill="#343434"/>
<path d="M41.7944 91.0614C42.0551 90.2184 41.9682 89.2835 41.5481 88.5172C40.9107 87.337 39.6215 86.7393 38.3612 87.0152C37.8107 86.3561 36.9995 85.9883 36.1593 85.9883C34.8701 85.9883 33.7401 86.8619 33.3345 88.1493C32.5088 88.3333 31.799 88.8697 31.3789 89.6513C30.7415 90.8315 30.8864 92.3028 31.7411 93.3144C31.4803 94.1726 31.5817 95.0922 32.0018 95.8585C32.6392 97.0387 33.9285 97.6517 35.1887 97.3605C35.7537 98.0196 36.5504 98.4027 37.3906 98.4027C38.6799 98.4027 39.8098 97.5291 40.2154 96.2417C41.0411 96.0578 41.7509 95.5214 42.171 94.7397C42.8084 93.5596 42.6635 92.0729 41.7944 91.0614ZM37.3906 97.5904C36.8691 97.5904 36.3766 97.4065 35.9855 97.054C36 97.0387 36.0434 97.0234 36.0579 97.008L38.3901 95.5827C38.506 95.506 38.5785 95.3834 38.5785 95.2302V91.7511L39.5635 92.3488C39.578 92.3488 39.578 92.3641 39.578 92.3794V95.2608C39.5925 96.5482 38.6074 97.5904 37.3906 97.5904ZM32.6682 95.4601C32.4074 94.9849 32.3205 94.4332 32.4074 93.8968C32.4219 93.9121 32.4509 93.9274 32.4799 93.9427L34.8121 95.3681C34.928 95.4447 35.0729 95.4447 35.1887 95.3681L38.0425 93.6209V94.8317C38.0425 94.847 38.0425 94.8623 38.028 94.8623L35.6668 96.303C34.6238 96.9467 33.2766 96.5636 32.6682 95.4601ZM32.0598 90.0651C32.3205 89.59 32.7261 89.2375 33.2042 89.0383V91.981C33.2042 92.1189 33.2766 92.2568 33.3925 92.3335L36.2462 94.0807L35.2612 94.6784C35.2467 94.6784 35.2322 94.6937 35.2322 94.6784L32.871 93.2377C31.799 92.594 31.4514 91.1687 32.0598 90.0651ZM40.1719 92.0576L37.3182 90.3104L38.3032 89.7126C38.3177 89.7126 38.3322 89.6973 38.3322 89.7126L40.6934 91.1533C41.7509 91.797 42.0986 93.2224 41.4901 94.3259C41.2294 94.801 40.8238 95.1535 40.3458 95.3374V92.4101C40.3602 92.2722 40.2878 92.1342 40.1719 92.0576ZM41.1425 90.4943C41.128 90.479 41.099 90.4636 41.0701 90.4483L38.7378 89.023C38.6219 88.9463 38.4771 88.9463 38.3612 89.023L35.5074 90.7702V89.5594C35.5074 89.544 35.5074 89.5287 35.5219 89.5287L37.8831 88.088C38.9406 87.4443 40.2733 87.8275 40.8817 88.9463C41.1425 89.4061 41.2294 89.9579 41.1425 90.4943ZM34.9715 92.64L33.9864 92.0423C33.9719 92.0423 33.9719 92.0269 33.9719 92.0116V89.1302C33.9719 87.8428 34.957 86.8006 36.1738 86.8006C36.6953 86.8006 37.1878 86.9845 37.5789 87.337C37.5644 87.3524 37.5355 87.3677 37.5065 87.383L35.1743 88.8084C35.0584 88.885 34.9859 89.0076 34.9859 89.1609V92.64H34.9715ZM35.5074 91.4139L36.7822 90.6322L38.057 91.4139V92.9618L36.7822 93.7435L35.5074 92.9618V91.4139Z" fill="#343434"/>
<path d="M96.6541 42.2883C96.7177 41.7894 96.7405 40.6517 96.322 40.0919C96.6972 39.2581 97.2644 37.8775 96.3626 36.3212C96.9069 35.2327 97.2828 33.9032 96.3334 32.8906C96.1851 32.7324 95.9324 32.5344 95.7514 32.4486M95.7514 32.4486C95.1285 32.1534 94.5691 32.0075 94.3236 31.9673C94.2518 31.7522 94.0564 31.5592 93.8292 31.2746M95.7514 32.4486C95.8962 31.3293 95.945 29.0362 94.9809 28.8185C94.0168 28.6008 93.795 30.3988 93.8292 31.2746M87.5791 41.4914C86.9182 40.6751 87.9289 39.3145 87.9678 39.1201C88.0067 38.9257 87.6026 38.6993 87.4082 37.5137C87.2527 36.5652 87.6556 35.7057 87.8494 35.5048C87.6868 35.4206 87.3692 34.8517 87.4003 33.2501C87.4164 32.4201 87.8862 31.9614 88.4543 31.7247M88.4543 31.7247C88.9823 31.5047 89.5952 31.4765 90.0077 31.5202C90.035 31.3431 90.1364 31.0908 90.3501 30.8567M88.4543 31.7247C88.2974 30.4839 88.244 28.0682 89.2859 28.3326C90.3277 28.5969 90.4294 30.1255 90.3501 30.8567M90.3501 30.8567C90.6444 30.5343 91.1152 30.3954 91.935 30.3864C92.8281 30.3766 93.4406 30.7878 93.8292 31.2746M91.8173 35.4483L92.0741 35.7265M92.0741 35.7265L92.3845 35.4269M92.0741 35.7265L92.0955 36.2402M94.6746 34.6778L95.0064 35.1272M89.7733 34.1427L89.1419 34.6778M91.8708 34.2283C92.6342 34.2604 94.116 34.6457 93.9362 35.9298C93.7564 37.214 92.5272 37.2283 91.935 37.0749C91.325 37.0428 90.1393 36.679 90.2763 35.4804C90.4133 34.2818 91.3964 34.1462 91.8708 34.2283Z" stroke="#343434" stroke-width="0.7" stroke-linecap="round"/>
</g>
</svg>
