<svg width="138" height="139" viewBox="0 0 138 139" fill="none" xmlns="http://www.w3.org/2000/svg">
<mask id="mask0_12215_10001" style="mask-type:luminance" maskUnits="userSpaceOnUse" x="0" y="0" width="138" height="139">
<path d="M138 0.753906H0V138.754H138V0.753906Z" fill="white"/>
</mask>
<g mask="url(#mask0_12215_10001)">
<path d="M43.6021 11.7882C43.895 12.0811 44.3698 12.0811 44.6627 11.7882L49.4357 7.01526C49.7286 6.72237 49.7286 6.24751 49.4357 5.95461C49.1428 5.66172 48.6679 5.66172 48.3751 5.95461L44.1324 10.1972L39.8898 5.95461C39.5969 5.66172 39.122 5.66172 38.8291 5.95461C38.5362 6.24751 38.5362 6.72237 38.8291 7.01526L43.6021 11.7882ZM43.3824 -10.8477V11.2579H44.8824V-10.8477H43.3824Z" fill="#343434"/>
<path d="M44.8824 36.8867C44.8824 36.4725 44.5466 36.1367 44.1324 36.1367C43.7182 36.1367 43.3824 36.4725 43.3824 36.8867H44.8824ZM43.6021 49.9503C43.895 50.2432 44.3698 50.2432 44.6627 49.9503L49.4357 45.1774C49.7286 44.8845 49.7286 44.4096 49.4357 44.1167C49.1428 43.8238 48.6679 43.8238 48.3751 44.1167L44.1324 48.3594L39.8898 44.1167C39.5969 43.8238 39.122 43.8238 38.8291 44.1167C38.5362 44.4096 38.5362 44.8845 38.8291 45.1774L43.6021 49.9503ZM43.3824 36.8867V49.42H44.8824V36.8867H43.3824Z" fill="#343434"/>
<path d="M44.8824 75.7734C44.8824 75.3592 44.5466 75.0234 44.1324 75.0234C43.7182 75.0234 43.3824 75.3592 43.3824 75.7734H44.8824ZM43.6021 88.837C43.895 89.1299 44.3698 89.1299 44.6627 88.837L49.4357 84.064C49.7286 83.7711 49.7286 83.2962 49.4357 83.0034C49.1428 82.7105 48.6679 82.7105 48.3751 83.0034L44.1324 87.246L39.8898 83.0034C39.5969 82.7105 39.122 82.7105 38.8291 83.0034C38.5362 83.2962 38.5362 83.7711 38.8291 84.064L43.6021 88.837ZM43.3824 75.7734V88.3067H44.8824V75.7734H43.3824Z" fill="#343434"/>
<path d="M45.2198 19.3272L45.2358 23.921L47.4259 23.9218C48.0141 23.9218 48.3601 24.5165 48.0253 24.9517L43.6509 30.6375C43.244 31.1664 42.3225 30.9072 42.3225 30.2639L42.3215 25.6754L40.1366 25.6757C39.5493 25.6757 39.203 25.0826 39.5362 24.6472L43.8904 18.9571C44.2956 18.4274 45.2175 18.6841 45.2198 19.3272Z" fill="#343434"/>
<path d="M45.2198 56.6046L45.2358 61.1983L47.4259 61.1992C48.0141 61.1992 48.3601 61.7938 48.0253 62.2291L43.6509 67.9148C43.244 68.4438 42.3225 68.1845 42.3225 67.5412L42.3215 62.9527L40.1366 62.953C39.5493 62.953 39.203 62.3599 39.5362 61.9245L43.8904 56.2344C44.2956 55.7048 45.2175 55.9615 45.2198 56.6046Z" fill="#343434"/>
<path d="M44.8855 101.291L44.8867 101.64H45.2354L47.4254 101.641C47.5973 101.641 47.7146 101.725 47.7689 101.819C47.8207 101.908 47.8223 102.01 47.7476 102.107L43.3732 107.793C43.273 107.923 43.0995 107.971 42.9286 107.922C42.7582 107.875 42.6722 107.76 42.6722 107.633L42.6712 103.044L42.6711 102.694H42.3212L40.1363 102.695C39.9647 102.695 39.8475 102.61 39.7931 102.517C39.7413 102.429 39.7395 102.326 39.8138 102.229L44.168 96.5389C44.2677 96.4086 44.4409 96.361 44.612 96.4087C44.7826 96.4562 44.8691 96.5708 44.8695 96.6976L44.8855 101.291Z" stroke="#343434" stroke-width="0.7"/>
<path d="M65.8485 104.111C66.8694 104.111 67.697 103.283 67.697 102.263C67.697 101.242 66.8694 100.414 65.8485 100.414C64.8276 100.414 64 101.242 64 102.263C64 103.283 64.8276 104.111 65.8485 104.111Z" fill="#343434"/>
<path d="M72.1024 104.111C73.1233 104.111 73.9509 103.283 73.9509 102.263C73.9509 101.242 73.1233 100.414 72.1024 100.414C71.0815 100.414 70.2539 101.242 70.2539 102.263C70.2539 103.283 71.0815 104.111 72.1024 104.111Z" fill="#343434"/>
<path d="M78.3602 104.111C79.3811 104.111 80.2088 103.283 80.2088 102.263C80.2088 101.242 79.3811 100.414 78.3602 100.414C77.3393 100.414 76.5117 101.242 76.5117 102.263C76.5117 103.283 77.3393 104.111 78.3602 104.111Z" fill="#343434"/>
<path d="M69.1122 23.3949C69.08 23.1091 68.9472 22.8878 68.7137 22.7308C68.4803 22.5718 68.1865 22.4924 67.8324 22.4924C67.5788 22.4924 67.3595 22.5326 67.1743 22.6131C66.9892 22.6916 66.8453 22.8002 66.7427 22.9391C66.6421 23.0759 66.5918 23.2319 66.5918 23.4069C66.5918 23.5538 66.626 23.6806 66.6944 23.7873C66.7648 23.8939 66.8564 23.9835 66.9691 24.0559C67.0838 24.1264 67.2065 24.1857 67.3373 24.234C67.4681 24.2803 67.5939 24.3185 67.7146 24.3487L68.3183 24.5057C68.5155 24.554 68.7178 24.6194 68.925 24.7019C69.1323 24.7844 69.3245 24.893 69.5016 25.0279C69.6786 25.1627 69.8215 25.3297 69.9302 25.5289C70.0409 25.7281 70.0962 25.9666 70.0962 26.2443C70.0962 26.5944 70.0056 26.9054 69.8245 27.177C69.6454 27.4487 69.3848 27.663 69.0428 27.8199C68.7027 27.9769 68.2912 28.0554 67.8082 28.0554C67.3454 28.0554 66.9449 27.9819 66.6069 27.835C66.2688 27.6881 66.0042 27.4799 65.813 27.2102C65.6218 26.9386 65.5162 26.6166 65.4961 26.2443H66.4318C66.4499 26.4677 66.5223 26.6538 66.6491 26.8027C66.7779 26.9496 66.9419 27.0593 67.1411 27.1317C67.3424 27.2022 67.5627 27.2374 67.8022 27.2374C68.0658 27.2374 68.3002 27.1961 68.5055 27.1136C68.7127 27.0291 68.8757 26.9124 68.9945 26.7635C69.1132 26.6126 69.1726 26.4365 69.1726 26.2353C69.1726 26.0521 69.1202 25.9022 69.0156 25.7855C68.913 25.6688 68.7731 25.5722 68.596 25.4957C68.421 25.4193 68.2227 25.3518 68.0014 25.2935L67.2709 25.0943C66.7759 24.9594 66.3835 24.7612 66.0937 24.4996C65.806 24.238 65.6621 23.8919 65.6621 23.4613C65.6621 23.1051 65.7587 22.7942 65.9518 22.5286C66.145 22.263 66.4066 22.0567 66.7366 21.9098C67.0667 21.7609 67.4389 21.6864 67.8535 21.6864C68.272 21.6864 68.6413 21.7599 68.9613 21.9068C69.2832 22.0537 69.5368 22.2559 69.7219 22.5135C69.907 22.769 70.0036 23.0628 70.0117 23.3949H69.1122ZM73.0913 28.0463C72.6425 28.0463 72.2562 27.9447 71.9322 27.7415C71.6102 27.5362 71.3627 27.2535 71.1896 26.8933C71.0166 26.5331 70.9301 26.1205 70.9301 25.6557C70.9301 25.1848 71.0186 24.7693 71.1957 24.4091C71.3728 24.0469 71.6223 23.7641 71.9443 23.5609C72.2662 23.3576 72.6455 23.256 73.0822 23.256C73.4344 23.256 73.7483 23.3214 74.024 23.4522C74.2997 23.581 74.522 23.7621 74.6911 23.9955C74.8621 24.229 74.9637 24.5016 74.9959 24.8136H74.1176C74.0693 24.5962 73.9586 24.4091 73.7855 24.2521C73.6145 24.0952 73.3851 24.0167 73.0973 24.0167C72.8458 24.0167 72.6254 24.0831 72.4363 24.2159C72.2491 24.3467 72.1032 24.5338 71.9986 24.7773C71.8939 25.0188 71.8416 25.3046 71.8416 25.6346C71.8416 25.9726 71.8929 26.2644 71.9956 26.5099C72.0982 26.7554 72.2431 26.9456 72.4302 27.0804C72.6194 27.2152 72.8417 27.2827 73.0973 27.2827C73.2684 27.2827 73.4233 27.2515 73.5622 27.1891C73.703 27.1247 73.8207 27.0331 73.9153 26.9144C74.0119 26.7957 74.0793 26.6528 74.1176 26.4858H74.9959C74.9637 26.7856 74.8661 27.0533 74.7031 27.2887C74.5401 27.5241 74.3218 27.7093 74.0481 27.8441C73.7765 27.9789 73.4575 28.0463 73.0913 28.0463ZM75.9611 27.9528V23.3164H76.8334V24.0529H76.8817C76.9662 23.8034 77.1151 23.6072 77.3284 23.4643C77.5438 23.3194 77.7873 23.247 78.0589 23.247C78.1153 23.247 78.1817 23.249 78.2581 23.253C78.3366 23.257 78.398 23.2621 78.4423 23.2681V24.1314C78.406 24.1213 78.3416 24.1103 78.2491 24.0982C78.1565 24.0841 78.0639 24.077 77.9714 24.077C77.7581 24.077 77.5679 24.1223 77.4009 24.2129C77.2359 24.3014 77.1051 24.4252 77.0085 24.5842C76.9119 24.7411 76.8636 24.9202 76.8636 25.1214V27.9528H75.9611ZM80.531 28.0554C80.2372 28.0554 79.9716 28.0011 79.7342 27.8924C79.4967 27.7817 79.3086 27.6217 79.1697 27.4125C79.0329 27.2032 78.9645 26.9466 78.9645 26.6427C78.9645 26.3811 79.0148 26.1658 79.1154 25.9968C79.216 25.8278 79.3518 25.6939 79.5229 25.5953C79.6939 25.4967 79.8851 25.4223 80.0964 25.372C80.3077 25.3217 80.523 25.2834 80.7423 25.2573C81.02 25.2251 81.2454 25.1989 81.4185 25.1788C81.5915 25.1567 81.7173 25.1214 81.7958 25.0731C81.8743 25.0248 81.9135 24.9464 81.9135 24.8377V24.8166C81.9135 24.553 81.839 24.3487 81.6901 24.2038C81.5432 24.0589 81.3239 23.9865 81.0321 23.9865C80.7282 23.9865 80.4888 24.0539 80.3137 24.1887C80.1406 24.3215 80.0209 24.4694 79.9545 24.6324L79.1063 24.4393C79.2069 24.1575 79.3538 23.9301 79.547 23.7571C79.7422 23.582 79.9666 23.4552 80.2201 23.3768C80.4737 23.2963 80.7403 23.256 81.02 23.256C81.2052 23.256 81.4014 23.2782 81.6086 23.3224C81.8179 23.3647 82.0131 23.4432 82.1942 23.5579C82.3773 23.6726 82.5272 23.8366 82.644 24.0499C82.7607 24.2612 82.819 24.5359 82.819 24.8739V27.9528H81.9376V27.3189H81.9014C81.8431 27.4356 81.7555 27.5503 81.6388 27.663C81.5221 27.7757 81.3722 27.8692 81.1891 27.9437C81.0059 28.0182 80.7866 28.0554 80.531 28.0554ZM80.7272 27.331C80.9768 27.331 81.1901 27.2817 81.3672 27.183C81.5462 27.0844 81.6821 26.9557 81.7746 26.7967C81.8692 26.6357 81.9165 26.4636 81.9165 26.2805V25.6829C81.8843 25.7151 81.8219 25.7453 81.7294 25.7734C81.6388 25.7996 81.5352 25.8227 81.4185 25.8429C81.3018 25.861 81.1881 25.8781 81.0774 25.8942C80.9667 25.9083 80.8741 25.9203 80.7997 25.9304C80.6246 25.9525 80.4646 25.9897 80.3197 26.0421C80.1769 26.0944 80.0622 26.1699 79.9756 26.2685C79.8911 26.365 79.8489 26.4938 79.8489 26.6548C79.8489 26.8782 79.9314 27.0472 80.0964 27.1619C80.2614 27.2746 80.4717 27.331 80.7272 27.331ZM84.0211 29.6914V23.3164H84.9025V24.068H84.978C85.0303 23.9714 85.1058 23.8597 85.2044 23.7329C85.303 23.6062 85.4398 23.4955 85.6149 23.4009C85.79 23.3043 86.0214 23.256 86.3091 23.256C86.6834 23.256 87.0175 23.3506 87.3113 23.5398C87.6051 23.7289 87.8355 24.0016 88.0025 24.3578C88.1715 24.7139 88.256 25.1426 88.256 25.6436C88.256 26.1447 88.1725 26.5743 88.0055 26.9325C87.8385 27.2887 87.6091 27.5634 87.3173 27.7566C87.0255 27.9477 86.6925 28.0433 86.3182 28.0433C86.0365 28.0433 85.8061 27.996 85.627 27.9014C85.4499 27.8069 85.311 27.6962 85.2104 27.5694C85.1098 27.4426 85.0323 27.3299 84.978 27.2313H84.9237V29.6914H84.0211ZM84.9055 25.6346C84.9055 25.9606 84.9528 26.2463 85.0474 26.4918C85.142 26.7373 85.2788 26.9295 85.4579 27.0683C85.637 27.2052 85.8564 27.2736 86.116 27.2736C86.3856 27.2736 86.611 27.2022 86.7921 27.0593C86.9732 26.9144 87.11 26.7182 87.2026 26.4707C87.2972 26.2232 87.3445 25.9445 87.3445 25.6346C87.3445 25.3287 87.2982 25.054 87.2056 24.8105C87.1151 24.567 86.9782 24.3749 86.7951 24.234C86.614 24.0931 86.3876 24.0227 86.116 24.0227C85.8544 24.0227 85.633 24.0901 85.4519 24.225C85.2728 24.3598 85.137 24.5479 85.0444 24.7894C84.9518 25.0309 84.9055 25.3126 84.9055 25.6346ZM89.2672 27.9528V23.3164H90.1698V27.9528H89.2672ZM89.723 22.601C89.5661 22.601 89.4312 22.5487 89.3185 22.4441C89.2079 22.3374 89.1525 22.2106 89.1525 22.0637C89.1525 21.9148 89.2079 21.788 89.3185 21.6834C89.4312 21.5768 89.5661 21.5234 89.723 21.5234C89.88 21.5234 90.0138 21.5768 90.1245 21.6834C90.2372 21.788 90.2935 21.9148 90.2935 22.0637C90.2935 22.2106 90.2372 22.3374 90.1245 22.4441C90.0138 22.5487 89.88 22.601 89.723 22.601ZM92.2865 25.1999V27.9528H91.3839V23.3164H92.2502V24.071H92.3076C92.4142 23.8255 92.5813 23.6283 92.8086 23.4794C93.0381 23.3305 93.3268 23.256 93.6749 23.256C93.9909 23.256 94.2676 23.3224 94.505 23.4552C94.7425 23.586 94.9266 23.7812 95.0574 24.0408C95.1882 24.3004 95.2536 24.6214 95.2536 25.0037V27.9528H94.3511V25.1124C94.3511 24.7763 94.2635 24.5137 94.0885 24.3246C93.9134 24.1334 93.6729 24.0378 93.3671 24.0378C93.1578 24.0378 92.9716 24.0831 92.8086 24.1736C92.6477 24.2642 92.5199 24.397 92.4253 24.5721C92.3327 24.7451 92.2865 24.9544 92.2865 25.1999ZM98.4079 29.788C98.0396 29.788 97.7227 29.7397 97.4571 29.6431C97.1935 29.5465 96.9782 29.4187 96.8111 29.2598C96.6441 29.1008 96.5193 28.9267 96.4368 28.7376L97.2126 28.4176C97.2669 28.5061 97.3394 28.5997 97.4299 28.6983C97.5225 28.7989 97.6472 28.8845 97.8042 28.9549C97.9632 29.0253 98.1674 29.0605 98.417 29.0605C98.7591 29.0605 99.0418 28.977 99.2651 28.81C99.4885 28.645 99.6002 28.3814 99.6002 28.0192V27.1076H99.5428C99.4885 27.2062 99.41 27.3159 99.3074 27.4366C99.2068 27.5573 99.0679 27.662 98.8909 27.7505C98.7138 27.8391 98.4834 27.8833 98.1996 27.8833C97.8334 27.8833 97.5034 27.7978 97.2096 27.6268C96.9178 27.4537 96.6864 27.1991 96.5153 26.8631C96.3463 26.525 96.2618 26.1095 96.2618 25.6165C96.2618 25.1234 96.3453 24.7009 96.5123 24.3487C96.6813 23.9966 96.9128 23.7269 97.2066 23.5398C97.5004 23.3506 97.8334 23.256 98.2057 23.256C98.4934 23.256 98.7258 23.3043 98.9029 23.4009C99.08 23.4955 99.2179 23.6062 99.3165 23.7329C99.4171 23.8597 99.4946 23.9714 99.5489 24.068H99.6153V23.3164H100.5V28.0554C100.5 28.4538 100.407 28.7808 100.222 29.0364C100.037 29.292 99.7863 29.4811 99.4704 29.6039C99.1565 29.7266 98.8023 29.788 98.4079 29.788ZM98.3988 27.1348C98.6584 27.1348 98.8778 27.0744 99.0569 26.9536C99.238 26.8309 99.3748 26.6558 99.4674 26.4284C99.562 26.199 99.6093 25.9243 99.6093 25.6044C99.6093 25.2925 99.563 25.0178 99.4704 24.7804C99.3778 24.5429 99.242 24.3578 99.0629 24.225C98.8838 24.0901 98.6625 24.0227 98.3988 24.0227C98.1272 24.0227 97.9008 24.0931 97.7197 24.234C97.5386 24.3729 97.4017 24.562 97.3092 24.8015C97.2186 25.0409 97.1733 25.3086 97.1733 25.6044C97.1733 25.9083 97.2196 26.1749 97.3122 26.4043C97.4048 26.6337 97.5416 26.8128 97.7227 26.9416C97.9058 27.0704 98.1312 27.1348 98.3988 27.1348ZM103.96 27.9528V23.3164H104.862V27.9528H103.96ZM104.416 22.601C104.259 22.601 104.124 22.5487 104.011 22.4441C103.9 22.3374 103.845 22.2106 103.845 22.0637C103.845 21.9148 103.9 21.788 104.011 21.6834C104.124 21.5768 104.259 21.5234 104.416 21.5234C104.572 21.5234 104.706 21.5768 104.817 21.6834C104.93 21.788 104.986 21.9148 104.986 22.0637C104.986 22.2106 104.93 22.3374 104.817 22.4441C104.706 22.5487 104.572 22.601 104.416 22.601ZM109.551 24.4483L108.733 24.5932C108.698 24.4886 108.644 24.389 108.57 24.2944C108.497 24.1998 108.399 24.1223 108.274 24.062C108.149 24.0016 107.993 23.9714 107.806 23.9714C107.55 23.9714 107.337 24.0288 107.166 24.1435C106.995 24.2561 106.91 24.402 106.91 24.5811C106.91 24.7361 106.967 24.8608 107.082 24.9554C107.196 25.05 107.381 25.1275 107.637 25.1878L108.373 25.3569C108.8 25.4555 109.118 25.6074 109.327 25.8127C109.537 26.0179 109.641 26.2846 109.641 26.6126C109.641 26.8903 109.561 27.1378 109.4 27.3551C109.241 27.5704 109.018 27.7395 108.733 27.8622C108.449 27.985 108.12 28.0463 107.746 28.0463C107.226 28.0463 106.803 27.9357 106.475 27.7143C106.147 27.4909 105.946 27.174 105.871 26.7635L106.743 26.6307C106.798 26.8581 106.91 27.0301 107.079 27.1468C107.248 27.2615 107.468 27.3189 107.74 27.3189C108.035 27.3189 108.272 27.2575 108.449 27.1348C108.626 27.01 108.715 26.8581 108.715 26.679C108.715 26.5341 108.66 26.4123 108.552 26.3137C108.445 26.2151 108.281 26.1407 108.06 26.0904L107.275 25.9183C106.842 25.8197 106.522 25.6627 106.315 25.4474C106.11 25.2321 106.007 24.9594 106.007 24.6294C106.007 24.3558 106.083 24.1163 106.236 23.911C106.389 23.7058 106.601 23.5458 106.87 23.4311C107.14 23.3144 107.449 23.256 107.797 23.256C108.298 23.256 108.692 23.3647 108.98 23.582C109.268 23.7973 109.458 24.0861 109.551 24.4483ZM114.836 28.0463C114.387 28.0463 114.001 27.9447 113.677 27.7415C113.355 27.5362 113.107 27.2535 112.934 26.8933C112.761 26.5331 112.675 26.1205 112.675 25.6557C112.675 25.1848 112.763 24.7693 112.94 24.4091C113.117 24.0469 113.367 23.7641 113.689 23.5609C114.011 23.3576 114.39 23.256 114.827 23.256C115.179 23.256 115.493 23.3214 115.769 23.4522C116.044 23.581 116.267 23.7621 116.436 23.9955C116.607 24.229 116.708 24.5016 116.741 24.8136H115.862C115.814 24.5962 115.703 24.4091 115.53 24.2521C115.359 24.0952 115.13 24.0167 114.842 24.0167C114.591 24.0167 114.37 24.0831 114.181 24.2159C113.994 24.3467 113.848 24.5338 113.743 24.7773C113.639 25.0188 113.586 25.3046 113.586 25.6346C113.586 25.9726 113.638 26.2644 113.74 26.5099C113.843 26.7554 113.988 26.9456 114.175 27.0804C114.364 27.2152 114.586 27.2827 114.842 27.2827C115.013 27.2827 115.168 27.2515 115.307 27.1891C115.448 27.1247 115.565 27.0331 115.66 26.9144C115.757 26.7957 115.824 26.6528 115.862 26.4858H116.741C116.708 26.7856 116.611 27.0533 116.448 27.2887C116.285 27.5241 116.067 27.7093 115.793 27.8441C115.521 27.9789 115.202 28.0463 114.836 28.0463ZM119.659 28.0463C119.224 28.0463 118.845 27.9467 118.521 27.7475C118.197 27.5483 117.945 27.2696 117.766 26.9114C117.587 26.5532 117.498 26.1346 117.498 25.6557C117.498 25.1748 117.587 24.7542 117.766 24.394C117.945 24.0338 118.197 23.7541 118.521 23.5549C118.845 23.3556 119.224 23.256 119.659 23.256C120.093 23.256 120.473 23.3556 120.797 23.5549C121.121 23.7541 121.372 24.0338 121.551 24.394C121.73 24.7542 121.82 25.1748 121.82 25.6557C121.82 26.1346 121.73 26.5532 121.551 26.9114C121.372 27.2696 121.121 27.5483 120.797 27.7475C120.473 27.9467 120.093 28.0463 119.659 28.0463ZM119.662 27.2887C119.943 27.2887 120.177 27.2142 120.362 27.0653C120.547 26.9164 120.684 26.7182 120.773 26.4707C120.863 26.2232 120.908 25.9505 120.908 25.6527C120.908 25.3569 120.863 25.0852 120.773 24.8377C120.684 24.5882 120.547 24.388 120.362 24.237C120.177 24.0861 119.943 24.0106 119.662 24.0106C119.378 24.0106 119.143 24.0861 118.955 24.237C118.77 24.388 118.632 24.5882 118.542 24.8377C118.453 25.0852 118.409 25.3569 118.409 25.6527C118.409 25.9505 118.453 26.2232 118.542 26.4707C118.632 26.7182 118.77 26.9164 118.955 27.0653C119.143 27.2142 119.378 27.2887 119.662 27.2887ZM122.827 27.9528V23.3164H123.694V24.071H123.751C123.848 23.8154 124.006 23.6162 124.225 23.4734C124.444 23.3285 124.707 23.256 125.013 23.256C125.323 23.256 125.582 23.3285 125.792 23.4734C126.003 23.6182 126.159 23.8175 126.259 24.071H126.308C126.418 23.8235 126.594 23.6263 126.836 23.4794C127.077 23.3305 127.365 23.256 127.699 23.256C128.12 23.256 128.463 23.3878 128.728 23.6514C128.996 23.9151 129.13 24.3125 129.13 24.8437V27.9528H128.227V24.9283C128.227 24.6143 128.142 24.3869 127.971 24.2461C127.8 24.1052 127.596 24.0348 127.358 24.0348C127.064 24.0348 126.836 24.1253 126.673 24.3065C126.51 24.4855 126.428 24.716 126.428 24.9977V27.9528H125.529V24.8709C125.529 24.6194 125.45 24.4171 125.293 24.2642C125.137 24.1113 124.932 24.0348 124.681 24.0348C124.51 24.0348 124.352 24.0801 124.207 24.1706C124.064 24.2592 123.948 24.3829 123.86 24.5419C123.773 24.7009 123.73 24.885 123.73 25.0943V27.9528H122.827ZM130.34 29.6914V23.3164H131.221V24.068H131.296C131.349 23.9714 131.424 23.8597 131.523 23.7329C131.621 23.6062 131.758 23.4955 131.933 23.4009C132.108 23.3043 132.34 23.256 132.628 23.256C133.002 23.256 133.336 23.3506 133.63 23.5398C133.924 23.7289 134.154 24.0016 134.321 24.3578C134.49 24.7139 134.575 25.1426 134.575 25.6436C134.575 26.1447 134.491 26.5743 134.324 26.9325C134.157 27.2887 133.928 27.5634 133.636 27.7566C133.344 27.9477 133.011 28.0433 132.637 28.0433C132.355 28.0433 132.125 27.996 131.945 27.9014C131.768 27.8069 131.629 27.6962 131.529 27.5694C131.428 27.4426 131.351 27.3299 131.296 27.2313H131.242V29.6914H130.34ZM131.224 25.6346C131.224 25.9606 131.271 26.2463 131.366 26.4918C131.46 26.7373 131.597 26.9295 131.776 27.0683C131.955 27.2052 132.175 27.2736 132.434 27.2736C132.704 27.2736 132.929 27.2022 133.111 27.0593C133.292 26.9144 133.428 26.7182 133.521 26.4707C133.616 26.2232 133.663 25.9445 133.663 25.6346C133.663 25.3287 133.617 25.054 133.524 24.8105C133.434 24.567 133.297 24.3749 133.114 24.234C132.932 24.0931 132.706 24.0227 132.434 24.0227C132.173 24.0227 131.951 24.0901 131.77 24.225C131.591 24.3598 131.455 24.5479 131.363 24.7894C131.27 25.0309 131.224 25.3126 131.224 25.6346ZM136.488 21.7709V27.9528H135.586V21.7709H136.488ZM139.701 28.0463C139.244 28.0463 138.85 27.9487 138.52 27.7535C138.192 27.5563 137.939 27.2796 137.76 26.9235C137.583 26.5653 137.494 26.1457 137.494 25.6648C137.494 25.1899 137.583 24.7713 137.76 24.4091C137.939 24.0469 138.188 23.7641 138.508 23.5609C138.83 23.3576 139.207 23.256 139.637 23.256C139.899 23.256 140.152 23.2993 140.398 23.3858C140.643 23.4723 140.864 23.6082 141.059 23.7933C141.254 23.9784 141.408 24.2189 141.521 24.5147C141.633 24.8085 141.69 25.1657 141.69 25.5863V25.9062H138.004V25.2301H140.805C140.805 24.9926 140.757 24.7824 140.66 24.5992C140.564 24.4141 140.428 24.2682 140.253 24.1616C140.08 24.0549 139.877 24.0016 139.643 24.0016C139.39 24.0016 139.168 24.064 138.979 24.1887C138.792 24.3115 138.647 24.4725 138.545 24.6717C138.444 24.8689 138.394 25.0832 138.394 25.3146V25.8429C138.394 26.1527 138.448 26.4164 138.557 26.6337C138.667 26.851 138.821 27.017 139.018 27.1317C139.216 27.2444 139.446 27.3008 139.71 27.3008C139.881 27.3008 140.037 27.2766 140.178 27.2283C140.318 27.178 140.44 27.1036 140.543 27.005C140.645 26.9064 140.724 26.7846 140.778 26.6397L141.632 26.7937C141.564 27.0452 141.441 27.2656 141.264 27.4547C141.089 27.6419 140.869 27.7877 140.603 27.8924C140.34 27.995 140.039 28.0463 139.701 28.0463ZM144.855 23.3164V24.0408H142.323V23.3164H144.855ZM143.002 22.2056H143.905V26.5914C143.905 26.7665 143.931 26.8983 143.983 26.9868C144.035 27.0734 144.103 27.1327 144.185 27.1649C144.27 27.1951 144.361 27.2102 144.46 27.2102C144.532 27.2102 144.596 27.2052 144.65 27.1951C144.704 27.1851 144.747 27.177 144.777 27.171L144.94 27.9165C144.888 27.9367 144.813 27.9568 144.717 27.9769C144.62 27.999 144.499 28.0111 144.354 28.0131C144.117 28.0172 143.896 27.9749 143.69 27.8864C143.485 27.7978 143.319 27.661 143.192 27.4758C143.065 27.2907 143.002 27.0583 143.002 26.7786V22.2056ZM147.802 28.0463C147.345 28.0463 146.952 27.9487 146.622 27.7535C146.294 27.5563 146.04 27.2796 145.861 26.9235C145.684 26.5653 145.596 26.1457 145.596 25.6648C145.596 25.1899 145.684 24.7713 145.861 24.4091C146.04 24.0469 146.29 23.7641 146.61 23.5609C146.932 23.3576 147.308 23.256 147.739 23.256C148 23.256 148.254 23.2993 148.499 23.3858C148.745 23.4723 148.965 23.6082 149.16 23.7933C149.356 23.9784 149.51 24.2189 149.622 24.5147C149.735 24.8085 149.791 25.1657 149.791 25.5863V25.9062H146.106V25.2301H148.907C148.907 24.9926 148.859 24.7824 148.762 24.5992C148.665 24.4141 148.53 24.2682 148.355 24.1616C148.181 24.0549 147.978 24.0016 147.745 24.0016C147.491 24.0016 147.27 24.064 147.081 24.1887C146.894 24.3115 146.749 24.4725 146.646 24.6717C146.545 24.8689 146.495 25.0832 146.495 25.3146V25.8429C146.495 26.1527 146.55 26.4164 146.658 26.6337C146.769 26.851 146.923 27.017 147.12 27.1317C147.317 27.2444 147.548 27.3008 147.811 27.3008C147.982 27.3008 148.138 27.2766 148.279 27.2283C148.42 27.178 148.542 27.1036 148.644 27.005C148.747 26.9064 148.825 26.7846 148.88 26.6397L149.734 26.7937C149.666 27.0452 149.543 27.2656 149.366 27.4547C149.191 27.6419 148.97 27.7877 148.705 27.8924C148.441 27.995 148.14 28.0463 147.802 28.0463ZM152.528 28.0433C152.154 28.0433 151.82 27.9477 151.526 27.7566C151.234 27.5634 151.005 27.2887 150.838 26.9325C150.673 26.5743 150.59 26.1447 150.59 25.6436C150.59 25.1426 150.674 24.7139 150.841 24.3578C151.01 24.0016 151.241 23.7289 151.535 23.5398C151.829 23.3506 152.162 23.256 152.534 23.256C152.822 23.256 153.054 23.3043 153.229 23.4009C153.406 23.4955 153.543 23.6062 153.639 23.7329C153.738 23.8597 153.814 23.9714 153.869 24.068H153.923V21.7709H154.825V27.9528H153.944V27.2313H153.869C153.814 27.3299 153.736 27.4426 153.633 27.5694C153.532 27.6962 153.394 27.8069 153.217 27.9014C153.039 27.996 152.81 28.0433 152.528 28.0433ZM152.728 27.2736C152.987 27.2736 153.206 27.2052 153.386 27.0683C153.567 26.9295 153.704 26.7373 153.796 26.4918C153.891 26.2463 153.938 25.9606 153.938 25.6346C153.938 25.3126 153.892 25.0309 153.799 24.7894C153.707 24.5479 153.571 24.3598 153.392 24.225C153.213 24.0901 152.991 24.0227 152.728 24.0227C152.456 24.0227 152.23 24.0931 152.048 24.234C151.867 24.3749 151.73 24.567 151.638 24.8105C151.547 25.054 151.502 25.3287 151.502 25.6346C151.502 25.9445 151.548 26.2232 151.641 26.4707C151.733 26.7182 151.87 26.9144 152.051 27.0593C152.235 27.2022 152.46 27.2736 152.728 27.2736Z" fill="#343434"/>
<path d="M69.4013 61.4105C69.3691 61.1248 69.2363 60.9034 69.0029 60.7465C68.7695 60.5875 68.4757 60.508 68.1215 60.508C67.868 60.508 67.6486 60.5483 67.4635 60.6288C67.2784 60.7072 67.1345 60.8159 67.0318 60.9548C66.9312 61.0916 66.8809 61.2475 66.8809 61.4226C66.8809 61.5695 66.9151 61.6963 66.9836 61.8029C67.054 61.9096 67.1455 61.9991 67.2582 62.0716C67.3729 62.142 67.4957 62.2014 67.6265 62.2497C67.7573 62.296 67.8831 62.3342 68.0038 62.3644L68.6075 62.5213C68.8047 62.5696 69.0069 62.635 69.2142 62.7175C69.4215 62.8 69.6136 62.9087 69.7907 63.0435C69.9678 63.1784 70.1107 63.3454 70.2193 63.5446C70.33 63.7438 70.3854 63.9823 70.3854 64.26C70.3854 64.6101 70.2948 64.921 70.1137 65.1927C69.9346 65.4643 69.674 65.6787 69.3319 65.8356C68.9918 65.9926 68.5803 66.0711 68.0974 66.0711C67.6345 66.0711 67.2341 65.9976 66.896 65.8507C66.5579 65.7038 66.2933 65.4955 66.1022 65.2259C65.911 64.9542 65.8053 64.6323 65.7852 64.26H66.7209C66.7391 64.4833 66.8115 64.6695 66.9383 64.8184C67.0671 64.9653 67.2311 65.075 67.4303 65.1474C67.6315 65.2178 67.8519 65.2531 68.0913 65.2531C68.3549 65.2531 68.5894 65.2118 68.7946 65.1293C69.0019 65.0448 69.1649 64.9281 69.2836 64.7792C69.4024 64.6282 69.4617 64.4522 69.4617 64.2509C69.4617 64.0678 69.4094 63.9179 69.3048 63.8012C69.2021 63.6845 69.0623 63.5879 68.8852 63.5114C68.7101 63.4349 68.5119 63.3675 68.2905 63.3092L67.5601 63.1099C67.0651 62.9751 66.6727 62.7769 66.3829 62.5153C66.0951 62.2537 65.9512 61.9076 65.9512 61.4769C65.9512 61.1208 66.0478 60.8099 66.241 60.5442C66.4342 60.2786 66.6958 60.0724 67.0258 59.9255C67.3558 59.7765 67.7281 59.7021 68.1426 59.7021C68.5612 59.7021 68.9305 59.7755 69.2504 59.9224C69.5724 60.0693 69.8259 60.2716 70.0111 60.5292C70.1962 60.7847 70.2928 61.0785 70.3008 61.4105H69.4013ZM74.3645 64.0457V61.3321H75.27V65.9684H74.3826V65.1655H74.3343C74.2276 65.413 74.0566 65.6193 73.8211 65.7843C73.5877 65.9473 73.2969 66.0288 72.9488 66.0288C72.651 66.0288 72.3874 65.9634 72.158 65.8326C71.9306 65.6998 71.7515 65.5036 71.6207 65.244C71.4919 64.9844 71.4275 64.6634 71.4275 64.2811V61.3321H72.33V64.1724C72.33 64.4884 72.4175 64.7399 72.5926 64.9271C72.7677 65.1142 72.9951 65.2078 73.2748 65.2078C73.4438 65.2078 73.6119 65.1655 73.7789 65.081C73.9479 64.9965 74.0878 64.8687 74.1984 64.6977C74.3111 64.5266 74.3665 64.3093 74.3645 64.0457ZM76.4827 65.9684V61.3321H77.349V62.0867H77.4063C77.5029 61.8311 77.6609 61.6319 77.8802 61.489C78.0996 61.3441 78.3622 61.2717 78.668 61.2717C78.9779 61.2717 79.2375 61.3441 79.4468 61.489C79.6581 61.6339 79.814 61.8331 79.9147 62.0867H79.963C80.0736 61.8392 80.2497 61.642 80.4912 61.4951C80.7327 61.3461 81.0204 61.2717 81.3545 61.2717C81.775 61.2717 82.1181 61.4035 82.3838 61.6671C82.6514 61.9307 82.7852 62.3282 82.7852 62.8594V65.9684H81.8827V62.9439C81.8827 62.63 81.7972 62.4026 81.6261 62.2618C81.4551 62.1209 81.2508 62.0505 81.0134 62.0505C80.7196 62.0505 80.4912 62.141 80.3282 62.3221C80.1652 62.5012 80.0837 62.7316 80.0837 63.0133V65.9684H79.1842V62.8866C79.1842 62.635 79.1057 62.4328 78.9488 62.2799C78.7918 62.1269 78.5875 62.0505 78.336 62.0505C78.165 62.0505 78.007 62.0957 77.8621 62.1863C77.7192 62.2748 77.6035 62.3986 77.515 62.5576C77.4285 62.7165 77.3852 62.9007 77.3852 63.1099V65.9684H76.4827ZM83.9949 65.9684V61.3321H84.8612V62.0867H84.9185C85.0151 61.8311 85.1731 61.6319 85.3924 61.489C85.6118 61.3441 85.8744 61.2717 86.1802 61.2717C86.4901 61.2717 86.7497 61.3441 86.959 61.489C87.1703 61.6339 87.3263 61.8331 87.4269 62.0867H87.4752C87.5858 61.8392 87.7619 61.642 88.0034 61.4951C88.2449 61.3461 88.5326 61.2717 88.8667 61.2717C89.2872 61.2717 89.6303 61.4035 89.896 61.6671C90.1636 61.9307 90.2974 62.3282 90.2974 62.8594V65.9684H89.3949V62.9439C89.3949 62.63 89.3094 62.4026 89.1383 62.2618C88.9673 62.1209 88.763 62.0505 88.5256 62.0505C88.2318 62.0505 88.0034 62.141 87.8404 62.3221C87.6774 62.5012 87.5959 62.7316 87.5959 63.0133V65.9684H86.6964V62.8866C86.6964 62.635 86.6179 62.4328 86.461 62.2799C86.304 62.1269 86.0997 62.0505 85.8482 62.0505C85.6772 62.0505 85.5192 62.0957 85.3743 62.1863C85.2314 62.2748 85.1157 62.3986 85.0272 62.5576C84.9407 62.7165 84.8974 62.9007 84.8974 63.1099V65.9684H83.9949ZM92.8563 66.0711C92.5625 66.0711 92.2969 66.0167 92.0595 65.9081C91.822 65.7974 91.6339 65.6374 91.495 65.4281C91.3582 65.2188 91.2897 64.9623 91.2897 64.6584C91.2897 64.3968 91.3401 64.1815 91.4407 64.0125C91.5413 63.8434 91.6771 63.7096 91.8482 63.611C92.0192 63.5124 92.2104 63.4379 92.4217 63.3876C92.633 63.3373 92.8483 63.2991 93.0676 63.2729C93.3453 63.2407 93.5707 63.2146 93.7438 63.1945C93.9168 63.1723 94.0426 63.1371 94.1211 63.0888C94.1996 63.0405 94.2388 62.962 94.2388 62.8534V62.8322C94.2388 62.5686 94.1643 62.3644 94.0154 62.2195C93.8685 62.0746 93.6492 62.0022 93.3574 62.0022C93.0535 62.0022 92.8141 62.0696 92.639 62.2044C92.4659 62.3372 92.3462 62.4851 92.2798 62.6481L91.4316 62.4549C91.5322 62.1732 91.6791 61.9458 91.8723 61.7728C92.0675 61.5977 92.2919 61.4709 92.5454 61.3924C92.799 61.3119 93.0656 61.2717 93.3453 61.2717C93.5305 61.2717 93.7267 61.2938 93.9339 61.3381C94.1432 61.3804 94.3384 61.4588 94.5195 61.5735C94.7026 61.6882 94.8525 61.8522 94.9693 62.0656C95.086 62.2768 95.1443 62.5515 95.1443 62.8896V65.9684H94.2629V65.3345H94.2267C94.1684 65.4513 94.0808 65.566 93.9641 65.6787C93.8474 65.7913 93.6975 65.8849 93.5144 65.9594C93.3312 66.0338 93.1119 66.0711 92.8563 66.0711ZM93.0525 65.3466C93.3021 65.3466 93.5154 65.2973 93.6924 65.1987C93.8715 65.1001 94.0074 64.9713 94.0999 64.8124C94.1945 64.6514 94.2418 64.4793 94.2418 64.2962V63.6985C94.2096 63.7307 94.1472 63.7609 94.0547 63.7891C93.9641 63.8153 93.8605 63.8384 93.7438 63.8585C93.627 63.8766 93.5134 63.8937 93.4027 63.9098C93.292 63.9239 93.1994 63.936 93.125 63.9461C92.9499 63.9682 92.7899 64.0054 92.645 64.0577C92.5022 64.1101 92.3875 64.1855 92.3009 64.2841C92.2164 64.3807 92.1742 64.5095 92.1742 64.6705C92.1742 64.8939 92.2567 65.0629 92.4217 65.1776C92.5867 65.2903 92.797 65.3466 93.0525 65.3466ZM96.3464 65.9684V61.3321H97.2188V62.0686H97.2671C97.3516 61.819 97.5005 61.6228 97.7138 61.48C97.9291 61.3351 98.1726 61.2626 98.4443 61.2626C98.5006 61.2626 98.567 61.2647 98.6435 61.2687C98.722 61.2727 98.7833 61.2777 98.8276 61.2838V62.147C98.7914 62.137 98.727 62.1259 98.6344 62.1138C98.5419 62.0998 98.4493 62.0927 98.3567 62.0927C98.1434 62.0927 97.9533 62.138 97.7862 62.2285C97.6212 62.3171 97.4904 62.4408 97.3938 62.5998C97.2973 62.7568 97.249 62.9359 97.249 63.1371V65.9684H96.3464ZM100.32 67.7071C100.185 67.7071 100.063 67.696 99.952 67.6739C99.8413 67.6537 99.7588 67.6316 99.7045 67.6075L99.9218 66.8679C100.087 66.9122 100.234 66.9313 100.363 66.9253C100.491 66.9192 100.605 66.8709 100.704 66.7804C100.804 66.6898 100.893 66.5419 100.969 66.3367L101.081 66.0288L99.3845 61.3321H100.35L101.525 64.9301H101.573L102.747 61.3321H103.716L101.805 66.5872C101.717 66.8287 101.604 67.0329 101.467 67.2C101.33 67.369 101.167 67.4958 100.978 67.5803C100.789 67.6648 100.57 67.7071 100.32 67.7071ZM106.814 65.9684V61.3321H107.716V65.9684H106.814ZM107.27 60.6167C107.113 60.6167 106.978 60.5644 106.865 60.4597C106.754 60.3531 106.699 60.2263 106.699 60.0794C106.699 59.9305 106.754 59.8037 106.865 59.6991C106.978 59.5924 107.113 59.5391 107.27 59.5391C107.426 59.5391 107.56 59.5924 107.671 59.6991C107.784 59.8037 107.84 59.9305 107.84 60.0794C107.84 60.2263 107.784 60.3531 107.671 60.4597C107.56 60.5644 107.426 60.6167 107.27 60.6167ZM112.405 62.464L111.587 62.6089C111.552 62.5042 111.498 62.4046 111.424 62.31C111.351 62.2155 111.253 62.138 111.128 62.0776C111.003 62.0173 110.847 61.9871 110.66 61.9871C110.404 61.9871 110.191 62.0444 110.02 62.1591C109.849 62.2718 109.764 62.4177 109.764 62.5968C109.764 62.7517 109.821 62.8765 109.936 62.9711C110.05 63.0657 110.235 63.1431 110.491 63.2035L111.227 63.3725C111.654 63.4711 111.972 63.6231 112.181 63.8283C112.391 64.0336 112.495 64.3002 112.495 64.6282C112.495 64.9059 112.415 65.1534 112.254 65.3708C112.095 65.5861 111.872 65.7551 111.587 65.8779C111.303 66.0006 110.974 66.062 110.6 66.062C110.08 66.062 109.657 65.9513 109.329 65.73C109.001 65.5066 108.8 65.1897 108.725 64.7792L109.597 64.6463C109.652 64.8737 109.764 65.0458 109.933 65.1625C110.102 65.2772 110.322 65.3345 110.594 65.3345C110.889 65.3345 111.126 65.2732 111.303 65.1504C111.48 65.0257 111.569 64.8737 111.569 64.6946C111.569 64.5497 111.514 64.428 111.406 64.3294C111.299 64.2308 111.135 64.1563 110.914 64.106L110.129 63.934C109.696 63.8354 109.376 63.6784 109.169 63.4631C108.964 63.2478 108.861 62.9751 108.861 62.6451C108.861 62.3714 108.937 62.132 109.09 61.9267C109.243 61.7214 109.455 61.5615 109.724 61.4468C109.994 61.3301 110.303 61.2717 110.651 61.2717C111.152 61.2717 111.546 61.3804 111.834 61.5977C112.122 61.813 112.312 62.1018 112.405 62.464ZM115.737 65.9684V61.3321H116.609V62.0686H116.658C116.742 61.819 116.891 61.6228 117.104 61.48C117.32 61.3351 117.563 61.2626 117.835 61.2626C117.891 61.2626 117.958 61.2647 118.034 61.2687C118.113 61.2727 118.174 61.2777 118.218 61.2838V62.147C118.182 62.137 118.118 62.1259 118.025 62.1138C117.932 62.0998 117.84 62.0927 117.747 62.0927C117.534 62.0927 117.344 62.138 117.177 62.2285C117.012 62.3171 116.881 62.4408 116.784 62.5998C116.688 62.7568 116.64 62.9359 116.64 63.1371V65.9684H115.737ZM120.831 66.062C120.375 66.062 119.981 65.9644 119.651 65.7692C119.323 65.572 119.07 65.2953 118.891 64.9391C118.714 64.5809 118.625 64.1614 118.625 63.6804C118.625 63.2055 118.714 62.787 118.891 62.4247C119.07 62.0625 119.319 61.7798 119.639 61.5766C119.961 61.3733 120.337 61.2717 120.768 61.2717C121.03 61.2717 121.283 61.315 121.529 61.4015C121.774 61.488 121.995 61.6238 122.19 61.809C122.385 61.9941 122.539 62.2346 122.652 62.5304C122.764 62.8242 122.821 63.1814 122.821 63.6019V63.9219H119.135V63.2458H121.936C121.936 63.0083 121.888 62.798 121.791 62.6149C121.695 62.4298 121.559 62.2839 121.384 62.1772C121.211 62.0706 121.008 62.0173 120.774 62.0173C120.521 62.0173 120.299 62.0796 120.11 62.2044C119.923 62.3272 119.778 62.4881 119.675 62.6874C119.575 62.8846 119.524 63.0989 119.524 63.3303V63.8585C119.524 64.1684 119.579 64.432 119.687 64.6494C119.798 64.8667 119.952 65.0327 120.149 65.1474C120.347 65.2601 120.577 65.3164 120.841 65.3164C121.012 65.3164 121.168 65.2923 121.308 65.244C121.449 65.1937 121.571 65.1192 121.674 65.0206C121.776 64.922 121.855 64.8003 121.909 64.6554L122.763 64.8093C122.695 65.0609 122.572 65.2812 122.395 65.4704C122.22 65.6575 122 65.8034 121.734 65.9081C121.47 66.0107 121.17 66.062 120.831 66.062ZM125.171 66.0711C124.877 66.0711 124.612 66.0167 124.374 65.9081C124.137 65.7974 123.949 65.6374 123.81 65.4281C123.673 65.2188 123.605 64.9623 123.605 64.6584C123.605 64.3968 123.655 64.1815 123.756 64.0125C123.856 63.8434 123.992 63.7096 124.163 63.611C124.334 63.5124 124.525 63.4379 124.737 63.3876C124.948 63.3373 125.163 63.2991 125.383 63.2729C125.66 63.2407 125.886 63.2146 126.059 63.1945C126.232 63.1723 126.358 63.1371 126.436 63.0888C126.514 63.0405 126.554 62.962 126.554 62.8534V62.8322C126.554 62.5686 126.479 62.3644 126.33 62.2195C126.183 62.0746 125.964 62.0022 125.672 62.0022C125.368 62.0022 125.129 62.0696 124.954 62.2044C124.781 62.3372 124.661 62.4851 124.595 62.6481L123.747 62.4549C123.847 62.1732 123.994 61.9458 124.187 61.7728C124.382 61.5977 124.607 61.4709 124.86 61.3924C125.114 61.3119 125.381 61.2717 125.66 61.2717C125.845 61.2717 126.042 61.2938 126.249 61.3381C126.458 61.3804 126.653 61.4588 126.834 61.5735C127.018 61.6882 127.167 61.8522 127.284 62.0656C127.401 62.2768 127.459 62.5515 127.459 62.8896V65.9684H126.578V65.3345H126.542C126.483 65.4513 126.396 65.566 126.279 65.6787C126.162 65.7913 126.012 65.8849 125.829 65.9594C125.646 66.0338 125.427 66.0711 125.171 66.0711ZM125.367 65.3466C125.617 65.3466 125.83 65.2973 126.007 65.1987C126.186 65.1001 126.322 64.9713 126.415 64.8124C126.509 64.6514 126.557 64.4793 126.557 64.2962V63.6985C126.525 63.7307 126.462 63.7609 126.37 63.7891C126.279 63.8153 126.175 63.8384 126.059 63.8585C125.942 63.8766 125.828 63.8937 125.718 63.9098C125.607 63.9239 125.514 63.936 125.44 63.9461C125.265 63.9682 125.105 64.0054 124.96 64.0577C124.817 64.1101 124.702 64.1855 124.616 64.2841C124.531 64.3807 124.489 64.5095 124.489 64.6705C124.489 64.8939 124.572 65.0629 124.737 65.1776C124.902 65.2903 125.112 65.3466 125.367 65.3466ZM130.397 66.059C130.023 66.059 129.689 65.9634 129.395 65.7722C129.103 65.579 128.874 65.3044 128.707 64.9482C128.542 64.59 128.459 64.1604 128.459 63.6593C128.459 63.1582 128.543 62.7296 128.71 62.3734C128.879 62.0173 129.11 61.7446 129.404 61.5554C129.698 61.3663 130.031 61.2717 130.403 61.2717C130.691 61.2717 130.922 61.32 131.097 61.4166C131.274 61.5112 131.411 61.6218 131.508 61.7486C131.606 61.8754 131.683 61.9871 131.737 62.0837H131.792V59.7866H132.694V65.9684H131.813V65.247H131.737C131.683 65.3456 131.604 65.4583 131.502 65.5851C131.401 65.7119 131.262 65.8225 131.085 65.9171C130.908 66.0117 130.679 66.059 130.397 66.059ZM130.596 65.2893C130.856 65.2893 131.075 65.2209 131.254 65.084C131.435 64.9452 131.572 64.753 131.665 64.5075C131.759 64.262 131.807 63.9762 131.807 63.6502C131.807 63.3283 131.76 63.0466 131.668 62.8051C131.575 62.5636 131.439 62.3754 131.26 62.2406C131.081 62.1058 130.86 62.0384 130.596 62.0384C130.325 62.0384 130.098 62.1088 129.917 62.2497C129.736 62.3905 129.599 62.5827 129.507 62.8262C129.416 63.0697 129.371 63.3444 129.371 63.6502C129.371 63.9601 129.417 64.2388 129.51 64.4864C129.602 64.7339 129.739 64.9301 129.92 65.075C130.103 65.2178 130.329 65.2893 130.596 65.2893ZM134.553 67.7071C134.418 67.7071 134.295 67.696 134.184 67.6739C134.074 67.6537 133.991 67.6316 133.937 67.6075L134.154 66.8679C134.319 66.9122 134.466 66.9313 134.595 66.9253C134.724 66.9192 134.837 66.8709 134.936 66.7804C135.037 66.6898 135.125 66.5419 135.202 66.3367L135.313 66.0288L133.617 61.3321H134.583L135.757 64.9301H135.805L136.98 61.3321H137.948L136.038 66.5872C135.949 66.8287 135.837 67.0329 135.7 67.2C135.563 67.369 135.4 67.4958 135.211 67.5803C135.022 67.6648 134.802 67.7071 134.553 67.7071ZM139.935 59.7866L139.856 64.1906H139.02L138.942 59.7866H139.935ZM139.44 66.0258C139.273 66.0258 139.13 65.9674 139.011 65.8507C138.892 65.732 138.834 65.5891 138.836 65.4221C138.834 65.2571 138.892 65.1162 139.011 64.9995C139.13 64.8808 139.273 64.8214 139.44 64.8214C139.603 64.8214 139.743 64.8808 139.862 64.9995C139.981 65.1162 140.041 65.2571 140.043 65.4221C140.041 65.5328 140.012 65.6344 139.956 65.7269C139.901 65.8175 139.829 65.8899 139.738 65.9443C139.648 65.9986 139.548 66.0258 139.44 66.0258Z" fill="#343434"/>
<path d="M88.9492 105.437V99.2553H91.1527C91.6336 99.2553 92.032 99.3429 92.348 99.5179C92.6639 99.693 92.9004 99.9325 93.0573 100.236C93.2143 100.538 93.2928 100.878 93.2928 101.256C93.2928 101.637 93.2133 101.979 93.0543 102.283C92.8973 102.584 92.6599 102.824 92.3419 103.001C92.026 103.176 91.6286 103.264 91.1496 103.264H89.6344V102.473H91.0651C91.369 102.473 91.6155 102.42 91.8047 102.316C91.9938 102.209 92.1327 102.064 92.2212 101.881C92.3097 101.698 92.354 101.49 92.354 101.256C92.354 101.023 92.3097 100.816 92.2212 100.635C92.1327 100.453 91.9928 100.312 91.8016 100.209C91.6125 100.106 91.363 100.055 91.0531 100.055H89.8819V105.437H88.9492ZM94.3138 105.437V100.801H95.1861V101.537H95.2344C95.3189 101.288 95.4678 101.091 95.6811 100.948C95.8964 100.804 96.1399 100.731 96.4116 100.731C96.4679 100.731 96.5343 100.733 96.6108 100.737C96.6893 100.741 96.7507 100.746 96.7949 100.752V101.616C96.7587 101.606 96.6943 101.594 96.6018 101.582C96.5092 101.568 96.4166 101.561 96.3241 101.561C96.1107 101.561 95.9206 101.607 95.7536 101.697C95.5886 101.786 95.4578 101.909 95.3612 102.068C95.2646 102.225 95.2163 102.404 95.2163 102.606V105.437H94.3138ZM99.4082 105.531C98.9514 105.531 98.558 105.433 98.228 105.238C97.8999 105.041 97.6464 104.764 97.4673 104.408C97.2902 104.049 97.2017 103.63 97.2017 103.149C97.2017 102.674 97.2902 102.255 97.4673 101.893C97.6464 101.531 97.8959 101.248 98.2159 101.045C98.5378 100.842 98.9141 100.74 99.3448 100.74C99.6064 100.74 99.8599 100.783 100.106 100.87C100.351 100.957 100.572 101.092 100.767 101.277C100.962 101.463 101.116 101.703 101.229 101.999C101.341 102.293 101.398 102.65 101.398 103.07V103.39H97.7118V102.714H100.513C100.513 102.477 100.465 102.267 100.369 102.083C100.272 101.898 100.136 101.752 99.9605 101.646C99.7875 101.539 99.5842 101.486 99.3508 101.486C99.0973 101.486 98.8759 101.548 98.6868 101.673C98.4996 101.796 98.3547 101.957 98.2521 102.156C98.1515 102.353 98.1012 102.567 98.1012 102.799V103.327C98.1012 103.637 98.1555 103.901 98.2642 104.118C98.3748 104.335 98.5288 104.501 98.726 104.616C98.9232 104.729 99.1536 104.785 99.4172 104.785C99.5883 104.785 99.7442 104.761 99.8851 104.713C100.026 104.662 100.148 104.588 100.251 104.489C100.353 104.391 100.432 104.269 100.486 104.124L101.34 104.278C101.272 104.529 101.149 104.75 100.972 104.939C100.797 105.126 100.577 105.272 100.311 105.377C100.048 105.479 99.7462 105.531 99.4082 105.531ZM102.399 107.176V100.801H103.281V101.552H103.356C103.408 101.456 103.484 101.344 103.582 101.217C103.681 101.09 103.818 100.98 103.993 100.885C104.168 100.789 104.399 100.74 104.687 100.74C105.062 100.74 105.396 100.835 105.689 101.024C105.983 101.213 106.214 101.486 106.381 101.842C106.55 102.198 106.634 102.627 106.634 103.128C106.634 103.629 106.551 104.059 106.384 104.417C106.217 104.773 105.987 105.048 105.695 105.241C105.404 105.432 105.071 105.527 104.696 105.527C104.415 105.527 104.184 105.48 104.005 105.386C103.828 105.291 103.689 105.18 103.588 105.054C103.488 104.927 103.41 104.814 103.356 104.716H103.302V107.176H102.399ZM103.284 103.119C103.284 103.445 103.331 103.731 103.425 103.976C103.52 104.222 103.657 104.414 103.836 104.553C104.015 104.689 104.234 104.758 104.494 104.758C104.764 104.758 104.989 104.686 105.17 104.543C105.351 104.399 105.488 104.202 105.581 103.955C105.675 103.707 105.723 103.429 105.723 103.119C105.723 102.813 105.676 102.538 105.584 102.295C105.493 102.051 105.356 101.859 105.173 101.718C104.992 101.577 104.766 101.507 104.494 101.507C104.232 101.507 104.011 101.574 103.83 101.709C103.651 101.844 103.515 102.032 103.422 102.274C103.33 102.515 103.284 102.797 103.284 103.119ZM108.995 105.54C108.701 105.54 108.435 105.485 108.198 105.377C107.96 105.266 107.772 105.106 107.633 104.897C107.496 104.687 107.428 104.431 107.428 104.127C107.428 103.865 107.478 103.65 107.579 103.481C107.68 103.312 107.815 103.178 107.986 103.08C108.157 102.981 108.349 102.906 108.56 102.856C108.771 102.806 108.987 102.768 109.206 102.741C109.484 102.709 109.709 102.683 109.882 102.663C110.055 102.641 110.181 102.606 110.259 102.557C110.338 102.509 110.377 102.431 110.377 102.322V102.301C110.377 102.037 110.303 101.833 110.154 101.688C110.007 101.543 109.787 101.471 109.496 101.471C109.192 101.471 108.952 101.538 108.777 101.673C108.604 101.806 108.484 101.954 108.418 102.117L107.57 101.923C107.67 101.642 107.817 101.414 108.011 101.241C108.206 101.066 108.43 100.939 108.684 100.861C108.937 100.78 109.204 100.74 109.484 100.74C109.669 100.74 109.865 100.762 110.072 100.807C110.281 100.849 110.477 100.927 110.658 101.042C110.841 101.157 110.991 101.321 111.107 101.534C111.224 101.745 111.283 102.02 111.283 102.358V105.437H110.401V104.803H110.365C110.307 104.92 110.219 105.034 110.102 105.147C109.986 105.26 109.836 105.353 109.653 105.428C109.469 105.502 109.25 105.54 108.995 105.54ZM109.191 104.815C109.44 104.815 109.654 104.766 109.831 104.667C110.01 104.569 110.146 104.44 110.238 104.281C110.333 104.12 110.38 103.948 110.38 103.765V103.167C110.348 103.199 110.285 103.229 110.193 103.258C110.102 103.284 109.999 103.307 109.882 103.327C109.765 103.345 109.652 103.362 109.541 103.378C109.43 103.392 109.338 103.405 109.263 103.415C109.088 103.437 108.928 103.474 108.783 103.526C108.64 103.579 108.526 103.654 108.439 103.753C108.355 103.849 108.312 103.978 108.312 104.139C108.312 104.362 108.395 104.531 108.56 104.646C108.725 104.759 108.935 104.815 109.191 104.815ZM112.485 105.437V100.801H113.357V101.537H113.405C113.49 101.288 113.639 101.091 113.852 100.948C114.067 100.804 114.311 100.731 114.582 100.731C114.639 100.731 114.705 100.733 114.782 100.737C114.86 100.741 114.922 100.746 114.966 100.752V101.616C114.93 101.606 114.865 101.594 114.773 101.582C114.68 101.568 114.588 101.561 114.495 101.561C114.282 101.561 114.091 101.607 113.924 101.697C113.759 101.786 113.629 101.909 113.532 102.068C113.435 102.225 113.387 102.404 113.387 102.606V105.437H112.485ZM115.747 105.437V100.801H116.649V105.437H115.747ZM116.203 100.085C116.046 100.085 115.911 100.033 115.798 99.9284C115.688 99.8218 115.632 99.695 115.632 99.5481C115.632 99.3992 115.688 99.2724 115.798 99.1678C115.911 99.0611 116.046 99.0078 116.203 99.0078C116.36 99.0078 116.493 99.0611 116.604 99.1678C116.717 99.2724 116.773 99.3992 116.773 99.5481C116.773 99.695 116.717 99.8218 116.604 99.9284C116.493 100.033 116.36 100.085 116.203 100.085ZM118.766 102.684V105.437H117.864V100.801H118.73V101.555H118.787C118.894 101.31 119.061 101.112 119.288 100.964C119.518 100.815 119.806 100.74 120.155 100.74C120.471 100.74 120.747 100.807 120.985 100.939C121.222 101.07 121.406 101.265 121.537 101.525C121.668 101.785 121.733 102.106 121.733 102.488V105.437H120.831V102.597C120.831 102.261 120.743 101.998 120.568 101.809C120.393 101.618 120.153 101.522 119.847 101.522C119.637 101.522 119.451 101.567 119.288 101.658C119.127 101.748 119 101.881 118.905 102.056C118.812 102.229 118.766 102.439 118.766 102.684ZM124.888 107.272C124.519 107.272 124.202 107.224 123.937 107.127C123.673 107.031 123.458 106.903 123.291 106.744C123.124 106.585 122.999 106.411 122.916 106.222L123.692 105.902C123.747 105.99 123.819 106.084 123.91 106.183C124.002 106.283 124.127 106.369 124.284 106.439C124.443 106.51 124.647 106.545 124.897 106.545C125.239 106.545 125.521 106.461 125.745 106.294C125.968 106.129 126.08 105.866 126.08 105.503V104.592H126.022C125.968 104.69 125.89 104.8 125.787 104.921C125.686 105.042 125.548 105.146 125.37 105.235C125.193 105.323 124.963 105.368 124.679 105.368C124.313 105.368 123.983 105.282 123.689 105.111C123.397 104.938 123.166 104.683 122.995 104.347C122.826 104.009 122.741 103.594 122.741 103.101C122.741 102.608 122.825 102.185 122.992 101.833C123.161 101.481 123.392 101.211 123.686 101.024C123.98 100.835 124.313 100.74 124.685 100.74C124.973 100.74 125.205 100.789 125.383 100.885C125.56 100.98 125.697 101.09 125.796 101.217C125.897 101.344 125.974 101.456 126.029 101.552H126.095V100.801H126.979V105.54C126.979 105.938 126.887 106.265 126.702 106.521C126.517 106.776 126.266 106.965 125.95 107.088C125.636 107.211 125.282 107.272 124.888 107.272ZM124.878 104.619C125.138 104.619 125.357 104.559 125.537 104.438C125.718 104.315 125.854 104.14 125.947 103.913C126.042 103.683 126.089 103.409 126.089 103.089C126.089 102.777 126.043 102.502 125.95 102.265C125.857 102.027 125.722 101.842 125.543 101.709C125.363 101.574 125.142 101.507 124.878 101.507C124.607 101.507 124.38 101.577 124.199 101.718C124.018 101.857 123.881 102.046 123.789 102.286C123.698 102.525 123.653 102.793 123.653 103.089C123.653 103.392 123.699 103.659 123.792 103.888C123.884 104.118 124.021 104.297 124.202 104.426C124.385 104.555 124.611 104.619 124.878 104.619ZM132.603 100.801V101.525H130.071V100.801H132.603ZM130.75 99.69H131.653V104.076C131.653 104.251 131.679 104.382 131.731 104.471C131.783 104.558 131.851 104.617 131.933 104.649C132.018 104.679 132.109 104.694 132.208 104.694C132.281 104.694 132.344 104.689 132.398 104.679C132.453 104.669 132.495 104.661 132.525 104.655L132.688 105.401C132.636 105.421 132.561 105.441 132.465 105.461C132.368 105.483 132.247 105.495 132.102 105.497C131.865 105.501 131.644 105.459 131.438 105.371C131.233 105.282 131.067 105.145 130.94 104.96C130.814 104.775 130.75 104.542 130.75 104.263V99.69ZM134.604 102.684V105.437H133.701V99.2553H134.592V101.555H134.649C134.758 101.306 134.924 101.107 135.147 100.961C135.371 100.814 135.662 100.74 136.023 100.74C136.341 100.74 136.618 100.806 136.856 100.936C137.095 101.067 137.28 101.262 137.411 101.522C137.544 101.78 137.61 102.102 137.61 102.488V105.437H136.708V102.597C136.708 102.256 136.62 101.993 136.445 101.806C136.27 101.617 136.027 101.522 135.715 101.522C135.501 101.522 135.31 101.567 135.141 101.658C134.974 101.748 134.842 101.881 134.746 102.056C134.651 102.229 134.604 102.439 134.604 102.684ZM140.813 105.531C140.356 105.531 139.963 105.433 139.633 105.238C139.305 105.041 139.051 104.764 138.872 104.408C138.695 104.049 138.606 103.63 138.606 103.149C138.606 102.674 138.695 102.255 138.872 101.893C139.051 101.531 139.301 101.248 139.621 101.045C139.943 100.842 140.319 100.74 140.75 100.74C141.011 100.74 141.265 100.783 141.51 100.87C141.756 100.957 141.976 101.092 142.171 101.277C142.366 101.463 142.52 101.703 142.633 101.999C142.746 102.293 142.802 102.65 142.802 103.07V103.39H139.117V102.714H141.918C141.918 102.477 141.869 102.267 141.773 102.083C141.676 101.898 141.54 101.752 141.365 101.646C141.192 101.539 140.989 101.486 140.756 101.486C140.502 101.486 140.281 101.548 140.092 101.673C139.904 101.796 139.76 101.957 139.657 102.156C139.556 102.353 139.506 102.567 139.506 102.799V103.327C139.506 103.637 139.56 103.901 139.669 104.118C139.78 104.335 139.934 104.501 140.131 104.616C140.328 104.729 140.558 104.785 140.822 104.785C140.993 104.785 141.149 104.761 141.29 104.713C141.431 104.662 141.552 104.588 141.655 104.489C141.758 104.391 141.836 104.269 141.891 104.124L142.745 104.278C142.676 104.529 142.554 104.75 142.377 104.939C142.201 105.126 141.981 105.272 141.715 105.377C141.452 105.479 141.151 105.531 140.813 105.531ZM148.051 105.531C147.594 105.531 147.201 105.433 146.871 105.238C146.543 105.041 146.289 104.764 146.11 104.408C145.933 104.049 145.845 103.63 145.845 103.149C145.845 102.674 145.933 102.255 146.11 101.893C146.289 101.531 146.539 101.248 146.859 101.045C147.181 100.842 147.557 100.74 147.988 100.74C148.249 100.74 148.503 100.783 148.749 100.87C148.994 100.957 149.214 101.092 149.41 101.277C149.605 101.463 149.759 101.703 149.871 101.999C149.984 102.293 150.04 102.65 150.04 103.07V103.39H146.355V102.714H149.156C149.156 102.477 149.108 102.267 149.011 102.083C148.915 101.898 148.779 101.752 148.604 101.646C148.431 101.539 148.227 101.486 147.994 101.486C147.74 101.486 147.519 101.548 147.33 101.673C147.143 101.796 146.998 101.957 146.895 102.156C146.795 102.353 146.744 102.567 146.744 102.799V103.327C146.744 103.637 146.799 103.901 146.907 104.118C147.018 104.335 147.172 104.501 147.369 104.616C147.566 104.729 147.797 104.785 148.06 104.785C148.231 104.785 148.387 104.761 148.528 104.713C148.669 104.662 148.791 104.588 148.893 104.489C148.996 104.391 149.075 104.269 149.129 104.124L149.983 104.278C149.915 104.529 149.792 104.75 149.615 104.939C149.44 105.126 149.219 105.272 148.954 105.377C148.69 105.479 148.389 105.531 148.051 105.531ZM151.042 105.437V100.801H151.908V101.555H151.965C152.062 101.3 152.22 101.1 152.439 100.958C152.659 100.813 152.921 100.74 153.227 100.74C153.537 100.74 153.797 100.813 154.006 100.958C154.217 101.102 154.373 101.302 154.474 101.555H154.522C154.633 101.308 154.809 101.11 155.05 100.964C155.292 100.815 155.58 100.74 155.914 100.74C156.334 100.74 156.677 100.872 156.943 101.136C157.211 101.399 157.344 101.797 157.344 102.328V105.437H156.442V102.412C156.442 102.099 156.356 101.871 156.185 101.73C156.014 101.589 155.81 101.519 155.573 101.519C155.279 101.519 155.05 101.61 154.887 101.791C154.724 101.97 154.643 102.2 154.643 102.482V105.437H153.743V102.355C153.743 102.104 153.665 101.901 153.508 101.748C153.351 101.595 153.147 101.519 152.895 101.519C152.724 101.519 152.566 101.564 152.421 101.655C152.278 101.743 152.163 101.867 152.074 102.026C151.988 102.185 151.944 102.369 151.944 102.578V105.437H151.042Z" fill="#343434"/>
<path d="M179.269 15.5781H59.773C58.3095 15.5781 57.123 16.7646 57.123 18.2281V31.6381C57.123 33.1017 58.3095 34.2881 59.773 34.2881H179.269C180.733 34.2881 181.919 33.1017 181.919 31.6381V18.2281C181.919 16.7646 180.733 15.5781 179.269 15.5781Z" stroke="#343434" stroke-width="0.7"/>
<path d="M179.269 53.5938H59.773C58.3095 53.5938 57.123 54.7802 57.123 56.2438V69.6537C57.123 71.1173 58.3095 72.3037 59.773 72.3037H179.269C180.733 72.3037 181.919 71.1173 181.919 69.6537V56.2438C181.919 54.7802 180.733 53.5938 179.269 53.5938Z" stroke="#343434" stroke-width="0.7"/>
<path d="M179.269 92.8555H59.773C58.3095 92.8555 57.123 94.0419 57.123 95.5055V108.916C57.123 110.379 58.3095 111.566 59.773 111.566H179.269C180.733 111.566 181.919 110.379 181.919 108.916V95.5055C181.919 94.0419 180.733 92.8555 179.269 92.8555Z" stroke="#343434" stroke-width="0.7" stroke-dasharray="2 2"/>
</g>
</svg>
