<svg width="164" height="171" viewBox="0 0 164 171" fill="none" xmlns="http://www.w3.org/2000/svg">
<mask id="mask0_12215_10351" style="mask-type:luminance" maskUnits="userSpaceOnUse" x="0" y="0" width="164" height="165">
<path d="M164 0.726562H0V164.727H164V0.726562Z" fill="white"/>
</mask>
<g mask="url(#mask0_12215_10351)">
<path d="M45.0706 36.5094C44.5311 36.5094 44.0453 36.4021 43.6131 36.1875C43.1809 35.973 42.8346 35.6787 42.574 35.3048C42.3135 34.9309 42.171 34.5048 42.1465 34.0266H43.2499C43.2928 34.4527 43.4859 34.8052 43.8292 35.0841C44.1755 35.3599 44.5894 35.4979 45.0706 35.4979C45.4568 35.4979 45.8 35.4074 46.1004 35.2266C46.4039 35.0457 46.6414 34.7975 46.8131 34.4818C46.9878 34.163 47.0751 33.8029 47.0751 33.4014C47.0751 32.9907 46.9848 32.6243 46.8039 32.3025C46.6261 31.9776 46.3809 31.7217 46.0682 31.5347C45.7556 31.3477 45.3985 31.2527 44.997 31.2497C44.7089 31.2466 44.4131 31.291 44.1097 31.383C43.8062 31.4719 43.5564 31.5869 43.3603 31.7279L42.2936 31.5991L42.8637 26.9646H47.7556V27.9762H43.82L43.489 30.7531H43.5441C43.7373 30.5998 43.9794 30.4726 44.2706 30.3715C44.5617 30.2704 44.8652 30.2198 45.1809 30.2198C45.7572 30.2198 46.2705 30.3577 46.7211 30.6336C47.1748 30.9063 47.5303 31.2803 47.7877 31.7554C48.0483 32.2305 48.1786 32.773 48.1786 33.383C48.1786 33.9838 48.0437 34.5201 47.774 34.9922C47.5073 35.4611 47.1395 35.832 46.6706 36.1048C46.2016 36.3745 45.6683 36.5094 45.0706 36.5094ZM50.2992 36.3807L54.5107 28.0497V27.9762H49.6555V26.9646H55.6876V28.0314L51.4946 36.3807H50.2992ZM57.4014 36.3807V35.5531L60.5094 32.1508C60.8742 31.7524 61.1746 31.406 61.4106 31.1117C61.6466 30.8145 61.8213 30.5355 61.9347 30.2749C62.0512 30.0114 62.1094 29.7355 62.1094 29.4474C62.1094 29.1163 62.0297 28.8298 61.8703 28.5876C61.714 28.3455 61.4995 28.1585 61.2266 28.0267C60.9539 27.8949 60.6474 27.829 60.3072 27.829C59.9455 27.829 59.6298 27.9041 59.3601 28.0544C59.0934 28.2014 58.8864 28.4083 58.7394 28.675C58.5953 28.9416 58.5232 29.2543 58.5232 29.6129H57.4382C57.4382 29.0612 57.5654 28.5769 57.8198 28.1601C58.0742 27.7432 58.4205 27.4183 58.8589 27.1853C59.3003 26.9524 59.7953 26.8359 60.3439 26.8359C60.8956 26.8359 61.3845 26.9524 61.8105 27.1853C62.2366 27.4183 62.5707 27.7325 62.8129 28.1279C63.055 28.5233 63.1761 28.9631 63.1761 29.4474C63.1761 29.7937 63.1133 30.1324 62.9876 30.4635C62.8649 30.7915 62.6504 31.1577 62.3439 31.5623C62.0405 31.9638 61.619 32.4543 61.0796 33.0335L58.9646 35.2956V35.3692H63.3416V36.3807H57.4014ZM65.2588 36.3807V29.3187H66.3071V30.4221H66.3991C66.5461 30.0451 66.7837 29.7524 67.1117 29.5439C67.4397 29.3325 67.8335 29.2267 68.2933 29.2267C68.7591 29.2267 69.1469 29.3325 69.4564 29.5439C69.7691 29.7524 70.0128 30.0451 70.1875 30.4221H70.261C70.4418 30.0574 70.7131 29.7677 71.0748 29.5532C71.4365 29.3355 71.8702 29.2267 72.376 29.2267C73.0074 29.2267 73.5238 29.4244 73.9253 29.8198C74.3269 30.2121 74.5277 30.8236 74.5277 31.6542V36.3807H73.4426V31.6542C73.4426 31.1332 73.3001 30.7608 73.015 30.537C72.73 30.3133 72.3943 30.2014 72.0081 30.2014C71.5116 30.2014 71.1269 30.3516 70.8541 30.652C70.5813 30.9493 70.445 31.3263 70.445 31.783V36.3807H69.3415V31.5439C69.3415 31.1424 69.2112 30.819 68.9507 30.5738C68.6902 30.3256 68.3546 30.2014 67.9439 30.2014C67.6619 30.2014 67.3982 30.2765 67.153 30.4266C66.9108 30.5769 66.7148 30.7853 66.5646 31.052C66.4174 31.3155 66.3439 31.6205 66.3439 31.9669V36.3807H65.2588ZM81.5138 30.9003L80.5391 31.1761C80.4777 31.0137 80.3874 30.8558 80.2678 30.7025C80.1513 30.5463 79.992 30.4175 79.7897 30.3163C79.5873 30.2152 79.3283 30.1646 79.0126 30.1646C78.5804 30.1646 78.2203 30.2643 77.9322 30.4635C77.6471 30.6596 77.5046 30.9095 77.5046 31.2129C77.5046 31.4826 77.6027 31.6956 77.7988 31.8519C77.995 32.0083 78.3015 32.1386 78.7184 32.2428L79.7667 32.5003C80.3981 32.6535 80.8686 32.888 81.1781 33.2037C81.4877 33.5163 81.6425 33.9194 81.6425 34.4128C81.6425 34.8175 81.526 35.1791 81.2931 35.4979C81.0632 35.8166 80.7414 36.068 80.3276 36.2519C79.9138 36.4358 79.4326 36.5277 78.8839 36.5277C78.1637 36.5277 77.5675 36.3715 77.0954 36.0588C76.6234 35.7461 76.3245 35.2894 76.1989 34.6887L77.2288 34.4313C77.3268 34.8113 77.5123 35.0964 77.7851 35.2864C78.061 35.4764 78.4211 35.5714 78.8656 35.5714C79.3713 35.5714 79.7728 35.4642 80.0701 35.2496C80.3705 35.032 80.5207 34.7715 80.5207 34.468C80.5207 34.2228 80.4349 34.0174 80.2632 33.8519C80.0915 33.6834 79.828 33.5577 79.4724 33.4749L78.2954 33.199C77.6487 33.0458 77.1736 32.8083 76.8701 32.4865C76.5697 32.1616 76.4195 31.7554 76.4195 31.268C76.4195 30.8696 76.5315 30.5171 76.7552 30.2106C76.982 29.9041 77.2901 29.6635 77.6793 29.4887C78.0717 29.314 78.5161 29.2267 79.0126 29.2267C79.7115 29.2267 80.2602 29.38 80.6586 29.6865C81.0601 29.9929 81.3452 30.3976 81.5138 30.9003Z" fill="#343434"/>
<path d="M54.3145 53.9178V47.242H55.0352V48.0132H55.1237C55.1784 47.929 55.2542 47.8215 55.3512 47.6909C55.4502 47.5582 55.5914 47.4401 55.7748 47.3368C55.9602 47.2315 56.211 47.1788 56.527 47.1788C56.9359 47.1788 57.2962 47.281 57.6081 47.4854C57.92 47.6898 58.1634 47.9796 58.3382 48.3547C58.5131 48.7298 58.6006 49.1723 58.6006 49.6822C58.6006 50.1964 58.5131 50.6421 58.3382 51.0193C58.1634 51.3944 57.921 51.6852 57.6112 51.8917C57.3015 52.096 56.9443 52.1983 56.5397 52.1983C56.2278 52.1983 55.9781 52.1467 55.7905 52.0434C55.603 51.938 55.4587 51.819 55.3575 51.6862C55.2564 51.5514 55.1784 51.4397 55.1237 51.3512H55.0604V53.9178H54.3145ZM55.0477 49.6696C55.0477 50.0362 55.1015 50.3597 55.209 50.64C55.3165 50.9181 55.4734 51.1362 55.6799 51.2943C55.8864 51.4502 56.1393 51.5282 56.4385 51.5282C56.7504 51.5282 57.0106 51.446 57.2193 51.2817C57.43 51.1152 57.588 50.8918 57.6934 50.6115C57.8009 50.3291 57.8546 50.0152 57.8546 49.6696C57.8546 49.3282 57.8019 49.0205 57.6966 48.7466C57.5933 48.4706 57.4363 48.2525 57.2256 48.0923C57.017 47.9301 56.7547 47.8489 56.4385 47.8489C56.1351 47.8489 55.8801 47.9258 55.6736 48.0797C55.4671 48.2314 55.3112 48.4442 55.2058 48.7182C55.1004 48.99 55.0477 49.3072 55.0477 49.6696ZM61.7488 52.1856C61.378 52.1856 61.044 52.1119 60.7468 51.9644C60.4497 51.8169 60.2116 51.6146 60.0324 51.3575C59.8534 51.1004 59.7553 50.8075 59.7385 50.4788H60.4971C60.5266 50.7717 60.6594 51.014 60.8954 51.2058C61.1335 51.3954 61.418 51.4902 61.7488 51.4902C62.0143 51.4902 62.2504 51.4281 62.4569 51.3038C62.6654 51.1794 62.8288 51.0087 62.9468 50.7917C63.0669 50.5725 63.127 50.3249 63.127 50.0489C63.127 49.7665 63.0648 49.5147 62.9405 49.2934C62.8183 49.0701 62.6497 48.8941 62.4348 48.7656C62.2198 48.6371 61.9743 48.5717 61.6983 48.5696C61.5001 48.5675 61.2968 48.598 61.0882 48.6612C60.8796 48.7224 60.7079 48.8014 60.573 48.8983L59.8397 48.8098L60.2316 45.6237H63.5948V46.3191H60.8891L60.6615 48.2282H60.6994C60.8322 48.1229 60.9986 48.0354 61.1988 47.9659C61.399 47.8963 61.6076 47.8616 61.8247 47.8616C62.2209 47.8616 62.5738 47.9564 62.8835 48.1461C63.1954 48.3336 63.4399 48.5906 63.6169 48.9173C63.7961 49.244 63.8855 49.6169 63.8855 50.0362C63.8855 50.4493 63.7928 50.818 63.6075 51.1425C63.4241 51.465 63.1713 51.7199 62.8488 51.9075C62.5264 52.0929 62.1597 52.1856 61.7488 52.1856ZM67.2527 52.1856C66.7765 52.1856 66.3709 52.056 66.0357 51.7968C65.7007 51.5356 65.4447 51.1573 65.2677 50.6621C65.0907 50.1648 65.0022 49.5642 65.0022 48.8604C65.0022 48.1608 65.0907 47.5634 65.2677 47.0682C65.4468 46.5709 65.7039 46.1916 66.0389 45.9303C66.3761 45.6669 66.7807 45.5352 67.2527 45.5352C67.7248 45.5352 68.1282 45.6669 68.4633 45.9303C68.8005 46.1916 69.0576 46.5709 69.2345 47.0682C69.4137 47.5634 69.5033 48.1608 69.5033 48.8604C69.5033 49.5642 69.4148 50.1648 69.2377 50.6621C69.0607 51.1573 68.8047 51.5356 68.4696 51.7968C68.1346 52.056 67.7289 52.1856 67.2527 52.1856ZM67.2527 51.4902C67.7248 51.4902 68.0914 51.2627 68.3527 50.8075C68.614 50.3523 68.7447 49.7033 68.7447 48.8604C68.7447 48.2999 68.6846 47.8226 68.5644 47.4286C68.4464 47.0345 68.2758 46.7342 68.0524 46.5277C67.8312 46.3212 67.5646 46.2179 67.2527 46.2179C66.7849 46.2179 66.4193 46.4487 66.1559 46.9102C65.8925 47.3696 65.7608 48.0196 65.7608 48.8604C65.7608 49.421 65.8198 49.8972 65.9378 50.2891C66.0558 50.6811 66.2254 50.9792 66.4467 51.1836C66.6701 51.3881 66.9387 51.4902 67.2527 51.4902Z" fill="#343434"/>
<path d="M114.842 26.9646V36.3807H113.702V28.1601H113.646L111.348 29.6865V28.5279L113.702 26.9646H114.842ZM117.803 36.4542C117.576 36.4542 117.382 36.373 117.219 36.2105C117.056 36.0481 116.975 35.8534 116.975 35.6266C116.975 35.3998 117.056 35.2052 117.219 35.0427C117.382 34.8802 117.576 34.799 117.803 34.799C118.03 34.799 118.224 34.8802 118.387 35.0427C118.549 35.2052 118.631 35.3998 118.631 35.6266C118.631 35.7768 118.592 35.9148 118.516 36.0404C118.442 36.1661 118.343 36.2672 118.217 36.3438C118.094 36.4174 117.957 36.4542 117.803 36.4542ZM120.559 36.3807V35.5531L123.667 32.1508C124.032 31.7524 124.332 31.406 124.568 31.1117C124.805 30.8145 124.979 30.5355 125.092 30.2749C125.209 30.0114 125.267 29.7355 125.267 29.4474C125.267 29.1163 125.188 28.8298 125.028 28.5876C124.872 28.3455 124.657 28.1585 124.385 28.0267C124.112 27.8949 123.805 27.829 123.465 27.829C123.103 27.829 122.788 27.9041 122.517 28.0544C122.251 28.2014 122.044 28.4083 121.897 28.675C121.753 28.9416 121.681 29.2543 121.681 29.6129H120.596C120.596 29.0612 120.723 28.5769 120.977 28.1601C121.232 27.7432 121.578 27.4183 122.017 27.1853C122.458 26.9524 122.953 26.8359 123.501 26.8359C124.053 26.8359 124.543 26.9524 124.969 27.1853C125.395 27.4183 125.729 27.7325 125.97 28.1279C126.213 28.5233 126.334 28.9631 126.334 29.4474C126.334 29.7937 126.271 30.1324 126.145 30.4635C126.023 30.7915 125.808 31.1577 125.502 31.5623C125.199 31.9638 124.777 32.4543 124.238 33.0335L122.123 35.2956V35.3692H126.5V36.3807H120.559ZM131.34 36.5094C130.801 36.5094 130.316 36.4021 129.883 36.1875C129.451 35.973 129.105 35.6787 128.844 35.3048C128.584 34.9309 128.441 34.5048 128.417 34.0266H129.52C129.563 34.4527 129.756 34.8052 130.1 35.0841C130.446 35.3599 130.859 35.4979 131.34 35.4979C131.727 35.4979 132.07 35.4074 132.371 35.2266C132.674 35.0457 132.912 34.7975 133.083 34.4818C133.258 34.163 133.345 33.8029 133.345 33.4014C133.345 32.9907 133.255 32.6243 133.074 32.3025C132.897 31.9776 132.651 31.7217 132.339 31.5347C132.026 31.3477 131.668 31.2527 131.267 31.2497C130.979 31.2466 130.684 31.291 130.38 31.383C130.077 31.4719 129.826 31.5869 129.63 31.7279L128.564 31.5991L129.134 26.9646H134.026V27.9762H130.09L129.759 30.7531H129.815C130.007 30.5998 130.25 30.4726 130.541 30.3715C130.832 30.2704 131.136 30.2198 131.451 30.2198C132.028 30.2198 132.541 30.3577 132.991 30.6336C133.445 30.9063 133.801 31.2803 134.058 31.7554C134.318 32.2305 134.448 32.773 134.448 33.383C134.448 33.9838 134.314 34.5201 134.044 34.9922C133.777 35.4611 133.41 35.832 132.94 36.1048C132.472 36.3745 131.939 36.5094 131.34 36.5094ZM141.295 30.9003L140.321 31.1761C140.26 31.0137 140.17 30.8558 140.049 30.7025C139.934 30.5463 139.774 30.4175 139.572 30.3163C139.369 30.2152 139.11 30.1646 138.794 30.1646C138.362 30.1646 138.002 30.2643 137.714 30.4635C137.429 30.6596 137.286 30.9095 137.286 31.2129C137.286 31.4826 137.384 31.6956 137.581 31.8519C137.778 32.0083 138.083 32.1386 138.5 32.2428L139.549 32.5003C140.18 32.6535 140.65 32.888 140.96 33.2037C141.27 33.5163 141.425 33.9194 141.425 34.4128C141.425 34.8175 141.308 35.1791 141.075 35.4979C140.845 35.8166 140.524 36.068 140.11 36.2519C139.696 36.4358 139.214 36.5277 138.666 36.5277C137.946 36.5277 137.35 36.3715 136.877 36.0588C136.406 35.7461 136.106 35.2894 135.981 34.6887L137.011 34.4313C137.109 34.8113 137.294 35.0964 137.567 35.2864C137.843 35.4764 138.204 35.5714 138.647 35.5714C139.154 35.5714 139.555 35.4642 139.852 35.2496C140.153 35.032 140.303 34.7715 140.303 34.468C140.303 34.2228 140.217 34.0174 140.045 33.8519C139.874 33.6834 139.61 33.5577 139.254 33.4749L138.078 33.199C137.431 33.0458 136.956 32.8083 136.652 32.4865C136.351 32.1616 136.202 31.7554 136.202 31.268C136.202 30.8696 136.313 30.5171 136.537 30.2106C136.764 29.9041 137.072 29.6635 137.461 29.4887C137.853 29.314 138.298 29.2267 138.794 29.2267C139.493 29.2267 140.042 29.38 140.441 29.6865C140.842 29.9929 141.127 30.3976 141.295 30.9003Z" fill="#343434"/>
<path d="M118.816 53.9181V47.2423H119.537V48.0135H119.626C119.68 47.9293 119.757 47.8218 119.853 47.6912C119.952 47.5584 120.094 47.4404 120.276 47.3371C120.463 47.2318 120.713 47.1791 121.03 47.1791C121.438 47.1791 121.798 47.2813 122.11 47.4857C122.422 47.6901 122.665 47.9799 122.841 48.355C123.015 48.7301 123.103 49.1726 123.103 49.6825C123.103 50.1967 123.015 50.6424 122.841 51.0196C122.665 51.3947 122.423 51.6855 122.113 51.892C121.803 52.0963 121.447 52.1986 121.042 52.1986C120.73 52.1986 120.48 52.147 120.292 52.0437C120.105 51.9383 119.961 51.8193 119.859 51.6865C119.759 51.5517 119.68 51.44 119.626 51.3515H119.562V53.9181H118.816ZM119.55 49.6699C119.55 50.0365 119.603 50.36 119.711 50.6403C119.818 50.9184 119.975 51.1365 120.182 51.2946C120.389 51.4505 120.642 51.5285 120.94 51.5285C121.252 51.5285 121.513 51.4463 121.721 51.282C121.932 51.1155 122.09 50.8921 122.195 50.6118C122.303 50.3294 122.357 50.0155 122.357 49.6699C122.357 49.3285 122.304 49.0208 122.199 48.7469C122.096 48.4709 121.939 48.2528 121.727 48.0926C121.519 47.9304 121.257 47.8492 120.94 47.8492C120.637 47.8492 120.382 47.9261 120.176 48.0799C119.969 48.2316 119.813 48.4445 119.708 48.7185C119.603 48.9903 119.55 49.3075 119.55 49.6699ZM126.289 45.5355C126.555 45.5376 126.819 45.5881 127.085 45.6872C127.351 45.7863 127.593 45.9506 127.812 46.1803C128.032 46.4079 128.207 46.7187 128.34 47.1127C128.473 47.5068 128.54 48.001 128.54 48.5952C128.54 49.1705 128.484 49.6814 128.375 50.1283C128.268 50.5728 128.112 50.9479 127.907 51.2535C127.704 51.5591 127.459 51.7908 127.168 51.9489C126.879 52.107 126.552 52.1859 126.187 52.1859C125.826 52.1859 125.502 52.1143 125.217 51.971C124.935 51.8256 124.703 51.6244 124.522 51.3673C124.342 51.1081 124.228 50.8078 124.178 50.4664H124.949C125.018 50.7636 125.156 51.009 125.363 51.2029C125.572 51.3947 125.846 51.4905 126.187 51.4905C126.687 51.4905 127.081 51.2724 127.369 50.8362C127.661 50.4 127.806 49.7837 127.806 48.9871H127.755C127.638 49.1641 127.498 49.3169 127.335 49.4454C127.172 49.574 126.992 49.6731 126.794 49.7426C126.597 49.8121 126.385 49.8469 126.163 49.8469C125.792 49.8469 125.451 49.7552 125.141 49.5719C124.834 49.3864 124.588 49.1326 124.401 48.8101C124.219 48.4856 124.127 48.1147 124.127 47.6975C124.127 47.3013 124.215 46.9389 124.392 46.6102C124.572 46.2793 124.822 46.016 125.145 45.82C125.469 45.624 125.851 45.5291 126.289 45.5355ZM126.289 46.2308C126.023 46.2308 125.784 46.2973 125.572 46.43C125.36 46.5606 125.193 46.7376 125.069 46.961C124.947 47.1823 124.885 47.4278 124.885 47.6975C124.885 47.9672 124.944 48.2128 125.063 48.434C125.182 48.6531 125.346 48.828 125.552 48.9587C125.761 49.0872 125.998 49.1515 126.263 49.1515C126.464 49.1515 126.65 49.1125 126.823 49.0345C126.996 48.9545 127.147 48.8459 127.275 48.7089C127.406 48.5699 127.508 48.4129 127.582 48.238C127.655 48.061 127.692 47.8766 127.692 47.6848C127.692 47.432 127.631 47.1949 127.509 46.9737C127.389 46.7524 127.222 46.5733 127.009 46.4363C126.799 46.2993 126.558 46.2308 126.289 46.2308ZM131.894 52.1859C131.418 52.1859 131.012 52.0563 130.677 51.7971C130.342 51.5359 130.086 51.1576 129.909 50.6624C129.732 50.1651 129.643 49.5645 129.643 48.8607C129.643 48.1611 129.732 47.5637 129.909 47.0685C130.088 46.5711 130.345 46.1919 130.68 45.9306C131.017 45.6672 131.422 45.5355 131.894 45.5355C132.366 45.5355 132.77 45.6672 133.104 45.9306C133.442 46.1919 133.699 46.5711 133.876 47.0685C134.055 47.5637 134.144 48.1611 134.144 48.8607C134.144 49.5645 134.056 50.1651 133.879 50.6624C133.702 51.1576 133.445 51.5359 133.111 51.7971C132.776 52.0563 132.37 52.1859 131.894 52.1859ZM131.894 51.4905C132.366 51.4905 132.732 51.263 132.993 50.8078C133.256 50.3526 133.386 49.7036 133.386 48.8607C133.386 48.3002 133.326 47.8229 133.206 47.4289C133.088 47.0348 132.917 46.7345 132.693 46.528C132.472 46.3215 132.206 46.2182 131.894 46.2182C131.426 46.2182 131.06 46.449 130.797 46.9105C130.533 47.3698 130.402 48.0199 130.402 48.8607C130.402 49.4213 130.461 49.8975 130.579 50.2894C130.697 50.6814 130.867 50.9795 131.088 51.1839C131.312 51.3884 131.58 51.4905 131.894 51.4905Z" fill="#343434"/>
<path d="M51.957 128.75H35.6523C34.8401 128.75 34.1816 129.408 34.1816 130.221V130.247C34.1816 131.059 34.8401 131.718 35.6523 131.718H51.957C52.7692 131.718 53.4277 131.059 53.4277 130.247V130.221C53.4277 129.408 52.7692 128.75 51.957 128.75Z" stroke="#343434" stroke-width="0.623913"/>
<path d="M75.0644 117.977H58.7597C57.9475 117.977 57.2891 118.635 57.2891 119.447V130.249C57.2891 131.061 57.9475 131.72 58.7597 131.72H75.0644C75.8767 131.72 76.5351 131.061 76.5351 130.249V119.447C76.5351 118.635 75.8767 117.977 75.0644 117.977Z" stroke="#343434" stroke-width="0.623913"/>
<path d="M98.1699 89.2422H81.8652C81.053 89.2422 80.3945 89.9006 80.3945 90.7128V130.249C80.3945 131.061 81.053 131.719 81.8652 131.719H98.1699C98.9821 131.719 99.6406 131.061 99.6406 130.249V90.7128C99.6406 89.9006 98.9821 89.2422 98.1699 89.2422Z" stroke="#343434" stroke-width="0.623913"/>
<path d="M121.277 78.4648H104.973C104.16 78.4648 103.502 79.1233 103.502 79.9355V130.247C103.502 131.059 104.16 131.717 104.973 131.717H121.277C122.09 131.717 122.748 131.059 122.748 130.247V79.9355C122.748 79.1233 122.09 78.4648 121.277 78.4648Z" stroke="#343434" stroke-width="0.623913"/>
<path d="M144.385 89.2422H128.08C127.268 89.2422 126.609 89.9006 126.609 90.7128V130.249C126.609 131.061 127.268 131.719 128.08 131.719H144.385C145.197 131.719 145.855 131.061 145.855 130.249V90.7128C145.855 89.9006 145.197 89.2422 144.385 89.2422Z" stroke="#343434" stroke-width="0.623913"/>
<path d="M167.492 103.609H151.187C150.375 103.609 149.717 104.268 149.717 105.08V130.249C149.717 131.061 150.375 131.72 151.187 131.72H167.492C168.304 131.72 168.963 131.061 168.963 130.249V105.08C168.963 104.268 168.304 103.609 167.492 103.609Z" stroke="#343434" stroke-width="0.623913"/>
<path d="M35.9607 144.823C35.5975 144.821 35.2872 144.726 35.0298 144.535C34.7723 144.345 34.5754 144.069 34.4389 143.705C34.3026 143.343 34.2344 142.905 34.2344 142.393C34.2344 141.883 34.3026 141.447 34.4389 141.085C34.5769 140.723 34.7746 140.448 35.0321 140.258C35.291 140.067 35.6007 139.973 35.9607 139.973C36.3209 139.973 36.6298 140.068 36.8872 140.26C37.1447 140.45 37.3416 140.726 37.478 141.088C37.6159 141.448 37.6849 141.883 37.6849 142.393C37.6849 142.907 37.6167 143.344 37.4803 143.708C37.3439 144.07 37.147 144.346 36.8895 144.538C36.6321 144.728 36.3224 144.823 35.9607 144.823ZM35.9607 144.209C36.2796 144.209 36.5286 144.054 36.7079 143.743C36.8888 143.431 36.9791 142.982 36.9791 142.393C36.9791 142.002 36.9378 141.672 36.855 141.402C36.7738 141.131 36.6566 140.925 36.5033 140.786C36.3516 140.646 36.1707 140.574 35.9607 140.574C35.6435 140.574 35.3945 140.731 35.2137 141.044C35.0328 141.356 34.9416 141.806 34.9401 142.393C34.9401 142.786 34.9808 143.117 35.062 143.388C35.1447 143.658 35.262 143.862 35.4137 144.002C35.5654 144.14 35.7477 144.209 35.9607 144.209ZM38.7918 144.788C38.6661 144.788 38.5581 144.744 38.4676 144.655C38.3772 144.565 38.332 144.456 38.332 144.328C38.332 144.203 38.3772 144.096 38.4676 144.007C38.5581 143.917 38.6661 143.871 38.7918 143.871C38.9175 143.871 39.0255 143.917 39.1159 144.007C39.2063 144.096 39.2515 144.203 39.2515 144.328C39.2515 144.413 39.23 144.491 39.1872 144.561C39.1458 144.63 39.0906 144.685 39.0217 144.726C38.9527 144.768 38.876 144.788 38.7918 144.788ZM40.1631 144.745V144.23L41.7561 142.579C41.9262 142.4 42.0664 142.243 42.1768 142.108C42.2886 141.972 42.3722 141.842 42.4273 141.72C42.4825 141.597 42.5101 141.466 42.5101 141.328C42.5101 141.172 42.4733 141.038 42.3998 140.924C42.3262 140.81 42.2258 140.721 42.0986 140.66C41.9714 140.597 41.8281 140.565 41.6687 140.565C41.5002 140.565 41.353 140.6 41.2274 140.669C41.1017 140.738 41.0052 140.835 40.9377 140.961C40.8703 141.087 40.8365 141.234 40.8365 141.402H40.1584C40.1584 141.115 40.2243 140.865 40.3561 140.651C40.4879 140.436 40.6688 140.269 40.8987 140.152C41.1285 140.032 41.3899 139.973 41.6826 139.973C41.9783 139.973 42.2388 140.031 42.4641 140.149C42.691 140.266 42.868 140.425 42.9952 140.628C43.1224 140.828 43.186 141.055 43.186 141.308C43.186 141.483 43.153 141.654 43.0871 141.82C43.0227 141.988 42.9102 142.174 42.7492 142.379C42.5883 142.583 42.3645 142.83 42.0779 143.122L41.1423 144.101V144.136H43.2619V144.745H40.1631ZM45.6871 144.809C45.3989 144.809 45.1399 144.754 44.9101 144.644C44.6817 144.532 44.4993 144.378 44.363 144.184C44.2266 143.989 44.1538 143.767 44.1446 143.517H44.8342C44.8511 143.72 44.9407 143.885 45.1032 144.016C45.2656 144.147 45.4603 144.212 45.6871 144.212C45.8679 144.212 46.0281 144.17 46.1675 144.087C46.3085 144.003 46.4189 143.887 46.4985 143.74C46.5798 143.593 46.6204 143.426 46.6204 143.237C46.6204 143.045 46.579 142.874 46.4962 142.724C46.4135 142.573 46.2993 142.456 46.1538 142.37C46.0097 142.284 45.8442 142.24 45.6572 142.239C45.5146 142.239 45.3714 142.263 45.2273 142.312C45.0832 142.361 44.9667 142.426 44.8779 142.506L44.2273 142.409L44.4917 140.037H47.0802V140.646H45.0825L44.9331 141.963H44.9607C45.0526 141.875 45.1744 141.8 45.3262 141.74C45.4794 141.68 45.6434 141.65 45.8181 141.65C46.1047 141.65 46.3599 141.719 46.5837 141.855C46.8089 141.991 46.9859 142.178 47.1146 142.414C47.2449 142.648 47.3093 142.918 47.3078 143.223C47.3093 143.528 47.2403 143.8 47.1009 144.039C46.9629 144.278 46.7714 144.467 46.5262 144.605C46.2825 144.741 46.0028 144.809 45.6871 144.809ZM50.8026 142.076L50.1795 142.186C50.1535 142.106 50.1122 142.031 50.0554 141.958C50.0002 141.886 49.9252 141.827 49.8302 141.781C49.7351 141.736 49.6163 141.712 49.4738 141.712C49.2791 141.712 49.1168 141.756 48.9864 141.844C48.8562 141.929 48.7911 142.04 48.7911 142.177C48.7911 142.295 48.8347 142.39 48.9221 142.462C49.0094 142.534 49.1504 142.593 49.3451 142.639L49.906 142.768C50.2309 142.843 50.473 142.959 50.6324 143.115C50.7918 143.271 50.8715 143.475 50.8715 143.724C50.8715 143.935 50.8102 144.124 50.6876 144.289C50.5665 144.453 50.3972 144.582 50.1795 144.676C49.9635 144.77 49.7129 144.816 49.4278 144.816C49.0324 144.816 48.7099 144.731 48.46 144.563C48.2102 144.393 48.057 144.152 48.0003 143.839L48.6646 143.738C48.706 143.911 48.7911 144.042 48.9198 144.131C49.0486 144.218 49.2163 144.262 49.4233 144.262C49.6485 144.262 49.8286 144.215 49.9635 144.122C50.0983 144.026 50.1657 143.911 50.1657 143.775C50.1657 143.664 50.1244 143.572 50.0417 143.497C49.9604 143.421 49.8355 143.365 49.667 143.327L49.0692 143.196C48.7397 143.12 48.496 143 48.3382 142.836C48.1819 142.672 48.1037 142.465 48.1037 142.213C48.1037 142.006 48.162 141.823 48.2784 141.667C48.3949 141.51 48.5559 141.388 48.7612 141.301C48.9666 141.212 49.2018 141.168 49.4669 141.168C49.8485 141.168 50.1489 141.251 50.3681 141.416C50.5872 141.58 50.7321 141.8 50.8026 142.076Z" fill="#343434"/>
<path d="M85.7343 144.823C85.3711 144.821 85.0607 144.726 84.8032 144.535C84.5457 144.345 84.3488 144.069 84.2125 143.705C84.076 143.343 84.0078 142.905 84.0078 142.393C84.0078 141.883 84.076 141.447 84.2125 141.085C84.3503 140.723 84.548 140.448 84.8055 140.258C85.0645 140.067 85.3741 139.973 85.7343 139.973C86.0944 139.973 86.4032 140.068 86.6607 140.26C86.9181 140.45 87.1151 140.726 87.2514 141.088C87.3894 141.448 87.4583 141.883 87.4583 142.393C87.4583 142.907 87.3901 143.344 87.2538 143.708C87.1174 144.07 86.9204 144.346 86.663 144.538C86.4055 144.728 86.096 144.823 85.7343 144.823ZM85.7343 144.209C86.053 144.209 86.302 144.054 86.4814 143.743C86.6622 143.431 86.7526 142.982 86.7526 142.393C86.7526 142.002 86.7112 141.672 86.6285 141.402C86.5472 141.131 86.43 140.925 86.2768 140.786C86.125 140.646 85.9442 140.574 85.7343 140.574C85.417 140.574 85.1679 140.731 84.9871 141.044C84.8062 141.356 84.7151 141.806 84.7135 142.393C84.7135 142.786 84.7542 143.117 84.8354 143.388C84.9182 143.658 85.0354 143.862 85.1871 144.002C85.3389 144.14 85.5212 144.209 85.7343 144.209ZM88.5652 144.788C88.4396 144.788 88.3315 144.744 88.2411 144.655C88.1507 144.565 88.1055 144.456 88.1055 144.328C88.1055 144.203 88.1507 144.096 88.2411 144.007C88.3315 143.917 88.4396 143.871 88.5652 143.871C88.6909 143.871 88.7989 143.917 88.8894 144.007C88.9798 144.096 89.025 144.203 89.025 144.328C89.025 144.413 89.0036 144.491 88.9606 144.561C88.9193 144.63 88.8641 144.685 88.7951 144.726C88.7262 144.768 88.6495 144.788 88.5652 144.788ZM91.4149 144.809C91.1261 144.809 90.8676 144.754 90.6377 144.644C90.4095 144.532 90.2268 144.378 90.0904 144.184C89.9541 143.989 89.881 143.767 89.8721 143.517H90.5619C90.5789 143.72 90.668 143.885 90.8311 144.016C90.9933 144.147 91.1876 144.212 91.4149 144.212C91.5958 144.212 91.7554 144.17 91.8953 144.087C92.0361 144.003 92.1467 143.887 92.226 143.74C92.3071 143.593 92.3481 143.426 92.3481 143.237C92.3481 143.045 92.3062 142.874 92.2242 142.724C92.1413 142.573 92.0272 142.456 91.8811 142.37C91.7376 142.284 91.5718 142.24 91.3846 142.239C91.242 142.239 91.0985 142.263 90.955 142.312C90.8106 142.361 90.6947 142.426 90.6056 142.506L89.955 142.409L90.2197 140.037H92.808V140.646H90.8097L90.6609 141.963H90.6885C90.7803 141.875 90.9024 141.8 91.0539 141.74C91.2072 141.68 91.3712 141.65 91.5459 141.65C91.832 141.65 92.0878 141.719 92.3116 141.855C92.5362 141.991 92.7135 142.178 92.8419 142.414C92.972 142.648 93.0371 142.918 93.0353 143.223C93.0371 143.528 92.9676 143.8 92.8285 144.039C92.6904 144.278 92.4987 144.467 92.2536 144.605C92.0103 144.741 91.7304 144.809 91.4149 144.809ZM95.514 144.823C95.1504 144.821 94.8402 144.726 94.5826 144.535C94.3259 144.345 94.1289 144.069 93.9926 143.705C93.8562 143.343 93.7876 142.905 93.7876 142.393C93.7876 141.883 93.8562 141.447 93.9926 141.085C94.1298 140.723 94.3277 140.448 94.5853 140.258C94.8446 140.067 95.1539 139.973 95.514 139.973C95.8741 139.973 96.1834 140.068 96.4401 140.26C96.6977 140.45 96.8946 140.726 97.031 141.088C97.1692 141.448 97.2378 141.883 97.2378 142.393C97.2378 142.907 97.1701 143.344 97.0337 143.708C96.8973 144.07 96.7003 144.346 96.4428 144.538C96.1852 144.728 95.8759 144.823 95.514 144.823ZM95.514 144.209C95.8331 144.209 96.0818 144.054 96.2609 143.743C96.4419 143.431 96.5328 142.982 96.5328 142.393C96.5328 142.002 96.4909 141.672 96.408 141.402C96.3269 141.131 96.2101 140.925 96.0568 140.786C95.9044 140.646 95.7244 140.574 95.514 140.574C95.1967 140.574 94.948 140.731 94.7671 141.044C94.5862 141.356 94.4953 141.806 94.4935 142.393C94.4935 142.786 94.5336 143.117 94.6156 143.388C94.6976 143.658 94.8152 143.862 94.9668 144.002C95.1183 144.14 95.301 144.209 95.514 144.209Z" fill="#343434"/>
<path d="M132.066 140.037V144.745H131.353V140.749H131.325L130.199 141.485V140.804L131.374 140.037H132.066ZM133.529 144.788C133.403 144.788 133.296 144.744 133.206 144.655C133.115 144.565 133.069 144.456 133.069 144.328C133.069 144.203 133.115 144.096 133.206 144.007C133.296 143.917 133.403 143.871 133.529 143.871C133.655 143.871 133.763 143.917 133.854 144.007C133.944 144.096 133.989 144.203 133.989 144.328C133.989 144.413 133.968 144.491 133.925 144.561C133.883 144.63 133.829 144.685 133.759 144.726C133.69 144.768 133.614 144.788 133.529 144.788ZM136.369 144.823C136.006 144.821 135.695 144.726 135.438 144.535C135.181 144.345 134.984 144.069 134.847 143.705C134.711 143.343 134.642 142.905 134.642 142.393C134.642 141.883 134.711 141.447 134.847 141.085C134.985 140.723 135.183 140.448 135.44 140.258C135.699 140.067 136.009 139.973 136.369 139.973C136.729 139.973 137.038 140.068 137.296 140.26C137.552 140.45 137.749 140.726 137.886 141.088C138.024 141.448 138.094 141.883 138.094 142.393C138.094 142.907 138.025 143.344 137.889 143.708C137.752 144.07 137.555 144.346 137.298 144.538C137.04 144.728 136.731 144.823 136.369 144.823ZM136.369 144.209C136.688 144.209 136.937 144.054 137.116 143.743C137.297 143.431 137.388 142.982 137.388 142.393C137.388 142.002 137.346 141.672 137.263 141.402C137.182 141.131 137.065 140.925 136.912 140.786C136.76 140.646 136.579 140.574 136.369 140.574C136.052 140.574 135.803 140.731 135.622 141.044C135.441 141.356 135.35 141.806 135.348 142.393C135.348 142.786 135.389 143.117 135.47 143.388C135.553 143.658 135.67 143.862 135.822 144.002C135.974 144.14 136.156 144.209 136.369 144.209ZM140.547 144.823C140.185 144.821 139.874 144.726 139.617 144.535C139.359 144.345 139.162 144.069 139.026 143.705C138.889 143.343 138.821 142.905 138.821 142.393C138.821 141.883 138.889 141.447 139.026 141.085C139.164 140.723 139.362 140.448 139.619 140.258C139.878 140.067 140.187 139.973 140.547 139.973C140.907 139.973 141.217 140.068 141.474 140.26C141.732 140.45 141.929 140.726 142.065 141.088C142.202 141.448 142.272 141.883 142.272 142.393C142.272 142.907 142.203 143.344 142.067 143.708C141.931 144.07 141.734 144.346 141.476 144.538C141.219 144.728 140.909 144.823 140.547 144.823ZM140.547 144.209C140.866 144.209 141.115 144.054 141.295 143.743C141.476 143.431 141.566 142.982 141.566 142.393C141.566 142.002 141.525 141.672 141.442 141.402C141.361 141.131 141.243 140.925 141.09 140.786C140.939 140.646 140.758 140.574 140.547 140.574C140.23 140.574 139.981 140.731 139.8 141.044C139.619 141.356 139.529 141.806 139.527 142.393C139.527 142.786 139.568 143.117 139.649 143.388C139.732 143.658 139.848 143.862 140.001 144.002C140.152 144.14 140.334 144.209 140.547 144.209Z" fill="#343434"/>
</g>
</svg>
