<svg width="138" height="139" viewBox="0 0 138 139" fill="none" xmlns="http://www.w3.org/2000/svg">
<mask id="mask0_12215_9732" style="mask-type:luminance" maskUnits="userSpaceOnUse" x="0" y="0" width="138" height="139">
<path d="M138 0.753906H0V138.754H138V0.753906Z" fill="white"/>
</mask>
<g mask="url(#mask0_12215_9732)">
<path d="M121.77 66.7539H147.52" stroke="#343434" stroke-width="0.4"/>
<path d="M114.367 96.6641H147.52" stroke="#343434" stroke-width="0.4"/>
<path d="M101.434 81.7539H147.395" stroke="#343434" stroke-width="0.4"/>
<path d="M98.9927 46.4493L55.1879 46.3455C54.8619 46.3448 54.5511 46.4831 54.3334 46.7257L47.2505 54.6221C46.7862 55.1397 45.9714 55.127 45.5236 54.5951L38.9369 46.7735C38.7195 46.5153 38.3993 46.3663 38.0618 46.3663H16.6677C16.0358 46.3663 15.5236 45.8541 15.5236 45.2222L15.5234 27.3589C15.5234 26.727 16.0357 26.2148 16.6676 26.2148H98.9927M98.9927 46.4493L118.095 46.4899C118.728 46.4913 119.242 45.9786 119.242 45.3458V27.3589C119.242 26.727 118.729 26.2148 118.098 26.2148H98.9927M98.9927 46.4493V26.2148" stroke="#343434" stroke-width="0.7"/>
<path d="M22.7383 33.1094H23.7853L25.3812 35.8865H25.4468L27.0427 33.1094H28.0897L25.8734 36.8202V39.2185H24.9547V36.8202L22.7383 33.1094ZM30.0637 39.311C29.6342 39.311 29.2593 39.2125 28.9391 39.0156C28.619 38.8188 28.3704 38.5433 28.1934 38.1894C28.0164 37.8354 27.9279 37.4217 27.9279 36.9485C27.9279 36.4732 28.0164 36.0575 28.1934 35.7016C28.3704 35.3456 28.619 35.0692 28.9391 34.8723C29.2593 34.6754 29.6342 34.577 30.0637 34.577C30.4933 34.577 30.8681 34.6754 31.1883 34.8723C31.5085 35.0692 31.757 35.3456 31.934 35.7016C32.111 36.0575 32.1995 36.4732 32.1995 36.9485C32.1995 37.4217 32.111 37.8354 31.934 38.1894C31.757 38.5433 31.5085 38.8188 31.1883 39.0156C30.8681 39.2125 30.4933 39.311 30.0637 39.311ZM30.0667 38.5622C30.3451 38.5622 30.5758 38.4887 30.7587 38.3415C30.9417 38.1943 31.0769 37.9985 31.1644 37.7539C31.2539 37.5093 31.2987 37.2398 31.2987 36.9455C31.2987 36.6531 31.2539 36.3847 31.1644 36.1401C31.0769 35.8935 30.9417 35.6956 30.7587 35.5465C30.5758 35.3973 30.3451 35.3227 30.0667 35.3227C29.7863 35.3227 29.5536 35.3973 29.3687 35.5465C29.1857 35.6956 29.0495 35.8935 28.96 36.1401C28.8725 36.3847 28.8288 36.6531 28.8288 36.9455C28.8288 37.2398 28.8725 37.5093 28.96 37.7539C29.0495 37.9985 29.1857 38.1943 29.3687 38.3415C29.5536 38.4887 29.7863 38.5622 30.0667 38.5622ZM36.0975 37.3183V34.6367H36.9924V39.2185H36.1154V38.425H36.0677C35.9623 38.6696 35.7932 38.8735 35.5605 39.0365C35.3299 39.1976 35.0425 39.2781 34.6985 39.2781C34.4042 39.2781 34.1436 39.2135 33.9169 39.0843C33.6922 38.953 33.5152 38.7591 33.386 38.5026C33.2587 38.246 33.1951 37.9289 33.1951 37.551V34.6367H34.087V37.4436C34.087 37.7558 34.1735 38.0044 34.3465 38.1894C34.5195 38.3743 34.7442 38.4668 35.0206 38.4668C35.1877 38.4668 35.3537 38.425 35.5188 38.3415C35.6858 38.258 35.824 38.1317 35.9334 37.9627C36.0448 37.7936 36.0995 37.5789 36.0975 37.3183ZM41.7472 39.3199C41.4569 39.3199 41.1944 39.2662 40.9597 39.1588C40.725 39.0494 40.5391 38.8914 40.4019 38.6845C40.2667 38.4777 40.199 38.2242 40.199 37.9239C40.199 37.6654 40.2488 37.4526 40.3482 37.2855C40.4476 37.1185 40.5819 36.9862 40.7509 36.8888C40.9199 36.7914 41.1088 36.7178 41.3177 36.6681C41.5265 36.6183 41.7392 36.5806 41.956 36.5547C42.2304 36.5229 42.4532 36.497 42.6242 36.4771C42.7952 36.4553 42.9195 36.4205 42.9971 36.3727C43.0746 36.325 43.1134 36.2475 43.1134 36.1401V36.1192C43.1134 35.8587 43.0398 35.6568 42.8927 35.5137C42.7475 35.3705 42.5307 35.2989 42.2424 35.2989C41.9421 35.2989 41.7054 35.3655 41.5324 35.4987C41.3614 35.63 41.2431 35.7762 41.1775 35.9372L40.3392 35.7463C40.4387 35.4679 40.5838 35.2432 40.7748 35.0722C40.9677 34.8992 41.1894 34.7739 41.44 34.6963C41.6905 34.6168 41.954 34.577 42.2304 34.577C42.4134 34.577 42.6073 34.5989 42.8121 34.6426C43.0189 34.6844 43.2118 34.7619 43.3908 34.8753C43.5718 34.9887 43.7199 35.1507 43.8353 35.3615C43.9506 35.5703 44.0083 35.8418 44.0083 36.1759V39.2185H43.1373V38.5921H43.1015C43.0438 38.7074 42.9573 38.8208 42.8419 38.9321C42.7266 39.0435 42.5784 39.136 42.3975 39.2095C42.2165 39.2831 41.9998 39.3199 41.7472 39.3199ZM41.9411 38.604C42.1877 38.604 42.3985 38.5553 42.5735 38.4578C42.7505 38.3604 42.8847 38.2331 42.9762 38.076C43.0696 37.9169 43.1164 37.7469 43.1164 37.5659V36.9753C43.0846 37.0071 43.0229 37.0369 42.9314 37.0648C42.8419 37.0906 42.7395 37.1135 42.6242 37.1334C42.5088 37.1513 42.3965 37.1682 42.2871 37.1841C42.1777 37.198 42.0863 37.21 42.0127 37.2199C41.8397 37.2418 41.6816 37.2786 41.5384 37.3303C41.3972 37.382 41.2838 37.4566 41.1983 37.554C41.1148 37.6494 41.073 37.7767 41.073 37.9358C41.073 38.1566 41.1546 38.3236 41.3177 38.4369C41.4807 38.5483 41.6885 38.604 41.9411 38.604ZM45.1962 39.2185V34.6367H46.0583V35.3645H46.106C46.1896 35.1179 46.3367 34.924 46.5475 34.7828C46.7603 34.6396 47.0009 34.5681 47.2694 34.5681C47.3251 34.5681 47.3907 34.57 47.4663 34.574C47.5438 34.578 47.6045 34.583 47.6482 34.5889V35.4421C47.6124 35.4321 47.5488 35.4212 47.4573 35.4093C47.3658 35.3953 47.2744 35.3884 47.1829 35.3884C46.9721 35.3884 46.7842 35.4331 46.6191 35.5226C46.456 35.6101 46.3268 35.7324 46.2313 35.8895C46.1359 36.0446 46.0881 36.2216 46.0881 36.4205V39.2185H45.1962ZM50.2307 39.311C49.7793 39.311 49.3905 39.2145 49.0644 39.0216C48.7402 38.8267 48.4897 38.5533 48.3127 38.2013C48.1377 37.8473 48.0502 37.4327 48.0502 36.9574C48.0502 36.4881 48.1377 36.0744 48.3127 35.7165C48.4897 35.3585 48.7363 35.0791 49.0525 34.8783C49.3706 34.6774 49.7425 34.577 50.1681 34.577C50.4266 34.577 50.6772 34.6198 50.9198 34.7053C51.1624 34.7908 51.3802 34.925 51.573 35.108C51.7659 35.2909 51.9181 35.5286 52.0294 35.8209C52.1408 36.1112 52.1965 36.4642 52.1965 36.8798V37.196H48.5543V36.5279H51.3225C51.3225 36.2932 51.2748 36.0854 51.1793 35.9044C51.0838 35.7215 50.9496 35.5773 50.7766 35.4719C50.6056 35.3665 50.4047 35.3138 50.174 35.3138C49.9235 35.3138 49.7047 35.3754 49.5178 35.4987C49.3329 35.62 49.1897 35.7791 49.0882 35.976C48.9888 36.1709 48.9391 36.3827 48.9391 36.6114V37.1334C48.9391 37.4396 48.9928 37.7002 49.1002 37.9149C49.2096 38.1297 49.3617 38.2938 49.5566 38.4071C49.7515 38.5185 49.9792 38.5742 50.2397 38.5742C50.4087 38.5742 50.5628 38.5503 50.702 38.5026C50.8412 38.4529 50.9615 38.3793 51.063 38.2818C51.1644 38.1844 51.2419 38.0641 51.2956 37.9209L52.1398 38.073C52.0722 38.3216 51.9509 38.5394 51.7759 38.7263C51.6029 38.9112 51.3851 39.0554 51.1226 39.1588C50.8621 39.2602 50.5648 39.311 50.2307 39.311ZM56.7425 39.3199C56.4522 39.3199 56.1897 39.2662 55.955 39.1588C55.7203 39.0494 55.5344 38.8914 55.3972 38.6845C55.262 38.4777 55.1944 38.2242 55.1944 37.9239C55.1944 37.6654 55.2441 37.4526 55.3435 37.2855C55.4429 37.1185 55.5772 36.9862 55.7462 36.8888C55.9152 36.7914 56.1042 36.7178 56.313 36.6681C56.5218 36.6183 56.7346 36.5806 56.9513 36.5547C57.2257 36.5229 57.4485 36.497 57.6195 36.4771C57.7905 36.4553 57.9148 36.4205 57.9924 36.3727C58.0699 36.325 58.1087 36.2475 58.1087 36.1401V36.1192C58.1087 35.8587 58.0351 35.6568 57.888 35.5137C57.7428 35.3705 57.526 35.2989 57.2377 35.2989C56.9374 35.2989 56.7007 35.3655 56.5277 35.4987C56.3567 35.63 56.2384 35.7762 56.1728 35.9372L55.3346 35.7463C55.434 35.4679 55.5792 35.2432 55.7701 35.0722C55.963 34.8992 56.1847 34.7739 56.4353 34.6963C56.6858 34.6168 56.9493 34.577 57.2257 34.577C57.4087 34.577 57.6026 34.5989 57.8074 34.6426C58.0142 34.6844 58.2071 34.7619 58.3861 34.8753C58.5671 34.9887 58.7152 35.1507 58.8306 35.3615C58.9459 35.5703 59.0036 35.8418 59.0036 36.1759V39.2185H58.1326V38.5921H58.0968C58.0391 38.7074 57.9526 38.8208 57.8373 38.9321C57.7219 39.0435 57.5738 39.136 57.3928 39.2095C57.2118 39.2831 56.9951 39.3199 56.7425 39.3199ZM56.9364 38.604C57.183 38.604 57.3938 38.5553 57.5688 38.4578C57.7458 38.3604 57.88 38.2331 57.9715 38.076C58.065 37.9169 58.1117 37.7469 58.1117 37.5659V36.9753C58.0799 37.0071 58.0182 37.0369 57.9267 37.0648C57.8373 37.0906 57.7348 37.1135 57.6195 37.1334C57.5042 37.1513 57.3918 37.1682 57.2824 37.1841C57.173 37.198 57.0816 37.21 57.008 37.2199C56.835 37.2418 56.6769 37.2786 56.5337 37.3303C56.3925 37.382 56.2792 37.4566 56.1936 37.554C56.1101 37.6494 56.0684 37.7767 56.0684 37.9358C56.0684 38.1566 56.1499 38.3236 56.313 38.4369C56.476 38.5483 56.6838 38.604 56.9364 38.604ZM63.0022 39.2752C62.8392 39.2752 62.699 39.2175 62.5816 39.1021C62.4643 38.9848 62.4056 38.8436 62.4056 38.6786C62.4056 38.5155 62.4643 38.3763 62.5816 38.261C62.699 38.1436 62.8392 38.085 63.0022 38.085C63.1653 38.085 63.3055 38.1436 63.4228 38.261C63.5402 38.3763 63.5988 38.5155 63.5988 38.6786C63.5988 38.7879 63.571 38.8884 63.5153 38.9798C63.4616 39.0693 63.39 39.1409 63.3005 39.1946C63.211 39.2483 63.1116 39.2752 63.0022 39.2752ZM65.3811 39.2752C65.2181 39.2752 65.0779 39.2175 64.9605 39.1021C64.8432 38.9848 64.7846 38.8436 64.7846 38.6786C64.7846 38.5155 64.8432 38.3763 64.9605 38.261C65.0779 38.1436 65.2181 38.085 65.3811 38.085C65.5442 38.085 65.6844 38.1436 65.8017 38.261C65.9191 38.3763 65.9777 38.5155 65.9777 38.6786C65.9777 38.7879 65.9499 38.8884 65.8942 38.9798C65.8405 39.0693 65.7689 39.1409 65.6794 39.1946C65.59 39.2483 65.4905 39.2752 65.3811 39.2752ZM67.7601 39.2752C67.597 39.2752 67.4568 39.2175 67.3395 39.1021C67.2221 38.9848 67.1635 38.8436 67.1635 38.6786C67.1635 38.5155 67.2221 38.3763 67.3395 38.261C67.4568 38.1436 67.597 38.085 67.7601 38.085C67.9231 38.085 68.0633 38.1436 68.1806 38.261C68.298 38.3763 68.3566 38.5155 68.3566 38.6786C68.3566 38.7879 68.3288 38.8884 68.2731 38.9798C68.2194 39.0693 68.1478 39.1409 68.0583 39.1946C67.9689 39.2483 67.8694 39.2752 67.7601 39.2752Z" fill="#343434"/>
<path d="M109.429 180.174L107.84 151.167C107.173 139.009 98.6631 128.704 86.8504 125.751C76.1077 123.065 68.3699 113.691 67.7688 102.634L66.6155 81.4193C66.0408 76.4689 66.736 73.2756 64.4419 69.6434C62.0489 65.8545 56.4171 61.9984 50.9113 61.9398C42.6227 61.8516 38.4566 64.3548 34.8219 68.2584C31.2815 72.0608 29.7463 76.6369 29.4134 79.8162L28.8419 84.6793L27.4739 96.3212C27.4253 96.7345 27.7971 97.0729 28.2034 96.9827C29.294 96.7404 30.6818 96.4166 31.8822 96.1019C32.226 96.0118 32.5763 96.2302 32.6421 96.5794L34.6494 107.228C34.8555 108.321 35.9141 109.037 37.0057 108.822C39.2614 108.377 41.7421 107.885 44.5851 107.241M44.5851 107.241C47.8104 106.511 49.1044 106.119 50.189 105.77M44.5851 107.241C45.3354 109.964 45.7739 115.03 44.6389 117.524C43.4584 120.118 33.3785 126.509 23.7589 131.409C17.112 134.795 12.0635 141.001 11.0713 148.395L4.19531 199.636" stroke="#343434" stroke-width="0.7"/>
<path d="M117.038 65.0547H80.438C79.5263 65.0547 78.7871 65.7938 78.7871 66.7056C78.7871 67.6174 79.5263 68.3565 80.438 68.3565H117.038C117.95 68.3565 118.689 67.6174 118.689 66.7056C118.689 65.7938 117.95 65.0547 117.038 65.0547Z" stroke="#343434" stroke-width="0.7"/>
<path d="M96.3659 80.0039H80.4224C79.5106 80.0039 78.7715 80.743 78.7715 81.6548C78.7715 82.5666 79.5106 83.3057 80.4224 83.3057H96.3659C97.2776 83.3057 98.0168 82.5666 98.0168 81.6548C98.0168 80.743 97.2776 80.0039 96.3659 80.0039Z" stroke="#343434" stroke-width="0.7"/>
<path d="M109.909 95.2305H80.4849C79.5731 95.2305 78.834 95.9696 78.834 96.8814C78.834 97.7932 79.5731 98.5323 80.4849 98.5323H109.909C110.821 98.5323 111.56 97.7932 111.56 96.8814C111.56 95.9696 110.821 95.2305 109.909 95.2305Z" stroke="#343434" stroke-width="0.7"/>
<path d="M105.92 37.9894L107.91 36.8726L107.943 36.7753L107.91 36.7215H107.813L107.48 36.701L106.342 36.6703L105.356 36.6293L104.401 36.578L104.16 36.5268L103.934 36.2297L103.957 36.0811L104.16 35.9453L104.449 35.971L105.09 36.0145L106.05 36.0811L106.747 36.1221L107.779 36.2297H107.943L107.966 36.1631L107.91 36.1221L107.866 36.0811L106.872 35.4074L105.797 34.6953L105.233 34.2855L104.928 34.078L104.775 33.8833L104.708 33.4581L104.985 33.1533L105.356 33.1789L105.451 33.2045L105.827 33.494L106.632 34.1164L107.682 34.89L107.836 35.0181L107.897 34.9745L107.905 34.9438L107.836 34.8285L107.264 33.7962L106.655 32.746L106.383 32.3105L106.311 32.0493C106.286 31.9417 106.268 31.852 106.268 31.7419L106.583 31.3141L106.757 31.2578L107.177 31.3141L107.354 31.4678L107.615 32.0646L108.038 33.0047L108.694 34.2829L108.886 34.662L108.988 35.013L109.027 35.1205H109.093V35.0591L109.147 34.3393L109.247 33.4555L109.344 32.3182L109.378 31.998L109.536 31.6138L109.852 31.4063L110.097 31.5242L110.3 31.8136L110.272 32.0006L110.151 32.7819L109.916 34.0063L109.762 34.826H109.852L109.954 34.7235L110.369 34.1728L111.066 33.3019L111.373 32.956L111.732 32.5744L111.962 32.3925H112.398L112.718 32.869L112.574 33.3608L112.126 33.9294L111.755 34.411L111.222 35.1282L110.889 35.702L110.92 35.7481L110.999 35.7404L112.203 35.4843L112.854 35.3664L113.63 35.2332L113.981 35.3972L114.019 35.5637L113.881 35.9044L113.051 36.1093L112.077 36.304L110.628 36.6472L110.61 36.66L110.63 36.6856L111.283 36.7471L111.563 36.7625H112.247L113.52 36.8573L113.853 37.0775L114.052 37.3465L114.019 37.5514L113.507 37.8127L112.815 37.6488L111.201 37.2645L110.648 37.1262H110.571V37.1723L111.032 37.6231L111.878 38.3865L112.936 39.3701L112.989 39.6135L112.854 39.8056L112.71 39.7851L111.78 39.0858L111.422 38.7707L110.61 38.0868H110.556V38.1585L110.743 38.4326L111.732 39.9183L111.783 40.3742L111.711 40.5228L111.455 40.6124L111.173 40.5612L110.594 39.7492L109.998 38.8347L109.516 38.0151L109.457 38.0484L109.173 41.1094L109.04 41.2656L108.732 41.3835L108.476 41.1888L108.34 40.8737L108.476 40.2513L108.64 39.4393L108.773 38.7938L108.894 37.992L108.965 37.7256L108.96 37.7077L108.901 37.7154L108.297 38.5453L107.377 39.7876L106.65 40.5663L106.475 40.6355L106.173 40.4793L106.201 40.2L106.37 39.9516L107.377 38.6708L107.984 37.8767L108.376 37.4182L108.374 37.3516H108.35L105.676 39.0883L105.2 39.1498L104.995 38.9577L105.02 38.6426L105.118 38.5402L105.922 37.9869L105.92 37.9894Z" fill="#343434"/>
<path d="M117.068 68.6759C118.157 68.6759 119.039 67.7936 119.039 66.7051C119.039 65.6167 118.157 64.7344 117.068 64.7344C115.98 64.7344 115.098 65.6167 115.098 66.7051C115.098 67.7936 115.98 68.6759 117.068 68.6759Z" fill="#343434"/>
<path d="M96.3965 83.6251C97.485 83.6251 98.3673 82.7428 98.3673 81.6544C98.3673 80.5659 97.485 79.6836 96.3965 79.6836C95.3081 79.6836 94.4258 80.5659 94.4258 81.6544C94.4258 82.7428 95.3081 83.6251 96.3965 83.6251Z" fill="#343434"/>
<path d="M109.94 98.8517C111.028 98.8517 111.91 97.9693 111.91 96.8809C111.91 95.7925 111.028 94.9102 109.94 94.9102C108.851 94.9102 107.969 95.7925 107.969 96.8809C107.969 97.9693 108.851 98.8517 109.94 98.8517Z" fill="#343434"/>
</g>
</svg>
