<svg width="138" height="139" viewBox="0 0 138 139" fill="none" xmlns="http://www.w3.org/2000/svg">
<mask id="mask0_12215_9761" style="mask-type:luminance" maskUnits="userSpaceOnUse" x="0" y="0" width="138" height="139">
<path d="M138 0.753906H0V138.754H138V0.753906Z" fill="white"/>
</mask>
<g mask="url(#mask0_12215_9761)">
<path d="M107.589 66.1902C112.878 66.1902 117.165 61.9031 117.165 56.6146C117.165 51.3262 112.878 47.0391 107.589 47.0391C102.301 47.0391 98.0137 51.3262 98.0137 56.6146C98.0137 61.9031 102.301 66.1902 107.589 66.1902Z" stroke="#343434" stroke-width="0.7"/>
<path d="M105.007 59.0449L102.586 56.6249L105.023 54.1875" stroke="#343434" stroke-width="0.64"/>
<path d="M110.164 54.1875L112.586 56.6074L110.148 59.0449" stroke="#343434" stroke-width="0.64"/>
<path d="M108.633 52.9453L106.426 60.2867" stroke="#343434" stroke-width="0.64"/>
<path d="M108.398 95.8152C113.686 95.8152 117.973 91.5281 117.973 86.2396C117.973 80.9512 113.686 76.6641 108.398 76.6641C103.109 76.6641 98.8223 80.9512 98.8223 86.2396C98.8223 91.5281 103.109 95.8152 108.398 95.8152Z" stroke="#343434" stroke-width="0.7"/>
<path d="M105.816 88.666L103.395 86.246L105.832 83.8086" stroke="#343434" stroke-width="0.64"/>
<path d="M110.973 83.8086L113.395 86.2285L110.957 88.666" stroke="#343434" stroke-width="0.64"/>
<path d="M109.442 82.5664L107.234 89.9078" stroke="#343434" stroke-width="0.64"/>
<path d="M30.3353 106.995C35.6238 106.995 39.9109 102.708 39.9109 97.4193C39.9109 92.1309 35.6238 87.8438 30.3353 87.8438C25.0469 87.8438 20.7598 92.1309 20.7598 97.4193C20.7598 102.708 25.0469 106.995 30.3353 106.995Z" stroke="#343434" stroke-width="0.7"/>
<path d="M27.7535 99.8496L25.332 97.4296L27.7695 94.9922" stroke="#343434" stroke-width="0.64"/>
<path d="M32.9105 94.9922L35.3319 97.4122L32.8945 99.8496" stroke="#343434" stroke-width="0.64"/>
<path d="M31.3795 93.75L29.1719 101.092" stroke="#343434" stroke-width="0.64"/>
<path d="M22.0463 79.1473C27.3347 79.1473 31.6219 74.8601 31.6219 69.5717C31.6219 64.2832 27.3347 59.9961 22.0463 59.9961C16.7578 59.9961 12.4707 64.2832 12.4707 69.5717C12.4707 74.8601 16.7578 79.1473 22.0463 79.1473Z" stroke="#343434" stroke-width="0.7"/>
<path d="M19.4605 71.998L17.0391 69.578L19.4765 67.1406" stroke="#343434" stroke-width="0.64"/>
<path d="M24.6176 67.1406L27.0391 69.5606L24.6016 71.998" stroke="#343434" stroke-width="0.64"/>
<path d="M23.0865 65.8984L20.8789 73.2398" stroke="#343434" stroke-width="0.64"/>
<path d="M33.7103 52.7137C38.9988 52.7137 43.2859 48.4265 43.2859 43.1381C43.2859 37.8496 38.9988 33.5625 33.7103 33.5625C28.4219 33.5625 24.1348 37.8496 24.1348 43.1381C24.1348 48.4265 28.4219 52.7137 33.7103 52.7137Z" stroke="#343434" stroke-width="0.7"/>
<path d="M31.1324 45.5644L28.7109 43.1445L31.1484 40.707" stroke="#343434" stroke-width="0.64"/>
<path d="M36.2894 40.707L38.7108 43.1269L36.2734 45.5644" stroke="#343434" stroke-width="0.64"/>
<path d="M34.7584 39.4688L32.5508 46.8102" stroke="#343434" stroke-width="0.64"/>
<path d="M59.8511 31.0293L57.4297 28.6093L59.8671 26.1719" stroke="#343434" stroke-width="0.64"/>
<path d="M65.0082 26.1719L67.4297 28.5918L64.9922 31.0293" stroke="#343434" stroke-width="0.64"/>
<path d="M63.4772 24.9297L61.2695 32.2711" stroke="#343434" stroke-width="0.64"/>
<path d="M127.913 166.385L126.324 137.379C125.658 125.221 117.147 114.914 105.335 111.961C94.592 109.275 86.8543 99.9018 86.2532 88.8448L85.0999 67.6302C84.5251 62.6797 85.2204 59.4865 82.9263 55.8542C80.5333 52.0653 74.9015 48.2092 69.3956 48.1507C61.1071 48.0625 56.941 50.5656 53.3063 54.4693C49.7659 58.2717 48.2306 62.8478 47.8977 66.027L47.3263 70.8902L45.9583 82.532C45.9097 82.9453 46.2815 83.2837 46.6877 83.1935C47.7784 82.9513 49.1662 82.6274 50.3666 82.3128C50.7104 82.2227 51.0607 82.441 51.1265 82.7903L53.3943 94.8213C53.4569 95.1533 53.7783 95.3705 54.1098 95.305C56.729 94.7869 59.6349 94.2294 63.0695 93.4517M63.0695 93.4517C66.2948 92.7215 67.5888 92.3294 68.6733 91.9808M63.0695 93.4517C63.8198 96.175 64.2583 101.24 63.1233 103.735C61.9428 106.329 51.8629 112.719 42.2432 117.62C35.5963 121.005 30.5478 127.212 29.5557 134.605L22.6797 185.846" stroke="#343434" stroke-width="0.7"/>
<path d="M157.479 19.0234H59.8418C54.5519 19.0234 50.2637 23.3117 50.2637 28.6015C50.2637 33.8914 54.5519 38.1796 59.8418 38.1796H157.479C162.768 38.1796 167.057 33.8914 167.057 28.6015C167.057 23.3117 162.768 19.0234 157.479 19.0234Z" stroke="#343434" stroke-width="0.7"/>
<path d="M77.5249 27.7982L76.7166 27.9414C76.6828 27.8379 76.6291 27.7395 76.5555 27.646C76.4839 27.5526 76.3864 27.476 76.2632 27.4164C76.1399 27.3567 75.9857 27.3269 75.8008 27.3269C75.5482 27.3269 75.3374 27.3835 75.1684 27.4969C74.9994 27.6083 74.9149 27.7524 74.9149 27.9294C74.9149 28.0825 74.9715 28.2058 75.0849 28.2993C75.1982 28.3928 75.3812 28.4693 75.6337 28.529L76.3616 28.696C76.7832 28.7935 77.0974 28.9436 77.3042 29.1465C77.511 29.3493 77.6144 29.6128 77.6144 29.937C77.6144 30.2114 77.5349 30.456 77.3758 30.6708C77.2187 30.8835 76.9989 31.0506 76.7166 31.1719C76.4362 31.2932 76.111 31.3539 75.7411 31.3539C75.2281 31.3539 74.8095 31.2445 74.4853 31.0257C74.1612 30.805 73.9623 30.4918 73.8887 30.0861L74.7508 29.9549C74.8045 30.1796 74.9149 30.3496 75.0819 30.4649C75.2489 30.5783 75.4667 30.635 75.7352 30.635C76.0275 30.635 76.2612 30.5743 76.4362 30.453C76.6112 30.3297 76.6987 30.1796 76.6987 30.0026C76.6987 29.8594 76.645 29.7391 76.5376 29.6416C76.4322 29.5442 76.2701 29.4706 76.0514 29.4209L75.2758 29.2509C74.8482 29.1534 74.532 28.9983 74.3272 28.7855C74.1244 28.5727 74.023 28.3033 74.023 27.9772C74.023 27.7067 74.0985 27.47 74.2497 27.2672C74.4008 27.0644 74.6096 26.9063 74.8761 26.7929C75.1426 26.6776 75.4478 26.6199 75.7918 26.6199C76.287 26.6199 76.6768 26.7273 76.9612 26.9421C77.2455 27.1549 77.4335 27.4402 77.5249 27.7982ZM80.5698 31.3539C80.1184 31.3539 79.7296 31.2574 79.4035 31.0645C79.0793 30.8696 78.8287 30.5962 78.6518 30.2442C78.4768 29.8902 78.3893 29.4756 78.3893 29.0003C78.3893 28.531 78.4768 28.1174 78.6518 27.7594C78.8287 27.4014 79.0753 27.122 79.3915 26.9212C79.7097 26.7203 80.0816 26.6199 80.5072 26.6199C80.7657 26.6199 81.0162 26.6627 81.2589 26.7482C81.5015 26.8337 81.7192 26.9679 81.9121 27.1509C82.105 27.3338 82.2572 27.5715 82.3685 27.8638C82.4799 28.1541 82.5356 28.5071 82.5356 28.9227V29.2389H78.8934V28.5708H81.6616C81.6616 28.3361 81.6138 28.1283 81.5184 27.9473C81.4229 27.7644 81.2887 27.6202 81.1157 27.5148C80.9447 27.4094 80.7438 27.3567 80.5131 27.3567C80.2625 27.3567 80.0438 27.4183 79.8569 27.5416C79.6719 27.6629 79.5287 27.822 79.4273 28.0189C79.3279 28.2138 79.2782 28.4256 79.2782 28.6543V29.1763C79.2782 29.4825 79.3319 29.7431 79.4393 29.9578C79.5486 30.1726 79.7008 30.3367 79.8956 30.45C80.0905 30.5614 80.3182 30.6171 80.5787 30.6171C80.7478 30.6171 80.9019 30.5932 81.0411 30.5455C81.1803 30.4958 81.3006 30.4222 81.402 30.3247C81.5035 30.2273 81.581 30.107 81.6347 29.9638L82.4789 30.1159C82.4113 30.3645 82.29 30.5823 82.115 30.7692C81.942 30.9541 81.7242 31.0983 81.4617 31.2017C81.2012 31.3031 80.9039 31.3539 80.5698 31.3539ZM84.8585 31.3628C84.5682 31.3628 84.3057 31.3091 84.071 31.2017C83.8364 31.0924 83.6504 30.9343 83.5132 30.7274C83.378 30.5206 83.3104 30.2671 83.3104 29.9668C83.3104 29.7083 83.3601 29.4955 83.4595 29.3284C83.559 29.1614 83.6932 29.0291 83.8622 28.9317C84.0313 28.8343 84.2202 28.7607 84.429 28.711C84.6378 28.6612 84.8506 28.6235 85.0673 28.5976C85.3418 28.5658 85.5645 28.5399 85.7355 28.52C85.9065 28.4982 86.0308 28.4634 86.1084 28.4156C86.186 28.3679 86.2247 28.2904 86.2247 28.183V28.1621C86.2247 27.9016 86.1511 27.6997 86.004 27.5566C85.8588 27.4134 85.6421 27.3418 85.3537 27.3418C85.0534 27.3418 84.8168 27.4084 84.6438 27.5416C84.4727 27.6729 84.3544 27.8191 84.2888 27.9801L83.4506 27.7892C83.55 27.5108 83.6952 27.2861 83.8861 27.1151C84.079 26.9421 84.3007 26.8168 84.5513 26.7392C84.8019 26.6597 85.0654 26.6199 85.3418 26.6199C85.5247 26.6199 85.7186 26.6418 85.9235 26.6855C86.1303 26.7273 86.3232 26.8049 86.5021 26.9182C86.6831 27.0316 86.8313 27.1936 86.9466 27.4044C87.0619 27.6132 87.1196 27.8847 87.1196 28.2188V31.2614H86.2486V30.635H86.2128C86.1551 30.7503 86.0686 30.8637 85.9533 30.975C85.8379 31.0864 85.6898 31.1789 85.5088 31.2524C85.3279 31.326 85.1111 31.3628 84.8585 31.3628ZM85.0524 30.6469C85.299 30.6469 85.5098 30.5982 85.6848 30.5007C85.8618 30.4033 85.996 30.276 86.0875 30.1189C86.181 29.9598 86.2277 29.7898 86.2277 29.6088V29.0182C86.1959 29.05 86.1342 29.0799 86.0428 29.1077C85.9533 29.1335 85.8509 29.1564 85.7355 29.1763C85.6202 29.1942 85.5078 29.2111 85.3985 29.227C85.2891 29.2409 85.1976 29.2529 85.124 29.2628C84.951 29.2847 84.7929 29.3215 84.6497 29.3732C84.5085 29.4249 84.3952 29.4995 84.3097 29.5969C84.2261 29.6924 84.1844 29.8196 84.1844 29.9787C84.1844 30.1995 84.2659 30.3665 84.429 30.4799C84.5921 30.5912 84.7999 30.6469 85.0524 30.6469ZM88.3076 31.2614V26.6796H89.1697V27.4074H89.2174C89.3009 27.1608 89.4481 26.9669 89.6589 26.8257C89.8716 26.6825 90.1123 26.611 90.3807 26.611C90.4364 26.611 90.502 26.6129 90.5776 26.6169C90.6552 26.6209 90.7158 26.6259 90.7596 26.6318V27.485C90.7238 27.475 90.6601 27.4641 90.5687 27.4522C90.4772 27.4382 90.3857 27.4313 90.2942 27.4313C90.0834 27.4313 89.8955 27.476 89.7304 27.5655C89.5674 27.653 89.4381 27.7753 89.3427 27.9324C89.2472 28.0875 89.1995 28.2645 89.1995 28.4634V31.2614H88.3076ZM93.2973 31.3539C92.8538 31.3539 92.472 31.2534 92.1519 31.0526C91.8337 30.8497 91.5891 30.5703 91.4181 30.2144C91.247 29.8584 91.1615 29.4507 91.1615 28.9914C91.1615 28.526 91.249 28.1154 91.424 27.7594C91.599 27.4014 91.8456 27.122 92.1638 26.9212C92.482 26.7203 92.8568 26.6199 93.2884 26.6199C93.6364 26.6199 93.9466 26.6845 94.219 26.8138C94.4915 26.9411 94.7112 27.12 94.8783 27.3507C95.0473 27.5814 95.1477 27.8509 95.1796 28.1591H94.3115C94.2638 27.9443 94.1544 27.7594 93.9834 27.6043C93.8144 27.4492 93.5877 27.3716 93.3033 27.3716C93.0547 27.3716 92.8369 27.4372 92.65 27.5685C92.4651 27.6977 92.3209 27.8827 92.2175 28.1233C92.1141 28.362 92.0624 28.6443 92.0624 28.9705C92.0624 29.3046 92.1131 29.5929 92.2145 29.8355C92.3159 30.0781 92.4591 30.2661 92.644 30.3993C92.831 30.5325 93.0507 30.5992 93.3033 30.5992C93.4723 30.5992 93.6254 30.5683 93.7627 30.5067C93.9019 30.4431 94.0182 30.3526 94.1117 30.2352C94.2071 30.1179 94.2737 29.9767 94.3115 29.8117H95.1796C95.1477 30.108 95.0513 30.3725 94.8902 30.6051C94.7291 30.8378 94.5134 31.0208 94.2429 31.154C93.9744 31.2872 93.6592 31.3539 93.2973 31.3539ZM97.0253 28.5409V31.2614H96.1334V25.1523H97.0133V27.4253H97.07C97.1774 27.1787 97.3415 26.9828 97.5622 26.8377C97.7829 26.6925 98.0713 26.6199 98.4272 26.6199C98.7415 26.6199 99.0159 26.6845 99.2505 26.8138C99.4872 26.9431 99.6701 27.136 99.7994 27.3925C99.9307 27.647 99.9963 27.9652 99.9963 28.347V31.2614H99.1044V28.4544C99.1044 28.1183 99.0179 27.8578 98.8449 27.6729C98.6719 27.486 98.4312 27.3925 98.123 27.3925C97.9122 27.3925 97.7233 27.4372 97.5562 27.5267C97.3912 27.6162 97.2609 27.7475 97.1655 27.9205C97.072 28.0915 97.0253 28.2983 97.0253 28.5409ZM101.774 31.2614H100.796L102.994 25.1523H104.059L106.258 31.2614H105.279L103.552 26.262H103.504L101.774 31.2614ZM101.938 28.8691H105.112V29.6446H101.938V28.8691ZM107.068 31.2614V26.6796H107.924V27.4253H107.981C108.077 27.1727 108.233 26.9759 108.449 26.8347C108.666 26.6915 108.926 26.6199 109.228 26.6199C109.534 26.6199 109.791 26.6915 109.998 26.8347C110.206 26.9779 110.361 27.1747 110.46 27.4253H110.508C110.617 27.1807 110.791 26.9858 111.03 26.8406C111.268 26.6935 111.553 26.6199 111.883 26.6199C112.298 26.6199 112.637 26.7502 112.9 27.0107C113.164 27.2712 113.297 27.6639 113.297 28.1889V31.2614H112.405V28.2725C112.405 27.9622 112.32 27.7375 112.151 27.5983C111.982 27.4591 111.78 27.3895 111.546 27.3895C111.255 27.3895 111.03 27.479 110.869 27.658C110.708 27.835 110.627 28.0627 110.627 28.3411V31.2614H109.738V28.2158C109.738 27.9672 109.661 27.7674 109.505 27.6162C109.35 27.4651 109.148 27.3895 108.9 27.3895C108.731 27.3895 108.575 27.4343 108.432 27.5237C108.29 27.6112 108.176 27.7335 108.088 27.8906C108.003 28.0477 107.96 28.2297 107.96 28.4365V31.2614H107.068ZM115.826 31.3628C115.535 31.3628 115.273 31.3091 115.038 31.2017C114.803 31.0924 114.617 30.9343 114.48 30.7274C114.345 30.5206 114.277 30.2671 114.277 29.9668C114.277 29.7083 114.327 29.4955 114.427 29.3284C114.526 29.1614 114.66 29.0291 114.829 28.9317C114.998 28.8343 115.187 28.7607 115.396 28.711C115.605 28.6612 115.818 28.6235 116.034 28.5976C116.309 28.5658 116.531 28.5399 116.703 28.52C116.874 28.4982 116.998 28.4634 117.075 28.4156C117.153 28.3679 117.192 28.2904 117.192 28.183V28.1621C117.192 27.9016 117.118 27.6997 116.971 27.5566C116.826 27.4134 116.609 27.3418 116.321 27.3418C116.02 27.3418 115.784 27.4084 115.611 27.5416C115.44 27.6729 115.321 27.8191 115.256 27.9801L114.418 27.7892C114.517 27.5108 114.662 27.2861 114.853 27.1151C115.046 26.9421 115.268 26.8168 115.518 26.7392C115.769 26.6597 116.032 26.6199 116.309 26.6199C116.492 26.6199 116.686 26.6418 116.89 26.6855C117.097 26.7273 117.29 26.8049 117.469 26.9182C117.65 27.0316 117.798 27.1936 117.914 27.4044C118.029 27.6132 118.087 27.8847 118.087 28.2188V31.2614H117.216V30.635H117.18C117.122 30.7503 117.036 30.8637 116.92 30.975C116.805 31.0864 116.657 31.1789 116.476 31.2524C116.295 31.326 116.078 31.3628 115.826 31.3628ZM116.019 30.6469C116.266 30.6469 116.477 30.5982 116.652 30.5007C116.829 30.4033 116.963 30.276 117.055 30.1189C117.148 29.9598 117.195 29.7898 117.195 29.6088V29.0182C117.163 29.05 117.101 29.0799 117.01 29.1077C116.92 29.1335 116.818 29.1564 116.703 29.1763C116.587 29.1942 116.475 29.2111 116.365 29.227C116.256 29.2409 116.165 29.2529 116.091 29.2628C115.918 29.2847 115.76 29.3215 115.617 29.3732C115.476 29.4249 115.362 29.4995 115.277 29.5969C115.193 29.6924 115.151 29.8196 115.151 29.9787C115.151 30.1995 115.233 30.3665 115.396 30.4799C115.559 30.5912 115.767 30.6469 116.019 30.6469ZM119.179 31.2614V30.6499L121.661 27.4969V27.4551H119.26V26.6796H122.774V27.3299L120.387 30.4441V30.4858H122.857V31.2614H119.179ZM125.708 31.3539C125.279 31.3539 124.904 31.2554 124.583 31.0585C124.263 30.8617 124.015 30.5862 123.838 30.2323C123.661 29.8783 123.572 29.4647 123.572 28.9914C123.572 28.5161 123.661 28.1004 123.838 27.7445C124.015 27.3885 124.263 27.1121 124.583 26.9152C124.904 26.7183 125.279 26.6199 125.708 26.6199C126.138 26.6199 126.512 26.7183 126.833 26.9152C127.153 27.1121 127.401 27.3885 127.578 27.7445C127.755 28.1004 127.844 28.5161 127.844 28.9914C127.844 29.4647 127.755 29.8783 127.578 30.2323C127.401 30.5862 127.153 30.8617 126.833 31.0585C126.512 31.2554 126.138 31.3539 125.708 31.3539ZM125.711 30.6051C125.989 30.6051 126.22 30.5316 126.403 30.3844C126.586 30.2372 126.721 30.0414 126.809 29.7968C126.898 29.5522 126.943 29.2827 126.943 28.9884C126.943 28.696 126.898 28.4276 126.809 28.183C126.721 27.9364 126.586 27.7385 126.403 27.5894C126.22 27.4402 125.989 27.3656 125.711 27.3656C125.431 27.3656 125.198 27.4402 125.013 27.5894C124.83 27.7385 124.694 27.9364 124.604 28.183C124.517 28.4276 124.473 28.696 124.473 28.9884C124.473 29.2827 124.517 29.5522 124.604 29.7968C124.694 30.0414 124.83 30.2372 125.013 30.3844C125.198 30.5316 125.431 30.6051 125.711 30.6051ZM129.731 28.5409V31.2614H128.839V26.6796H129.696V27.4253H129.752C129.858 27.1827 130.023 26.9878 130.247 26.8406C130.474 26.6935 130.759 26.6199 131.103 26.6199C131.416 26.6199 131.689 26.6855 131.924 26.8168C132.158 26.946 132.34 27.1389 132.47 27.3955C132.599 27.652 132.664 27.9692 132.664 28.347V31.2614H131.772V28.4544C131.772 28.1223 131.685 27.8628 131.512 27.6759C131.339 27.487 131.101 27.3925 130.799 27.3925C130.592 27.3925 130.408 27.4372 130.247 27.5267C130.088 27.6162 129.962 27.7475 129.869 27.9205C129.777 28.0915 129.731 28.2983 129.731 28.5409Z" fill="#343434"/>
<path d="M50.5415 30.7422C46.9615 32.0989 43.6039 33.9078 40.5384 36.0991M94.4293 38.1047C97.8164 40.9265 100.774 44.2459 103.191 47.9506M109.911 65.8799C110.192 67.8937 110.337 69.9511 110.337 72.0424C110.337 73.6654 110.25 75.2679 110.079 76.8455M104.158 94.5829C101.778 98.5843 98.7828 102.177 95.3037 105.232M50.22 113.219C45.1594 111.256 40.5507 108.386 36.593 104.81M25.6347 89.5358C24.2467 86.3225 23.2294 82.9117 22.6367 79.3572M23.634 60.2208C24.5763 56.8215 25.9151 53.5869 27.5974 50.5701" stroke="#343434" stroke-width="0.7" stroke-dasharray="0.5 2.5"/>
</g>
</svg>
