<svg width="250" height="250" viewBox="0 0 250 250" fill="none" xmlns="http://www.w3.org/2000/svg">
<mask id="path-1-inside-1_12215_8341" fill="white">
<path d="M0 6C0 2.68629 2.68629 0 6 0H244C247.314 0 250 2.68629 250 6V114C250 117.314 247.314 120 244 120H6C2.68629 120 0 117.314 0 114V6Z"/>
</mask>
<path d="M0 6C0 2.68629 2.68629 0 6 0H244C247.314 0 250 2.68629 250 6V114C250 117.314 247.314 120 244 120H6C2.68629 120 0 117.314 0 114V6Z" fill="#0D0D0D"/>
<path d="M6 0V1H244V0V-1H6V0ZM250 6H249V114H250H251V6H250ZM244 120V119H6V120V121H244V120ZM0 114H1V6H0H-1V114H0ZM6 120V119C3.23857 119 1 116.761 1 114H0H-1C-1 117.866 2.134 121 6 121V120ZM250 114H249C249 116.761 246.761 119 244 119V120V121C247.866 121 251 117.866 251 114H250ZM244 0V1C246.761 1 249 3.23858 249 6H250H251C251 2.13401 247.866 -1 244 -1V0ZM6 0V-1C2.13401 -1 -1 2.13401 -1 6H0H1C1 3.23858 3.23858 1 6 1V0Z" fill="#1A1A1A" mask="url(#path-1-inside-1_12215_8341)"/>
<path fill-rule="evenodd" clip-rule="evenodd" d="M18.0996 89.5H22.2996L25.287 93.6684L28.8996 89.5H30.4996L26.0112 94.6789L30.8996 101.5H26.6996L23.7122 97.3316L20.0996 101.5H18.4996L22.988 96.321L18.0996 89.5ZM27.316 100.3L20.436 90.7H21.6833L28.5633 100.3H27.316Z" fill="#939393"/>
<mask id="path-4-inside-2_12215_8341" fill="white">
<path d="M0 136C0 132.686 2.68629 130 6 130H244C247.314 130 250 132.686 250 136V244C250 247.314 247.314 250 244 250H6C2.68629 250 0 247.314 0 244V136Z"/>
</mask>
<path d="M0 136C0 132.686 2.68629 130 6 130H244C247.314 130 250 132.686 250 136V244C250 247.314 247.314 250 244 250H6C2.68629 250 0 247.314 0 244V136Z" fill="#0D0D0D"/>
<path d="M6 130V131H244V130V129H6V130ZM250 136H249V244H250H251V136H250ZM244 250V249H6V250V251H244V250ZM0 244H1V136H0H-1V244H0ZM6 250V249C3.23857 249 1 246.761 1 244H0H-1C-1 247.866 2.134 251 6 251V250ZM250 244H249C249 246.761 246.761 249 244 249V250V251C247.866 251 251 247.866 251 244H250ZM244 130V131C246.761 131 249 133.239 249 136H250H251C251 132.134 247.866 129 244 129V130ZM6 130V129C2.13401 129 -1 132.134 -1 136H0H1C1 133.239 3.23858 131 6 131V130Z" fill="#1A1A1A" mask="url(#path-4-inside-2_12215_8341)"/>
<path fill-rule="evenodd" clip-rule="evenodd" d="M18.0996 219.5H22.2996L25.287 223.668L28.8996 219.5H30.4996L26.0112 224.679L30.8996 231.5H26.6996L23.7122 227.332L20.0996 231.5H18.4996L22.988 226.321L18.0996 219.5ZM27.316 230.3L20.436 220.7H21.6833L28.5633 230.3H27.316Z" fill="#939393"/>
</svg>
