<svg width="250" height="250" viewBox="0 0 250 250" fill="none" xmlns="http://www.w3.org/2000/svg">
<mask id="path-1-inside-1_12215_8153" fill="white">
<path d="M0 6C0 2.68629 2.68629 0 6 0H244C247.314 0 250 2.68629 250 6V244C250 247.314 247.314 250 244 250H6C2.68629 250 0 247.314 0 244V6Z"/>
</mask>
<path d="M0 6C0 2.68629 2.68629 0 6 0H244C247.314 0 250 2.68629 250 6V244C250 247.314 247.314 250 244 250H6C2.68629 250 0 247.314 0 244V6Z" fill="#0D0D0D"/>
<path d="M6 0V1H244V0V-1H6V0ZM250 6H249V244H250H251V6H250ZM244 250V249H6V250V251H244V250ZM0 244H1V6H0H-1V244H0ZM6 250V249C3.23857 249 1 246.761 1 244H0H-1C-1 247.866 2.134 251 6 251V250ZM250 244H249C249 246.761 246.761 249 244 249V250V251C247.866 251 251 247.866 251 244H250ZM244 0V1C246.761 1 249 3.23858 249 6H250H251C251 2.13401 247.866 -1 244 -1V0ZM6 0V-1C2.13401 -1 -1 2.134 -1 6H0H1C1 3.23857 3.23858 1 6 1V0Z" fill="#1A1A1A" mask="url(#path-1-inside-1_12215_8153)"/>
<path fill-rule="evenodd" clip-rule="evenodd" d="M18.0996 219.5H22.2996L25.287 223.668L28.8996 219.5H30.4996L26.0112 224.679L30.8996 231.5H26.6996L23.7122 227.332L20.0996 231.5H18.4996L22.988 226.321L18.0996 219.5ZM27.316 230.3L20.436 220.7H21.6833L28.5633 230.3H27.316Z" fill="#939393"/>
</svg>
