<svg width="120" height="32" viewBox="0 0 120 32" fill="none" xmlns="http://www.w3.org/2000/svg">
<g clip-path="url(#clip0_12215_11009)">
<g clip-path="url(#clip1_12215_11009)">
<g clip-path="url(#clip2_12215_11009)">
<path d="M22.0272 29.2692C29.3545 29.2692 35.2945 23.3291 35.2945 16.0018C35.2945 8.67439 29.3545 2.73438 22.0272 2.73438C14.6998 2.73438 8.75977 8.67439 8.75977 16.0018C8.75977 23.3291 14.6998 29.2692 22.0272 29.2692Z" stroke="white" stroke-width="1.08691"/>
<path d="M15.7344 22.2941C20.9157 27.4754 27.933 28.8584 31.4081 25.3833C34.8833 21.9082 33.5002 14.8908 28.319 9.70958C23.1377 4.52835 16.1204 3.14527 12.6452 6.6204C9.1701 10.0955 10.5532 17.1129 15.7344 22.2941Z" stroke="white" stroke-width="1.08691"/>
<path d="M16.6113 16.0469H27.5145" stroke="white" stroke-width="1.08691"/>
<path d="M19.293 18.8169L24.8326 13.2773" stroke="white" stroke-width="1.08691"/>
<path d="M24.8306 18.8169L19.291 13.2773" stroke="white" stroke-width="1.08691"/>
<path fill-rule="evenodd" clip-rule="evenodd" d="M12.949 10.1605C10.6461 11.705 9.30491 13.7799 9.30491 15.9994C9.30491 18.2187 10.6461 20.2936 12.949 21.8381C15.2483 23.3803 18.456 24.3519 22.0263 24.3519C25.5966 24.3519 28.8042 23.3803 31.1036 21.8381C33.4064 20.2936 34.7476 18.2187 34.7476 15.9994C34.7476 13.7799 33.4064 11.705 31.1036 10.1605C28.8042 8.61829 25.5966 7.64671 22.0263 7.64671C18.456 7.64671 15.2483 8.61829 12.949 10.1605ZM12.3407 9.25359C14.8432 7.57513 18.2691 6.55469 22.0263 6.55469C25.7834 6.55469 29.2094 7.57513 31.7118 9.25359C34.2109 10.9297 35.8397 13.3042 35.8397 15.9994C35.8397 18.6944 34.2109 21.0689 31.7118 22.7451C29.2094 24.4235 25.7834 25.444 22.0263 25.444C18.2691 25.444 14.8432 24.4235 12.3407 22.7451C9.84171 21.0689 8.21289 18.6944 8.21289 15.9994C8.21289 13.3042 9.84171 10.9297 12.3407 9.25359Z" fill="white"/>
<path d="M47.4121 10.8749H49.5662V13.1812C50.1537 11.4624 51.5244 10.6137 53.178 10.6137C54.8753 10.6137 56.3765 11.5276 57.0075 13.3988C57.6168 11.5276 59.1398 10.6137 60.8588 10.6137C63.1217 10.6137 65.0146 12.1804 65.0146 15.4659V23.0595H62.8387V15.64C62.8387 13.7687 61.9902 12.5067 60.1843 12.5067C58.226 12.5067 57.3122 13.9646 57.3122 15.9663V23.0595H55.1363V15.64C55.1363 13.7687 54.2878 12.5067 52.46 12.5067C50.5018 12.5067 49.5879 13.9646 49.5879 15.9663V23.0595H47.4121V10.8749ZM66.9924 20.0352C66.9924 18.3815 68.0586 17.1412 69.9951 16.532L74.0857 15.2048C73.9769 13.3335 73.0848 12.5938 71.3223 12.5938C70.2997 12.5938 69.19 12.8331 67.6017 13.4423V11.3536C68.9725 10.9184 70.3215 10.6137 71.5834 10.6137C74.8255 10.6137 76.2615 12.6372 76.2615 15.5529V23.0595H74.1292V21.2754C73.4546 22.5374 72.1491 23.3206 70.5391 23.3206C68.3197 23.3206 66.9924 21.8846 66.9924 20.0352ZM69.19 19.8611C69.19 20.8402 69.9733 21.58 71.17 21.58C72.6496 21.58 74.0857 20.4703 74.0857 18.8166V16.989L70.8436 18.0334C69.7123 18.3815 69.19 19.0342 69.19 19.8611ZM81.5837 23.3206C80.7133 23.3206 79.6907 23.1683 78.4722 22.6897V20.6227C79.6471 21.1448 80.7133 21.3842 81.5837 21.3842C82.9762 21.3842 83.5854 20.6879 83.5854 19.8176C83.5854 18.8166 82.7804 18.4033 81.5619 17.8375C80.017 17.1195 78.2764 16.358 78.2764 14.1169C78.2764 12.0498 79.7777 10.6137 82.454 10.6137C83.3026 10.6137 84.3034 10.7443 85.4566 11.0924V13.1159C84.347 12.7679 83.3026 12.5503 82.454 12.5503C81.0832 12.5503 80.4739 13.2466 80.4739 14.0733C80.4739 14.9872 81.279 15.3571 82.4757 15.9228C84.0423 16.6408 85.783 17.4676 85.783 19.774C85.783 21.8846 84.2817 23.3206 81.5837 23.3206ZM92.5699 23.1901C90.133 23.1901 89.0886 22.0369 89.0886 19.7088V12.8331H87.2391V10.8749H89.0886V8.41615L91.2644 7.78516V10.8749H94.4411V12.8331H91.2644V19.3824C91.2644 20.862 91.7214 21.1883 92.8745 21.1883C93.4185 21.1883 93.9624 21.1231 94.4411 21.036V23.0161C93.8101 23.1249 93.2009 23.1901 92.5699 23.1901ZM96.411 10.8749H98.5651V13.7252C99.2178 11.8323 100.719 10.7225 102.895 10.7225V12.9636C102.656 12.9419 102.438 12.9202 102.199 12.9202C100.001 12.9202 98.5868 14.2909 98.5868 17.0543V23.0595H96.411V10.8749ZM103.795 20.0352C103.795 18.3815 104.861 17.1412 106.797 16.532L110.887 15.2048C110.779 13.3335 109.887 12.5938 108.124 12.5938C107.102 12.5938 105.992 12.8331 104.404 13.4423V11.3536C105.775 10.9184 107.124 10.6137 108.386 10.6137C111.627 10.6137 113.063 12.6372 113.063 15.5529V23.0595H110.932V21.2754C110.257 22.5374 108.952 23.3206 107.341 23.3206C105.122 23.3206 103.795 21.8846 103.795 20.0352ZM105.992 19.8611C105.992 20.8402 106.775 21.58 107.973 21.58C109.452 21.58 110.887 20.4703 110.887 18.8166V16.989L107.646 18.0334C106.515 18.3815 105.992 19.0342 105.992 19.8611Z" fill="white"/>
</g>
</g>
</g>
<defs>
<clipPath id="clip0_12215_11009">
<rect width="120" height="32" fill="white"/>
</clipPath>
<clipPath id="clip1_12215_11009">
<rect width="120" height="32" fill="white"/>
</clipPath>
<clipPath id="clip2_12215_11009">
<rect width="107.294" height="32" fill="white" transform="translate(6.35352)"/>
</clipPath>
</defs>
</svg>
