<svg width="127" height="43" viewBox="0 0 127 43" fill="none" xmlns="http://www.w3.org/2000/svg">
<path fill-rule="evenodd" clip-rule="evenodd" d="M12.631 24.7559C12.4952 24.5943 12.269 24.5555 12.088 24.6589L11.92 24.7494L10.0908 25.7901L10.5174 26.5398L11.7067 25.8612L11.4158 27.4512L12.2625 27.6063L12.5599 26.0098L13.4389 27.0569L14.0982 26.5011L12.7667 24.911H12.7602L12.631 24.7559ZM10.0649 38.1677C10.5045 38.1677 10.86 37.8187 10.86 37.3921C10.86 36.9655 10.5045 36.6165 10.0649 36.6165C9.62541 36.6165 9.26992 36.9655 9.26992 37.3921C9.26345 37.8187 9.62541 38.1677 10.0649 38.1677ZM11.1314 33.9083L10.847 35.5047L9.99383 35.3496L10.2782 33.7596L9.08894 34.4448L8.65588 33.695L10.4721 32.6544L10.6402 32.5574C10.8212 32.454 11.0474 32.4928 11.1831 32.6544L11.3124 32.8095L12.6633 34.393L12.004 34.9553L11.1314 33.9083ZM11.823 30.0948L11.5386 31.6913L10.6854 31.5362L10.9698 29.9526L9.787 30.6313L9.36041 29.8815L11.1702 28.8473V28.8344H11.1831L11.3512 28.7374C11.5322 28.634 11.7584 28.6728 11.8941 28.8344L12.0234 28.9831L13.3678 30.5731L12.7085 31.1354L11.823 30.0948ZM6.24498 36.4032H6.23851L6.064 36.3515C5.87655 36.2998 5.75375 36.1188 5.76667 35.9249L5.9218 33.7661L6.74267 33.8243L6.64572 35.1363L7.91904 34.2702L8.37795 34.9489L7.13048 35.7956L8.4038 36.164L8.17758 36.9526L6.24498 36.4032ZM14.6928 37.2951L14.6347 37.4826C14.5765 37.6636 14.4084 37.7864 14.2145 37.7734L14.0336 37.7605L14.0206 37.767L14.0142 37.7605L12.0105 37.6248L12.0622 36.8039L13.3937 36.8944L12.5211 35.6728L13.1868 35.1945L14.0788 36.4484L14.4666 35.1816L15.2487 35.4207L14.6928 37.2951ZM17.0456 32.8483L17.1425 33.0228C17.2395 33.1973 17.2007 33.4171 17.0456 33.5463L16.9034 33.6691V33.6756H16.8969L15.3392 34.9941L14.7963 34.3543L15.8175 33.4882L14.2856 33.2167L14.4343 32.3893L15.9791 32.6608L15.3327 31.4974L16.0631 31.0902L17.0456 32.8483ZM15.462 29.2416L14.0788 29.9849L13.6781 29.2481L15.0419 28.5177L13.7944 28.0071L14.1111 27.2314L16.0114 28.0006L16.0179 27.9941L16.0243 28.0071L16.1988 28.0782C16.3863 28.1557 16.4897 28.3496 16.4574 28.5435L16.4251 28.7374L16.0696 30.7088L15.2422 30.5602L15.462 29.2416ZM6.18034 30.9738L7.71867 31.2324L7.57647 32.0597L6.02521 31.7947L6.6845 32.9581L5.95412 33.3718L4.95873 31.6202L4.86178 31.4521C4.76482 31.2776 4.8036 31.0579 4.95227 30.9286L5.09446 30.8058V30.7993H5.10093L6.63925 29.4743L7.18865 30.1142L6.18034 30.9738ZM8.50075 27.393L9.522 28.5306L8.89503 29.0929L7.84794 27.9295L7.60878 29.2545L6.78145 29.1059L7.14341 27.1409L7.18219 26.9406C7.21451 26.7467 7.38256 26.6045 7.57647 26.598L7.75745 26.5915L7.76391 26.5851L7.77037 26.5915L9.82578 26.5075L9.8581 27.3478L8.50075 27.393Z" fill="#939393"/>
<mask id="mask0_12215_10149" style="mask-type:luminance" maskUnits="userSpaceOnUse" x="29" y="28" width="17" height="7">
<path d="M45.0478 28.0547H29.3008V34.1503H45.0478V28.0547Z" fill="white"/>
</mask>
<g mask="url(#mask0_12215_10149)">
<path d="M37.8505 33.9405V32.7237H42.9492V31.6928H38.9675L37.5977 30.6878V29.2667L38.9675 28.2617H43.8488V29.4785H38.8771V30.476H42.8588L44.2282 31.4807V32.9358L42.8588 33.9405H37.8505Z" fill="#939393"/>
<path d="M29.5039 33.9405V28.2617H34.765L36.1348 29.2667V32.9358L34.765 33.9409L29.5039 33.9405ZM34.8554 32.7237V29.4785H30.783V32.7237H34.8554Z" fill="#939393"/>
</g>
<mask id="mask1_12215_10149" style="mask-type:luminance" maskUnits="userSpaceOnUse" x="52" y="20" width="23" height="23">
<path d="M72.0125 20.1016H55.6086C54.0622 20.1016 52.8086 21.3552 52.8086 22.9015V39.3055C52.8086 40.8519 54.0622 42.1055 55.6086 42.1055H72.0125C73.5589 42.1055 74.8125 40.8519 74.8125 39.3055V22.9015C74.8125 21.3552 73.5589 20.1016 72.0125 20.1016Z" fill="white"/>
</mask>
<g mask="url(#mask1_12215_10149)">
<path d="M66.4054 26.3906C68.979 26.4248 71.0547 28.5217 71.0547 31.1034C71.0547 33.7064 68.9445 35.8166 66.3415 35.8166C65.574 35.8166 64.8494 35.6332 64.209 35.3077C65.3767 34.494 66.1902 33.2053 66.3686 31.7206H66.4054V26.3906Z" fill="#939393"/>
<path d="M61.2196 35.8166C58.646 35.7824 56.5703 33.6855 56.5703 31.1038C56.5703 28.5008 58.6805 26.3906 61.2835 26.3906C62.051 26.3906 62.7756 26.5741 63.416 26.8995C63.2955 26.9835 63.1788 27.0725 63.0662 27.1662C62.0507 28.0116 61.3667 29.2436 61.2406 30.6367H61.2196V35.8166Z" fill="#939393"/>
<path d="M61.6408 35.803C61.7394 35.7956 61.8371 35.7852 61.9339 35.7718C61.9677 35.7671 62.0013 35.7621 62.0349 35.7567C62.0805 35.7494 62.1259 35.7414 62.1711 35.7328C62.2857 35.711 62.3988 35.685 62.5103 35.655C62.6269 35.6236 62.7418 35.5879 62.8547 35.548C63.1178 35.4549 63.3702 35.3391 63.6096 35.203C63.678 35.1641 63.7453 35.1236 63.8115 35.0814C65.0698 34.2799 65.9223 32.8978 65.9915 31.3124H65.9961V26.4023C65.6904 26.4244 65.3929 26.4756 65.1061 26.5532C64.6423 26.6786 64.2069 26.8732 63.8115 27.125C63.8066 27.1281 63.8016 27.1313 63.7967 27.1345C63.6327 27.2398 63.4758 27.3549 63.3266 27.4791C62.3021 28.3319 61.645 29.611 61.6273 31.044L61.627 35.804C61.6316 35.8037 61.6362 35.8034 61.6408 35.803Z" fill="#939393"/>
</g>
<path d="M90.1291 23.8984L96.4662 27.5559V37.2838L94.3199 38.5283L92.1737 37.3346L90.1291 38.5029L83.8047 34.8709V27.5559L90.1291 23.8984Z" fill="#121212"/>
<path d="M90.1291 38.5029L83.8047 34.8709V27.5559M90.1291 38.5029L92.1737 37.3346M90.1291 38.5029V36.0392M83.8047 27.5559L90.1291 23.8984L96.4662 27.5559M83.8047 27.5559L85.9636 28.8175M92.1737 37.3346L94.3199 38.5283M92.1737 37.3346V34.8709L90.1291 36.0392M90.1291 36.0392L85.9636 33.6263V28.8175M90.1291 36.0392V33.6454M90.1291 31.2515V33.6454M90.1291 31.2515L92.161 30.0665M90.1291 31.2515L88.0463 30.0345M90.1291 33.6454L92.161 32.3817V30.0665M90.1291 33.6454L88.0463 32.3545V30.0345M92.161 30.0665L94.3199 28.8075M92.161 30.0665L90.1118 28.8645L88.0463 30.0345M88.0463 30.0345L85.9636 28.8175M96.4662 27.5559L94.3199 28.8075M96.4662 27.5559V37.2838L94.3199 38.5283M94.3199 28.8075V38.5283M94.3199 28.8075L90.1273 26.3602L85.9636 28.8175" stroke="#939393" stroke-width="0.26983"/>
<path fill-rule="evenodd" clip-rule="evenodd" d="M96.4655 27.5551L94.3192 28.8067L90.1266 26.3594L85.9629 28.8167V33.6255L90.1284 36.0384V38.5021L92.173 37.3338L94.3192 38.5275L96.4655 37.283V27.5551ZM90.1284 33.6446V31.2507L92.1603 30.0657L90.1111 28.8637L88.0456 30.0337V32.3537L90.1284 33.6446Z" fill="#2E2E2E"/>
<path d="M96.4662 27.5559L90.1291 23.8984L83.8047 27.5559L85.9636 28.8175L90.1273 26.3602L94.3199 28.8075L96.4662 27.5559Z" fill="#2E2E2E"/>
<path d="M90.1296 31.2503L92.1615 30.0653L90.1124 28.8633L88.0469 30.0332L90.1296 31.2503Z" fill="#2E2E2E"/>
<path d="M90.1291 38.5029L83.8047 34.8709V27.5559M90.1291 38.5029L92.1737 37.3346M90.1291 38.5029V36.0392M83.8047 27.5559L90.1291 23.8984L96.4662 27.5559M83.8047 27.5559L85.9636 28.8175M92.1737 37.3346L94.3199 38.5283M92.1737 37.3346V34.8709L90.1291 36.0392M90.1291 36.0392L85.9636 33.6263V28.8175M90.1291 36.0392V33.6454M90.1291 31.2515V33.6454M90.1291 31.2515L92.161 30.0665M90.1291 31.2515L88.0463 30.0345M90.1291 33.6454L92.161 32.3817V30.0665M90.1291 33.6454L88.0463 32.3545V30.0345M92.161 30.0665L94.3199 28.8075M92.161 30.0665L90.1118 28.8645L88.0463 30.0345M88.0463 30.0345L85.9636 28.8175M96.4662 27.5559L94.3199 28.8075M96.4662 27.5559V37.2838L94.3199 38.5283M94.3199 28.8075V38.5283M94.3199 28.8075L90.1273 26.3602L85.9636 28.8175" stroke="#939393" stroke-width="0.26983"/>
<path fill-rule="evenodd" clip-rule="evenodd" d="M96.4655 27.5551L94.3192 28.8067L90.1266 26.3594L85.9629 28.8167V33.6255L90.1284 36.0384V38.5021L92.173 37.3338L94.3192 38.5275L96.4655 37.283V27.5551ZM90.1284 33.6446V31.2507L92.1603 30.0657L90.1111 28.8637L88.0456 30.0337V32.3537L90.1284 33.6446Z" fill="#727272"/>
<path d="M90.1291 38.5029L83.8047 34.8709V27.5559M90.1291 38.5029L92.1737 37.3346M90.1291 38.5029V36.0392M83.8047 27.5559L90.1291 23.8984L96.4662 27.5559M83.8047 27.5559L85.9636 28.8175M92.1737 37.3346L94.3199 38.5283M92.1737 37.3346V34.8709L90.1291 36.0392M90.1291 36.0392L85.9636 33.6263V28.8175M90.1291 36.0392V33.6454M90.1291 31.2515V33.6454M90.1291 31.2515L92.161 30.0665M90.1291 31.2515L88.0463 30.0345M90.1291 33.6454L92.161 32.3817V30.0665M90.1291 33.6454L88.0463 32.3545V30.0345M92.161 30.0665L94.3199 28.8075M92.161 30.0665L90.1118 28.8645L88.0463 30.0345M88.0463 30.0345L85.9636 28.8175M96.4662 27.5559L94.3199 28.8075M96.4662 27.5559V37.2838L94.3199 38.5283M94.3199 28.8075V38.5283M94.3199 28.8075L90.1273 26.3602L85.9636 28.8175" stroke="#939393" stroke-width="0.26983"/>
<path fill-rule="evenodd" clip-rule="evenodd" d="M90.1266 26.3594L94.3192 28.8067V38.5275L92.173 37.3338V34.8701L90.1284 36.0384L85.9629 33.6255V28.8167L90.1266 26.3594ZM90.1284 33.6446L88.0456 32.3537V30.0337L90.1111 28.8637L92.1603 30.0657V32.381L90.1284 33.6446Z" fill="#939393"/>
<path d="M90.1291 38.5029L83.8047 34.8709V27.5559M90.1291 38.5029L92.1737 37.3346M90.1291 38.5029V36.0392M83.8047 27.5559L90.1291 23.8984L96.4662 27.5559M83.8047 27.5559L85.9636 28.8175M92.1737 37.3346L94.3199 38.5283M92.1737 37.3346V34.8709L90.1291 36.0392M90.1291 36.0392L85.9636 33.6263V28.8175M90.1291 36.0392V33.6454M90.1291 31.2515V33.6454M90.1291 31.2515L92.161 30.0665M90.1291 31.2515L88.0463 30.0345M90.1291 33.6454L92.161 32.3817V30.0665M90.1291 33.6454L88.0463 32.3545V30.0345M92.161 30.0665L94.3199 28.8075M92.161 30.0665L90.1118 28.8645L88.0463 30.0345M88.0463 30.0345L85.9636 28.8175M96.4662 27.5559L94.3199 28.8075M96.4662 27.5559V37.2838L94.3199 38.5283M94.3199 28.8075V38.5283M94.3199 28.8075L90.1273 26.3602L85.9636 28.8175" stroke="#939393" stroke-width="0.26983"/>
<path d="M122.199 33.1692C120.46 33.528 120.34 32.9391 120.34 32.9391C122.177 30.2142 122.944 26.7554 122.282 25.9088C120.474 23.5996 117.346 24.6917 117.294 24.7201L117.277 24.7231C116.933 24.6518 116.549 24.6093 116.116 24.6022C115.329 24.5893 114.732 24.8085 114.279 25.1521C114.279 25.1521 108.698 22.8529 108.958 28.0437C109.013 29.148 110.541 36.3993 112.363 34.209C113.029 33.4082 113.672 32.731 113.672 32.731C113.992 32.9433 114.374 33.0516 114.775 33.0127L114.807 32.9862C114.797 33.0857 114.801 33.1829 114.819 33.2981C114.35 33.8225 114.488 33.9146 113.549 34.1077C112.6 34.3034 113.158 34.6517 113.522 34.7428C113.963 34.8532 114.985 35.0096 115.675 34.0435L115.647 34.1537C115.831 34.301 115.96 35.1119 115.939 35.8469C115.917 36.582 115.903 37.0866 116.047 37.4808C116.192 37.8749 116.337 38.7618 117.57 38.4975C118.601 38.2767 119.135 37.7043 119.209 36.7495C119.262 36.0708 119.381 36.1711 119.389 35.5642L119.485 35.2769C119.595 34.3568 119.502 34.06 120.137 34.1981L120.292 34.2116C120.759 34.2329 121.37 34.1364 121.729 33.9696C122.503 33.6108 122.961 33.0118 122.199 33.1692Z" fill="#535353"/>
<path d="M115.75 33.6953C115.702 35.4074 115.762 37.1314 115.93 37.5504C116.098 37.9694 116.456 38.7844 117.69 38.5201C118.72 38.2992 119.095 37.8716 119.258 36.9278C119.378 36.2335 119.609 34.3051 119.639 33.91" stroke="#939393" stroke-width="0.34036" stroke-linecap="round" stroke-linejoin="round"/>
<path d="M114.271 25.1092C114.271 25.1092 108.687 22.8266 108.946 28.0174C109.001 29.1217 110.529 36.3732 112.351 34.1829C113.017 33.3819 113.619 32.7537 113.619 32.7537" stroke="#939393" stroke-width="0.34036" stroke-linecap="round" stroke-linejoin="round"/>
<path d="M117.289 24.6952C117.096 24.7558 120.396 23.4889 122.271 25.8852C122.934 26.7318 122.166 30.1906 120.33 32.9156" stroke="#939393" stroke-width="0.34036" stroke-linecap="round" stroke-linejoin="round"/>
<path d="M120.329 32.9157C120.329 32.9157 120.448 33.5048 122.188 33.1458C122.95 32.9884 122.491 33.5875 121.718 33.9464C121.084 34.2407 119.662 34.3162 119.638 33.9094C119.579 32.8599 120.387 33.1787 120.329 32.9157ZM120.329 32.9157C120.276 32.6789 119.914 32.4464 119.675 31.8668C119.467 31.3608 116.813 27.4808 120.411 28.057C120.543 28.0297 119.473 24.6339 116.105 24.5787C112.738 24.5234 112.848 28.7196 112.848 28.7196" stroke="#939393" stroke-width="0.34036" stroke-linecap="round" stroke-linejoin="bevel"/>
<path d="M114.806 33.2746C114.337 33.799 114.475 33.8911 113.537 34.0843C112.587 34.28 113.145 34.6283 113.509 34.7193C113.951 34.8298 114.972 34.9862 115.662 34.0199C115.872 33.7257 115.661 33.2562 115.372 33.1365C115.233 33.0788 115.046 33.0064 114.806 33.2746Z" stroke="#939393" stroke-width="0.34036" stroke-linecap="round" stroke-linejoin="round"/>
<path d="M114.776 33.2642C114.728 32.9559 114.877 32.589 115.036 32.1597C115.276 31.5157 115.828 30.8716 115.386 28.8287C115.057 27.3063 112.848 28.5119 112.847 28.7183C112.846 28.9246 112.947 29.7646 112.81 30.7427C112.631 32.019 113.622 33.0984 114.763 32.988" stroke="#939393" stroke-width="0.34036" stroke-linecap="round" stroke-linejoin="round"/>
<path d="M114.251 28.6875C114.241 28.758 114.38 28.9461 114.561 28.9712C114.742 28.9965 114.897 28.8495 114.907 28.779C114.916 28.7085 114.778 28.6309 114.596 28.6056C114.415 28.5804 114.26 28.6171 114.251 28.6875Z" fill="#939393" stroke="#939393" stroke-width="0.113452"/>
<path d="M119.762 28.5429C119.772 28.6134 119.633 28.8016 119.452 28.8267C119.271 28.8519 119.116 28.7049 119.106 28.6345C119.096 28.564 119.235 28.4863 119.416 28.4611C119.598 28.4358 119.752 28.4726 119.762 28.5429Z" fill="#939393" stroke="#939393" stroke-width="0.0567262"/>
<path d="M120.41 28.0547C120.44 28.6077 120.291 28.9844 120.272 29.5731C120.244 30.4288 120.68 31.4082 120.023 32.3888" stroke="#939393" stroke-width="0.34036" stroke-linecap="round" stroke-linejoin="round"/>
</svg>
