<svg width="126" height="42" viewBox="0 0 126 42" fill="none" xmlns="http://www.w3.org/2000/svg">
<path d="M16.874 29.7462C17.1793 28.8134 17.0775 27.779 16.5857 26.931C15.8395 25.6252 14.3302 24.9638 12.8548 25.2691C12.2104 24.5398 11.2607 24.1328 10.2771 24.1328C8.76772 24.1328 7.44494 25.0995 6.97009 26.524C6.00344 26.7275 5.17246 27.3211 4.68066 28.186C3.93447 29.4918 4.10406 31.1198 5.10462 32.2391C4.79937 33.1888 4.91808 34.2063 5.40988 35.0542C6.15607 36.3601 7.6654 37.0384 9.14081 36.7162C9.80221 37.4454 10.7349 37.8694 11.7186 37.8694C13.2279 37.8694 14.5507 36.9027 15.0255 35.4782C15.9922 35.2747 16.8231 34.6811 17.3149 33.8163C18.0611 32.5105 17.8915 30.8654 16.874 29.7462ZM11.7186 36.9706C11.108 36.9706 10.5314 36.7671 10.0736 36.377C10.0905 36.3601 10.1414 36.3431 10.1583 36.3262L12.8887 34.749C13.0244 34.6642 13.1092 34.5285 13.1092 34.3589V30.5093L14.2624 31.1707C14.2793 31.1707 14.2793 31.1877 14.2793 31.2046V34.3928C14.2963 35.8174 13.1431 36.9706 11.7186 36.9706ZM6.18999 34.6133C5.88473 34.0876 5.78298 33.4771 5.88473 32.8835C5.90169 32.9005 5.9356 32.9175 5.96952 32.9344L8.69988 34.5116C8.83556 34.5964 9.00514 34.5964 9.14081 34.5116L12.4817 32.5783V33.918C12.4817 33.935 12.4817 33.9519 12.4647 33.9519L9.70045 35.546C8.47942 36.2583 6.90225 35.8343 6.18999 34.6133ZM5.47772 28.6439C5.78298 28.1181 6.25782 27.7281 6.81746 27.5076V30.7637C6.81746 30.9163 6.90225 31.069 7.03793 31.1537L10.3788 33.087L9.22561 33.7484C9.20865 33.7484 9.19169 33.7654 9.19169 33.7484L6.42741 32.1543C5.17246 31.442 4.76545 29.8649 5.47772 28.6439ZM14.9746 30.8485L11.6338 28.9152L12.787 28.2538C12.8039 28.2538 12.8209 28.2368 12.8209 28.2538L15.5851 29.8479C16.8231 30.5602 17.2301 32.1374 16.5179 33.3584C16.2126 33.8841 15.7378 34.2741 15.1781 34.4776V31.2385C15.1951 31.0859 15.1103 30.9333 14.9746 30.8485ZM16.1109 29.1187C16.0939 29.1017 16.06 29.0848 16.0261 29.0678L13.2957 27.4907C13.16 27.4059 12.9905 27.4059 12.8548 27.4907L9.51391 29.424V28.0842C9.51391 28.0673 9.51391 28.0503 9.53086 28.0503L12.2951 26.4562C13.5331 25.7439 15.0933 26.1679 15.8056 27.4059C16.1109 27.9146 16.2126 28.5251 16.1109 29.1187ZM8.88643 31.4929L7.73323 30.8315C7.71628 30.8315 7.71628 30.8146 7.71628 30.7976V27.6094C7.71628 26.1848 8.86947 25.0316 10.294 25.0316C10.9045 25.0316 11.4811 25.2351 11.939 25.6252C11.9221 25.6421 11.8881 25.6591 11.8542 25.6761L9.12385 27.2532C8.98818 27.338 8.90339 27.4737 8.90339 27.6433V31.4929H8.88643ZM9.51391 30.1362L11.0063 29.2713L12.4986 30.1362V31.8491L11.0063 32.714L9.51391 31.8491V30.1362Z" fill="#939393"/>
<mask id="mask0_12215_10239" style="mask-type:luminance" maskUnits="userSpaceOnUse" x="26" y="20" width="22" height="22">
<path d="M45.2005 20H28.7995C27.2534 20 26 21.2534 26 22.7995V39.2005C26 40.7466 27.2534 42 28.7995 42H45.2005C46.7466 42 48 40.7466 48 39.2005V22.7995C48 21.2534 46.7466 20 45.2005 20Z" fill="white"/>
</mask>
<g mask="url(#mask0_12215_10239)">
<path d="M32.7611 33.4825L35.5058 31.9424L35.5517 31.8081L35.5058 31.734H35.3716L34.9123 31.7057L33.3439 31.6633L31.9839 31.6068L30.6663 31.5361L30.3343 31.4655L30.0234 31.0557L30.0552 30.8508L30.3343 30.6636L30.7335 30.699L31.6166 30.759L32.9412 30.8508L33.9021 30.9074L35.3256 31.0557H35.5517L35.5835 30.9639L35.5058 30.9074L35.4457 30.8508L34.0751 29.9218L32.5915 28.9398L31.8144 28.3746L31.394 28.0884L31.1821 27.82L31.0902 27.2336L31.4717 26.8132L31.9839 26.8486L32.1146 26.8839L32.6339 27.283L33.7431 28.1414L35.1914 29.2082L35.4034 29.3848L35.4881 29.3248L35.4987 29.2824L35.4034 29.1234L34.6156 27.6999L33.7749 26.2516L33.4005 25.6511L33.3015 25.2907C33.2662 25.1424 33.2415 25.0187 33.2415 24.8668L33.676 24.2769L33.9162 24.1992L34.4955 24.2769L34.7392 24.4889L35.0996 25.3119L35.6824 26.6083L36.5867 28.371L36.8517 28.8938L36.993 29.3778L37.0459 29.5261H37.1378V29.4414L37.212 28.4487L37.3497 27.2301L37.484 25.6616L37.5299 25.2201L37.7489 24.6902L38.1834 24.4041L38.5225 24.5666L38.8016 24.9658L38.7627 25.2236L38.5967 26.301L38.2717 27.9895L38.0598 29.1199H38.1834L38.3247 28.9786L38.8969 28.2191L39.8578 27.0181L40.2817 26.5412L40.7762 26.0149L41.0941 25.7641H41.6946L42.1362 26.4211L41.9384 27.0994L41.3202 27.8836L40.808 28.5477L40.0733 29.5367L39.614 30.328L39.6564 30.3916L39.7659 30.381L41.4262 30.0278L42.3234 29.8653L43.3938 29.6816L43.8777 29.9076L43.9307 30.1373L43.7399 30.6071L42.5954 30.8897L41.2531 31.1582L39.2537 31.6315L39.229 31.6492L39.2573 31.6845L40.158 31.7693L40.5431 31.7905H41.4862L43.2419 31.9212L43.7011 32.225L43.9766 32.5959L43.9307 32.8785L43.2242 33.2388L42.2704 33.0127L40.045 32.4828L39.282 32.2921H39.176V32.3557L39.8118 32.9774L40.9776 34.0301L42.4365 35.3865L42.5106 35.7221L42.3234 35.987L42.1256 35.9588L40.8433 34.9944L40.3488 34.5599L39.229 33.6168H39.1548V33.7157L39.4127 34.0936L40.7762 36.1425L40.8469 36.7712L40.7479 36.9761L40.3947 37.0997L40.0061 37.0291L39.2078 35.9093L38.3847 34.6482L37.7206 33.5178L37.6394 33.5638L37.2473 37.785L37.0636 38.0005L36.6397 38.163L36.2865 37.8945L36.0992 37.4601L36.2865 36.6017L36.5125 35.4819L36.6962 34.5917L36.8623 33.4861L36.9612 33.1187L36.9541 33.094L36.8729 33.1045L36.0392 34.2491L34.771 35.9623L33.7678 37.0362L33.5276 37.1315L33.1108 36.9161L33.1496 36.531L33.3828 36.1884L34.771 34.4222L35.6082 33.3271L36.1487 32.6948L36.1452 32.6029H36.1134L32.4255 34.9979L31.7685 35.0827L31.4859 34.8178L31.5212 34.3833L31.6554 34.242L32.7646 33.479L32.7611 33.4825Z" fill="#939393"/>
</g>
<mask id="mask1_12215_10239" style="mask-type:luminance" maskUnits="userSpaceOnUse" x="52" y="20" width="22" height="22">
<path d="M71.2005 20H54.7995C53.2534 20 52 21.2534 52 22.7995V39.2005C52 40.7466 53.2534 42 54.7995 42H71.2005C72.7466 42 74 40.7466 74 39.2005V22.7995C74 21.2534 72.7466 20 71.2005 20Z" fill="white"/>
</mask>
<g mask="url(#mask1_12215_10239)">
<path fill-rule="evenodd" clip-rule="evenodd" d="M62.4426 35.2258C62.8121 36.0686 62.9969 36.969 62.9969 37.9272C62.9969 36.969 63.1757 36.0686 63.5336 35.2258C63.9029 34.3831 64.3993 33.6501 65.0227 33.0267C65.6463 32.4033 66.3791 31.9127 67.2219 31.5548C68.0646 31.1854 68.9652 31.0007 69.9232 31.0007C68.9652 31.0007 68.0646 30.8218 67.2219 30.4639C66.3791 30.0945 65.6463 29.5981 65.0227 28.9747C64.3993 28.3513 63.9029 27.6183 63.5336 26.7755C63.1757 25.9328 62.9969 25.0324 62.9969 24.0742C62.9969 25.0324 62.8121 25.9328 62.4426 26.7755C62.0849 27.6183 61.5942 28.3513 60.9708 28.9747C60.3475 29.5981 59.6144 30.0945 58.7716 30.4639C57.9289 30.8218 57.0286 31.0007 56.0703 31.0007C57.0286 31.0007 57.9289 31.1854 58.7716 31.5548C59.6144 31.9127 60.3475 32.4033 60.9708 33.0267C61.5942 33.6501 62.0849 34.3831 62.4426 35.2258Z" fill="#939393"/>
</g>
<path fill-rule="evenodd" clip-rule="evenodd" d="M87.559 25.897C87.214 26.134 86.9345 26.4954 86.5612 27.0439C86.4346 27.23 86.2249 27.3347 86.009 27.3335C85.2521 27.3294 84.7236 27.4989 84.3207 27.7728C83.9117 28.051 83.5876 28.467 83.2929 29.0318C82.7838 30.0075 83.0293 31.1339 83.7132 32.0717C83.8624 32.2763 83.882 32.548 83.7652 32.7716C83.3123 33.6385 83.1615 34.3457 83.1981 34.9836C83.235 35.6264 83.4648 36.2484 83.8559 36.9426C83.9793 37.1615 83.9657 37.4256 83.8357 37.6286C83.1289 38.7314 83.3415 40.0262 83.5331 40.4908C83.6393 40.7483 83.5167 41.0431 83.2592 41.1492C83.0017 41.2554 82.7069 41.1328 82.6008 40.8753C82.3587 40.2883 82.1155 38.9295 82.7005 37.6151C82.801 37.3893 82.8066 37.1295 82.7008 36.9061C82.4183 36.3095 82.229 35.6986 82.1913 35.0414C82.1515 34.349 82.2817 33.6372 82.6053 32.8678C82.7044 32.6319 82.6855 32.3627 82.5615 32.1389C81.975 31.0814 81.7642 29.7814 82.3987 28.5653C82.7366 27.9177 83.157 27.3445 83.7536 26.9388C84.2317 26.6138 84.795 26.4151 85.4665 26.3492C85.6944 26.3269 85.9053 26.2144 86.0416 26.0305C86.3168 25.6594 86.6143 25.3224 86.9878 25.0657C87.5273 24.695 88.1759 24.522 89.0474 24.5359C90.4908 24.5591 91.3956 25.3883 91.9212 26.0434C92.0639 26.2214 92.2746 26.3312 92.5015 26.3557C93.4208 26.4551 94.7345 26.9007 95.4352 28.2361C96.3248 29.9313 96.0172 31.4038 95.3858 32.3168C95.306 32.4322 95.285 32.5805 95.3432 32.7082C95.6309 33.3402 95.9613 34.066 95.8972 35.0914C95.8556 35.7572 95.6091 36.4405 95.3679 36.9422C95.2565 37.174 95.2586 37.4452 95.3739 37.6752C95.594 38.1146 95.8199 38.719 95.7778 39.3827C95.7483 39.8463 95.7049 40.2202 95.6622 40.4894C95.6409 40.6232 95.619 40.7364 95.5977 40.8243C95.5873 40.8674 95.5752 40.9119 95.5612 40.9528C95.5543 40.973 95.5446 40.9993 95.5317 41.0273C95.5225 41.0471 95.4956 41.1043 95.4449 41.1623C95.2615 41.3719 94.9429 41.3931 94.7333 41.2097C94.5646 41.0621 94.5179 40.8268 94.6019 40.6313C94.6081 40.6169 94.6138 40.6022 94.6175 40.5869C94.6304 40.5336 94.6475 40.4487 94.6661 40.3312C94.7032 40.0977 94.7435 39.7557 94.7713 39.3188C94.8114 38.6867 94.4688 38.1017 94.2233 37.6824C94.2149 37.6681 94.2066 37.654 94.1985 37.6401C94.063 37.4083 94.0905 37.1387 94.2181 36.943C94.4464 36.5929 94.8451 35.7578 94.8907 35.0284C94.9378 34.2738 94.7265 33.8034 94.4533 33.1952C94.3826 33.0378 94.3077 32.8712 94.2322 32.688C94.1262 32.4313 94.1978 32.1569 94.3659 31.979C94.8842 31.4309 95.353 30.2498 94.5421 28.7047C93.9471 27.5707 92.6646 27.3137 91.9921 27.3428C91.7702 27.3524 91.5474 27.2512 91.4127 27.0539C91.0003 26.4497 90.2959 25.5646 89.0312 25.5443C88.3109 25.5328 87.8834 25.6741 87.559 25.897Z" fill="#939393"/>
<path fill-rule="evenodd" clip-rule="evenodd" d="M92.8496 23.2329L92.8483 23.233C92.7748 23.2341 92.6808 23.266 92.5608 23.4292C92.4347 23.6009 92.3214 23.8683 92.2345 24.2097C92.0611 24.8904 92.032 25.7036 92.0846 26.1797C92.1161 26.4645 91.9107 26.7209 91.6259 26.7524C91.3411 26.7838 91.0848 26.5784 91.0533 26.2936C90.9879 25.7015 91.0229 24.7625 91.2289 23.9536C91.3317 23.5502 91.4869 23.1384 91.7247 22.8148C91.9686 22.4829 92.334 22.2034 92.8319 22.1955C93.3868 22.1867 93.7507 22.5501 93.9635 22.9314C94.1737 23.3081 94.2965 23.7942 94.3693 24.2846C94.5164 25.2756 94.4847 26.4675 94.3827 27.3324C94.3491 27.617 94.0912 27.8204 93.8066 27.7869C93.5221 27.7533 93.3186 27.4954 93.3522 27.2109C93.4469 26.4083 93.4729 25.3125 93.3429 24.437C93.2772 23.9942 93.1777 23.6525 93.0574 23.437C92.9424 23.2308 92.8684 23.2325 92.8496 23.2329Z" fill="#939393"/>
<path fill-rule="evenodd" clip-rule="evenodd" d="M85.1746 23.2329L85.1759 23.233C85.2495 23.2341 85.3434 23.266 85.4634 23.4292C85.5896 23.6009 85.7028 23.8683 85.7898 24.2097C85.9631 24.8904 85.9922 25.7036 85.9396 26.1797C85.9081 26.4645 86.1135 26.7209 86.3983 26.7524C86.6831 26.7838 86.9395 26.5784 86.9709 26.2936C87.0363 25.7015 87.0013 24.7625 86.7953 23.9536C86.6926 23.5502 86.5373 23.1384 86.2996 22.8148C86.0556 22.4829 85.6902 22.2034 85.1924 22.1955C84.6374 22.1867 84.2735 22.5501 84.0607 22.9314C83.8505 23.3081 83.7277 23.7942 83.6549 24.2846C83.5078 25.2756 83.5395 26.4675 83.6416 27.3324C83.6751 27.617 83.933 27.8204 84.2176 27.7869C84.5021 27.7533 84.7056 27.4954 84.672 27.2109C84.5774 26.4083 84.5513 25.3125 84.6813 24.437C84.747 23.9942 84.8465 23.6525 84.9668 23.437C85.0819 23.2308 85.1559 23.2325 85.1746 23.2329Z" fill="#939393"/>
<path fill-rule="evenodd" clip-rule="evenodd" d="M92.0598 30.1484C92.3375 29.8968 92.7665 29.9179 93.0181 30.1955L93.2016 30.398C93.4532 30.6757 93.4321 31.1047 93.1545 31.3563C92.8769 31.608 92.4478 31.5869 92.1962 31.3092L92.0127 31.1067C91.7611 30.829 91.7822 30.4 92.0598 30.1484ZM85.9287 30.1191C86.2365 30.3329 86.3127 30.7556 86.099 31.0634L85.9409 31.2912C85.7271 31.599 85.3044 31.6752 84.9966 31.4615C84.6889 31.2478 84.6126 30.825 84.8263 30.5173L84.9845 30.2895C85.1982 29.9817 85.621 29.9054 85.9287 30.1191Z" fill="#939393"/>
<path fill-rule="evenodd" clip-rule="evenodd" d="M87.5348 31.0907C87.1209 31.399 86.872 31.8089 86.8807 32.2539C86.8894 32.6978 87.1192 33.0258 87.5215 33.2634C87.9364 33.5084 88.5192 33.6427 89.15 33.6585C89.5702 33.669 90.079 33.5812 90.4768 33.3511C90.8582 33.1304 91.1358 32.784 91.1606 32.2294C91.1789 31.8198 90.9714 31.4383 90.5729 31.1402C90.1719 30.8403 89.5971 30.6444 88.962 30.6303L88.955 30.6301C88.4881 30.6105 87.9501 30.7813 87.5348 31.0907ZM88.9815 29.9122C88.3379 29.8861 87.6415 30.1154 87.1057 30.5146C86.5674 30.9155 86.1479 31.5238 86.1625 32.268C86.1771 33.0133 86.5888 33.5469 87.1562 33.882C87.711 34.2096 88.4263 34.359 89.132 34.3766C89.6445 34.3894 90.2938 34.2868 90.8365 33.9729C91.3956 33.6494 91.8408 33.0981 91.8782 32.2614C91.9096 31.5579 91.5419 30.9679 91.0031 30.5649C90.4676 30.1644 89.7442 29.9298 88.9815 29.9122Z" fill="#939393"/>
<path fill-rule="evenodd" clip-rule="evenodd" d="M89.6093 31.6525C89.7187 31.7908 89.6952 31.9916 89.557 32.101L89.3369 32.275L89.3201 32.635C89.3119 32.8111 89.1625 32.9472 88.9863 32.939C88.8102 32.9308 88.6741 32.7813 88.6823 32.6052L88.6976 32.2763L88.4847 32.1283C88.3399 32.0276 88.3042 31.8287 88.4048 31.6839C88.5054 31.5391 88.7044 31.5033 88.8492 31.604L89.0125 31.7175L89.1608 31.6002C89.2991 31.4907 89.4999 31.5142 89.6093 31.6525Z" fill="#939393"/>
<mask id="mask2_12215_10239" style="mask-type:luminance" maskUnits="userSpaceOnUse" x="104" y="20" width="22" height="22">
<path d="M123.201 20H106.799C105.253 20 104 21.2534 104 22.7995V39.2005C104 40.7466 105.253 42 106.799 42H123.201C124.747 42 126 40.7466 126 39.2005V22.7995C126 21.2534 124.747 20 123.201 20Z" fill="white"/>
</mask>
<g mask="url(#mask2_12215_10239)">
<path d="M111.992 26.0391H109.988V28.0238H111.992V26.0391Z" fill="#939393"/>
<path d="M120.005 26.0391H118.002V28.0238H120.005V26.0391Z" fill="#939393"/>
<path d="M113.995 28.0234H109.988V30.0081H113.995V28.0234Z" fill="#939393"/>
<path d="M120.005 28.0234H115.998V30.0081H120.005V28.0234Z" fill="#939393"/>
<path d="M120.006 30.0078L109.988 30.0079V31.9924H120.006V30.0078Z" fill="#939393"/>
<path d="M111.992 31.9922H109.988V33.9769H111.992V31.9922Z" fill="#939393"/>
<path d="M115.997 31.9922H113.994V33.9769H115.997V31.9922Z" fill="#939393"/>
<path d="M120.005 31.9922H118.002V33.9769H120.005V31.9922Z" fill="#939393"/>
<path d="M113.996 33.9805H107.984V35.9653H113.996V33.9805Z" fill="#939393"/>
<path d="M122.009 33.9805H115.998V35.9653H122.009V33.9805Z" fill="#939393"/>
</g>
</svg>
