<svg width="126" height="42" viewBox="0 0 126 42" fill="none" xmlns="http://www.w3.org/2000/svg">
<path d="M16.874 29.7462C17.1793 28.8134 17.0775 27.779 16.5857 26.931C15.8395 25.6252 14.3302 24.9638 12.8548 25.2691C12.2104 24.5398 11.2607 24.1328 10.2771 24.1328C8.76772 24.1328 7.44494 25.0995 6.97009 26.524C6.00344 26.7275 5.17246 27.3211 4.68066 28.186C3.93447 29.4918 4.10406 31.1198 5.10462 32.2391C4.79937 33.1888 4.91808 34.2063 5.40988 35.0542C6.15607 36.3601 7.6654 37.0384 9.14081 36.7162C9.80221 37.4454 10.7349 37.8694 11.7186 37.8694C13.2279 37.8694 14.5507 36.9027 15.0255 35.4782C15.9922 35.2747 16.8231 34.6811 17.3149 33.8163C18.0611 32.5105 17.8915 30.8654 16.874 29.7462ZM11.7186 36.9706C11.108 36.9706 10.5314 36.7671 10.0736 36.377C10.0905 36.3601 10.1414 36.3431 10.1583 36.3262L12.8887 34.749C13.0244 34.6642 13.1092 34.5285 13.1092 34.3589V30.5093L14.2624 31.1707C14.2793 31.1707 14.2793 31.1877 14.2793 31.2046V34.3928C14.2963 35.8174 13.1431 36.9706 11.7186 36.9706ZM6.18999 34.6133C5.88473 34.0876 5.78298 33.4771 5.88473 32.8835C5.90169 32.9005 5.9356 32.9175 5.96952 32.9344L8.69988 34.5116C8.83556 34.5964 9.00514 34.5964 9.14081 34.5116L12.4817 32.5783V33.918C12.4817 33.935 12.4817 33.9519 12.4647 33.9519L9.70045 35.546C8.47942 36.2583 6.90225 35.8343 6.18999 34.6133ZM5.47772 28.6439C5.78298 28.1181 6.25782 27.7281 6.81746 27.5076V30.7637C6.81746 30.9163 6.90225 31.069 7.03793 31.1537L10.3788 33.087L9.22561 33.7484C9.20865 33.7484 9.19169 33.7654 9.19169 33.7484L6.42741 32.1543C5.17246 31.442 4.76545 29.8649 5.47772 28.6439ZM14.9746 30.8485L11.6338 28.9152L12.787 28.2538C12.8039 28.2538 12.8209 28.2368 12.8209 28.2538L15.5851 29.8479C16.8231 30.5602 17.2301 32.1374 16.5179 33.3584C16.2126 33.8841 15.7378 34.2741 15.1781 34.4776V31.2385C15.1951 31.0859 15.1103 30.9333 14.9746 30.8485ZM16.1109 29.1187C16.0939 29.1017 16.06 29.0848 16.0261 29.0678L13.2957 27.4907C13.16 27.4059 12.9905 27.4059 12.8548 27.4907L9.51391 29.424V28.0842C9.51391 28.0673 9.51391 28.0503 9.53086 28.0503L12.2951 26.4562C13.5331 25.7439 15.0933 26.1679 15.8056 27.4059C16.1109 27.9146 16.2126 28.5251 16.1109 29.1187ZM8.88643 31.4929L7.73323 30.8315C7.71628 30.8315 7.71628 30.8146 7.71628 30.7976V27.6094C7.71628 26.1848 8.86947 25.0316 10.294 25.0316C10.9045 25.0316 11.4811 25.2351 11.939 25.6252C11.9221 25.6421 11.8881 25.6591 11.8542 25.6761L9.12385 27.2532C8.98818 27.338 8.90339 27.4737 8.90339 27.6433V31.4929H8.88643ZM9.51391 30.1362L11.0063 29.2713L12.4986 30.1362V31.8491L11.0063 32.714L9.51391 31.8491V30.1362Z" fill="#939393"/>
<path d="M30.6367 24.6328H36.6862V30.6823H30.6367V24.6328Z" fill="#939393"/>
<path d="M37.3203 24.6328H43.3698V30.6823H37.3203V24.6328Z" fill="#939393"/>
<path d="M30.6367 31.3164H36.6862V37.3659H30.6367V31.3164Z" fill="#939393"/>
<path d="M37.3203 31.3164H43.3698V37.3659H37.3203V31.3164Z" fill="#939393"/>
<mask id="mask0_12215_10111" style="mask-type:luminance" maskUnits="userSpaceOnUse" x="57" y="25" width="12" height="12">
<path d="M68.2878 25.7109H57.707V36.2917H68.2878V25.7109Z" fill="white"/>
</mask>
<g mask="url(#mask0_12215_10111)">
<path fill-rule="evenodd" clip-rule="evenodd" d="M61.1352 32.0171C61.4174 32.0171 61.9817 32.003 62.7717 31.6785C63.6887 31.2976 65.4945 30.6204 66.8065 29.9151C67.7235 29.4213 68.1186 28.7723 68.1186 27.8976C68.1186 26.6985 67.1451 25.7109 65.9319 25.7109H60.8531C59.1178 25.7109 57.707 27.1217 57.707 28.857C57.707 30.5922 59.0332 32.0171 61.1352 32.0171Z" fill="#939393"/>
<path fill-rule="evenodd" clip-rule="evenodd" d="M61.9961 34.1755C61.9961 33.329 62.504 32.5531 63.294 32.2286L64.8882 31.5655C66.5106 30.9025 68.2882 32.0875 68.2882 33.8369C68.2882 35.1912 67.1878 36.2916 65.8334 36.2916H64.0982C62.9413 36.2916 61.9961 35.3464 61.9961 34.1755Z" fill="#939393"/>
<path d="M59.5269 32.4258C58.5253 32.4258 57.707 33.244 57.707 34.2457V34.4855C57.707 35.4731 58.5253 36.2914 59.5269 36.2914C60.5286 36.2914 61.3468 35.4731 61.3468 34.4714V34.2316C61.3327 33.244 60.5286 32.4258 59.5269 32.4258Z" fill="#939393"/>
</g>
<path fill-rule="evenodd" clip-rule="evenodd" d="M95.3777 30.6698C95.3777 27.1788 92.5302 24.3487 89.0178 24.3487C85.5053 24.3487 82.6579 27.1788 82.6579 30.6698C82.6579 31.449 82.7997 32.1952 83.0591 32.8844L82.3933 33.1919C82.0913 32.4088 81.9258 31.5585 81.9258 30.6698C81.9258 26.7769 85.101 23.6211 89.0178 23.6211C92.9345 23.6211 96.1097 26.7769 96.1097 30.6698C96.1097 31.5538 95.946 32.3997 95.6471 33.1794L94.9013 33.0747C95.2083 32.3333 95.3777 31.5212 95.3777 30.6698ZM87.228 37.4922C87.7998 37.64 88.3995 37.7186 89.0178 37.7186C89.6094 37.7186 90.1842 37.6466 90.7336 37.5109L90.2047 36.8811C89.8202 36.9533 89.4234 36.991 89.0178 36.991C88.6039 36.991 88.1992 36.9517 87.8074 36.8767L87.228 37.4922Z" fill="#939393"/>
<path d="M83.5168 31.8203C83.2221 31.8203 82.9587 31.9406 82.775 32.1588C82.6614 32.2939 82.5428 32.5117 82.5331 32.8379C82.4095 32.8026 82.2906 32.7829 82.1796 32.7829C81.8974 32.7829 81.6426 32.8903 81.4624 33.0855C81.2308 33.3361 81.128 33.644 81.1727 33.952C81.194 34.0988 81.2434 34.2303 81.3171 34.352C81.1616 34.477 81.0471 34.6511 80.9918 34.8604C80.9485 35.0245 80.904 35.3662 81.136 35.7182C81.1212 35.7412 81.1074 35.7651 81.0945 35.7895C80.955 36.0525 80.9461 36.3497 81.0692 36.6265C81.2558 37.046 81.7194 37.3765 82.6198 37.7313C83.1799 37.952 83.6923 38.0931 83.6969 38.0944C84.4374 38.2852 85.1071 38.3822 85.6869 38.3822C86.7526 38.3822 87.5155 38.0578 87.9546 37.4182C88.6612 36.3881 88.5602 35.446 87.6458 34.5378C87.1398 34.0353 86.8034 33.2943 86.7333 33.1317C86.592 32.6501 86.2184 32.1148 85.5975 32.1148C85.5453 32.1148 85.4923 32.119 85.4403 32.1271C85.1683 32.1696 84.9305 32.3252 84.7607 32.5593C84.5774 32.3328 84.3994 32.1526 84.2383 32.051C83.9954 31.8979 83.7528 31.8203 83.5168 31.8203ZM83.5168 32.5439C83.6097 32.5439 83.7231 32.5832 83.8481 32.662C84.2364 32.9068 84.9857 34.1867 85.26 34.6845C85.3519 34.8513 85.5091 34.9219 85.6505 34.9219C85.9312 34.9219 86.1504 34.6446 85.6762 34.2922C84.9631 33.7619 85.2133 32.8953 85.5537 32.8419C85.5686 32.8395 85.5833 32.8384 85.5975 32.8384C85.907 32.8384 86.0435 33.3685 86.0435 33.3685C86.0435 33.3685 86.4436 34.3671 87.131 35.0496C87.8184 35.7323 87.8539 36.2803 87.3529 37.0104C87.0112 37.5082 86.3572 37.5732 85.6869 37.5732C84.9917 37.5732 84.2778 37.4514 83.8784 37.3484C83.8588 37.3434 81.4311 36.707 81.7387 36.1267C81.7904 36.0292 81.8756 35.9901 81.9828 35.9901C82.4161 35.9901 83.2041 36.6309 83.5429 36.6309C83.6186 36.6309 83.675 36.5727 83.6969 36.4945C83.8476 35.9552 81.499 35.7897 81.6961 35.0442C81.7309 34.9123 81.8252 34.8587 81.9577 34.8589C82.5302 34.8589 83.8147 35.8595 84.0839 35.8595C84.1045 35.8595 84.1192 35.8535 84.1272 35.8409C84.2621 35.6245 84.2 35.4484 83.2492 34.8765C82.2984 34.3045 81.6193 33.9855 81.9988 33.5749C82.0425 33.5275 82.1044 33.5065 82.1796 33.5065C82.7568 33.5067 84.1206 34.7401 84.1206 34.7401C84.1206 34.7401 84.4887 35.1205 84.7114 35.1205C84.7625 35.1205 84.806 35.1004 84.8355 35.0509C84.9933 34.7864 83.3696 33.5635 83.278 33.0589C83.2159 32.7171 83.3215 32.5439 83.5168 32.5439Z" fill="#939393"/>
<path d="M94.4869 31.8203C94.7816 31.8203 95.045 31.9406 95.2287 32.1588C95.3423 32.2939 95.461 32.5117 95.4706 32.8379C95.5942 32.8026 95.7131 32.7829 95.8241 32.7829C96.1063 32.7829 96.3611 32.8903 96.5413 33.0855C96.7729 33.3361 96.8758 33.644 96.831 33.952C96.8097 34.0988 96.7604 34.2303 96.6866 34.352C96.8421 34.477 96.9566 34.6511 97.0119 34.8604C97.0553 35.0245 97.0997 35.3662 96.8678 35.7182C96.8825 35.7412 96.8963 35.7651 96.9093 35.7895C97.0487 36.0525 97.0576 36.3497 96.9346 36.6265C96.748 37.046 96.2843 37.3765 95.384 37.7313C94.8238 37.952 94.3114 38.0931 94.3069 38.0944C93.5663 38.2852 92.8966 38.3822 92.3168 38.3822C91.2512 38.3822 90.4882 38.0578 90.0492 37.4182C89.3425 36.3881 89.4435 35.446 90.3579 34.5378C90.864 34.0353 91.2004 33.2943 91.2705 33.1317C91.4117 32.6501 91.7853 32.1148 92.4062 32.1148C92.4584 32.1148 92.5114 32.119 92.5635 32.1271C92.8354 32.1696 93.0732 32.3252 93.243 32.5593C93.4263 32.3328 93.6044 32.1526 93.7655 32.051C94.0083 31.8979 94.251 31.8203 94.4869 31.8203ZM94.4869 32.5439C94.394 32.5439 94.2806 32.5832 94.1556 32.662C93.7673 32.9068 93.018 34.1867 92.7437 34.6845C92.6518 34.8513 92.4947 34.9219 92.3532 34.9219C92.0725 34.9219 91.8533 34.6446 92.3275 34.2922C93.0406 33.7619 92.7905 32.8953 92.4501 32.8419C92.4351 32.8395 92.4204 32.8384 92.4062 32.8384C92.0967 32.8384 91.9602 33.3685 91.9602 33.3685C91.9602 33.3685 91.5601 34.3671 90.8727 35.0496C90.1853 35.7323 90.1498 36.2803 90.6508 37.0104C90.9925 37.5082 91.6465 37.5732 92.3168 37.5732C93.012 37.5732 93.7259 37.4514 94.1253 37.3484C94.145 37.3434 96.5727 36.707 96.265 36.1267C96.2133 36.0292 96.1281 35.9901 96.0209 35.9901C95.5877 35.9901 94.7996 36.6309 94.4608 36.6309C94.3851 36.6309 94.3287 36.5727 94.3069 36.4945C94.1561 35.9552 96.5048 35.7897 96.3076 35.0442C96.2729 34.9123 96.1786 34.8587 96.0461 34.8589C95.4735 34.8589 94.1891 35.8595 93.9198 35.8595C93.8993 35.8595 93.8845 35.8535 93.8765 35.8409C93.7416 35.6245 93.8037 35.4484 94.7545 34.8765C95.7053 34.3045 96.3845 33.9855 96.0049 33.5749C95.9612 33.5275 95.8993 33.5065 95.8241 33.5065C95.2469 33.5067 93.8831 34.7401 93.8831 34.7401C93.8831 34.7401 93.515 35.1205 93.2924 35.1205C93.2412 35.1205 93.1977 35.1004 93.1682 35.0509C93.0104 34.7864 94.6342 33.5635 94.7257 33.0589C94.7878 32.7171 94.6822 32.5439 94.4869 32.5439Z" fill="#939393"/>
<path d="M91.4132 30.915C91.4132 30.0963 90.3514 31.3441 89.0386 31.3497C87.7259 31.3442 86.6641 30.0964 86.6641 30.915C86.6641 31.4578 86.9238 32.3406 87.6213 32.8762C87.7601 32.3986 88.5227 32.0161 88.6317 32.071C88.787 32.1493 88.7782 32.366 89.0386 32.557C89.2989 32.366 89.2902 32.1493 89.4454 32.071C89.5545 32.0161 90.3171 32.3986 90.4558 32.8762C91.1534 32.3406 91.4132 31.4577 91.4132 30.915Z" fill="#939393"/>
<path d="M89.4452 32.0717C89.29 32.1499 89.2987 32.3667 89.0384 32.5577C88.778 32.3667 88.7867 32.15 88.6315 32.0717C88.5224 32.0167 87.7599 32.3993 87.6211 32.8768C87.9738 33.1476 88.4384 33.3296 89.0379 33.3341C89.0377 33.3341 89.0381 33.3341 89.0379 33.3341C89.0381 33.3341 89.0387 33.3341 89.0389 33.3341C89.6385 33.3297 90.1031 33.1476 90.4558 32.8768C90.317 32.3993 89.5542 32.0167 89.4452 32.0717Z" fill="#939393"/>
<path d="M93.2717 29.7778C93.5965 29.7778 93.8598 29.5145 93.8598 29.1897C93.8598 28.8649 93.5965 28.6016 93.2717 28.6016C92.9469 28.6016 92.6836 28.8649 92.6836 29.1897C92.6836 29.5145 92.9469 29.7778 93.2717 29.7778Z" fill="#939393"/>
<path d="M84.7952 29.7778C85.12 29.7778 85.3833 29.5145 85.3833 29.1897C85.3833 28.8649 85.12 28.6016 84.7952 28.6016C84.4703 28.6016 84.207 28.8649 84.207 29.1897C84.207 29.5145 84.4703 29.7778 84.7952 29.7778Z" fill="#939393"/>
<path d="M91.2005 28.9344C91.4335 29.0165 91.5262 29.4943 91.7616 29.3695C92.2074 29.1331 92.3767 28.5809 92.1396 28.1363C91.9026 27.6916 91.349 27.5228 90.9032 27.7593C90.4574 27.9957 90.2881 28.5478 90.5252 28.9924C90.637 29.2023 90.9922 28.8611 91.2005 28.9344Z" fill="#939393"/>
<path d="M86.894 28.9344C86.661 29.0165 86.5683 29.4943 86.3329 29.3695C85.887 29.1331 85.7178 28.5809 85.9548 28.1363C86.1919 27.6916 86.7454 27.5228 87.1913 27.7593C87.6371 27.9957 87.8063 28.5478 87.5693 28.9924C87.4574 29.2023 87.1023 28.8611 86.894 28.9344Z" fill="#939393"/>
<path d="M112.078 26.8164C113.179 26.8164 114.04 27.646 114.82 28.6999C115.891 27.3361 116.786 26.8164 117.858 26.8164C120.044 26.8164 121.719 29.6607 121.719 32.6712C121.719 34.5551 120.807 35.7433 119.281 35.7433C118.182 35.7433 117.392 35.2253 115.987 32.7697C115.987 32.7697 115.401 31.7356 114.998 31.0233C114.857 31.2512 114.709 31.4968 114.552 31.7601L113.894 32.8682C112.61 35.0156 111.896 35.7433 110.6 35.7433C109.113 35.7433 108.285 34.5389 108.285 32.6158C108.285 29.4637 109.997 26.8164 112.078 26.8164ZM117.058 32.1048C118.197 33.8902 118.591 34.2904 119.225 34.2904C119.878 34.2904 120.266 33.7175 120.266 32.6958C120.266 30.5103 119.176 28.2755 117.877 28.2755C117.173 28.2755 116.586 28.6818 115.685 29.9708C116.54 31.2823 117.058 32.1048 117.058 32.1048ZM112.76 31.8801L113.547 30.5665C113.76 30.2198 113.965 29.9008 114.162 29.6093C113.452 28.5136 112.866 27.9677 112.17 27.9677C110.723 27.9677 109.566 30.0978 109.566 32.7143C109.566 33.7117 109.892 34.2904 110.569 34.2904C111.218 34.2904 111.528 33.8619 112.76 31.8801Z" fill="#939393"/>
</svg>
