<svg width="595" height="20" viewBox="0 0 595 20" fill="none" xmlns="http://www.w3.org/2000/svg">
<mask id="mask0_12215_7760" style="mask-type:alpha" maskUnits="userSpaceOnUse" x="0" y="0" width="595" height="20">
<rect width="594.57" height="20" fill="url(#paint0_linear_12215_7760)"/>
</mask>
<g mask="url(#mask0_12215_7760)">
<rect width="239" height="20" rx="10" fill="#121212"/>
<path d="M8.35795 7.07741V6.08345H13.5803V7.07741H11.5572V12.6289H10.381V7.07741H8.35795ZM15.487 12.6289V6.08345H16.6727V8.8544H19.7058V6.08345H20.8947V12.6289H19.7058V9.84837H16.6727V12.6289H15.487ZM27.2103 6.08345H28.3961V10.3597C28.3961 10.8285 28.2853 11.2408 28.0637 11.5966C27.8442 11.9524 27.5353 12.2305 27.1368 12.4308C26.7384 12.6289 26.2728 12.728 25.7402 12.728C25.2054 12.728 24.7387 12.6289 24.3403 12.4308C23.9419 12.2305 23.6329 11.9524 23.4135 11.5966C23.194 11.2408 23.0843 10.8285 23.0843 10.3597V6.08345H24.27V10.2607C24.27 10.5334 24.3297 10.7763 24.449 10.9893C24.5704 11.2024 24.7409 11.3697 24.9603 11.4911C25.1798 11.6104 25.4397 11.6701 25.7402 11.6701C26.0406 11.6701 26.3005 11.6104 26.52 11.4911C26.7416 11.3697 26.912 11.2024 27.0314 10.9893C27.1507 10.7763 27.2103 10.5334 27.2103 10.2607V6.08345ZM39.566 9.35618C39.566 10.0614 39.4339 10.6655 39.1697 11.1683C38.9076 11.669 38.5497 12.0526 38.0958 12.3189C37.6441 12.5852 37.1317 12.7184 36.5585 12.7184C35.9854 12.7184 35.4719 12.5852 35.0181 12.3189C34.5664 12.0504 34.2084 11.6658 33.9442 11.1651C33.6821 10.6623 33.5511 10.0593 33.5511 9.35618C33.5511 8.65092 33.6821 8.04794 33.9442 7.54723C34.2084 7.04439 34.5664 6.6598 35.0181 6.39347C35.4719 6.12713 35.9854 5.99396 36.5585 5.99396C37.1317 5.99396 37.6441 6.12713 38.0958 6.39347C38.5497 6.6598 38.9076 7.04439 39.1697 7.54723C39.4339 8.04794 39.566 8.65092 39.566 9.35618ZM38.3739 9.35618C38.3739 8.85973 38.2961 8.44105 38.1406 8.10014C37.9872 7.7571 37.7741 7.49822 37.5014 7.32351C37.2286 7.14666 36.9144 7.05824 36.5585 7.05824C36.2027 7.05824 35.8884 7.14666 35.6157 7.32351C35.343 7.49822 35.1289 7.7571 34.9733 8.10014C34.8199 8.44105 34.7432 8.85973 34.7432 9.35618C34.7432 9.85263 34.8199 10.2724 34.9733 10.6154C35.1289 10.9563 35.343 11.2152 35.6157 11.392C35.8884 11.5668 36.2027 11.6541 36.5585 11.6541C36.9144 11.6541 37.2286 11.5668 37.5014 11.392C37.7741 11.2152 37.9872 10.9563 38.1406 10.6154C38.2961 10.2724 38.3739 9.85263 38.3739 9.35618ZM47.1896 8.2919H45.9943C45.9602 8.09588 45.8974 7.92223 45.8058 7.77095C45.7141 7.61754 45.6001 7.48757 45.4638 7.38104C45.3274 7.2745 45.1719 7.1946 44.9972 7.14134C44.8246 7.08594 44.6381 7.05824 44.4379 7.05824C44.082 7.05824 43.7667 7.14773 43.4918 7.3267C43.217 7.50355 43.0018 7.76349 42.8462 8.10653C42.6907 8.44744 42.6129 8.86399 42.6129 9.35618C42.6129 9.85689 42.6907 10.2788 42.8462 10.6218C43.0039 10.9627 43.2191 11.2205 43.4918 11.3952C43.7667 11.5678 44.081 11.6541 44.4347 11.6541C44.6307 11.6541 44.8139 11.6286 44.9844 11.5774C45.157 11.5241 45.3114 11.4464 45.4478 11.3441C45.5863 11.2418 45.7024 11.1161 45.7962 10.967C45.892 10.8178 45.9581 10.6474 45.9943 10.4556L47.1896 10.462C47.1449 10.7731 47.0479 11.065 46.8988 11.3377C46.7518 11.6104 46.5589 11.8512 46.3203 12.06C46.0817 12.2667 45.8026 12.4286 45.483 12.5458C45.1634 12.6609 44.8086 12.7184 44.4187 12.7184C43.8434 12.7184 43.3299 12.5852 42.8782 12.3189C42.4265 12.0526 42.0707 11.668 41.8107 11.1651C41.5508 10.6623 41.4208 10.0593 41.4208 9.35618C41.4208 8.65092 41.5518 8.04794 41.8139 7.54723C42.076 7.04439 42.4329 6.6598 42.8846 6.39347C43.3363 6.12713 43.8477 5.99396 44.4187 5.99396C44.783 5.99396 45.1218 6.0451 45.435 6.14737C45.7482 6.24964 46.0273 6.39986 46.2724 6.59801C46.5174 6.79403 46.7188 7.0348 46.8764 7.32031C47.0362 7.60369 47.1406 7.92756 47.1896 8.2919ZM48.8878 7.07741V6.08345H54.1101V7.07741H52.0871V12.6289H50.9109V7.07741H48.8878ZM61.4345 12.7184C60.9742 12.7184 60.5651 12.6396 60.2072 12.4819C59.8514 12.3242 59.5701 12.1048 59.3634 11.8235C59.1568 11.5423 59.047 11.2173 59.0343 10.8487H60.236C60.2466 11.0256 60.3052 11.18 60.4117 11.3121C60.5183 11.4421 60.66 11.5433 60.8368 11.6158C61.0137 11.6882 61.2118 11.7244 61.4313 11.7244C61.6656 11.7244 61.8734 11.6839 62.0545 11.603C62.2356 11.5199 62.3773 11.4048 62.4796 11.2578C62.5818 11.1108 62.6319 10.9414 62.6298 10.7496C62.6319 10.5515 62.5808 10.3768 62.4764 10.2255C62.372 10.0742 62.2207 9.95597 62.0225 9.87074C61.8265 9.78551 61.59 9.7429 61.313 9.7429H60.7345V8.82884H61.313C61.541 8.82884 61.7402 8.78942 61.9107 8.71058C62.0833 8.63175 62.2186 8.52095 62.3166 8.3782C62.4146 8.23331 62.4625 8.06605 62.4604 7.87642C62.4625 7.69105 62.421 7.53018 62.3357 7.39382C62.2526 7.25533 62.1344 7.14773 61.981 7.07102C61.8297 6.99432 61.6518 6.95597 61.4472 6.95597C61.247 6.95597 61.0616 6.99219 60.8911 7.06463C60.7207 7.13707 60.5833 7.24041 60.4789 7.37464C60.3745 7.50675 60.3191 7.66442 60.3127 7.84766H59.1717C59.1802 7.48118 59.2857 7.15945 59.4881 6.88246C59.6926 6.60334 59.9654 6.38601 60.3063 6.23047C60.6472 6.0728 61.0296 5.99396 61.4536 5.99396C61.8904 5.99396 62.2697 6.07599 62.5914 6.24006C62.9153 6.40199 63.1656 6.62038 63.3425 6.89524C63.5193 7.1701 63.6078 7.47372 63.6078 7.80611C63.6099 8.17472 63.5012 8.48366 63.2818 8.73295C63.0644 8.98224 62.7789 9.14524 62.4252 9.22195V9.27308C62.8855 9.337 63.2381 9.50746 63.4831 9.78445C63.7303 10.0593 63.8528 10.4013 63.8507 10.8104C63.8507 11.1768 63.7463 11.505 63.5374 11.7947C63.3308 12.0824 63.0453 12.3082 62.6809 12.4723C62.3187 12.6364 61.9032 12.7184 61.4345 12.7184ZM68.2671 12.7536C67.7408 12.7536 67.2891 12.6204 66.912 12.354C66.537 12.0856 66.2483 11.6989 66.0458 11.1939C65.8456 10.6868 65.7454 10.0763 65.7454 9.36257C65.7475 8.64879 65.8488 8.04155 66.049 7.54084C66.2515 7.038 66.5402 6.65447 66.9152 6.39027C67.2923 6.12607 67.7429 5.99396 68.2671 5.99396C68.7912 5.99396 69.2419 6.12607 69.619 6.39027C69.9961 6.65447 70.2848 7.038 70.4851 7.54084C70.6875 8.04368 70.7887 8.65092 70.7887 9.36257C70.7887 10.0785 70.6875 10.69 70.4851 11.1971C70.2848 11.7021 69.9961 12.0877 69.619 12.354C69.244 12.6204 68.7934 12.7536 68.2671 12.7536ZM68.2671 11.7532C68.6762 11.7532 68.999 11.5518 69.2355 11.1491C69.4741 10.7443 69.5934 10.1488 69.5934 9.36257C69.5934 8.84268 69.5391 8.40589 69.4304 8.0522C69.3218 7.69851 69.1684 7.43217 68.9702 7.2532C68.7721 7.07209 68.5377 6.98153 68.2671 6.98153C67.8601 6.98153 67.5384 7.18395 67.3019 7.58878C67.0654 7.99148 66.9461 8.58274 66.9439 9.36257C66.9418 9.88459 66.994 10.3235 67.1005 10.6793C67.2092 11.0352 67.3626 11.3036 67.5608 11.4847C67.7589 11.6637 67.9944 11.7532 68.2671 11.7532ZM79.9516 13.5366C79.2804 13.5366 78.6838 13.445 78.1618 13.2617C77.6419 13.0806 77.203 12.8143 76.845 12.4627C76.4871 12.109 76.2154 11.6786 76.0301 11.1715C75.8447 10.6644 75.7509 10.0849 75.7488 9.43288C75.7509 8.79581 75.8458 8.22159 76.0333 7.71023C76.2208 7.19673 76.4946 6.75781 76.8546 6.39347C77.2147 6.02699 77.6547 5.74574 78.1746 5.54972C78.6945 5.35369 79.2857 5.25568 79.9484 5.25568C80.5727 5.25568 81.1256 5.3505 81.6071 5.54013C82.0908 5.72976 82.4988 5.99396 82.8312 6.33274C83.1657 6.66939 83.4182 7.06357 83.5887 7.51527C83.7612 7.96484 83.8475 8.45277 83.8475 8.97905C83.8475 9.34339 83.8198 9.68857 83.7644 10.0146C83.709 10.3384 83.6142 10.6261 83.48 10.8775C83.3479 11.1289 83.1678 11.3292 82.9399 11.4783C82.7119 11.6254 82.4264 11.7053 82.0833 11.718C81.8681 11.7287 81.6796 11.7085 81.5176 11.6573C81.3557 11.6062 81.2247 11.5263 81.1245 11.4176C81.0265 11.3068 80.9647 11.1715 80.9392 11.0117H80.9008C80.8518 11.1396 80.7591 11.2567 80.6227 11.3633C80.4885 11.4677 80.3223 11.5497 80.1242 11.6094C79.926 11.6669 79.7055 11.6903 79.4626 11.6797C79.2026 11.6669 78.9619 11.6072 78.7403 11.5007C78.5208 11.392 78.3291 11.2408 78.165 11.0469C78.0031 10.8509 77.8774 10.6143 77.7879 10.3374C77.6984 10.0604 77.6536 9.74609 77.6536 9.39453C77.6536 9.05149 77.7026 8.74893 77.8007 8.48686C77.8987 8.22479 78.0297 8.00107 78.1938 7.8157C78.36 7.63033 78.5475 7.48544 78.7563 7.38104C78.9651 7.2745 79.1803 7.20632 79.4019 7.17649C79.632 7.14453 79.8482 7.14773 80.0507 7.18608C80.2531 7.22443 80.4214 7.28303 80.5556 7.36186C80.692 7.4407 80.7772 7.52699 80.8113 7.62074H80.8561V7.26278H81.7477V10.3054C81.7499 10.4652 81.7882 10.5941 81.8628 10.6921C81.9395 10.7901 82.046 10.8391 82.1824 10.8391C82.3529 10.8391 82.4903 10.772 82.5947 10.6378C82.7012 10.5014 82.7779 10.2926 82.8248 10.0114C82.8738 9.72798 82.8972 9.36577 82.8951 8.92472C82.8972 8.5625 82.8493 8.23437 82.7513 7.94034C82.6554 7.64418 82.5191 7.38423 82.3422 7.16051C82.1654 6.93679 81.9534 6.75036 81.7062 6.60121C81.4612 6.44993 81.1884 6.33594 80.888 6.25923C80.5876 6.18253 80.2669 6.14418 79.926 6.14418C79.404 6.14418 78.9448 6.22408 78.5485 6.38388C78.1522 6.54155 77.8198 6.76633 77.5514 7.05824C77.285 7.35014 77.0837 7.69638 76.9473 8.09695C76.8131 8.49538 76.746 8.93643 76.746 9.4201C76.746 9.93785 76.8163 10.397 76.9569 10.7976C77.0997 11.196 77.3085 11.5316 77.5833 11.8043C77.8582 12.0771 78.198 12.2837 78.6029 12.4244C79.0098 12.565 79.4775 12.6353 80.0059 12.6353C80.2488 12.6353 80.4864 12.6161 80.7186 12.5778C80.9509 12.5394 81.1597 12.4947 81.345 12.4435C81.5304 12.3924 81.6732 12.3477 81.7733 12.3093L82.045 13.1211C81.9129 13.1893 81.7339 13.2553 81.508 13.3192C81.2843 13.3832 81.0372 13.4354 80.7666 13.4759C80.4981 13.5163 80.2264 13.5366 79.9516 13.5366ZM79.7279 10.7624C79.9985 10.7624 80.2147 10.7102 80.3767 10.6058C80.5386 10.4993 80.6547 10.3416 80.725 10.1328C80.7953 9.92401 80.8294 9.66406 80.8273 9.35298C80.8273 9.06321 80.7911 8.82564 80.7186 8.64027C80.6462 8.4549 80.5301 8.31747 80.3703 8.22798C80.2105 8.13849 79.9985 8.09375 79.7343 8.09375C79.4956 8.09375 79.2921 8.14808 79.1238 8.25675C78.9576 8.36541 78.8298 8.51562 78.7403 8.70739C78.6529 8.89702 78.6093 9.11328 78.6093 9.35618C78.6093 9.59908 78.6444 9.82812 78.7147 10.0433C78.7872 10.2564 78.9044 10.43 79.0663 10.5643C79.2303 10.6964 79.4509 10.7624 79.7279 10.7624ZM91.3037 12.7184C90.9905 12.7163 90.6847 12.6619 90.3864 12.5554C90.0881 12.4467 89.8197 12.271 89.581 12.0281C89.3424 11.783 89.1528 11.4581 89.0121 11.0533C88.8715 10.6463 88.8023 10.1424 88.8044 9.54155C88.8044 8.98118 88.8641 8.48153 88.9834 8.04261C89.1027 7.60369 89.2742 7.23295 89.4979 6.9304C89.7217 6.62571 89.9912 6.39347 90.3065 6.23366C90.624 6.07386 90.9788 5.99396 91.3708 5.99396C91.782 5.99396 92.1464 6.07493 92.4638 6.23686C92.7834 6.39879 93.0413 6.62038 93.2373 6.90163C93.4333 7.18075 93.5548 7.49609 93.6016 7.84766H92.4351C92.3754 7.59624 92.2529 7.39595 92.0675 7.2468C91.8843 7.09553 91.6521 7.01989 91.3708 7.01989C90.917 7.01989 90.5675 7.21697 90.3225 7.61115C90.0796 8.00533 89.9571 8.54652 89.955 9.23473H89.9997C90.1041 9.04723 90.2394 8.88636 90.4056 8.75213C90.5718 8.6179 90.7593 8.51456 90.9681 8.44212C91.179 8.36754 91.4017 8.33026 91.6361 8.33026C92.0196 8.33026 92.3637 8.42187 92.6684 8.60511C92.9752 8.78835 93.2181 9.04084 93.3971 9.36257C93.5761 9.68217 93.6645 10.0487 93.6624 10.462C93.6645 10.8924 93.5665 11.2791 93.3683 11.6222C93.1702 11.9631 92.8942 12.2315 92.5406 12.4276C92.1869 12.6236 91.7746 12.7205 91.3037 12.7184ZM91.2973 11.7596C91.5295 11.7596 91.7373 11.7031 91.9205 11.5902C92.1038 11.4773 92.2486 11.3249 92.3552 11.1332C92.4617 10.9414 92.5139 10.7262 92.5118 10.4876C92.5139 10.2532 92.4628 10.0412 92.3584 9.85156C92.2561 9.66193 92.1144 9.51172 91.9333 9.40092C91.7522 9.29013 91.5455 9.23473 91.3133 9.23473C91.1407 9.23473 90.9798 9.26776 90.8307 9.33381C90.6815 9.39986 90.5516 9.49148 90.4408 9.60866C90.33 9.72372 90.2426 9.85795 90.1787 10.0114C90.1169 10.1626 90.0849 10.3246 90.0828 10.4972C90.0849 10.7251 90.1382 10.935 90.2426 11.1268C90.347 11.3185 90.4908 11.4719 90.6741 11.587C90.8573 11.7021 91.0651 11.7596 91.2973 11.7596ZM96.3681 11.8427C96.1742 11.8427 96.008 11.7745 95.8695 11.6381C95.731 11.4996 95.6629 11.3335 95.665 11.1396C95.6629 10.9478 95.731 10.7837 95.8695 10.6474C96.008 10.511 96.1742 10.4428 96.3681 10.4428C96.5556 10.4428 96.7186 10.511 96.8571 10.6474C96.9977 10.7837 97.0691 10.9478 97.0712 11.1396C97.0691 11.2695 97.035 11.3878 96.969 11.4943C96.905 11.6009 96.8198 11.6861 96.7133 11.75C96.6089 11.8118 96.4938 11.8427 96.3681 11.8427ZM96.3681 8.59872C96.1742 8.59872 96.008 8.53054 95.8695 8.39418C95.731 8.25568 95.6629 8.08949 95.665 7.8956C95.6629 7.70383 95.731 7.53977 95.8695 7.40341C96.008 7.26491 96.1742 7.19567 96.3681 7.19567C96.5556 7.19567 96.7186 7.26491 96.8571 7.40341C96.9977 7.53977 97.0691 7.70383 97.0712 7.8956C97.0691 8.02344 97.035 8.14062 96.969 8.24716C96.905 8.35369 96.8198 8.43892 96.7133 8.50284C96.6089 8.56676 96.4938 8.59872 96.3681 8.59872ZM101.572 12.7536C101.046 12.7536 100.594 12.6204 100.217 12.354C99.8422 12.0856 99.5535 11.6989 99.3511 11.1939C99.1508 10.6868 99.0507 10.0763 99.0507 9.36257C99.0528 8.64879 99.154 8.04155 99.3543 7.54084C99.5567 7.038 99.8454 6.65447 100.22 6.39027C100.598 6.12607 101.048 5.99396 101.572 5.99396C102.097 5.99396 102.547 6.12607 102.924 6.39027C103.301 6.65447 103.59 7.038 103.79 7.54084C103.993 8.04368 104.094 8.65092 104.094 9.36257C104.094 10.0785 103.993 10.69 103.79 11.1971C103.59 11.7021 103.301 12.0877 102.924 12.354C102.549 12.6204 102.099 12.7536 101.572 12.7536ZM101.572 11.7532C101.981 11.7532 102.304 11.5518 102.541 11.1491C102.779 10.7443 102.899 10.1488 102.899 9.36257C102.899 8.84268 102.844 8.40589 102.736 8.0522C102.627 7.69851 102.474 7.43217 102.275 7.2532C102.077 7.07209 101.843 6.98153 101.572 6.98153C101.165 6.98153 100.844 7.18395 100.607 7.58878C100.371 7.99148 100.251 8.58274 100.249 9.36257C100.247 9.88459 100.299 10.3235 100.406 10.6793C100.514 11.0352 100.668 11.3036 100.866 11.4847C101.064 11.6637 101.3 11.7532 101.572 11.7532ZM108.475 12.7536C107.949 12.7536 107.497 12.6204 107.12 12.354C106.745 12.0856 106.456 11.6989 106.254 11.1939C106.054 10.6868 105.954 10.0763 105.954 9.36257C105.956 8.64879 106.057 8.04155 106.257 7.54084C106.46 7.038 106.748 6.65447 107.123 6.39027C107.5 6.12607 107.951 5.99396 108.475 5.99396C108.999 5.99396 109.45 6.12607 109.827 6.39027C110.204 6.65447 110.493 7.038 110.693 7.54084C110.896 8.04368 110.997 8.65092 110.997 9.36257C110.997 10.0785 110.896 10.69 110.693 11.1971C110.493 11.7021 110.204 12.0877 109.827 12.354C109.452 12.6204 109.002 12.7536 108.475 12.7536ZM108.475 11.7532C108.884 11.7532 109.207 11.5518 109.444 11.1491C109.682 10.7443 109.802 10.1488 109.802 9.36257C109.802 8.84268 109.747 8.40589 109.639 8.0522C109.53 7.69851 109.377 7.43217 109.178 7.2532C108.98 7.07209 108.746 6.98153 108.475 6.98153C108.068 6.98153 107.747 7.18395 107.51 7.58878C107.274 7.99148 107.154 8.58274 107.152 9.36257C107.15 9.88459 107.202 10.3235 107.309 10.6793C107.417 11.0352 107.571 11.3036 107.769 11.4847C107.967 11.6637 108.203 11.7532 108.475 11.7532ZM116.155 12.6289V6.08345H118.61C119.113 6.08345 119.534 6.1772 119.875 6.3647C120.218 6.5522 120.477 6.81001 120.652 7.13814C120.829 7.46413 120.917 7.83487 120.917 8.25036C120.917 8.6701 120.829 9.04297 120.652 9.36896C120.475 9.69496 120.214 9.9517 119.869 10.1392C119.524 10.3246 119.099 10.4173 118.594 10.4173H116.967V9.44247H118.434C118.728 9.44247 118.969 9.39134 119.156 9.28906C119.344 9.18679 119.482 9.04616 119.572 8.86719C119.663 8.68821 119.709 8.4826 119.709 8.25036C119.709 8.01811 119.663 7.81357 119.572 7.63672C119.482 7.45987 119.343 7.32244 119.153 7.22443C118.966 7.12429 118.724 7.07422 118.428 7.07422H117.341V12.6289H116.155ZM122.847 6.08345H124.298L126.241 10.8263H126.318L128.261 6.08345H129.712V12.6289H128.574V8.1321H128.514L126.705 12.6097H125.855L124.046 8.12251H123.985V12.6289H122.847V6.08345ZM139.162 6.08345H140.348V10.3597C140.348 10.8285 140.237 11.2408 140.015 11.5966C139.796 11.9524 139.487 12.2305 139.088 12.4308C138.69 12.6289 138.224 12.728 137.692 12.728C137.157 12.728 136.69 12.6289 136.292 12.4308C135.893 12.2305 135.584 11.9524 135.365 11.5966C135.146 11.2408 135.036 10.8285 135.036 10.3597V6.08345H136.222V10.2607C136.222 10.5334 136.281 10.7763 136.401 10.9893C136.522 11.2024 136.692 11.3697 136.912 11.4911C137.131 11.6104 137.391 11.6701 137.692 11.6701C137.992 11.6701 138.252 11.6104 138.472 11.4911C138.693 11.3697 138.864 11.2024 138.983 10.9893C139.102 10.7763 139.162 10.5334 139.162 10.2607V6.08345ZM142.249 7.07741V6.08345H147.471V7.07741H145.448V12.6289H144.272V7.07741H142.249ZM154.69 8.2919H153.495C153.461 8.09588 153.398 7.92223 153.307 7.77095C153.215 7.61754 153.101 7.48757 152.965 7.38104C152.828 7.2745 152.673 7.1946 152.498 7.14134C152.325 7.08594 152.139 7.05824 151.939 7.05824C151.583 7.05824 151.267 7.14773 150.993 7.3267C150.718 7.50355 150.503 7.76349 150.347 8.10653C150.191 8.44744 150.114 8.86399 150.114 9.35618C150.114 9.85689 150.191 10.2788 150.347 10.6218C150.505 10.9627 150.72 11.2205 150.993 11.3952C151.267 11.5678 151.582 11.6541 151.935 11.6541C152.131 11.6541 152.315 11.6286 152.485 11.5774C152.658 11.5241 152.812 11.4464 152.949 11.3441C153.087 11.2418 153.203 11.1161 153.297 10.967C153.393 10.8178 153.459 10.6474 153.495 10.4556L154.69 10.462C154.646 10.7731 154.549 11.065 154.4 11.3377C154.253 11.6104 154.06 11.8512 153.821 12.06C153.582 12.2667 153.303 12.4286 152.984 12.5458C152.664 12.6609 152.309 12.7184 151.919 12.7184C151.344 12.7184 150.831 12.5852 150.379 12.3189C149.927 12.0526 149.571 11.668 149.312 11.1651C149.052 10.6623 148.922 10.0593 148.922 9.35618C148.922 8.65092 149.053 8.04794 149.315 7.54723C149.577 7.04439 149.934 6.6598 150.385 6.39347C150.837 6.12713 151.348 5.99396 151.919 5.99396C152.284 5.99396 152.623 6.0451 152.936 6.14737C153.249 6.24964 153.528 6.39986 153.773 6.59801C154.018 6.79403 154.22 7.0348 154.377 7.32031C154.537 7.60369 154.641 7.92756 154.69 8.2919Z" fill="#1AFB6F"/>
<path d="M160.882 9.35618C160.882 8.55717 160.988 7.82315 161.199 7.15412C161.412 6.48295 161.728 5.86293 162.148 5.29403H163.238C163.076 5.50497 162.924 5.76385 162.784 6.07067C162.643 6.37536 162.521 6.70987 162.416 7.07422C162.314 7.43643 162.233 7.8125 162.173 8.20241C162.116 8.59233 162.087 8.97692 162.087 9.35618C162.087 9.86115 162.137 10.3725 162.237 10.8903C162.339 11.408 162.477 11.8885 162.65 12.3317C162.824 12.7727 163.02 13.1339 163.238 13.4151H162.148C161.728 12.8462 161.412 12.2273 161.199 11.5582C160.988 10.8871 160.882 10.1531 160.882 9.35618ZM164.8 7.07741V6.08345H170.022V7.07741H167.999V12.6289H166.823V7.07741H164.8ZM177.488 9.35618C177.488 10.0614 177.356 10.6655 177.091 11.1683C176.829 11.669 176.471 12.0526 176.018 12.3189C175.566 12.5852 175.053 12.7184 174.48 12.7184C173.907 12.7184 173.394 12.5852 172.94 12.3189C172.488 12.0504 172.13 11.6658 171.866 11.1651C171.604 10.6623 171.473 10.0593 171.473 9.35618C171.473 8.65092 171.604 8.04794 171.866 7.54723C172.13 7.04439 172.488 6.6598 172.94 6.39347C173.394 6.12713 173.907 5.99396 174.48 5.99396C175.053 5.99396 175.566 6.12713 176.018 6.39347C176.471 6.6598 176.829 7.04439 177.091 7.54723C177.356 8.04794 177.488 8.65092 177.488 9.35618ZM176.296 9.35618C176.296 8.85973 176.218 8.44105 176.062 8.10014C175.909 7.7571 175.696 7.49822 175.423 7.32351C175.15 7.14666 174.836 7.05824 174.48 7.05824C174.124 7.05824 173.81 7.14666 173.537 7.32351C173.265 7.49822 173.051 7.7571 172.895 8.10014C172.742 8.44105 172.665 8.85973 172.665 9.35618C172.665 9.85263 172.742 10.2724 172.895 10.6154C173.051 10.9563 173.265 11.2152 173.537 11.392C173.81 11.5668 174.124 11.6541 174.48 11.6541C174.836 11.6541 175.15 11.5668 175.423 11.392C175.696 11.2152 175.909 10.9563 176.062 10.6154C176.218 10.2724 176.296 9.85263 176.296 9.35618ZM179.509 6.08345H180.96L182.903 10.8263H182.98L184.923 6.08345H186.374V12.6289H185.236V8.1321H185.175L183.366 12.6097H182.516L180.707 8.12251H180.646V12.6289H179.509V6.08345ZM194.414 9.35618C194.414 10.0614 194.282 10.6655 194.017 11.1683C193.755 11.669 193.397 12.0526 192.943 12.3189C192.492 12.5852 191.979 12.7184 191.406 12.7184C190.833 12.7184 190.32 12.5852 189.866 12.3189C189.414 12.0504 189.056 11.6658 188.792 11.1651C188.53 10.6623 188.399 10.0593 188.399 9.35618C188.399 8.65092 188.53 8.04794 188.792 7.54723C189.056 7.04439 189.414 6.6598 189.866 6.39347C190.32 6.12713 190.833 5.99396 191.406 5.99396C191.979 5.99396 192.492 6.12713 192.943 6.39347C193.397 6.6598 193.755 7.04439 194.017 7.54723C194.282 8.04794 194.414 8.65092 194.414 9.35618ZM193.222 9.35618C193.222 8.85973 193.144 8.44105 192.988 8.10014C192.835 7.7571 192.622 7.49822 192.349 7.32351C192.076 7.14666 191.762 7.05824 191.406 7.05824C191.05 7.05824 190.736 7.14666 190.463 7.32351C190.191 7.49822 189.977 7.7571 189.821 8.10014C189.668 8.44105 189.591 8.85973 189.591 9.35618C189.591 9.85263 189.668 10.2724 189.821 10.6154C189.977 10.9563 190.191 11.2152 190.463 11.392C190.736 11.5668 191.05 11.6541 191.406 11.6541C191.762 11.6541 192.076 11.5668 192.349 11.392C192.622 11.2152 192.835 10.9563 192.988 10.6154C193.144 10.2724 193.222 9.85263 193.222 9.35618ZM196.435 12.6289V6.08345H198.889C199.392 6.08345 199.814 6.17081 200.155 6.34553C200.498 6.52024 200.757 6.76527 200.931 7.08061C201.108 7.39382 201.197 7.75923 201.197 8.17685C201.197 8.59659 201.107 8.96094 200.928 9.26989C200.751 9.5767 200.49 9.81428 200.145 9.9826C199.8 10.1488 199.376 10.2319 198.873 10.2319H197.125V9.24751H198.713C199.007 9.24751 199.248 9.20703 199.436 9.12607C199.623 9.04297 199.762 8.92259 199.851 8.76491C199.943 8.60511 199.989 8.40909 199.989 8.17685C199.989 7.9446 199.943 7.74645 199.851 7.58239C199.76 7.41619 199.62 7.29048 199.433 7.20526C199.245 7.1179 199.003 7.07422 198.707 7.07422H197.62V12.6289H196.435ZM199.816 9.663L201.436 12.6289H200.113L198.522 9.663H199.816ZM203.188 12.6289V6.08345H205.643C206.146 6.08345 206.567 6.17081 206.908 6.34553C207.251 6.52024 207.51 6.76527 207.685 7.08061C207.862 7.39382 207.95 7.75923 207.95 8.17685C207.95 8.59659 207.861 8.96094 207.682 9.26989C207.505 9.5767 207.244 9.81428 206.899 9.9826C206.554 10.1488 206.13 10.2319 205.627 10.2319H203.879V9.24751H205.467C205.761 9.24751 206.002 9.20703 206.189 9.12607C206.377 9.04297 206.515 8.92259 206.605 8.76491C206.696 8.60511 206.742 8.40909 206.742 8.17685C206.742 7.9446 206.696 7.74645 206.605 7.58239C206.513 7.41619 206.374 7.29048 206.186 7.20526C205.999 7.1179 205.757 7.07422 205.461 7.07422H204.374V12.6289H203.188ZM206.57 9.663L208.19 12.6289H206.867L205.275 9.663H206.57ZM215.79 9.35618C215.79 10.0614 215.658 10.6655 215.394 11.1683C215.132 11.669 214.774 12.0526 214.32 12.3189C213.869 12.5852 213.356 12.7184 212.783 12.7184C212.21 12.7184 211.696 12.5852 211.242 12.3189C210.791 12.0504 210.433 11.6658 210.169 11.1651C209.907 10.6623 209.775 10.0593 209.775 9.35618C209.775 8.65092 209.907 8.04794 210.169 7.54723C210.433 7.04439 210.791 6.6598 211.242 6.39347C211.696 6.12713 212.21 5.99396 212.783 5.99396C213.356 5.99396 213.869 6.12713 214.32 6.39347C214.774 6.6598 215.132 7.04439 215.394 7.54723C215.658 8.04794 215.79 8.65092 215.79 9.35618ZM214.598 9.35618C214.598 8.85973 214.521 8.44105 214.365 8.10014C214.212 7.7571 213.999 7.49822 213.726 7.32351C213.453 7.14666 213.139 7.05824 212.783 7.05824C212.427 7.05824 212.113 7.14666 211.84 7.32351C211.567 7.49822 211.353 7.7571 211.198 8.10014C211.044 8.44105 210.968 8.85973 210.968 9.35618C210.968 9.85263 211.044 10.2724 211.198 10.6154C211.353 10.9563 211.567 11.2152 211.84 11.392C212.113 11.5668 212.427 11.6541 212.783 11.6541C213.139 11.6541 213.453 11.5668 213.726 11.392C213.999 11.2152 214.212 10.9563 214.365 10.6154C214.521 10.2724 214.598 9.85263 214.598 9.35618ZM219.022 12.6289L217.175 6.08345H218.45L219.629 10.8935H219.69L220.949 6.08345H222.109L223.372 10.8967H223.429L224.609 6.08345H225.884L224.036 12.6289H222.867L221.556 8.03622H221.505L220.192 12.6289H219.022ZM229.619 9.35618C229.619 10.1531 229.513 10.8871 229.3 11.5582C229.089 12.2273 228.774 12.8462 228.354 13.4151H227.264C227.428 13.2042 227.579 12.9464 227.718 12.6417C227.858 12.337 227.98 12.0025 228.082 11.6381C228.187 11.2738 228.268 10.8967 228.325 10.5067C228.385 10.1168 228.415 9.73331 228.415 9.35618C228.415 8.85121 228.363 8.33984 228.261 7.82209C228.161 7.30433 228.024 6.82386 227.849 6.38068C227.676 5.9375 227.481 5.57528 227.264 5.29403H228.354C228.774 5.86293 229.089 6.48295 229.3 7.15412C229.513 7.82315 229.619 8.55717 229.619 9.35618Z" fill="white"/>
<g clip-path="url(#clip0_12215_7760)">
<path d="M249.442 5.27273V14H247.861V5.27273H249.442ZM251.086 14V7.45455H252.56V8.56676H252.637C252.773 8.19176 252.999 7.89915 253.314 7.68892C253.63 7.47585 254.006 7.36932 254.444 7.36932C254.887 7.36932 255.26 7.47727 255.564 7.69318C255.871 7.90625 256.087 8.19744 256.212 8.56676H256.28C256.425 8.20312 256.669 7.91335 257.013 7.69744C257.36 7.47869 257.77 7.36932 258.245 7.36932C258.847 7.36932 259.338 7.55966 259.719 7.94034C260.1 8.32102 260.29 8.87642 260.29 9.60653V14H258.743V9.84517C258.743 9.43892 258.635 9.14205 258.419 8.95455C258.203 8.7642 257.939 8.66903 257.627 8.66903C257.255 8.66903 256.963 8.78551 256.753 9.01847C256.546 9.24858 256.442 9.5483 256.442 9.91761V14H254.929V9.78125C254.929 9.44318 254.827 9.1733 254.623 8.97159C254.421 8.76989 254.157 8.66903 253.83 8.66903C253.608 8.66903 253.407 8.72585 253.225 8.83949C253.043 8.95028 252.898 9.10795 252.79 9.3125C252.682 9.5142 252.628 9.75 252.628 10.0199V14H251.086ZM261.855 16.4545V7.45455H263.372V8.53693H263.462C263.541 8.37784 263.653 8.20881 263.798 8.02983C263.943 7.84801 264.139 7.69318 264.386 7.56534C264.634 7.43466 264.949 7.36932 265.332 7.36932C265.838 7.36932 266.294 7.49858 266.7 7.7571C267.109 8.01278 267.433 8.39205 267.672 8.89489C267.913 9.39489 268.034 10.0085 268.034 10.7358C268.034 11.4545 267.916 12.0653 267.68 12.5682C267.445 13.071 267.124 13.4545 266.717 13.7188C266.311 13.983 265.851 14.1151 265.337 14.1151C264.962 14.1151 264.651 14.0526 264.403 13.9276C264.156 13.8026 263.957 13.652 263.807 13.4759C263.659 13.2969 263.544 13.1278 263.462 12.9688H263.398V16.4545H261.855ZM263.368 10.7273C263.368 11.1506 263.428 11.5213 263.547 11.8395C263.669 12.1577 263.844 12.4062 264.071 12.5852C264.301 12.7614 264.58 12.8494 264.906 12.8494C265.247 12.8494 265.533 12.7585 265.763 12.5767C265.993 12.392 266.166 12.1406 266.283 11.8224C266.402 11.5014 266.462 11.1364 266.462 10.7273C266.462 10.321 266.403 9.96023 266.287 9.64489C266.17 9.32955 265.997 9.08239 265.767 8.90341C265.537 8.72443 265.25 8.63494 264.906 8.63494C264.577 8.63494 264.297 8.72159 264.067 8.89489C263.837 9.06818 263.662 9.31108 263.543 9.62358C263.426 9.93608 263.368 10.304 263.368 10.7273ZM270.898 5.27273V14H269.355V5.27273H270.898ZM275.382 14.1278C274.725 14.1278 274.159 13.9915 273.681 13.7188C273.207 13.4432 272.842 13.054 272.586 12.5511C272.331 12.0455 272.203 11.4503 272.203 10.7656C272.203 10.0923 272.331 9.50142 272.586 8.9929C272.845 8.48153 273.206 8.08381 273.669 7.79972C274.132 7.51278 274.676 7.36932 275.301 7.36932C275.704 7.36932 276.085 7.43466 276.443 7.56534C276.804 7.69318 277.122 7.89205 277.397 8.16193C277.676 8.43182 277.895 8.77557 278.054 9.19318C278.213 9.60795 278.292 10.1023 278.292 10.6761V11.1491H272.927V10.1094H276.814C276.811 9.81392 276.747 9.55114 276.622 9.32102C276.497 9.08807 276.322 8.90483 276.098 8.77131C275.876 8.63778 275.618 8.57102 275.322 8.57102C275.007 8.57102 274.73 8.64773 274.491 8.80114C274.252 8.9517 274.066 9.15057 273.933 9.39773C273.802 9.64205 273.735 9.91051 273.733 10.2031V11.1108C273.733 11.4915 273.802 11.8182 273.941 12.0909C274.081 12.3608 274.275 12.5682 274.525 12.7131C274.775 12.8551 275.068 12.9261 275.403 12.9261C275.627 12.9261 275.831 12.8949 276.012 12.8324C276.194 12.767 276.352 12.6719 276.485 12.5469C276.619 12.4219 276.72 12.267 276.788 12.0824L278.228 12.2443C278.137 12.625 277.964 12.9574 277.708 13.2415C277.456 13.5227 277.132 13.7415 276.737 13.8977C276.342 14.0511 275.89 14.1278 275.382 14.1278ZM279.597 14V7.45455H281.072V8.56676H281.148C281.285 8.19176 281.511 7.89915 281.826 7.68892C282.141 7.47585 282.518 7.36932 282.955 7.36932C283.398 7.36932 283.772 7.47727 284.076 7.69318C284.383 7.90625 284.599 8.19744 284.724 8.56676H284.792C284.937 8.20312 285.181 7.91335 285.525 7.69744C285.871 7.47869 286.282 7.36932 286.756 7.36932C287.359 7.36932 287.85 7.55966 288.231 7.94034C288.612 8.32102 288.802 8.87642 288.802 9.60653V14H287.255V9.84517C287.255 9.43892 287.147 9.14205 286.931 8.95455C286.715 8.7642 286.451 8.66903 286.138 8.66903C285.766 8.66903 285.475 8.78551 285.265 9.01847C285.058 9.24858 284.954 9.5483 284.954 9.91761V14H283.441V9.78125C283.441 9.44318 283.339 9.1733 283.134 8.97159C282.933 8.76989 282.668 8.66903 282.342 8.66903C282.12 8.66903 281.918 8.72585 281.737 8.83949C281.555 8.95028 281.41 9.10795 281.302 9.3125C281.194 9.5142 281.14 9.75 281.14 10.0199V14H279.597ZM293.265 14.1278C292.608 14.1278 292.042 13.9915 291.564 13.7188C291.09 13.4432 290.725 13.054 290.469 12.5511C290.213 12.0455 290.086 11.4503 290.086 10.7656C290.086 10.0923 290.213 9.50142 290.469 8.9929C290.728 8.48153 291.088 8.08381 291.551 7.79972C292.015 7.51278 292.559 7.36932 293.184 7.36932C293.587 7.36932 293.968 7.43466 294.326 7.56534C294.686 7.69318 295.005 7.89205 295.28 8.16193C295.559 8.43182 295.777 8.77557 295.936 9.19318C296.096 9.60795 296.175 10.1023 296.175 10.6761V11.1491H290.81V10.1094H294.696C294.694 9.81392 294.63 9.55114 294.505 9.32102C294.38 9.08807 294.205 8.90483 293.98 8.77131C293.759 8.63778 293.5 8.57102 293.205 8.57102C292.89 8.57102 292.613 8.64773 292.374 8.80114C292.135 8.9517 291.949 9.15057 291.816 9.39773C291.685 9.64205 291.618 9.91051 291.615 10.2031V11.1108C291.615 11.4915 291.685 11.8182 291.824 12.0909C291.963 12.3608 292.158 12.5682 292.408 12.7131C292.658 12.8551 292.951 12.9261 293.286 12.9261C293.51 12.9261 293.713 12.8949 293.895 12.8324C294.077 12.767 294.235 12.6719 294.368 12.5469C294.502 12.4219 294.603 12.267 294.671 12.0824L296.111 12.2443C296.02 12.625 295.847 12.9574 295.591 13.2415C295.338 13.5227 295.015 13.7415 294.62 13.8977C294.225 14.0511 293.773 14.1278 293.265 14.1278ZM299.023 10.1648V14H297.48V7.45455H298.955V8.56676H299.031C299.182 8.20028 299.422 7.90909 299.751 7.69318C300.084 7.47727 300.494 7.36932 300.983 7.36932C301.435 7.36932 301.828 7.46591 302.163 7.65909C302.501 7.85227 302.763 8.1321 302.947 8.49858C303.135 8.86506 303.227 9.30966 303.224 9.83239V14H301.682V10.071C301.682 9.63352 301.568 9.29119 301.341 9.04403C301.116 8.79687 300.805 8.6733 300.408 8.6733C300.138 8.6733 299.898 8.73295 299.688 8.85227C299.48 8.96875 299.317 9.13778 299.197 9.35938C299.081 9.58097 299.023 9.84943 299.023 10.1648ZM308.061 7.45455V8.64773H304.298V7.45455H308.061ZM305.227 5.88636H306.77V12.0312C306.77 12.2386 306.801 12.3977 306.864 12.5085C306.929 12.6165 307.014 12.6903 307.119 12.7301C307.224 12.7699 307.341 12.7898 307.469 12.7898C307.565 12.7898 307.653 12.7827 307.733 12.7685C307.815 12.7543 307.878 12.7415 307.92 12.7301L308.18 13.9361C308.098 13.9645 307.98 13.9957 307.827 14.0298C307.676 14.0639 307.491 14.0838 307.273 14.0895C306.886 14.1009 306.538 14.0426 306.229 13.9148C305.919 13.7841 305.673 13.5824 305.491 13.3097C305.313 13.0369 305.224 12.696 305.227 12.2869V5.88636ZM318.243 8.05966C318.172 7.82955 318.074 7.62358 317.949 7.44176C317.826 7.2571 317.679 7.09943 317.505 6.96875C317.335 6.83807 317.139 6.74006 316.917 6.67472C316.696 6.60653 316.454 6.57244 316.193 6.57244C315.724 6.57244 315.306 6.69034 314.94 6.92614C314.574 7.16193 314.285 7.50852 314.075 7.96591C313.868 8.42045 313.764 8.97443 313.764 9.62784C313.764 10.2869 313.868 10.8452 314.075 11.3026C314.282 11.7599 314.571 12.108 314.94 12.3466C315.309 12.5824 315.738 12.7003 316.227 12.7003C316.67 12.7003 317.054 12.6151 317.377 12.4446C317.704 12.2741 317.956 12.0327 318.132 11.7202C318.308 11.4048 318.396 11.0355 318.396 10.6122L318.754 10.6676H316.385V9.43182H319.926V10.4801C319.926 11.2273 319.767 11.8736 319.449 12.419C319.13 12.9645 318.693 13.3849 318.136 13.6804C317.579 13.973 316.94 14.1193 316.218 14.1193C315.414 14.1193 314.708 13.9389 314.1 13.5781C313.495 13.2145 313.022 12.6989 312.681 12.0312C312.343 11.3608 312.174 10.5653 312.174 9.64489C312.174 8.94034 312.274 8.31108 312.473 7.7571C312.674 7.20312 312.956 6.73295 313.316 6.34659C313.677 5.95739 314.1 5.66193 314.586 5.46023C315.072 5.25568 315.6 5.15341 316.172 5.15341C316.654 5.15341 317.105 5.22443 317.522 5.36648C317.94 5.50568 318.311 5.70455 318.635 5.96307C318.961 6.22159 319.23 6.52841 319.44 6.88352C319.65 7.23864 319.788 7.63068 319.853 8.05966H318.243ZM325.558 11.2472V7.45455H327.101V14H325.605V12.8366H325.537C325.389 13.2031 325.146 13.5028 324.808 13.7358C324.473 13.9687 324.06 14.0852 323.568 14.0852C323.139 14.0852 322.76 13.9901 322.43 13.7997C322.104 13.6065 321.848 13.3267 321.663 12.9602C321.479 12.5909 321.386 12.1449 321.386 11.6222V7.45455H322.929V11.3835C322.929 11.7983 323.043 12.1278 323.27 12.3722C323.497 12.6165 323.795 12.7386 324.165 12.7386C324.392 12.7386 324.612 12.6832 324.825 12.5724C325.038 12.4616 325.213 12.2969 325.349 12.0781C325.489 11.8565 325.558 11.5795 325.558 11.2472ZM330.571 14.1321C330.156 14.1321 329.782 14.0582 329.45 13.9105C329.12 13.7599 328.859 13.5384 328.666 13.2457C328.475 12.9531 328.38 12.5923 328.38 12.1634C328.38 11.794 328.449 11.4886 328.585 11.2472C328.721 11.0057 328.907 10.8125 329.143 10.6676C329.379 10.5227 329.645 10.4134 329.94 10.3395C330.238 10.2628 330.547 10.2074 330.865 10.1733C331.248 10.1335 331.559 10.098 331.798 10.0668C332.037 10.0327 332.21 9.98153 332.318 9.91335C332.429 9.84233 332.484 9.73295 332.484 9.58523V9.55966C332.484 9.23864 332.389 8.99006 332.199 8.81392C332.008 8.63778 331.734 8.54972 331.376 8.54972C330.998 8.54972 330.699 8.6321 330.477 8.79688C330.258 8.96165 330.11 9.15625 330.034 9.38068L328.593 9.17614C328.707 8.77841 328.895 8.44602 329.156 8.17898C329.417 7.90909 329.737 7.70739 330.115 7.57386C330.493 7.4375 330.91 7.36932 331.368 7.36932C331.683 7.36932 331.997 7.40625 332.309 7.48011C332.622 7.55398 332.907 7.67614 333.166 7.84659C333.424 8.0142 333.632 8.2429 333.788 8.53267C333.947 8.82244 334.027 9.18466 334.027 9.61932V14H332.544V13.1009H332.493C332.399 13.2827 332.267 13.4531 332.096 13.6122C331.929 13.7685 331.717 13.8949 331.461 13.9915C331.208 14.0852 330.912 14.1321 330.571 14.1321ZM330.971 12.9986C331.281 12.9986 331.549 12.9375 331.777 12.8153C332.004 12.6903 332.179 12.5256 332.301 12.321C332.426 12.1165 332.488 11.8935 332.488 11.652V10.8807C332.44 10.9205 332.358 10.9574 332.241 10.9915C332.127 11.0256 332 11.0554 331.858 11.081C331.716 11.1065 331.575 11.1293 331.436 11.1491C331.297 11.169 331.176 11.1861 331.074 11.2003C330.843 11.2315 330.637 11.2827 330.456 11.3537C330.274 11.4247 330.13 11.5241 330.025 11.652C329.92 11.777 329.868 11.9389 329.868 12.1378C329.868 12.4219 329.971 12.6364 330.179 12.7812C330.386 12.9261 330.65 12.9986 330.971 12.9986ZM335.578 14V7.45455H337.074V8.54545H337.142C337.261 8.16761 337.466 7.87642 337.755 7.67188C338.048 7.46449 338.382 7.3608 338.757 7.3608C338.842 7.3608 338.937 7.36506 339.042 7.37358C339.15 7.37926 339.24 7.3892 339.311 7.40341V8.82244C339.245 8.79972 339.142 8.77983 339 8.76278C338.86 8.7429 338.725 8.73295 338.595 8.73295C338.314 8.73295 338.061 8.79403 337.836 8.91619C337.615 9.03551 337.44 9.2017 337.312 9.41477C337.184 9.62784 337.12 9.87358 337.12 10.152V14H335.578ZM342.495 14.1151C341.981 14.1151 341.521 13.983 341.114 13.7188C340.708 13.4545 340.387 13.071 340.151 12.5682C339.915 12.0653 339.798 11.4545 339.798 10.7358C339.798 10.0085 339.917 9.39489 340.156 8.89489C340.397 8.39205 340.722 8.01278 341.131 7.7571C341.54 7.49858 341.996 7.36932 342.499 7.36932C342.883 7.36932 343.198 7.43466 343.445 7.56534C343.692 7.69318 343.888 7.84801 344.033 8.02983C344.178 8.20881 344.29 8.37784 344.37 8.53693H344.434V5.27273H345.981V14H344.464V12.9688H344.37C344.29 13.1278 344.175 13.2969 344.025 13.4759C343.874 13.652 343.675 13.8026 343.428 13.9276C343.181 14.0526 342.87 14.1151 342.495 14.1151ZM342.925 12.8494C343.252 12.8494 343.531 12.7614 343.761 12.5852C343.991 12.4062 344.165 12.1577 344.285 11.8395C344.404 11.5213 344.464 11.1506 344.464 10.7273C344.464 10.304 344.404 9.93608 344.285 9.62358C344.168 9.31108 343.995 9.06818 343.765 8.89489C343.538 8.72159 343.258 8.63494 342.925 8.63494C342.582 8.63494 342.295 8.72443 342.065 8.90341C341.835 9.08239 341.661 9.32955 341.545 9.64489C341.428 9.96023 341.37 10.321 341.37 10.7273C341.37 11.1364 341.428 11.5014 341.545 11.8224C341.664 12.1406 341.839 12.392 342.069 12.5767C342.302 12.7585 342.587 12.8494 342.925 12.8494ZM347.625 14V7.45455H349.12V8.54545H349.189C349.308 8.16761 349.512 7.87642 349.802 7.67188C350.095 7.46449 350.429 7.3608 350.804 7.3608C350.889 7.3608 350.984 7.36506 351.089 7.37358C351.197 7.37926 351.287 7.3892 351.358 7.40341V8.82244C351.292 8.79972 351.189 8.77983 351.047 8.76278C350.907 8.7429 350.772 8.73295 350.642 8.73295C350.36 8.73295 350.108 8.79403 349.883 8.91619C349.662 9.03551 349.487 9.2017 349.359 9.41477C349.231 9.62784 349.167 9.87358 349.167 10.152V14H347.625ZM354.149 14.1321C353.734 14.1321 353.36 14.0582 353.028 13.9105C352.699 13.7599 352.437 13.5384 352.244 13.2457C352.054 12.9531 351.958 12.5923 351.958 12.1634C351.958 11.794 352.027 11.4886 352.163 11.2472C352.299 11.0057 352.485 10.8125 352.721 10.6676C352.957 10.5227 353.223 10.4134 353.518 10.3395C353.816 10.2628 354.125 10.2074 354.443 10.1733C354.826 10.1335 355.137 10.098 355.376 10.0668C355.615 10.0327 355.788 9.98153 355.896 9.91335C356.007 9.84233 356.062 9.73295 356.062 9.58523V9.55966C356.062 9.23864 355.967 8.99006 355.777 8.81392C355.586 8.63778 355.312 8.54972 354.954 8.54972C354.576 8.54972 354.277 8.6321 354.055 8.79688C353.836 8.96165 353.689 9.15625 353.612 9.38068L352.172 9.17614C352.285 8.77841 352.473 8.44602 352.734 8.17898C352.995 7.90909 353.315 7.70739 353.693 7.57386C354.071 7.4375 354.488 7.36932 354.946 7.36932C355.261 7.36932 355.575 7.40625 355.887 7.48011C356.2 7.55398 356.485 7.67614 356.744 7.84659C357.002 8.0142 357.21 8.2429 357.366 8.53267C357.525 8.82244 357.605 9.18466 357.605 9.61932V14H356.122V13.1009H356.071C355.977 13.2827 355.845 13.4531 355.674 13.6122C355.507 13.7685 355.295 13.8949 355.039 13.9915C354.787 14.0852 354.49 14.1321 354.149 14.1321ZM354.549 12.9986C354.859 12.9986 355.127 12.9375 355.355 12.8153C355.582 12.6903 355.757 12.5256 355.879 12.321C356.004 12.1165 356.066 11.8935 356.066 11.652V10.8807C356.018 10.9205 355.936 10.9574 355.819 10.9915C355.706 11.0256 355.578 11.0554 355.436 11.081C355.294 11.1065 355.153 11.1293 355.014 11.1491C354.875 11.169 354.754 11.1861 354.652 11.2003C354.422 11.2315 354.216 11.2827 354.034 11.3537C353.852 11.4247 353.708 11.5241 353.603 11.652C353.498 11.777 353.446 11.9389 353.446 12.1378C353.446 12.4219 353.549 12.6364 353.757 12.7812C353.964 12.9261 354.228 12.9986 354.549 12.9986ZM359.156 14V7.45455H360.699V14H359.156ZM359.931 6.52557C359.687 6.52557 359.477 6.4446 359.301 6.28267C359.125 6.1179 359.037 5.92045 359.037 5.69034C359.037 5.45739 359.125 5.25994 359.301 5.09801C359.477 4.93324 359.687 4.85085 359.931 4.85085C360.179 4.85085 360.389 4.93324 360.562 5.09801C360.738 5.25994 360.826 5.45739 360.826 5.69034C360.826 5.92045 360.738 6.1179 360.562 6.28267C360.389 6.4446 360.179 6.52557 359.931 6.52557ZM363.827 5.27273V14H362.285V5.27273H363.827ZM370.587 9.18466L369.181 9.33807C369.141 9.19602 369.071 9.0625 368.972 8.9375C368.875 8.8125 368.745 8.71165 368.58 8.63494C368.415 8.55824 368.213 8.51989 367.975 8.51989C367.654 8.51989 367.384 8.58949 367.165 8.72869C366.949 8.8679 366.843 9.0483 366.846 9.26989C366.843 9.46023 366.912 9.61506 367.054 9.73438C367.199 9.85369 367.438 9.9517 367.77 10.0284L368.887 10.267C369.506 10.4006 369.966 10.6122 370.267 10.902C370.571 11.1918 370.725 11.571 370.728 12.0398C370.725 12.4517 370.604 12.8153 370.365 13.1307C370.13 13.4432 369.801 13.6875 369.381 13.8636C368.961 14.0398 368.478 14.1278 367.932 14.1278C367.131 14.1278 366.486 13.9602 365.998 13.625C365.509 13.2869 365.218 12.8168 365.124 12.2145L366.628 12.0696C366.696 12.3651 366.841 12.5881 367.063 12.7386C367.284 12.8892 367.573 12.9645 367.928 12.9645C368.294 12.9645 368.588 12.8892 368.81 12.7386C369.034 12.5881 369.147 12.402 369.147 12.1804C369.147 11.9929 369.074 11.8381 368.929 11.7159C368.787 11.5937 368.566 11.5 368.265 11.4347L367.148 11.2003C366.52 11.0696 366.056 10.8494 365.755 10.5398C365.453 10.2273 365.304 9.83239 365.307 9.35511C365.304 8.9517 365.414 8.60227 365.635 8.30682C365.86 8.00852 366.171 7.77841 366.569 7.61648C366.969 7.4517 367.431 7.36932 367.953 7.36932C368.721 7.36932 369.324 7.53267 369.765 7.85938C370.208 8.18608 370.482 8.62784 370.587 9.18466ZM374.976 14V7.45455H376.519V14H374.976ZM375.752 6.52557C375.507 6.52557 375.297 6.4446 375.121 6.28267C374.945 6.1179 374.857 5.92045 374.857 5.69034C374.857 5.45739 374.945 5.25994 375.121 5.09801C375.297 4.93324 375.507 4.85085 375.752 4.85085C375.999 4.85085 376.209 4.93324 376.382 5.09801C376.559 5.25994 376.647 5.45739 376.647 5.69034C376.647 5.92045 376.559 6.1179 376.382 6.28267C376.209 6.4446 375.999 6.52557 375.752 6.52557ZM379.648 10.1648V14H378.105V7.45455H379.58V8.56676H379.656C379.807 8.20028 380.047 7.90909 380.376 7.69318C380.709 7.47727 381.119 7.36932 381.608 7.36932C382.06 7.36932 382.453 7.46591 382.788 7.65909C383.126 7.85227 383.388 8.1321 383.572 8.49858C383.76 8.86506 383.852 9.30966 383.849 9.83239V14H382.307V10.071C382.307 9.63352 382.193 9.29119 381.966 9.04403C381.741 8.79687 381.43 8.6733 381.033 8.6733C380.763 8.6733 380.523 8.73295 380.312 8.85227C380.105 8.96875 379.942 9.13778 379.822 9.35938C379.706 9.58097 379.648 9.84943 379.648 10.1648ZM388.462 5.27273H390.397L392.988 11.5966H393.09L395.681 5.27273H397.616V14H396.099V8.00426H396.018L393.606 13.9744H392.472L390.06 7.99148H389.979V14H388.462V5.27273ZM401.153 14.1321C400.738 14.1321 400.364 14.0582 400.032 13.9105C399.702 13.7599 399.441 13.5384 399.248 13.2457C399.058 12.9531 398.962 12.5923 398.962 12.1634C398.962 11.794 399.031 11.4886 399.167 11.2472C399.303 11.0057 399.489 10.8125 399.725 10.6676C399.961 10.5227 400.227 10.4134 400.522 10.3395C400.82 10.2628 401.129 10.2074 401.447 10.1733C401.83 10.1335 402.141 10.098 402.38 10.0668C402.619 10.0327 402.792 9.98153 402.9 9.91335C403.011 9.84233 403.066 9.73295 403.066 9.58523V9.55966C403.066 9.23864 402.971 8.99006 402.781 8.81392C402.59 8.63778 402.316 8.54972 401.958 8.54972C401.58 8.54972 401.281 8.6321 401.059 8.79688C400.84 8.96165 400.692 9.15625 400.616 9.38068L399.175 9.17614C399.289 8.77841 399.477 8.44602 399.738 8.17898C399.999 7.90909 400.319 7.70739 400.697 7.57386C401.075 7.4375 401.492 7.36932 401.95 7.36932C402.265 7.36932 402.579 7.40625 402.891 7.48011C403.204 7.55398 403.489 7.67614 403.748 7.84659C404.006 8.0142 404.214 8.2429 404.37 8.53267C404.529 8.82244 404.609 9.18466 404.609 9.61932V14H403.126V13.1009H403.075C402.981 13.2827 402.849 13.4531 402.678 13.6122C402.511 13.7685 402.299 13.8949 402.043 13.9915C401.79 14.0852 401.494 14.1321 401.153 14.1321ZM401.553 12.9986C401.863 12.9986 402.131 12.9375 402.359 12.8153C402.586 12.6903 402.761 12.5256 402.883 12.321C403.008 12.1165 403.07 11.8935 403.07 11.652V10.8807C403.022 10.9205 402.94 10.9574 402.823 10.9915C402.71 11.0256 402.582 11.0554 402.44 11.081C402.298 11.1065 402.157 11.1293 402.018 11.1491C401.879 11.169 401.758 11.1861 401.656 11.2003C401.425 11.2315 401.219 11.2827 401.038 11.3537C400.856 11.4247 400.712 11.5241 400.607 11.652C400.502 11.777 400.45 11.9389 400.45 12.1378C400.45 12.4219 400.553 12.6364 400.761 12.7812C400.968 12.9261 401.232 12.9986 401.553 12.9986ZM411.333 9.18466L409.927 9.33807C409.887 9.19602 409.817 9.0625 409.718 8.9375C409.621 8.8125 409.491 8.71165 409.326 8.63494C409.161 8.55824 408.96 8.51989 408.721 8.51989C408.4 8.51989 408.13 8.58949 407.911 8.72869C407.695 8.8679 407.589 9.0483 407.592 9.26989C407.589 9.46023 407.658 9.61506 407.8 9.73438C407.945 9.85369 408.184 9.9517 408.516 10.0284L409.633 10.267C410.252 10.4006 410.712 10.6122 411.013 10.902C411.317 11.1918 411.471 11.571 411.474 12.0398C411.471 12.4517 411.35 12.8153 411.112 13.1307C410.876 13.4432 410.548 13.6875 410.127 13.8636C409.707 14.0398 409.224 14.1278 408.678 14.1278C407.877 14.1278 407.232 13.9602 406.744 13.625C406.255 13.2869 405.964 12.8168 405.87 12.2145L407.374 12.0696C407.442 12.3651 407.587 12.5881 407.809 12.7386C408.031 12.8892 408.319 12.9645 408.674 12.9645C409.04 12.9645 409.335 12.8892 409.556 12.7386C409.781 12.5881 409.893 12.402 409.893 12.1804C409.893 11.9929 409.82 11.8381 409.675 11.7159C409.533 11.5937 409.312 11.5 409.011 11.4347L407.894 11.2003C407.266 11.0696 406.802 10.8494 406.501 10.5398C406.2 10.2273 406.05 9.83239 406.053 9.35511C406.05 8.9517 406.16 8.60227 406.381 8.30682C406.606 8.00852 406.917 7.77841 407.315 7.61648C407.715 7.4517 408.177 7.36932 408.7 7.36932C409.467 7.36932 410.07 7.53267 410.511 7.85938C410.954 8.18608 411.228 8.62784 411.333 9.18466ZM416.014 7.45455V8.64773H412.251V7.45455H416.014ZM413.18 5.88636H414.723V12.0312C414.723 12.2386 414.754 12.3977 414.817 12.5085C414.882 12.6165 414.967 12.6903 415.072 12.7301C415.178 12.7699 415.294 12.7898 415.422 12.7898C415.518 12.7898 415.607 12.7827 415.686 12.7685C415.768 12.7543 415.831 12.7415 415.874 12.7301L416.134 13.9361C416.051 13.9645 415.933 13.9957 415.78 14.0298C415.629 14.0639 415.445 14.0838 415.226 14.0895C414.839 14.1009 414.491 14.0426 414.182 13.9148C413.872 13.7841 413.626 13.5824 413.445 13.3097C413.266 13.0369 413.178 12.696 413.18 12.2869V5.88636ZM417.304 14V7.45455H418.8V8.54545H418.868C418.988 8.16761 419.192 7.87642 419.482 7.67188C419.775 7.46449 420.108 7.3608 420.483 7.3608C420.569 7.3608 420.664 7.36506 420.769 7.37358C420.877 7.37926 420.966 7.3892 421.037 7.40341V8.82244C420.972 8.79972 420.868 8.77983 420.726 8.76278C420.587 8.7429 420.452 8.73295 420.321 8.73295C420.04 8.73295 419.787 8.79403 419.563 8.91619C419.341 9.03551 419.167 9.2017 419.039 9.41477C418.911 9.62784 418.847 9.87358 418.847 10.152V14H417.304ZM423.828 14.1321C423.414 14.1321 423.04 14.0582 422.708 13.9105C422.378 13.7599 422.117 13.5384 421.924 13.2457C421.733 12.9531 421.638 12.5923 421.638 12.1634C421.638 11.794 421.706 11.4886 421.843 11.2472C421.979 11.0057 422.165 10.8125 422.401 10.6676C422.637 10.5227 422.902 10.4134 423.198 10.3395C423.496 10.2628 423.804 10.2074 424.123 10.1733C424.506 10.1335 424.817 10.098 425.056 10.0668C425.294 10.0327 425.468 9.98153 425.576 9.91335C425.686 9.84233 425.742 9.73295 425.742 9.58523V9.55966C425.742 9.23864 425.647 8.99006 425.456 8.81392C425.266 8.63778 424.992 8.54972 424.634 8.54972C424.256 8.54972 423.956 8.6321 423.735 8.79688C423.516 8.96165 423.368 9.15625 423.292 9.38068L421.851 9.17614C421.965 8.77841 422.152 8.44602 422.414 8.17898C422.675 7.90909 422.995 7.70739 423.373 7.57386C423.75 7.4375 424.168 7.36932 424.625 7.36932C424.941 7.36932 425.255 7.40625 425.567 7.48011C425.88 7.55398 426.165 7.67614 426.424 7.84659C426.682 8.0142 426.89 8.2429 427.046 8.53267C427.205 8.82244 427.284 9.18466 427.284 9.61932V14H425.801V13.1009H425.75C425.657 13.2827 425.525 13.4531 425.354 13.6122C425.186 13.7685 424.975 13.8949 424.719 13.9915C424.466 14.0852 424.169 14.1321 423.828 14.1321ZM424.229 12.9986C424.539 12.9986 424.807 12.9375 425.034 12.8153C425.262 12.6903 425.436 12.5256 425.559 12.321C425.684 12.1165 425.746 11.8935 425.746 11.652V10.8807C425.698 10.9205 425.615 10.9574 425.499 10.9915C425.385 11.0256 425.257 11.0554 425.115 11.081C424.973 11.1065 424.833 11.1293 424.694 11.1491C424.554 11.169 424.434 11.1861 424.331 11.2003C424.101 11.2315 423.895 11.2827 423.713 11.3537C423.532 11.4247 423.388 11.5241 423.283 11.652C423.178 11.777 423.125 11.9389 423.125 12.1378C423.125 12.4219 423.229 12.6364 423.436 12.7812C423.644 12.9261 423.908 12.9986 424.229 12.9986ZM429.786 14.0938C429.527 14.0938 429.306 14.0028 429.121 13.821C428.936 13.6392 428.846 13.4176 428.848 13.1562C428.846 12.9006 428.936 12.6818 429.121 12.5C429.306 12.3182 429.527 12.2273 429.786 12.2273C430.036 12.2273 430.253 12.3182 430.438 12.5C430.625 12.6818 430.721 12.9006 430.723 13.1562C430.721 13.3295 430.675 13.4872 430.587 13.6293C430.502 13.7713 430.388 13.8849 430.246 13.9702C430.107 14.0526 429.953 14.0938 429.786 14.0938ZM429.786 9.4233C429.527 9.4233 429.306 9.33239 429.121 9.15057C428.936 8.96591 428.846 8.74432 428.848 8.4858C428.846 8.23011 428.936 8.01136 429.121 7.82955C429.306 7.64489 429.527 7.55256 429.786 7.55256C430.036 7.55256 430.253 7.64489 430.438 7.82955C430.625 8.01136 430.721 8.23011 430.723 8.4858C430.721 8.65625 430.675 8.8125 430.587 8.95455C430.502 9.09659 430.388 9.21023 430.246 9.29545C430.107 9.38068 429.953 9.4233 429.786 9.4233ZM435.361 14V5.27273H438.702C439.332 5.27273 439.857 5.37216 440.274 5.57102C440.695 5.76705 441.009 6.03551 441.216 6.37642C441.426 6.71733 441.531 7.10369 441.531 7.53551C441.531 7.89062 441.463 8.1946 441.327 8.44744C441.19 8.69744 441.007 8.90057 440.777 9.05682C440.547 9.21307 440.29 9.32528 440.006 9.39347V9.47869C440.315 9.49574 440.612 9.59091 440.896 9.7642C441.183 9.93466 441.418 10.1761 441.599 10.4886C441.781 10.8011 441.872 11.179 441.872 11.6222C441.872 12.0739 441.763 12.4801 441.544 12.8409C441.325 13.1989 440.996 13.4815 440.555 13.6889C440.115 13.8963 439.561 14 438.893 14H435.361ZM436.942 12.679H438.642C439.216 12.679 439.629 12.5696 439.882 12.3509C440.138 12.1293 440.266 11.8452 440.266 11.4986C440.266 11.2401 440.202 11.0071 440.074 10.7997C439.946 10.5895 439.764 10.4247 439.528 10.3054C439.293 10.1832 439.011 10.1222 438.685 10.1222H436.942V12.679ZM436.942 8.98438H438.506C438.778 8.98438 439.024 8.93466 439.243 8.83523C439.462 8.73295 439.634 8.58949 439.759 8.40483C439.886 8.21733 439.95 7.99574 439.95 7.74006C439.95 7.40199 439.831 7.12358 439.592 6.90483C439.357 6.68608 439.006 6.5767 438.54 6.5767H436.942V8.98438ZM447.351 11.2472V7.45455H448.894V14H447.398V12.8366H447.33C447.182 13.2031 446.939 13.5028 446.601 13.7358C446.266 13.9687 445.853 14.0852 445.361 14.0852C444.932 14.0852 444.553 13.9901 444.223 13.7997C443.897 13.6065 443.641 13.3267 443.456 12.9602C443.272 12.5909 443.179 12.1449 443.179 11.6222V7.45455H444.722V11.3835C444.722 11.7983 444.836 12.1278 445.063 12.3722C445.29 12.6165 445.588 12.7386 445.958 12.7386C446.185 12.7386 446.405 12.6832 446.618 12.5724C446.831 12.4616 447.006 12.2969 447.142 12.0781C447.282 11.8565 447.351 11.5795 447.351 11.2472ZM450.48 14V7.45455H452.023V14H450.48ZM451.256 6.52557C451.011 6.52557 450.801 6.4446 450.625 6.28267C450.449 6.1179 450.361 5.92045 450.361 5.69034C450.361 5.45739 450.449 5.25994 450.625 5.09801C450.801 4.93324 451.011 4.85085 451.256 4.85085C451.503 4.85085 451.713 4.93324 451.886 5.09801C452.063 5.25994 452.151 5.45739 452.151 5.69034C452.151 5.92045 452.063 6.1179 451.886 6.28267C451.713 6.4446 451.503 6.52557 451.256 6.52557ZM455.152 5.27273V14H453.609V5.27273H455.152ZM459.167 14.1151C458.653 14.1151 458.192 13.983 457.786 13.7188C457.38 13.4545 457.059 13.071 456.823 12.5682C456.587 12.0653 456.469 11.4545 456.469 10.7358C456.469 10.0085 456.589 9.39489 456.827 8.89489C457.069 8.39205 457.394 8.01278 457.803 7.7571C458.212 7.49858 458.668 7.36932 459.171 7.36932C459.555 7.36932 459.87 7.43466 460.117 7.56534C460.364 7.69318 460.56 7.84801 460.705 8.02983C460.85 8.20881 460.962 8.37784 461.042 8.53693H461.106V5.27273H462.653V14H461.136V12.9688H461.042C460.962 13.1278 460.847 13.2969 460.697 13.4759C460.546 13.652 460.347 13.8026 460.1 13.9276C459.853 14.0526 459.542 14.1151 459.167 14.1151ZM459.597 12.8494C459.924 12.8494 460.202 12.7614 460.433 12.5852C460.663 12.4062 460.837 12.1577 460.957 11.8395C461.076 11.5213 461.136 11.1506 461.136 10.7273C461.136 10.304 461.076 9.93608 460.957 9.62358C460.84 9.31108 460.667 9.06818 460.437 8.89489C460.21 8.72159 459.93 8.63494 459.597 8.63494C459.254 8.63494 458.967 8.72443 458.737 8.90341C458.506 9.08239 458.333 9.32955 458.217 9.64489C458.1 9.96023 458.042 10.321 458.042 10.7273C458.042 11.1364 458.1 11.5014 458.217 11.8224C458.336 12.1406 458.511 12.392 458.741 12.5767C458.974 12.7585 459.259 12.8494 459.597 12.8494ZM472.084 7.67188C472.044 7.29972 471.877 7.00994 471.581 6.80256C471.289 6.59517 470.908 6.49148 470.439 6.49148C470.11 6.49148 469.827 6.54119 469.591 6.64062C469.355 6.74006 469.175 6.875 469.05 7.04545C468.925 7.21591 468.861 7.41051 468.858 7.62926C468.858 7.81108 468.9 7.96875 468.982 8.10227C469.067 8.2358 469.182 8.34943 469.327 8.44318C469.472 8.53409 469.632 8.6108 469.809 8.6733C469.985 8.7358 470.162 8.78835 470.341 8.83097L471.159 9.03551C471.489 9.11222 471.806 9.21591 472.11 9.34659C472.417 9.47727 472.691 9.64205 472.932 9.84091C473.176 10.0398 473.37 10.2798 473.512 10.5611C473.654 10.8423 473.725 11.1719 473.725 11.5497C473.725 12.0611 473.594 12.5114 473.333 12.9006C473.071 13.2869 472.694 13.5895 472.199 13.8082C471.708 14.0241 471.113 14.1321 470.414 14.1321C469.735 14.1321 469.145 14.027 468.645 13.8168C468.148 13.6065 467.759 13.2997 467.478 12.8963C467.199 12.4929 467.049 12.0014 467.026 11.4219H468.581C468.604 11.7259 468.698 11.9787 468.863 12.1804C469.027 12.3821 469.242 12.5327 469.506 12.6321C469.773 12.7315 470.071 12.7812 470.401 12.7812C470.745 12.7812 471.046 12.7301 471.304 12.6278C471.566 12.5227 471.77 12.3778 471.918 12.1932C472.066 12.0057 472.141 11.7869 472.144 11.5369C472.141 11.3097 472.074 11.1222 471.944 10.9744C471.813 10.8239 471.63 10.6989 471.394 10.5994C471.161 10.4972 470.888 10.4062 470.576 10.3267L469.583 10.071C468.864 9.88636 468.296 9.60653 467.878 9.23153C467.463 8.85369 467.256 8.35227 467.256 7.72727C467.256 7.21307 467.395 6.76278 467.674 6.37642C467.955 5.99006 468.337 5.69034 468.82 5.47727C469.303 5.26136 469.85 5.15341 470.461 5.15341C471.08 5.15341 471.623 5.26136 472.088 5.47727C472.557 5.69034 472.925 5.98722 473.192 6.3679C473.459 6.74574 473.597 7.1804 473.605 7.67188H472.084ZM476.95 14.1321C476.535 14.1321 476.161 14.0582 475.829 13.9105C475.499 13.7599 475.238 13.5384 475.045 13.2457C474.854 12.9531 474.759 12.5923 474.759 12.1634C474.759 11.794 474.827 11.4886 474.964 11.2472C475.1 11.0057 475.286 10.8125 475.522 10.6676C475.758 10.5227 476.023 10.4134 476.319 10.3395C476.617 10.2628 476.925 10.2074 477.244 10.1733C477.627 10.1335 477.938 10.098 478.177 10.0668C478.415 10.0327 478.589 9.98153 478.697 9.91335C478.808 9.84233 478.863 9.73295 478.863 9.58523V9.55966C478.863 9.23864 478.768 8.99006 478.577 8.81392C478.387 8.63778 478.113 8.54972 477.755 8.54972C477.377 8.54972 477.077 8.6321 476.856 8.79688C476.637 8.96165 476.489 9.15625 476.413 9.38068L474.972 9.17614C475.086 8.77841 475.273 8.44602 475.535 8.17898C475.796 7.90909 476.116 7.70739 476.494 7.57386C476.871 7.4375 477.289 7.36932 477.746 7.36932C478.062 7.36932 478.376 7.40625 478.688 7.48011C479.001 7.55398 479.286 7.67614 479.545 7.84659C479.803 8.0142 480.011 8.2429 480.167 8.53267C480.326 8.82244 480.406 9.18466 480.406 9.61932V14H478.923V13.1009H478.871C478.778 13.2827 478.646 13.4531 478.475 13.6122C478.308 13.7685 478.096 13.8949 477.84 13.9915C477.587 14.0852 477.29 14.1321 476.95 14.1321ZM477.35 12.9986C477.66 12.9986 477.928 12.9375 478.156 12.8153C478.383 12.6903 478.558 12.5256 478.68 12.321C478.805 12.1165 478.867 11.8935 478.867 11.652V10.8807C478.819 10.9205 478.737 10.9574 478.62 10.9915C478.506 11.0256 478.379 11.0554 478.237 11.081C478.094 11.1065 477.954 11.1293 477.815 11.1491C477.675 11.169 477.555 11.1861 477.452 11.2003C477.222 11.2315 477.016 11.2827 476.835 11.3537C476.653 11.4247 476.509 11.5241 476.404 11.652C476.299 11.777 476.246 11.9389 476.246 12.1378C476.246 12.4219 476.35 12.6364 476.558 12.7812C476.765 12.9261 477.029 12.9986 477.35 12.9986ZM485.272 7.45455V8.64773H481.403V7.45455H485.272ZM482.37 14V6.83665C482.37 6.39631 482.461 6.02983 482.643 5.73722C482.827 5.4446 483.075 5.22585 483.384 5.08097C483.694 4.93608 484.038 4.86364 484.415 4.86364C484.683 4.86364 484.92 4.88494 485.127 4.92756C485.335 4.97017 485.488 5.00852 485.587 5.04261L485.281 6.2358C485.215 6.21591 485.133 6.19602 485.033 6.17614C484.934 6.15341 484.823 6.14205 484.701 6.14205C484.414 6.14205 484.211 6.21165 484.092 6.35085C483.975 6.48722 483.917 6.68324 483.917 6.93892V14H482.37ZM489.132 14.1278C488.475 14.1278 487.909 13.9915 487.431 13.7188C486.957 13.4432 486.592 13.054 486.336 12.5511C486.081 12.0455 485.953 11.4503 485.953 10.7656C485.953 10.0923 486.081 9.50142 486.336 8.9929C486.595 8.48153 486.956 8.08381 487.419 7.79972C487.882 7.51278 488.426 7.36932 489.051 7.36932C489.454 7.36932 489.835 7.43466 490.193 7.56534C490.554 7.69318 490.872 7.89205 491.147 8.16193C491.426 8.43182 491.645 8.77557 491.804 9.19318C491.963 9.60795 492.042 10.1023 492.042 10.6761V11.1491H486.677V10.1094H490.564C490.561 9.81392 490.497 9.55114 490.372 9.32102C490.247 9.08807 490.072 8.90483 489.848 8.77131C489.626 8.63778 489.368 8.57102 489.072 8.57102C488.757 8.57102 488.48 8.64773 488.241 8.80114C488.002 8.9517 487.816 9.15057 487.683 9.39773C487.552 9.64205 487.485 9.91051 487.483 10.2031V11.1108C487.483 11.4915 487.552 11.8182 487.691 12.0909C487.831 12.3608 488.025 12.5682 488.275 12.7131C488.525 12.8551 488.818 12.9261 489.153 12.9261C489.377 12.9261 489.581 12.8949 489.762 12.8324C489.944 12.767 490.102 12.6719 490.235 12.5469C490.369 12.4219 490.47 12.267 490.538 12.0824L491.978 12.2443C491.887 12.625 491.714 12.9574 491.458 13.2415C491.206 13.5227 490.882 13.7415 490.487 13.8977C490.092 14.0511 489.64 14.1278 489.132 14.1278ZM493.347 14V7.45455H494.843V8.54545H494.911C495.031 8.16761 495.235 7.87642 495.525 7.67188C495.817 7.46449 496.151 7.3608 496.526 7.3608C496.612 7.3608 496.707 7.36506 496.812 7.37358C496.92 7.37926 497.009 7.3892 497.08 7.40341V8.82244C497.015 8.79972 496.911 8.77983 496.769 8.76278C496.63 8.7429 496.495 8.73295 496.364 8.73295C496.083 8.73295 495.83 8.79403 495.606 8.91619C495.384 9.03551 495.21 9.2017 495.082 9.41477C494.954 9.62784 494.89 9.87358 494.89 10.152V14H493.347ZM499.166 12.8068L499.111 13.2756C499.071 13.6335 499 13.9972 498.898 14.3665C498.798 14.7386 498.693 15.081 498.582 15.3935C498.472 15.706 498.382 15.9517 498.314 16.1307H497.274C497.314 15.9574 497.368 15.7216 497.436 15.4233C497.507 15.125 497.575 14.7898 497.641 14.4176C497.706 14.0455 497.75 13.6676 497.773 13.2841L497.803 12.8068H499.166ZM508.412 7.67188C508.373 7.29972 508.205 7.00994 507.909 6.80256C507.617 6.59517 507.236 6.49148 506.767 6.49148C506.438 6.49148 506.155 6.54119 505.919 6.64062C505.684 6.74006 505.503 6.875 505.378 7.04545C505.253 7.21591 505.189 7.41051 505.186 7.62926C505.186 7.81108 505.228 7.96875 505.31 8.10227C505.395 8.2358 505.51 8.34943 505.655 8.44318C505.8 8.53409 505.961 8.6108 506.137 8.6733C506.313 8.7358 506.49 8.78835 506.669 8.83097L507.488 9.03551C507.817 9.11222 508.134 9.21591 508.438 9.34659C508.745 9.47727 509.019 9.64205 509.26 9.84091C509.505 10.0398 509.698 10.2798 509.84 10.5611C509.982 10.8423 510.053 11.1719 510.053 11.5497C510.053 12.0611 509.922 12.5114 509.661 12.9006C509.4 13.2869 509.022 13.5895 508.527 13.8082C508.036 14.0241 507.441 14.1321 506.742 14.1321C506.063 14.1321 505.473 14.027 504.973 13.8168C504.476 13.6065 504.087 13.2997 503.806 12.8963C503.527 12.4929 503.377 12.0014 503.354 11.4219H504.909C504.932 11.7259 505.026 11.9787 505.191 12.1804C505.355 12.3821 505.57 12.5327 505.834 12.6321C506.101 12.7315 506.4 12.7812 506.729 12.7812C507.073 12.7812 507.374 12.7301 507.632 12.6278C507.894 12.5227 508.098 12.3778 508.246 12.1932C508.394 12.0057 508.469 11.7869 508.472 11.5369C508.469 11.3097 508.402 11.1222 508.272 10.9744C508.141 10.8239 507.958 10.6989 507.722 10.5994C507.489 10.4972 507.216 10.4062 506.904 10.3267L505.911 10.071C505.192 9.88636 504.624 9.60653 504.206 9.23153C503.792 8.85369 503.584 8.35227 503.584 7.72727C503.584 7.21307 503.723 6.76278 504.002 6.37642C504.283 5.99006 504.665 5.69034 505.148 5.47727C505.631 5.26136 506.178 5.15341 506.789 5.15341C507.408 5.15341 507.951 5.26136 508.417 5.47727C508.885 5.69034 509.253 5.98722 509.52 6.3679C509.787 6.74574 509.925 7.1804 509.934 7.67188H508.412ZM511.394 14V7.45455H512.869V8.56676H512.945C513.082 8.19176 513.308 7.89915 513.623 7.68892C513.938 7.47585 514.315 7.36932 514.752 7.36932C515.195 7.36932 515.569 7.47727 515.873 7.69318C516.18 7.90625 516.396 8.19744 516.521 8.56676H516.589C516.734 8.20312 516.978 7.91335 517.322 7.69744C517.668 7.47869 518.079 7.36932 518.553 7.36932C519.156 7.36932 519.647 7.55966 520.028 7.94034C520.408 8.32102 520.599 8.87642 520.599 9.60653V14H519.052V9.84517C519.052 9.43892 518.944 9.14205 518.728 8.95455C518.512 8.7642 518.248 8.66903 517.935 8.66903C517.563 8.66903 517.272 8.78551 517.062 9.01847C516.854 9.24858 516.751 9.5483 516.751 9.91761V14H515.238V9.78125C515.238 9.44318 515.136 9.1733 514.931 8.97159C514.729 8.76989 514.465 8.66903 514.138 8.66903C513.917 8.66903 513.715 8.72585 513.533 8.83949C513.352 8.95028 513.207 9.10795 513.099 9.3125C512.991 9.5142 512.937 9.75 512.937 10.0199V14H511.394ZM524.047 14.1321C523.632 14.1321 523.259 14.0582 522.926 13.9105C522.597 13.7599 522.336 13.5384 522.142 13.2457C521.952 12.9531 521.857 12.5923 521.857 12.1634C521.857 11.794 521.925 11.4886 522.061 11.2472C522.198 11.0057 522.384 10.8125 522.62 10.6676C522.855 10.5227 523.121 10.4134 523.417 10.3395C523.715 10.2628 524.023 10.2074 524.341 10.1733C524.725 10.1335 525.036 10.098 525.275 10.0668C525.513 10.0327 525.686 9.98153 525.794 9.91335C525.905 9.84233 525.961 9.73295 525.961 9.58523V9.55966C525.961 9.23864 525.865 8.99006 525.675 8.81392C525.485 8.63778 525.211 8.54972 524.853 8.54972C524.475 8.54972 524.175 8.6321 523.953 8.79688C523.735 8.96165 523.587 9.15625 523.51 9.38068L522.07 9.17614C522.184 8.77841 522.371 8.44602 522.632 8.17898C522.894 7.90909 523.213 7.70739 523.591 7.57386C523.969 7.4375 524.387 7.36932 524.844 7.36932C525.159 7.36932 525.473 7.40625 525.786 7.48011C526.098 7.55398 526.384 7.67614 526.642 7.84659C526.901 8.0142 527.108 8.2429 527.265 8.53267C527.424 8.82244 527.503 9.18466 527.503 9.61932V14H526.02V13.1009H525.969C525.875 13.2827 525.743 13.4531 525.573 13.6122C525.405 13.7685 525.194 13.8949 524.938 13.9915C524.685 14.0852 524.388 14.1321 524.047 14.1321ZM524.448 12.9986C524.757 12.9986 525.026 12.9375 525.253 12.8153C525.48 12.6903 525.655 12.5256 525.777 12.321C525.902 12.1165 525.965 11.8935 525.965 11.652V10.8807C525.917 10.9205 525.834 10.9574 525.718 10.9915C525.604 11.0256 525.476 11.0554 525.334 11.081C525.192 11.1065 525.051 11.1293 524.912 11.1491C524.773 11.169 524.652 11.1861 524.55 11.2003C524.32 11.2315 524.114 11.2827 523.932 11.3537C523.75 11.4247 523.607 11.5241 523.502 11.652C523.397 11.777 523.344 11.9389 523.344 12.1378C523.344 12.4219 523.448 12.6364 523.655 12.7812C523.863 12.9261 524.127 12.9986 524.448 12.9986ZM529.054 14V7.45455H530.55V8.54545H530.618C530.738 8.16761 530.942 7.87642 531.232 7.67188C531.525 7.46449 531.858 7.3608 532.233 7.3608C532.319 7.3608 532.414 7.36506 532.519 7.37358C532.627 7.37926 532.716 7.3892 532.787 7.40341V8.82244C532.722 8.79972 532.618 8.77983 532.476 8.76278C532.337 8.7429 532.202 8.73295 532.071 8.73295C531.79 8.73295 531.537 8.79403 531.313 8.91619C531.091 9.03551 530.917 9.2017 530.789 9.41477C530.661 9.62784 530.597 9.87358 530.597 10.152V14H529.054ZM537.432 7.45455V8.64773H533.669V7.45455H537.432ZM534.598 5.88636H536.141V12.0312C536.141 12.2386 536.172 12.3977 536.235 12.5085C536.3 12.6165 536.385 12.6903 536.49 12.7301C536.596 12.7699 536.712 12.7898 536.84 12.7898C536.936 12.7898 537.025 12.7827 537.104 12.7685C537.186 12.7543 537.249 12.7415 537.292 12.7301L537.551 13.9361C537.469 13.9645 537.351 13.9957 537.198 14.0298C537.047 14.0639 536.863 14.0838 536.644 14.0895C536.257 14.1009 535.909 14.0426 535.6 13.9148C535.29 13.7841 535.044 13.5824 534.863 13.3097C534.684 13.0369 534.596 12.696 534.598 12.2869V5.88636ZM541.55 14.1278C540.893 14.1278 540.327 13.9915 539.849 13.7188C539.375 13.4432 539.01 13.054 538.754 12.5511C538.499 12.0455 538.371 11.4503 538.371 10.7656C538.371 10.0923 538.499 9.50142 538.754 8.9929C539.013 8.48153 539.374 8.08381 539.837 7.79972C540.3 7.51278 540.844 7.36932 541.469 7.36932C541.872 7.36932 542.253 7.43466 542.611 7.56534C542.972 7.69318 543.29 7.89205 543.565 8.16193C543.844 8.43182 544.063 8.77557 544.222 9.19318C544.381 9.60795 544.46 10.1023 544.46 10.6761V11.1491H539.095V10.1094H542.982C542.979 9.81392 542.915 9.55114 542.79 9.32102C542.665 9.08807 542.49 8.90483 542.266 8.77131C542.044 8.63778 541.786 8.57102 541.49 8.57102C541.175 8.57102 540.898 8.64773 540.659 8.80114C540.42 8.9517 540.234 9.15057 540.101 9.39773C539.97 9.64205 539.903 9.91051 539.901 10.2031V11.1108C539.901 11.4915 539.97 11.8182 540.109 12.0909C540.249 12.3608 540.443 12.5682 540.693 12.7131C540.943 12.8551 541.236 12.9261 541.571 12.9261C541.795 12.9261 541.999 12.8949 542.18 12.8324C542.362 12.767 542.52 12.6719 542.653 12.5469C542.787 12.4219 542.888 12.267 542.956 12.0824L544.396 12.2443C544.305 12.625 544.132 12.9574 543.876 13.2415C543.624 13.5227 543.3 13.7415 542.905 13.8977C542.51 14.0511 542.058 14.1278 541.55 14.1278ZM545.765 14V7.45455H547.261V8.54545H547.329C547.449 8.16761 547.653 7.87642 547.943 7.67188C548.235 7.46449 548.569 7.3608 548.944 7.3608C549.029 7.3608 549.125 7.36506 549.23 7.37358C549.338 7.37926 549.427 7.3892 549.498 7.40341V8.82244C549.433 8.79972 549.329 8.77983 549.187 8.76278C549.048 8.7429 548.913 8.73295 548.782 8.73295C548.501 8.73295 548.248 8.79403 548.024 8.91619C547.802 9.03551 547.627 9.2017 547.5 9.41477C547.372 9.62784 547.308 9.87358 547.308 10.152V14H545.765ZM554.689 14H553.001L556.074 5.27273H558.025L561.102 14H559.414L557.083 7.0625H557.015L554.689 14ZM554.744 10.5781H559.346V11.848H554.744V10.5781ZM564.831 16.5909C564.277 16.5909 563.801 16.5156 563.403 16.3651C563.005 16.2173 562.686 16.0185 562.444 15.7685C562.203 15.5185 562.035 15.2415 561.941 14.9375L563.331 14.6009C563.393 14.7287 563.484 14.8551 563.603 14.9801C563.723 15.108 563.883 15.2131 564.085 15.2955C564.289 15.3807 564.547 15.4233 564.856 15.4233C565.294 15.4233 565.656 15.3168 565.943 15.1037C566.23 14.8935 566.373 14.5469 566.373 14.0639V12.8239H566.297C566.217 12.983 566.1 13.1463 565.947 13.3139C565.797 13.4815 565.596 13.6222 565.346 13.7358C565.099 13.8494 564.788 13.9062 564.413 13.9062C563.91 13.9062 563.454 13.7884 563.045 13.5526C562.639 13.3139 562.315 12.9588 562.074 12.4872C561.835 12.0128 561.716 11.419 561.716 10.706C561.716 9.98722 561.835 9.38068 562.074 8.88636C562.315 8.3892 562.64 8.01278 563.049 7.7571C563.458 7.49858 563.914 7.36932 564.417 7.36932C564.801 7.36932 565.116 7.43466 565.363 7.56534C565.613 7.69318 565.812 7.84801 565.96 8.02983C566.108 8.20881 566.22 8.37784 566.297 8.53693H566.382V7.45455H567.903V14.1065C567.903 14.6662 567.77 15.1293 567.502 15.4957C567.235 15.8622 566.87 16.1364 566.407 16.3182C565.944 16.5 565.419 16.5909 564.831 16.5909ZM564.843 12.696C565.17 12.696 565.449 12.6165 565.679 12.4574C565.909 12.2983 566.083 12.0696 566.203 11.7713C566.322 11.473 566.382 11.1151 566.382 10.6974C566.382 10.2855 566.322 9.92472 566.203 9.61506C566.086 9.3054 565.913 9.06534 565.683 8.89489C565.456 8.72159 565.176 8.63494 564.843 8.63494C564.5 8.63494 564.213 8.72443 563.983 8.90341C563.752 9.08239 563.579 9.32812 563.463 9.64062C563.346 9.95028 563.288 10.3026 563.288 10.6974C563.288 11.098 563.346 11.4489 563.463 11.75C563.582 12.0483 563.757 12.2812 563.987 12.4489C564.22 12.6136 564.505 12.696 564.843 12.696ZM572.382 14.1278C571.725 14.1278 571.159 13.9915 570.681 13.7188C570.207 13.4432 569.842 13.054 569.586 12.5511C569.331 12.0455 569.203 11.4503 569.203 10.7656C569.203 10.0923 569.331 9.50142 569.586 8.9929C569.845 8.48153 570.206 8.08381 570.669 7.79972C571.132 7.51278 571.676 7.36932 572.301 7.36932C572.704 7.36932 573.085 7.43466 573.443 7.56534C573.804 7.69318 574.122 7.89205 574.397 8.16193C574.676 8.43182 574.895 8.77557 575.054 9.19318C575.213 9.60795 575.292 10.1023 575.292 10.6761V11.1491H569.927V10.1094H573.814C573.811 9.81392 573.747 9.55114 573.622 9.32102C573.497 9.08807 573.322 8.90483 573.098 8.77131C572.876 8.63778 572.618 8.57102 572.322 8.57102C572.007 8.57102 571.73 8.64773 571.491 8.80114C571.252 8.9517 571.066 9.15057 570.933 9.39773C570.802 9.64205 570.735 9.91051 570.733 10.2031V11.1108C570.733 11.4915 570.802 11.8182 570.941 12.0909C571.081 12.3608 571.275 12.5682 571.525 12.7131C571.775 12.8551 572.068 12.9261 572.403 12.9261C572.627 12.9261 572.831 12.8949 573.012 12.8324C573.194 12.767 573.352 12.6719 573.485 12.5469C573.619 12.4219 573.72 12.267 573.788 12.0824L575.228 12.2443C575.137 12.625 574.964 12.9574 574.708 13.2415C574.456 13.5227 574.132 13.7415 573.737 13.8977C573.342 14.0511 572.89 14.1278 572.382 14.1278ZM578.14 10.1648V14H576.597V7.45455H578.072V8.56676H578.148C578.299 8.20028 578.539 7.90909 578.869 7.69318C579.201 7.47727 579.612 7.36932 580.1 7.36932C580.552 7.36932 580.945 7.46591 581.281 7.65909C581.619 7.85227 581.88 8.1321 582.065 8.49858C582.252 8.86506 582.344 9.30966 582.342 9.83239V14H580.799V10.071C580.799 9.63352 580.685 9.29119 580.458 9.04403C580.234 8.79687 579.923 8.6733 579.525 8.6733C579.255 8.6733 579.015 8.73295 578.805 8.85227C578.597 8.96875 578.434 9.13778 578.315 9.35938C578.198 9.58097 578.14 9.84943 578.14 10.1648ZM587.178 7.45455V8.64773H583.415V7.45455H587.178ZM584.344 5.88636H585.887V12.0312C585.887 12.2386 585.918 12.3977 585.981 12.5085C586.046 12.6165 586.131 12.6903 586.237 12.7301C586.342 12.7699 586.458 12.7898 586.586 12.7898C586.683 12.7898 586.771 12.7827 586.85 12.7685C586.933 12.7543 586.995 12.7415 587.038 12.7301L587.298 13.9361C587.215 13.9645 587.097 13.9957 586.944 14.0298C586.793 14.0639 586.609 14.0838 586.39 14.0895C586.004 14.1009 585.656 14.0426 585.346 13.9148C585.036 13.7841 584.79 13.5824 584.609 13.3097C584.43 13.0369 584.342 12.696 584.344 12.2869V5.88636ZM593.548 9.18466L592.142 9.33807C592.102 9.19602 592.032 9.0625 591.933 8.9375C591.836 8.8125 591.706 8.71165 591.541 8.63494C591.376 8.55824 591.174 8.51989 590.936 8.51989C590.615 8.51989 590.345 8.58949 590.126 8.72869C589.91 8.8679 589.804 9.0483 589.806 9.26989C589.804 9.46023 589.873 9.61506 590.015 9.73438C590.16 9.85369 590.399 9.9517 590.731 10.0284L591.848 10.267C592.467 10.4006 592.927 10.6122 593.228 10.902C593.532 11.1918 593.686 11.571 593.689 12.0398C593.686 12.4517 593.565 12.8153 593.326 13.1307C593.091 13.4432 592.762 13.6875 592.342 13.8636C591.922 14.0398 591.439 14.1278 590.893 14.1278C590.092 14.1278 589.447 13.9602 588.958 13.625C588.47 13.2869 588.179 12.8168 588.085 12.2145L589.589 12.0696C589.657 12.3651 589.802 12.5881 590.024 12.7386C590.245 12.8892 590.534 12.9645 590.889 12.9645C591.255 12.9645 591.549 12.8892 591.771 12.7386C591.995 12.5881 592.108 12.402 592.108 12.1804C592.108 11.9929 592.035 11.8381 591.89 11.7159C591.748 11.5937 591.527 11.5 591.225 11.4347L590.109 11.2003C589.481 11.0696 589.017 10.8494 588.716 10.5398C588.414 10.2273 588.265 9.83239 588.268 9.35511C588.265 8.9517 588.375 8.60227 588.596 8.30682C588.821 8.00852 589.132 7.77841 589.529 7.61648C589.93 7.4517 590.392 7.36932 590.914 7.36932C591.681 7.36932 592.285 7.53267 592.725 7.85938C593.169 8.18608 593.443 8.62784 593.548 9.18466Z" fill="#080808"/>
</g>
</g>
<defs>
<linearGradient id="paint0_linear_12215_7760" x1="73.2387" y1="527.413" x2="658.502" y2="442.937" gradientUnits="userSpaceOnUse">
<stop offset="0.25"/>
<stop offset="0.5" stop-opacity="0.4"/>
<stop offset="0.75"/>
</linearGradient>
<clipPath id="clip0_12215_7760">
<rect width="348" height="16" fill="white" transform="translate(247 2)"/>
</clipPath>
</defs>
</svg>
