<svg width="16" height="16" viewBox="0 0 16 16" fill="none" xmlns="http://www.w3.org/2000/svg">
<path d="M8.01663 9.60357C9.02899 9.60357 9.84966 8.78289 9.84966 7.77054C9.84966 6.75818 9.02899 5.9375 8.01663 5.9375C7.00427 5.9375 6.18359 6.75818 6.18359 7.77054C6.18359 8.78289 7.00427 9.60357 8.01663 9.60357Z" stroke="white" stroke-width="0.941176"/>
<path d="M7.92324 4.00391C5.0431 4.00391 3.22314 6.29794 2.58788 7.59699C2.53374 7.70773 2.53043 7.83446 2.5799 7.94736C3.14939 9.247 4.93074 11.5369 8.14121 11.5369C11.3566 11.5369 12.9679 9.20207 13.4381 7.88198C13.4778 7.77048 13.4678 7.64952 13.4118 7.54526C12.7263 6.2691 10.8092 4.00391 7.92324 4.00391Z" stroke="white" stroke-width="0.941176"/>
</svg>
