<svg width="131" height="127" viewBox="0 0 131 127" fill="none" xmlns="http://www.w3.org/2000/svg">
<path d="M9.73047 19.8633V62.7569M9.73047 62.7569L9.81118 94.8875L9.89197 127.051V201.113M9.73047 62.7569H27.1295M55.3401 127.051H34.1783M34.1783 127.051V157.045C34.1783 158.09 35.0252 158.937 36.0698 158.937H61.2166M34.1783 127.051V94.8288M34.1783 94.8288C35.1576 94.8208 46.5412 94.8255 55.3401 94.8288M34.1783 94.8288V70.8324" stroke="#9E57B3" stroke-width="0.5" stroke-dasharray="1.4 1.4"/>
<path d="M10.143 13.4067C9.96103 13.7219 9.50599 13.7219 9.32398 13.4067L6.86679 9.15073C6.68478 8.83548 6.9123 8.44141 7.27633 8.44141H12.1907C12.5547 8.44141 12.7822 8.83548 12.6002 9.15074L10.143 13.4067Z" fill="#9E57B3"/>
<path d="M38.1063 1.23438H22.974C21.736 1.23438 20.7324 2.23795 20.7324 3.47591V18.6082C20.7324 19.8462 21.736 20.8498 22.974 20.8498H38.1063C39.3443 20.8498 40.3478 19.8462 40.3478 18.6082V3.47591C40.3478 2.23795 39.3443 1.23438 38.1063 1.23438Z" stroke="#9E57B3" stroke-width="0.7"/>
<path d="M30.5568 12.8832C31.5741 12.8832 32.3988 12.0585 32.3988 11.0412C32.3988 10.0239 31.5741 9.19922 30.5568 9.19922C29.5395 9.19922 28.7148 10.0239 28.7148 11.0412C28.7148 12.0585 29.5395 12.8832 30.5568 12.8832Z" stroke="#9E57B3" stroke-width="0.94577"/>
<path d="M30.4612 7.25391C27.567 7.25391 25.7382 9.55914 25.0998 10.8645C25.0454 10.9758 25.0421 11.1032 25.0918 11.2166C25.6641 12.5226 27.4541 14.8237 30.6802 14.8237C33.9113 14.8237 35.5304 12.4775 36.003 11.1509C36.0429 11.0389 36.0328 10.9173 35.9765 10.8126C35.2876 9.53015 33.3613 7.25391 30.4612 7.25391Z" stroke="#9E57B3" stroke-width="0.94577"/>
<path d="M51.4267 8.8333V9.70652H47.9512V8.8333H51.4267ZM48.9642 7.22656H49.9946V13.6185C49.9946 13.9096 50.0368 14.1279 50.1212 14.2735C50.2085 14.4161 50.3191 14.5121 50.453 14.5616C50.5898 14.6082 50.7339 14.6315 50.8853 14.6315C50.9988 14.6315 51.0919 14.6257 51.1647 14.614C51.2375 14.5995 51.2957 14.5878 51.3393 14.5791L51.5489 15.5047C51.4791 15.5309 51.3815 15.5571 51.2564 15.5833C51.1312 15.6124 50.9726 15.6269 50.7805 15.6269C50.4894 15.6269 50.2041 15.5644 49.9247 15.4392C49.6482 15.314 49.4182 15.1234 49.2349 14.8672C49.0544 14.6111 48.9642 14.288 48.9642 13.898V7.22656ZM52.9766 15.5396V8.8333H53.9721V9.84624H54.042C54.1642 9.51441 54.3854 9.24517 54.7056 9.0385C55.0258 8.83184 55.3867 8.72851 55.7884 8.72851C55.8641 8.72851 55.9587 8.72996 56.0722 8.73288C56.1857 8.73579 56.2716 8.74015 56.3298 8.74597V9.79384C56.2949 9.78511 56.2148 9.77201 56.0897 9.75455C55.9674 9.73417 55.8379 9.72399 55.7011 9.72399C55.3751 9.72399 55.084 9.79239 54.8279 9.92919C54.5746 10.063 54.3738 10.2493 54.2253 10.488C54.0798 10.7238 54.007 10.993 54.007 11.2958V15.5396H52.9766ZM59.5247 15.6968C59.0998 15.6968 58.7141 15.6168 58.3677 15.4567C58.0213 15.2937 57.7463 15.0594 57.5425 14.7537C57.3388 14.4452 57.2369 14.0726 57.2369 13.636C57.2369 13.2518 57.3126 12.9403 57.4639 12.7016C57.6153 12.4601 57.8176 12.2709 58.0708 12.134C58.3241 11.9972 58.6035 11.8954 58.9091 11.8284C59.2177 11.7586 59.5276 11.7033 59.8391 11.6625C60.2466 11.6101 60.577 11.5708 60.8302 11.5446C61.0864 11.5155 61.2726 11.4675 61.3891 11.4005C61.5084 11.3336 61.5681 11.2172 61.5681 11.0512V11.0163C61.5681 10.5855 61.4502 10.2508 61.2144 10.0121C60.9816 9.77347 60.6279 9.65413 60.1535 9.65413C59.6615 9.65413 59.2759 9.76183 58.9964 9.97722C58.717 10.1926 58.5205 10.4225 58.407 10.667L57.429 10.3177C57.6036 9.91027 57.8365 9.593 58.1276 9.36596C58.4216 9.13601 58.7417 8.97592 59.0881 8.88569C59.4374 8.79255 59.7809 8.74597 60.1185 8.74597C60.3339 8.74597 60.5813 8.77217 60.8608 8.82456C61.1431 8.87405 61.4153 8.97738 61.6772 9.13456C61.9421 9.29174 62.1619 9.52897 62.3365 9.84624C62.5112 10.1635 62.5985 10.5884 62.5985 11.1211V15.5396H61.5681V14.6315H61.5157C61.4458 14.777 61.3294 14.9327 61.1664 15.0986C61.0034 15.2646 60.7865 15.4057 60.5158 15.5222C60.2451 15.6386 59.9148 15.6968 59.5247 15.6968ZM59.6819 14.7712C60.0894 14.7712 60.4329 14.6911 60.7123 14.5311C60.9947 14.371 61.2072 14.1643 61.3498 13.9111C61.4953 13.6578 61.5681 13.3915 61.5681 13.1121V12.169C61.5244 12.2214 61.4284 12.2694 61.2799 12.3131C61.1344 12.3538 60.9656 12.3902 60.7734 12.4222C60.5842 12.4513 60.3994 12.4775 60.219 12.5008C60.0414 12.5212 59.8973 12.5386 59.7867 12.5532C59.5189 12.5881 59.2686 12.6449 59.0357 12.7235C58.8058 12.7992 58.6195 12.9141 58.4769 13.0684C58.3371 13.2198 58.2673 13.4264 58.2673 13.6884C58.2673 14.0464 58.3997 14.3171 58.6646 14.5005C58.9324 14.681 59.2715 14.7712 59.6819 14.7712ZM67.2037 15.6793C66.5749 15.6793 66.0335 15.5309 65.5795 15.234C65.1254 14.9371 64.7761 14.5281 64.5316 14.0071C64.2871 13.4861 64.1648 12.8908 64.1648 12.2214C64.1648 11.5403 64.29 10.9392 64.5403 10.4182C64.7936 9.89427 65.1458 9.4853 65.5969 9.19132C66.051 8.89442 66.5808 8.74597 67.1862 8.74597C67.6577 8.74597 68.0827 8.8333 68.4611 9.00794C68.8395 9.18259 69.1495 9.42709 69.3911 9.74145C69.6327 10.0558 69.7826 10.4225 69.8408 10.8417H68.8104C68.7318 10.536 68.5572 10.2653 68.2865 10.0296C68.0187 9.79093 67.6577 9.67159 67.2037 9.67159C66.802 9.67159 66.4498 9.77638 66.1471 9.98595C65.8473 10.1926 65.6129 10.4851 65.4441 10.8635C65.2782 11.239 65.1952 11.68 65.1952 12.1864C65.1952 12.7046 65.2767 13.1557 65.4397 13.5399C65.6057 13.9242 65.8385 14.2225 66.1383 14.435C66.441 14.6475 66.7962 14.7537 67.2037 14.7537C67.4715 14.7537 67.7145 14.7072 67.9328 14.614C68.1511 14.5209 68.3359 14.387 68.4873 14.2123C68.6387 14.0377 68.7464 13.8281 68.8104 13.5836H69.8408C69.7826 13.9795 69.6385 14.336 69.4086 14.6533C69.1815 14.9677 68.8803 15.218 68.5048 15.4043C68.1322 15.5877 67.6985 15.6793 67.2037 15.6793ZM74.1589 15.6793C73.5127 15.6793 72.9553 15.5367 72.4867 15.2515C72.021 14.9633 71.6615 14.5616 71.4082 14.0464C71.1579 13.5283 71.0328 12.9258 71.0328 12.2388C71.0328 11.5519 71.1579 10.9465 71.4082 10.4225C71.6615 9.89572 72.0137 9.4853 72.4648 9.19132C72.9189 8.89442 73.4487 8.74597 74.0541 8.74597C74.4034 8.74597 74.7483 8.80419 75.0889 8.92062C75.4294 9.03705 75.7394 9.22625 76.0189 9.48822C76.2983 9.74727 76.521 10.0907 76.6869 10.5186C76.8528 10.9465 76.9358 11.4733 76.9358 12.0991V12.5357H71.7663V11.645H75.8879C75.8879 11.2666 75.8122 10.929 75.6608 10.6321C75.5124 10.3352 75.2999 10.1009 75.0234 9.92919C74.7498 9.75746 74.4267 9.67159 74.0541 9.67159C73.6437 9.67159 73.2886 9.77347 72.9888 9.97722C72.6919 10.178 72.4634 10.44 72.3033 10.7631C72.1432 11.0862 72.0632 11.4326 72.0632 11.8022V12.396C72.0632 12.9025 72.1505 13.3318 72.3251 13.684C72.5027 14.0333 72.7486 14.2996 73.063 14.483C73.3774 14.6635 73.7427 14.7537 74.1589 14.7537C74.4296 14.7537 74.6741 14.7159 74.8924 14.6402C75.1136 14.5616 75.3043 14.4452 75.4644 14.2909C75.6245 14.1337 75.7482 13.9387 75.8355 13.7059L76.831 13.9853C76.7262 14.3229 76.5501 14.6198 76.3027 14.876C76.0553 15.1292 75.7496 15.3271 75.3858 15.4698C75.0219 15.6095 74.613 15.6793 74.1589 15.6793Z" fill="#9E57B3"/>
<path d="M103.296 24.5195H48.5125C47.5984 24.5195 46.8574 25.2605 46.8574 26.1746V37.1746C46.8574 38.0887 47.5984 38.8297 48.5125 38.8297H103.296C104.21 38.8297 104.951 38.0887 104.951 37.1746V26.1746C104.951 25.2605 104.21 24.5195 103.296 24.5195Z" stroke="#9E57B3" stroke-width="0.472885"/>
<path d="M53.533 28.2932V35.1716H52.7001V29.1664H52.6598L50.9805 30.2815V29.4351L52.7001 28.2932H53.533ZM55.35 33.761V33.0758L58.3727 28.2932H58.8698V29.3545H58.5339L56.2501 32.9683V33.0221H60.3207V33.761H55.35ZM58.5877 35.1716V33.5527V33.2337V28.2932H59.3803V35.1716H58.5877ZM63.8228 35.2656C63.3168 35.2656 62.8858 35.1279 62.5298 34.8525C62.1738 34.5748 61.9017 34.1729 61.7136 33.6468C61.5256 33.1184 61.4315 32.4802 61.4315 31.7324C61.4315 30.989 61.5256 30.3543 61.7136 29.8281C61.9039 29.2997 62.1771 28.8966 62.5331 28.619C62.8914 28.3391 63.3213 28.1992 63.8228 28.1992C64.3244 28.1992 64.7531 28.3391 65.1091 28.619C65.4674 28.8966 65.7405 29.2997 65.9286 29.8281C66.1189 30.3543 66.2141 30.989 66.2141 31.7324C66.2141 32.4802 66.1201 33.1184 65.932 33.6468C65.7439 34.1729 65.4719 34.5748 65.1159 34.8525C64.7598 35.1279 64.3288 35.2656 63.8228 35.2656ZM63.8228 34.5267C64.3244 34.5267 64.7139 34.2849 64.9916 33.8013C65.2692 33.3176 65.408 32.628 65.408 31.7324C65.408 31.1368 65.3442 30.6297 65.2166 30.211C65.0912 29.7923 64.9099 29.4732 64.6725 29.2538C64.4374 29.0343 64.1542 28.9246 63.8228 28.9246C63.3257 28.9246 62.9373 29.1698 62.6574 29.6602C62.3775 30.1483 62.2376 30.839 62.2376 31.7324C62.2376 32.328 62.3003 32.834 62.4256 33.2505C62.551 33.6669 62.7313 33.9837 62.9664 34.2009C63.2037 34.4181 63.4892 34.5267 63.8228 34.5267ZM69.8951 29.0321V28.2932H75.0538V29.0321H72.8909V35.1716H72.058V29.0321H69.8951ZM77.5795 35.279C77.1137 35.279 76.7051 35.1682 76.3536 34.9465C76.0043 34.7249 75.7311 34.4148 75.5341 34.0162C75.3393 33.6177 75.2419 33.1519 75.2419 32.619C75.2419 32.0817 75.3393 31.6126 75.5341 31.2118C75.7311 30.811 76.0043 30.4998 76.3536 30.2781C76.7051 30.0565 77.1137 29.9456 77.5795 29.9456C78.0452 29.9456 78.4527 30.0565 78.802 30.2781C79.1535 30.4998 79.4267 30.811 79.6215 31.2118C79.8185 31.6126 79.917 32.0817 79.917 32.619C79.917 33.1519 79.8185 33.6177 79.6215 34.0162C79.4267 34.4148 79.1535 34.7249 78.802 34.9465C78.4527 35.1682 78.0452 35.279 77.5795 35.279ZM77.5795 34.567C77.9332 34.567 78.2243 34.4763 78.4527 34.295C78.6811 34.1136 78.8501 33.8751 78.9598 33.5796C79.0695 33.284 79.1244 32.9639 79.1244 32.619C79.1244 32.2742 79.0695 31.9529 78.9598 31.6551C78.8501 31.3573 78.6811 31.1167 78.4527 30.933C78.2243 30.7494 77.9332 30.6576 77.5795 30.6576C77.2257 30.6576 76.9346 30.7494 76.7062 30.933C76.4779 31.1167 76.3088 31.3573 76.1991 31.6551C76.0894 31.9529 76.0345 32.2742 76.0345 32.619C76.0345 32.9639 76.0894 33.284 76.1991 33.5796C76.3088 33.8751 76.4779 34.1136 76.7062 34.295C76.9346 34.4763 77.2257 34.567 77.5795 34.567ZM81.8658 33.2908L81.8524 32.3101H82.0136L84.2706 30.0128H85.2513L82.8465 32.4444H82.7794L81.8658 33.2908ZM81.1269 35.1716V28.2932H81.9196V35.1716H81.1269ZM84.4049 35.1716L82.3898 32.619L82.954 32.0682L85.4125 35.1716H84.4049ZM88.2219 35.279C87.7248 35.279 87.2961 35.1693 86.9356 34.9499C86.5773 34.7282 86.3008 34.4192 86.106 34.0229C85.9134 33.6244 85.8172 33.1609 85.8172 32.6325C85.8172 32.1041 85.9134 31.6383 86.106 31.2353C86.3008 30.8301 86.5717 30.5143 86.9188 30.2882C87.2681 30.0598 87.6756 29.9456 88.1413 29.9456C88.41 29.9456 88.6753 29.9904 88.9373 30.08C89.1992 30.1695 89.4377 30.3151 89.6526 30.5166C89.8676 30.7159 90.0389 30.9801 90.1665 31.3092C90.2941 31.6383 90.3579 32.0436 90.3579 32.525V32.8609H86.3814V32.1757H89.5519C89.5519 31.8846 89.4937 31.6249 89.3772 31.3965C89.2631 31.1681 89.0996 30.9879 88.8869 30.8558C88.6764 30.7237 88.4279 30.6576 88.1413 30.6576C87.8256 30.6576 87.5524 30.736 87.3218 30.8927C87.0934 31.0472 86.9177 31.2488 86.7945 31.4973C86.6714 31.7458 86.6098 32.0123 86.6098 32.2966V32.7534C86.6098 33.143 86.677 33.4732 86.8113 33.7442C86.9479 34.0128 87.1371 34.2177 87.3789 34.3588C87.6207 34.4976 87.9017 34.567 88.2219 34.567C88.4301 34.567 88.6182 34.5379 88.7861 34.4797C88.9563 34.4192 89.103 34.3297 89.2261 34.211C89.3493 34.0901 89.4444 33.9401 89.5116 33.761L90.2773 33.9759C90.1967 34.2356 90.0613 34.464 89.871 34.6611C89.6806 34.8558 89.4455 35.0081 89.1657 35.1178C88.8858 35.2253 88.5712 35.279 88.2219 35.279ZM92.3563 32.0682V35.1716H91.5637V30.0128H92.3294V30.8189H92.3966C92.5175 30.5569 92.7011 30.3464 92.9474 30.1874C93.1937 30.0262 93.5116 29.9456 93.9012 29.9456C94.2505 29.9456 94.5561 30.0173 94.8181 30.1606C95.0801 30.3016 95.2838 30.5166 95.4294 30.8054C95.5749 31.092 95.6477 31.4547 95.6477 31.8936V35.1716H94.8551V31.9473C94.8551 31.5421 94.7498 31.2264 94.5393 31.0002C94.3289 30.7718 94.04 30.6576 93.6728 30.6576C93.4198 30.6576 93.1937 30.7125 92.9944 30.8222C92.7974 30.9319 92.6418 31.092 92.5276 31.3025C92.4134 31.513 92.3563 31.7682 92.3563 32.0682ZM100.75 31.1681L100.038 31.3697C99.9934 31.251 99.9273 31.1357 99.84 31.0237C99.7549 30.9095 99.6385 30.8155 99.4907 30.7416C99.3429 30.6677 99.1537 30.6308 98.9231 30.6308C98.6074 30.6308 98.3443 30.7035 98.1338 30.8491C97.9256 30.9924 97.8215 31.1749 97.8215 31.3965C97.8215 31.5936 97.8931 31.7492 98.0364 31.8634C98.1797 31.9776 98.4036 32.0727 98.7082 32.1488L99.4739 32.3369C99.9352 32.4489 100.278 32.6202 100.504 32.8508C100.731 33.0792 100.844 33.3736 100.844 33.7341C100.844 34.0296 100.759 34.2938 100.588 34.5267C100.421 34.7596 100.185 34.9432 99.8837 35.0775C99.5814 35.2119 99.2299 35.279 98.8291 35.279C98.3029 35.279 97.8674 35.1648 97.5226 34.9365C97.1778 34.7081 96.9595 34.3745 96.8677 33.9356L97.62 33.7475C97.6916 34.0252 97.8271 34.2334 98.0264 34.3722C98.2279 34.511 98.491 34.5804 98.8156 34.5804C99.1851 34.5804 99.4784 34.5021 99.6956 34.3453C99.915 34.1864 100.024 33.9961 100.024 33.7744C100.024 33.5953 99.962 33.4453 99.8366 33.3243C99.7112 33.2012 99.5187 33.1094 99.259 33.0489L98.3992 32.8474C97.9267 32.7355 97.5797 32.562 97.358 32.3269C97.1386 32.0895 97.0289 31.7928 97.0289 31.4368C97.0289 31.1458 97.1106 30.8883 97.2741 30.6644C97.4397 30.4405 97.6648 30.2647 97.9491 30.1371C98.2357 30.0094 98.5604 29.9456 98.9231 29.9456C99.4336 29.9456 99.8344 30.0576 100.125 30.2815C100.418 30.5054 100.627 30.8009 100.75 31.1681Z" fill="#9E57B3"/>
<path d="M34.7329 64.477C34.5509 64.7923 34.0958 64.7923 33.9138 64.477L31.4566 60.2211C31.2746 59.9058 31.5021 59.5117 31.8662 59.5117H36.7805C37.1445 59.5117 37.3721 59.9058 37.19 60.2211L34.7329 64.477Z" fill="#9E57B3"/>
<path d="M62.6961 52.3047H47.5638C46.3258 52.3047 45.3223 53.3083 45.3223 54.5462V69.6785C45.3223 70.9165 46.3258 71.9201 47.5638 71.9201H62.6961C63.9341 71.9201 64.9377 70.9165 64.9377 69.6785V54.5462C64.9377 53.3083 63.9341 52.3047 62.6961 52.3047Z" stroke="#9E57B3" stroke-width="0.7"/>
<path d="M55.4466 62.118C55.2667 62.4438 54.7984 62.4438 54.6186 62.118L51.8101 57.0302C51.6164 56.6793 51.9196 56.2617 52.3132 56.3373L54.9421 56.842C55.001 56.8533 55.0615 56.8533 55.1204 56.842L57.7521 56.3371C58.1456 56.2616 58.4488 56.6792 58.2552 57.0301L55.4466 62.118Z" fill="#9E57B3"/>
<path fill-rule="evenodd" clip-rule="evenodd" d="M53.4972 62.0495C53.4295 61.9269 53.2579 61.9191 53.1948 62.0441C53.049 62.3327 52.9668 62.6591 52.9668 63.0046C52.9668 64.1829 53.922 65.1381 55.1004 65.1381C56.2787 65.1381 57.2339 64.1829 57.2339 63.0046C57.2339 62.6036 57.1232 62.2284 56.9308 61.9079C56.8614 61.7923 56.6976 61.8053 56.6324 61.9234L56.272 62.5764C55.7324 63.5538 54.3275 63.5538 53.788 62.5764L53.4972 62.0495ZM54.2421 61.0507C54.1464 61.0928 54.1134 61.2088 54.1639 61.3003L54.616 62.1193C54.7958 62.4451 55.2641 62.4451 55.444 62.1193L55.9217 61.2539C55.9743 61.1586 55.936 61.0379 55.8338 61.0005C55.6051 60.9168 55.3581 60.8711 55.1003 60.8711C54.795 60.8711 54.5047 60.9352 54.2421 61.0507Z" fill="#9E57B3"/>
<path fill-rule="evenodd" clip-rule="evenodd" d="M52.7803 58.7956C52.9318 59.0701 53.2761 59.1658 53.5685 59.0525C54.043 58.8686 54.5589 58.7677 55.0983 58.7677C55.5994 58.7677 56.0801 58.8547 56.5263 59.0145C56.8162 59.1183 57.1516 59.02 57.3004 58.7504C57.4548 58.4706 57.3496 58.1155 57.052 57.9992C56.4465 57.7626 55.7876 57.6328 55.0983 57.6328C54.3601 57.6328 53.6566 57.7818 53.0164 58.0513C52.7275 58.1729 52.6288 58.5212 52.7803 58.7956ZM58.3852 59.7207C58.2619 59.9442 58.3005 60.2194 58.4562 60.4217C59.0062 61.1362 59.3332 62.0312 59.3332 63.0026C59.3332 65.3415 57.4372 67.2375 55.0983 67.2375C52.7594 67.2375 50.8634 65.3415 50.8634 63.0026C50.8634 62.0737 51.1625 61.2146 51.6697 60.5164C51.8164 60.3144 51.8499 60.0458 51.7293 59.8272C51.5414 59.4869 51.0802 59.4192 50.8429 59.7271C50.1441 60.6336 49.7285 61.7696 49.7285 63.0026C49.7285 65.9683 52.1326 68.3724 55.0983 68.3724C58.064 68.3724 60.4681 65.9683 60.4681 63.0026C60.4681 61.7161 60.0157 60.5352 59.2612 59.6104C59.02 59.3148 58.5696 59.3867 58.3852 59.7207Z" fill="#9E57B3"/>
<path d="M77.85 61.4095L76.9244 61.6715C76.8661 61.5172 76.7803 61.3673 76.6668 61.2218C76.5562 61.0733 76.4048 60.9511 76.2127 60.855C76.0206 60.759 75.7746 60.711 75.4748 60.711C75.0644 60.711 74.7224 60.8056 74.4488 60.9948C74.1781 61.181 74.0427 61.4183 74.0427 61.7064C74.0427 61.9626 74.1359 62.1649 74.3221 62.3133C74.5084 62.4618 74.7995 62.5855 75.1954 62.6844L76.1909 62.9289C76.7905 63.0745 77.2373 63.2972 77.5313 63.597C77.8252 63.8939 77.9722 64.2766 77.9722 64.7453C77.9722 65.1295 77.8616 65.4729 77.6404 65.7757C77.4221 66.0784 77.1165 66.3171 76.7235 66.4917C76.3306 66.6664 75.8736 66.7537 75.3526 66.7537C74.6685 66.7537 74.1024 66.6052 73.6541 66.3083C73.2059 66.0114 72.9221 65.5777 72.8027 65.0072L73.7807 64.7627C73.8739 65.1237 74.05 65.3944 74.3091 65.5748C74.571 65.7553 74.913 65.8455 75.3351 65.8455C75.8154 65.8455 76.1967 65.7436 76.479 65.5399C76.7643 65.3332 76.9069 65.0858 76.9069 64.7977C76.9069 64.5648 76.8254 64.3698 76.6624 64.2126C76.4994 64.0525 76.2491 63.9332 75.9114 63.8546L74.7937 63.5926C74.1795 63.4471 73.7284 63.2215 73.4402 62.9159C73.1549 62.6073 73.0123 62.2216 73.0123 61.7588C73.0123 61.3804 73.1186 61.0457 73.331 60.7546C73.5464 60.4635 73.839 60.235 74.2086 60.0691C74.5812 59.9032 75.0033 59.8203 75.4748 59.8203C76.1385 59.8203 76.6595 59.9658 77.0379 60.2569C77.4192 60.548 77.6899 60.9322 77.85 61.4095ZM79.5233 69.1288V59.9076H80.5188V60.9729H80.641C80.7167 60.8565 80.8215 60.708 80.9554 60.5276C81.0922 60.3442 81.2872 60.1812 81.5404 60.0386C81.7966 59.893 82.143 59.8203 82.5796 59.8203C83.1443 59.8203 83.642 59.9614 84.0728 60.2438C84.5036 60.5261 84.8398 60.9264 85.0814 61.4445C85.323 61.9626 85.4438 62.5738 85.4438 63.2782C85.4438 63.9885 85.323 64.6041 85.0814 65.1251C84.8398 65.6432 84.505 66.0449 84.0772 66.3302C83.6493 66.6125 83.1559 66.7537 82.5971 66.7537C82.1663 66.7537 81.8213 66.6824 81.5623 66.5397C81.3032 66.3942 81.1038 66.2297 80.9641 66.0464C80.8244 65.8601 80.7167 65.7058 80.641 65.5836H80.5537V69.1288H79.5233ZM80.5362 63.2608C80.5362 63.7672 80.6105 64.214 80.7589 64.6012C80.9074 64.9854 81.1242 65.2867 81.4095 65.505C81.6947 65.7204 82.044 65.8281 82.4573 65.8281C82.8881 65.8281 83.2476 65.7145 83.5358 65.4875C83.8268 65.2576 84.0451 64.949 84.1907 64.5619C84.3391 64.1718 84.4134 63.7381 84.4134 63.2608C84.4134 62.7892 84.3406 62.3643 84.1951 61.9859C84.0524 61.6046 83.8356 61.3033 83.5445 61.0821C83.2563 60.8579 82.8939 60.7459 82.4573 60.7459C82.0382 60.7459 81.686 60.8521 81.4007 61.0646C81.1155 61.2742 80.9001 61.5682 80.7545 61.9466C80.609 62.3221 80.5362 62.7601 80.5362 63.2608ZM88.9891 66.7711C88.5641 66.7711 88.1784 66.6911 87.832 66.531C87.4857 66.368 87.2106 66.1337 87.0068 65.8281C86.8031 65.5195 86.7012 65.1469 86.7012 64.7103C86.7012 64.3261 86.7769 64.0147 86.9282 63.776C87.0796 63.5344 87.2819 63.3452 87.5351 63.2084C87.7884 63.0716 88.0678 62.9697 88.3734 62.9028C88.682 62.8329 88.992 62.7776 89.3034 62.7368C89.7109 62.6844 90.0413 62.6452 90.2945 62.619C90.5507 62.5898 90.737 62.5418 90.8534 62.4749C90.9727 62.4079 91.0324 62.2915 91.0324 62.1256V62.0907C91.0324 61.6599 90.9145 61.3251 90.6788 61.0864C90.4459 60.8478 90.0922 60.7284 89.6178 60.7284C89.1259 60.7284 88.7402 60.8361 88.4608 61.0515C88.1813 61.2669 87.9849 61.4969 87.8713 61.7414L86.8933 61.3921C87.068 60.9846 87.3008 60.6673 87.5919 60.4403C87.8859 60.2103 88.2061 60.0502 88.5524 59.96C88.9017 59.8668 89.2452 59.8203 89.5829 59.8203C89.7982 59.8203 90.0457 59.8465 90.3251 59.8989C90.6074 59.9483 90.8796 60.0517 91.1416 60.2089C91.4064 60.366 91.6262 60.6033 91.8008 60.9205C91.9755 61.2378 92.0628 61.6628 92.0628 62.1954V66.614H91.0324V65.7058H90.98C90.9102 65.8513 90.7937 66.0071 90.6307 66.173C90.4677 66.3389 90.2509 66.4801 89.9802 66.5965C89.7095 66.7129 89.3791 66.7711 88.9891 66.7711ZM89.1462 65.8455C89.5537 65.8455 89.8972 65.7655 90.1766 65.6054C90.459 65.4453 90.6715 65.2386 90.8141 64.9854C90.9596 64.7322 91.0324 64.4658 91.0324 64.1864V63.2433C90.9887 63.2957 90.8927 63.3437 90.7442 63.3874C90.5987 63.4281 90.4299 63.4645 90.2378 63.4965C90.0486 63.5257 89.8637 63.5519 89.6833 63.5751C89.5057 63.5955 89.3616 63.613 89.251 63.6275C88.9832 63.6625 88.7329 63.7192 88.5001 63.7978C88.2701 63.8735 88.0838 63.9885 87.9412 64.1427C87.8015 64.2941 87.7316 64.5008 87.7316 64.7627C87.7316 65.1207 87.8641 65.3914 88.1289 65.5748C88.3967 65.7553 88.7358 65.8455 89.1462 65.8455ZM94.9739 62.5797V66.614H93.9435V59.9076H94.939V60.9555H95.0263C95.1835 60.6149 95.4222 60.3413 95.7424 60.1346C96.0625 59.9251 96.4759 59.8203 96.9823 59.8203C97.4364 59.8203 97.8337 59.9134 98.1743 60.0997C98.5149 60.2831 98.7797 60.5625 98.9689 60.938C99.1581 61.3106 99.2527 61.7821 99.2527 62.3526V66.614H98.2223V62.4225C98.2223 61.8956 98.0855 61.4852 97.8119 61.1912C97.5383 60.8943 97.1628 60.7459 96.6855 60.7459C96.3565 60.7459 96.0625 60.8172 95.8035 60.9598C95.5473 61.1025 95.345 61.3106 95.1966 61.5842C95.0482 61.8578 94.9739 62.1896 94.9739 62.5797Z" fill="#9E57B3"/>
<path d="M72.5008 85.4062H57.3685C56.1305 85.4062 55.127 86.4098 55.127 87.6478V102.78C55.127 104.018 56.1305 105.022 57.3685 105.022H72.5008C73.7388 105.022 74.7424 104.018 74.7424 102.78V87.6478C74.7424 86.4098 73.7388 85.4062 72.5008 85.4062Z" stroke="#9E57B3" stroke-width="0.7"/>
<path d="M65.2513 95.2195C65.0714 95.5453 64.6031 95.5453 64.4233 95.2195L61.6148 90.1317C61.4211 89.7808 61.7243 89.3632 62.1179 89.4387L64.7468 89.9435C64.8057 89.9548 64.8662 89.9548 64.9251 89.9435L67.5568 89.4386C67.9503 89.363 68.2535 89.7807 68.0599 90.1315L65.2513 95.2195Z" fill="#9E57B3"/>
<path fill-rule="evenodd" clip-rule="evenodd" d="M63.3018 95.1512C63.2342 95.0286 63.0626 95.0207 62.9995 95.1457C62.8536 95.4344 62.7715 95.7607 62.7715 96.1062C62.7715 97.2846 63.7267 98.2398 64.905 98.2398C66.0834 98.2398 67.0386 97.2846 67.0386 96.1062C67.0386 95.7052 66.9279 95.33 66.7355 95.0095C66.6661 94.8939 66.5023 94.907 66.4371 95.025L66.0767 95.678C65.5371 96.6555 64.1322 96.6555 63.5927 95.678L63.3018 95.1512ZM64.0468 94.1524C63.9511 94.1945 63.9181 94.3105 63.9686 94.402L64.4207 95.221C64.6005 95.5468 65.0688 95.5468 65.2487 95.221L65.7264 94.3556C65.779 94.2603 65.7407 94.1396 65.6385 94.1021C65.4098 94.0184 65.1627 93.9727 64.905 93.9727C64.5997 93.9727 64.3094 94.0369 64.0468 94.1524Z" fill="#9E57B3"/>
<path fill-rule="evenodd" clip-rule="evenodd" d="M62.585 91.8973C62.7365 92.1718 63.0808 92.2674 63.3731 92.1541C63.8477 91.9702 64.3635 91.8694 64.903 91.8694C65.4041 91.8694 65.8848 91.9564 66.3309 92.1161C66.6209 92.22 66.9563 92.1217 67.1051 91.8521C67.2595 91.5723 67.1543 91.2172 66.8567 91.1009C66.2512 90.8643 65.5923 90.7344 64.903 90.7344C64.1648 90.7344 63.4613 90.8834 62.8211 91.1529C62.5322 91.2746 62.4335 91.6229 62.585 91.8973ZM68.1899 92.8223C68.0666 93.0459 68.1051 93.3211 68.2609 93.5234C68.8109 94.2379 69.1379 95.1329 69.1379 96.1043C69.1379 98.4431 67.2419 100.339 64.903 100.339C62.5641 100.339 60.6681 98.4431 60.6681 96.1043C60.6681 95.1753 60.9672 94.3162 61.4744 93.618C61.6211 93.416 61.6546 93.1475 61.534 92.9289C61.3461 92.5886 60.8849 92.5209 60.6475 92.8287C59.9488 93.7352 59.5332 94.8712 59.5332 96.1043C59.5332 99.0699 61.9373 101.474 64.903 101.474C67.8687 101.474 70.2728 99.0699 70.2728 96.1043C70.2728 94.8177 69.8204 93.6368 69.0659 92.712C68.8247 92.4164 68.3743 92.4883 68.1899 92.8223Z" fill="#9E57B3"/>
<path d="M87.6508 94.5112L86.7251 94.7732C86.6669 94.6189 86.5811 94.469 86.4675 94.3234C86.3569 94.175 86.2056 94.0527 86.0135 93.9567C85.8214 93.8606 85.5754 93.8126 85.2756 93.8126C84.8652 93.8126 84.5232 93.9072 84.2495 94.0964C83.9788 94.2827 83.8435 94.5199 83.8435 94.8081C83.8435 95.0642 83.9366 95.2665 84.1229 95.415C84.3092 95.5634 84.6003 95.6871 84.9962 95.7861L85.9916 96.0306C86.5912 96.1761 87.038 96.3988 87.332 96.6986C87.626 96.9955 87.773 97.3783 87.773 97.8469C87.773 98.2311 87.6624 98.5746 87.4412 98.8773C87.2229 99.18 86.9173 99.4187 86.5243 99.5934C86.1313 99.768 85.6744 99.8553 85.1533 99.8553C84.4693 99.8553 83.9032 99.7069 83.4549 99.41C83.0067 99.1131 82.7229 98.6794 82.6035 98.1089L83.5815 97.8644C83.6747 98.2253 83.8508 98.496 84.1098 98.6765C84.3718 98.8569 84.7138 98.9472 85.1359 98.9472C85.6161 98.9472 85.9975 98.8453 86.2798 98.6415C86.5651 98.4349 86.7077 98.1875 86.7077 97.8993C86.7077 97.6664 86.6262 97.4714 86.4632 97.3142C86.3002 97.1542 86.0498 97.0348 85.7122 96.9562L84.5945 96.6943C83.9803 96.5487 83.5291 96.3231 83.241 96.0175C82.9557 95.709 82.8131 95.3233 82.8131 94.8605C82.8131 94.4821 82.9193 94.1473 83.1318 93.8563C83.3472 93.5652 83.6397 93.3367 84.0094 93.1708C84.382 93.0049 84.804 92.9219 85.2756 92.9219C85.9392 92.9219 86.4603 93.0675 86.8387 93.3585C87.22 93.6496 87.4907 94.0338 87.6508 94.5112ZM89.3241 102.23V93.0092H90.3196V94.0746H90.4418C90.5175 93.9581 90.6223 93.8097 90.7562 93.6292C90.893 93.4459 91.088 93.2829 91.3412 93.1402C91.5974 92.9947 91.9438 92.9219 92.3804 92.9219C92.9451 92.9219 93.4428 93.0631 93.8736 93.3454C94.3044 93.6278 94.6406 94.028 94.8822 94.5461C95.1238 95.0642 95.2445 95.6755 95.2445 96.3799C95.2445 97.0901 95.1238 97.7057 94.8822 98.2268C94.6406 98.7449 94.3058 99.1466 93.8779 99.4318C93.4501 99.7142 92.9567 99.8553 92.3978 99.8553C91.967 99.8553 91.6221 99.784 91.3631 99.6414C91.104 99.4958 90.9046 99.3314 90.7649 99.148C90.6252 98.9617 90.5175 98.8075 90.4418 98.6852H90.3545V102.23H89.3241ZM90.337 96.3624C90.337 96.8689 90.4112 97.3157 90.5597 97.7028C90.7081 98.087 90.925 98.3883 91.2102 98.6066C91.4955 98.822 91.8448 98.9297 92.2581 98.9297C92.6889 98.9297 93.0484 98.8162 93.3365 98.5892C93.6276 98.3592 93.8459 98.0507 93.9915 97.6635C94.1399 97.2735 94.2141 96.8398 94.2141 96.3624C94.2141 95.8909 94.1414 95.4659 93.9958 95.0875C93.8532 94.7062 93.6364 94.4049 93.3453 94.1837C93.0571 93.9596 92.6947 93.8475 92.2581 93.8475C91.839 93.8475 91.4868 93.9538 91.2015 94.1663C90.9163 94.3758 90.7009 94.6698 90.5553 95.0482C90.4098 95.4237 90.337 95.8618 90.337 96.3624ZM98.7898 99.8728C98.3649 99.8728 97.9792 99.7927 97.6328 99.6327C97.2864 99.4697 97.0114 99.2353 96.8076 98.9297C96.6039 98.6212 96.502 98.2486 96.502 97.812C96.502 97.4278 96.5777 97.1163 96.729 96.8776C96.8804 96.636 97.0827 96.4468 97.3359 96.31C97.5892 96.1732 97.8686 96.0714 98.1742 96.0044C98.4828 95.9345 98.7928 95.8792 99.1042 95.8385C99.5117 95.7861 99.8421 95.7468 100.095 95.7206C100.351 95.6915 100.537 95.6435 100.654 95.5765C100.773 95.5096 100.833 95.3931 100.833 95.2272V95.1923C100.833 94.7615 100.715 94.4268 100.479 94.1881C100.246 93.9494 99.893 93.8301 99.4186 93.8301C98.9266 93.8301 98.541 93.9378 98.2615 94.1532C97.9821 94.3686 97.7856 94.5985 97.6721 94.843L96.6941 94.4937C96.8687 94.0862 97.1016 93.7689 97.3927 93.5419C97.6867 93.312 98.0068 93.1519 98.3532 93.0616C98.7025 92.9685 99.046 92.9219 99.3836 92.9219C99.599 92.9219 99.8464 92.9481 100.126 93.0005C100.408 93.05 100.68 93.1533 100.942 93.3105C101.207 93.4677 101.427 93.7049 101.601 94.0222C101.776 94.3395 101.863 94.7644 101.863 95.2971V99.7156H100.833V98.8075H100.78C100.711 98.953 100.594 99.1087 100.431 99.2746C100.268 99.4405 100.051 99.5817 99.781 99.6981C99.5103 99.8146 99.1799 99.8728 98.7898 99.8728ZM98.947 98.9472C99.3545 98.9472 99.698 98.8671 99.9774 98.707C100.259 98.5469 100.472 98.3403 100.615 98.087C100.76 97.8338 100.833 97.5675 100.833 97.288V96.345C100.789 96.3974 100.693 96.4454 100.545 96.489C100.399 96.5298 100.23 96.5662 100.038 96.5982C99.8494 96.6273 99.6645 96.6535 99.4841 96.6768C99.3065 96.6972 99.1624 96.7146 99.0518 96.7292C98.784 96.7641 98.5337 96.8209 98.3008 96.8995C98.0709 96.9751 97.8846 97.0901 97.742 97.2444C97.6023 97.3957 97.5324 97.6024 97.5324 97.8644C97.5324 98.2224 97.6648 98.4931 97.9297 98.6765C98.1975 98.8569 98.5366 98.9472 98.947 98.9472ZM104.774 95.6813V99.7156H103.744V93.0092H104.739V94.0571H104.827C104.984 93.7166 105.223 93.4429 105.543 93.2363C105.863 93.0267 106.276 92.9219 106.783 92.9219C107.237 92.9219 107.634 93.0151 107.975 93.2013C108.315 93.3847 108.58 93.6642 108.769 94.0396C108.959 94.4122 109.053 94.8838 109.053 95.4543V99.7156H108.023V95.5241C108.023 94.9973 107.886 94.5869 107.612 94.2929C107.339 93.996 106.963 93.8475 106.486 93.8475C106.157 93.8475 105.863 93.9188 105.604 94.0615C105.348 94.2041 105.146 94.4122 104.997 94.6858C104.849 94.9594 104.774 95.2913 104.774 95.6813Z" fill="#9E57B3"/>
<path d="M72.5008 117.562H57.3685C56.1305 117.562 55.127 118.566 55.127 119.804V134.936C55.127 136.174 56.1305 137.178 57.3685 137.178H72.5008C73.7388 137.178 74.7424 136.174 74.7424 134.936V119.804C74.7424 118.566 73.7388 117.562 72.5008 117.562Z" stroke="#9E57B3" stroke-width="0.7"/>
<path d="M65.2513 127.376C65.0714 127.702 64.6031 127.702 64.4233 127.376L61.6148 122.288C61.4211 121.938 61.7243 121.52 62.1179 121.595L64.7468 122.1C64.8057 122.112 64.8662 122.112 64.9251 122.1L67.5568 121.595C67.9503 121.52 68.2535 121.937 68.0599 122.288L65.2513 127.376Z" fill="#9E57B3"/>
<path fill-rule="evenodd" clip-rule="evenodd" d="M63.3018 127.307C63.2342 127.185 63.0626 127.177 62.9995 127.302C62.8536 127.591 62.7715 127.917 62.7715 128.262C62.7715 129.441 63.7267 130.396 64.905 130.396C66.0834 130.396 67.0386 129.441 67.0386 128.262C67.0386 127.861 66.9279 127.486 66.7355 127.166C66.6661 127.05 66.5023 127.063 66.4371 127.181L66.0767 127.834C65.5371 128.812 64.1322 128.812 63.5927 127.834L63.3018 127.307ZM64.0468 126.309C63.9511 126.351 63.9181 126.467 63.9686 126.558L64.4207 127.377C64.6005 127.703 65.0688 127.703 65.2487 127.377L65.7264 126.512C65.779 126.417 65.7407 126.296 65.6385 126.258C65.4098 126.175 65.1627 126.129 64.905 126.129C64.5997 126.129 64.3094 126.193 64.0468 126.309Z" fill="#9E57B3"/>
<path fill-rule="evenodd" clip-rule="evenodd" d="M62.585 124.054C62.7365 124.328 63.0808 124.424 63.3731 124.31C63.8477 124.126 64.3635 124.026 64.903 124.026C65.4041 124.026 65.8848 124.113 66.3309 124.272C66.6209 124.376 66.9563 124.278 67.1051 124.008C67.2595 123.729 67.1543 123.373 66.8567 123.257C66.2512 123.021 65.5923 122.891 64.903 122.891C64.1648 122.891 63.4613 123.04 62.8211 123.309C62.5322 123.431 62.4335 123.779 62.585 124.054ZM68.1899 124.979C68.0666 125.202 68.1051 125.477 68.2609 125.68C68.8109 126.394 69.1379 127.289 69.1379 128.261C69.1379 130.599 67.2419 132.495 64.903 132.495C62.5641 132.495 60.6681 130.599 60.6681 128.261C60.6681 127.332 60.9672 126.472 61.4744 125.774C61.6211 125.572 61.6546 125.304 61.534 125.085C61.3461 124.745 60.8849 124.677 60.6475 124.985C59.9488 125.891 59.5332 127.027 59.5332 128.261C59.5332 131.226 61.9373 133.63 64.903 133.63C67.8687 133.63 70.2728 131.226 70.2728 128.261C70.2728 126.974 69.8204 125.793 69.0659 124.868C68.8247 124.573 68.3743 124.645 68.1899 124.979Z" fill="#9E57B3"/>
<path d="M87.6508 126.667L86.7251 126.929C86.6669 126.775 86.5811 126.625 86.4675 126.479C86.3569 126.331 86.2056 126.208 86.0135 126.112C85.8214 126.016 85.5754 125.968 85.2756 125.968C84.8652 125.968 84.5232 126.063 84.2495 126.252C83.9788 126.438 83.8435 126.676 83.8435 126.964C83.8435 127.22 83.9366 127.422 84.1229 127.571C84.3092 127.719 84.6003 127.843 84.9962 127.942L85.9916 128.186C86.5912 128.332 87.038 128.555 87.332 128.854C87.626 129.151 87.773 129.534 87.773 130.003C87.773 130.387 87.6624 130.73 87.4412 131.033C87.2229 131.336 86.9173 131.574 86.5243 131.749C86.1313 131.924 85.6744 132.011 85.1533 132.011C84.4693 132.011 83.9032 131.863 83.4549 131.566C83.0067 131.269 82.7229 130.835 82.6035 130.265L83.5815 130.02C83.6747 130.381 83.8508 130.652 84.1098 130.832C84.3718 131.013 84.7138 131.103 85.1359 131.103C85.6161 131.103 85.9975 131.001 86.2798 130.797C86.5651 130.591 86.7077 130.343 86.7077 130.055C86.7077 129.822 86.6262 129.627 86.4632 129.47C86.3002 129.31 86.0498 129.191 85.7122 129.112L84.5945 128.85C83.9803 128.704 83.5291 128.479 83.241 128.173C82.9557 127.865 82.8131 127.479 82.8131 127.016C82.8131 126.638 82.9193 126.303 83.1318 126.012C83.3472 125.721 83.6397 125.492 84.0094 125.327C84.382 125.161 84.804 125.078 85.2756 125.078C85.9392 125.078 86.4603 125.223 86.8387 125.514C87.22 125.805 87.4907 126.19 87.6508 126.667ZM89.3241 134.386V125.165H90.3196V126.23H90.4418C90.5175 126.114 90.6223 125.965 90.7562 125.785C90.893 125.602 91.088 125.439 91.3412 125.296C91.5974 125.15 91.9438 125.078 92.3804 125.078C92.9451 125.078 93.4428 125.219 93.8736 125.501C94.3044 125.784 94.6406 126.184 94.8822 126.702C95.1238 127.22 95.2445 127.831 95.2445 128.536C95.2445 129.246 95.1238 129.861 94.8822 130.383C94.6406 130.901 94.3058 131.302 93.8779 131.588C93.4501 131.87 92.9567 132.011 92.3978 132.011C91.967 132.011 91.6221 131.94 91.3631 131.797C91.104 131.652 90.9046 131.487 90.7649 131.304C90.6252 131.117 90.5175 130.963 90.4418 130.841H90.3545V134.386H89.3241ZM90.337 128.518C90.337 129.025 90.4112 129.471 90.5597 129.859C90.7081 130.243 90.925 130.544 91.2102 130.762C91.4955 130.978 91.8448 131.085 92.2581 131.085C92.6889 131.085 93.0484 130.972 93.3365 130.745C93.6276 130.515 93.8459 130.206 93.9915 129.819C94.1399 129.429 94.2141 128.996 94.2141 128.518C94.2141 128.047 94.1414 127.622 93.9958 127.243C93.8532 126.862 93.6364 126.561 93.3453 126.339C93.0571 126.115 92.6947 126.003 92.2581 126.003C91.839 126.003 91.4868 126.11 91.2015 126.322C90.9163 126.532 90.7009 126.826 90.5553 127.204C90.4098 127.579 90.337 128.018 90.337 128.518ZM98.7898 132.029C98.3649 132.029 97.9792 131.948 97.6328 131.788C97.2864 131.625 97.0114 131.391 96.8076 131.085C96.6039 130.777 96.502 130.404 96.502 129.968C96.502 129.584 96.5777 129.272 96.729 129.033C96.8804 128.792 97.0827 128.603 97.3359 128.466C97.5892 128.329 97.8686 128.227 98.1742 128.16C98.4828 128.09 98.7928 128.035 99.1042 127.994C99.5117 127.942 99.8421 127.903 100.095 127.876C100.351 127.847 100.537 127.799 100.654 127.732C100.773 127.665 100.833 127.549 100.833 127.383V127.348C100.833 126.917 100.715 126.583 100.479 126.344C100.246 126.105 99.893 125.986 99.4186 125.986C98.9266 125.986 98.541 126.094 98.2615 126.309C97.9821 126.524 97.7856 126.754 97.6721 126.999L96.6941 126.649C96.8687 126.242 97.1016 125.925 97.3927 125.698C97.6867 125.468 98.0068 125.308 98.3532 125.217C98.7025 125.124 99.046 125.078 99.3836 125.078C99.599 125.078 99.8464 125.104 100.126 125.156C100.408 125.206 100.68 125.309 100.942 125.466C101.207 125.623 101.427 125.861 101.601 126.178C101.776 126.495 101.863 126.92 101.863 127.453V131.871H100.833V130.963H100.78C100.711 131.109 100.594 131.264 100.431 131.43C100.268 131.596 100.051 131.737 99.781 131.854C99.5103 131.97 99.1799 132.029 98.7898 132.029ZM98.947 131.103C99.3545 131.103 99.698 131.023 99.9774 130.863C100.259 130.703 100.472 130.496 100.615 130.243C100.76 129.99 100.833 129.723 100.833 129.444V128.501C100.789 128.553 100.693 128.601 100.545 128.645C100.399 128.686 100.23 128.722 100.038 128.754C99.8494 128.783 99.6645 128.809 99.4841 128.833C99.3065 128.853 99.1624 128.87 99.0518 128.885C98.784 128.92 98.5337 128.977 98.3008 129.055C98.0709 129.131 97.8846 129.246 97.742 129.4C97.6023 129.551 97.5324 129.758 97.5324 130.02C97.5324 130.378 97.6648 130.649 97.9297 130.832C98.1975 131.013 98.5366 131.103 98.947 131.103ZM104.774 127.837V131.871H103.744V125.165H104.739V126.213H104.827C104.984 125.872 105.223 125.599 105.543 125.392C105.863 125.182 106.276 125.078 106.783 125.078C107.237 125.078 107.634 125.171 107.975 125.357C108.315 125.54 108.58 125.82 108.769 126.195C108.959 126.568 109.053 127.04 109.053 127.61V131.871H108.023V127.68C108.023 127.153 107.886 126.743 107.612 126.449C107.339 126.152 106.963 126.003 106.486 126.003C106.157 126.003 105.863 126.075 105.604 126.217C105.348 126.36 105.146 126.568 104.997 126.842C104.849 127.115 104.774 127.447 104.774 127.837Z" fill="#9E57B3"/>
</svg>
