<svg width="101" height="75" viewBox="0 0 101 75" fill="none" xmlns="http://www.w3.org/2000/svg">
<mask id="mask0_12215_7785" style="mask-type:luminance" maskUnits="userSpaceOnUse" x="0" y="0" width="131" height="141">
<path d="M130.587 0H0V140.896H130.587V0Z" fill="white"/>
</mask>
<g mask="url(#mask0_12215_7785)">
<g opacity="0.39">
<mask id="mask1_12215_7785" style="mask-type:alpha" maskUnits="userSpaceOnUse" x="0" y="-1" width="139" height="161">
<g opacity="0.39">
<path d="M138.728 -0.808594H0.394531V159.678H138.728V-0.808594Z" fill="url(#paint0_linear_12215_7785)"/>
</g>
</mask>
<g mask="url(#mask1_12215_7785)">
<path opacity="0.32" d="M201.298 7.75391H48.2098C46.9807 7.75391 45.9844 8.75025 45.9844 9.9793V145.063C45.9844 146.292 46.9807 147.288 48.2098 147.288H201.298C202.527 147.288 203.523 146.292 203.523 145.063V9.9793C203.523 8.75025 202.527 7.75391 201.298 7.75391Z" fill="#D9D9D9"/>
<path d="M23.0926 8.44922H10.8252C9.85817 8.44922 9.07422 9.23317 9.07422 10.2002V12.7519C9.07422 13.719 9.85817 14.5029 10.8252 14.5029H23.0926C24.0597 14.5029 24.8436 13.719 24.8436 12.7519V10.2002C24.8436 9.23317 24.0597 8.44922 23.0926 8.44922Z" fill="#D9D9D9"/>
<path d="M39.5753 8.44922H39.3784C37.7067 8.44922 36.3516 9.80439 36.3516 11.4761V11.4761C36.3516 13.1478 37.7067 14.5029 39.3784 14.5029H39.5753C41.247 14.5029 42.6022 13.1478 42.6022 11.4761V11.4761C42.6022 9.80439 41.247 8.44922 39.5753 8.44922Z" fill="#D9D9D9"/>
<path opacity="0.57" d="M35.3261 18.6445H11.278C10.1795 18.6445 9.28906 19.535 9.28906 20.6335C9.28906 21.7319 10.1795 22.6224 11.278 22.6224H35.3261C36.4246 22.6224 37.3151 21.7319 37.3151 20.6335C37.3151 19.535 36.4246 18.6445 35.3261 18.6445Z" fill="#D9D9D9"/>
<path opacity="0.57" d="M101.726 11.9961H53.3913C52.2928 11.9961 51.4023 12.8866 51.4023 13.985C51.4023 15.0835 52.2928 15.974 53.3913 15.974H101.726C102.824 15.974 103.715 15.0835 103.715 13.985C103.715 12.8866 102.824 11.9961 101.726 11.9961Z" fill="#D9D9D9"/>
<path opacity="0.57" d="M28.6673 25.1641H11.278C10.1795 25.1641 9.28906 26.0545 9.28906 27.153C9.28906 28.2515 10.1795 29.142 11.278 29.142H28.6673C29.7658 29.142 30.6563 28.2515 30.6563 27.153C30.6563 26.0545 29.7658 25.1641 28.6673 25.1641Z" fill="#D9D9D9"/>
<path opacity="0.57" d="M28.6673 49.5859H11.278C10.1795 49.5859 9.28906 50.4764 9.28906 51.5749C9.28906 52.6734 10.1795 53.5638 11.278 53.5638H28.6673C29.7658 53.5638 30.6563 52.6734 30.6563 51.5749C30.6563 50.4764 29.7658 49.5859 28.6673 49.5859Z" fill="#D9D9D9"/>
<path opacity="0.57" d="M28.6673 74.2812H11.278C10.1795 74.2812 9.28906 75.1717 9.28906 76.2702C9.28906 77.3687 10.1795 78.2591 11.278 78.2591H28.6673C29.7658 78.2591 30.6563 77.3687 30.6563 76.2702C30.6563 75.1717 29.7658 74.2812 28.6673 74.2812Z" fill="#D9D9D9"/>
<path opacity="0.57" d="M32.2748 31.4102H11.278C10.1795 31.4102 9.28906 32.3006 9.28906 33.3991C9.28906 34.4976 10.1795 35.3881 11.278 35.3881H32.2748C33.3733 35.3881 34.2638 34.4976 34.2638 33.3991C34.2638 32.3006 33.3733 31.4102 32.2748 31.4102Z" fill="#D9D9D9"/>
<path opacity="0.57" d="M32.2748 55.8281H11.278C10.1795 55.8281 9.28906 56.7186 9.28906 57.8171C9.28906 58.9155 10.1795 59.806 11.278 59.806H32.2748C33.3733 59.806 34.2638 58.9155 34.2638 57.8171C34.2638 56.7186 33.3733 55.8281 32.2748 55.8281Z" fill="#D9D9D9"/>
<path opacity="0.57" d="M26.1637 37.793H11.278C10.1795 37.793 9.28906 38.6835 9.28906 39.7819C9.28906 40.8804 10.1795 41.7709 11.278 41.7709H26.1637C27.2622 41.7709 28.1527 40.8804 28.1527 39.7819C28.1527 38.6835 27.2622 37.793 26.1637 37.793Z" fill="#D9D9D9"/>
<path opacity="0.57" d="M26.1637 62.2109H11.278C10.1795 62.2109 9.28906 63.1014 9.28906 64.1999C9.28906 65.2984 10.1795 66.1888 11.278 66.1888H26.1637C27.2622 66.1888 28.1527 65.2984 28.1527 64.1999C28.1527 63.1014 27.2622 62.2109 26.1637 62.2109Z" fill="#D9D9D9"/>
</g>
</g>
</g>
<defs>
<linearGradient id="paint0_linear_12215_7785" x1="69.5608" y1="-0.808594" x2="69.5608" y2="142.249" gradientUnits="userSpaceOnUse">
<stop stop-color="#D9D9D9"/>
<stop offset="1" stop-color="#737373" stop-opacity="0"/>
</linearGradient>
</defs>
</svg>
