<svg width="13" height="12" viewBox="0 0 13 12" fill="none" xmlns="http://www.w3.org/2000/svg">
<path d="M0.477644 0.0336518C0.417685 0.00438165 0.350298 -0.00614327 0.284269 0.00344936C0.21824 0.013042 0.156633 0.042307 0.107481 0.0874287C0.0583296 0.13255 0.0239138 0.191435 0.00872124 0.256404C-0.00647132 0.321374 -0.00173577 0.389413 0.0223106 0.451652L1.91764 5.53632C2.02943 5.83647 2.02943 6.16683 1.91764 6.46699L0.0229774 11.5517C-0.000947734 11.6138 -0.00562165 11.6817 0.00956302 11.7466C0.0247477 11.8114 0.0590888 11.8702 0.108123 11.9153C0.157158 11.9604 0.218619 11.9897 0.284518 11.9994C0.350417 12.0091 0.417707 11.9987 0.477644 11.9697L12.4776 6.30299C12.5347 6.27599 12.583 6.23333 12.6167 6.17999C12.6505 6.12664 12.6685 6.0648 12.6685 6.00165C12.6685 5.93851 12.6505 5.87666 12.6167 5.82332C12.583 5.76997 12.5347 5.72731 12.4776 5.70032L0.477644 0.0336518Z" stroke="black" stroke-width="1.33333" stroke-linecap="round" stroke-linejoin="round"/>
</svg>
