<svg width="15" height="14" viewBox="0 0 15 14" fill="none" xmlns="http://www.w3.org/2000/svg">
<path fill-rule="evenodd" clip-rule="evenodd" d="M0 1.07881C0 0.483002 0.476803 0 1.07881 0H2.68589C3.2817 0 3.7647 0.476809 3.7647 1.07881V2.68589C3.7647 3.2817 3.2879 3.76471 2.68589 3.76471H1.07881C0.483001 3.76471 0 3.28791 0 2.68589V1.07881ZM4.70588 1.07881C4.70588 0.483002 5.18269 0 5.78469 0H7.39177C7.98759 0 8.47058 0.476809 8.47058 1.07881V2.68589C8.47058 3.2817 7.99378 3.76471 7.39177 3.76471H5.78469C5.18888 3.76471 4.70588 3.28791 4.70588 2.68589V1.07881ZM0 5.7847C0 5.18888 0.476803 4.70588 1.07881 4.70588H2.68589C3.2817 4.70588 3.7647 5.18269 3.7647 5.7847V7.39177C3.7647 7.98759 3.2879 8.47061 2.68589 8.47061H1.07881C0.483001 8.47061 0 7.99379 0 7.39177V5.7847ZM0 10.4906C0 9.8948 0.476803 9.41178 1.07881 9.41178H2.68589C3.2817 9.41178 3.7647 9.88858 3.7647 10.4906V12.0976C3.7647 12.6935 3.2879 13.1765 2.68589 13.1765H1.07881C0.483001 13.1765 0 12.6997 0 12.0976V10.4906ZM4.70588 10.4906C4.70588 9.8948 5.18269 9.41178 5.78469 9.41178H7.39177C7.98759 9.41178 8.47058 9.88858 8.47058 10.4906V12.0976C8.47058 12.6935 7.99378 13.1765 7.39177 13.1765H5.78469C5.18888 13.1765 4.70588 12.6997 4.70588 12.0976V10.4906ZM4.70588 5.7847C4.70588 5.18888 5.18269 4.70588 5.78469 4.70588H7.39177C7.98759 4.70588 8.47058 5.18269 8.47058 5.7847V7.39177C8.47058 7.98759 7.99378 8.47061 7.39177 8.47061H5.78469C5.18888 8.47061 4.70588 7.99379 4.70588 7.39177V5.7847ZM9.41177 1.07881C9.41177 0.483002 9.88857 0 10.4905 0H12.0977C12.6935 0 13.1765 0.476809 13.1765 1.07881V2.68589C13.1765 3.2817 12.6997 3.76471 12.0977 3.76471H10.4905C9.89478 3.76471 9.41177 3.28791 9.41177 2.68589V1.07881ZM14.6968 9.18665C14.9197 9.40962 14.9197 9.76905 14.6968 9.99089C14.4749 10.2139 14.1155 10.2139 13.8925 9.99089L12.9222 9.02054C12.8926 8.99098 12.8778 8.95456 12.8562 8.92162C12.5138 9.12981 12.1157 9.25602 11.6869 9.25602C10.4321 9.25602 9.41177 8.23569 9.41177 6.98097C9.41177 5.72626 10.4321 4.70588 11.6869 4.70588C12.9416 4.70588 13.9619 5.72626 13.9619 6.98097C13.9619 7.40982 13.8357 7.80796 13.6275 8.15036C13.6605 8.17197 13.6969 8.18676 13.7265 8.21634L14.6968 9.18665ZM11.6869 8.11851C12.3147 8.11851 12.8244 7.60889 12.8244 6.98097C12.8244 6.35304 12.3147 5.84343 11.6869 5.84343C11.0589 5.84343 10.5493 6.35304 10.5493 6.98097C10.5493 7.60889 11.0589 8.11851 11.6869 8.11851Z" fill="#F5F5F5"/>
</svg>
