<svg width="22" height="22" viewBox="0 0 22 22" fill="none" xmlns="http://www.w3.org/2000/svg">
<path fill-rule="evenodd" clip-rule="evenodd" d="M10.5807 0C4.72983 0 0 4.84544 0 10.8399C0 15.6316 3.03056 19.6877 7.23479 21.1233C7.76041 21.2312 7.95294 20.89 7.95294 20.603C7.95294 20.3517 7.93564 19.4904 7.93564 18.5928C4.99232 19.239 4.37941 17.3006 4.37941 17.3006C3.9064 16.0444 3.20556 15.7215 3.20556 15.7215C2.24223 15.0574 3.27573 15.0574 3.27573 15.0574C4.34433 15.1292 4.90504 16.1701 4.90504 16.1701C5.85081 17.8211 7.37487 17.3546 7.98802 17.0674C8.07555 16.3675 8.35602 15.8829 8.65379 15.6138C6.30627 15.3625 3.83645 14.4293 3.83645 10.2655C3.83645 9.08103 4.25661 8.11196 4.92237 7.35825C4.81733 7.08908 4.44936 5.97618 5.02762 4.48666C5.02762 4.48666 5.92103 4.19946 7.9354 5.59932C8.7978 5.36207 9.68725 5.24136 10.5807 5.24035C11.4741 5.24035 12.3847 5.36611 13.2257 5.59932C15.2404 4.19946 16.1337 4.48666 16.1337 4.48666C16.712 5.97618 16.3438 7.08908 16.2387 7.35825C16.922 8.11196 17.3249 9.08103 17.3249 10.2655C17.3249 14.4293 14.8551 15.3444 12.49 15.6138C12.8755 15.9547 13.2082 16.6007 13.2082 17.6237C13.2082 19.0774 13.1908 20.2441 13.1908 20.6028C13.1908 20.89 13.3836 21.2312 13.9091 21.1235C18.1133 19.6875 21.1438 15.6316 21.1438 10.8399C21.1611 4.84544 16.414 0 10.5807 0Z" fill="#E6E6E6"/>
</svg>
