<svg width="15" height="14" viewBox="0 0 15 14" fill="none" xmlns="http://www.w3.org/2000/svg">
<path fill-rule="evenodd" clip-rule="evenodd" d="M0 1.07881C0 0.483002 0.476808 0 1.07881 0H2.68589C3.2817 0 3.7647 0.4768 3.7647 1.07881V2.68589C3.7647 3.2817 3.2879 3.76471 2.68589 3.76471H1.07881C0.483001 3.76471 0 3.28791 0 2.68589V1.07881ZM4.70588 1.07881C4.70588 0.483002 5.18269 0 5.78469 0H7.39177C7.98758 0 8.47059 0.4768 8.47059 1.07881V2.68589C8.47059 3.2817 7.99379 3.76471 7.39177 3.76471H5.78469C5.18888 3.76471 4.70588 3.28791 4.70588 2.68589V1.07881ZM0 5.7847C0 5.18888 0.476808 4.70588 1.07881 4.70588H2.68589C3.2817 4.70588 3.7647 5.18268 3.7647 5.7847V7.39177C3.7647 7.98759 3.2879 8.47059 2.68589 8.47059H1.07881C0.483001 8.47059 0 7.99379 0 7.39177V5.7847ZM0 10.4905C0 9.89478 0.476808 9.41176 1.07881 9.41176H2.68589C3.2817 9.41176 3.7647 9.88856 3.7647 10.4905V12.0977C3.7647 12.6935 3.2879 13.1765 2.68589 13.1765H1.07881C0.483001 13.1765 0 12.6997 0 12.0977V10.4905ZM4.70588 10.4905C4.70588 9.89478 5.18269 9.41176 5.78469 9.41176H7.39177C7.98758 9.41176 8.47059 9.88856 8.47059 10.4905V12.0977C8.47059 12.6935 7.99379 13.1765 7.39177 13.1765H5.78469C5.18888 13.1765 4.70588 12.6997 4.70588 12.0977V10.4905ZM4.70588 5.7847C4.70588 5.18888 5.18269 4.70588 5.78469 4.70588H7.39177C7.98758 4.70588 8.47059 5.18268 8.47059 5.7847V7.39177C8.47059 7.98759 7.99379 8.47059 7.39177 8.47059H5.78469C5.18888 8.47059 4.70588 7.99379 4.70588 7.39177V5.7847ZM9.4118 1.07881C9.4118 0.483002 9.8886 0 10.4906 0H12.0976C12.6935 0 13.1765 0.4768 13.1765 1.07881V2.68589C13.1765 3.2817 12.6997 3.76471 12.0976 3.76471H10.4906C9.89481 3.76471 9.4118 3.28791 9.4118 2.68589V1.07881ZM14.6968 9.18664C14.9198 9.4096 14.9198 9.76904 14.6968 9.99087C14.475 10.2138 14.1155 10.2138 13.8926 9.99087L12.9222 9.02061C12.8926 8.99096 12.8779 8.95464 12.8562 8.9216C12.5138 9.12979 12.1157 9.25609 11.6868 9.25609C10.4321 9.25609 9.4118 8.23567 9.4118 6.98097C9.4118 5.72626 10.4321 4.70588 11.6868 4.70588C12.9416 4.70588 13.9619 5.72626 13.9619 6.98097C13.9619 7.40982 13.8357 7.80795 13.6275 8.15035C13.6605 8.17197 13.6969 8.18676 13.7264 8.21634L14.6968 9.18664ZM11.6868 8.1185C12.3148 8.1185 12.8244 7.60888 12.8244 6.98097C12.8244 6.35304 12.3148 5.84343 11.6868 5.84343C11.059 5.84343 10.5493 6.35304 10.5493 6.98097C10.5493 7.60888 11.059 8.1185 11.6868 8.1185Z" fill="#D9D9D9"/>
</svg>
