<svg width="12" height="12" viewBox="0 0 12 12" fill="none" xmlns="http://www.w3.org/2000/svg">
<path fill-rule="evenodd" clip-rule="evenodd" d="M6.37845 0.56C6.37845 0.25072 6.12773 0 5.81845 0C5.50917 0 5.25845 0.25072 5.25845 0.56V3.30237L3.77476 4.04736C2.61844 4.62797 1.88855 5.81119 1.88855 7.10509V9.75451L0.989216 8.68142C0.79056 8.44437 0.437365 8.41326 0.20032 8.61191C-0.0367252 8.81057 -0.0678506 9.16379 0.130805 9.4008L2.01232 11.6459C2.11597 11.7697 2.26794 11.8426 2.42926 11.8461C2.59059 11.8497 2.7456 11.7834 2.85457 11.6644L4.91001 9.41925C5.11885 9.1912 5.10322 8.83692 4.8751 8.62807C4.64699 8.41923 4.29276 8.43486 4.08391 8.66298L3.00855 9.8376V7.10509C3.00855 6.23473 3.49952 5.43882 4.27733 5.04827L5.81845 4.27444L7.35961 5.04828C8.13742 5.43883 8.62836 6.23473 8.62836 7.1051V9.76165L7.72307 8.68142C7.52442 8.44437 7.17121 8.41326 6.93417 8.61191C6.69713 8.81057 6.66601 9.16379 6.86466 9.4008L8.74612 11.6459C8.8498 11.7697 9.0018 11.8426 9.16308 11.8461C9.32447 11.8497 9.47946 11.7834 9.58847 11.6644L11.6438 9.41925C11.8527 9.1912 11.8371 8.83692 11.6089 8.62807C11.3808 8.41923 11.0267 8.43486 10.8178 8.66298L9.74836 9.83099V7.1051C9.74836 5.81119 9.01855 4.62797 7.86218 4.04736L6.37845 3.30237V0.56Z" fill="#F5F5F5"/>
</svg>
