<svg width="13" height="13" viewBox="0 0 13 13" fill="none" xmlns="http://www.w3.org/2000/svg">
<path fill-rule="evenodd" clip-rule="evenodd" d="M6.81343 0.752941C6.81343 0.337101 6.47633 0 6.06049 0C5.64465 0 5.30755 0.337101 5.30755 0.752941V3.40224L4.4454 3.83514C2.89069 4.61579 1.90934 6.20667 1.90934 7.94636V9.51295L1.33004 8.82175C1.06295 8.50297 0.588048 8.46119 0.269338 8.72829C-0.0493823 8.9953 -0.0912271 9.47022 0.175879 9.789L2.0732 12.0529C2.21257 12.2192 2.41689 12.3173 2.6338 12.3221C2.85071 12.3268 3.05913 12.2378 3.20564 12.0778L5.27835 9.81375C5.55915 9.50702 5.53814 9.03079 5.23142 8.74994C4.92471 8.46919 4.44843 8.49017 4.16763 8.7969L3.41521 9.61874V7.94636C3.41521 6.77614 4.07534 5.70601 5.12113 5.1809L6.06049 4.70923L6.99988 5.1809C8.0457 5.70601 8.70584 6.77615 8.70584 7.94636V9.51577L8.12419 8.82175C7.85708 8.50297 7.38217 8.46119 7.06346 8.72829C6.74474 8.9953 6.70289 9.47022 6.97 9.789L8.86734 12.0529C9.00664 12.2192 9.21097 12.3173 9.42791 12.3221C9.64485 12.3268 9.85322 12.2378 9.99977 12.0778L12.0724 9.81375C12.3533 9.50702 12.3323 9.03079 12.0256 8.74994C11.7188 8.46919 11.2426 8.49017 10.9617 8.7969L10.2117 9.6162V7.94636C10.2117 6.20668 9.23035 4.61579 7.6756 3.83514L6.81343 3.40224V0.752941Z" fill="#267AD2"/>
</svg>
