<svg width="11" height="11" viewBox="0 0 11 11" fill="none" xmlns="http://www.w3.org/2000/svg">
<path fill-rule="evenodd" clip-rule="evenodd" d="M3.03696 1.15721C3.18773 1.43033 3.53043 1.52553 3.82132 1.41279C4.29352 1.22979 4.80692 1.12941 5.34375 1.12941C5.84238 1.12941 6.32079 1.21601 6.76475 1.37498C7.05326 1.47832 7.387 1.38052 7.53514 1.11219C7.68884 0.833788 7.58408 0.480414 7.2879 0.364678C6.6854 0.129233 6.02967 0 5.34375 0C4.60909 0 3.90905 0.148254 3.27193 0.41647C2.98445 0.537496 2.88622 0.884141 3.03696 1.15721ZM8.61467 2.07777C8.49194 2.30019 8.53034 2.57407 8.68535 2.7754C9.23265 3.48644 9.55811 4.37708 9.55811 5.34375C9.55811 7.67128 7.67124 9.55806 5.34375 9.55806C3.01623 9.55806 1.12941 7.67128 1.12941 5.34375C1.12941 4.4193 1.42707 3.56438 1.93176 2.86958C2.07777 2.66857 2.11113 2.4013 1.99108 2.1838C1.80414 1.84516 1.34512 1.77778 1.10896 2.08414C0.41359 2.98621 0 4.11669 0 5.34375C0 8.295 2.39248 10.6875 5.34375 10.6875C8.29505 10.6875 10.6875 8.295 10.6875 5.34375C10.6875 4.06343 10.2373 2.88828 9.48639 1.968C9.24639 1.67384 8.7982 1.74539 8.61467 2.07777Z" fill="#A9A9A9"/>
</svg>
