<svg width="16" height="16" viewBox="0 0 16 16" fill="none" xmlns="http://www.w3.org/2000/svg">
<path fill-rule="evenodd" clip-rule="evenodd" d="M14.6901 5.8486e-07C15.4135 6.16484e-07 16 0.578976 16 1.30999V3.26144C16 3.98493 15.421 4.57143 14.6901 4.57143H12.7385C12.0151 4.57143 11.4286 3.99246 11.4286 3.26144V1.30999C11.4286 0.586502 12.0075 4.67606e-07 12.7385 4.99559e-07L14.6901 5.8486e-07ZM14.6901 5.71429C15.4135 5.71429 16 6.29326 16 7.02428V8.97573C16 9.69921 15.421 10.2857 14.6901 10.2857H12.7385C12.0151 10.2857 11.4286 9.70674 11.4286 8.97573V7.02428C11.4286 6.30079 12.0075 5.71429 12.7385 5.71429H14.6901ZM8.97573 3.3508e-07C9.69921 3.66705e-07 10.2857 0.578976 10.2857 1.30999V3.26144C10.2857 3.98493 9.70674 4.57143 8.97573 4.57143H7.02427C6.30079 4.57143 5.71429 3.99246 5.71429 3.26144V1.30999C5.71429 0.586502 6.29326 2.17826e-07 7.02427 2.49779e-07L8.97573 3.3508e-07ZM3.26144 8.53005e-08C3.98493 1.16926e-07 4.57143 0.578974 4.57143 1.30999V3.26144C4.57143 3.98493 3.99246 4.57143 3.26144 4.57143H1.30999C0.586501 4.57143 -3.19531e-08 3.99246 0 3.26144L8.53009e-08 1.30999C1.16925e-07 0.586501 0.578974 -3.19531e-08 1.30999 0L3.26144 8.53005e-08ZM14.6901 11.4286C15.4135 11.4286 16 12.0075 16 12.7385V14.6901C16 15.4135 15.421 16 14.6901 16H12.7385C12.0151 16 11.4286 15.421 11.4286 14.6901V12.7385C11.4286 12.0151 12.0075 11.4286 12.7385 11.4286H14.6901Z" fill="#FF4931"/>
</svg>
