<svg width="14" height="14" viewBox="0 0 14 14" fill="none" xmlns="http://www.w3.org/2000/svg">
<path fill-rule="evenodd" clip-rule="evenodd" d="M6.58824 13.1765C8.33559 13.1765 10.0113 12.4824 11.2468 11.2468C12.4823 10.0112 13.1764 8.33555 13.1764 6.58824C13.1764 4.84093 12.4823 3.16519 11.2468 1.92966C10.0113 0.694118 8.33559 0 6.58824 0C4.84093 0 3.16519 0.694118 1.92966 1.92966C0.694118 3.16519 0 4.84093 0 6.58824C0 8.33555 0.694118 10.0112 1.92966 11.2468C3.16519 12.4824 4.84093 13.1765 6.58824 13.1765ZM3.87859 9.29793L2.928 10.2485C2.20404 9.52456 1.711 8.60221 1.51125 7.59804C1.31149 6.59389 1.414 5.55306 1.80578 4.60718C2.19757 3.66129 2.86105 2.85282 3.71232 2.28401C4.5636 1.7152 5.56442 1.4116 6.58824 1.4116C7.61206 1.4116 8.61286 1.7152 9.46415 2.28401C10.3154 2.85282 10.9789 3.66129 11.3707 4.60718C11.7625 5.55306 11.865 6.59389 11.6652 7.59804C11.4655 8.60221 10.9725 9.52456 10.2484 10.2485L9.29784 9.29793C9.03563 9.03553 8.72429 8.82753 8.38161 8.68551C8.03893 8.54358 7.67163 8.47054 7.30071 8.47063H5.87576C5.50485 8.47054 5.13755 8.54358 4.79487 8.68551C4.45219 8.82753 4.14083 9.03553 3.87859 9.29793Z" fill="#1AFB6F"/>
</svg>
