<svg width="14" height="11" viewBox="0 0 14 11" fill="none" xmlns="http://www.w3.org/2000/svg">
<path fill-rule="evenodd" clip-rule="evenodd" d="M4.50001 10C4.50001 9.448 4.94401 9 5.50001 9H8.50001C9.05201 9 9.50001 9.444 9.50001 10C9.50001 10.552 9.05601 11 8.50001 11H5.50001C4.94801 11 4.50001 10.556 4.50001 10ZM2.50001 6C2.50001 5.448 2.94601 5 3.49801 5H10.5021C11.053 5 11.5 5.444 11.5 6C11.5 6.552 11.0541 7 10.5021 7H3.49801C3.36671 7.00026 3.23665 6.97456 3.11531 6.92438C2.99398 6.87419 2.88377 6.80051 2.79102 6.70758C2.69826 6.61464 2.6248 6.50427 2.57486 6.38285C2.52491 6.26141 2.49949 6.1313 2.50001 6ZM8.37626e-06 1.5C8.37626e-06 0.672 0.675006 0 1.49801 0H12.5021C13.329 0 14 0.666 14 1.5C14 2.328 13.325 3 12.5021 3H1.49801C1.30101 3.0004 1.10587 2.96185 0.923818 2.88658C0.74176 2.81133 0.576378 2.70081 0.437166 2.56142C0.297966 2.42203 0.18768 2.25649 0.112655 2.07434C0.0376313 1.89218 -0.000651052 1.69699 8.37626e-06 1.5Z" fill="#FF4931"/>
</svg>
