<svg width="16" height="13" viewBox="0 0 16 13" fill="none" xmlns="http://www.w3.org/2000/svg">
<path fill-rule="evenodd" clip-rule="evenodd" d="M13.323 10.687C13.3299 10.626 13.333 10.5639 13.333 10.4999C13.333 8.918 12.911 7.74499 12.1459 6.934C12.476 6.766 12.868 6.66699 13.333 6.66699C15.333 6.66699 16 8.5 16 9.75C16 10.377 14.66 10.69 13.323 10.687ZM3.85299 6.934C3.08899 7.744 2.66699 8.918 2.66699 10.4999C2.66699 10.5639 2.67 10.626 2.676 10.687C1.33899 10.69 0 10.377 0 9.75C0 8.5 0.667 6.66699 2.66699 6.66699C3.132 6.66699 3.52299 6.766 3.85299 6.934ZM8 5C7.33696 5 6.70107 4.73661 6.23223 4.26777C5.76339 3.79893 5.5 3.16304 5.5 2.5C5.5 1.83696 5.76339 1.20107 6.23223 0.732229C6.70107 0.263394 7.33696 0 8 0C8.66304 0 9.29893 0.263394 9.76776 0.732229C10.2366 1.20107 10.5 1.83696 10.5 2.5C10.5 3.16304 10.2366 3.79893 9.76776 4.26777C9.29893 4.73661 8.66304 5 8 5ZM13.333 6C12.8025 6 12.2938 5.78928 11.9187 5.41422C11.5437 5.03914 11.333 4.53043 11.333 4C11.333 3.46957 11.5437 2.96086 11.9187 2.58578C12.2938 2.21071 12.8025 2 13.333 2C13.8634 2 14.3721 2.21071 14.7472 2.58578C15.1223 2.96086 15.333 3.46957 15.333 4C15.333 4.53043 15.1223 5.03914 14.7472 5.41422C14.3721 5.78928 13.8634 6 13.333 6ZM2.66699 6C2.13657 6 1.62786 5.78928 1.25279 5.41422C0.877713 5.03914 0.667 4.53043 0.667 4C0.667 3.46957 0.877713 2.96086 1.25279 2.58578C1.62786 2.21071 2.13657 2 2.66699 2C3.19743 2 3.70614 2.21071 4.08121 2.58578C4.45629 2.96086 4.66699 3.46957 4.66699 4C4.66699 4.53043 4.45629 5.03914 4.08121 5.41422C3.70614 5.78928 3.19743 6 2.66699 6ZM8 6C10.667 6 12.5 7 12.5 10.4999C12.5 11.445 11.5 12.4999 8 12.4999C4.5 12.4999 3.5 11.555 3.5 10.4999C3.5 7 5.33299 6 8 6Z" fill="#267AD2"/>
</svg>
