<svg width="15" height="14" viewBox="0 0 15 14" fill="none" xmlns="http://www.w3.org/2000/svg">
<path fill-rule="evenodd" clip-rule="evenodd" d="M0 1.06982C0 0.478976 0.472828 0 1.06982 0H2.66351C3.25435 0 3.73333 0.472832 3.73333 1.06982V2.66351C3.73333 3.25436 3.26051 3.73333 2.66351 3.73333H1.06982C0.478972 3.73333 0 3.2605 0 2.66351V1.06982ZM4.66666 1.06982C4.66666 0.478976 5.1395 0 5.73649 0H7.33017C7.92102 0 8.4 0.472832 8.4 1.06982V2.66351C8.4 3.25436 7.92717 3.73333 7.33017 3.73333H5.73649C5.14564 3.73333 4.66666 3.2605 4.66666 2.66351V1.06982ZM0 5.73649C0 5.14564 0.472828 4.66667 1.06982 4.66667H2.66351C3.25435 4.66667 3.73333 5.1395 3.73333 5.73649V7.33018C3.73333 7.92102 3.26051 8.4 2.66351 8.4H1.06982C0.478972 8.4 0 7.92717 0 7.33018V5.73649ZM0 10.4032C0 9.81227 0.472828 9.33333 1.06982 9.33333H2.66351C3.25435 9.33333 3.73333 9.80619 3.73333 10.4032V11.9968C3.73333 12.5877 3.26051 13.0667 2.66351 13.0667H1.06982C0.478972 13.0667 0 12.5938 0 11.9968V10.4032ZM4.66666 10.4032C4.66666 9.81227 5.1395 9.33333 5.73649 9.33333H7.33017C7.92102 9.33333 8.4 9.80619 8.4 10.4032V11.9968C8.4 12.5877 7.92717 13.0667 7.33017 13.0667H5.73649C5.14564 13.0667 4.66666 12.5938 4.66666 11.9968V10.4032ZM4.66666 5.73649C4.66666 5.14564 5.1395 4.66667 5.73649 4.66667H7.33017C7.92102 4.66667 8.4 5.1395 8.4 5.73649V7.33018C8.4 7.92102 7.92717 8.4 7.33017 8.4H5.73649C5.14564 8.4 4.66666 7.92717 4.66666 7.33018V5.73649ZM9.33333 1.06982C9.33333 0.478976 9.80616 0 10.4032 0H11.9969C12.5877 0 13.0666 0.472832 13.0666 1.06982V2.66351C13.0666 3.25436 12.5939 3.73333 11.9969 3.73333H10.4032C9.81231 3.73333 9.33333 3.2605 9.33333 2.66351V1.06982ZM14.5744 9.1101C14.7954 9.3312 14.7954 9.68767 14.5744 9.90763C14.3543 10.1287 13.9978 10.1287 13.7768 9.90763L12.8146 8.94541C12.7852 8.91608 12.7705 8.87998 12.7491 8.84726C12.4096 9.0537 12.0148 9.17891 11.5895 9.17891C10.3452 9.17891 9.33333 8.16704 9.33333 6.92279C9.33333 5.67854 10.3452 4.66667 11.5895 4.66667C12.8337 4.66667 13.8456 5.67854 13.8456 6.92279C13.8456 7.34806 13.7204 7.74289 13.514 8.08243C13.5466 8.10387 13.5828 8.11854 13.6121 8.14786L14.5744 9.1101ZM11.5895 8.05085C12.2121 8.05085 12.7175 7.54548 12.7175 6.92279C12.7175 6.3001 12.2121 5.79473 11.5895 5.79473C10.9668 5.79473 10.4614 6.3001 10.4614 6.92279C10.4614 7.54548 10.9668 8.05085 11.5895 8.05085Z" fill="#FF4931"/>
</svg>
