<svg width="16" height="12" viewBox="0 0 16 12" fill="none" xmlns="http://www.w3.org/2000/svg">
<path fill-rule="evenodd" clip-rule="evenodd" d="M12.5393 10.0584C12.5459 10.001 12.5487 9.94263 12.5487 9.88239C12.5487 8.39345 12.1515 7.28941 11.4315 6.52612C11.7421 6.368 12.1111 6.27482 12.5487 6.27482C14.4311 6.27482 15.0588 8.00004 15.0588 9.17651C15.0588 9.76663 13.7976 10.0612 12.5393 10.0584ZM3.62635 6.52612C2.90729 7.28847 2.51012 8.39345 2.51012 9.88239C2.51012 9.94263 2.51294 10.001 2.51859 10.0584C1.26024 10.0612 0 9.76663 0 9.17651C0 8.00004 0.627765 6.27482 2.51012 6.27482C2.94776 6.27482 3.31671 6.368 3.62729 6.52612H3.62635ZM7.52941 4.70588C6.90537 4.70588 6.30689 4.45799 5.86563 4.01672C5.42437 3.57546 5.17647 2.97698 5.17647 2.35294C5.17647 1.7289 5.42437 1.13042 5.86563 0.689158C6.30689 0.247896 6.90537 0 7.52941 0C8.15345 0 8.75193 0.247896 9.1932 0.689158C9.63445 1.13042 9.88235 1.7289 9.88235 2.35294C9.88235 2.97698 9.63445 3.57546 9.1932 4.01672C8.75193 4.45799 8.15345 4.70588 7.52941 4.70588ZM12.5487 5.64706C12.0495 5.64706 11.5707 5.44874 11.2177 5.09573C10.8647 4.74272 10.6664 4.26393 10.6664 3.76471C10.6664 3.26548 10.8647 2.78669 11.2177 2.43368C11.5707 2.08067 12.0495 1.88235 12.5487 1.88235C13.0479 1.88235 13.5267 2.08067 13.8797 2.43368C14.2328 2.78669 14.4311 3.26548 14.4311 3.76471C14.4311 4.26393 14.2328 4.74272 13.8797 5.09573C13.5267 5.44874 13.0479 5.64706 12.5487 5.64706ZM2.51012 5.64706C2.01089 5.64706 1.5321 5.44874 1.1791 5.09573C0.826084 4.74272 0.627765 4.26393 0.627765 3.76471C0.627765 3.26548 0.826084 2.78669 1.1791 2.43368C1.5321 2.08067 2.01089 1.88235 2.51012 1.88235C3.00935 1.88235 3.48813 2.08067 3.84114 2.43368C4.19416 2.78669 4.39247 3.26548 4.39247 3.76471C4.39247 4.26393 4.19416 4.74272 3.84114 5.09573C3.48813 5.44874 3.00935 5.64706 2.51012 5.64706ZM7.52941 5.64706C10.0395 5.64706 11.7647 6.58824 11.7647 9.88239C11.7647 10.7718 10.8235 11.7647 7.52941 11.7647C4.23529 11.7647 3.29412 10.8753 3.29412 9.88239C3.29412 6.58824 5.01929 5.64706 7.52941 5.64706Z" fill="#F5F5F5"/>
</svg>
