<svg width="14" height="13" viewBox="0 0 14 13" fill="none" xmlns="http://www.w3.org/2000/svg">
<path d="M0 5.78049C0 5.29878 0.385366 4.81707 0.963415 4.81707H12.5244C13.0061 4.81707 13.4878 5.20244 13.4878 5.78049C13.4878 6.26219 13.1024 6.7439 12.5244 6.7439H0.963415C0.481707 6.7439 0 6.35854 0 5.78049ZM0.963415 0C0.481707 0 0 0.385366 0 0.963415C0 1.44512 0.385366 1.92683 0.963415 1.92683H12.5244C13.0061 1.92683 13.4878 1.54146 13.4878 0.963415C13.4878 0.481707 13.1024 0 12.5244 0H0.963415ZM5.68415 12.0427V11.561H0.963415C0.481707 11.561 0 11.1756 0 10.5976C0 10.1159 0.385366 9.63415 0.963415 9.63415H5.68415V9.34512C5.68415 8.95976 6.06951 8.76707 6.45488 8.95976L8.28537 10.2122C8.67073 10.5012 8.67073 10.9829 8.28537 11.272L6.45488 12.5244C6.06951 12.6207 5.68415 12.428 5.68415 12.0427Z" fill="#1AFB6F"/>
</svg>
