<svg width="6" height="5" viewBox="0 0 6 5" fill="none" xmlns="http://www.w3.org/2000/svg">
<path fill-rule="evenodd" clip-rule="evenodd" d="M5.50859 3.47974L4.15759 2.64073C4.26278 2.18394 4.21701 1.70536 4.02714 1.27679C3.83729 0.848206 3.51358 0.492754 3.10459 0.263737C2.86253 0.128628 2.5959 0.0432799 2.32038 0.012697C2.04486 -0.0178859 1.76601 0.00691429 1.50021 0.0856343C1.23441 0.164366 0.987029 0.295417 0.772606 0.47112C0.558183 0.646811 0.38104 0.8636 0.251589 1.10873C-0.0129577 1.60859 -0.0715119 2.19209 0.0884401 2.73455C0.248389 3.27699 0.61416 3.73538 1.10759 4.01174C2.08959 4.55673 3.30459 4.23174 3.88859 3.29174L4.76759 3.95873L4.80259 4.08073L5.51059 3.47873L5.50859 3.47974ZM1.70559 2.88873C1.80272 2.9439 1.9099 2.97909 2.02081 2.99223C2.13174 3.00537 2.24416 2.99621 2.35149 2.96528C2.45882 2.93434 2.55888 2.88226 2.64579 2.8121C2.73271 2.74195 2.80472 2.65512 2.85759 2.55673C2.96263 2.35461 2.98451 2.11944 2.91856 1.90141C2.85261 1.68337 2.70405 1.49975 2.50459 1.38974C2.40746 1.33457 2.3003 1.29938 2.18937 1.28624C2.07845 1.2731 1.96602 1.28226 1.8587 1.31319C1.75136 1.34413 1.6513 1.39619 1.56439 1.46635C1.47747 1.53651 1.40546 1.62335 1.35259 1.72174C1.24755 1.92386 1.22567 2.15903 1.29162 2.37706C1.35758 2.5951 1.50614 2.77872 1.70559 2.88873Z" fill="#267AD2"/>
</svg>
