<svg width="10" height="10" viewBox="0 0 10 10" fill="none" xmlns="http://www.w3.org/2000/svg">
<path fill-rule="evenodd" clip-rule="evenodd" d="M9.53166 5.23161C8.64673 7.7015 6.28513 9.46841 3.51086 9.46841C3.46388 9.46841 3.41697 9.4679 3.37018 9.46694C2.73249 7.93843 2.45434 6.32991 2.68846 4.58297C2.76954 4.29311 2.8818 3.86969 2.86382 3.48633C2.85562 3.31091 2.66318 3.33215 2.61486 3.50105C2.55591 3.70687 2.47374 3.92268 2.36954 4.11347C2.25006 4.13299 2.09761 4.14668 1.90543 4.13535C1.30022 4.09977 0.854082 3.78393 0.758773 3.68185C0.585653 3.76031 0.574805 3.81843 0.564425 3.87404C0.557897 3.90905 0.55156 3.94297 0.50516 3.98041L0.490908 3.99206C0.406767 4.06124 0.34525 4.1118 0.152028 3.81855C-0.0218026 3.47769 -0.149975 2.97996 0.372706 2.44454C0.683637 2.12607 1.30533 1.86598 1.3939 1.85235C1.3939 1.34858 1.78876 0.440417 2.91911 0.122594C4.11162 -0.212702 5.4882 0.127982 6.28346 1.2905C6.78305 2.0208 6.83207 2.44281 6.86945 2.76479C6.90842 3.10041 6.93479 3.32748 7.44551 3.68185C7.58663 3.77971 7.72833 3.87526 7.87124 3.97164C8.39962 4.32787 8.9442 4.69497 9.53166 5.23161ZM3.29511 1.91225C3.48391 1.91225 3.63694 1.75923 3.63694 1.57043C3.63694 1.3816 3.48391 1.22854 3.29511 1.22854C3.10631 1.22854 2.95322 1.3816 2.95322 1.57043C2.95322 1.75923 3.10631 1.91225 3.29511 1.91225Z" fill="#1AFB6F"/>
</svg>
