<svg width="14" height="9" viewBox="0 0 14 9" fill="none" xmlns="http://www.w3.org/2000/svg">
<path fill-rule="evenodd" clip-rule="evenodd" d="M4.7102 3.97416L4.48714 4.74404L3.65985 5.37274C3.39491 4.94434 2.97489 4.63467 2.4873 4.50826C1.99972 4.38186 1.48216 4.44844 1.04244 4.69416C0.578033 4.95425 0.233779 5.38567 0.0832375 5.89624C-0.0673056 6.40673 -0.0121949 6.95591 0.23679 7.4264C0.358626 7.65708 0.525346 7.86113 0.727153 8.02649C0.928969 8.19186 1.1618 8.31525 1.41196 8.38932C1.66213 8.46339 1.92457 8.48673 2.18389 8.45793C2.4432 8.42913 2.69415 8.34885 2.92197 8.22169C3.3069 8.00617 3.61157 7.67158 3.79025 7.26819C3.96894 6.8649 4.01202 6.41445 3.91303 5.98452L13.1761 0.245215C12.2463 -0.0342674 11.2613 -0.0755848 10.3113 0.125055C9.36141 0.325686 8.47718 0.761845 7.73985 1.39345L4.7102 3.97416ZM2.69044 6.06452C2.64068 5.97191 2.5729 5.89021 2.49111 5.82414C2.4093 5.75817 2.31512 5.70913 2.21411 5.67995C2.11309 5.65087 2.00728 5.64231 1.90288 5.65464C1.79848 5.66697 1.69762 5.7001 1.6062 5.75205C1.41848 5.85558 1.27865 6.02838 1.21658 6.23365C1.15451 6.43882 1.17511 6.66019 1.27397 6.8504C1.32374 6.94301 1.39151 7.02471 1.47331 7.09078C1.55511 7.15675 1.64928 7.20579 1.7503 7.23487C1.85131 7.26405 1.95713 7.27261 2.06152 7.26028C2.16592 7.24786 2.2668 7.21473 2.3582 7.16287C2.54593 7.05934 2.68575 6.88654 2.74782 6.68127C2.80989 6.4761 2.7893 6.25473 2.69044 6.06452Z" fill="#F5F5F5"/>
</svg>
