<svg width="14" height="14" viewBox="0 0 14 14" fill="none" xmlns="http://www.w3.org/2000/svg">
<path d="M12.3628 8.4C12.7171 8.4 13.01 8.66338 13.0563 9.00498L13.0627 9.1V10.4977C13.0627 11.8611 11.9996 12.9765 10.6565 13.0594L10.5004 13.0643L9.10122 13.0667C8.71462 13.0673 8.40065 12.7545 8.4 12.3679C8.3994 12.0134 8.66226 11.7201 9.00386 11.6732L9.09878 11.6667L10.498 11.6643C11.1013 11.6634 11.5971 11.2044 11.6566 10.6167L11.6627 10.4977V9.1C11.6627 8.71342 11.9761 8.4 12.3628 8.4ZM0.7 8.4C1.08659 8.4 1.4 8.71342 1.4 9.1V10.4977C1.4 11.1412 1.92113 11.6633 2.56469 11.6643L3.96389 11.6667C4.3505 11.6673 4.66336 11.9813 4.66271 12.3679C4.66206 12.7545 4.34813 13.0673 3.96154 13.0667L2.56233 13.0643C1.1465 13.0619 0 11.9134 0 10.4977V9.1C0 8.71342 0.313408 8.4 0.7 8.4ZM6.53333 4.66667C7.56427 4.66667 8.4 5.5024 8.4 6.53333C8.4 7.56427 7.56427 8.4 6.53333 8.4C5.5024 8.4 4.66667 7.56427 4.66667 6.53333C4.66667 5.5024 5.5024 4.66667 6.53333 4.66667ZM9.10122 1.01635e-06L10.5004 0.00237115C11.9163 0.00476048 13.0627 1.15319 13.0627 2.56902V3.96667C13.0627 4.35327 12.7493 4.66667 12.3628 4.66667C11.9761 4.66667 11.6627 4.35327 11.6627 3.96667V2.56902C11.6627 1.92547 11.1415 1.40346 10.498 1.40236L9.09878 1.4C8.7122 1.39935 8.39935 1.08542 8.4 0.698816C8.40065 0.312224 8.71462 -0.000650717 9.10122 1.01635e-06ZM3.96548 1.01635e-06C4.35209 -0.00064965 4.66602 0.312224 4.66667 0.698816C4.66732 1.08542 4.35444 1.39935 3.96785 1.4L2.56864 1.40236C1.92509 1.40346 1.40396 1.92547 1.40396 2.56902V3.96667C1.40396 4.35327 1.09055 4.66667 0.703957 4.66667C0.317355 4.66667 0.00395737 4.35327 0.00395737 3.96667V2.56902C0.00395737 1.15319 1.15044 0.00476048 2.56628 0.00237115L3.96548 1.01635e-06Z" fill="#9E57B3"/>
</svg>
