<svg width="14" height="14" viewBox="0 0 14 14" fill="none" xmlns="http://www.w3.org/2000/svg">
<path fill-rule="evenodd" clip-rule="evenodd" d="M5.67103 0.365633C6.15913 -0.12247 6.95258 -0.121285 7.4395 0.365633L8.61851 1.54461C9.10661 2.0327 9.10538 2.82616 8.61851 3.31308L7.4395 4.49205C6.95141 4.98016 6.15795 4.97897 5.67103 4.49205L4.49206 3.31308C4.00395 2.82498 4.00514 2.03152 4.49206 1.54461L5.67103 0.365633ZM1.54461 4.49205C2.03271 4.00396 2.82616 4.00513 3.31307 4.49205L4.49206 5.67104C4.98015 6.15913 4.97897 6.95258 4.49206 7.4395L3.31307 8.61846C2.82498 9.10656 2.03153 9.10543 1.54461 8.61846L0.365629 7.4395C-0.122465 6.9514 -0.121287 6.15795 0.365629 5.67104L1.54461 4.49205ZM9.79743 4.49205C10.2855 4.00396 11.079 4.00513 11.5659 4.49205L12.7449 5.67104C13.233 6.15913 13.2318 6.95258 12.7449 7.4395L11.5659 8.61846C11.0778 9.10656 10.2844 9.10543 9.79743 8.61846L8.61851 7.4395C8.13038 6.9514 8.13156 6.15795 8.61851 5.67104L9.79743 4.49205ZM5.67103 8.61846C6.15913 8.13038 6.95258 8.13156 7.4395 8.61846L8.61851 9.79747C9.10661 10.2856 9.10538 11.079 8.61851 11.5659L7.4395 12.7449C6.95141 13.233 6.15795 13.2318 5.67103 12.7449L4.49206 11.5659C4.00395 11.0778 4.00514 10.2843 4.49206 9.79747L5.67103 8.61846Z" fill="#F5F5F5"/>
</svg>
