<svg width="12" height="12" viewBox="0 0 12 12" fill="none" xmlns="http://www.w3.org/2000/svg">
<path fill-rule="evenodd" clip-rule="evenodd" d="M6.37845 0.56C6.37845 0.250731 6.12773 0 5.81845 0C5.50917 0 5.25845 0.250731 5.25845 0.56V3.30238L3.77475 4.04737C2.61844 4.62797 1.88856 5.81119 1.88856 7.10509V9.75444L0.989217 8.68131C0.790561 8.44427 0.437356 8.41315 0.20031 8.61181C-0.0367243 8.81045 -0.0678497 9.16362 0.130806 9.40074L2.01232 11.6459C2.11597 11.7695 2.26794 11.8424 2.42926 11.846C2.59059 11.8495 2.7456 11.7832 2.85457 11.6643L4.91 9.41919C5.11884 9.19103 5.10322 8.83681 4.87511 8.62797C4.64699 8.41913 4.29276 8.43474 4.08392 8.66287L3.00856 9.83743V7.10509C3.00856 6.23473 3.49952 5.43883 4.27733 5.04828L5.81845 4.27444L7.3596 5.04828C8.13742 5.43883 8.62838 6.23474 8.62838 7.1051V9.76159L7.72307 8.68131C7.52442 8.44427 7.17121 8.41315 6.93417 8.61181C6.69712 8.81045 6.66601 9.16362 6.86466 9.40074L8.74615 11.6459C8.84983 11.7695 9.00182 11.8424 9.1631 11.846C9.32449 11.8495 9.47948 11.7832 9.58839 11.6643L11.6439 9.41919C11.8527 9.19103 11.837 8.83681 11.609 8.62797C11.3808 8.41913 11.0266 8.43474 10.8177 8.66287L9.74839 9.83092V7.1051C9.74839 5.8112 9.01847 4.62797 7.86217 4.04737L6.37845 3.30237V0.56Z" fill="#267AD2"/>
</svg>
