<svg width="12" height="12" viewBox="0 0 12 12" fill="none" xmlns="http://www.w3.org/2000/svg">
<path fill-rule="evenodd" clip-rule="evenodd" d="M5.77129 0C2.57991 0 0 2.64297 0 5.91267C0 8.52634 1.65304 10.7387 3.94625 11.5218C4.23295 11.5807 4.33797 11.3946 4.33797 11.238C4.33797 11.101 4.32853 10.6311 4.32853 10.1415C2.72308 10.494 2.38877 9.43672 2.38877 9.43672C2.13076 8.75148 1.74849 8.57534 1.74849 8.57534C1.22303 8.21314 1.78676 8.21314 1.78676 8.21314C2.36963 8.25232 2.67548 8.82008 2.67548 8.82008C3.19135 9.7206 4.02266 9.46616 4.3571 9.30948C4.40484 8.92772 4.55783 8.6634 4.72025 8.51661C3.43978 8.37955 2.09261 7.87052 2.09261 5.59938C2.09261 4.95329 2.32179 4.42471 2.68493 4.01359C2.62763 3.86677 2.42692 3.25973 2.74234 2.44727C2.74234 2.44727 3.22965 2.29061 4.3284 3.05418C4.7988 2.92477 5.28396 2.85893 5.77129 2.85837C6.25858 2.85837 6.75532 2.92697 7.21404 3.05418C8.31292 2.29061 8.80022 2.44727 8.80022 2.44727C9.11562 3.25973 8.9148 3.86677 8.85749 4.01359C9.2302 4.42471 9.44993 4.95329 9.44993 5.59938C9.44993 7.87052 8.10276 8.36969 6.81272 8.51661C7.02302 8.70257 7.20447 9.05492 7.20447 9.61295C7.20447 10.4059 7.195 11.0422 7.195 11.2379C7.195 11.3946 7.30015 11.5807 7.58676 11.5219C9.87996 10.7386 11.533 8.52634 11.533 5.91267C11.5424 2.64297 8.95307 0 5.77129 0Z" fill="#939393"/>
</svg>
