<svg width="6" height="6" viewBox="0 0 6 6" fill="none" xmlns="http://www.w3.org/2000/svg">
<path fill-rule="evenodd" clip-rule="evenodd" d="M5.04859 2.00252C5.19421 1.97642 5.28478 1.82809 5.22695 1.69191C4.80456 0.697427 3.81889 0 2.67031 0C1.50503 0 0.507416 0.717871 0.0955887 1.7355C0.0408071 1.87087 0.130826 2.01636 0.274456 2.04273L2.4782 2.44736C2.50724 2.45269 2.53702 2.45275 2.56609 2.44754L5.04859 2.00252ZM5.34555 3.52187C5.39063 3.35973 5.24514 3.21767 5.07948 3.24737L2.6294 3.68658C2.55672 3.69961 2.4823 3.69946 2.40968 3.68612L0.275096 3.29419C0.10749 3.26342 -0.0392546 3.40857 0.00948391 3.57185C0.35149 4.71761 1.41336 5.55289 2.67031 5.55289C3.94547 5.55289 5.01985 4.69324 5.34555 3.52187Z" fill="#A9A9A9"/>
</svg>
