<svg width="224" height="135" viewBox="0 0 224 135" fill="none" xmlns="http://www.w3.org/2000/svg">
<path fill-rule="evenodd" clip-rule="evenodd" d="M89.5256 0.543455H45.5355V44.348H89.5256V0.543455ZM90.069 44.348V0.543455H133.898V15.3177C129.117 12.4287 123.116 11.6601 117.466 13.7395C107.6 17.3709 102.546 28.3126 106.177 38.1784L108.448 44.348H90.069ZM89.5256 44.8915H45.5355V88.8815H89.5256V44.8915ZM90.069 88.8815V44.8915H108.648L121.956 81.0461L120.579 81.5527L119.793 79.415L119.597 78.8872L119.087 79.0749L120.068 81.7407L119.033 82.1218C118.61 82.2772 118.142 82.0608 117.986 81.6383L117.565 80.4912C117.305 79.787 116.524 79.4263 115.82 79.6855L110.936 81.4831C110.232 81.7424 109.872 82.5233 110.13 83.2274L112.212 88.8815H90.069ZM89.5256 89.425H45.5355V133.535H89.5256V89.425ZM90.069 133.535V89.425H112.507C112.867 89.8362 113.456 90.0054 114 89.8054L115.032 89.425H122.897L128.884 105.692C130.041 108.835 131.868 111.536 134.145 113.694H133.898V133.535H90.069ZM134.441 133.535H155.359L150.164 119.42C144.357 119.845 138.667 117.821 134.441 113.969V133.535ZM150.725 119.372L155.938 133.535H166.972L160.46 115.842C159.073 116.783 157.551 117.571 155.908 118.175C154.198 118.804 152.458 119.198 150.725 119.372ZM160.92 115.521L167.55 133.535H178.593V89.425H167.755L168.391 91.151C171.734 100.233 168.42 110.14 160.92 115.521ZM167.555 88.8815H178.593V44.8915H149.215L157.607 67.6907L158.989 67.1821L158.192 65.0165L158.702 64.8288L159.5 66.9941L160.13 66.7624C160.552 66.6068 160.768 66.1383 160.613 65.7158L160.267 64.7754C160.008 64.0713 160.368 63.2902 161.073 63.0311L165.966 61.23C166.67 60.9709 167.452 61.3315 167.71 62.0357L169.835 67.808C170.094 68.5121 169.733 69.293 169.03 69.5522L164.145 71.3499C163.441 71.6091 162.66 71.2484 162.401 70.5442L161.979 69.397C161.824 68.9746 161.355 68.7582 160.932 68.9137L160.293 69.1488L166.191 85.1727C166.215 85.2368 166.238 85.3008 166.261 85.3649L167.555 88.8815ZM160.105 68.6388L160.744 68.4036C161.449 68.1445 162.23 68.5052 162.489 69.2093L162.91 70.3565C163.067 70.7789 163.535 70.9954 163.957 70.8399L168.842 69.0423C169.265 68.8867 169.481 68.4182 169.325 67.9957L167.201 62.2234C167.045 61.801 166.577 61.5846 166.154 61.74L161.261 63.5411C160.838 63.6966 160.621 64.1652 160.777 64.5877L161.124 65.5281C161.382 66.2323 161.021 67.0132 160.317 67.2723L159.688 67.5041L160.105 68.6388ZM159.594 68.8268L159.177 67.6921L157.795 68.2007L158.213 69.3354L159.594 68.8268ZM158.401 69.8454L163.325 83.2221C164.012 85.0891 164.388 86.9944 164.479 88.8815H166.635C166.437 87.7659 166.144 86.6521 165.749 85.5501L159.782 69.3368L158.401 69.8454ZM166.724 89.425H164.497C164.616 95.4595 161.836 101.25 157.022 104.926L158.526 109.013C164.644 104.555 167.857 96.9858 166.724 89.425ZM158.535 109.675L158.741 109.599L158.72 109.544C164.947 105.077 168.289 97.4892 167.33 89.8438L167.881 91.3387C171.793 101.966 166.348 113.753 155.721 117.665C145.093 121.577 133.305 116.133 129.395 105.504L128.841 104.002C134.09 112.009 144.338 115.646 153.709 112.197C155.46 111.552 157.075 110.699 158.535 109.675ZM158.066 109.339L156.566 105.263C155.203 106.241 153.687 107.053 152.036 107.661C150.319 108.293 148.568 108.662 146.83 108.788L148.331 112.866C150.065 112.704 151.809 112.316 153.521 111.687C155.165 111.082 156.686 110.287 158.066 109.339ZM147.768 112.911L146.262 108.821C142.005 109.001 137.847 107.734 134.441 105.321V108.922H134.23C138.082 111.77 142.879 113.231 147.768 112.911ZM133.898 108.671V104.921C131.121 102.802 128.892 99.8937 127.597 96.3724L125.039 89.425H123.476L127.195 99.5262C128.577 103.284 130.946 106.393 133.898 108.671ZM123.276 88.8815H124.839L122.749 83.2008L121.372 83.7074L123.276 88.8815ZM121.184 83.1974L122.561 82.6908L122.144 81.5561L120.767 82.0627L121.184 83.1974ZM120.673 83.3854L120.256 82.2508L119.221 82.6318C118.517 82.8909 117.735 82.5303 117.477 81.826L117.054 80.6789C116.898 80.2564 116.43 80.0399 116.008 80.1955L111.124 81.9931C110.701 82.1486 110.485 82.6172 110.64 83.0397L112.765 88.8119C112.774 88.8358 112.783 88.859 112.794 88.8815H114.935L118.705 87.4943C119.128 87.3387 119.344 86.8702 119.189 86.4477L118.842 85.5073C118.583 84.8032 118.944 84.0222 119.648 83.763L120.673 83.3854ZM116.509 88.8815H122.697L120.861 83.8954L119.835 84.273C119.413 84.4285 119.196 84.8971 119.353 85.3196L119.698 86.26C119.957 86.9642 119.597 87.7451 118.893 88.0043L116.509 88.8815ZM126.084 89.1143V88.8815H125.998L125.866 88.525L159.554 76.1257L162.304 83.5975C165.05 91.0569 162.53 99.1686 156.627 103.856L156.606 103.8L156.097 103.988L156.175 104.202C154.828 105.204 153.316 106.032 151.66 106.641C149.937 107.275 148.18 107.628 146.438 107.724L146.379 107.564L145.886 107.746C138.421 107.923 131.34 103.395 128.616 95.9969L126.084 89.1143ZM159.366 75.6157L156.775 68.5761L156.709 68.6008L156.521 68.0908L156.588 68.0661L154.693 62.9188L121.006 75.3183L125.678 88.015L159.366 75.6157ZM120.818 74.8083L154.505 62.4089L140.885 25.4036C137.461 16.101 127.144 11.3355 117.842 14.7596C108.539 18.1836 103.773 28.5005 107.197 37.803L120.818 74.8083ZM149.015 44.348H178.593V0.543455H134.441V15.6588C137.758 17.8187 140.432 21.0279 141.905 25.0281L149.015 44.348ZM179.137 0.543455V44.348H223.36V3.26073C223.36 1.76002 222.143 0.543455 220.643 0.543455H179.137ZM223.36 44.8915H179.137V88.8815H223.36V44.8915ZM223.36 89.425H179.137V133.535H220.643C222.143 133.535 223.36 132.318 223.36 130.818V89.425ZM220.643 134.079C222.444 134.079 223.903 132.619 223.903 130.818V3.26073C223.903 1.45987 222.444 0 220.643 0H3.26073C1.45987 0 0 1.45988 0 3.26073V130.818C0 132.619 1.45987 134.079 3.26072 134.079H220.643ZM44.992 133.535V89.425H0.543456V130.818C0.543456 132.318 1.76001 133.535 3.26072 133.535H44.992ZM0.543456 88.8815H44.992V44.8915H0.543456V88.8815ZM0.543456 44.348H44.992V0.543455H3.26073C1.76002 0.543455 0.543456 1.76002 0.543456 3.26073V44.348Z" fill="#424242"/>
</svg>
