<svg width="12" height="14" viewBox="0 0 12 14" fill="none" xmlns="http://www.w3.org/2000/svg">
<path fill-rule="evenodd" clip-rule="evenodd" d="M0 2.5V3.5C0 4.0628 0.44633 4.58217 1.19956 5C1.25478 5.03063 1.31165 5.06072 1.37011 5.09023C2.4706 5.64585 4.13604 6 6 6C7.96298 6 9.7058 5.60722 10.8004 5C11.5537 4.58217 12 4.06281 12 3.5V2.5C12 1.11929 9.3137 0 6 0C2.68629 0 0 1.11929 0 2.5ZM0.0854001 6.07731C0.0292501 6.21471 0 6.35593 0 6.5V7.5C0 8.06281 0.44633 8.58217 1.19956 9C2.29421 9.6072 4.03702 10 6 10C7.86396 10 9.5294 9.6459 10.6299 9.0902C10.6884 9.0607 10.7452 9.0306 10.8004 9C11.5537 8.58217 12 8.0628 12 7.5V6.5C12 6.35593 11.9707 6.21472 11.9146 6.07732C11.5739 6.30345 11.2012 6.49336 10.8196 6.65238C9.5102 7.19793 7.8054 7.5 6 7.5C4.1946 7.5 2.48976 7.19793 1.18044 6.65238C0.79877 6.49336 0.42614 6.30345 0.0854001 6.07731ZM0.0854001 10.0773C0.0292501 10.2147 0 10.3559 0 10.5V11.5C0 12.8807 2.68629 14 6 14C9.3137 14 12 12.8807 12 11.5V10.5C12 10.3559 11.9707 10.2147 11.9146 10.0773C11.5739 10.3035 11.2012 10.4934 10.8196 10.6524C9.5102 11.1979 7.8054 11.5 6 11.5C4.1946 11.5 2.48976 11.1979 1.18044 10.6524C0.79877 10.4934 0.42614 10.3035 0.0854001 10.0773Z" fill="#FF4931"/>
</svg>
