<svg width="16" height="11" viewBox="0 0 16 11" fill="none" xmlns="http://www.w3.org/2000/svg">
<path fill-rule="evenodd" clip-rule="evenodd" d="M3 6.5C3.55 6.5 4 6.95003 4 7.5C4 8.05003 3.55 8.50003 3 8.50003L2.00104 8.50002C0.9001 8.50001 0 7.60776 0 6.50713V1.99287C0 0.893589 0.891856 0 1.99201 0H9.00798C10.0998 0 11 0.895966 11 2.0012V5.50003C11 6.05003 10.55 6.5 10 6.5C9.45 6.5 9 6.05003 9 5.50003V3.49898C9 2.94269 8.55097 2.50003 7.99707 2.50003H3.00293C2.43789 2.50003 2 2.95194 2 3.50939V5.49066C2 6.05667 2.44771 6.5 3 6.5ZM13 2.49993H13.999C15.0999 2.49993 16 3.39217 16 4.49282V9.00709C16 10.1064 15.1081 11 14.008 11H6.99201C5.90017 11 5 10.104 5 8.99874V5.49993C5 4.94993 5.45 4.49993 6 4.49993C6.55 4.49993 7 4.94993 7 5.49993V7.50097C7 8.05727 7.44903 8.49993 8.00293 8.49993H12.997C13.5622 8.49993 14 8.04802 14 7.49056V5.5093C14 4.94328 13.5536 4.49993 13.0029 4.49993H13C12.4499 4.49993 12 4.04993 12 3.49993C12 2.94993 12.4499 2.49993 13 2.49993Z" fill="#1AFB6F"/>
</svg>
