<svg width="6" height="5" viewBox="0 0 6 5" fill="none" xmlns="http://www.w3.org/2000/svg">
<path fill-rule="evenodd" clip-rule="evenodd" d="M5.18456 3.27504L3.91303 2.48539C4.01202 2.05547 3.96894 1.60505 3.79025 1.20168C3.61157 0.798316 3.3069 0.463766 2.92197 0.248218C2.69415 0.121065 2.4432 0.0407353 2.18389 0.0119542C1.92457 -0.0168364 1.66213 0.00650462 1.41196 0.0806034C1.1618 0.154693 0.928969 0.278044 0.727153 0.443408C0.525346 0.608764 0.358626 0.812801 0.23679 1.04351C-0.0121949 1.51397 -0.0673056 2.06314 0.0832375 2.57369C0.233779 3.08424 0.578033 3.51565 1.04244 3.77575C1.96667 4.28869 3.1102 3.98281 3.65985 3.0981L4.48714 3.72586L4.52008 3.84069L5.18644 3.2741L5.18456 3.27504ZM1.60526 2.71881C1.69668 2.77072 1.79754 2.80384 1.90194 2.81621C2.00633 2.82858 2.11215 2.81996 2.21317 2.79084C2.31418 2.76173 2.40836 2.71273 2.49016 2.64669C2.57196 2.58066 2.63974 2.49894 2.6895 2.40634C2.78836 2.2161 2.80895 1.99476 2.74688 1.78955C2.68481 1.58435 2.54499 1.41153 2.35726 1.30798C2.26585 1.25607 2.16498 1.22296 2.06058 1.21058C1.95619 1.19821 1.85037 1.20683 1.74936 1.23594C1.64834 1.26506 1.55416 1.31407 1.47237 1.3801C1.39057 1.44614 1.3228 1.52785 1.27303 1.62045C1.17416 1.81069 1.15357 2.03203 1.21564 2.23723C1.27771 2.44245 1.41753 2.61527 1.60526 2.71881Z" fill="#F5F5F5"/>
</svg>
