<svg width="13" height="4" viewBox="0 0 13 4" fill="none" xmlns="http://www.w3.org/2000/svg">
<path fill-rule="evenodd" clip-rule="evenodd" d="M1.00296 3.5C0.44904 3.5 0 3.0567 0 2.497V1.0029C0 0.448999 0.44328 0 1.00296 0H2.49704C3.05096 0 3.5 0.443299 3.5 1.0029V2.497C3.5 3.0509 3.05672 3.5 2.49704 3.5H1.00296ZM5.37796 3.5C4.82404 3.5 4.375 3.0567 4.375 2.497V1.0029C4.375 0.448999 4.81828 0 5.37796 0H6.87204C7.42596 0 7.875 0.443299 7.875 1.0029V2.497C7.875 3.0509 7.43172 3.5 6.87204 3.5H5.37796ZM9.75299 3.5C9.19909 3.5 8.74999 3.0567 8.74999 2.497V1.0029C8.74999 0.448999 9.19329 0 9.75299 0H11.2471C11.801 0 12.25 0.443299 12.25 1.0029V2.497C12.25 3.0509 11.8067 3.5 11.2471 3.5H9.75299Z" fill="#FF4931"/>
</svg>
