<svg width="14" height="13" viewBox="0 0 14 13" fill="none" xmlns="http://www.w3.org/2000/svg">
<path fill-rule="evenodd" clip-rule="evenodd" d="M10.3054 12.5477C10.2856 12.603 10.2915 12.6643 10.3213 12.715C10.3769 12.8096 10.4988 12.8413 10.5917 12.783C12.5399 11.5605 13.8375 9.39153 13.8375 6.91875C13.8375 3.09763 10.7399 0 6.91875 0C3.09763 0 0 3.09763 0 6.91875C0 9.45597 1.36607 11.6732 3.39943 12.8766C3.45538 12.9098 3.52735 12.8899 3.55949 12.8334C3.57693 12.8028 3.57971 12.766 3.56705 12.733L2.84044 10.8431C2.68737 10.445 2.46646 10.0776 2.24722 9.71171C1.75792 8.89501 1.47692 7.93957 1.47692 6.91875C1.47692 3.91331 3.91331 1.47693 6.91875 1.47693C9.92419 1.47693 12.3606 3.91331 12.3606 6.91875C12.3606 8.03684 12.0235 9.07645 11.4448 9.94127C11.2036 10.3018 10.9734 10.673 10.8278 11.0816L10.3054 12.5477Z" fill="#A9A9A9"/>
</svg>
