<svg width="14" height="14" viewBox="0 0 14 14" fill="none" xmlns="http://www.w3.org/2000/svg">
<path fill-rule="evenodd" clip-rule="evenodd" d="M5.80496 0.374287C6.30458 -0.12534 7.11684 -0.124184 7.61522 0.374287L8.82208 1.58106C9.32171 2.08069 9.32055 2.89294 8.82208 3.39132L7.61522 4.59819C7.11559 5.09781 6.30343 5.09666 5.80496 4.59819L4.59818 3.39132C4.09856 2.89169 4.09971 2.07953 4.59818 1.58106L5.80496 0.374287ZM1.58106 4.59819C2.08069 4.09856 2.89294 4.09981 3.39132 4.59819L4.59818 5.80505C5.09781 6.30468 5.09656 7.11684 4.59818 7.61531L3.39132 8.82208C2.89169 9.32171 2.07953 9.32056 1.58106 8.82208L0.374287 7.61531C-0.12534 7.11568 -0.124184 6.30343 0.374287 5.80505L1.58106 4.59819ZM10.029 4.59819C10.5286 4.09856 11.3407 4.09981 11.8392 4.59819L13.046 5.80505C13.5456 6.30468 13.5445 7.11684 13.046 7.61531L11.8392 8.82208C11.3396 9.32171 10.5273 9.32056 10.029 8.82208L8.82208 7.61531C8.32246 7.11568 8.32371 6.30343 8.82208 5.80505L10.029 4.59819ZM5.80496 8.82208C6.30458 8.32246 7.11684 8.32371 7.61522 8.82208L8.82208 10.029C9.32171 10.5286 9.32055 11.3407 8.82208 11.8392L7.61522 13.0461C7.11559 13.5457 6.30343 13.5445 5.80496 13.0461L4.59818 11.8392C4.09856 11.3396 4.09971 10.5273 4.59818 10.029L5.80496 8.82208Z" fill="#1AFB6F"/>
</svg>
