<svg width="14" height="9" viewBox="0 0 14 9" fill="none" xmlns="http://www.w3.org/2000/svg">
<path fill-rule="evenodd" clip-rule="evenodd" d="M5.00459 4.22254L4.76759 5.04054L3.88859 5.70854C3.60709 5.25336 3.16082 4.92434 2.64277 4.79002C2.1247 4.65572 1.57479 4.72646 1.10759 4.98753C0.61416 5.26389 0.248389 5.72227 0.0884401 6.26472C-0.0715119 6.80718 -0.0129577 7.39068 0.251589 7.89055C0.38104 8.13569 0.558183 8.35249 0.772606 8.52815C0.987029 8.70381 1.23441 8.83489 1.50021 8.91364C1.76601 8.99238 2.04486 9.01718 2.32038 8.98655C2.5959 8.95604 2.86253 8.87066 3.10459 8.73558C3.51358 8.50655 3.83729 8.15101 4.02714 7.72244C4.21701 7.29391 4.26278 6.81533 4.15759 6.35854L13.9995 0.260538C13.0118 -0.0364102 11.965 -0.0803071 10.9558 0.13287C9.94651 0.346047 9.00701 0.809464 8.22359 1.48054L5.00459 4.22254ZM2.85859 6.44353C2.80571 6.34514 2.7337 6.25832 2.6468 6.18816C2.55989 6.118 2.45982 6.06592 2.35249 6.035C2.24517 6.00406 2.13273 5.9949 2.02182 6.00805C1.91089 6.02119 1.80371 6.05638 1.70659 6.11153C1.50713 6.22156 1.35857 6.40517 1.29262 6.6232C1.22667 6.84124 1.24855 7.07641 1.35359 7.27854C1.40647 7.37693 1.47848 7.46381 1.56539 7.53386C1.6523 7.60404 1.75237 7.65615 1.85969 7.68712C1.96702 7.71798 2.07945 7.72712 2.19037 7.71398C2.30129 7.70084 2.40847 7.66575 2.50559 7.61055C2.70505 7.50049 2.85361 7.3169 2.91957 7.09887C2.98551 6.88084 2.96363 6.64566 2.85859 6.44353Z" fill="#267AD2"/>
</svg>
