<svg width="5" height="5" viewBox="0 0 5 5" fill="none" xmlns="http://www.w3.org/2000/svg">
<path fill-rule="evenodd" clip-rule="evenodd" d="M0.527708 1.17279C0.460367 1.05081 0.289591 1.043 0.226786 1.16738C0.0817131 1.45464 0 1.77936 0 2.12316C0 3.29578 0.950569 4.24637 2.12316 4.24637C3.29575 4.24637 4.24632 3.29578 4.24632 2.12316C4.24632 1.72403 4.1362 1.35062 3.94467 1.03166C3.87559 0.916621 3.7126 0.929609 3.64776 1.0471L3.289 1.69701C2.75208 2.66968 1.354 2.66968 0.817073 1.69701L0.527708 1.17279ZM1.26897 0.178824C1.17376 0.220715 1.14091 0.336141 1.19118 0.4272L1.64104 1.24216C1.82002 1.56639 2.28605 1.56639 2.46503 1.24216L2.94042 0.380941C2.99277 0.286118 2.95466 0.165986 2.85294 0.128753C2.62538 0.0454586 2.37958 0 2.12316 0C1.81929 0 1.53034 0.0638401 1.26897 0.178824Z" fill="#A9A9A9"/>
</svg>
