<svg width="15" height="14" viewBox="0 0 15 14" fill="none" xmlns="http://www.w3.org/2000/svg">
<path fill-rule="evenodd" clip-rule="evenodd" d="M0 1.07881C0 0.483002 0.476803 0 1.07882 0H2.6859C3.28171 0 3.76471 0.476809 3.76471 1.07881V2.68589C3.76471 3.2817 3.2879 3.76471 2.6859 3.76471H1.07882C0.483001 3.76471 0 3.28791 0 2.68589V1.07881ZM4.70589 1.07881C4.70589 0.483002 5.18269 0 5.7847 0H7.39178C7.98759 0 8.47059 0.476809 8.47059 1.07881V2.68589C8.47059 3.2817 7.99378 3.76471 7.39178 3.76471H5.7847C5.18889 3.76471 4.70589 3.28791 4.70589 2.68589V1.07881ZM0 5.7847C0 5.18888 0.476803 4.70588 1.07882 4.70588H2.6859C3.28171 4.70588 3.76471 5.18269 3.76471 5.7847V7.39177C3.76471 7.98759 3.2879 8.47063 2.6859 8.47063H1.07882C0.483001 8.47063 0 7.99379 0 7.39177V5.7847ZM0 10.4906C0 9.89473 0.476803 9.41181 1.07882 9.41181H2.6859C3.28171 9.41181 3.76471 9.88861 3.76471 10.4906V12.0976C3.76471 12.6935 3.2879 13.1765 2.6859 13.1765H1.07882C0.483001 13.1765 0 12.6997 0 12.0976V10.4906ZM4.70589 10.4906C4.70589 9.89473 5.18269 9.41181 5.7847 9.41181H7.39178C7.98759 9.41181 8.47059 9.88861 8.47059 10.4906V12.0976C8.47059 12.6935 7.99378 13.1765 7.39178 13.1765H5.7847C5.18889 13.1765 4.70589 12.6997 4.70589 12.0976V10.4906ZM4.70589 5.7847C4.70589 5.18888 5.18269 4.70588 5.7847 4.70588H7.39178C7.98759 4.70588 8.47059 5.18269 8.47059 5.7847V7.39177C8.47059 7.98759 7.99378 8.47063 7.39178 8.47063H5.7847C5.18889 8.47063 4.70589 7.99379 4.70589 7.39177V5.7847ZM9.41176 1.07881C9.41176 0.483002 9.88856 0 10.4905 0H12.0977C12.6935 0 13.1765 0.476809 13.1765 1.07881V2.68589C13.1765 3.2817 12.6997 3.76471 12.0977 3.76471H10.4905C9.89477 3.76471 9.41176 3.28791 9.41176 2.68589V1.07881ZM14.6967 9.18668C14.9197 9.40965 14.9197 9.76908 14.6967 9.99092C14.475 10.2139 14.1155 10.2139 13.8925 9.99092L12.9223 9.02056C12.8926 8.99101 12.8778 8.95459 12.8563 8.92165C12.5139 9.12974 12.1157 9.25605 11.6869 9.25605C10.4322 9.25605 9.41176 8.23568 9.41176 6.98097C9.41176 5.72626 10.4322 4.70588 11.6869 4.70588C12.9415 4.70588 13.962 5.72626 13.962 6.98097C13.962 7.40983 13.8357 7.80796 13.6275 8.15036C13.6605 8.17197 13.6968 8.18676 13.7265 8.21634L14.6967 9.18668ZM11.6869 8.11851C12.3147 8.11851 12.8244 7.60889 12.8244 6.98097C12.8244 6.35304 12.3147 5.84343 11.6869 5.84343C11.0589 5.84343 10.5493 6.35304 10.5493 6.98097C10.5493 7.60889 11.0589 8.11851 11.6869 8.11851Z" fill="#FF4931"/>
</svg>
