<svg width="14" height="14" viewBox="0 0 14 14" fill="none" xmlns="http://www.w3.org/2000/svg">
<path opacity="0.87" fill-rule="evenodd" clip-rule="evenodd" d="M3.73333 0C1.67147 0 0 1.67147 0 3.73333V9.33333C0 11.3952 1.67147 13.0667 3.73333 13.0667H9.33333C11.3952 13.0667 13.0667 11.3952 13.0667 9.33333V3.73333C13.0667 1.67147 11.3952 0 9.33333 0H3.73333ZM6.27307 3.07436C6.19006 2.78386 5.93005 2.57939 5.62816 2.56723C5.32627 2.55508 5.05066 2.73798 4.94457 3.02089L3.7149 6.3H2.33333C1.94674 6.3 1.63333 6.61341 1.63333 7C1.63333 7.3866 1.94674 7.7 2.33333 7.7H4.2C4.49179 7.7 4.75297 7.51901 4.85543 7.24579L5.51009 5.50003L6.7936 9.99221C6.8729 10.2699 7.11445 10.4703 7.40189 10.497C7.68931 10.5237 7.96367 10.3713 8.09277 10.1131L9.29931 7.7H10.7333C11.1199 7.7 11.4333 7.3866 11.4333 7C11.4333 6.61341 11.1199 6.3 10.7333 6.3H8.86667C8.6015 6.3 8.35914 6.44981 8.24057 6.68696L7.64535 7.87738L6.27307 3.07436Z" fill="#F5F5F5"/>
</svg>
