<svg width="11" height="15" viewBox="0 0 11 15" fill="none" xmlns="http://www.w3.org/2000/svg">
<path fill-rule="evenodd" clip-rule="evenodd" d="M1.69576 2.29752L3.63315 1.00593C3.72738 0.943108 3.93181 0.921112 4.03575 0.961084L9.27347 2.97559C9.33032 2.99748 9.41173 3.11609 9.41173 3.18223V12.5879C9.41173 12.8478 9.62246 13.0585 9.88232 13.0585C10.1423 13.0585 10.3529 12.8478 10.3529 12.5879V3.18223C10.3529 2.72676 10.0318 2.25887 9.61135 2.09715L4.37361 0.0826429C3.9856 -0.066591 3.46044 -0.0100884 3.11108 0.222826L0.680141 1.84345L0.365845 2.05298L0.368226 2.05913C0.145092 2.15988 0 2.39173 0 2.70557V11.222C0 11.7418 0.393562 12.3086 0.877007 12.4872L6.63995 14.6168C7.12429 14.7958 7.51695 14.517 7.51695 14.0002V5.06825C7.51695 4.54872 7.11281 4.0005 6.62514 3.84719L1.69576 2.29752Z" fill="#1AFB6F"/>
</svg>
