<svg width="13" height="4" viewBox="0 0 13 4" fill="none" xmlns="http://www.w3.org/2000/svg">
<path fill-rule="evenodd" clip-rule="evenodd" d="M1.01888 3.55556C0.456169 3.55556 0 3.10524 0 2.53662V1.01884C0 0.456178 0.450311 0 1.01888 0H2.53668C3.09939 0 3.55556 0.450311 3.55556 1.01884V2.53662C3.55556 3.09938 3.10524 3.55556 2.53668 3.55556H1.01888ZM5.46332 3.55556C4.90061 3.55556 4.44444 3.10524 4.44444 2.53662V1.01884C4.44444 0.456178 4.89476 0 5.46332 0H6.98111C7.54387 0 7.99996 0.450311 7.99996 1.01884V2.53662C7.99996 3.09938 7.54964 3.55556 6.98111 3.55556H5.46332ZM9.90778 3.55556C9.34502 3.55556 8.88884 3.10524 8.88884 2.53662V1.01884C8.88884 0.456178 9.33924 0 9.90778 0H11.4256C11.9883 0 12.4444 0.450311 12.4444 1.01884V2.53662C12.4444 3.09938 11.9941 3.55556 11.4256 3.55556H9.90778Z" fill="#F5F5F5"/>
</svg>
