<svg width="40" height="40" viewBox="0 0 40 40" fill="none" xmlns="http://www.w3.org/2000/svg">
<path fill-rule="evenodd" clip-rule="evenodd" d="M14.7415 26.3876C14.1788 26.3876 13.7227 25.9373 13.7227 25.3687V23.8509C13.7227 23.2882 14.173 22.832 14.7415 22.832H16.2593C16.822 22.832 17.2782 23.2823 17.2782 23.8509V25.3687C17.2782 25.9314 16.8279 26.3876 16.2593 26.3876H14.7415ZM19.186 26.3876C18.6233 26.3876 18.1671 25.9373 18.1671 25.3687V23.8509C18.1671 23.2882 18.6174 22.832 19.186 22.832H20.7038C21.2665 22.832 21.7226 23.2823 21.7226 23.8509V25.3687C21.7226 25.9314 21.2723 26.3876 20.7038 26.3876H19.186ZM23.6304 26.3876C23.0677 26.3876 22.6115 25.9373 22.6115 25.3687V23.8509C22.6115 23.2882 23.0619 22.832 23.6304 22.832H25.1482C25.711 22.832 26.1671 23.2823 26.1671 23.8509V25.3687C26.1671 25.9314 25.7167 26.3876 25.1482 26.3876H23.6304Z" fill="#FF4931"/>
<path fill-rule="evenodd" clip-rule="evenodd" d="M24.2607 17.61V20.7954C24.2607 21.3816 23.7895 21.8569 23.199 21.8569C22.6127 21.8569 22.1373 21.3858 22.1373 20.7954V17.61H21.0657C20.4927 17.61 20.299 17.2298 20.6508 16.7608L22.5621 14.2124C22.9163 13.74 23.4841 13.7434 23.8359 14.2124L25.7472 16.7608C26.1015 17.2331 25.9132 17.61 25.3322 17.61H24.2607Z" fill="#FF4931"/>
<path fill-rule="evenodd" clip-rule="evenodd" d="M17.5595 17.61V20.7954C17.5595 21.3816 17.0883 21.8569 16.4978 21.8569C15.9115 21.8569 15.4361 21.3858 15.4361 20.7954V17.61H14.3646C13.7915 17.61 13.5978 17.2298 13.9496 16.7608L15.8609 14.2124C16.2152 13.74 16.783 13.7434 17.1347 14.2124L19.0461 16.7608C19.4003 17.2331 19.212 17.61 18.6311 17.61H17.5595Z" fill="#FF4931"/>
</svg>
