<svg width="40" height="40" viewBox="0 0 40 40" fill="none" xmlns="http://www.w3.org/2000/svg">
<path d="M20.1329 20.0081C19.9156 20.4018 19.3497 20.4018 19.1324 20.0081L15.7386 13.86C15.5045 13.4361 15.871 12.9314 16.3466 13.0227L19.5233 13.6326C19.5945 13.6463 19.6676 13.6463 19.7388 13.6326L22.9188 13.0225C23.3944 12.9313 23.7608 13.4359 23.5268 13.8599L20.1329 20.0081Z" fill="#D9D9D9"/>
<path fill-rule="evenodd" clip-rule="evenodd" d="M17.7795 19.9241C17.6977 19.776 17.4903 19.7665 17.4141 19.9175C17.2379 20.2664 17.1387 20.6607 17.1387 21.0781C17.1387 22.502 18.2929 23.6562 19.7168 23.6562C21.1407 23.6562 22.2949 22.502 22.2949 21.0781C22.2949 20.5935 22.1612 20.14 21.9286 19.7527C21.8447 19.613 21.6468 19.6288 21.5681 19.7715L21.1325 20.5607C20.4805 21.7418 18.7828 21.7417 18.1308 20.5607L17.7795 19.9241ZM18.6796 18.7171C18.564 18.768 18.5241 18.9082 18.5851 19.0187L19.1314 20.0083C19.3487 20.402 19.9146 20.402 20.1319 20.0083L20.7092 18.9626C20.7728 18.8474 20.7265 18.7015 20.603 18.6563C20.3266 18.5552 20.0282 18.5 19.7168 18.5C19.3478 18.5 18.9969 18.5775 18.6796 18.7171Z" fill="#D9D9D9"/>
<path fill-rule="evenodd" clip-rule="evenodd" d="M16.9163 15.995C17.0993 16.3267 17.5155 16.4423 17.8687 16.3054C18.4421 16.0832 19.0655 15.9613 19.7174 15.9613C20.3228 15.9613 20.9038 16.0664 21.4429 16.2595C21.7932 16.3849 22.1985 16.2662 22.3783 15.9404C22.5649 15.6023 22.4378 15.1732 22.0782 15.0327C21.3465 14.7468 20.5503 14.5898 19.7174 14.5898C18.8253 14.5898 17.9752 14.7699 17.2016 15.0956C16.8525 15.2425 16.7332 15.6634 16.9163 15.995ZM23.6892 17.1128C23.5402 17.3829 23.5868 17.7155 23.775 17.96C24.4395 18.8234 24.8347 19.9049 24.8347 21.0787C24.8347 23.9049 22.5436 26.1961 19.7174 26.1961C16.8911 26.1961 14.5999 23.9049 14.5999 21.0787C14.5999 19.9561 14.9614 18.918 15.5742 18.0743C15.7515 17.8303 15.792 17.5057 15.6462 17.2416C15.4192 16.8304 14.8619 16.7486 14.5751 17.1206C13.7307 18.216 13.2285 19.5887 13.2285 21.0787C13.2285 24.6624 16.1337 27.5675 19.7174 27.5675C23.301 27.5675 26.2062 24.6624 26.2062 21.0787C26.2062 19.524 25.6594 18.097 24.7478 16.9796C24.4563 16.6224 23.912 16.7092 23.6892 17.1128Z" fill="#D9D9D9"/>
</svg>
