<svg width="40" height="40" viewBox="0 0 40 40" fill="none" xmlns="http://www.w3.org/2000/svg">
<g clip-path="url(#clip0_12215_10285)">
<path d="M20.1619 26.8373C19.9279 27.2613 19.3184 27.2613 19.0844 26.8373L15.545 20.4253C15.2929 19.9687 15.6875 19.4252 16.1997 19.5236L19.5055 20.1582C19.5821 20.173 19.6609 20.173 19.7375 20.1583L23.0467 19.5234C23.5589 19.4251 23.9535 19.9685 23.7015 20.4251L20.1619 26.8373Z" fill="#D9D9D9"/>
<path fill-rule="evenodd" clip-rule="evenodd" d="M22.0935 18.4986C22.2391 18.4725 22.3297 18.3242 22.2719 18.188C21.8495 17.1935 20.8638 16.4961 19.7152 16.4961C18.5499 16.4961 17.5523 17.214 17.1405 18.2316C17.0857 18.367 17.1757 18.5125 17.3194 18.5388L19.5231 18.9435C19.5522 18.9488 19.5819 18.9488 19.611 18.9436L22.0935 18.4986ZM22.3905 20.018C22.4356 19.8558 22.2901 19.7138 22.1244 19.7435L19.6743 20.1827C19.6016 20.1957 19.5272 20.1956 19.4546 20.1822L17.32 19.7903C17.1524 19.7595 17.0057 19.9047 17.0544 20.0679C17.3964 21.2137 18.4583 22.049 19.7152 22.049C20.9904 22.049 22.0648 21.1893 22.3905 20.018Z" fill="#D9D9D9"/>
<path fill-rule="evenodd" clip-rule="evenodd" d="M23.1022 24.8483C23.0824 24.9037 23.0883 24.965 23.1181 25.0157C23.1737 25.1103 23.2957 25.1421 23.3887 25.0837C25.3368 23.8612 26.6343 21.6923 26.6343 19.2195C26.6343 15.3984 23.5367 12.3008 19.7156 12.3008C15.8945 12.3008 12.7969 15.3984 12.7969 19.2195C12.7969 21.7568 14.163 23.9742 16.1966 25.1776C16.2524 25.2106 16.3242 25.1909 16.3562 25.1346C16.3736 25.1039 16.3764 25.0671 16.3638 25.0344L15.6366 23.143C15.4835 22.7448 15.2627 22.3775 15.0435 22.0115C14.5546 21.195 14.2738 20.24 14.2738 19.2195C14.2738 16.2141 16.7102 13.7777 19.7156 13.7777C22.7211 13.7777 25.1574 16.2141 25.1574 19.2195C25.1574 20.3378 24.8203 21.3775 24.2415 22.2424C24.0003 22.6028 23.77 22.974 23.6244 23.3826L23.1022 24.8483Z" fill="#D9D9D9"/>
</g>
<defs>
<clipPath id="clip0_12215_10285">
<rect width="16" height="16" fill="white" transform="translate(11.75 12)"/>
</clipPath>
</defs>
</svg>
